%TF.GenerationSoftware,KiCad,Pcbnew,9.0.3*%
%TF.CreationDate,2025-07-27T17:57:50+02:00*%
%TF.ProjectId,LoRa_Project,4c6f5261-5f50-4726-9f6a-6563742e6b69,rev?*%
%TF.SameCoordinates,Original*%
%TF.FileFunction,Legend,Top*%
%TF.FilePolarity,Positive*%
%FSLAX46Y46*%
G04 Gerber Fmt 4.6, Leading zero omitted, Abs format (unit mm)*
G04 Created by KiCad (PCBNEW 9.0.3) date 2025-07-27 17:57:50*
%MOMM*%
%LPD*%
G01*
G04 APERTURE LIST*
%ADD10C,0.100000*%
%ADD11C,0.150000*%
%ADD12C,0.120000*%
%ADD13C,0.127000*%
%ADD14C,0.250000*%
%ADD15C,0.200000*%
G04 APERTURE END LIST*
D10*
X227715789Y-94702847D02*
X227815789Y-94740942D01*
X227815789Y-94740942D02*
X227849122Y-94779038D01*
X227849122Y-94779038D02*
X227882455Y-94855228D01*
X227882455Y-94855228D02*
X227882455Y-94969514D01*
X227882455Y-94969514D02*
X227849122Y-95045704D01*
X227849122Y-95045704D02*
X227815789Y-95083800D01*
X227815789Y-95083800D02*
X227749122Y-95121895D01*
X227749122Y-95121895D02*
X227482455Y-95121895D01*
X227482455Y-95121895D02*
X227482455Y-94321895D01*
X227482455Y-94321895D02*
X227715789Y-94321895D01*
X227715789Y-94321895D02*
X227782455Y-94359990D01*
X227782455Y-94359990D02*
X227815789Y-94398085D01*
X227815789Y-94398085D02*
X227849122Y-94474276D01*
X227849122Y-94474276D02*
X227849122Y-94550466D01*
X227849122Y-94550466D02*
X227815789Y-94626657D01*
X227815789Y-94626657D02*
X227782455Y-94664752D01*
X227782455Y-94664752D02*
X227715789Y-94702847D01*
X227715789Y-94702847D02*
X227482455Y-94702847D01*
X228149122Y-94893323D02*
X228482455Y-94893323D01*
X228082455Y-95121895D02*
X228315789Y-94321895D01*
X228315789Y-94321895D02*
X228549122Y-95121895D01*
X228682455Y-94321895D02*
X229082455Y-94321895D01*
X228882455Y-95121895D02*
X228882455Y-94321895D01*
X229215788Y-94321895D02*
X229615788Y-94321895D01*
X229415788Y-95121895D02*
X229415788Y-94321895D01*
X214532455Y-72363561D02*
X214532455Y-73011180D01*
X214532455Y-73011180D02*
X214499122Y-73087371D01*
X214499122Y-73087371D02*
X214465789Y-73125466D01*
X214465789Y-73125466D02*
X214399122Y-73163561D01*
X214399122Y-73163561D02*
X214299122Y-73163561D01*
X214299122Y-73163561D02*
X214232455Y-73125466D01*
X214532455Y-72858800D02*
X214465789Y-72896895D01*
X214465789Y-72896895D02*
X214332455Y-72896895D01*
X214332455Y-72896895D02*
X214265789Y-72858800D01*
X214265789Y-72858800D02*
X214232455Y-72820704D01*
X214232455Y-72820704D02*
X214199122Y-72744514D01*
X214199122Y-72744514D02*
X214199122Y-72515942D01*
X214199122Y-72515942D02*
X214232455Y-72439752D01*
X214232455Y-72439752D02*
X214265789Y-72401657D01*
X214265789Y-72401657D02*
X214332455Y-72363561D01*
X214332455Y-72363561D02*
X214465789Y-72363561D01*
X214465789Y-72363561D02*
X214532455Y-72401657D01*
X214865788Y-72896895D02*
X214865788Y-72363561D01*
X214865788Y-72096895D02*
X214832455Y-72134990D01*
X214832455Y-72134990D02*
X214865788Y-72173085D01*
X214865788Y-72173085D02*
X214899122Y-72134990D01*
X214899122Y-72134990D02*
X214865788Y-72096895D01*
X214865788Y-72096895D02*
X214865788Y-72173085D01*
X215099121Y-72363561D02*
X215365788Y-72363561D01*
X215199121Y-72096895D02*
X215199121Y-72782609D01*
X215199121Y-72782609D02*
X215232455Y-72858800D01*
X215232455Y-72858800D02*
X215299121Y-72896895D01*
X215299121Y-72896895D02*
X215365788Y-72896895D01*
X215599121Y-72896895D02*
X215599121Y-72096895D01*
X215899121Y-72896895D02*
X215899121Y-72477847D01*
X215899121Y-72477847D02*
X215865788Y-72401657D01*
X215865788Y-72401657D02*
X215799121Y-72363561D01*
X215799121Y-72363561D02*
X215699121Y-72363561D01*
X215699121Y-72363561D02*
X215632455Y-72401657D01*
X215632455Y-72401657D02*
X215599121Y-72439752D01*
X216532454Y-72363561D02*
X216532454Y-72896895D01*
X216232454Y-72363561D02*
X216232454Y-72782609D01*
X216232454Y-72782609D02*
X216265788Y-72858800D01*
X216265788Y-72858800D02*
X216332454Y-72896895D01*
X216332454Y-72896895D02*
X216432454Y-72896895D01*
X216432454Y-72896895D02*
X216499121Y-72858800D01*
X216499121Y-72858800D02*
X216532454Y-72820704D01*
X216865787Y-72896895D02*
X216865787Y-72096895D01*
X216865787Y-72401657D02*
X216932454Y-72363561D01*
X216932454Y-72363561D02*
X217065787Y-72363561D01*
X217065787Y-72363561D02*
X217132454Y-72401657D01*
X217132454Y-72401657D02*
X217165787Y-72439752D01*
X217165787Y-72439752D02*
X217199121Y-72515942D01*
X217199121Y-72515942D02*
X217199121Y-72744514D01*
X217199121Y-72744514D02*
X217165787Y-72820704D01*
X217165787Y-72820704D02*
X217132454Y-72858800D01*
X217132454Y-72858800D02*
X217065787Y-72896895D01*
X217065787Y-72896895D02*
X216932454Y-72896895D01*
X216932454Y-72896895D02*
X216865787Y-72858800D01*
X217499120Y-72820704D02*
X217532454Y-72858800D01*
X217532454Y-72858800D02*
X217499120Y-72896895D01*
X217499120Y-72896895D02*
X217465787Y-72858800D01*
X217465787Y-72858800D02*
X217499120Y-72820704D01*
X217499120Y-72820704D02*
X217499120Y-72896895D01*
X218132453Y-72858800D02*
X218065787Y-72896895D01*
X218065787Y-72896895D02*
X217932453Y-72896895D01*
X217932453Y-72896895D02*
X217865787Y-72858800D01*
X217865787Y-72858800D02*
X217832453Y-72820704D01*
X217832453Y-72820704D02*
X217799120Y-72744514D01*
X217799120Y-72744514D02*
X217799120Y-72515942D01*
X217799120Y-72515942D02*
X217832453Y-72439752D01*
X217832453Y-72439752D02*
X217865787Y-72401657D01*
X217865787Y-72401657D02*
X217932453Y-72363561D01*
X217932453Y-72363561D02*
X218065787Y-72363561D01*
X218065787Y-72363561D02*
X218132453Y-72401657D01*
X218532453Y-72896895D02*
X218465787Y-72858800D01*
X218465787Y-72858800D02*
X218432453Y-72820704D01*
X218432453Y-72820704D02*
X218399120Y-72744514D01*
X218399120Y-72744514D02*
X218399120Y-72515942D01*
X218399120Y-72515942D02*
X218432453Y-72439752D01*
X218432453Y-72439752D02*
X218465787Y-72401657D01*
X218465787Y-72401657D02*
X218532453Y-72363561D01*
X218532453Y-72363561D02*
X218632453Y-72363561D01*
X218632453Y-72363561D02*
X218699120Y-72401657D01*
X218699120Y-72401657D02*
X218732453Y-72439752D01*
X218732453Y-72439752D02*
X218765787Y-72515942D01*
X218765787Y-72515942D02*
X218765787Y-72744514D01*
X218765787Y-72744514D02*
X218732453Y-72820704D01*
X218732453Y-72820704D02*
X218699120Y-72858800D01*
X218699120Y-72858800D02*
X218632453Y-72896895D01*
X218632453Y-72896895D02*
X218532453Y-72896895D01*
X219065786Y-72896895D02*
X219065786Y-72363561D01*
X219065786Y-72439752D02*
X219099120Y-72401657D01*
X219099120Y-72401657D02*
X219165786Y-72363561D01*
X219165786Y-72363561D02*
X219265786Y-72363561D01*
X219265786Y-72363561D02*
X219332453Y-72401657D01*
X219332453Y-72401657D02*
X219365786Y-72477847D01*
X219365786Y-72477847D02*
X219365786Y-72896895D01*
X219365786Y-72477847D02*
X219399120Y-72401657D01*
X219399120Y-72401657D02*
X219465786Y-72363561D01*
X219465786Y-72363561D02*
X219565786Y-72363561D01*
X219565786Y-72363561D02*
X219632453Y-72401657D01*
X219632453Y-72401657D02*
X219665786Y-72477847D01*
X219665786Y-72477847D02*
X219665786Y-72896895D01*
X220499119Y-72058800D02*
X219899119Y-73087371D01*
X220932452Y-72096895D02*
X220932452Y-72668323D01*
X220932452Y-72668323D02*
X220899119Y-72782609D01*
X220899119Y-72782609D02*
X220832452Y-72858800D01*
X220832452Y-72858800D02*
X220732452Y-72896895D01*
X220732452Y-72896895D02*
X220665786Y-72896895D01*
X221499119Y-72477847D02*
X221599119Y-72515942D01*
X221599119Y-72515942D02*
X221632452Y-72554038D01*
X221632452Y-72554038D02*
X221665785Y-72630228D01*
X221665785Y-72630228D02*
X221665785Y-72744514D01*
X221665785Y-72744514D02*
X221632452Y-72820704D01*
X221632452Y-72820704D02*
X221599119Y-72858800D01*
X221599119Y-72858800D02*
X221532452Y-72896895D01*
X221532452Y-72896895D02*
X221265785Y-72896895D01*
X221265785Y-72896895D02*
X221265785Y-72096895D01*
X221265785Y-72096895D02*
X221499119Y-72096895D01*
X221499119Y-72096895D02*
X221565785Y-72134990D01*
X221565785Y-72134990D02*
X221599119Y-72173085D01*
X221599119Y-72173085D02*
X221632452Y-72249276D01*
X221632452Y-72249276D02*
X221632452Y-72325466D01*
X221632452Y-72325466D02*
X221599119Y-72401657D01*
X221599119Y-72401657D02*
X221565785Y-72439752D01*
X221565785Y-72439752D02*
X221499119Y-72477847D01*
X221499119Y-72477847D02*
X221265785Y-72477847D01*
X222232452Y-72858800D02*
X222165785Y-72896895D01*
X222165785Y-72896895D02*
X222032452Y-72896895D01*
X222032452Y-72896895D02*
X221965785Y-72858800D01*
X221965785Y-72858800D02*
X221932452Y-72782609D01*
X221932452Y-72782609D02*
X221932452Y-72477847D01*
X221932452Y-72477847D02*
X221965785Y-72401657D01*
X221965785Y-72401657D02*
X222032452Y-72363561D01*
X222032452Y-72363561D02*
X222165785Y-72363561D01*
X222165785Y-72363561D02*
X222232452Y-72401657D01*
X222232452Y-72401657D02*
X222265785Y-72477847D01*
X222265785Y-72477847D02*
X222265785Y-72554038D01*
X222265785Y-72554038D02*
X221932452Y-72630228D01*
X222832452Y-72858800D02*
X222765785Y-72896895D01*
X222765785Y-72896895D02*
X222632452Y-72896895D01*
X222632452Y-72896895D02*
X222565785Y-72858800D01*
X222565785Y-72858800D02*
X222532452Y-72782609D01*
X222532452Y-72782609D02*
X222532452Y-72477847D01*
X222532452Y-72477847D02*
X222565785Y-72401657D01*
X222565785Y-72401657D02*
X222632452Y-72363561D01*
X222632452Y-72363561D02*
X222765785Y-72363561D01*
X222765785Y-72363561D02*
X222832452Y-72401657D01*
X222832452Y-72401657D02*
X222865785Y-72477847D01*
X222865785Y-72477847D02*
X222865785Y-72554038D01*
X222865785Y-72554038D02*
X222532452Y-72630228D01*
X223399119Y-72477847D02*
X223499119Y-72515942D01*
X223499119Y-72515942D02*
X223532452Y-72554038D01*
X223532452Y-72554038D02*
X223565785Y-72630228D01*
X223565785Y-72630228D02*
X223565785Y-72744514D01*
X223565785Y-72744514D02*
X223532452Y-72820704D01*
X223532452Y-72820704D02*
X223499119Y-72858800D01*
X223499119Y-72858800D02*
X223432452Y-72896895D01*
X223432452Y-72896895D02*
X223165785Y-72896895D01*
X223165785Y-72896895D02*
X223165785Y-72096895D01*
X223165785Y-72096895D02*
X223399119Y-72096895D01*
X223399119Y-72096895D02*
X223465785Y-72134990D01*
X223465785Y-72134990D02*
X223499119Y-72173085D01*
X223499119Y-72173085D02*
X223532452Y-72249276D01*
X223532452Y-72249276D02*
X223532452Y-72325466D01*
X223532452Y-72325466D02*
X223499119Y-72401657D01*
X223499119Y-72401657D02*
X223465785Y-72439752D01*
X223465785Y-72439752D02*
X223399119Y-72477847D01*
X223399119Y-72477847D02*
X223165785Y-72477847D01*
X223865785Y-72896895D02*
X223865785Y-72096895D01*
X224265785Y-72896895D02*
X223965785Y-72439752D01*
X224265785Y-72096895D02*
X223865785Y-72554038D01*
X225265789Y-95596895D02*
X225699122Y-95596895D01*
X225699122Y-95596895D02*
X225465789Y-95901657D01*
X225465789Y-95901657D02*
X225565789Y-95901657D01*
X225565789Y-95901657D02*
X225632455Y-95939752D01*
X225632455Y-95939752D02*
X225665789Y-95977847D01*
X225665789Y-95977847D02*
X225699122Y-96054038D01*
X225699122Y-96054038D02*
X225699122Y-96244514D01*
X225699122Y-96244514D02*
X225665789Y-96320704D01*
X225665789Y-96320704D02*
X225632455Y-96358800D01*
X225632455Y-96358800D02*
X225565789Y-96396895D01*
X225565789Y-96396895D02*
X225365789Y-96396895D01*
X225365789Y-96396895D02*
X225299122Y-96358800D01*
X225299122Y-96358800D02*
X225265789Y-96320704D01*
X225999122Y-96320704D02*
X226032456Y-96358800D01*
X226032456Y-96358800D02*
X225999122Y-96396895D01*
X225999122Y-96396895D02*
X225965789Y-96358800D01*
X225965789Y-96358800D02*
X225999122Y-96320704D01*
X225999122Y-96320704D02*
X225999122Y-96396895D01*
X226265789Y-95596895D02*
X226699122Y-95596895D01*
X226699122Y-95596895D02*
X226465789Y-95901657D01*
X226465789Y-95901657D02*
X226565789Y-95901657D01*
X226565789Y-95901657D02*
X226632455Y-95939752D01*
X226632455Y-95939752D02*
X226665789Y-95977847D01*
X226665789Y-95977847D02*
X226699122Y-96054038D01*
X226699122Y-96054038D02*
X226699122Y-96244514D01*
X226699122Y-96244514D02*
X226665789Y-96320704D01*
X226665789Y-96320704D02*
X226632455Y-96358800D01*
X226632455Y-96358800D02*
X226565789Y-96396895D01*
X226565789Y-96396895D02*
X226365789Y-96396895D01*
X226365789Y-96396895D02*
X226299122Y-96358800D01*
X226299122Y-96358800D02*
X226265789Y-96320704D01*
X226899122Y-95596895D02*
X227132456Y-96396895D01*
X227132456Y-96396895D02*
X227365789Y-95596895D01*
X237632455Y-57196895D02*
X237399122Y-56815942D01*
X237232455Y-57196895D02*
X237232455Y-56396895D01*
X237232455Y-56396895D02*
X237499122Y-56396895D01*
X237499122Y-56396895D02*
X237565789Y-56434990D01*
X237565789Y-56434990D02*
X237599122Y-56473085D01*
X237599122Y-56473085D02*
X237632455Y-56549276D01*
X237632455Y-56549276D02*
X237632455Y-56663561D01*
X237632455Y-56663561D02*
X237599122Y-56739752D01*
X237599122Y-56739752D02*
X237565789Y-56777847D01*
X237565789Y-56777847D02*
X237499122Y-56815942D01*
X237499122Y-56815942D02*
X237232455Y-56815942D01*
X237865789Y-56396895D02*
X238332455Y-57196895D01*
X238332455Y-56396895D02*
X237865789Y-57196895D01*
X239132455Y-56396895D02*
X239132455Y-57044514D01*
X239132455Y-57044514D02*
X239165789Y-57120704D01*
X239165789Y-57120704D02*
X239199122Y-57158800D01*
X239199122Y-57158800D02*
X239265789Y-57196895D01*
X239265789Y-57196895D02*
X239399122Y-57196895D01*
X239399122Y-57196895D02*
X239465789Y-57158800D01*
X239465789Y-57158800D02*
X239499122Y-57120704D01*
X239499122Y-57120704D02*
X239532455Y-57044514D01*
X239532455Y-57044514D02*
X239532455Y-56396895D01*
X239832455Y-57158800D02*
X239932455Y-57196895D01*
X239932455Y-57196895D02*
X240099122Y-57196895D01*
X240099122Y-57196895D02*
X240165788Y-57158800D01*
X240165788Y-57158800D02*
X240199122Y-57120704D01*
X240199122Y-57120704D02*
X240232455Y-57044514D01*
X240232455Y-57044514D02*
X240232455Y-56968323D01*
X240232455Y-56968323D02*
X240199122Y-56892133D01*
X240199122Y-56892133D02*
X240165788Y-56854038D01*
X240165788Y-56854038D02*
X240099122Y-56815942D01*
X240099122Y-56815942D02*
X239965788Y-56777847D01*
X239965788Y-56777847D02*
X239899122Y-56739752D01*
X239899122Y-56739752D02*
X239865788Y-56701657D01*
X239865788Y-56701657D02*
X239832455Y-56625466D01*
X239832455Y-56625466D02*
X239832455Y-56549276D01*
X239832455Y-56549276D02*
X239865788Y-56473085D01*
X239865788Y-56473085D02*
X239899122Y-56434990D01*
X239899122Y-56434990D02*
X239965788Y-56396895D01*
X239965788Y-56396895D02*
X240132455Y-56396895D01*
X240132455Y-56396895D02*
X240232455Y-56434990D01*
X240765789Y-56777847D02*
X240865789Y-56815942D01*
X240865789Y-56815942D02*
X240899122Y-56854038D01*
X240899122Y-56854038D02*
X240932455Y-56930228D01*
X240932455Y-56930228D02*
X240932455Y-57044514D01*
X240932455Y-57044514D02*
X240899122Y-57120704D01*
X240899122Y-57120704D02*
X240865789Y-57158800D01*
X240865789Y-57158800D02*
X240799122Y-57196895D01*
X240799122Y-57196895D02*
X240532455Y-57196895D01*
X240532455Y-57196895D02*
X240532455Y-56396895D01*
X240532455Y-56396895D02*
X240765789Y-56396895D01*
X240765789Y-56396895D02*
X240832455Y-56434990D01*
X240832455Y-56434990D02*
X240865789Y-56473085D01*
X240865789Y-56473085D02*
X240899122Y-56549276D01*
X240899122Y-56549276D02*
X240899122Y-56625466D01*
X240899122Y-56625466D02*
X240865789Y-56701657D01*
X240865789Y-56701657D02*
X240832455Y-56739752D01*
X240832455Y-56739752D02*
X240765789Y-56777847D01*
X240765789Y-56777847D02*
X240532455Y-56777847D01*
X241665788Y-56396895D02*
X242065788Y-56396895D01*
X241865788Y-57196895D02*
X241865788Y-56396895D01*
X242232455Y-56396895D02*
X242699121Y-57196895D01*
X242699121Y-56396895D02*
X242232455Y-57196895D01*
X222632455Y-95596895D02*
X222865789Y-96396895D01*
X222865789Y-96396895D02*
X223099122Y-95596895D01*
X223299122Y-96358800D02*
X223399122Y-96396895D01*
X223399122Y-96396895D02*
X223565789Y-96396895D01*
X223565789Y-96396895D02*
X223632455Y-96358800D01*
X223632455Y-96358800D02*
X223665789Y-96320704D01*
X223665789Y-96320704D02*
X223699122Y-96244514D01*
X223699122Y-96244514D02*
X223699122Y-96168323D01*
X223699122Y-96168323D02*
X223665789Y-96092133D01*
X223665789Y-96092133D02*
X223632455Y-96054038D01*
X223632455Y-96054038D02*
X223565789Y-96015942D01*
X223565789Y-96015942D02*
X223432455Y-95977847D01*
X223432455Y-95977847D02*
X223365789Y-95939752D01*
X223365789Y-95939752D02*
X223332455Y-95901657D01*
X223332455Y-95901657D02*
X223299122Y-95825466D01*
X223299122Y-95825466D02*
X223299122Y-95749276D01*
X223299122Y-95749276D02*
X223332455Y-95673085D01*
X223332455Y-95673085D02*
X223365789Y-95634990D01*
X223365789Y-95634990D02*
X223432455Y-95596895D01*
X223432455Y-95596895D02*
X223599122Y-95596895D01*
X223599122Y-95596895D02*
X223699122Y-95634990D01*
X223932456Y-95596895D02*
X224099122Y-96396895D01*
X224099122Y-96396895D02*
X224232456Y-95825466D01*
X224232456Y-95825466D02*
X224365789Y-96396895D01*
X224365789Y-96396895D02*
X224532456Y-95596895D01*
X215780074Y-69608940D02*
X215303884Y-69608940D01*
X215303884Y-69608940D02*
X215303884Y-68808940D01*
X216256265Y-69608940D02*
X216161027Y-69570845D01*
X216161027Y-69570845D02*
X216113408Y-69532749D01*
X216113408Y-69532749D02*
X216065789Y-69456559D01*
X216065789Y-69456559D02*
X216065789Y-69227987D01*
X216065789Y-69227987D02*
X216113408Y-69151797D01*
X216113408Y-69151797D02*
X216161027Y-69113702D01*
X216161027Y-69113702D02*
X216256265Y-69075606D01*
X216256265Y-69075606D02*
X216399122Y-69075606D01*
X216399122Y-69075606D02*
X216494360Y-69113702D01*
X216494360Y-69113702D02*
X216541979Y-69151797D01*
X216541979Y-69151797D02*
X216589598Y-69227987D01*
X216589598Y-69227987D02*
X216589598Y-69456559D01*
X216589598Y-69456559D02*
X216541979Y-69532749D01*
X216541979Y-69532749D02*
X216494360Y-69570845D01*
X216494360Y-69570845D02*
X216399122Y-69608940D01*
X216399122Y-69608940D02*
X216256265Y-69608940D01*
X217589598Y-69608940D02*
X217256265Y-69227987D01*
X217018170Y-69608940D02*
X217018170Y-68808940D01*
X217018170Y-68808940D02*
X217399122Y-68808940D01*
X217399122Y-68808940D02*
X217494360Y-68847035D01*
X217494360Y-68847035D02*
X217541979Y-68885130D01*
X217541979Y-68885130D02*
X217589598Y-68961321D01*
X217589598Y-68961321D02*
X217589598Y-69075606D01*
X217589598Y-69075606D02*
X217541979Y-69151797D01*
X217541979Y-69151797D02*
X217494360Y-69189892D01*
X217494360Y-69189892D02*
X217399122Y-69227987D01*
X217399122Y-69227987D02*
X217018170Y-69227987D01*
X218446741Y-69608940D02*
X218446741Y-69189892D01*
X218446741Y-69189892D02*
X218399122Y-69113702D01*
X218399122Y-69113702D02*
X218303884Y-69075606D01*
X218303884Y-69075606D02*
X218113408Y-69075606D01*
X218113408Y-69075606D02*
X218018170Y-69113702D01*
X218446741Y-69570845D02*
X218351503Y-69608940D01*
X218351503Y-69608940D02*
X218113408Y-69608940D01*
X218113408Y-69608940D02*
X218018170Y-69570845D01*
X218018170Y-69570845D02*
X217970551Y-69494654D01*
X217970551Y-69494654D02*
X217970551Y-69418464D01*
X217970551Y-69418464D02*
X218018170Y-69342273D01*
X218018170Y-69342273D02*
X218113408Y-69304178D01*
X218113408Y-69304178D02*
X218351503Y-69304178D01*
X218351503Y-69304178D02*
X218446741Y-69266083D01*
X219684837Y-69608940D02*
X219684837Y-68808940D01*
X219684837Y-69189892D02*
X220256265Y-69189892D01*
X220256265Y-69608940D02*
X220256265Y-68808940D01*
X221161027Y-69075606D02*
X221161027Y-69608940D01*
X220732456Y-69075606D02*
X220732456Y-69494654D01*
X220732456Y-69494654D02*
X220780075Y-69570845D01*
X220780075Y-69570845D02*
X220875313Y-69608940D01*
X220875313Y-69608940D02*
X221018170Y-69608940D01*
X221018170Y-69608940D02*
X221113408Y-69570845D01*
X221113408Y-69570845D02*
X221161027Y-69532749D01*
X221637218Y-69608940D02*
X221637218Y-68808940D01*
X221637218Y-69113702D02*
X221732456Y-69075606D01*
X221732456Y-69075606D02*
X221922932Y-69075606D01*
X221922932Y-69075606D02*
X222018170Y-69113702D01*
X222018170Y-69113702D02*
X222065789Y-69151797D01*
X222065789Y-69151797D02*
X222113408Y-69227987D01*
X222113408Y-69227987D02*
X222113408Y-69456559D01*
X222113408Y-69456559D02*
X222065789Y-69532749D01*
X222065789Y-69532749D02*
X222018170Y-69570845D01*
X222018170Y-69570845D02*
X221922932Y-69608940D01*
X221922932Y-69608940D02*
X221732456Y-69608940D01*
X221732456Y-69608940D02*
X221637218Y-69570845D01*
X215161027Y-70096895D02*
X215494360Y-70896895D01*
X215494360Y-70896895D02*
X215827693Y-70096895D01*
X216541979Y-70858800D02*
X216446741Y-70896895D01*
X216446741Y-70896895D02*
X216256265Y-70896895D01*
X216256265Y-70896895D02*
X216161027Y-70858800D01*
X216161027Y-70858800D02*
X216113408Y-70782609D01*
X216113408Y-70782609D02*
X216113408Y-70477847D01*
X216113408Y-70477847D02*
X216161027Y-70401657D01*
X216161027Y-70401657D02*
X216256265Y-70363561D01*
X216256265Y-70363561D02*
X216446741Y-70363561D01*
X216446741Y-70363561D02*
X216541979Y-70401657D01*
X216541979Y-70401657D02*
X216589598Y-70477847D01*
X216589598Y-70477847D02*
X216589598Y-70554038D01*
X216589598Y-70554038D02*
X216113408Y-70630228D01*
X217018170Y-70896895D02*
X217018170Y-70363561D01*
X217018170Y-70515942D02*
X217065789Y-70439752D01*
X217065789Y-70439752D02*
X217113408Y-70401657D01*
X217113408Y-70401657D02*
X217208646Y-70363561D01*
X217208646Y-70363561D02*
X217303884Y-70363561D01*
X217589599Y-70858800D02*
X217684837Y-70896895D01*
X217684837Y-70896895D02*
X217875313Y-70896895D01*
X217875313Y-70896895D02*
X217970551Y-70858800D01*
X217970551Y-70858800D02*
X218018170Y-70782609D01*
X218018170Y-70782609D02*
X218018170Y-70744514D01*
X218018170Y-70744514D02*
X217970551Y-70668323D01*
X217970551Y-70668323D02*
X217875313Y-70630228D01*
X217875313Y-70630228D02*
X217732456Y-70630228D01*
X217732456Y-70630228D02*
X217637218Y-70592133D01*
X217637218Y-70592133D02*
X217589599Y-70515942D01*
X217589599Y-70515942D02*
X217589599Y-70477847D01*
X217589599Y-70477847D02*
X217637218Y-70401657D01*
X217637218Y-70401657D02*
X217732456Y-70363561D01*
X217732456Y-70363561D02*
X217875313Y-70363561D01*
X217875313Y-70363561D02*
X217970551Y-70401657D01*
X218446742Y-70896895D02*
X218446742Y-70363561D01*
X218446742Y-70096895D02*
X218399123Y-70134990D01*
X218399123Y-70134990D02*
X218446742Y-70173085D01*
X218446742Y-70173085D02*
X218494361Y-70134990D01*
X218494361Y-70134990D02*
X218446742Y-70096895D01*
X218446742Y-70096895D02*
X218446742Y-70173085D01*
X219065789Y-70896895D02*
X218970551Y-70858800D01*
X218970551Y-70858800D02*
X218922932Y-70820704D01*
X218922932Y-70820704D02*
X218875313Y-70744514D01*
X218875313Y-70744514D02*
X218875313Y-70515942D01*
X218875313Y-70515942D02*
X218922932Y-70439752D01*
X218922932Y-70439752D02*
X218970551Y-70401657D01*
X218970551Y-70401657D02*
X219065789Y-70363561D01*
X219065789Y-70363561D02*
X219208646Y-70363561D01*
X219208646Y-70363561D02*
X219303884Y-70401657D01*
X219303884Y-70401657D02*
X219351503Y-70439752D01*
X219351503Y-70439752D02*
X219399122Y-70515942D01*
X219399122Y-70515942D02*
X219399122Y-70744514D01*
X219399122Y-70744514D02*
X219351503Y-70820704D01*
X219351503Y-70820704D02*
X219303884Y-70858800D01*
X219303884Y-70858800D02*
X219208646Y-70896895D01*
X219208646Y-70896895D02*
X219065789Y-70896895D01*
X219827694Y-70363561D02*
X219827694Y-70896895D01*
X219827694Y-70439752D02*
X219875313Y-70401657D01*
X219875313Y-70401657D02*
X219970551Y-70363561D01*
X219970551Y-70363561D02*
X220113408Y-70363561D01*
X220113408Y-70363561D02*
X220208646Y-70401657D01*
X220208646Y-70401657D02*
X220256265Y-70477847D01*
X220256265Y-70477847D02*
X220256265Y-70896895D01*
X222018170Y-70896895D02*
X221446742Y-70896895D01*
X221732456Y-70896895D02*
X221732456Y-70096895D01*
X221732456Y-70096895D02*
X221637218Y-70211180D01*
X221637218Y-70211180D02*
X221541980Y-70287371D01*
X221541980Y-70287371D02*
X221446742Y-70325466D01*
X222446742Y-70820704D02*
X222494361Y-70858800D01*
X222494361Y-70858800D02*
X222446742Y-70896895D01*
X222446742Y-70896895D02*
X222399123Y-70858800D01*
X222399123Y-70858800D02*
X222446742Y-70820704D01*
X222446742Y-70820704D02*
X222446742Y-70896895D01*
X223113408Y-70096895D02*
X223208646Y-70096895D01*
X223208646Y-70096895D02*
X223303884Y-70134990D01*
X223303884Y-70134990D02*
X223351503Y-70173085D01*
X223351503Y-70173085D02*
X223399122Y-70249276D01*
X223399122Y-70249276D02*
X223446741Y-70401657D01*
X223446741Y-70401657D02*
X223446741Y-70592133D01*
X223446741Y-70592133D02*
X223399122Y-70744514D01*
X223399122Y-70744514D02*
X223351503Y-70820704D01*
X223351503Y-70820704D02*
X223303884Y-70858800D01*
X223303884Y-70858800D02*
X223208646Y-70896895D01*
X223208646Y-70896895D02*
X223113408Y-70896895D01*
X223113408Y-70896895D02*
X223018170Y-70858800D01*
X223018170Y-70858800D02*
X222970551Y-70820704D01*
X222970551Y-70820704D02*
X222922932Y-70744514D01*
X222922932Y-70744514D02*
X222875313Y-70592133D01*
X222875313Y-70592133D02*
X222875313Y-70401657D01*
X222875313Y-70401657D02*
X222922932Y-70249276D01*
X222922932Y-70249276D02*
X222970551Y-70173085D01*
X222970551Y-70173085D02*
X223018170Y-70134990D01*
X223018170Y-70134990D02*
X223113408Y-70096895D01*
X194965789Y-76005165D02*
X195399122Y-76005165D01*
X195399122Y-76005165D02*
X195165789Y-76309927D01*
X195165789Y-76309927D02*
X195265789Y-76309927D01*
X195265789Y-76309927D02*
X195332455Y-76348022D01*
X195332455Y-76348022D02*
X195365789Y-76386117D01*
X195365789Y-76386117D02*
X195399122Y-76462308D01*
X195399122Y-76462308D02*
X195399122Y-76652784D01*
X195399122Y-76652784D02*
X195365789Y-76728974D01*
X195365789Y-76728974D02*
X195332455Y-76767070D01*
X195332455Y-76767070D02*
X195265789Y-76805165D01*
X195265789Y-76805165D02*
X195065789Y-76805165D01*
X195065789Y-76805165D02*
X194999122Y-76767070D01*
X194999122Y-76767070D02*
X194965789Y-76728974D01*
X195632456Y-76271831D02*
X195799122Y-76805165D01*
X195799122Y-76805165D02*
X195965789Y-76271831D01*
X196165789Y-76005165D02*
X196599122Y-76005165D01*
X196599122Y-76005165D02*
X196365789Y-76309927D01*
X196365789Y-76309927D02*
X196465789Y-76309927D01*
X196465789Y-76309927D02*
X196532455Y-76348022D01*
X196532455Y-76348022D02*
X196565789Y-76386117D01*
X196565789Y-76386117D02*
X196599122Y-76462308D01*
X196599122Y-76462308D02*
X196599122Y-76652784D01*
X196599122Y-76652784D02*
X196565789Y-76728974D01*
X196565789Y-76728974D02*
X196532455Y-76767070D01*
X196532455Y-76767070D02*
X196465789Y-76805165D01*
X196465789Y-76805165D02*
X196265789Y-76805165D01*
X196265789Y-76805165D02*
X196199122Y-76767070D01*
X196199122Y-76767070D02*
X196165789Y-76728974D01*
X195399122Y-78619170D02*
X195332455Y-78581075D01*
X195332455Y-78581075D02*
X195232455Y-78581075D01*
X195232455Y-78581075D02*
X195132455Y-78619170D01*
X195132455Y-78619170D02*
X195065789Y-78695360D01*
X195065789Y-78695360D02*
X195032455Y-78771551D01*
X195032455Y-78771551D02*
X194999122Y-78923932D01*
X194999122Y-78923932D02*
X194999122Y-79038218D01*
X194999122Y-79038218D02*
X195032455Y-79190599D01*
X195032455Y-79190599D02*
X195065789Y-79266789D01*
X195065789Y-79266789D02*
X195132455Y-79342980D01*
X195132455Y-79342980D02*
X195232455Y-79381075D01*
X195232455Y-79381075D02*
X195299122Y-79381075D01*
X195299122Y-79381075D02*
X195399122Y-79342980D01*
X195399122Y-79342980D02*
X195432455Y-79304884D01*
X195432455Y-79304884D02*
X195432455Y-79038218D01*
X195432455Y-79038218D02*
X195299122Y-79038218D01*
X195732455Y-79381075D02*
X195732455Y-78581075D01*
X195732455Y-78581075D02*
X196132455Y-79381075D01*
X196132455Y-79381075D02*
X196132455Y-78581075D01*
X196465788Y-79381075D02*
X196465788Y-78581075D01*
X196465788Y-78581075D02*
X196632455Y-78581075D01*
X196632455Y-78581075D02*
X196732455Y-78619170D01*
X196732455Y-78619170D02*
X196799122Y-78695360D01*
X196799122Y-78695360D02*
X196832455Y-78771551D01*
X196832455Y-78771551D02*
X196865788Y-78923932D01*
X196865788Y-78923932D02*
X196865788Y-79038218D01*
X196865788Y-79038218D02*
X196832455Y-79190599D01*
X196832455Y-79190599D02*
X196799122Y-79266789D01*
X196799122Y-79266789D02*
X196732455Y-79342980D01*
X196732455Y-79342980D02*
X196632455Y-79381075D01*
X196632455Y-79381075D02*
X196465788Y-79381075D01*
X195032455Y-81956985D02*
X195032455Y-81156985D01*
X195032455Y-81156985D02*
X195299122Y-81156985D01*
X195299122Y-81156985D02*
X195365789Y-81195080D01*
X195365789Y-81195080D02*
X195399122Y-81233175D01*
X195399122Y-81233175D02*
X195432455Y-81309366D01*
X195432455Y-81309366D02*
X195432455Y-81423651D01*
X195432455Y-81423651D02*
X195399122Y-81499842D01*
X195399122Y-81499842D02*
X195365789Y-81537937D01*
X195365789Y-81537937D02*
X195299122Y-81576032D01*
X195299122Y-81576032D02*
X195032455Y-81576032D01*
X195865789Y-81156985D02*
X195932455Y-81156985D01*
X195932455Y-81156985D02*
X195999122Y-81195080D01*
X195999122Y-81195080D02*
X196032455Y-81233175D01*
X196032455Y-81233175D02*
X196065789Y-81309366D01*
X196065789Y-81309366D02*
X196099122Y-81461747D01*
X196099122Y-81461747D02*
X196099122Y-81652223D01*
X196099122Y-81652223D02*
X196065789Y-81804604D01*
X196065789Y-81804604D02*
X196032455Y-81880794D01*
X196032455Y-81880794D02*
X195999122Y-81918890D01*
X195999122Y-81918890D02*
X195932455Y-81956985D01*
X195932455Y-81956985D02*
X195865789Y-81956985D01*
X195865789Y-81956985D02*
X195799122Y-81918890D01*
X195799122Y-81918890D02*
X195765789Y-81880794D01*
X195765789Y-81880794D02*
X195732455Y-81804604D01*
X195732455Y-81804604D02*
X195699122Y-81652223D01*
X195699122Y-81652223D02*
X195699122Y-81461747D01*
X195699122Y-81461747D02*
X195732455Y-81309366D01*
X195732455Y-81309366D02*
X195765789Y-81233175D01*
X195765789Y-81233175D02*
X195799122Y-81195080D01*
X195799122Y-81195080D02*
X195865789Y-81156985D01*
X196399122Y-81880794D02*
X196432456Y-81918890D01*
X196432456Y-81918890D02*
X196399122Y-81956985D01*
X196399122Y-81956985D02*
X196365789Y-81918890D01*
X196365789Y-81918890D02*
X196399122Y-81880794D01*
X196399122Y-81880794D02*
X196399122Y-81956985D01*
X196865789Y-81156985D02*
X196932455Y-81156985D01*
X196932455Y-81156985D02*
X196999122Y-81195080D01*
X196999122Y-81195080D02*
X197032455Y-81233175D01*
X197032455Y-81233175D02*
X197065789Y-81309366D01*
X197065789Y-81309366D02*
X197099122Y-81461747D01*
X197099122Y-81461747D02*
X197099122Y-81652223D01*
X197099122Y-81652223D02*
X197065789Y-81804604D01*
X197065789Y-81804604D02*
X197032455Y-81880794D01*
X197032455Y-81880794D02*
X196999122Y-81918890D01*
X196999122Y-81918890D02*
X196932455Y-81956985D01*
X196932455Y-81956985D02*
X196865789Y-81956985D01*
X196865789Y-81956985D02*
X196799122Y-81918890D01*
X196799122Y-81918890D02*
X196765789Y-81880794D01*
X196765789Y-81880794D02*
X196732455Y-81804604D01*
X196732455Y-81804604D02*
X196699122Y-81652223D01*
X196699122Y-81652223D02*
X196699122Y-81461747D01*
X196699122Y-81461747D02*
X196732455Y-81309366D01*
X196732455Y-81309366D02*
X196765789Y-81233175D01*
X196765789Y-81233175D02*
X196799122Y-81195080D01*
X196799122Y-81195080D02*
X196865789Y-81156985D01*
X197699122Y-81423651D02*
X197699122Y-81956985D01*
X197532456Y-81118890D02*
X197365789Y-81690318D01*
X197365789Y-81690318D02*
X197799122Y-81690318D01*
X195032455Y-84532895D02*
X195032455Y-83732895D01*
X195032455Y-83732895D02*
X195299122Y-83732895D01*
X195299122Y-83732895D02*
X195365789Y-83770990D01*
X195365789Y-83770990D02*
X195399122Y-83809085D01*
X195399122Y-83809085D02*
X195432455Y-83885276D01*
X195432455Y-83885276D02*
X195432455Y-83999561D01*
X195432455Y-83999561D02*
X195399122Y-84075752D01*
X195399122Y-84075752D02*
X195365789Y-84113847D01*
X195365789Y-84113847D02*
X195299122Y-84151942D01*
X195299122Y-84151942D02*
X195032455Y-84151942D01*
X195865789Y-83732895D02*
X195932455Y-83732895D01*
X195932455Y-83732895D02*
X195999122Y-83770990D01*
X195999122Y-83770990D02*
X196032455Y-83809085D01*
X196032455Y-83809085D02*
X196065789Y-83885276D01*
X196065789Y-83885276D02*
X196099122Y-84037657D01*
X196099122Y-84037657D02*
X196099122Y-84228133D01*
X196099122Y-84228133D02*
X196065789Y-84380514D01*
X196065789Y-84380514D02*
X196032455Y-84456704D01*
X196032455Y-84456704D02*
X195999122Y-84494800D01*
X195999122Y-84494800D02*
X195932455Y-84532895D01*
X195932455Y-84532895D02*
X195865789Y-84532895D01*
X195865789Y-84532895D02*
X195799122Y-84494800D01*
X195799122Y-84494800D02*
X195765789Y-84456704D01*
X195765789Y-84456704D02*
X195732455Y-84380514D01*
X195732455Y-84380514D02*
X195699122Y-84228133D01*
X195699122Y-84228133D02*
X195699122Y-84037657D01*
X195699122Y-84037657D02*
X195732455Y-83885276D01*
X195732455Y-83885276D02*
X195765789Y-83809085D01*
X195765789Y-83809085D02*
X195799122Y-83770990D01*
X195799122Y-83770990D02*
X195865789Y-83732895D01*
X196399122Y-84456704D02*
X196432456Y-84494800D01*
X196432456Y-84494800D02*
X196399122Y-84532895D01*
X196399122Y-84532895D02*
X196365789Y-84494800D01*
X196365789Y-84494800D02*
X196399122Y-84456704D01*
X196399122Y-84456704D02*
X196399122Y-84532895D01*
X196865789Y-83732895D02*
X196932455Y-83732895D01*
X196932455Y-83732895D02*
X196999122Y-83770990D01*
X196999122Y-83770990D02*
X197032455Y-83809085D01*
X197032455Y-83809085D02*
X197065789Y-83885276D01*
X197065789Y-83885276D02*
X197099122Y-84037657D01*
X197099122Y-84037657D02*
X197099122Y-84228133D01*
X197099122Y-84228133D02*
X197065789Y-84380514D01*
X197065789Y-84380514D02*
X197032455Y-84456704D01*
X197032455Y-84456704D02*
X196999122Y-84494800D01*
X196999122Y-84494800D02*
X196932455Y-84532895D01*
X196932455Y-84532895D02*
X196865789Y-84532895D01*
X196865789Y-84532895D02*
X196799122Y-84494800D01*
X196799122Y-84494800D02*
X196765789Y-84456704D01*
X196765789Y-84456704D02*
X196732455Y-84380514D01*
X196732455Y-84380514D02*
X196699122Y-84228133D01*
X196699122Y-84228133D02*
X196699122Y-84037657D01*
X196699122Y-84037657D02*
X196732455Y-83885276D01*
X196732455Y-83885276D02*
X196765789Y-83809085D01*
X196765789Y-83809085D02*
X196799122Y-83770990D01*
X196799122Y-83770990D02*
X196865789Y-83732895D01*
X197732456Y-83732895D02*
X197399122Y-83732895D01*
X197399122Y-83732895D02*
X197365789Y-84113847D01*
X197365789Y-84113847D02*
X197399122Y-84075752D01*
X197399122Y-84075752D02*
X197465789Y-84037657D01*
X197465789Y-84037657D02*
X197632456Y-84037657D01*
X197632456Y-84037657D02*
X197699122Y-84075752D01*
X197699122Y-84075752D02*
X197732456Y-84113847D01*
X197732456Y-84113847D02*
X197765789Y-84190038D01*
X197765789Y-84190038D02*
X197765789Y-84380514D01*
X197765789Y-84380514D02*
X197732456Y-84456704D01*
X197732456Y-84456704D02*
X197699122Y-84494800D01*
X197699122Y-84494800D02*
X197632456Y-84532895D01*
X197632456Y-84532895D02*
X197465789Y-84532895D01*
X197465789Y-84532895D02*
X197399122Y-84494800D01*
X197399122Y-84494800D02*
X197365789Y-84456704D01*
X224665789Y-56321895D02*
X225099122Y-56321895D01*
X225099122Y-56321895D02*
X224865789Y-56626657D01*
X224865789Y-56626657D02*
X224965789Y-56626657D01*
X224965789Y-56626657D02*
X225032455Y-56664752D01*
X225032455Y-56664752D02*
X225065789Y-56702847D01*
X225065789Y-56702847D02*
X225099122Y-56779038D01*
X225099122Y-56779038D02*
X225099122Y-56969514D01*
X225099122Y-56969514D02*
X225065789Y-57045704D01*
X225065789Y-57045704D02*
X225032455Y-57083800D01*
X225032455Y-57083800D02*
X224965789Y-57121895D01*
X224965789Y-57121895D02*
X224765789Y-57121895D01*
X224765789Y-57121895D02*
X224699122Y-57083800D01*
X224699122Y-57083800D02*
X224665789Y-57045704D01*
X225332456Y-56588561D02*
X225499122Y-57121895D01*
X225499122Y-57121895D02*
X225665789Y-56588561D01*
X225865789Y-56321895D02*
X226299122Y-56321895D01*
X226299122Y-56321895D02*
X226065789Y-56626657D01*
X226065789Y-56626657D02*
X226165789Y-56626657D01*
X226165789Y-56626657D02*
X226232455Y-56664752D01*
X226232455Y-56664752D02*
X226265789Y-56702847D01*
X226265789Y-56702847D02*
X226299122Y-56779038D01*
X226299122Y-56779038D02*
X226299122Y-56969514D01*
X226299122Y-56969514D02*
X226265789Y-57045704D01*
X226265789Y-57045704D02*
X226232455Y-57083800D01*
X226232455Y-57083800D02*
X226165789Y-57121895D01*
X226165789Y-57121895D02*
X225965789Y-57121895D01*
X225965789Y-57121895D02*
X225899122Y-57083800D01*
X225899122Y-57083800D02*
X225865789Y-57045704D01*
X227499122Y-56359990D02*
X227432455Y-56321895D01*
X227432455Y-56321895D02*
X227332455Y-56321895D01*
X227332455Y-56321895D02*
X227232455Y-56359990D01*
X227232455Y-56359990D02*
X227165789Y-56436180D01*
X227165789Y-56436180D02*
X227132455Y-56512371D01*
X227132455Y-56512371D02*
X227099122Y-56664752D01*
X227099122Y-56664752D02*
X227099122Y-56779038D01*
X227099122Y-56779038D02*
X227132455Y-56931419D01*
X227132455Y-56931419D02*
X227165789Y-57007609D01*
X227165789Y-57007609D02*
X227232455Y-57083800D01*
X227232455Y-57083800D02*
X227332455Y-57121895D01*
X227332455Y-57121895D02*
X227399122Y-57121895D01*
X227399122Y-57121895D02*
X227499122Y-57083800D01*
X227499122Y-57083800D02*
X227532455Y-57045704D01*
X227532455Y-57045704D02*
X227532455Y-56779038D01*
X227532455Y-56779038D02*
X227399122Y-56779038D01*
X227832455Y-57121895D02*
X227832455Y-56321895D01*
X227832455Y-56321895D02*
X228232455Y-57121895D01*
X228232455Y-57121895D02*
X228232455Y-56321895D01*
X228565788Y-57121895D02*
X228565788Y-56321895D01*
X228565788Y-56321895D02*
X228732455Y-56321895D01*
X228732455Y-56321895D02*
X228832455Y-56359990D01*
X228832455Y-56359990D02*
X228899122Y-56436180D01*
X228899122Y-56436180D02*
X228932455Y-56512371D01*
X228932455Y-56512371D02*
X228965788Y-56664752D01*
X228965788Y-56664752D02*
X228965788Y-56779038D01*
X228965788Y-56779038D02*
X228932455Y-56931419D01*
X228932455Y-56931419D02*
X228899122Y-57007609D01*
X228899122Y-57007609D02*
X228832455Y-57083800D01*
X228832455Y-57083800D02*
X228732455Y-57121895D01*
X228732455Y-57121895D02*
X228565788Y-57121895D01*
X230199121Y-57045704D02*
X230165788Y-57083800D01*
X230165788Y-57083800D02*
X230065788Y-57121895D01*
X230065788Y-57121895D02*
X229999121Y-57121895D01*
X229999121Y-57121895D02*
X229899121Y-57083800D01*
X229899121Y-57083800D02*
X229832455Y-57007609D01*
X229832455Y-57007609D02*
X229799121Y-56931419D01*
X229799121Y-56931419D02*
X229765788Y-56779038D01*
X229765788Y-56779038D02*
X229765788Y-56664752D01*
X229765788Y-56664752D02*
X229799121Y-56512371D01*
X229799121Y-56512371D02*
X229832455Y-56436180D01*
X229832455Y-56436180D02*
X229899121Y-56359990D01*
X229899121Y-56359990D02*
X229999121Y-56321895D01*
X229999121Y-56321895D02*
X230065788Y-56321895D01*
X230065788Y-56321895D02*
X230165788Y-56359990D01*
X230165788Y-56359990D02*
X230199121Y-56398085D01*
X230832455Y-57121895D02*
X230499121Y-57121895D01*
X230499121Y-57121895D02*
X230499121Y-56321895D01*
X231065788Y-57121895D02*
X231065788Y-56321895D01*
X231465788Y-57121895D02*
X231165788Y-56664752D01*
X231465788Y-56321895D02*
X231065788Y-56779038D01*
X232265788Y-57083800D02*
X232365788Y-57121895D01*
X232365788Y-57121895D02*
X232532455Y-57121895D01*
X232532455Y-57121895D02*
X232599121Y-57083800D01*
X232599121Y-57083800D02*
X232632455Y-57045704D01*
X232632455Y-57045704D02*
X232665788Y-56969514D01*
X232665788Y-56969514D02*
X232665788Y-56893323D01*
X232665788Y-56893323D02*
X232632455Y-56817133D01*
X232632455Y-56817133D02*
X232599121Y-56779038D01*
X232599121Y-56779038D02*
X232532455Y-56740942D01*
X232532455Y-56740942D02*
X232399121Y-56702847D01*
X232399121Y-56702847D02*
X232332455Y-56664752D01*
X232332455Y-56664752D02*
X232299121Y-56626657D01*
X232299121Y-56626657D02*
X232265788Y-56550466D01*
X232265788Y-56550466D02*
X232265788Y-56474276D01*
X232265788Y-56474276D02*
X232299121Y-56398085D01*
X232299121Y-56398085D02*
X232332455Y-56359990D01*
X232332455Y-56359990D02*
X232399121Y-56321895D01*
X232399121Y-56321895D02*
X232565788Y-56321895D01*
X232565788Y-56321895D02*
X232665788Y-56359990D01*
X232899122Y-56321895D02*
X233065788Y-57121895D01*
X233065788Y-57121895D02*
X233199122Y-56550466D01*
X233199122Y-56550466D02*
X233332455Y-57121895D01*
X233332455Y-57121895D02*
X233499122Y-56321895D01*
X233765788Y-57121895D02*
X233765788Y-56321895D01*
X234232455Y-56321895D02*
X234365788Y-56321895D01*
X234365788Y-56321895D02*
X234432455Y-56359990D01*
X234432455Y-56359990D02*
X234499121Y-56436180D01*
X234499121Y-56436180D02*
X234532455Y-56588561D01*
X234532455Y-56588561D02*
X234532455Y-56855228D01*
X234532455Y-56855228D02*
X234499121Y-57007609D01*
X234499121Y-57007609D02*
X234432455Y-57083800D01*
X234432455Y-57083800D02*
X234365788Y-57121895D01*
X234365788Y-57121895D02*
X234232455Y-57121895D01*
X234232455Y-57121895D02*
X234165788Y-57083800D01*
X234165788Y-57083800D02*
X234099121Y-57007609D01*
X234099121Y-57007609D02*
X234065788Y-56855228D01*
X234065788Y-56855228D02*
X234065788Y-56588561D01*
X234065788Y-56588561D02*
X234099121Y-56436180D01*
X234099121Y-56436180D02*
X234165788Y-56359990D01*
X234165788Y-56359990D02*
X234232455Y-56321895D01*
X243265789Y-86396895D02*
X243699122Y-86396895D01*
X243699122Y-86396895D02*
X243465789Y-86701657D01*
X243465789Y-86701657D02*
X243565789Y-86701657D01*
X243565789Y-86701657D02*
X243632455Y-86739752D01*
X243632455Y-86739752D02*
X243665789Y-86777847D01*
X243665789Y-86777847D02*
X243699122Y-86854038D01*
X243699122Y-86854038D02*
X243699122Y-87044514D01*
X243699122Y-87044514D02*
X243665789Y-87120704D01*
X243665789Y-87120704D02*
X243632455Y-87158800D01*
X243632455Y-87158800D02*
X243565789Y-87196895D01*
X243565789Y-87196895D02*
X243365789Y-87196895D01*
X243365789Y-87196895D02*
X243299122Y-87158800D01*
X243299122Y-87158800D02*
X243265789Y-87120704D01*
X243999122Y-87120704D02*
X244032456Y-87158800D01*
X244032456Y-87158800D02*
X243999122Y-87196895D01*
X243999122Y-87196895D02*
X243965789Y-87158800D01*
X243965789Y-87158800D02*
X243999122Y-87120704D01*
X243999122Y-87120704D02*
X243999122Y-87196895D01*
X244265789Y-86396895D02*
X244699122Y-86396895D01*
X244699122Y-86396895D02*
X244465789Y-86701657D01*
X244465789Y-86701657D02*
X244565789Y-86701657D01*
X244565789Y-86701657D02*
X244632455Y-86739752D01*
X244632455Y-86739752D02*
X244665789Y-86777847D01*
X244665789Y-86777847D02*
X244699122Y-86854038D01*
X244699122Y-86854038D02*
X244699122Y-87044514D01*
X244699122Y-87044514D02*
X244665789Y-87120704D01*
X244665789Y-87120704D02*
X244632455Y-87158800D01*
X244632455Y-87158800D02*
X244565789Y-87196895D01*
X244565789Y-87196895D02*
X244365789Y-87196895D01*
X244365789Y-87196895D02*
X244299122Y-87158800D01*
X244299122Y-87158800D02*
X244265789Y-87120704D01*
X244899122Y-86396895D02*
X245132456Y-87196895D01*
X245132456Y-87196895D02*
X245365789Y-86396895D01*
X224832455Y-90620704D02*
X224799122Y-90658800D01*
X224799122Y-90658800D02*
X224699122Y-90696895D01*
X224699122Y-90696895D02*
X224632455Y-90696895D01*
X224632455Y-90696895D02*
X224532455Y-90658800D01*
X224532455Y-90658800D02*
X224465789Y-90582609D01*
X224465789Y-90582609D02*
X224432455Y-90506419D01*
X224432455Y-90506419D02*
X224399122Y-90354038D01*
X224399122Y-90354038D02*
X224399122Y-90239752D01*
X224399122Y-90239752D02*
X224432455Y-90087371D01*
X224432455Y-90087371D02*
X224465789Y-90011180D01*
X224465789Y-90011180D02*
X224532455Y-89934990D01*
X224532455Y-89934990D02*
X224632455Y-89896895D01*
X224632455Y-89896895D02*
X224699122Y-89896895D01*
X224699122Y-89896895D02*
X224799122Y-89934990D01*
X224799122Y-89934990D02*
X224832455Y-89973085D01*
X225132455Y-90696895D02*
X225132455Y-89896895D01*
X225132455Y-90277847D02*
X225532455Y-90277847D01*
X225532455Y-90696895D02*
X225532455Y-89896895D01*
X226232455Y-89934990D02*
X226165788Y-89896895D01*
X226165788Y-89896895D02*
X226065788Y-89896895D01*
X226065788Y-89896895D02*
X225965788Y-89934990D01*
X225965788Y-89934990D02*
X225899122Y-90011180D01*
X225899122Y-90011180D02*
X225865788Y-90087371D01*
X225865788Y-90087371D02*
X225832455Y-90239752D01*
X225832455Y-90239752D02*
X225832455Y-90354038D01*
X225832455Y-90354038D02*
X225865788Y-90506419D01*
X225865788Y-90506419D02*
X225899122Y-90582609D01*
X225899122Y-90582609D02*
X225965788Y-90658800D01*
X225965788Y-90658800D02*
X226065788Y-90696895D01*
X226065788Y-90696895D02*
X226132455Y-90696895D01*
X226132455Y-90696895D02*
X226232455Y-90658800D01*
X226232455Y-90658800D02*
X226265788Y-90620704D01*
X226265788Y-90620704D02*
X226265788Y-90354038D01*
X226265788Y-90354038D02*
X226132455Y-90354038D01*
X244465789Y-82296895D02*
X244132455Y-82296895D01*
X244132455Y-82296895D02*
X244099122Y-82677847D01*
X244099122Y-82677847D02*
X244132455Y-82639752D01*
X244132455Y-82639752D02*
X244199122Y-82601657D01*
X244199122Y-82601657D02*
X244365789Y-82601657D01*
X244365789Y-82601657D02*
X244432455Y-82639752D01*
X244432455Y-82639752D02*
X244465789Y-82677847D01*
X244465789Y-82677847D02*
X244499122Y-82754038D01*
X244499122Y-82754038D02*
X244499122Y-82944514D01*
X244499122Y-82944514D02*
X244465789Y-83020704D01*
X244465789Y-83020704D02*
X244432455Y-83058800D01*
X244432455Y-83058800D02*
X244365789Y-83096895D01*
X244365789Y-83096895D02*
X244199122Y-83096895D01*
X244199122Y-83096895D02*
X244132455Y-83058800D01*
X244132455Y-83058800D02*
X244099122Y-83020704D01*
X244699122Y-82296895D02*
X244932456Y-83096895D01*
X244932456Y-83096895D02*
X245165789Y-82296895D01*
X211815789Y-56321895D02*
X212249122Y-56321895D01*
X212249122Y-56321895D02*
X212015789Y-56626657D01*
X212015789Y-56626657D02*
X212115789Y-56626657D01*
X212115789Y-56626657D02*
X212182455Y-56664752D01*
X212182455Y-56664752D02*
X212215789Y-56702847D01*
X212215789Y-56702847D02*
X212249122Y-56779038D01*
X212249122Y-56779038D02*
X212249122Y-56969514D01*
X212249122Y-56969514D02*
X212215789Y-57045704D01*
X212215789Y-57045704D02*
X212182455Y-57083800D01*
X212182455Y-57083800D02*
X212115789Y-57121895D01*
X212115789Y-57121895D02*
X211915789Y-57121895D01*
X211915789Y-57121895D02*
X211849122Y-57083800D01*
X211849122Y-57083800D02*
X211815789Y-57045704D01*
X212482456Y-56588561D02*
X212649122Y-57121895D01*
X212649122Y-57121895D02*
X212815789Y-56588561D01*
X213015789Y-56321895D02*
X213449122Y-56321895D01*
X213449122Y-56321895D02*
X213215789Y-56626657D01*
X213215789Y-56626657D02*
X213315789Y-56626657D01*
X213315789Y-56626657D02*
X213382455Y-56664752D01*
X213382455Y-56664752D02*
X213415789Y-56702847D01*
X213415789Y-56702847D02*
X213449122Y-56779038D01*
X213449122Y-56779038D02*
X213449122Y-56969514D01*
X213449122Y-56969514D02*
X213415789Y-57045704D01*
X213415789Y-57045704D02*
X213382455Y-57083800D01*
X213382455Y-57083800D02*
X213315789Y-57121895D01*
X213315789Y-57121895D02*
X213115789Y-57121895D01*
X213115789Y-57121895D02*
X213049122Y-57083800D01*
X213049122Y-57083800D02*
X213015789Y-57045704D01*
X214649122Y-56359990D02*
X214582455Y-56321895D01*
X214582455Y-56321895D02*
X214482455Y-56321895D01*
X214482455Y-56321895D02*
X214382455Y-56359990D01*
X214382455Y-56359990D02*
X214315789Y-56436180D01*
X214315789Y-56436180D02*
X214282455Y-56512371D01*
X214282455Y-56512371D02*
X214249122Y-56664752D01*
X214249122Y-56664752D02*
X214249122Y-56779038D01*
X214249122Y-56779038D02*
X214282455Y-56931419D01*
X214282455Y-56931419D02*
X214315789Y-57007609D01*
X214315789Y-57007609D02*
X214382455Y-57083800D01*
X214382455Y-57083800D02*
X214482455Y-57121895D01*
X214482455Y-57121895D02*
X214549122Y-57121895D01*
X214549122Y-57121895D02*
X214649122Y-57083800D01*
X214649122Y-57083800D02*
X214682455Y-57045704D01*
X214682455Y-57045704D02*
X214682455Y-56779038D01*
X214682455Y-56779038D02*
X214549122Y-56779038D01*
X214982455Y-57121895D02*
X214982455Y-56321895D01*
X214982455Y-56321895D02*
X215382455Y-57121895D01*
X215382455Y-57121895D02*
X215382455Y-56321895D01*
X215715788Y-57121895D02*
X215715788Y-56321895D01*
X215715788Y-56321895D02*
X215882455Y-56321895D01*
X215882455Y-56321895D02*
X215982455Y-56359990D01*
X215982455Y-56359990D02*
X216049122Y-56436180D01*
X216049122Y-56436180D02*
X216082455Y-56512371D01*
X216082455Y-56512371D02*
X216115788Y-56664752D01*
X216115788Y-56664752D02*
X216115788Y-56779038D01*
X216115788Y-56779038D02*
X216082455Y-56931419D01*
X216082455Y-56931419D02*
X216049122Y-57007609D01*
X216049122Y-57007609D02*
X215982455Y-57083800D01*
X215982455Y-57083800D02*
X215882455Y-57121895D01*
X215882455Y-57121895D02*
X215715788Y-57121895D01*
X216915788Y-57083800D02*
X217015788Y-57121895D01*
X217015788Y-57121895D02*
X217182455Y-57121895D01*
X217182455Y-57121895D02*
X217249121Y-57083800D01*
X217249121Y-57083800D02*
X217282455Y-57045704D01*
X217282455Y-57045704D02*
X217315788Y-56969514D01*
X217315788Y-56969514D02*
X217315788Y-56893323D01*
X217315788Y-56893323D02*
X217282455Y-56817133D01*
X217282455Y-56817133D02*
X217249121Y-56779038D01*
X217249121Y-56779038D02*
X217182455Y-56740942D01*
X217182455Y-56740942D02*
X217049121Y-56702847D01*
X217049121Y-56702847D02*
X216982455Y-56664752D01*
X216982455Y-56664752D02*
X216949121Y-56626657D01*
X216949121Y-56626657D02*
X216915788Y-56550466D01*
X216915788Y-56550466D02*
X216915788Y-56474276D01*
X216915788Y-56474276D02*
X216949121Y-56398085D01*
X216949121Y-56398085D02*
X216982455Y-56359990D01*
X216982455Y-56359990D02*
X217049121Y-56321895D01*
X217049121Y-56321895D02*
X217215788Y-56321895D01*
X217215788Y-56321895D02*
X217315788Y-56359990D01*
X217615788Y-57121895D02*
X217615788Y-56321895D01*
X217615788Y-56321895D02*
X217782455Y-56321895D01*
X217782455Y-56321895D02*
X217882455Y-56359990D01*
X217882455Y-56359990D02*
X217949122Y-56436180D01*
X217949122Y-56436180D02*
X217982455Y-56512371D01*
X217982455Y-56512371D02*
X218015788Y-56664752D01*
X218015788Y-56664752D02*
X218015788Y-56779038D01*
X218015788Y-56779038D02*
X217982455Y-56931419D01*
X217982455Y-56931419D02*
X217949122Y-57007609D01*
X217949122Y-57007609D02*
X217882455Y-57083800D01*
X217882455Y-57083800D02*
X217782455Y-57121895D01*
X217782455Y-57121895D02*
X217615788Y-57121895D01*
X218282455Y-56893323D02*
X218615788Y-56893323D01*
X218215788Y-57121895D02*
X218449122Y-56321895D01*
X218449122Y-56321895D02*
X218682455Y-57121895D01*
X219415788Y-57083800D02*
X219515788Y-57121895D01*
X219515788Y-57121895D02*
X219682455Y-57121895D01*
X219682455Y-57121895D02*
X219749121Y-57083800D01*
X219749121Y-57083800D02*
X219782455Y-57045704D01*
X219782455Y-57045704D02*
X219815788Y-56969514D01*
X219815788Y-56969514D02*
X219815788Y-56893323D01*
X219815788Y-56893323D02*
X219782455Y-56817133D01*
X219782455Y-56817133D02*
X219749121Y-56779038D01*
X219749121Y-56779038D02*
X219682455Y-56740942D01*
X219682455Y-56740942D02*
X219549121Y-56702847D01*
X219549121Y-56702847D02*
X219482455Y-56664752D01*
X219482455Y-56664752D02*
X219449121Y-56626657D01*
X219449121Y-56626657D02*
X219415788Y-56550466D01*
X219415788Y-56550466D02*
X219415788Y-56474276D01*
X219415788Y-56474276D02*
X219449121Y-56398085D01*
X219449121Y-56398085D02*
X219482455Y-56359990D01*
X219482455Y-56359990D02*
X219549121Y-56321895D01*
X219549121Y-56321895D02*
X219715788Y-56321895D01*
X219715788Y-56321895D02*
X219815788Y-56359990D01*
X220515788Y-57045704D02*
X220482455Y-57083800D01*
X220482455Y-57083800D02*
X220382455Y-57121895D01*
X220382455Y-57121895D02*
X220315788Y-57121895D01*
X220315788Y-57121895D02*
X220215788Y-57083800D01*
X220215788Y-57083800D02*
X220149122Y-57007609D01*
X220149122Y-57007609D02*
X220115788Y-56931419D01*
X220115788Y-56931419D02*
X220082455Y-56779038D01*
X220082455Y-56779038D02*
X220082455Y-56664752D01*
X220082455Y-56664752D02*
X220115788Y-56512371D01*
X220115788Y-56512371D02*
X220149122Y-56436180D01*
X220149122Y-56436180D02*
X220215788Y-56359990D01*
X220215788Y-56359990D02*
X220315788Y-56321895D01*
X220315788Y-56321895D02*
X220382455Y-56321895D01*
X220382455Y-56321895D02*
X220482455Y-56359990D01*
X220482455Y-56359990D02*
X220515788Y-56398085D01*
X221149122Y-57121895D02*
X220815788Y-57121895D01*
X220815788Y-57121895D02*
X220815788Y-56321895D01*
X245175312Y-60796895D02*
X244841979Y-60415942D01*
X244603884Y-60796895D02*
X244603884Y-59996895D01*
X244603884Y-59996895D02*
X244984836Y-59996895D01*
X244984836Y-59996895D02*
X245080074Y-60034990D01*
X245080074Y-60034990D02*
X245127693Y-60073085D01*
X245127693Y-60073085D02*
X245175312Y-60149276D01*
X245175312Y-60149276D02*
X245175312Y-60263561D01*
X245175312Y-60263561D02*
X245127693Y-60339752D01*
X245127693Y-60339752D02*
X245080074Y-60377847D01*
X245080074Y-60377847D02*
X244984836Y-60415942D01*
X244984836Y-60415942D02*
X244603884Y-60415942D01*
X245603884Y-60377847D02*
X245937217Y-60377847D01*
X246080074Y-60796895D02*
X245603884Y-60796895D01*
X245603884Y-60796895D02*
X245603884Y-59996895D01*
X245603884Y-59996895D02*
X246080074Y-59996895D01*
X246461027Y-60758800D02*
X246603884Y-60796895D01*
X246603884Y-60796895D02*
X246841979Y-60796895D01*
X246841979Y-60796895D02*
X246937217Y-60758800D01*
X246937217Y-60758800D02*
X246984836Y-60720704D01*
X246984836Y-60720704D02*
X247032455Y-60644514D01*
X247032455Y-60644514D02*
X247032455Y-60568323D01*
X247032455Y-60568323D02*
X246984836Y-60492133D01*
X246984836Y-60492133D02*
X246937217Y-60454038D01*
X246937217Y-60454038D02*
X246841979Y-60415942D01*
X246841979Y-60415942D02*
X246651503Y-60377847D01*
X246651503Y-60377847D02*
X246556265Y-60339752D01*
X246556265Y-60339752D02*
X246508646Y-60301657D01*
X246508646Y-60301657D02*
X246461027Y-60225466D01*
X246461027Y-60225466D02*
X246461027Y-60149276D01*
X246461027Y-60149276D02*
X246508646Y-60073085D01*
X246508646Y-60073085D02*
X246556265Y-60034990D01*
X246556265Y-60034990D02*
X246651503Y-59996895D01*
X246651503Y-59996895D02*
X246889598Y-59996895D01*
X246889598Y-59996895D02*
X247032455Y-60034990D01*
X247461027Y-60377847D02*
X247794360Y-60377847D01*
X247937217Y-60796895D02*
X247461027Y-60796895D01*
X247461027Y-60796895D02*
X247461027Y-59996895D01*
X247461027Y-59996895D02*
X247937217Y-59996895D01*
X248222932Y-59996895D02*
X248794360Y-59996895D01*
X248508646Y-60796895D02*
X248508646Y-59996895D01*
X196033122Y-56056323D02*
X196366455Y-56056323D01*
X195966455Y-56284895D02*
X196199789Y-55484895D01*
X196199789Y-55484895D02*
X196433122Y-56284895D01*
X197066455Y-56208704D02*
X197033122Y-56246800D01*
X197033122Y-56246800D02*
X196933122Y-56284895D01*
X196933122Y-56284895D02*
X196866455Y-56284895D01*
X196866455Y-56284895D02*
X196766455Y-56246800D01*
X196766455Y-56246800D02*
X196699789Y-56170609D01*
X196699789Y-56170609D02*
X196666455Y-56094419D01*
X196666455Y-56094419D02*
X196633122Y-55942038D01*
X196633122Y-55942038D02*
X196633122Y-55827752D01*
X196633122Y-55827752D02*
X196666455Y-55675371D01*
X196666455Y-55675371D02*
X196699789Y-55599180D01*
X196699789Y-55599180D02*
X196766455Y-55522990D01*
X196766455Y-55522990D02*
X196866455Y-55484895D01*
X196866455Y-55484895D02*
X196933122Y-55484895D01*
X196933122Y-55484895D02*
X197033122Y-55522990D01*
X197033122Y-55522990D02*
X197066455Y-55561085D01*
X197266455Y-55484895D02*
X197666455Y-55484895D01*
X197466455Y-56284895D02*
X197466455Y-55484895D01*
D11*
X209872295Y-54833333D02*
X210443723Y-54833333D01*
X210443723Y-54833333D02*
X210558009Y-54880952D01*
X210558009Y-54880952D02*
X210634200Y-54976190D01*
X210634200Y-54976190D02*
X210672295Y-55119047D01*
X210672295Y-55119047D02*
X210672295Y-55214285D01*
X209872295Y-54452380D02*
X209872295Y-53833333D01*
X209872295Y-53833333D02*
X210177057Y-54166666D01*
X210177057Y-54166666D02*
X210177057Y-54023809D01*
X210177057Y-54023809D02*
X210215152Y-53928571D01*
X210215152Y-53928571D02*
X210253247Y-53880952D01*
X210253247Y-53880952D02*
X210329438Y-53833333D01*
X210329438Y-53833333D02*
X210519914Y-53833333D01*
X210519914Y-53833333D02*
X210596104Y-53880952D01*
X210596104Y-53880952D02*
X210634200Y-53928571D01*
X210634200Y-53928571D02*
X210672295Y-54023809D01*
X210672295Y-54023809D02*
X210672295Y-54309523D01*
X210672295Y-54309523D02*
X210634200Y-54404761D01*
X210634200Y-54404761D02*
X210596104Y-54452380D01*
D10*
X237066666Y-79764895D02*
X237066666Y-80412514D01*
X237066666Y-80412514D02*
X237100000Y-80488704D01*
X237100000Y-80488704D02*
X237133333Y-80526800D01*
X237133333Y-80526800D02*
X237200000Y-80564895D01*
X237200000Y-80564895D02*
X237333333Y-80564895D01*
X237333333Y-80564895D02*
X237400000Y-80526800D01*
X237400000Y-80526800D02*
X237433333Y-80488704D01*
X237433333Y-80488704D02*
X237466666Y-80412514D01*
X237466666Y-80412514D02*
X237466666Y-79764895D01*
X238099999Y-80031561D02*
X238099999Y-80564895D01*
X237933333Y-79726800D02*
X237766666Y-80298228D01*
X237766666Y-80298228D02*
X238199999Y-80298228D01*
X233949999Y-66188704D02*
X233916666Y-66226800D01*
X233916666Y-66226800D02*
X233816666Y-66264895D01*
X233816666Y-66264895D02*
X233749999Y-66264895D01*
X233749999Y-66264895D02*
X233649999Y-66226800D01*
X233649999Y-66226800D02*
X233583333Y-66150609D01*
X233583333Y-66150609D02*
X233549999Y-66074419D01*
X233549999Y-66074419D02*
X233516666Y-65922038D01*
X233516666Y-65922038D02*
X233516666Y-65807752D01*
X233516666Y-65807752D02*
X233549999Y-65655371D01*
X233549999Y-65655371D02*
X233583333Y-65579180D01*
X233583333Y-65579180D02*
X233649999Y-65502990D01*
X233649999Y-65502990D02*
X233749999Y-65464895D01*
X233749999Y-65464895D02*
X233816666Y-65464895D01*
X233816666Y-65464895D02*
X233916666Y-65502990D01*
X233916666Y-65502990D02*
X233949999Y-65541085D01*
X234616666Y-66264895D02*
X234216666Y-66264895D01*
X234416666Y-66264895D02*
X234416666Y-65464895D01*
X234416666Y-65464895D02*
X234349999Y-65579180D01*
X234349999Y-65579180D02*
X234283333Y-65655371D01*
X234283333Y-65655371D02*
X234216666Y-65693466D01*
X234883333Y-65541085D02*
X234916666Y-65502990D01*
X234916666Y-65502990D02*
X234983333Y-65464895D01*
X234983333Y-65464895D02*
X235150000Y-65464895D01*
X235150000Y-65464895D02*
X235216666Y-65502990D01*
X235216666Y-65502990D02*
X235250000Y-65541085D01*
X235250000Y-65541085D02*
X235283333Y-65617276D01*
X235283333Y-65617276D02*
X235283333Y-65693466D01*
X235283333Y-65693466D02*
X235250000Y-65807752D01*
X235250000Y-65807752D02*
X234850000Y-66264895D01*
X234850000Y-66264895D02*
X235283333Y-66264895D01*
X241549999Y-63288704D02*
X241516666Y-63326800D01*
X241516666Y-63326800D02*
X241416666Y-63364895D01*
X241416666Y-63364895D02*
X241349999Y-63364895D01*
X241349999Y-63364895D02*
X241249999Y-63326800D01*
X241249999Y-63326800D02*
X241183333Y-63250609D01*
X241183333Y-63250609D02*
X241149999Y-63174419D01*
X241149999Y-63174419D02*
X241116666Y-63022038D01*
X241116666Y-63022038D02*
X241116666Y-62907752D01*
X241116666Y-62907752D02*
X241149999Y-62755371D01*
X241149999Y-62755371D02*
X241183333Y-62679180D01*
X241183333Y-62679180D02*
X241249999Y-62602990D01*
X241249999Y-62602990D02*
X241349999Y-62564895D01*
X241349999Y-62564895D02*
X241416666Y-62564895D01*
X241416666Y-62564895D02*
X241516666Y-62602990D01*
X241516666Y-62602990D02*
X241549999Y-62641085D01*
X241816666Y-62641085D02*
X241849999Y-62602990D01*
X241849999Y-62602990D02*
X241916666Y-62564895D01*
X241916666Y-62564895D02*
X242083333Y-62564895D01*
X242083333Y-62564895D02*
X242149999Y-62602990D01*
X242149999Y-62602990D02*
X242183333Y-62641085D01*
X242183333Y-62641085D02*
X242216666Y-62717276D01*
X242216666Y-62717276D02*
X242216666Y-62793466D01*
X242216666Y-62793466D02*
X242183333Y-62907752D01*
X242183333Y-62907752D02*
X241783333Y-63364895D01*
X241783333Y-63364895D02*
X242216666Y-63364895D01*
X242450000Y-62564895D02*
X242916666Y-62564895D01*
X242916666Y-62564895D02*
X242616666Y-63364895D01*
X208693999Y-61966704D02*
X208660666Y-62004800D01*
X208660666Y-62004800D02*
X208560666Y-62042895D01*
X208560666Y-62042895D02*
X208493999Y-62042895D01*
X208493999Y-62042895D02*
X208393999Y-62004800D01*
X208393999Y-62004800D02*
X208327333Y-61928609D01*
X208327333Y-61928609D02*
X208293999Y-61852419D01*
X208293999Y-61852419D02*
X208260666Y-61700038D01*
X208260666Y-61700038D02*
X208260666Y-61585752D01*
X208260666Y-61585752D02*
X208293999Y-61433371D01*
X208293999Y-61433371D02*
X208327333Y-61357180D01*
X208327333Y-61357180D02*
X208393999Y-61280990D01*
X208393999Y-61280990D02*
X208493999Y-61242895D01*
X208493999Y-61242895D02*
X208560666Y-61242895D01*
X208560666Y-61242895D02*
X208660666Y-61280990D01*
X208660666Y-61280990D02*
X208693999Y-61319085D01*
X209360666Y-62042895D02*
X208960666Y-62042895D01*
X209160666Y-62042895D02*
X209160666Y-61242895D01*
X209160666Y-61242895D02*
X209093999Y-61357180D01*
X209093999Y-61357180D02*
X209027333Y-61433371D01*
X209027333Y-61433371D02*
X208960666Y-61471466D01*
X209794000Y-61242895D02*
X209860666Y-61242895D01*
X209860666Y-61242895D02*
X209927333Y-61280990D01*
X209927333Y-61280990D02*
X209960666Y-61319085D01*
X209960666Y-61319085D02*
X209994000Y-61395276D01*
X209994000Y-61395276D02*
X210027333Y-61547657D01*
X210027333Y-61547657D02*
X210027333Y-61738133D01*
X210027333Y-61738133D02*
X209994000Y-61890514D01*
X209994000Y-61890514D02*
X209960666Y-61966704D01*
X209960666Y-61966704D02*
X209927333Y-62004800D01*
X209927333Y-62004800D02*
X209860666Y-62042895D01*
X209860666Y-62042895D02*
X209794000Y-62042895D01*
X209794000Y-62042895D02*
X209727333Y-62004800D01*
X209727333Y-62004800D02*
X209694000Y-61966704D01*
X209694000Y-61966704D02*
X209660666Y-61890514D01*
X209660666Y-61890514D02*
X209627333Y-61738133D01*
X209627333Y-61738133D02*
X209627333Y-61547657D01*
X209627333Y-61547657D02*
X209660666Y-61395276D01*
X209660666Y-61395276D02*
X209694000Y-61319085D01*
X209694000Y-61319085D02*
X209727333Y-61280990D01*
X209727333Y-61280990D02*
X209794000Y-61242895D01*
X228283333Y-62088704D02*
X228250000Y-62126800D01*
X228250000Y-62126800D02*
X228150000Y-62164895D01*
X228150000Y-62164895D02*
X228083333Y-62164895D01*
X228083333Y-62164895D02*
X227983333Y-62126800D01*
X227983333Y-62126800D02*
X227916667Y-62050609D01*
X227916667Y-62050609D02*
X227883333Y-61974419D01*
X227883333Y-61974419D02*
X227850000Y-61822038D01*
X227850000Y-61822038D02*
X227850000Y-61707752D01*
X227850000Y-61707752D02*
X227883333Y-61555371D01*
X227883333Y-61555371D02*
X227916667Y-61479180D01*
X227916667Y-61479180D02*
X227983333Y-61402990D01*
X227983333Y-61402990D02*
X228083333Y-61364895D01*
X228083333Y-61364895D02*
X228150000Y-61364895D01*
X228150000Y-61364895D02*
X228250000Y-61402990D01*
X228250000Y-61402990D02*
X228283333Y-61441085D01*
X228916667Y-61364895D02*
X228583333Y-61364895D01*
X228583333Y-61364895D02*
X228550000Y-61745847D01*
X228550000Y-61745847D02*
X228583333Y-61707752D01*
X228583333Y-61707752D02*
X228650000Y-61669657D01*
X228650000Y-61669657D02*
X228816667Y-61669657D01*
X228816667Y-61669657D02*
X228883333Y-61707752D01*
X228883333Y-61707752D02*
X228916667Y-61745847D01*
X228916667Y-61745847D02*
X228950000Y-61822038D01*
X228950000Y-61822038D02*
X228950000Y-62012514D01*
X228950000Y-62012514D02*
X228916667Y-62088704D01*
X228916667Y-62088704D02*
X228883333Y-62126800D01*
X228883333Y-62126800D02*
X228816667Y-62164895D01*
X228816667Y-62164895D02*
X228650000Y-62164895D01*
X228650000Y-62164895D02*
X228583333Y-62126800D01*
X228583333Y-62126800D02*
X228550000Y-62088704D01*
X200694704Y-59298666D02*
X200732800Y-59331999D01*
X200732800Y-59331999D02*
X200770895Y-59431999D01*
X200770895Y-59431999D02*
X200770895Y-59498666D01*
X200770895Y-59498666D02*
X200732800Y-59598666D01*
X200732800Y-59598666D02*
X200656609Y-59665333D01*
X200656609Y-59665333D02*
X200580419Y-59698666D01*
X200580419Y-59698666D02*
X200428038Y-59731999D01*
X200428038Y-59731999D02*
X200313752Y-59731999D01*
X200313752Y-59731999D02*
X200161371Y-59698666D01*
X200161371Y-59698666D02*
X200085180Y-59665333D01*
X200085180Y-59665333D02*
X200008990Y-59598666D01*
X200008990Y-59598666D02*
X199970895Y-59498666D01*
X199970895Y-59498666D02*
X199970895Y-59431999D01*
X199970895Y-59431999D02*
X200008990Y-59331999D01*
X200008990Y-59331999D02*
X200047085Y-59298666D01*
X200313752Y-58898666D02*
X200275657Y-58965333D01*
X200275657Y-58965333D02*
X200237561Y-58998666D01*
X200237561Y-58998666D02*
X200161371Y-59031999D01*
X200161371Y-59031999D02*
X200123276Y-59031999D01*
X200123276Y-59031999D02*
X200047085Y-58998666D01*
X200047085Y-58998666D02*
X200008990Y-58965333D01*
X200008990Y-58965333D02*
X199970895Y-58898666D01*
X199970895Y-58898666D02*
X199970895Y-58765333D01*
X199970895Y-58765333D02*
X200008990Y-58698666D01*
X200008990Y-58698666D02*
X200047085Y-58665333D01*
X200047085Y-58665333D02*
X200123276Y-58631999D01*
X200123276Y-58631999D02*
X200161371Y-58631999D01*
X200161371Y-58631999D02*
X200237561Y-58665333D01*
X200237561Y-58665333D02*
X200275657Y-58698666D01*
X200275657Y-58698666D02*
X200313752Y-58765333D01*
X200313752Y-58765333D02*
X200313752Y-58898666D01*
X200313752Y-58898666D02*
X200351847Y-58965333D01*
X200351847Y-58965333D02*
X200389942Y-58998666D01*
X200389942Y-58998666D02*
X200466133Y-59031999D01*
X200466133Y-59031999D02*
X200618514Y-59031999D01*
X200618514Y-59031999D02*
X200694704Y-58998666D01*
X200694704Y-58998666D02*
X200732800Y-58965333D01*
X200732800Y-58965333D02*
X200770895Y-58898666D01*
X200770895Y-58898666D02*
X200770895Y-58765333D01*
X200770895Y-58765333D02*
X200732800Y-58698666D01*
X200732800Y-58698666D02*
X200694704Y-58665333D01*
X200694704Y-58665333D02*
X200618514Y-58631999D01*
X200618514Y-58631999D02*
X200466133Y-58631999D01*
X200466133Y-58631999D02*
X200389942Y-58665333D01*
X200389942Y-58665333D02*
X200351847Y-58698666D01*
X200351847Y-58698666D02*
X200313752Y-58765333D01*
X208274499Y-58332895D02*
X208041166Y-57951942D01*
X207874499Y-58332895D02*
X207874499Y-57532895D01*
X207874499Y-57532895D02*
X208141166Y-57532895D01*
X208141166Y-57532895D02*
X208207833Y-57570990D01*
X208207833Y-57570990D02*
X208241166Y-57609085D01*
X208241166Y-57609085D02*
X208274499Y-57685276D01*
X208274499Y-57685276D02*
X208274499Y-57799561D01*
X208274499Y-57799561D02*
X208241166Y-57875752D01*
X208241166Y-57875752D02*
X208207833Y-57913847D01*
X208207833Y-57913847D02*
X208141166Y-57951942D01*
X208141166Y-57951942D02*
X207874499Y-57951942D01*
X208941166Y-58332895D02*
X208541166Y-58332895D01*
X208741166Y-58332895D02*
X208741166Y-57532895D01*
X208741166Y-57532895D02*
X208674499Y-57647180D01*
X208674499Y-57647180D02*
X208607833Y-57723371D01*
X208607833Y-57723371D02*
X208541166Y-57761466D01*
X209574500Y-57532895D02*
X209241166Y-57532895D01*
X209241166Y-57532895D02*
X209207833Y-57913847D01*
X209207833Y-57913847D02*
X209241166Y-57875752D01*
X209241166Y-57875752D02*
X209307833Y-57837657D01*
X209307833Y-57837657D02*
X209474500Y-57837657D01*
X209474500Y-57837657D02*
X209541166Y-57875752D01*
X209541166Y-57875752D02*
X209574500Y-57913847D01*
X209574500Y-57913847D02*
X209607833Y-57990038D01*
X209607833Y-57990038D02*
X209607833Y-58180514D01*
X209607833Y-58180514D02*
X209574500Y-58256704D01*
X209574500Y-58256704D02*
X209541166Y-58294800D01*
X209541166Y-58294800D02*
X209474500Y-58332895D01*
X209474500Y-58332895D02*
X209307833Y-58332895D01*
X209307833Y-58332895D02*
X209241166Y-58294800D01*
X209241166Y-58294800D02*
X209207833Y-58256704D01*
X226880866Y-80302394D02*
X226880866Y-80950013D01*
X226880866Y-80950013D02*
X226914200Y-81026203D01*
X226914200Y-81026203D02*
X226947533Y-81064299D01*
X226947533Y-81064299D02*
X227014200Y-81102394D01*
X227014200Y-81102394D02*
X227147533Y-81102394D01*
X227147533Y-81102394D02*
X227214200Y-81064299D01*
X227214200Y-81064299D02*
X227247533Y-81026203D01*
X227247533Y-81026203D02*
X227280866Y-80950013D01*
X227280866Y-80950013D02*
X227280866Y-80302394D01*
X227980866Y-81102394D02*
X227580866Y-81102394D01*
X227780866Y-81102394D02*
X227780866Y-80302394D01*
X227780866Y-80302394D02*
X227714199Y-80416679D01*
X227714199Y-80416679D02*
X227647533Y-80492870D01*
X227647533Y-80492870D02*
X227580866Y-80530965D01*
X218233333Y-76888704D02*
X218200000Y-76926800D01*
X218200000Y-76926800D02*
X218100000Y-76964895D01*
X218100000Y-76964895D02*
X218033333Y-76964895D01*
X218033333Y-76964895D02*
X217933333Y-76926800D01*
X217933333Y-76926800D02*
X217866667Y-76850609D01*
X217866667Y-76850609D02*
X217833333Y-76774419D01*
X217833333Y-76774419D02*
X217800000Y-76622038D01*
X217800000Y-76622038D02*
X217800000Y-76507752D01*
X217800000Y-76507752D02*
X217833333Y-76355371D01*
X217833333Y-76355371D02*
X217866667Y-76279180D01*
X217866667Y-76279180D02*
X217933333Y-76202990D01*
X217933333Y-76202990D02*
X218033333Y-76164895D01*
X218033333Y-76164895D02*
X218100000Y-76164895D01*
X218100000Y-76164895D02*
X218200000Y-76202990D01*
X218200000Y-76202990D02*
X218233333Y-76241085D01*
X218833333Y-76164895D02*
X218700000Y-76164895D01*
X218700000Y-76164895D02*
X218633333Y-76202990D01*
X218633333Y-76202990D02*
X218600000Y-76241085D01*
X218600000Y-76241085D02*
X218533333Y-76355371D01*
X218533333Y-76355371D02*
X218500000Y-76507752D01*
X218500000Y-76507752D02*
X218500000Y-76812514D01*
X218500000Y-76812514D02*
X218533333Y-76888704D01*
X218533333Y-76888704D02*
X218566667Y-76926800D01*
X218566667Y-76926800D02*
X218633333Y-76964895D01*
X218633333Y-76964895D02*
X218766667Y-76964895D01*
X218766667Y-76964895D02*
X218833333Y-76926800D01*
X218833333Y-76926800D02*
X218866667Y-76888704D01*
X218866667Y-76888704D02*
X218900000Y-76812514D01*
X218900000Y-76812514D02*
X218900000Y-76622038D01*
X218900000Y-76622038D02*
X218866667Y-76545847D01*
X218866667Y-76545847D02*
X218833333Y-76507752D01*
X218833333Y-76507752D02*
X218766667Y-76469657D01*
X218766667Y-76469657D02*
X218633333Y-76469657D01*
X218633333Y-76469657D02*
X218566667Y-76507752D01*
X218566667Y-76507752D02*
X218533333Y-76545847D01*
X218533333Y-76545847D02*
X218500000Y-76622038D01*
X206353999Y-73694704D02*
X206320666Y-73732800D01*
X206320666Y-73732800D02*
X206220666Y-73770895D01*
X206220666Y-73770895D02*
X206153999Y-73770895D01*
X206153999Y-73770895D02*
X206053999Y-73732800D01*
X206053999Y-73732800D02*
X205987333Y-73656609D01*
X205987333Y-73656609D02*
X205953999Y-73580419D01*
X205953999Y-73580419D02*
X205920666Y-73428038D01*
X205920666Y-73428038D02*
X205920666Y-73313752D01*
X205920666Y-73313752D02*
X205953999Y-73161371D01*
X205953999Y-73161371D02*
X205987333Y-73085180D01*
X205987333Y-73085180D02*
X206053999Y-73008990D01*
X206053999Y-73008990D02*
X206153999Y-72970895D01*
X206153999Y-72970895D02*
X206220666Y-72970895D01*
X206220666Y-72970895D02*
X206320666Y-73008990D01*
X206320666Y-73008990D02*
X206353999Y-73047085D01*
X206620666Y-73047085D02*
X206653999Y-73008990D01*
X206653999Y-73008990D02*
X206720666Y-72970895D01*
X206720666Y-72970895D02*
X206887333Y-72970895D01*
X206887333Y-72970895D02*
X206953999Y-73008990D01*
X206953999Y-73008990D02*
X206987333Y-73047085D01*
X206987333Y-73047085D02*
X207020666Y-73123276D01*
X207020666Y-73123276D02*
X207020666Y-73199466D01*
X207020666Y-73199466D02*
X206987333Y-73313752D01*
X206987333Y-73313752D02*
X206587333Y-73770895D01*
X206587333Y-73770895D02*
X207020666Y-73770895D01*
X207687333Y-73770895D02*
X207287333Y-73770895D01*
X207487333Y-73770895D02*
X207487333Y-72970895D01*
X207487333Y-72970895D02*
X207420666Y-73085180D01*
X207420666Y-73085180D02*
X207354000Y-73161371D01*
X207354000Y-73161371D02*
X207287333Y-73199466D01*
X228149999Y-92664895D02*
X227916666Y-92283942D01*
X227749999Y-92664895D02*
X227749999Y-91864895D01*
X227749999Y-91864895D02*
X228016666Y-91864895D01*
X228016666Y-91864895D02*
X228083333Y-91902990D01*
X228083333Y-91902990D02*
X228116666Y-91941085D01*
X228116666Y-91941085D02*
X228149999Y-92017276D01*
X228149999Y-92017276D02*
X228149999Y-92131561D01*
X228149999Y-92131561D02*
X228116666Y-92207752D01*
X228116666Y-92207752D02*
X228083333Y-92245847D01*
X228083333Y-92245847D02*
X228016666Y-92283942D01*
X228016666Y-92283942D02*
X227749999Y-92283942D01*
X228816666Y-92664895D02*
X228416666Y-92664895D01*
X228616666Y-92664895D02*
X228616666Y-91864895D01*
X228616666Y-91864895D02*
X228549999Y-91979180D01*
X228549999Y-91979180D02*
X228483333Y-92055371D01*
X228483333Y-92055371D02*
X228416666Y-92093466D01*
X229250000Y-91864895D02*
X229316666Y-91864895D01*
X229316666Y-91864895D02*
X229383333Y-91902990D01*
X229383333Y-91902990D02*
X229416666Y-91941085D01*
X229416666Y-91941085D02*
X229450000Y-92017276D01*
X229450000Y-92017276D02*
X229483333Y-92169657D01*
X229483333Y-92169657D02*
X229483333Y-92360133D01*
X229483333Y-92360133D02*
X229450000Y-92512514D01*
X229450000Y-92512514D02*
X229416666Y-92588704D01*
X229416666Y-92588704D02*
X229383333Y-92626800D01*
X229383333Y-92626800D02*
X229316666Y-92664895D01*
X229316666Y-92664895D02*
X229250000Y-92664895D01*
X229250000Y-92664895D02*
X229183333Y-92626800D01*
X229183333Y-92626800D02*
X229150000Y-92588704D01*
X229150000Y-92588704D02*
X229116666Y-92512514D01*
X229116666Y-92512514D02*
X229083333Y-92360133D01*
X229083333Y-92360133D02*
X229083333Y-92169657D01*
X229083333Y-92169657D02*
X229116666Y-92017276D01*
X229116666Y-92017276D02*
X229150000Y-91941085D01*
X229150000Y-91941085D02*
X229183333Y-91902990D01*
X229183333Y-91902990D02*
X229250000Y-91864895D01*
X223064895Y-83116666D02*
X222683942Y-83349999D01*
X223064895Y-83516666D02*
X222264895Y-83516666D01*
X222264895Y-83516666D02*
X222264895Y-83249999D01*
X222264895Y-83249999D02*
X222302990Y-83183333D01*
X222302990Y-83183333D02*
X222341085Y-83149999D01*
X222341085Y-83149999D02*
X222417276Y-83116666D01*
X222417276Y-83116666D02*
X222531561Y-83116666D01*
X222531561Y-83116666D02*
X222607752Y-83149999D01*
X222607752Y-83149999D02*
X222645847Y-83183333D01*
X222645847Y-83183333D02*
X222683942Y-83249999D01*
X222683942Y-83249999D02*
X222683942Y-83516666D01*
X222264895Y-82483333D02*
X222264895Y-82816666D01*
X222264895Y-82816666D02*
X222645847Y-82849999D01*
X222645847Y-82849999D02*
X222607752Y-82816666D01*
X222607752Y-82816666D02*
X222569657Y-82749999D01*
X222569657Y-82749999D02*
X222569657Y-82583333D01*
X222569657Y-82583333D02*
X222607752Y-82516666D01*
X222607752Y-82516666D02*
X222645847Y-82483333D01*
X222645847Y-82483333D02*
X222722038Y-82449999D01*
X222722038Y-82449999D02*
X222912514Y-82449999D01*
X222912514Y-82449999D02*
X222988704Y-82483333D01*
X222988704Y-82483333D02*
X223026800Y-82516666D01*
X223026800Y-82516666D02*
X223064895Y-82583333D01*
X223064895Y-82583333D02*
X223064895Y-82749999D01*
X223064895Y-82749999D02*
X223026800Y-82816666D01*
X223026800Y-82816666D02*
X222988704Y-82849999D01*
X219949999Y-96088704D02*
X219916666Y-96126800D01*
X219916666Y-96126800D02*
X219816666Y-96164895D01*
X219816666Y-96164895D02*
X219749999Y-96164895D01*
X219749999Y-96164895D02*
X219649999Y-96126800D01*
X219649999Y-96126800D02*
X219583333Y-96050609D01*
X219583333Y-96050609D02*
X219549999Y-95974419D01*
X219549999Y-95974419D02*
X219516666Y-95822038D01*
X219516666Y-95822038D02*
X219516666Y-95707752D01*
X219516666Y-95707752D02*
X219549999Y-95555371D01*
X219549999Y-95555371D02*
X219583333Y-95479180D01*
X219583333Y-95479180D02*
X219649999Y-95402990D01*
X219649999Y-95402990D02*
X219749999Y-95364895D01*
X219749999Y-95364895D02*
X219816666Y-95364895D01*
X219816666Y-95364895D02*
X219916666Y-95402990D01*
X219916666Y-95402990D02*
X219949999Y-95441085D01*
X220616666Y-96164895D02*
X220216666Y-96164895D01*
X220416666Y-96164895D02*
X220416666Y-95364895D01*
X220416666Y-95364895D02*
X220349999Y-95479180D01*
X220349999Y-95479180D02*
X220283333Y-95555371D01*
X220283333Y-95555371D02*
X220216666Y-95593466D01*
X221216666Y-95631561D02*
X221216666Y-96164895D01*
X221050000Y-95326800D02*
X220883333Y-95898228D01*
X220883333Y-95898228D02*
X221316666Y-95898228D01*
X222749999Y-86064895D02*
X222516666Y-85683942D01*
X222349999Y-86064895D02*
X222349999Y-85264895D01*
X222349999Y-85264895D02*
X222616666Y-85264895D01*
X222616666Y-85264895D02*
X222683333Y-85302990D01*
X222683333Y-85302990D02*
X222716666Y-85341085D01*
X222716666Y-85341085D02*
X222749999Y-85417276D01*
X222749999Y-85417276D02*
X222749999Y-85531561D01*
X222749999Y-85531561D02*
X222716666Y-85607752D01*
X222716666Y-85607752D02*
X222683333Y-85645847D01*
X222683333Y-85645847D02*
X222616666Y-85683942D01*
X222616666Y-85683942D02*
X222349999Y-85683942D01*
X223416666Y-86064895D02*
X223016666Y-86064895D01*
X223216666Y-86064895D02*
X223216666Y-85264895D01*
X223216666Y-85264895D02*
X223149999Y-85379180D01*
X223149999Y-85379180D02*
X223083333Y-85455371D01*
X223083333Y-85455371D02*
X223016666Y-85493466D01*
X223650000Y-85264895D02*
X224083333Y-85264895D01*
X224083333Y-85264895D02*
X223850000Y-85569657D01*
X223850000Y-85569657D02*
X223950000Y-85569657D01*
X223950000Y-85569657D02*
X224016666Y-85607752D01*
X224016666Y-85607752D02*
X224050000Y-85645847D01*
X224050000Y-85645847D02*
X224083333Y-85722038D01*
X224083333Y-85722038D02*
X224083333Y-85912514D01*
X224083333Y-85912514D02*
X224050000Y-85988704D01*
X224050000Y-85988704D02*
X224016666Y-86026800D01*
X224016666Y-86026800D02*
X223950000Y-86064895D01*
X223950000Y-86064895D02*
X223750000Y-86064895D01*
X223750000Y-86064895D02*
X223683333Y-86026800D01*
X223683333Y-86026800D02*
X223650000Y-85988704D01*
X197292666Y-73079442D02*
X197292666Y-73460395D01*
X197059332Y-72660395D02*
X197292666Y-73079442D01*
X197292666Y-73079442D02*
X197525999Y-72660395D01*
X198125999Y-73460395D02*
X197725999Y-73460395D01*
X197925999Y-73460395D02*
X197925999Y-72660395D01*
X197925999Y-72660395D02*
X197859332Y-72774680D01*
X197859332Y-72774680D02*
X197792666Y-72850871D01*
X197792666Y-72850871D02*
X197725999Y-72888966D01*
X229983333Y-81388704D02*
X229950000Y-81426800D01*
X229950000Y-81426800D02*
X229850000Y-81464895D01*
X229850000Y-81464895D02*
X229783333Y-81464895D01*
X229783333Y-81464895D02*
X229683333Y-81426800D01*
X229683333Y-81426800D02*
X229616667Y-81350609D01*
X229616667Y-81350609D02*
X229583333Y-81274419D01*
X229583333Y-81274419D02*
X229550000Y-81122038D01*
X229550000Y-81122038D02*
X229550000Y-81007752D01*
X229550000Y-81007752D02*
X229583333Y-80855371D01*
X229583333Y-80855371D02*
X229616667Y-80779180D01*
X229616667Y-80779180D02*
X229683333Y-80702990D01*
X229683333Y-80702990D02*
X229783333Y-80664895D01*
X229783333Y-80664895D02*
X229850000Y-80664895D01*
X229850000Y-80664895D02*
X229950000Y-80702990D01*
X229950000Y-80702990D02*
X229983333Y-80741085D01*
X230650000Y-81464895D02*
X230250000Y-81464895D01*
X230450000Y-81464895D02*
X230450000Y-80664895D01*
X230450000Y-80664895D02*
X230383333Y-80779180D01*
X230383333Y-80779180D02*
X230316667Y-80855371D01*
X230316667Y-80855371D02*
X230250000Y-80893466D01*
X232983333Y-81489895D02*
X232750000Y-81108942D01*
X232583333Y-81489895D02*
X232583333Y-80689895D01*
X232583333Y-80689895D02*
X232850000Y-80689895D01*
X232850000Y-80689895D02*
X232916667Y-80727990D01*
X232916667Y-80727990D02*
X232950000Y-80766085D01*
X232950000Y-80766085D02*
X232983333Y-80842276D01*
X232983333Y-80842276D02*
X232983333Y-80956561D01*
X232983333Y-80956561D02*
X232950000Y-81032752D01*
X232950000Y-81032752D02*
X232916667Y-81070847D01*
X232916667Y-81070847D02*
X232850000Y-81108942D01*
X232850000Y-81108942D02*
X232583333Y-81108942D01*
X233250000Y-80766085D02*
X233283333Y-80727990D01*
X233283333Y-80727990D02*
X233350000Y-80689895D01*
X233350000Y-80689895D02*
X233516667Y-80689895D01*
X233516667Y-80689895D02*
X233583333Y-80727990D01*
X233583333Y-80727990D02*
X233616667Y-80766085D01*
X233616667Y-80766085D02*
X233650000Y-80842276D01*
X233650000Y-80842276D02*
X233650000Y-80918466D01*
X233650000Y-80918466D02*
X233616667Y-81032752D01*
X233616667Y-81032752D02*
X233216667Y-81489895D01*
X233216667Y-81489895D02*
X233650000Y-81489895D01*
X236166666Y-71164895D02*
X236166666Y-71812514D01*
X236166666Y-71812514D02*
X236200000Y-71888704D01*
X236200000Y-71888704D02*
X236233333Y-71926800D01*
X236233333Y-71926800D02*
X236300000Y-71964895D01*
X236300000Y-71964895D02*
X236433333Y-71964895D01*
X236433333Y-71964895D02*
X236500000Y-71926800D01*
X236500000Y-71926800D02*
X236533333Y-71888704D01*
X236533333Y-71888704D02*
X236566666Y-71812514D01*
X236566666Y-71812514D02*
X236566666Y-71164895D01*
X236833333Y-71164895D02*
X237266666Y-71164895D01*
X237266666Y-71164895D02*
X237033333Y-71469657D01*
X237033333Y-71469657D02*
X237133333Y-71469657D01*
X237133333Y-71469657D02*
X237199999Y-71507752D01*
X237199999Y-71507752D02*
X237233333Y-71545847D01*
X237233333Y-71545847D02*
X237266666Y-71622038D01*
X237266666Y-71622038D02*
X237266666Y-71812514D01*
X237266666Y-71812514D02*
X237233333Y-71888704D01*
X237233333Y-71888704D02*
X237199999Y-71926800D01*
X237199999Y-71926800D02*
X237133333Y-71964895D01*
X237133333Y-71964895D02*
X236933333Y-71964895D01*
X236933333Y-71964895D02*
X236866666Y-71926800D01*
X236866666Y-71926800D02*
X236833333Y-71888704D01*
X195549999Y-61164895D02*
X195316666Y-60783942D01*
X195149999Y-61164895D02*
X195149999Y-60364895D01*
X195149999Y-60364895D02*
X195416666Y-60364895D01*
X195416666Y-60364895D02*
X195483333Y-60402990D01*
X195483333Y-60402990D02*
X195516666Y-60441085D01*
X195516666Y-60441085D02*
X195549999Y-60517276D01*
X195549999Y-60517276D02*
X195549999Y-60631561D01*
X195549999Y-60631561D02*
X195516666Y-60707752D01*
X195516666Y-60707752D02*
X195483333Y-60745847D01*
X195483333Y-60745847D02*
X195416666Y-60783942D01*
X195416666Y-60783942D02*
X195149999Y-60783942D01*
X196216666Y-61164895D02*
X195816666Y-61164895D01*
X196016666Y-61164895D02*
X196016666Y-60364895D01*
X196016666Y-60364895D02*
X195949999Y-60479180D01*
X195949999Y-60479180D02*
X195883333Y-60555371D01*
X195883333Y-60555371D02*
X195816666Y-60593466D01*
X196816666Y-60364895D02*
X196683333Y-60364895D01*
X196683333Y-60364895D02*
X196616666Y-60402990D01*
X196616666Y-60402990D02*
X196583333Y-60441085D01*
X196583333Y-60441085D02*
X196516666Y-60555371D01*
X196516666Y-60555371D02*
X196483333Y-60707752D01*
X196483333Y-60707752D02*
X196483333Y-61012514D01*
X196483333Y-61012514D02*
X196516666Y-61088704D01*
X196516666Y-61088704D02*
X196550000Y-61126800D01*
X196550000Y-61126800D02*
X196616666Y-61164895D01*
X196616666Y-61164895D02*
X196750000Y-61164895D01*
X196750000Y-61164895D02*
X196816666Y-61126800D01*
X196816666Y-61126800D02*
X196850000Y-61088704D01*
X196850000Y-61088704D02*
X196883333Y-61012514D01*
X196883333Y-61012514D02*
X196883333Y-60822038D01*
X196883333Y-60822038D02*
X196850000Y-60745847D01*
X196850000Y-60745847D02*
X196816666Y-60707752D01*
X196816666Y-60707752D02*
X196750000Y-60669657D01*
X196750000Y-60669657D02*
X196616666Y-60669657D01*
X196616666Y-60669657D02*
X196550000Y-60707752D01*
X196550000Y-60707752D02*
X196516666Y-60745847D01*
X196516666Y-60745847D02*
X196483333Y-60822038D01*
D11*
X192566666Y-74398295D02*
X192566666Y-74969723D01*
X192566666Y-74969723D02*
X192519047Y-75084009D01*
X192519047Y-75084009D02*
X192423809Y-75160200D01*
X192423809Y-75160200D02*
X192280952Y-75198295D01*
X192280952Y-75198295D02*
X192185714Y-75198295D01*
X192947619Y-74398295D02*
X193614285Y-74398295D01*
X193614285Y-74398295D02*
X193185714Y-75198295D01*
D10*
X210652999Y-68360704D02*
X210619666Y-68398800D01*
X210619666Y-68398800D02*
X210519666Y-68436895D01*
X210519666Y-68436895D02*
X210452999Y-68436895D01*
X210452999Y-68436895D02*
X210352999Y-68398800D01*
X210352999Y-68398800D02*
X210286333Y-68322609D01*
X210286333Y-68322609D02*
X210252999Y-68246419D01*
X210252999Y-68246419D02*
X210219666Y-68094038D01*
X210219666Y-68094038D02*
X210219666Y-67979752D01*
X210219666Y-67979752D02*
X210252999Y-67827371D01*
X210252999Y-67827371D02*
X210286333Y-67751180D01*
X210286333Y-67751180D02*
X210352999Y-67674990D01*
X210352999Y-67674990D02*
X210452999Y-67636895D01*
X210452999Y-67636895D02*
X210519666Y-67636895D01*
X210519666Y-67636895D02*
X210619666Y-67674990D01*
X210619666Y-67674990D02*
X210652999Y-67713085D01*
X210919666Y-67713085D02*
X210952999Y-67674990D01*
X210952999Y-67674990D02*
X211019666Y-67636895D01*
X211019666Y-67636895D02*
X211186333Y-67636895D01*
X211186333Y-67636895D02*
X211252999Y-67674990D01*
X211252999Y-67674990D02*
X211286333Y-67713085D01*
X211286333Y-67713085D02*
X211319666Y-67789276D01*
X211319666Y-67789276D02*
X211319666Y-67865466D01*
X211319666Y-67865466D02*
X211286333Y-67979752D01*
X211286333Y-67979752D02*
X210886333Y-68436895D01*
X210886333Y-68436895D02*
X211319666Y-68436895D01*
X211719666Y-67979752D02*
X211653000Y-67941657D01*
X211653000Y-67941657D02*
X211619666Y-67903561D01*
X211619666Y-67903561D02*
X211586333Y-67827371D01*
X211586333Y-67827371D02*
X211586333Y-67789276D01*
X211586333Y-67789276D02*
X211619666Y-67713085D01*
X211619666Y-67713085D02*
X211653000Y-67674990D01*
X211653000Y-67674990D02*
X211719666Y-67636895D01*
X211719666Y-67636895D02*
X211853000Y-67636895D01*
X211853000Y-67636895D02*
X211919666Y-67674990D01*
X211919666Y-67674990D02*
X211953000Y-67713085D01*
X211953000Y-67713085D02*
X211986333Y-67789276D01*
X211986333Y-67789276D02*
X211986333Y-67827371D01*
X211986333Y-67827371D02*
X211953000Y-67903561D01*
X211953000Y-67903561D02*
X211919666Y-67941657D01*
X211919666Y-67941657D02*
X211853000Y-67979752D01*
X211853000Y-67979752D02*
X211719666Y-67979752D01*
X211719666Y-67979752D02*
X211653000Y-68017847D01*
X211653000Y-68017847D02*
X211619666Y-68055942D01*
X211619666Y-68055942D02*
X211586333Y-68132133D01*
X211586333Y-68132133D02*
X211586333Y-68284514D01*
X211586333Y-68284514D02*
X211619666Y-68360704D01*
X211619666Y-68360704D02*
X211653000Y-68398800D01*
X211653000Y-68398800D02*
X211719666Y-68436895D01*
X211719666Y-68436895D02*
X211853000Y-68436895D01*
X211853000Y-68436895D02*
X211919666Y-68398800D01*
X211919666Y-68398800D02*
X211953000Y-68360704D01*
X211953000Y-68360704D02*
X211986333Y-68284514D01*
X211986333Y-68284514D02*
X211986333Y-68132133D01*
X211986333Y-68132133D02*
X211953000Y-68055942D01*
X211953000Y-68055942D02*
X211919666Y-68017847D01*
X211919666Y-68017847D02*
X211853000Y-67979752D01*
X195939698Y-64516367D02*
X195606364Y-64516367D01*
X195606364Y-64516367D02*
X195606364Y-63716367D01*
X196473031Y-63716367D02*
X196339698Y-63716367D01*
X196339698Y-63716367D02*
X196273031Y-63754462D01*
X196273031Y-63754462D02*
X196239698Y-63792557D01*
X196239698Y-63792557D02*
X196173031Y-63906843D01*
X196173031Y-63906843D02*
X196139698Y-64059224D01*
X196139698Y-64059224D02*
X196139698Y-64363986D01*
X196139698Y-64363986D02*
X196173031Y-64440176D01*
X196173031Y-64440176D02*
X196206365Y-64478272D01*
X196206365Y-64478272D02*
X196273031Y-64516367D01*
X196273031Y-64516367D02*
X196406365Y-64516367D01*
X196406365Y-64516367D02*
X196473031Y-64478272D01*
X196473031Y-64478272D02*
X196506365Y-64440176D01*
X196506365Y-64440176D02*
X196539698Y-64363986D01*
X196539698Y-64363986D02*
X196539698Y-64173510D01*
X196539698Y-64173510D02*
X196506365Y-64097319D01*
X196506365Y-64097319D02*
X196473031Y-64059224D01*
X196473031Y-64059224D02*
X196406365Y-64021129D01*
X196406365Y-64021129D02*
X196273031Y-64021129D01*
X196273031Y-64021129D02*
X196206365Y-64059224D01*
X196206365Y-64059224D02*
X196173031Y-64097319D01*
X196173031Y-64097319D02*
X196139698Y-64173510D01*
X243949999Y-89164895D02*
X243716666Y-88783942D01*
X243549999Y-89164895D02*
X243549999Y-88364895D01*
X243549999Y-88364895D02*
X243816666Y-88364895D01*
X243816666Y-88364895D02*
X243883333Y-88402990D01*
X243883333Y-88402990D02*
X243916666Y-88441085D01*
X243916666Y-88441085D02*
X243949999Y-88517276D01*
X243949999Y-88517276D02*
X243949999Y-88631561D01*
X243949999Y-88631561D02*
X243916666Y-88707752D01*
X243916666Y-88707752D02*
X243883333Y-88745847D01*
X243883333Y-88745847D02*
X243816666Y-88783942D01*
X243816666Y-88783942D02*
X243549999Y-88783942D01*
X244616666Y-89164895D02*
X244216666Y-89164895D01*
X244416666Y-89164895D02*
X244416666Y-88364895D01*
X244416666Y-88364895D02*
X244349999Y-88479180D01*
X244349999Y-88479180D02*
X244283333Y-88555371D01*
X244283333Y-88555371D02*
X244216666Y-88593466D01*
X245283333Y-89164895D02*
X244883333Y-89164895D01*
X245083333Y-89164895D02*
X245083333Y-88364895D01*
X245083333Y-88364895D02*
X245016666Y-88479180D01*
X245016666Y-88479180D02*
X244950000Y-88555371D01*
X244950000Y-88555371D02*
X244883333Y-88593466D01*
X222666666Y-56739895D02*
X222666666Y-57387514D01*
X222666666Y-57387514D02*
X222700000Y-57463704D01*
X222700000Y-57463704D02*
X222733333Y-57501800D01*
X222733333Y-57501800D02*
X222800000Y-57539895D01*
X222800000Y-57539895D02*
X222933333Y-57539895D01*
X222933333Y-57539895D02*
X223000000Y-57501800D01*
X223000000Y-57501800D02*
X223033333Y-57463704D01*
X223033333Y-57463704D02*
X223066666Y-57387514D01*
X223066666Y-57387514D02*
X223066666Y-56739895D01*
X223366666Y-56816085D02*
X223399999Y-56777990D01*
X223399999Y-56777990D02*
X223466666Y-56739895D01*
X223466666Y-56739895D02*
X223633333Y-56739895D01*
X223633333Y-56739895D02*
X223699999Y-56777990D01*
X223699999Y-56777990D02*
X223733333Y-56816085D01*
X223733333Y-56816085D02*
X223766666Y-56892276D01*
X223766666Y-56892276D02*
X223766666Y-56968466D01*
X223766666Y-56968466D02*
X223733333Y-57082752D01*
X223733333Y-57082752D02*
X223333333Y-57539895D01*
X223333333Y-57539895D02*
X223766666Y-57539895D01*
X228466666Y-66164894D02*
X228466666Y-66812513D01*
X228466666Y-66812513D02*
X228500000Y-66888703D01*
X228500000Y-66888703D02*
X228533333Y-66926799D01*
X228533333Y-66926799D02*
X228600000Y-66964894D01*
X228600000Y-66964894D02*
X228733333Y-66964894D01*
X228733333Y-66964894D02*
X228800000Y-66926799D01*
X228800000Y-66926799D02*
X228833333Y-66888703D01*
X228833333Y-66888703D02*
X228866666Y-66812513D01*
X228866666Y-66812513D02*
X228866666Y-66164894D01*
X229499999Y-66164894D02*
X229366666Y-66164894D01*
X229366666Y-66164894D02*
X229299999Y-66202989D01*
X229299999Y-66202989D02*
X229266666Y-66241084D01*
X229266666Y-66241084D02*
X229199999Y-66355370D01*
X229199999Y-66355370D02*
X229166666Y-66507751D01*
X229166666Y-66507751D02*
X229166666Y-66812513D01*
X229166666Y-66812513D02*
X229199999Y-66888703D01*
X229199999Y-66888703D02*
X229233333Y-66926799D01*
X229233333Y-66926799D02*
X229299999Y-66964894D01*
X229299999Y-66964894D02*
X229433333Y-66964894D01*
X229433333Y-66964894D02*
X229499999Y-66926799D01*
X229499999Y-66926799D02*
X229533333Y-66888703D01*
X229533333Y-66888703D02*
X229566666Y-66812513D01*
X229566666Y-66812513D02*
X229566666Y-66622037D01*
X229566666Y-66622037D02*
X229533333Y-66545846D01*
X229533333Y-66545846D02*
X229499999Y-66507751D01*
X229499999Y-66507751D02*
X229433333Y-66469656D01*
X229433333Y-66469656D02*
X229299999Y-66469656D01*
X229299999Y-66469656D02*
X229233333Y-66507751D01*
X229233333Y-66507751D02*
X229199999Y-66545846D01*
X229199999Y-66545846D02*
X229166666Y-66622037D01*
X234449999Y-81464895D02*
X234216666Y-81083942D01*
X234049999Y-81464895D02*
X234049999Y-80664895D01*
X234049999Y-80664895D02*
X234316666Y-80664895D01*
X234316666Y-80664895D02*
X234383333Y-80702990D01*
X234383333Y-80702990D02*
X234416666Y-80741085D01*
X234416666Y-80741085D02*
X234449999Y-80817276D01*
X234449999Y-80817276D02*
X234449999Y-80931561D01*
X234449999Y-80931561D02*
X234416666Y-81007752D01*
X234416666Y-81007752D02*
X234383333Y-81045847D01*
X234383333Y-81045847D02*
X234316666Y-81083942D01*
X234316666Y-81083942D02*
X234049999Y-81083942D01*
X235116666Y-81464895D02*
X234716666Y-81464895D01*
X234916666Y-81464895D02*
X234916666Y-80664895D01*
X234916666Y-80664895D02*
X234849999Y-80779180D01*
X234849999Y-80779180D02*
X234783333Y-80855371D01*
X234783333Y-80855371D02*
X234716666Y-80893466D01*
X235383333Y-80741085D02*
X235416666Y-80702990D01*
X235416666Y-80702990D02*
X235483333Y-80664895D01*
X235483333Y-80664895D02*
X235650000Y-80664895D01*
X235650000Y-80664895D02*
X235716666Y-80702990D01*
X235716666Y-80702990D02*
X235750000Y-80741085D01*
X235750000Y-80741085D02*
X235783333Y-80817276D01*
X235783333Y-80817276D02*
X235783333Y-80893466D01*
X235783333Y-80893466D02*
X235750000Y-81007752D01*
X235750000Y-81007752D02*
X235350000Y-81464895D01*
X235350000Y-81464895D02*
X235783333Y-81464895D01*
X222266666Y-79514895D02*
X222266666Y-78714895D01*
X222999999Y-79438704D02*
X222966666Y-79476800D01*
X222966666Y-79476800D02*
X222866666Y-79514895D01*
X222866666Y-79514895D02*
X222799999Y-79514895D01*
X222799999Y-79514895D02*
X222699999Y-79476800D01*
X222699999Y-79476800D02*
X222633333Y-79400609D01*
X222633333Y-79400609D02*
X222599999Y-79324419D01*
X222599999Y-79324419D02*
X222566666Y-79172038D01*
X222566666Y-79172038D02*
X222566666Y-79057752D01*
X222566666Y-79057752D02*
X222599999Y-78905371D01*
X222599999Y-78905371D02*
X222633333Y-78829180D01*
X222633333Y-78829180D02*
X222699999Y-78752990D01*
X222699999Y-78752990D02*
X222799999Y-78714895D01*
X222799999Y-78714895D02*
X222866666Y-78714895D01*
X222866666Y-78714895D02*
X222966666Y-78752990D01*
X222966666Y-78752990D02*
X222999999Y-78791085D01*
X223666666Y-79514895D02*
X223266666Y-79514895D01*
X223466666Y-79514895D02*
X223466666Y-78714895D01*
X223466666Y-78714895D02*
X223399999Y-78829180D01*
X223399999Y-78829180D02*
X223333333Y-78905371D01*
X223333333Y-78905371D02*
X223266666Y-78943466D01*
D11*
X197866095Y-68396295D02*
X197866095Y-69043914D01*
X197866095Y-69043914D02*
X197913714Y-69120104D01*
X197913714Y-69120104D02*
X197961333Y-69158200D01*
X197961333Y-69158200D02*
X198056571Y-69196295D01*
X198056571Y-69196295D02*
X198247047Y-69196295D01*
X198247047Y-69196295D02*
X198342285Y-69158200D01*
X198342285Y-69158200D02*
X198389904Y-69120104D01*
X198389904Y-69120104D02*
X198437523Y-69043914D01*
X198437523Y-69043914D02*
X198437523Y-68396295D01*
X199389904Y-68396295D02*
X198913714Y-68396295D01*
X198913714Y-68396295D02*
X198866095Y-68777247D01*
X198866095Y-68777247D02*
X198913714Y-68739152D01*
X198913714Y-68739152D02*
X199008952Y-68701057D01*
X199008952Y-68701057D02*
X199247047Y-68701057D01*
X199247047Y-68701057D02*
X199342285Y-68739152D01*
X199342285Y-68739152D02*
X199389904Y-68777247D01*
X199389904Y-68777247D02*
X199437523Y-68853438D01*
X199437523Y-68853438D02*
X199437523Y-69043914D01*
X199437523Y-69043914D02*
X199389904Y-69120104D01*
X199389904Y-69120104D02*
X199342285Y-69158200D01*
X199342285Y-69158200D02*
X199247047Y-69196295D01*
X199247047Y-69196295D02*
X199008952Y-69196295D01*
X199008952Y-69196295D02*
X198913714Y-69158200D01*
X198913714Y-69158200D02*
X198866095Y-69120104D01*
D10*
X233483333Y-58614895D02*
X233250000Y-58233942D01*
X233083333Y-58614895D02*
X233083333Y-57814895D01*
X233083333Y-57814895D02*
X233350000Y-57814895D01*
X233350000Y-57814895D02*
X233416667Y-57852990D01*
X233416667Y-57852990D02*
X233450000Y-57891085D01*
X233450000Y-57891085D02*
X233483333Y-57967276D01*
X233483333Y-57967276D02*
X233483333Y-58081561D01*
X233483333Y-58081561D02*
X233450000Y-58157752D01*
X233450000Y-58157752D02*
X233416667Y-58195847D01*
X233416667Y-58195847D02*
X233350000Y-58233942D01*
X233350000Y-58233942D02*
X233083333Y-58233942D01*
X233883333Y-58157752D02*
X233816667Y-58119657D01*
X233816667Y-58119657D02*
X233783333Y-58081561D01*
X233783333Y-58081561D02*
X233750000Y-58005371D01*
X233750000Y-58005371D02*
X233750000Y-57967276D01*
X233750000Y-57967276D02*
X233783333Y-57891085D01*
X233783333Y-57891085D02*
X233816667Y-57852990D01*
X233816667Y-57852990D02*
X233883333Y-57814895D01*
X233883333Y-57814895D02*
X234016667Y-57814895D01*
X234016667Y-57814895D02*
X234083333Y-57852990D01*
X234083333Y-57852990D02*
X234116667Y-57891085D01*
X234116667Y-57891085D02*
X234150000Y-57967276D01*
X234150000Y-57967276D02*
X234150000Y-58005371D01*
X234150000Y-58005371D02*
X234116667Y-58081561D01*
X234116667Y-58081561D02*
X234083333Y-58119657D01*
X234083333Y-58119657D02*
X234016667Y-58157752D01*
X234016667Y-58157752D02*
X233883333Y-58157752D01*
X233883333Y-58157752D02*
X233816667Y-58195847D01*
X233816667Y-58195847D02*
X233783333Y-58233942D01*
X233783333Y-58233942D02*
X233750000Y-58310133D01*
X233750000Y-58310133D02*
X233750000Y-58462514D01*
X233750000Y-58462514D02*
X233783333Y-58538704D01*
X233783333Y-58538704D02*
X233816667Y-58576800D01*
X233816667Y-58576800D02*
X233883333Y-58614895D01*
X233883333Y-58614895D02*
X234016667Y-58614895D01*
X234016667Y-58614895D02*
X234083333Y-58576800D01*
X234083333Y-58576800D02*
X234116667Y-58538704D01*
X234116667Y-58538704D02*
X234150000Y-58462514D01*
X234150000Y-58462514D02*
X234150000Y-58310133D01*
X234150000Y-58310133D02*
X234116667Y-58233942D01*
X234116667Y-58233942D02*
X234083333Y-58195847D01*
X234083333Y-58195847D02*
X234016667Y-58157752D01*
X233649999Y-74864895D02*
X233416666Y-74483942D01*
X233249999Y-74864895D02*
X233249999Y-74064895D01*
X233249999Y-74064895D02*
X233516666Y-74064895D01*
X233516666Y-74064895D02*
X233583333Y-74102990D01*
X233583333Y-74102990D02*
X233616666Y-74141085D01*
X233616666Y-74141085D02*
X233649999Y-74217276D01*
X233649999Y-74217276D02*
X233649999Y-74331561D01*
X233649999Y-74331561D02*
X233616666Y-74407752D01*
X233616666Y-74407752D02*
X233583333Y-74445847D01*
X233583333Y-74445847D02*
X233516666Y-74483942D01*
X233516666Y-74483942D02*
X233249999Y-74483942D01*
X234316666Y-74864895D02*
X233916666Y-74864895D01*
X234116666Y-74864895D02*
X234116666Y-74064895D01*
X234116666Y-74064895D02*
X234049999Y-74179180D01*
X234049999Y-74179180D02*
X233983333Y-74255371D01*
X233983333Y-74255371D02*
X233916666Y-74293466D01*
X234716666Y-74407752D02*
X234650000Y-74369657D01*
X234650000Y-74369657D02*
X234616666Y-74331561D01*
X234616666Y-74331561D02*
X234583333Y-74255371D01*
X234583333Y-74255371D02*
X234583333Y-74217276D01*
X234583333Y-74217276D02*
X234616666Y-74141085D01*
X234616666Y-74141085D02*
X234650000Y-74102990D01*
X234650000Y-74102990D02*
X234716666Y-74064895D01*
X234716666Y-74064895D02*
X234850000Y-74064895D01*
X234850000Y-74064895D02*
X234916666Y-74102990D01*
X234916666Y-74102990D02*
X234950000Y-74141085D01*
X234950000Y-74141085D02*
X234983333Y-74217276D01*
X234983333Y-74217276D02*
X234983333Y-74255371D01*
X234983333Y-74255371D02*
X234950000Y-74331561D01*
X234950000Y-74331561D02*
X234916666Y-74369657D01*
X234916666Y-74369657D02*
X234850000Y-74407752D01*
X234850000Y-74407752D02*
X234716666Y-74407752D01*
X234716666Y-74407752D02*
X234650000Y-74445847D01*
X234650000Y-74445847D02*
X234616666Y-74483942D01*
X234616666Y-74483942D02*
X234583333Y-74560133D01*
X234583333Y-74560133D02*
X234583333Y-74712514D01*
X234583333Y-74712514D02*
X234616666Y-74788704D01*
X234616666Y-74788704D02*
X234650000Y-74826800D01*
X234650000Y-74826800D02*
X234716666Y-74864895D01*
X234716666Y-74864895D02*
X234850000Y-74864895D01*
X234850000Y-74864895D02*
X234916666Y-74826800D01*
X234916666Y-74826800D02*
X234950000Y-74788704D01*
X234950000Y-74788704D02*
X234983333Y-74712514D01*
X234983333Y-74712514D02*
X234983333Y-74560133D01*
X234983333Y-74560133D02*
X234950000Y-74483942D01*
X234950000Y-74483942D02*
X234916666Y-74445847D01*
X234916666Y-74445847D02*
X234850000Y-74407752D01*
X190891333Y-62340895D02*
X190557999Y-62340895D01*
X190557999Y-62340895D02*
X190557999Y-61540895D01*
X191458000Y-61540895D02*
X191124666Y-61540895D01*
X191124666Y-61540895D02*
X191091333Y-61921847D01*
X191091333Y-61921847D02*
X191124666Y-61883752D01*
X191124666Y-61883752D02*
X191191333Y-61845657D01*
X191191333Y-61845657D02*
X191358000Y-61845657D01*
X191358000Y-61845657D02*
X191424666Y-61883752D01*
X191424666Y-61883752D02*
X191458000Y-61921847D01*
X191458000Y-61921847D02*
X191491333Y-61998038D01*
X191491333Y-61998038D02*
X191491333Y-62188514D01*
X191491333Y-62188514D02*
X191458000Y-62264704D01*
X191458000Y-62264704D02*
X191424666Y-62302800D01*
X191424666Y-62302800D02*
X191358000Y-62340895D01*
X191358000Y-62340895D02*
X191191333Y-62340895D01*
X191191333Y-62340895D02*
X191124666Y-62302800D01*
X191124666Y-62302800D02*
X191091333Y-62264704D01*
X194875999Y-62010704D02*
X194842666Y-62048800D01*
X194842666Y-62048800D02*
X194742666Y-62086895D01*
X194742666Y-62086895D02*
X194675999Y-62086895D01*
X194675999Y-62086895D02*
X194575999Y-62048800D01*
X194575999Y-62048800D02*
X194509333Y-61972609D01*
X194509333Y-61972609D02*
X194475999Y-61896419D01*
X194475999Y-61896419D02*
X194442666Y-61744038D01*
X194442666Y-61744038D02*
X194442666Y-61629752D01*
X194442666Y-61629752D02*
X194475999Y-61477371D01*
X194475999Y-61477371D02*
X194509333Y-61401180D01*
X194509333Y-61401180D02*
X194575999Y-61324990D01*
X194575999Y-61324990D02*
X194675999Y-61286895D01*
X194675999Y-61286895D02*
X194742666Y-61286895D01*
X194742666Y-61286895D02*
X194842666Y-61324990D01*
X194842666Y-61324990D02*
X194875999Y-61363085D01*
X195142666Y-61363085D02*
X195175999Y-61324990D01*
X195175999Y-61324990D02*
X195242666Y-61286895D01*
X195242666Y-61286895D02*
X195409333Y-61286895D01*
X195409333Y-61286895D02*
X195475999Y-61324990D01*
X195475999Y-61324990D02*
X195509333Y-61363085D01*
X195509333Y-61363085D02*
X195542666Y-61439276D01*
X195542666Y-61439276D02*
X195542666Y-61515466D01*
X195542666Y-61515466D02*
X195509333Y-61629752D01*
X195509333Y-61629752D02*
X195109333Y-62086895D01*
X195109333Y-62086895D02*
X195542666Y-62086895D01*
X196142666Y-61286895D02*
X196009333Y-61286895D01*
X196009333Y-61286895D02*
X195942666Y-61324990D01*
X195942666Y-61324990D02*
X195909333Y-61363085D01*
X195909333Y-61363085D02*
X195842666Y-61477371D01*
X195842666Y-61477371D02*
X195809333Y-61629752D01*
X195809333Y-61629752D02*
X195809333Y-61934514D01*
X195809333Y-61934514D02*
X195842666Y-62010704D01*
X195842666Y-62010704D02*
X195876000Y-62048800D01*
X195876000Y-62048800D02*
X195942666Y-62086895D01*
X195942666Y-62086895D02*
X196076000Y-62086895D01*
X196076000Y-62086895D02*
X196142666Y-62048800D01*
X196142666Y-62048800D02*
X196176000Y-62010704D01*
X196176000Y-62010704D02*
X196209333Y-61934514D01*
X196209333Y-61934514D02*
X196209333Y-61744038D01*
X196209333Y-61744038D02*
X196176000Y-61667847D01*
X196176000Y-61667847D02*
X196142666Y-61629752D01*
X196142666Y-61629752D02*
X196076000Y-61591657D01*
X196076000Y-61591657D02*
X195942666Y-61591657D01*
X195942666Y-61591657D02*
X195876000Y-61629752D01*
X195876000Y-61629752D02*
X195842666Y-61667847D01*
X195842666Y-61667847D02*
X195809333Y-61744038D01*
X236149999Y-63614895D02*
X235916666Y-63233942D01*
X235749999Y-63614895D02*
X235749999Y-62814895D01*
X235749999Y-62814895D02*
X236016666Y-62814895D01*
X236016666Y-62814895D02*
X236083333Y-62852990D01*
X236083333Y-62852990D02*
X236116666Y-62891085D01*
X236116666Y-62891085D02*
X236149999Y-62967276D01*
X236149999Y-62967276D02*
X236149999Y-63081561D01*
X236149999Y-63081561D02*
X236116666Y-63157752D01*
X236116666Y-63157752D02*
X236083333Y-63195847D01*
X236083333Y-63195847D02*
X236016666Y-63233942D01*
X236016666Y-63233942D02*
X235749999Y-63233942D01*
X236416666Y-62891085D02*
X236449999Y-62852990D01*
X236449999Y-62852990D02*
X236516666Y-62814895D01*
X236516666Y-62814895D02*
X236683333Y-62814895D01*
X236683333Y-62814895D02*
X236749999Y-62852990D01*
X236749999Y-62852990D02*
X236783333Y-62891085D01*
X236783333Y-62891085D02*
X236816666Y-62967276D01*
X236816666Y-62967276D02*
X236816666Y-63043466D01*
X236816666Y-63043466D02*
X236783333Y-63157752D01*
X236783333Y-63157752D02*
X236383333Y-63614895D01*
X236383333Y-63614895D02*
X236816666Y-63614895D01*
X237250000Y-62814895D02*
X237316666Y-62814895D01*
X237316666Y-62814895D02*
X237383333Y-62852990D01*
X237383333Y-62852990D02*
X237416666Y-62891085D01*
X237416666Y-62891085D02*
X237450000Y-62967276D01*
X237450000Y-62967276D02*
X237483333Y-63119657D01*
X237483333Y-63119657D02*
X237483333Y-63310133D01*
X237483333Y-63310133D02*
X237450000Y-63462514D01*
X237450000Y-63462514D02*
X237416666Y-63538704D01*
X237416666Y-63538704D02*
X237383333Y-63576800D01*
X237383333Y-63576800D02*
X237316666Y-63614895D01*
X237316666Y-63614895D02*
X237250000Y-63614895D01*
X237250000Y-63614895D02*
X237183333Y-63576800D01*
X237183333Y-63576800D02*
X237150000Y-63538704D01*
X237150000Y-63538704D02*
X237116666Y-63462514D01*
X237116666Y-63462514D02*
X237083333Y-63310133D01*
X237083333Y-63310133D02*
X237083333Y-63119657D01*
X237083333Y-63119657D02*
X237116666Y-62967276D01*
X237116666Y-62967276D02*
X237150000Y-62891085D01*
X237150000Y-62891085D02*
X237183333Y-62852990D01*
X237183333Y-62852990D02*
X237250000Y-62814895D01*
D11*
X222602296Y-54833333D02*
X223173724Y-54833333D01*
X223173724Y-54833333D02*
X223288010Y-54880952D01*
X223288010Y-54880952D02*
X223364201Y-54976190D01*
X223364201Y-54976190D02*
X223402296Y-55119047D01*
X223402296Y-55119047D02*
X223402296Y-55214285D01*
X222602296Y-53928571D02*
X222602296Y-54119047D01*
X222602296Y-54119047D02*
X222640391Y-54214285D01*
X222640391Y-54214285D02*
X222678486Y-54261904D01*
X222678486Y-54261904D02*
X222792772Y-54357142D01*
X222792772Y-54357142D02*
X222945153Y-54404761D01*
X222945153Y-54404761D02*
X223249915Y-54404761D01*
X223249915Y-54404761D02*
X223326105Y-54357142D01*
X223326105Y-54357142D02*
X223364201Y-54309523D01*
X223364201Y-54309523D02*
X223402296Y-54214285D01*
X223402296Y-54214285D02*
X223402296Y-54023809D01*
X223402296Y-54023809D02*
X223364201Y-53928571D01*
X223364201Y-53928571D02*
X223326105Y-53880952D01*
X223326105Y-53880952D02*
X223249915Y-53833333D01*
X223249915Y-53833333D02*
X223059439Y-53833333D01*
X223059439Y-53833333D02*
X222983248Y-53880952D01*
X222983248Y-53880952D02*
X222945153Y-53928571D01*
X222945153Y-53928571D02*
X222907058Y-54023809D01*
X222907058Y-54023809D02*
X222907058Y-54214285D01*
X222907058Y-54214285D02*
X222945153Y-54309523D01*
X222945153Y-54309523D02*
X222983248Y-54357142D01*
X222983248Y-54357142D02*
X223059439Y-54404761D01*
D10*
X201471999Y-73934203D02*
X201438666Y-73972299D01*
X201438666Y-73972299D02*
X201338666Y-74010394D01*
X201338666Y-74010394D02*
X201271999Y-74010394D01*
X201271999Y-74010394D02*
X201171999Y-73972299D01*
X201171999Y-73972299D02*
X201105333Y-73896108D01*
X201105333Y-73896108D02*
X201071999Y-73819918D01*
X201071999Y-73819918D02*
X201038666Y-73667537D01*
X201038666Y-73667537D02*
X201038666Y-73553251D01*
X201038666Y-73553251D02*
X201071999Y-73400870D01*
X201071999Y-73400870D02*
X201105333Y-73324679D01*
X201105333Y-73324679D02*
X201171999Y-73248489D01*
X201171999Y-73248489D02*
X201271999Y-73210394D01*
X201271999Y-73210394D02*
X201338666Y-73210394D01*
X201338666Y-73210394D02*
X201438666Y-73248489D01*
X201438666Y-73248489D02*
X201471999Y-73286584D01*
X201738666Y-73286584D02*
X201771999Y-73248489D01*
X201771999Y-73248489D02*
X201838666Y-73210394D01*
X201838666Y-73210394D02*
X202005333Y-73210394D01*
X202005333Y-73210394D02*
X202071999Y-73248489D01*
X202071999Y-73248489D02*
X202105333Y-73286584D01*
X202105333Y-73286584D02*
X202138666Y-73362775D01*
X202138666Y-73362775D02*
X202138666Y-73438965D01*
X202138666Y-73438965D02*
X202105333Y-73553251D01*
X202105333Y-73553251D02*
X201705333Y-74010394D01*
X201705333Y-74010394D02*
X202138666Y-74010394D01*
X202738666Y-73477060D02*
X202738666Y-74010394D01*
X202572000Y-73172299D02*
X202405333Y-73743727D01*
X202405333Y-73743727D02*
X202838666Y-73743727D01*
X196569999Y-67344704D02*
X196536666Y-67382800D01*
X196536666Y-67382800D02*
X196436666Y-67420895D01*
X196436666Y-67420895D02*
X196369999Y-67420895D01*
X196369999Y-67420895D02*
X196269999Y-67382800D01*
X196269999Y-67382800D02*
X196203333Y-67306609D01*
X196203333Y-67306609D02*
X196169999Y-67230419D01*
X196169999Y-67230419D02*
X196136666Y-67078038D01*
X196136666Y-67078038D02*
X196136666Y-66963752D01*
X196136666Y-66963752D02*
X196169999Y-66811371D01*
X196169999Y-66811371D02*
X196203333Y-66735180D01*
X196203333Y-66735180D02*
X196269999Y-66658990D01*
X196269999Y-66658990D02*
X196369999Y-66620895D01*
X196369999Y-66620895D02*
X196436666Y-66620895D01*
X196436666Y-66620895D02*
X196536666Y-66658990D01*
X196536666Y-66658990D02*
X196569999Y-66697085D01*
X196803333Y-66620895D02*
X197236666Y-66620895D01*
X197236666Y-66620895D02*
X197003333Y-66925657D01*
X197003333Y-66925657D02*
X197103333Y-66925657D01*
X197103333Y-66925657D02*
X197169999Y-66963752D01*
X197169999Y-66963752D02*
X197203333Y-67001847D01*
X197203333Y-67001847D02*
X197236666Y-67078038D01*
X197236666Y-67078038D02*
X197236666Y-67268514D01*
X197236666Y-67268514D02*
X197203333Y-67344704D01*
X197203333Y-67344704D02*
X197169999Y-67382800D01*
X197169999Y-67382800D02*
X197103333Y-67420895D01*
X197103333Y-67420895D02*
X196903333Y-67420895D01*
X196903333Y-67420895D02*
X196836666Y-67382800D01*
X196836666Y-67382800D02*
X196803333Y-67344704D01*
X197903333Y-67420895D02*
X197503333Y-67420895D01*
X197703333Y-67420895D02*
X197703333Y-66620895D01*
X197703333Y-66620895D02*
X197636666Y-66735180D01*
X197636666Y-66735180D02*
X197570000Y-66811371D01*
X197570000Y-66811371D02*
X197503333Y-66849466D01*
X233869832Y-78790895D02*
X233636499Y-78409942D01*
X233469832Y-78790895D02*
X233469832Y-77990895D01*
X233469832Y-77990895D02*
X233736499Y-77990895D01*
X233736499Y-77990895D02*
X233803166Y-78028990D01*
X233803166Y-78028990D02*
X233836499Y-78067085D01*
X233836499Y-78067085D02*
X233869832Y-78143276D01*
X233869832Y-78143276D02*
X233869832Y-78257561D01*
X233869832Y-78257561D02*
X233836499Y-78333752D01*
X233836499Y-78333752D02*
X233803166Y-78371847D01*
X233803166Y-78371847D02*
X233736499Y-78409942D01*
X233736499Y-78409942D02*
X233469832Y-78409942D01*
X234103166Y-77990895D02*
X234536499Y-77990895D01*
X234536499Y-77990895D02*
X234303166Y-78295657D01*
X234303166Y-78295657D02*
X234403166Y-78295657D01*
X234403166Y-78295657D02*
X234469832Y-78333752D01*
X234469832Y-78333752D02*
X234503166Y-78371847D01*
X234503166Y-78371847D02*
X234536499Y-78448038D01*
X234536499Y-78448038D02*
X234536499Y-78638514D01*
X234536499Y-78638514D02*
X234503166Y-78714704D01*
X234503166Y-78714704D02*
X234469832Y-78752800D01*
X234469832Y-78752800D02*
X234403166Y-78790895D01*
X234403166Y-78790895D02*
X234203166Y-78790895D01*
X234203166Y-78790895D02*
X234136499Y-78752800D01*
X234136499Y-78752800D02*
X234103166Y-78714704D01*
X208668895Y-73649669D02*
X208668895Y-73983002D01*
X208668895Y-73983002D02*
X207868895Y-73983002D01*
X207868895Y-73483002D02*
X207868895Y-73049668D01*
X207868895Y-73049668D02*
X208173657Y-73283002D01*
X208173657Y-73283002D02*
X208173657Y-73183002D01*
X208173657Y-73183002D02*
X208211752Y-73116335D01*
X208211752Y-73116335D02*
X208249847Y-73083002D01*
X208249847Y-73083002D02*
X208326038Y-73049668D01*
X208326038Y-73049668D02*
X208516514Y-73049668D01*
X208516514Y-73049668D02*
X208592704Y-73083002D01*
X208592704Y-73083002D02*
X208630800Y-73116335D01*
X208630800Y-73116335D02*
X208668895Y-73183002D01*
X208668895Y-73183002D02*
X208668895Y-73383002D01*
X208668895Y-73383002D02*
X208630800Y-73449668D01*
X208630800Y-73449668D02*
X208592704Y-73483002D01*
X226062498Y-77988704D02*
X226029165Y-78026800D01*
X226029165Y-78026800D02*
X225929165Y-78064895D01*
X225929165Y-78064895D02*
X225862498Y-78064895D01*
X225862498Y-78064895D02*
X225762498Y-78026800D01*
X225762498Y-78026800D02*
X225695832Y-77950609D01*
X225695832Y-77950609D02*
X225662498Y-77874419D01*
X225662498Y-77874419D02*
X225629165Y-77722038D01*
X225629165Y-77722038D02*
X225629165Y-77607752D01*
X225629165Y-77607752D02*
X225662498Y-77455371D01*
X225662498Y-77455371D02*
X225695832Y-77379180D01*
X225695832Y-77379180D02*
X225762498Y-77302990D01*
X225762498Y-77302990D02*
X225862498Y-77264895D01*
X225862498Y-77264895D02*
X225929165Y-77264895D01*
X225929165Y-77264895D02*
X226029165Y-77302990D01*
X226029165Y-77302990D02*
X226062498Y-77341085D01*
X226729165Y-78064895D02*
X226329165Y-78064895D01*
X226529165Y-78064895D02*
X226529165Y-77264895D01*
X226529165Y-77264895D02*
X226462498Y-77379180D01*
X226462498Y-77379180D02*
X226395832Y-77455371D01*
X226395832Y-77455371D02*
X226329165Y-77493466D01*
X227395832Y-78064895D02*
X226995832Y-78064895D01*
X227195832Y-78064895D02*
X227195832Y-77264895D01*
X227195832Y-77264895D02*
X227129165Y-77379180D01*
X227129165Y-77379180D02*
X227062499Y-77455371D01*
X227062499Y-77455371D02*
X226995832Y-77493466D01*
X199475999Y-73934203D02*
X199442666Y-73972299D01*
X199442666Y-73972299D02*
X199342666Y-74010394D01*
X199342666Y-74010394D02*
X199275999Y-74010394D01*
X199275999Y-74010394D02*
X199175999Y-73972299D01*
X199175999Y-73972299D02*
X199109333Y-73896108D01*
X199109333Y-73896108D02*
X199075999Y-73819918D01*
X199075999Y-73819918D02*
X199042666Y-73667537D01*
X199042666Y-73667537D02*
X199042666Y-73553251D01*
X199042666Y-73553251D02*
X199075999Y-73400870D01*
X199075999Y-73400870D02*
X199109333Y-73324679D01*
X199109333Y-73324679D02*
X199175999Y-73248489D01*
X199175999Y-73248489D02*
X199275999Y-73210394D01*
X199275999Y-73210394D02*
X199342666Y-73210394D01*
X199342666Y-73210394D02*
X199442666Y-73248489D01*
X199442666Y-73248489D02*
X199475999Y-73286584D01*
X199742666Y-73286584D02*
X199775999Y-73248489D01*
X199775999Y-73248489D02*
X199842666Y-73210394D01*
X199842666Y-73210394D02*
X200009333Y-73210394D01*
X200009333Y-73210394D02*
X200075999Y-73248489D01*
X200075999Y-73248489D02*
X200109333Y-73286584D01*
X200109333Y-73286584D02*
X200142666Y-73362775D01*
X200142666Y-73362775D02*
X200142666Y-73438965D01*
X200142666Y-73438965D02*
X200109333Y-73553251D01*
X200109333Y-73553251D02*
X199709333Y-74010394D01*
X199709333Y-74010394D02*
X200142666Y-74010394D01*
X200776000Y-73210394D02*
X200442666Y-73210394D01*
X200442666Y-73210394D02*
X200409333Y-73591346D01*
X200409333Y-73591346D02*
X200442666Y-73553251D01*
X200442666Y-73553251D02*
X200509333Y-73515156D01*
X200509333Y-73515156D02*
X200676000Y-73515156D01*
X200676000Y-73515156D02*
X200742666Y-73553251D01*
X200742666Y-73553251D02*
X200776000Y-73591346D01*
X200776000Y-73591346D02*
X200809333Y-73667537D01*
X200809333Y-73667537D02*
X200809333Y-73858013D01*
X200809333Y-73858013D02*
X200776000Y-73934203D01*
X200776000Y-73934203D02*
X200742666Y-73972299D01*
X200742666Y-73972299D02*
X200676000Y-74010394D01*
X200676000Y-74010394D02*
X200509333Y-74010394D01*
X200509333Y-74010394D02*
X200442666Y-73972299D01*
X200442666Y-73972299D02*
X200409333Y-73934203D01*
X204273999Y-73694704D02*
X204240666Y-73732800D01*
X204240666Y-73732800D02*
X204140666Y-73770895D01*
X204140666Y-73770895D02*
X204073999Y-73770895D01*
X204073999Y-73770895D02*
X203973999Y-73732800D01*
X203973999Y-73732800D02*
X203907333Y-73656609D01*
X203907333Y-73656609D02*
X203873999Y-73580419D01*
X203873999Y-73580419D02*
X203840666Y-73428038D01*
X203840666Y-73428038D02*
X203840666Y-73313752D01*
X203840666Y-73313752D02*
X203873999Y-73161371D01*
X203873999Y-73161371D02*
X203907333Y-73085180D01*
X203907333Y-73085180D02*
X203973999Y-73008990D01*
X203973999Y-73008990D02*
X204073999Y-72970895D01*
X204073999Y-72970895D02*
X204140666Y-72970895D01*
X204140666Y-72970895D02*
X204240666Y-73008990D01*
X204240666Y-73008990D02*
X204273999Y-73047085D01*
X204540666Y-73047085D02*
X204573999Y-73008990D01*
X204573999Y-73008990D02*
X204640666Y-72970895D01*
X204640666Y-72970895D02*
X204807333Y-72970895D01*
X204807333Y-72970895D02*
X204873999Y-73008990D01*
X204873999Y-73008990D02*
X204907333Y-73047085D01*
X204907333Y-73047085D02*
X204940666Y-73123276D01*
X204940666Y-73123276D02*
X204940666Y-73199466D01*
X204940666Y-73199466D02*
X204907333Y-73313752D01*
X204907333Y-73313752D02*
X204507333Y-73770895D01*
X204507333Y-73770895D02*
X204940666Y-73770895D01*
X205174000Y-72970895D02*
X205607333Y-72970895D01*
X205607333Y-72970895D02*
X205374000Y-73275657D01*
X205374000Y-73275657D02*
X205474000Y-73275657D01*
X205474000Y-73275657D02*
X205540666Y-73313752D01*
X205540666Y-73313752D02*
X205574000Y-73351847D01*
X205574000Y-73351847D02*
X205607333Y-73428038D01*
X205607333Y-73428038D02*
X205607333Y-73618514D01*
X205607333Y-73618514D02*
X205574000Y-73694704D01*
X205574000Y-73694704D02*
X205540666Y-73732800D01*
X205540666Y-73732800D02*
X205474000Y-73770895D01*
X205474000Y-73770895D02*
X205274000Y-73770895D01*
X205274000Y-73770895D02*
X205207333Y-73732800D01*
X205207333Y-73732800D02*
X205174000Y-73694704D01*
X210168895Y-73649669D02*
X210168895Y-73983002D01*
X210168895Y-73983002D02*
X209368895Y-73983002D01*
X209445085Y-73449668D02*
X209406990Y-73416335D01*
X209406990Y-73416335D02*
X209368895Y-73349668D01*
X209368895Y-73349668D02*
X209368895Y-73183002D01*
X209368895Y-73183002D02*
X209406990Y-73116335D01*
X209406990Y-73116335D02*
X209445085Y-73083002D01*
X209445085Y-73083002D02*
X209521276Y-73049668D01*
X209521276Y-73049668D02*
X209597466Y-73049668D01*
X209597466Y-73049668D02*
X209711752Y-73083002D01*
X209711752Y-73083002D02*
X210168895Y-73483002D01*
X210168895Y-73483002D02*
X210168895Y-73049668D01*
X208793999Y-60566704D02*
X208760666Y-60604800D01*
X208760666Y-60604800D02*
X208660666Y-60642895D01*
X208660666Y-60642895D02*
X208593999Y-60642895D01*
X208593999Y-60642895D02*
X208493999Y-60604800D01*
X208493999Y-60604800D02*
X208427333Y-60528609D01*
X208427333Y-60528609D02*
X208393999Y-60452419D01*
X208393999Y-60452419D02*
X208360666Y-60300038D01*
X208360666Y-60300038D02*
X208360666Y-60185752D01*
X208360666Y-60185752D02*
X208393999Y-60033371D01*
X208393999Y-60033371D02*
X208427333Y-59957180D01*
X208427333Y-59957180D02*
X208493999Y-59880990D01*
X208493999Y-59880990D02*
X208593999Y-59842895D01*
X208593999Y-59842895D02*
X208660666Y-59842895D01*
X208660666Y-59842895D02*
X208760666Y-59880990D01*
X208760666Y-59880990D02*
X208793999Y-59919085D01*
X209060666Y-59919085D02*
X209093999Y-59880990D01*
X209093999Y-59880990D02*
X209160666Y-59842895D01*
X209160666Y-59842895D02*
X209327333Y-59842895D01*
X209327333Y-59842895D02*
X209393999Y-59880990D01*
X209393999Y-59880990D02*
X209427333Y-59919085D01*
X209427333Y-59919085D02*
X209460666Y-59995276D01*
X209460666Y-59995276D02*
X209460666Y-60071466D01*
X209460666Y-60071466D02*
X209427333Y-60185752D01*
X209427333Y-60185752D02*
X209027333Y-60642895D01*
X209027333Y-60642895D02*
X209460666Y-60642895D01*
X209894000Y-59842895D02*
X209960666Y-59842895D01*
X209960666Y-59842895D02*
X210027333Y-59880990D01*
X210027333Y-59880990D02*
X210060666Y-59919085D01*
X210060666Y-59919085D02*
X210094000Y-59995276D01*
X210094000Y-59995276D02*
X210127333Y-60147657D01*
X210127333Y-60147657D02*
X210127333Y-60338133D01*
X210127333Y-60338133D02*
X210094000Y-60490514D01*
X210094000Y-60490514D02*
X210060666Y-60566704D01*
X210060666Y-60566704D02*
X210027333Y-60604800D01*
X210027333Y-60604800D02*
X209960666Y-60642895D01*
X209960666Y-60642895D02*
X209894000Y-60642895D01*
X209894000Y-60642895D02*
X209827333Y-60604800D01*
X209827333Y-60604800D02*
X209794000Y-60566704D01*
X209794000Y-60566704D02*
X209760666Y-60490514D01*
X209760666Y-60490514D02*
X209727333Y-60338133D01*
X209727333Y-60338133D02*
X209727333Y-60147657D01*
X209727333Y-60147657D02*
X209760666Y-59995276D01*
X209760666Y-59995276D02*
X209794000Y-59919085D01*
X209794000Y-59919085D02*
X209827333Y-59880990D01*
X209827333Y-59880990D02*
X209894000Y-59842895D01*
X231483333Y-81489895D02*
X231250000Y-81108942D01*
X231083333Y-81489895D02*
X231083333Y-80689895D01*
X231083333Y-80689895D02*
X231350000Y-80689895D01*
X231350000Y-80689895D02*
X231416667Y-80727990D01*
X231416667Y-80727990D02*
X231450000Y-80766085D01*
X231450000Y-80766085D02*
X231483333Y-80842276D01*
X231483333Y-80842276D02*
X231483333Y-80956561D01*
X231483333Y-80956561D02*
X231450000Y-81032752D01*
X231450000Y-81032752D02*
X231416667Y-81070847D01*
X231416667Y-81070847D02*
X231350000Y-81108942D01*
X231350000Y-81108942D02*
X231083333Y-81108942D01*
X232150000Y-81489895D02*
X231750000Y-81489895D01*
X231950000Y-81489895D02*
X231950000Y-80689895D01*
X231950000Y-80689895D02*
X231883333Y-80804180D01*
X231883333Y-80804180D02*
X231816667Y-80880371D01*
X231816667Y-80880371D02*
X231750000Y-80918466D01*
X193233333Y-59779895D02*
X192899999Y-59779895D01*
X192899999Y-59779895D02*
X192899999Y-58979895D01*
X193766666Y-59246561D02*
X193766666Y-59779895D01*
X193600000Y-58941800D02*
X193433333Y-59513228D01*
X193433333Y-59513228D02*
X193866666Y-59513228D01*
X233483333Y-60114895D02*
X233250000Y-59733942D01*
X233083333Y-60114895D02*
X233083333Y-59314895D01*
X233083333Y-59314895D02*
X233350000Y-59314895D01*
X233350000Y-59314895D02*
X233416667Y-59352990D01*
X233416667Y-59352990D02*
X233450000Y-59391085D01*
X233450000Y-59391085D02*
X233483333Y-59467276D01*
X233483333Y-59467276D02*
X233483333Y-59581561D01*
X233483333Y-59581561D02*
X233450000Y-59657752D01*
X233450000Y-59657752D02*
X233416667Y-59695847D01*
X233416667Y-59695847D02*
X233350000Y-59733942D01*
X233350000Y-59733942D02*
X233083333Y-59733942D01*
X233716667Y-59314895D02*
X234183333Y-59314895D01*
X234183333Y-59314895D02*
X233883333Y-60114895D01*
X221249999Y-62288704D02*
X221216666Y-62326800D01*
X221216666Y-62326800D02*
X221116666Y-62364895D01*
X221116666Y-62364895D02*
X221049999Y-62364895D01*
X221049999Y-62364895D02*
X220949999Y-62326800D01*
X220949999Y-62326800D02*
X220883333Y-62250609D01*
X220883333Y-62250609D02*
X220849999Y-62174419D01*
X220849999Y-62174419D02*
X220816666Y-62022038D01*
X220816666Y-62022038D02*
X220816666Y-61907752D01*
X220816666Y-61907752D02*
X220849999Y-61755371D01*
X220849999Y-61755371D02*
X220883333Y-61679180D01*
X220883333Y-61679180D02*
X220949999Y-61602990D01*
X220949999Y-61602990D02*
X221049999Y-61564895D01*
X221049999Y-61564895D02*
X221116666Y-61564895D01*
X221116666Y-61564895D02*
X221216666Y-61602990D01*
X221216666Y-61602990D02*
X221249999Y-61641085D01*
X221916666Y-62364895D02*
X221516666Y-62364895D01*
X221716666Y-62364895D02*
X221716666Y-61564895D01*
X221716666Y-61564895D02*
X221649999Y-61679180D01*
X221649999Y-61679180D02*
X221583333Y-61755371D01*
X221583333Y-61755371D02*
X221516666Y-61793466D01*
X222250000Y-62364895D02*
X222383333Y-62364895D01*
X222383333Y-62364895D02*
X222450000Y-62326800D01*
X222450000Y-62326800D02*
X222483333Y-62288704D01*
X222483333Y-62288704D02*
X222550000Y-62174419D01*
X222550000Y-62174419D02*
X222583333Y-62022038D01*
X222583333Y-62022038D02*
X222583333Y-61717276D01*
X222583333Y-61717276D02*
X222550000Y-61641085D01*
X222550000Y-61641085D02*
X222516666Y-61602990D01*
X222516666Y-61602990D02*
X222450000Y-61564895D01*
X222450000Y-61564895D02*
X222316666Y-61564895D01*
X222316666Y-61564895D02*
X222250000Y-61602990D01*
X222250000Y-61602990D02*
X222216666Y-61641085D01*
X222216666Y-61641085D02*
X222183333Y-61717276D01*
X222183333Y-61717276D02*
X222183333Y-61907752D01*
X222183333Y-61907752D02*
X222216666Y-61983942D01*
X222216666Y-61983942D02*
X222250000Y-62022038D01*
X222250000Y-62022038D02*
X222316666Y-62060133D01*
X222316666Y-62060133D02*
X222450000Y-62060133D01*
X222450000Y-62060133D02*
X222516666Y-62022038D01*
X222516666Y-62022038D02*
X222550000Y-61983942D01*
X222550000Y-61983942D02*
X222583333Y-61907752D01*
X202849999Y-72888704D02*
X202816666Y-72926800D01*
X202816666Y-72926800D02*
X202716666Y-72964895D01*
X202716666Y-72964895D02*
X202649999Y-72964895D01*
X202649999Y-72964895D02*
X202549999Y-72926800D01*
X202549999Y-72926800D02*
X202483333Y-72850609D01*
X202483333Y-72850609D02*
X202449999Y-72774419D01*
X202449999Y-72774419D02*
X202416666Y-72622038D01*
X202416666Y-72622038D02*
X202416666Y-72507752D01*
X202416666Y-72507752D02*
X202449999Y-72355371D01*
X202449999Y-72355371D02*
X202483333Y-72279180D01*
X202483333Y-72279180D02*
X202549999Y-72202990D01*
X202549999Y-72202990D02*
X202649999Y-72164895D01*
X202649999Y-72164895D02*
X202716666Y-72164895D01*
X202716666Y-72164895D02*
X202816666Y-72202990D01*
X202816666Y-72202990D02*
X202849999Y-72241085D01*
X203116666Y-72241085D02*
X203149999Y-72202990D01*
X203149999Y-72202990D02*
X203216666Y-72164895D01*
X203216666Y-72164895D02*
X203383333Y-72164895D01*
X203383333Y-72164895D02*
X203449999Y-72202990D01*
X203449999Y-72202990D02*
X203483333Y-72241085D01*
X203483333Y-72241085D02*
X203516666Y-72317276D01*
X203516666Y-72317276D02*
X203516666Y-72393466D01*
X203516666Y-72393466D02*
X203483333Y-72507752D01*
X203483333Y-72507752D02*
X203083333Y-72964895D01*
X203083333Y-72964895D02*
X203516666Y-72964895D01*
X203850000Y-72964895D02*
X203983333Y-72964895D01*
X203983333Y-72964895D02*
X204050000Y-72926800D01*
X204050000Y-72926800D02*
X204083333Y-72888704D01*
X204083333Y-72888704D02*
X204150000Y-72774419D01*
X204150000Y-72774419D02*
X204183333Y-72622038D01*
X204183333Y-72622038D02*
X204183333Y-72317276D01*
X204183333Y-72317276D02*
X204150000Y-72241085D01*
X204150000Y-72241085D02*
X204116666Y-72202990D01*
X204116666Y-72202990D02*
X204050000Y-72164895D01*
X204050000Y-72164895D02*
X203916666Y-72164895D01*
X203916666Y-72164895D02*
X203850000Y-72202990D01*
X203850000Y-72202990D02*
X203816666Y-72241085D01*
X203816666Y-72241085D02*
X203783333Y-72317276D01*
X203783333Y-72317276D02*
X203783333Y-72507752D01*
X203783333Y-72507752D02*
X203816666Y-72583942D01*
X203816666Y-72583942D02*
X203850000Y-72622038D01*
X203850000Y-72622038D02*
X203916666Y-72660133D01*
X203916666Y-72660133D02*
X204050000Y-72660133D01*
X204050000Y-72660133D02*
X204116666Y-72622038D01*
X204116666Y-72622038D02*
X204150000Y-72583942D01*
X204150000Y-72583942D02*
X204183333Y-72507752D01*
X205379499Y-58276895D02*
X205146166Y-57895942D01*
X204979499Y-58276895D02*
X204979499Y-57476895D01*
X204979499Y-57476895D02*
X205246166Y-57476895D01*
X205246166Y-57476895D02*
X205312833Y-57514990D01*
X205312833Y-57514990D02*
X205346166Y-57553085D01*
X205346166Y-57553085D02*
X205379499Y-57629276D01*
X205379499Y-57629276D02*
X205379499Y-57743561D01*
X205379499Y-57743561D02*
X205346166Y-57819752D01*
X205346166Y-57819752D02*
X205312833Y-57857847D01*
X205312833Y-57857847D02*
X205246166Y-57895942D01*
X205246166Y-57895942D02*
X204979499Y-57895942D01*
X206046166Y-58276895D02*
X205646166Y-58276895D01*
X205846166Y-58276895D02*
X205846166Y-57476895D01*
X205846166Y-57476895D02*
X205779499Y-57591180D01*
X205779499Y-57591180D02*
X205712833Y-57667371D01*
X205712833Y-57667371D02*
X205646166Y-57705466D01*
X206646166Y-57743561D02*
X206646166Y-58276895D01*
X206479500Y-57438800D02*
X206312833Y-58010228D01*
X206312833Y-58010228D02*
X206746166Y-58010228D01*
X192749999Y-69288704D02*
X192716666Y-69326800D01*
X192716666Y-69326800D02*
X192616666Y-69364895D01*
X192616666Y-69364895D02*
X192549999Y-69364895D01*
X192549999Y-69364895D02*
X192449999Y-69326800D01*
X192449999Y-69326800D02*
X192383333Y-69250609D01*
X192383333Y-69250609D02*
X192349999Y-69174419D01*
X192349999Y-69174419D02*
X192316666Y-69022038D01*
X192316666Y-69022038D02*
X192316666Y-68907752D01*
X192316666Y-68907752D02*
X192349999Y-68755371D01*
X192349999Y-68755371D02*
X192383333Y-68679180D01*
X192383333Y-68679180D02*
X192449999Y-68602990D01*
X192449999Y-68602990D02*
X192549999Y-68564895D01*
X192549999Y-68564895D02*
X192616666Y-68564895D01*
X192616666Y-68564895D02*
X192716666Y-68602990D01*
X192716666Y-68602990D02*
X192749999Y-68641085D01*
X193016666Y-68641085D02*
X193049999Y-68602990D01*
X193049999Y-68602990D02*
X193116666Y-68564895D01*
X193116666Y-68564895D02*
X193283333Y-68564895D01*
X193283333Y-68564895D02*
X193349999Y-68602990D01*
X193349999Y-68602990D02*
X193383333Y-68641085D01*
X193383333Y-68641085D02*
X193416666Y-68717276D01*
X193416666Y-68717276D02*
X193416666Y-68793466D01*
X193416666Y-68793466D02*
X193383333Y-68907752D01*
X193383333Y-68907752D02*
X192983333Y-69364895D01*
X192983333Y-69364895D02*
X193416666Y-69364895D01*
X193683333Y-68641085D02*
X193716666Y-68602990D01*
X193716666Y-68602990D02*
X193783333Y-68564895D01*
X193783333Y-68564895D02*
X193950000Y-68564895D01*
X193950000Y-68564895D02*
X194016666Y-68602990D01*
X194016666Y-68602990D02*
X194050000Y-68641085D01*
X194050000Y-68641085D02*
X194083333Y-68717276D01*
X194083333Y-68717276D02*
X194083333Y-68793466D01*
X194083333Y-68793466D02*
X194050000Y-68907752D01*
X194050000Y-68907752D02*
X193650000Y-69364895D01*
X193650000Y-69364895D02*
X194083333Y-69364895D01*
X229183333Y-90688704D02*
X229150000Y-90726800D01*
X229150000Y-90726800D02*
X229050000Y-90764895D01*
X229050000Y-90764895D02*
X228983333Y-90764895D01*
X228983333Y-90764895D02*
X228883333Y-90726800D01*
X228883333Y-90726800D02*
X228816667Y-90650609D01*
X228816667Y-90650609D02*
X228783333Y-90574419D01*
X228783333Y-90574419D02*
X228750000Y-90422038D01*
X228750000Y-90422038D02*
X228750000Y-90307752D01*
X228750000Y-90307752D02*
X228783333Y-90155371D01*
X228783333Y-90155371D02*
X228816667Y-90079180D01*
X228816667Y-90079180D02*
X228883333Y-90002990D01*
X228883333Y-90002990D02*
X228983333Y-89964895D01*
X228983333Y-89964895D02*
X229050000Y-89964895D01*
X229050000Y-89964895D02*
X229150000Y-90002990D01*
X229150000Y-90002990D02*
X229183333Y-90041085D01*
X229416667Y-89964895D02*
X229883333Y-89964895D01*
X229883333Y-89964895D02*
X229583333Y-90764895D01*
X210600000Y-96088704D02*
X210566667Y-96126800D01*
X210566667Y-96126800D02*
X210466667Y-96164895D01*
X210466667Y-96164895D02*
X210400000Y-96164895D01*
X210400000Y-96164895D02*
X210300000Y-96126800D01*
X210300000Y-96126800D02*
X210233334Y-96050609D01*
X210233334Y-96050609D02*
X210200000Y-95974419D01*
X210200000Y-95974419D02*
X210166667Y-95822038D01*
X210166667Y-95822038D02*
X210166667Y-95707752D01*
X210166667Y-95707752D02*
X210200000Y-95555371D01*
X210200000Y-95555371D02*
X210233334Y-95479180D01*
X210233334Y-95479180D02*
X210300000Y-95402990D01*
X210300000Y-95402990D02*
X210400000Y-95364895D01*
X210400000Y-95364895D02*
X210466667Y-95364895D01*
X210466667Y-95364895D02*
X210566667Y-95402990D01*
X210566667Y-95402990D02*
X210600000Y-95441085D01*
X211266667Y-96164895D02*
X210866667Y-96164895D01*
X211066667Y-96164895D02*
X211066667Y-95364895D01*
X211066667Y-95364895D02*
X211000000Y-95479180D01*
X211000000Y-95479180D02*
X210933334Y-95555371D01*
X210933334Y-95555371D02*
X210866667Y-95593466D01*
X211500001Y-95364895D02*
X211933334Y-95364895D01*
X211933334Y-95364895D02*
X211700001Y-95669657D01*
X211700001Y-95669657D02*
X211800001Y-95669657D01*
X211800001Y-95669657D02*
X211866667Y-95707752D01*
X211866667Y-95707752D02*
X211900001Y-95745847D01*
X211900001Y-95745847D02*
X211933334Y-95822038D01*
X211933334Y-95822038D02*
X211933334Y-96012514D01*
X211933334Y-96012514D02*
X211900001Y-96088704D01*
X211900001Y-96088704D02*
X211866667Y-96126800D01*
X211866667Y-96126800D02*
X211800001Y-96164895D01*
X211800001Y-96164895D02*
X211600001Y-96164895D01*
X211600001Y-96164895D02*
X211533334Y-96126800D01*
X211533334Y-96126800D02*
X211500001Y-96088704D01*
X193650000Y-88945846D02*
X193416666Y-88945846D01*
X193416666Y-89364894D02*
X193416666Y-88564894D01*
X193416666Y-88564894D02*
X193750000Y-88564894D01*
X194016666Y-89364894D02*
X194016666Y-88564894D01*
X194349999Y-89364894D02*
X194349999Y-88564894D01*
X194349999Y-88564894D02*
X194516666Y-88564894D01*
X194516666Y-88564894D02*
X194616666Y-88602989D01*
X194616666Y-88602989D02*
X194683333Y-88679179D01*
X194683333Y-88679179D02*
X194716666Y-88755370D01*
X194716666Y-88755370D02*
X194749999Y-88907751D01*
X194749999Y-88907751D02*
X194749999Y-89022037D01*
X194749999Y-89022037D02*
X194716666Y-89174418D01*
X194716666Y-89174418D02*
X194683333Y-89250608D01*
X194683333Y-89250608D02*
X194616666Y-89326799D01*
X194616666Y-89326799D02*
X194516666Y-89364894D01*
X194516666Y-89364894D02*
X194349999Y-89364894D01*
X195016666Y-88641084D02*
X195049999Y-88602989D01*
X195049999Y-88602989D02*
X195116666Y-88564894D01*
X195116666Y-88564894D02*
X195283333Y-88564894D01*
X195283333Y-88564894D02*
X195349999Y-88602989D01*
X195349999Y-88602989D02*
X195383333Y-88641084D01*
X195383333Y-88641084D02*
X195416666Y-88717275D01*
X195416666Y-88717275D02*
X195416666Y-88793465D01*
X195416666Y-88793465D02*
X195383333Y-88907751D01*
X195383333Y-88907751D02*
X194983333Y-89364894D01*
X194983333Y-89364894D02*
X195416666Y-89364894D01*
X227749999Y-85988704D02*
X227716666Y-86026800D01*
X227716666Y-86026800D02*
X227616666Y-86064895D01*
X227616666Y-86064895D02*
X227549999Y-86064895D01*
X227549999Y-86064895D02*
X227449999Y-86026800D01*
X227449999Y-86026800D02*
X227383333Y-85950609D01*
X227383333Y-85950609D02*
X227349999Y-85874419D01*
X227349999Y-85874419D02*
X227316666Y-85722038D01*
X227316666Y-85722038D02*
X227316666Y-85607752D01*
X227316666Y-85607752D02*
X227349999Y-85455371D01*
X227349999Y-85455371D02*
X227383333Y-85379180D01*
X227383333Y-85379180D02*
X227449999Y-85302990D01*
X227449999Y-85302990D02*
X227549999Y-85264895D01*
X227549999Y-85264895D02*
X227616666Y-85264895D01*
X227616666Y-85264895D02*
X227716666Y-85302990D01*
X227716666Y-85302990D02*
X227749999Y-85341085D01*
X228416666Y-86064895D02*
X228016666Y-86064895D01*
X228216666Y-86064895D02*
X228216666Y-85264895D01*
X228216666Y-85264895D02*
X228149999Y-85379180D01*
X228149999Y-85379180D02*
X228083333Y-85455371D01*
X228083333Y-85455371D02*
X228016666Y-85493466D01*
X228816666Y-85607752D02*
X228750000Y-85569657D01*
X228750000Y-85569657D02*
X228716666Y-85531561D01*
X228716666Y-85531561D02*
X228683333Y-85455371D01*
X228683333Y-85455371D02*
X228683333Y-85417276D01*
X228683333Y-85417276D02*
X228716666Y-85341085D01*
X228716666Y-85341085D02*
X228750000Y-85302990D01*
X228750000Y-85302990D02*
X228816666Y-85264895D01*
X228816666Y-85264895D02*
X228950000Y-85264895D01*
X228950000Y-85264895D02*
X229016666Y-85302990D01*
X229016666Y-85302990D02*
X229050000Y-85341085D01*
X229050000Y-85341085D02*
X229083333Y-85417276D01*
X229083333Y-85417276D02*
X229083333Y-85455371D01*
X229083333Y-85455371D02*
X229050000Y-85531561D01*
X229050000Y-85531561D02*
X229016666Y-85569657D01*
X229016666Y-85569657D02*
X228950000Y-85607752D01*
X228950000Y-85607752D02*
X228816666Y-85607752D01*
X228816666Y-85607752D02*
X228750000Y-85645847D01*
X228750000Y-85645847D02*
X228716666Y-85683942D01*
X228716666Y-85683942D02*
X228683333Y-85760133D01*
X228683333Y-85760133D02*
X228683333Y-85912514D01*
X228683333Y-85912514D02*
X228716666Y-85988704D01*
X228716666Y-85988704D02*
X228750000Y-86026800D01*
X228750000Y-86026800D02*
X228816666Y-86064895D01*
X228816666Y-86064895D02*
X228950000Y-86064895D01*
X228950000Y-86064895D02*
X229016666Y-86026800D01*
X229016666Y-86026800D02*
X229050000Y-85988704D01*
X229050000Y-85988704D02*
X229083333Y-85912514D01*
X229083333Y-85912514D02*
X229083333Y-85760133D01*
X229083333Y-85760133D02*
X229050000Y-85683942D01*
X229050000Y-85683942D02*
X229016666Y-85645847D01*
X229016666Y-85645847D02*
X228950000Y-85607752D01*
D11*
X197182295Y-54833333D02*
X197753723Y-54833333D01*
X197753723Y-54833333D02*
X197868009Y-54880952D01*
X197868009Y-54880952D02*
X197944200Y-54976190D01*
X197944200Y-54976190D02*
X197982295Y-55119047D01*
X197982295Y-55119047D02*
X197982295Y-55214285D01*
X197982295Y-53833333D02*
X197982295Y-54404761D01*
X197982295Y-54119047D02*
X197182295Y-54119047D01*
X197182295Y-54119047D02*
X197296580Y-54214285D01*
X197296580Y-54214285D02*
X197372771Y-54309523D01*
X197372771Y-54309523D02*
X197410866Y-54404761D01*
D10*
X233869832Y-76790895D02*
X233636499Y-76409942D01*
X233469832Y-76790895D02*
X233469832Y-75990895D01*
X233469832Y-75990895D02*
X233736499Y-75990895D01*
X233736499Y-75990895D02*
X233803166Y-76028990D01*
X233803166Y-76028990D02*
X233836499Y-76067085D01*
X233836499Y-76067085D02*
X233869832Y-76143276D01*
X233869832Y-76143276D02*
X233869832Y-76257561D01*
X233869832Y-76257561D02*
X233836499Y-76333752D01*
X233836499Y-76333752D02*
X233803166Y-76371847D01*
X233803166Y-76371847D02*
X233736499Y-76409942D01*
X233736499Y-76409942D02*
X233469832Y-76409942D01*
X234469832Y-76257561D02*
X234469832Y-76790895D01*
X234303166Y-75952800D02*
X234136499Y-76524228D01*
X234136499Y-76524228D02*
X234569832Y-76524228D01*
X245149999Y-67464895D02*
X244916666Y-67083942D01*
X244749999Y-67464895D02*
X244749999Y-66664895D01*
X244749999Y-66664895D02*
X245016666Y-66664895D01*
X245016666Y-66664895D02*
X245083333Y-66702990D01*
X245083333Y-66702990D02*
X245116666Y-66741085D01*
X245116666Y-66741085D02*
X245149999Y-66817276D01*
X245149999Y-66817276D02*
X245149999Y-66931561D01*
X245149999Y-66931561D02*
X245116666Y-67007752D01*
X245116666Y-67007752D02*
X245083333Y-67045847D01*
X245083333Y-67045847D02*
X245016666Y-67083942D01*
X245016666Y-67083942D02*
X244749999Y-67083942D01*
X245816666Y-67464895D02*
X245416666Y-67464895D01*
X245616666Y-67464895D02*
X245616666Y-66664895D01*
X245616666Y-66664895D02*
X245549999Y-66779180D01*
X245549999Y-66779180D02*
X245483333Y-66855371D01*
X245483333Y-66855371D02*
X245416666Y-66893466D01*
X246150000Y-67464895D02*
X246283333Y-67464895D01*
X246283333Y-67464895D02*
X246350000Y-67426800D01*
X246350000Y-67426800D02*
X246383333Y-67388704D01*
X246383333Y-67388704D02*
X246450000Y-67274419D01*
X246450000Y-67274419D02*
X246483333Y-67122038D01*
X246483333Y-67122038D02*
X246483333Y-66817276D01*
X246483333Y-66817276D02*
X246450000Y-66741085D01*
X246450000Y-66741085D02*
X246416666Y-66702990D01*
X246416666Y-66702990D02*
X246350000Y-66664895D01*
X246350000Y-66664895D02*
X246216666Y-66664895D01*
X246216666Y-66664895D02*
X246150000Y-66702990D01*
X246150000Y-66702990D02*
X246116666Y-66741085D01*
X246116666Y-66741085D02*
X246083333Y-66817276D01*
X246083333Y-66817276D02*
X246083333Y-67007752D01*
X246083333Y-67007752D02*
X246116666Y-67083942D01*
X246116666Y-67083942D02*
X246150000Y-67122038D01*
X246150000Y-67122038D02*
X246216666Y-67160133D01*
X246216666Y-67160133D02*
X246350000Y-67160133D01*
X246350000Y-67160133D02*
X246416666Y-67122038D01*
X246416666Y-67122038D02*
X246450000Y-67083942D01*
X246450000Y-67083942D02*
X246483333Y-67007752D01*
X245150000Y-65545847D02*
X244916666Y-65545847D01*
X244916666Y-65964895D02*
X244916666Y-65164895D01*
X244916666Y-65164895D02*
X245250000Y-65164895D01*
X245516666Y-65964895D02*
X245516666Y-65164895D01*
X245849999Y-65964895D02*
X245849999Y-65164895D01*
X245849999Y-65164895D02*
X246016666Y-65164895D01*
X246016666Y-65164895D02*
X246116666Y-65202990D01*
X246116666Y-65202990D02*
X246183333Y-65279180D01*
X246183333Y-65279180D02*
X246216666Y-65355371D01*
X246216666Y-65355371D02*
X246249999Y-65507752D01*
X246249999Y-65507752D02*
X246249999Y-65622038D01*
X246249999Y-65622038D02*
X246216666Y-65774419D01*
X246216666Y-65774419D02*
X246183333Y-65850609D01*
X246183333Y-65850609D02*
X246116666Y-65926800D01*
X246116666Y-65926800D02*
X246016666Y-65964895D01*
X246016666Y-65964895D02*
X245849999Y-65964895D01*
X246916666Y-65964895D02*
X246516666Y-65964895D01*
X246716666Y-65964895D02*
X246716666Y-65164895D01*
X246716666Y-65164895D02*
X246649999Y-65279180D01*
X246649999Y-65279180D02*
X246583333Y-65355371D01*
X246583333Y-65355371D02*
X246516666Y-65393466D01*
X241449999Y-87526205D02*
X241416666Y-87564301D01*
X241416666Y-87564301D02*
X241316666Y-87602396D01*
X241316666Y-87602396D02*
X241249999Y-87602396D01*
X241249999Y-87602396D02*
X241149999Y-87564301D01*
X241149999Y-87564301D02*
X241083333Y-87488110D01*
X241083333Y-87488110D02*
X241049999Y-87411920D01*
X241049999Y-87411920D02*
X241016666Y-87259539D01*
X241016666Y-87259539D02*
X241016666Y-87145253D01*
X241016666Y-87145253D02*
X241049999Y-86992872D01*
X241049999Y-86992872D02*
X241083333Y-86916681D01*
X241083333Y-86916681D02*
X241149999Y-86840491D01*
X241149999Y-86840491D02*
X241249999Y-86802396D01*
X241249999Y-86802396D02*
X241316666Y-86802396D01*
X241316666Y-86802396D02*
X241416666Y-86840491D01*
X241416666Y-86840491D02*
X241449999Y-86878586D01*
X242116666Y-87602396D02*
X241716666Y-87602396D01*
X241916666Y-87602396D02*
X241916666Y-86802396D01*
X241916666Y-86802396D02*
X241849999Y-86916681D01*
X241849999Y-86916681D02*
X241783333Y-86992872D01*
X241783333Y-86992872D02*
X241716666Y-87030967D01*
X242350000Y-86802396D02*
X242816666Y-86802396D01*
X242816666Y-86802396D02*
X242516666Y-87602396D01*
X224770833Y-64713704D02*
X224737500Y-64751800D01*
X224737500Y-64751800D02*
X224637500Y-64789895D01*
X224637500Y-64789895D02*
X224570833Y-64789895D01*
X224570833Y-64789895D02*
X224470833Y-64751800D01*
X224470833Y-64751800D02*
X224404167Y-64675609D01*
X224404167Y-64675609D02*
X224370833Y-64599419D01*
X224370833Y-64599419D02*
X224337500Y-64447038D01*
X224337500Y-64447038D02*
X224337500Y-64332752D01*
X224337500Y-64332752D02*
X224370833Y-64180371D01*
X224370833Y-64180371D02*
X224404167Y-64104180D01*
X224404167Y-64104180D02*
X224470833Y-64027990D01*
X224470833Y-64027990D02*
X224570833Y-63989895D01*
X224570833Y-63989895D02*
X224637500Y-63989895D01*
X224637500Y-63989895D02*
X224737500Y-64027990D01*
X224737500Y-64027990D02*
X224770833Y-64066085D01*
X225370833Y-64256561D02*
X225370833Y-64789895D01*
X225204167Y-63951800D02*
X225037500Y-64523228D01*
X225037500Y-64523228D02*
X225470833Y-64523228D01*
X193249999Y-63588704D02*
X193216666Y-63626800D01*
X193216666Y-63626800D02*
X193116666Y-63664895D01*
X193116666Y-63664895D02*
X193049999Y-63664895D01*
X193049999Y-63664895D02*
X192949999Y-63626800D01*
X192949999Y-63626800D02*
X192883333Y-63550609D01*
X192883333Y-63550609D02*
X192849999Y-63474419D01*
X192849999Y-63474419D02*
X192816666Y-63322038D01*
X192816666Y-63322038D02*
X192816666Y-63207752D01*
X192816666Y-63207752D02*
X192849999Y-63055371D01*
X192849999Y-63055371D02*
X192883333Y-62979180D01*
X192883333Y-62979180D02*
X192949999Y-62902990D01*
X192949999Y-62902990D02*
X193049999Y-62864895D01*
X193049999Y-62864895D02*
X193116666Y-62864895D01*
X193116666Y-62864895D02*
X193216666Y-62902990D01*
X193216666Y-62902990D02*
X193249999Y-62941085D01*
X193483333Y-62864895D02*
X193916666Y-62864895D01*
X193916666Y-62864895D02*
X193683333Y-63169657D01*
X193683333Y-63169657D02*
X193783333Y-63169657D01*
X193783333Y-63169657D02*
X193849999Y-63207752D01*
X193849999Y-63207752D02*
X193883333Y-63245847D01*
X193883333Y-63245847D02*
X193916666Y-63322038D01*
X193916666Y-63322038D02*
X193916666Y-63512514D01*
X193916666Y-63512514D02*
X193883333Y-63588704D01*
X193883333Y-63588704D02*
X193849999Y-63626800D01*
X193849999Y-63626800D02*
X193783333Y-63664895D01*
X193783333Y-63664895D02*
X193583333Y-63664895D01*
X193583333Y-63664895D02*
X193516666Y-63626800D01*
X193516666Y-63626800D02*
X193483333Y-63588704D01*
X194350000Y-62864895D02*
X194416666Y-62864895D01*
X194416666Y-62864895D02*
X194483333Y-62902990D01*
X194483333Y-62902990D02*
X194516666Y-62941085D01*
X194516666Y-62941085D02*
X194550000Y-63017276D01*
X194550000Y-63017276D02*
X194583333Y-63169657D01*
X194583333Y-63169657D02*
X194583333Y-63360133D01*
X194583333Y-63360133D02*
X194550000Y-63512514D01*
X194550000Y-63512514D02*
X194516666Y-63588704D01*
X194516666Y-63588704D02*
X194483333Y-63626800D01*
X194483333Y-63626800D02*
X194416666Y-63664895D01*
X194416666Y-63664895D02*
X194350000Y-63664895D01*
X194350000Y-63664895D02*
X194283333Y-63626800D01*
X194283333Y-63626800D02*
X194250000Y-63588704D01*
X194250000Y-63588704D02*
X194216666Y-63512514D01*
X194216666Y-63512514D02*
X194183333Y-63360133D01*
X194183333Y-63360133D02*
X194183333Y-63169657D01*
X194183333Y-63169657D02*
X194216666Y-63017276D01*
X194216666Y-63017276D02*
X194250000Y-62941085D01*
X194250000Y-62941085D02*
X194283333Y-62902990D01*
X194283333Y-62902990D02*
X194350000Y-62864895D01*
X244483333Y-84964895D02*
X244250000Y-84583942D01*
X244083333Y-84964895D02*
X244083333Y-84164895D01*
X244083333Y-84164895D02*
X244350000Y-84164895D01*
X244350000Y-84164895D02*
X244416667Y-84202990D01*
X244416667Y-84202990D02*
X244450000Y-84241085D01*
X244450000Y-84241085D02*
X244483333Y-84317276D01*
X244483333Y-84317276D02*
X244483333Y-84431561D01*
X244483333Y-84431561D02*
X244450000Y-84507752D01*
X244450000Y-84507752D02*
X244416667Y-84545847D01*
X244416667Y-84545847D02*
X244350000Y-84583942D01*
X244350000Y-84583942D02*
X244083333Y-84583942D01*
X244816667Y-84964895D02*
X244950000Y-84964895D01*
X244950000Y-84964895D02*
X245016667Y-84926800D01*
X245016667Y-84926800D02*
X245050000Y-84888704D01*
X245050000Y-84888704D02*
X245116667Y-84774419D01*
X245116667Y-84774419D02*
X245150000Y-84622038D01*
X245150000Y-84622038D02*
X245150000Y-84317276D01*
X245150000Y-84317276D02*
X245116667Y-84241085D01*
X245116667Y-84241085D02*
X245083333Y-84202990D01*
X245083333Y-84202990D02*
X245016667Y-84164895D01*
X245016667Y-84164895D02*
X244883333Y-84164895D01*
X244883333Y-84164895D02*
X244816667Y-84202990D01*
X244816667Y-84202990D02*
X244783333Y-84241085D01*
X244783333Y-84241085D02*
X244750000Y-84317276D01*
X244750000Y-84317276D02*
X244750000Y-84507752D01*
X244750000Y-84507752D02*
X244783333Y-84583942D01*
X244783333Y-84583942D02*
X244816667Y-84622038D01*
X244816667Y-84622038D02*
X244883333Y-84660133D01*
X244883333Y-84660133D02*
X245016667Y-84660133D01*
X245016667Y-84660133D02*
X245083333Y-84622038D01*
X245083333Y-84622038D02*
X245116667Y-84583942D01*
X245116667Y-84583942D02*
X245150000Y-84507752D01*
X219345833Y-62088704D02*
X219312500Y-62126800D01*
X219312500Y-62126800D02*
X219212500Y-62164895D01*
X219212500Y-62164895D02*
X219145833Y-62164895D01*
X219145833Y-62164895D02*
X219045833Y-62126800D01*
X219045833Y-62126800D02*
X218979167Y-62050609D01*
X218979167Y-62050609D02*
X218945833Y-61974419D01*
X218945833Y-61974419D02*
X218912500Y-61822038D01*
X218912500Y-61822038D02*
X218912500Y-61707752D01*
X218912500Y-61707752D02*
X218945833Y-61555371D01*
X218945833Y-61555371D02*
X218979167Y-61479180D01*
X218979167Y-61479180D02*
X219045833Y-61402990D01*
X219045833Y-61402990D02*
X219145833Y-61364895D01*
X219145833Y-61364895D02*
X219212500Y-61364895D01*
X219212500Y-61364895D02*
X219312500Y-61402990D01*
X219312500Y-61402990D02*
X219345833Y-61441085D01*
X219612500Y-61441085D02*
X219645833Y-61402990D01*
X219645833Y-61402990D02*
X219712500Y-61364895D01*
X219712500Y-61364895D02*
X219879167Y-61364895D01*
X219879167Y-61364895D02*
X219945833Y-61402990D01*
X219945833Y-61402990D02*
X219979167Y-61441085D01*
X219979167Y-61441085D02*
X220012500Y-61517276D01*
X220012500Y-61517276D02*
X220012500Y-61593466D01*
X220012500Y-61593466D02*
X219979167Y-61707752D01*
X219979167Y-61707752D02*
X219579167Y-62164895D01*
X219579167Y-62164895D02*
X220012500Y-62164895D01*
D11*
X193758094Y-56043247D02*
X193971428Y-56043247D01*
X194062856Y-56462295D02*
X193758094Y-56462295D01*
X193758094Y-56462295D02*
X193758094Y-55662295D01*
X193758094Y-55662295D02*
X194062856Y-55662295D01*
X194672381Y-56462295D02*
X194306666Y-56462295D01*
X194489523Y-56462295D02*
X194489523Y-55662295D01*
X194489523Y-55662295D02*
X194428571Y-55776580D01*
X194428571Y-55776580D02*
X194367619Y-55852771D01*
X194367619Y-55852771D02*
X194306666Y-55890866D01*
D10*
X239249999Y-65864895D02*
X239016666Y-65483942D01*
X238849999Y-65864895D02*
X238849999Y-65064895D01*
X238849999Y-65064895D02*
X239116666Y-65064895D01*
X239116666Y-65064895D02*
X239183333Y-65102990D01*
X239183333Y-65102990D02*
X239216666Y-65141085D01*
X239216666Y-65141085D02*
X239249999Y-65217276D01*
X239249999Y-65217276D02*
X239249999Y-65331561D01*
X239249999Y-65331561D02*
X239216666Y-65407752D01*
X239216666Y-65407752D02*
X239183333Y-65445847D01*
X239183333Y-65445847D02*
X239116666Y-65483942D01*
X239116666Y-65483942D02*
X238849999Y-65483942D01*
X239516666Y-65141085D02*
X239549999Y-65102990D01*
X239549999Y-65102990D02*
X239616666Y-65064895D01*
X239616666Y-65064895D02*
X239783333Y-65064895D01*
X239783333Y-65064895D02*
X239849999Y-65102990D01*
X239849999Y-65102990D02*
X239883333Y-65141085D01*
X239883333Y-65141085D02*
X239916666Y-65217276D01*
X239916666Y-65217276D02*
X239916666Y-65293466D01*
X239916666Y-65293466D02*
X239883333Y-65407752D01*
X239883333Y-65407752D02*
X239483333Y-65864895D01*
X239483333Y-65864895D02*
X239916666Y-65864895D01*
X240583333Y-65864895D02*
X240183333Y-65864895D01*
X240383333Y-65864895D02*
X240383333Y-65064895D01*
X240383333Y-65064895D02*
X240316666Y-65179180D01*
X240316666Y-65179180D02*
X240250000Y-65255371D01*
X240250000Y-65255371D02*
X240183333Y-65293466D01*
X210617499Y-66836704D02*
X210584166Y-66874800D01*
X210584166Y-66874800D02*
X210484166Y-66912895D01*
X210484166Y-66912895D02*
X210417499Y-66912895D01*
X210417499Y-66912895D02*
X210317499Y-66874800D01*
X210317499Y-66874800D02*
X210250833Y-66798609D01*
X210250833Y-66798609D02*
X210217499Y-66722419D01*
X210217499Y-66722419D02*
X210184166Y-66570038D01*
X210184166Y-66570038D02*
X210184166Y-66455752D01*
X210184166Y-66455752D02*
X210217499Y-66303371D01*
X210217499Y-66303371D02*
X210250833Y-66227180D01*
X210250833Y-66227180D02*
X210317499Y-66150990D01*
X210317499Y-66150990D02*
X210417499Y-66112895D01*
X210417499Y-66112895D02*
X210484166Y-66112895D01*
X210484166Y-66112895D02*
X210584166Y-66150990D01*
X210584166Y-66150990D02*
X210617499Y-66189085D01*
X210850833Y-66112895D02*
X211284166Y-66112895D01*
X211284166Y-66112895D02*
X211050833Y-66417657D01*
X211050833Y-66417657D02*
X211150833Y-66417657D01*
X211150833Y-66417657D02*
X211217499Y-66455752D01*
X211217499Y-66455752D02*
X211250833Y-66493847D01*
X211250833Y-66493847D02*
X211284166Y-66570038D01*
X211284166Y-66570038D02*
X211284166Y-66760514D01*
X211284166Y-66760514D02*
X211250833Y-66836704D01*
X211250833Y-66836704D02*
X211217499Y-66874800D01*
X211217499Y-66874800D02*
X211150833Y-66912895D01*
X211150833Y-66912895D02*
X210950833Y-66912895D01*
X210950833Y-66912895D02*
X210884166Y-66874800D01*
X210884166Y-66874800D02*
X210850833Y-66836704D01*
X234083333Y-73264894D02*
X233850000Y-72883941D01*
X233683333Y-73264894D02*
X233683333Y-72464894D01*
X233683333Y-72464894D02*
X233950000Y-72464894D01*
X233950000Y-72464894D02*
X234016667Y-72502989D01*
X234016667Y-72502989D02*
X234050000Y-72541084D01*
X234050000Y-72541084D02*
X234083333Y-72617275D01*
X234083333Y-72617275D02*
X234083333Y-72731560D01*
X234083333Y-72731560D02*
X234050000Y-72807751D01*
X234050000Y-72807751D02*
X234016667Y-72845846D01*
X234016667Y-72845846D02*
X233950000Y-72883941D01*
X233950000Y-72883941D02*
X233683333Y-72883941D01*
X234683333Y-72464894D02*
X234550000Y-72464894D01*
X234550000Y-72464894D02*
X234483333Y-72502989D01*
X234483333Y-72502989D02*
X234450000Y-72541084D01*
X234450000Y-72541084D02*
X234383333Y-72655370D01*
X234383333Y-72655370D02*
X234350000Y-72807751D01*
X234350000Y-72807751D02*
X234350000Y-73112513D01*
X234350000Y-73112513D02*
X234383333Y-73188703D01*
X234383333Y-73188703D02*
X234416667Y-73226799D01*
X234416667Y-73226799D02*
X234483333Y-73264894D01*
X234483333Y-73264894D02*
X234616667Y-73264894D01*
X234616667Y-73264894D02*
X234683333Y-73226799D01*
X234683333Y-73226799D02*
X234716667Y-73188703D01*
X234716667Y-73188703D02*
X234750000Y-73112513D01*
X234750000Y-73112513D02*
X234750000Y-72922037D01*
X234750000Y-72922037D02*
X234716667Y-72845846D01*
X234716667Y-72845846D02*
X234683333Y-72807751D01*
X234683333Y-72807751D02*
X234616667Y-72769656D01*
X234616667Y-72769656D02*
X234483333Y-72769656D01*
X234483333Y-72769656D02*
X234416667Y-72807751D01*
X234416667Y-72807751D02*
X234383333Y-72845846D01*
X234383333Y-72845846D02*
X234350000Y-72922037D01*
X195209333Y-73934204D02*
X195176000Y-73972300D01*
X195176000Y-73972300D02*
X195076000Y-74010395D01*
X195076000Y-74010395D02*
X195009333Y-74010395D01*
X195009333Y-74010395D02*
X194909333Y-73972300D01*
X194909333Y-73972300D02*
X194842667Y-73896109D01*
X194842667Y-73896109D02*
X194809333Y-73819919D01*
X194809333Y-73819919D02*
X194776000Y-73667538D01*
X194776000Y-73667538D02*
X194776000Y-73553252D01*
X194776000Y-73553252D02*
X194809333Y-73400871D01*
X194809333Y-73400871D02*
X194842667Y-73324680D01*
X194842667Y-73324680D02*
X194909333Y-73248490D01*
X194909333Y-73248490D02*
X195009333Y-73210395D01*
X195009333Y-73210395D02*
X195076000Y-73210395D01*
X195076000Y-73210395D02*
X195176000Y-73248490D01*
X195176000Y-73248490D02*
X195209333Y-73286585D01*
X195542667Y-74010395D02*
X195676000Y-74010395D01*
X195676000Y-74010395D02*
X195742667Y-73972300D01*
X195742667Y-73972300D02*
X195776000Y-73934204D01*
X195776000Y-73934204D02*
X195842667Y-73819919D01*
X195842667Y-73819919D02*
X195876000Y-73667538D01*
X195876000Y-73667538D02*
X195876000Y-73362776D01*
X195876000Y-73362776D02*
X195842667Y-73286585D01*
X195842667Y-73286585D02*
X195809333Y-73248490D01*
X195809333Y-73248490D02*
X195742667Y-73210395D01*
X195742667Y-73210395D02*
X195609333Y-73210395D01*
X195609333Y-73210395D02*
X195542667Y-73248490D01*
X195542667Y-73248490D02*
X195509333Y-73286585D01*
X195509333Y-73286585D02*
X195476000Y-73362776D01*
X195476000Y-73362776D02*
X195476000Y-73553252D01*
X195476000Y-73553252D02*
X195509333Y-73629442D01*
X195509333Y-73629442D02*
X195542667Y-73667538D01*
X195542667Y-73667538D02*
X195609333Y-73705633D01*
X195609333Y-73705633D02*
X195742667Y-73705633D01*
X195742667Y-73705633D02*
X195809333Y-73667538D01*
X195809333Y-73667538D02*
X195842667Y-73629442D01*
X195842667Y-73629442D02*
X195876000Y-73553252D01*
D12*
%TO.C,J3*%
X211310000Y-55880000D02*
X211310000Y-54500000D01*
X212690000Y-55880000D02*
X211310000Y-55880000D01*
X213960000Y-53120000D02*
X221690000Y-53120000D01*
X213960000Y-55880000D02*
X213960000Y-53120000D01*
X213960000Y-55880000D02*
X221690000Y-55880000D01*
X221690000Y-55880000D02*
X221690000Y-53120000D01*
%TO.C,U4*%
X237389999Y-82862500D02*
X237389999Y-82062500D01*
X237389999Y-82862500D02*
X237389999Y-83662500D01*
X240509999Y-82862500D02*
X240509999Y-82062500D01*
X240509999Y-82862500D02*
X240509999Y-83662500D01*
X237439999Y-84162500D02*
X237109999Y-84402500D01*
X237109999Y-83922500D01*
X237439999Y-84162500D01*
G36*
X237439999Y-84162500D02*
G01*
X237109999Y-84402500D01*
X237109999Y-83922500D01*
X237439999Y-84162500D01*
G37*
%TO.C,D7*%
X195701500Y-56698000D02*
X195701500Y-58618000D01*
X195701500Y-58618000D02*
X198386499Y-58618000D01*
X198386499Y-56698000D02*
X195701500Y-56698000D01*
%TO.C,TP5*%
X227000000Y-94600000D02*
G75*
G02*
X225600000Y-94600000I-700000J0D01*
G01*
X225600000Y-94600000D02*
G75*
G02*
X227000000Y-94600000I700000J0D01*
G01*
%TO.C,C12*%
X234259419Y-64090000D02*
X234540581Y-64090000D01*
X234259419Y-65110000D02*
X234540581Y-65110000D01*
%TO.C,C27*%
X241837221Y-60990000D02*
X242162779Y-60990000D01*
X241837221Y-62010000D02*
X242162779Y-62010000D01*
%TO.C,C5*%
X227652500Y-59341422D02*
X227652500Y-59858578D01*
X229072500Y-59341422D02*
X229072500Y-59858578D01*
%TO.C,D6*%
X224540000Y-86950001D02*
X224540000Y-89635000D01*
X224540000Y-89635000D02*
X226460000Y-89635000D01*
X226460000Y-89635000D02*
X226460000Y-86950001D01*
%TO.C,R15*%
X208559379Y-56506000D02*
X208894621Y-56506000D01*
X208559379Y-57266000D02*
X208894621Y-57266000D01*
%TO.C,TP4*%
X224500000Y-94500000D02*
G75*
G02*
X223100000Y-94500000I-700000J0D01*
G01*
X223100000Y-94500000D02*
G75*
G02*
X224500000Y-94500000I700000J0D01*
G01*
%TO.C,D2*%
X240580000Y-53450000D02*
X240580000Y-56134999D01*
X240580000Y-56134999D02*
X242500000Y-56134999D01*
X242500000Y-56134999D02*
X242500000Y-53450000D01*
%TO.C,U1*%
X226250000Y-84187499D02*
X226250000Y-84062499D01*
X226450000Y-81787499D02*
X227750000Y-81787499D01*
X227900000Y-84062499D02*
X227900000Y-84187499D01*
X227900000Y-84062499D02*
X228100000Y-84062499D01*
X227900000Y-84187499D02*
X226250000Y-84187499D01*
%TO.C,C6*%
X218608578Y-74190000D02*
X218091422Y-74190000D01*
X218608578Y-75610000D02*
X218091422Y-75610000D01*
%TO.C,C21*%
X206294000Y-70982721D02*
X206294000Y-71308281D01*
X207314000Y-70982721D02*
X207314000Y-71308281D01*
%TO.C,R10*%
X231141422Y-91690000D02*
X231658578Y-91690000D01*
X231141422Y-93110000D02*
X231658578Y-93110000D01*
%TO.C,R5*%
X223490000Y-82741422D02*
X223490000Y-83258578D01*
X224910000Y-82741422D02*
X224910000Y-83258578D01*
%TO.C,C14*%
X217303922Y-95090000D02*
X217821078Y-95090000D01*
X217303922Y-96510000D02*
X217821078Y-96510000D01*
%TO.C,R13*%
X222677500Y-87762742D02*
X222677500Y-88237258D01*
X223722500Y-87762742D02*
X223722500Y-88237258D01*
%TO.C,Y1*%
X199035999Y-69885499D02*
X196215999Y-69885499D01*
X199035999Y-72305499D02*
X199035999Y-69885499D01*
%TO.C,C1*%
X229590000Y-83112221D02*
X229590000Y-83437779D01*
X230610000Y-83112221D02*
X230610000Y-83437779D01*
%TO.C,R2*%
X232577500Y-83512258D02*
X232577500Y-83037742D01*
X233622500Y-83512258D02*
X233622500Y-83037742D01*
%TO.C,U3*%
X235090000Y-69212500D02*
X235090001Y-68412500D01*
X235090000Y-69212500D02*
X235090001Y-70012500D01*
X238210002Y-69212500D02*
X238210001Y-67412500D01*
X238210002Y-69212500D02*
X238210001Y-70012500D01*
D13*
%TO.C,IC2*%
X199960000Y-79500000D02*
X219960000Y-79500000D01*
X199960000Y-93500000D02*
X199960000Y-79500000D01*
X201070000Y-83960000D02*
X204880000Y-83960000D01*
X201070000Y-91580000D02*
X201070000Y-83960000D01*
X204880000Y-81420000D02*
X218850000Y-81420000D01*
X204880000Y-83960000D02*
X204880000Y-81420000D01*
X218850000Y-81420000D02*
X218850000Y-91580000D01*
X218850000Y-91580000D02*
X201070000Y-91580000D01*
X219960000Y-79500000D02*
X219960000Y-93500000D01*
X219960000Y-93500000D02*
X199960000Y-93500000D01*
X201324000Y-81039000D02*
G75*
G02*
X200816000Y-81039000I-254000J0D01*
G01*
X200816000Y-81039000D02*
G75*
G02*
X201324000Y-81039000I254000J0D01*
G01*
X201451000Y-81039000D02*
G75*
G02*
X200689000Y-81039000I-381000J0D01*
G01*
X200689000Y-81039000D02*
G75*
G02*
X201451000Y-81039000I381000J0D01*
G01*
X203102000Y-82436000D02*
G75*
G02*
X201070000Y-82436000I-1016000J0D01*
G01*
X201070000Y-82436000D02*
G75*
G02*
X203102000Y-82436000I1016000J0D01*
G01*
D12*
%TO.C,R16*%
X197595258Y-59167500D02*
X197120742Y-59167500D01*
X197595258Y-60212500D02*
X197120742Y-60212500D01*
%TO.C,J7*%
X191520000Y-75836000D02*
X192900000Y-75836000D01*
X191520000Y-77216000D02*
X191520000Y-75836000D01*
X191520000Y-78486000D02*
X191520000Y-86216000D01*
X191520000Y-78486000D02*
X194280000Y-78486000D01*
X191520000Y-86216000D02*
X194280000Y-86216000D01*
X194280000Y-78486000D02*
X194280000Y-86216000D01*
%TO.C,R11*%
X247003922Y-88040000D02*
X247521078Y-88040000D01*
X247003922Y-89460000D02*
X247521078Y-89460000D01*
%TO.C,U2*%
X225162500Y-58240000D02*
X224362500Y-58240000D01*
X225162500Y-58240000D02*
X225962500Y-58240000D01*
X225162500Y-61360000D02*
X224362500Y-61360000D01*
X225162500Y-61360000D02*
X225962500Y-61360000D01*
X223862500Y-58290000D02*
X223622500Y-57960000D01*
X224102500Y-57960000D01*
X223862500Y-58290000D01*
G36*
X223862500Y-58290000D02*
G01*
X223622500Y-57960000D01*
X224102500Y-57960000D01*
X223862500Y-58290000D01*
G37*
D11*
%TO.C,U6*%
X226925000Y-67525000D02*
X231075000Y-67525000D01*
X226925000Y-68635000D02*
X226925000Y-67525000D01*
X226925000Y-76475000D02*
X226925000Y-75365000D01*
X226925000Y-76475000D02*
X231075000Y-76475000D01*
X231075000Y-67525000D02*
X231075000Y-68635000D01*
X231075000Y-76475000D02*
X231075000Y-75365000D01*
D12*
X226362500Y-68635000D02*
X226122500Y-68305000D01*
X226602500Y-68305000D01*
X226362500Y-68635000D01*
G36*
X226362500Y-68635000D02*
G01*
X226122500Y-68305000D01*
X226602500Y-68305000D01*
X226362500Y-68635000D01*
G37*
%TO.C,D3*%
X245565001Y-81690000D02*
X245565001Y-83610000D01*
X245565001Y-83610000D02*
X248250000Y-83610000D01*
X248250000Y-81690000D02*
X245565001Y-81690000D01*
%TO.C,R12*%
X234177500Y-83062742D02*
X234177500Y-83537258D01*
X235222500Y-83062742D02*
X235222500Y-83537258D01*
D14*
%TO.C,IC1*%
X221700000Y-75850000D02*
G75*
G02*
X221450000Y-75850000I-125000J0D01*
G01*
X221450000Y-75850000D02*
G75*
G02*
X221700000Y-75850000I125000J0D01*
G01*
D12*
%TO.C,U5*%
X199090000Y-61690000D02*
X199090000Y-62240001D01*
X199090000Y-67910000D02*
X199090000Y-67359999D01*
X199640001Y-61690000D02*
X199090000Y-61690000D01*
X199640001Y-67910000D02*
X199090000Y-67910000D01*
X204759999Y-61690000D02*
X205310000Y-61690000D01*
X204759999Y-67910000D02*
X205010000Y-67910000D01*
X205310000Y-61690000D02*
X205310000Y-62240001D01*
X205310000Y-67359999D02*
X205310001Y-67670000D01*
X205550000Y-68240000D02*
X205070000Y-68240000D01*
X205310000Y-67910000D01*
X205550000Y-68240000D01*
G36*
X205550000Y-68240000D02*
G01*
X205070000Y-68240000D01*
X205310000Y-67910000D01*
X205550000Y-68240000D01*
G37*
%TO.C,J2*%
X241985000Y-77460000D02*
X241985000Y-78260000D01*
X241985000Y-78260000D02*
X242135000Y-78260000D01*
X246065000Y-69920000D02*
X244655000Y-69920000D01*
X246065000Y-79080000D02*
X244655000Y-79080000D01*
%TO.C,R8*%
X236187742Y-57727500D02*
X236662258Y-57727500D01*
X236187742Y-58772500D02*
X236662258Y-58772500D01*
%TO.C,R18*%
X236462742Y-73877500D02*
X236937258Y-73877500D01*
X236462742Y-74922500D02*
X236937258Y-74922500D01*
%TO.C,R20*%
X236341422Y-61040000D02*
X236858578Y-61040000D01*
X236341422Y-62460000D02*
X236858578Y-62460000D01*
%TO.C,J6*%
X224040001Y-55880000D02*
X224040001Y-54500000D01*
X225420001Y-55880000D02*
X224040001Y-55880000D01*
X226690001Y-53120000D02*
X234420001Y-53120000D01*
X226690001Y-55880000D02*
X226690001Y-53120000D01*
X226690001Y-55880000D02*
X234420001Y-55880000D01*
X234420001Y-55880000D02*
X234420001Y-53120000D01*
%TO.C,C24*%
X200912000Y-70982720D02*
X200912000Y-71308278D01*
X201932000Y-70982720D02*
X201932000Y-71308278D01*
%TO.C,C31*%
X197252000Y-65372164D02*
X197252000Y-65587836D01*
X197972000Y-65372164D02*
X197972000Y-65587836D01*
%TO.C,R3*%
X236895077Y-77716000D02*
X236377921Y-77716000D01*
X236895077Y-79136000D02*
X236377921Y-79136000D01*
%TO.C,L3*%
X207794000Y-70982721D02*
X207794000Y-71308281D01*
X208814000Y-70982721D02*
X208814000Y-71308281D01*
%TO.C,C11*%
X229175278Y-77190000D02*
X228849720Y-77190000D01*
X229175278Y-78210000D02*
X228849720Y-78210000D01*
%TO.C,C25*%
X199416000Y-71308279D02*
X199416000Y-70982719D01*
X200436000Y-71308279D02*
X200436000Y-70982719D01*
%TO.C,C23*%
X204696000Y-70982720D02*
X204696000Y-71308278D01*
X205716000Y-70982720D02*
X205716000Y-71308278D01*
%TO.C,L2*%
X209294000Y-71308281D02*
X209294000Y-70982721D01*
X210314000Y-71308281D02*
X210314000Y-70982721D01*
%TO.C,C20*%
X206581221Y-59768000D02*
X206906779Y-59768000D01*
X206581221Y-60788000D02*
X206906779Y-60788000D01*
%TO.C,D5*%
X245565001Y-85770000D02*
X245565001Y-87690000D01*
X245565001Y-87690000D02*
X248250000Y-87690000D01*
X248250000Y-85770000D02*
X245565001Y-85770000D01*
%TO.C,R1*%
X231077500Y-83512258D02*
X231077500Y-83037742D01*
X232122500Y-83512258D02*
X232122500Y-83037742D01*
%TO.C,R7*%
X236187742Y-59227500D02*
X236662258Y-59227500D01*
X236187742Y-60272500D02*
X236662258Y-60272500D01*
%TO.C,C19*%
X221052500Y-59441422D02*
X221052500Y-59958578D01*
X222472500Y-59441422D02*
X222472500Y-59958578D01*
%TO.C,R14*%
X205997121Y-56515999D02*
X205661879Y-56515999D01*
X205997121Y-57276001D02*
X205661879Y-57276001D01*
%TO.C,C22*%
X195996780Y-67562000D02*
X195671220Y-67562000D01*
X195996780Y-68582000D02*
X195671220Y-68582000D01*
%TO.C,C7*%
X230340000Y-88047936D02*
X230340000Y-89252064D01*
X233060000Y-88047936D02*
X233060000Y-89252064D01*
%TO.C,C13*%
X213712780Y-95290000D02*
X213387222Y-95290000D01*
X213712780Y-96310000D02*
X213387222Y-96310000D01*
%TO.C,RST1*%
X244300000Y-62850000D02*
X244300000Y-62750000D01*
X244300000Y-64350000D02*
X248700000Y-64350000D01*
X248700000Y-61250000D02*
X244300000Y-61250000D01*
X248700000Y-62850000D02*
X248700000Y-62750000D01*
%TO.C,C18*%
X227390000Y-87641422D02*
X227390000Y-88158578D01*
X228810000Y-87641422D02*
X228810000Y-88158578D01*
%TO.C,J1*%
X198620000Y-55880000D02*
X198620000Y-54500000D01*
X200000000Y-55880000D02*
X198620000Y-55880000D01*
X201270000Y-53120000D02*
X209000000Y-53120000D01*
X201270000Y-55880000D02*
X201270000Y-53120000D01*
X201270000Y-55880000D02*
X209000000Y-55880000D01*
X209000000Y-55880000D02*
X209000000Y-53120000D01*
%TO.C,R4*%
X236377921Y-75666000D02*
X236895077Y-75666000D01*
X236377921Y-77086000D02*
X236895077Y-77086000D01*
%TO.C,R19*%
X242837258Y-66477500D02*
X242362742Y-66477500D01*
X242837258Y-67522500D02*
X242362742Y-67522500D01*
%TO.C,D4*%
X229815001Y-93865000D02*
X229815001Y-95785000D01*
X229815001Y-95785000D02*
X232500000Y-95785000D01*
X232500000Y-93865000D02*
X229815001Y-93865000D01*
%TO.C,C17*%
X241190000Y-84741422D02*
X241190000Y-85258578D01*
X242610000Y-84741422D02*
X242610000Y-85258578D01*
%TO.C,C4*%
X225146078Y-62015000D02*
X224628922Y-62015000D01*
X225146078Y-63435000D02*
X224628922Y-63435000D01*
D13*
%TO.C,J4*%
X234050000Y-88525000D02*
X234050000Y-92525000D01*
X235800000Y-96125000D02*
X240200000Y-96125000D01*
X236100000Y-88525000D02*
X234050000Y-88525000D01*
X241950000Y-88525000D02*
X239900000Y-88525000D01*
X241950000Y-92525000D02*
X241950000Y-88525000D01*
X236163500Y-87275000D02*
G75*
G02*
X236036500Y-87275000I-63500J0D01*
G01*
X236036500Y-87275000D02*
G75*
G02*
X236163500Y-87275000I63500J0D01*
G01*
D12*
%TO.C,R9*%
X246941422Y-83940000D02*
X247458578Y-83940000D01*
X246941422Y-85360000D02*
X247458578Y-85360000D01*
%TO.C,C2*%
X218952500Y-59537221D02*
X218952500Y-59862779D01*
X219972500Y-59537221D02*
X219972500Y-59862779D01*
D13*
%TO.C,E1*%
X191400000Y-57080000D02*
X191400000Y-55120000D01*
X193000000Y-57080000D02*
X193000000Y-55120000D01*
D15*
X192300000Y-58900000D02*
G75*
G02*
X192100000Y-58900000I-100000J0D01*
G01*
X192100000Y-58900000D02*
G75*
G02*
X192300000Y-58900000I100000J0D01*
G01*
D12*
%TO.C,R21*%
X242837258Y-64977500D02*
X242362742Y-64977500D01*
X242837258Y-66022500D02*
X242362742Y-66022500D01*
%TO.C,C3*%
X208117221Y-66038000D02*
X208442779Y-66038000D01*
X208117221Y-67058000D02*
X208442779Y-67058000D01*
%TO.C,D1*%
X237540000Y-53449999D02*
X237540000Y-56134998D01*
X237540000Y-56134998D02*
X239460000Y-56134998D01*
X239460000Y-56134998D02*
X239460000Y-53449999D01*
%TO.C,R6*%
X236937258Y-72177500D02*
X236462742Y-72177500D01*
X236937258Y-73222500D02*
X236462742Y-73222500D01*
%TO.C,C9*%
X194816000Y-71308280D02*
X194816000Y-70982720D01*
X195836000Y-71308280D02*
X195836000Y-70982720D01*
%TD*%
M02*
