%TF.GenerationSoftware,KiCad,Pcbnew,9.0.3*%
%TF.CreationDate,2025-07-21T13:55:51+02:00*%
%TF.ProjectId,LoRa_Project,4c6f5261-5f50-4726-9f6a-6563742e6b69,rev?*%
%TF.SameCoordinates,Original*%
%TF.FileFunction,Plated,1,4,PTH,Drill*%
%TF.FilePolarity,Positive*%
%FSLAX46Y46*%
G04 Gerber Fmt 4.6, Leading zero omitted, Abs format (unit mm)*
G04 Created by KiCad (PCBNEW 9.0.3) date 2025-07-21 13:55:51*
%MOMM*%
%LPD*%
G01*
G04 APERTURE LIST*
%TA.AperFunction,ComponentDrill*%
%ADD10C,0.200000*%
%TD*%
%TA.AperFunction,ViaDrill*%
%ADD11C,0.300000*%
%TD*%
%TA.AperFunction,ViaDrill*%
%ADD12C,0.600000*%
%TD*%
%TA.AperFunction,ComponentDrill*%
%ADD13C,1.000000*%
%TD*%
%TA.AperFunction,ComponentDrill*%
%ADD14C,3.200000*%
%TD*%
G04 APERTURE END LIST*
D10*
%TO.C,U5*%
X208096016Y-66030330D03*
X208944544Y-65181802D03*
X208944544Y-66878858D03*
X209793072Y-64333274D03*
X209793072Y-66030330D03*
X209793072Y-67727386D03*
X210641600Y-63484746D03*
X210641600Y-65181802D03*
X210641600Y-66878858D03*
X210641600Y-68575914D03*
X211490128Y-64333274D03*
X211490128Y-66030330D03*
X211490128Y-67727386D03*
X212338656Y-65181802D03*
X212338656Y-66878858D03*
X213187184Y-66030330D03*
%TD*%
D11*
X198000000Y-64400000D03*
X198100000Y-67400000D03*
X198868527Y-79271262D03*
X199200000Y-64300000D03*
X199400000Y-66500000D03*
X199400000Y-67400000D03*
X200800000Y-66300000D03*
X201000000Y-95634999D03*
X201100000Y-62500000D03*
X201100000Y-64800000D03*
X201700000Y-67200000D03*
X202100000Y-65700000D03*
X202200000Y-59900000D03*
X202200000Y-95634999D03*
X203400000Y-59900000D03*
X203500000Y-77000000D03*
X203500000Y-95634999D03*
X203950000Y-75300000D03*
X204000000Y-69300000D03*
X204100000Y-67600000D03*
X204250000Y-63050000D03*
X204250000Y-65300000D03*
X205050000Y-59900000D03*
X205400000Y-69500000D03*
X205500000Y-63150000D03*
X205500000Y-75300000D03*
X206100000Y-67500000D03*
X206200000Y-77800000D03*
X206250000Y-59900000D03*
X206350000Y-63150000D03*
X206700000Y-68200000D03*
X206900000Y-69500000D03*
X207050000Y-75300000D03*
X207250000Y-63150000D03*
X207475000Y-60350000D03*
X207475000Y-61875000D03*
X207500000Y-77800000D03*
X208200000Y-69700000D03*
X208950000Y-60800000D03*
X209069999Y-77800000D03*
X209069999Y-95769999D03*
X209500000Y-75350000D03*
X210000000Y-60800000D03*
X210300000Y-95734999D03*
X210340000Y-77800000D03*
X211600000Y-95734999D03*
X211610000Y-77800000D03*
X212250000Y-57650000D03*
X212775000Y-62225000D03*
X212800000Y-61350000D03*
X212880000Y-77800000D03*
X213800000Y-57650000D03*
X213825000Y-69350000D03*
X213900000Y-63200000D03*
X214100000Y-75293749D03*
X214150000Y-77800000D03*
X214800000Y-61000000D03*
X214800000Y-63800000D03*
X215420000Y-77800001D03*
X215500000Y-95800000D03*
X215899265Y-71400735D03*
X216000000Y-65550000D03*
X216000000Y-69400000D03*
X216150000Y-58700000D03*
X216500000Y-62200000D03*
X216650000Y-73400000D03*
X216690000Y-77800000D03*
X217025000Y-58700000D03*
X217400000Y-76406249D03*
X217900000Y-58700000D03*
X218000000Y-84400000D03*
X218000000Y-85700000D03*
X218100000Y-60500000D03*
X219100000Y-78700000D03*
X219900000Y-95800000D03*
X220200000Y-76400000D03*
X220200000Y-77300000D03*
X220400000Y-65300000D03*
X220400000Y-67050000D03*
X220456248Y-71000000D03*
X220900000Y-82050000D03*
X221500000Y-72700000D03*
X221500000Y-87200000D03*
X221775000Y-82050000D03*
X221950000Y-75350000D03*
X222000000Y-74600000D03*
X222200000Y-69600000D03*
X222200000Y-70600000D03*
X222650000Y-82050000D03*
X222675000Y-63325000D03*
X222800000Y-62000000D03*
X224600000Y-72300000D03*
X224600000Y-74900000D03*
X225000000Y-69800000D03*
X225500000Y-80900000D03*
X226225000Y-77725000D03*
X226300000Y-92900000D03*
X227700000Y-66800000D03*
X227800000Y-84700000D03*
X228000000Y-62700000D03*
X228100000Y-90100000D03*
X229100000Y-93700000D03*
X229600000Y-87000000D03*
X229600000Y-89400000D03*
X230100000Y-85400000D03*
X231200000Y-85700000D03*
X231212500Y-77700000D03*
X231500000Y-66900000D03*
X232000000Y-85700000D03*
X233100000Y-85400000D03*
X233400000Y-67100000D03*
X234286499Y-79126000D03*
X234375000Y-58250000D03*
X234375000Y-59850000D03*
X234375000Y-61750000D03*
X234386499Y-77326000D03*
X234600000Y-74400000D03*
X234700000Y-85400000D03*
X236500000Y-84300000D03*
X236650000Y-66550000D03*
X236700000Y-64600000D03*
X236800000Y-53100000D03*
X238100000Y-86300000D03*
X239000000Y-80100000D03*
X239100000Y-86300000D03*
X239200000Y-74200000D03*
X240000000Y-53100000D03*
X240000000Y-61500000D03*
X240000000Y-86300000D03*
X241200000Y-69700000D03*
X241200000Y-70500000D03*
X241200000Y-71300000D03*
X241200000Y-72100000D03*
X241200000Y-72800000D03*
X241200000Y-76200000D03*
X241200000Y-76900000D03*
X241200000Y-77800000D03*
X241200000Y-78600000D03*
X241200000Y-79400000D03*
X243250000Y-88550000D03*
X244850000Y-81500000D03*
X244850000Y-85550000D03*
X246500000Y-62000000D03*
X246500000Y-63600000D03*
D12*
X230100000Y-58000000D03*
X230100000Y-59500000D03*
X230100000Y-61000000D03*
X231500000Y-58000000D03*
X231500000Y-59500000D03*
X231500000Y-61000000D03*
D13*
%TO.C,J7*%
X193200000Y-73180000D03*
X193200000Y-75720000D03*
X193200000Y-78260000D03*
X193200000Y-80800000D03*
%TO.C,J1*%
X200000000Y-54500000D03*
X202540000Y-54500000D03*
X205080000Y-54500000D03*
X207620000Y-54500000D03*
%TO.C,J3*%
X212690000Y-54500000D03*
X215230000Y-54500000D03*
X217770000Y-54500000D03*
X220310000Y-54500000D03*
%TO.C,J6*%
X225420001Y-54500000D03*
X227960001Y-54500000D03*
X230500001Y-54500000D03*
X233040001Y-54500000D03*
D14*
%TO.C,H1*%
X194000000Y-56000000D03*
%TO.C,H3*%
X194000000Y-93000000D03*
%TO.C,H2*%
X245999999Y-56000001D03*
%TO.C,H4*%
X245999999Y-92999999D03*
M02*
