%TF.GenerationSoftware,KiCad,Pcbnew,9.0.3*%
%TF.CreationDate,2025-07-27T17:57:50+02:00*%
%TF.ProjectId,LoRa_Project,4c6f5261-5f50-4726-9f6a-6563742e6b69,rev?*%
%TF.SameCoordinates,Original*%
%TF.FileFunction,Copper,L1,Top*%
%TF.FilePolarity,Positive*%
%FSLAX46Y46*%
G04 Gerber Fmt 4.6, Leading zero omitted, Abs format (unit mm)*
G04 Created by KiCad (PCBNEW 9.0.3) date 2025-07-27 17:57:50*
%MOMM*%
%LPD*%
G01*
G04 APERTURE LIST*
G04 Aperture macros list*
%AMRoundRect*
0 Rectangle with rounded corners*
0 $1 Rounding radius*
0 $2 $3 $4 $5 $6 $7 $8 $9 X,Y pos of 4 corners*
0 Add a 4 corners polygon primitive as box body*
4,1,4,$2,$3,$4,$5,$6,$7,$8,$9,$2,$3,0*
0 Add four circle primitives for the rounded corners*
1,1,$1+$1,$2,$3*
1,1,$1+$1,$4,$5*
1,1,$1+$1,$6,$7*
1,1,$1+$1,$8,$9*
0 Add four rect primitives between the rounded corners*
20,1,$1+$1,$2,$3,$4,$5,0*
20,1,$1+$1,$4,$5,$6,$7,0*
20,1,$1+$1,$6,$7,$8,$9,0*
20,1,$1+$1,$8,$9,$2,$3,0*%
G04 Aperture macros list end*
%TA.AperFunction,ComponentPad*%
%ADD10R,1.700000X1.700000*%
%TD*%
%TA.AperFunction,ComponentPad*%
%ADD11C,1.700000*%
%TD*%
%TA.AperFunction,SMDPad,CuDef*%
%ADD12RoundRect,0.150000X0.150000X-0.512500X0.150000X0.512500X-0.150000X0.512500X-0.150000X-0.512500X0*%
%TD*%
%TA.AperFunction,SMDPad,CuDef*%
%ADD13RoundRect,0.100000X-0.300000X-0.450000X0.300000X-0.450000X0.300000X0.450000X-0.300000X0.450000X0*%
%TD*%
%TA.AperFunction,SMDPad,CuDef*%
%ADD14C,1.000000*%
%TD*%
%TA.AperFunction,SMDPad,CuDef*%
%ADD15RoundRect,0.225000X-0.225000X-0.250000X0.225000X-0.250000X0.225000X0.250000X-0.225000X0.250000X0*%
%TD*%
%TA.AperFunction,SMDPad,CuDef*%
%ADD16RoundRect,0.218750X-0.218750X-0.256250X0.218750X-0.256250X0.218750X0.256250X-0.218750X0.256250X0*%
%TD*%
%TA.AperFunction,SMDPad,CuDef*%
%ADD17RoundRect,0.147500X-0.147500X-0.172500X0.147500X-0.172500X0.147500X0.172500X-0.147500X0.172500X0*%
%TD*%
%TA.AperFunction,SMDPad,CuDef*%
%ADD18RoundRect,0.243750X-0.456250X0.243750X-0.456250X-0.243750X0.456250X-0.243750X0.456250X0.243750X0*%
%TD*%
%TA.AperFunction,SMDPad,CuDef*%
%ADD19RoundRect,0.147500X0.147500X0.172500X-0.147500X0.172500X-0.147500X-0.172500X0.147500X-0.172500X0*%
%TD*%
%TA.AperFunction,SMDPad,CuDef*%
%ADD20RoundRect,0.100000X0.450000X-0.300000X0.450000X0.300000X-0.450000X0.300000X-0.450000X-0.300000X0*%
%TD*%
%TA.AperFunction,SMDPad,CuDef*%
%ADD21RoundRect,0.160000X-0.197500X-0.160000X0.197500X-0.160000X0.197500X0.160000X-0.197500X0.160000X0*%
%TD*%
%TA.AperFunction,ComponentPad*%
%ADD22C,3.600000*%
%TD*%
%TA.AperFunction,ConnectorPad*%
%ADD23C,5.600000*%
%TD*%
%TA.AperFunction,SMDPad,CuDef*%
%ADD24RoundRect,0.050000X0.200000X0.100000X-0.200000X0.100000X-0.200000X-0.100000X0.200000X-0.100000X0*%
%TD*%
%TA.AperFunction,SMDPad,CuDef*%
%ADD25RoundRect,0.243750X0.243750X0.456250X-0.243750X0.456250X-0.243750X-0.456250X0.243750X-0.456250X0*%
%TD*%
%TA.AperFunction,SMDPad,CuDef*%
%ADD26RoundRect,0.218750X-0.256250X0.218750X-0.256250X-0.218750X0.256250X-0.218750X0.256250X0.218750X0*%
%TD*%
%TA.AperFunction,SMDPad,CuDef*%
%ADD27RoundRect,0.243750X-0.243750X-0.456250X0.243750X-0.456250X0.243750X0.456250X-0.243750X0.456250X0*%
%TD*%
%TA.AperFunction,SMDPad,CuDef*%
%ADD28RoundRect,0.200000X-0.275000X0.200000X-0.275000X-0.200000X0.275000X-0.200000X0.275000X0.200000X0*%
%TD*%
%TA.AperFunction,SMDPad,CuDef*%
%ADD29RoundRect,0.200000X0.250000X0.200000X-0.250000X0.200000X-0.250000X-0.200000X0.250000X-0.200000X0*%
%TD*%
%TA.AperFunction,SMDPad,CuDef*%
%ADD30RoundRect,0.200000X0.275000X-0.200000X0.275000X0.200000X-0.275000X0.200000X-0.275000X-0.200000X0*%
%TD*%
%TA.AperFunction,SMDPad,CuDef*%
%ADD31RoundRect,0.150000X-0.150000X0.512500X-0.150000X-0.512500X0.150000X-0.512500X0.150000X0.512500X0*%
%TD*%
%TA.AperFunction,SMDPad,CuDef*%
%ADD32R,0.800000X2.000000*%
%TD*%
%TA.AperFunction,SMDPad,CuDef*%
%ADD33RoundRect,0.200000X0.200000X0.275000X-0.200000X0.275000X-0.200000X-0.275000X0.200000X-0.275000X0*%
%TD*%
%TA.AperFunction,SMDPad,CuDef*%
%ADD34RoundRect,0.150000X-0.512500X-0.150000X0.512500X-0.150000X0.512500X0.150000X-0.512500X0.150000X0*%
%TD*%
%TA.AperFunction,SMDPad,CuDef*%
%ADD35R,1.200000X0.400000*%
%TD*%
%TA.AperFunction,SMDPad,CuDef*%
%ADD36R,0.750000X0.300000*%
%TD*%
%TA.AperFunction,SMDPad,CuDef*%
%ADD37R,0.900000X1.300000*%
%TD*%
%TA.AperFunction,SMDPad,CuDef*%
%ADD38RoundRect,0.050000X0.350000X0.050000X-0.350000X0.050000X-0.350000X-0.050000X0.350000X-0.050000X0*%
%TD*%
%TA.AperFunction,SMDPad,CuDef*%
%ADD39RoundRect,0.050000X0.050000X0.350000X-0.050000X0.350000X-0.050000X-0.350000X0.050000X-0.350000X0*%
%TD*%
%TA.AperFunction,HeatsinkPad*%
%ADD40C,0.500000*%
%TD*%
%TA.AperFunction,HeatsinkPad*%
%ADD41R,4.600000X4.600000*%
%TD*%
%TA.AperFunction,SMDPad,CuDef*%
%ADD42RoundRect,0.150000X0.425000X-0.150000X0.425000X0.150000X-0.425000X0.150000X-0.425000X-0.150000X0*%
%TD*%
%TA.AperFunction,SMDPad,CuDef*%
%ADD43RoundRect,0.075000X0.500000X-0.075000X0.500000X0.075000X-0.500000X0.075000X-0.500000X-0.075000X0*%
%TD*%
%TA.AperFunction,SMDPad,CuDef*%
%ADD44RoundRect,0.250000X0.750000X-0.840000X0.750000X0.840000X-0.750000X0.840000X-0.750000X-0.840000X0*%
%TD*%
%TA.AperFunction,SMDPad,CuDef*%
%ADD45RoundRect,0.200000X-0.200000X-0.275000X0.200000X-0.275000X0.200000X0.275000X-0.200000X0.275000X0*%
%TD*%
%TA.AperFunction,SMDPad,CuDef*%
%ADD46RoundRect,0.140000X-0.170000X0.140000X-0.170000X-0.140000X0.170000X-0.140000X0.170000X0.140000X0*%
%TD*%
%TA.AperFunction,SMDPad,CuDef*%
%ADD47RoundRect,0.218750X0.218750X0.256250X-0.218750X0.256250X-0.218750X-0.256250X0.218750X-0.256250X0*%
%TD*%
%TA.AperFunction,SMDPad,CuDef*%
%ADD48RoundRect,0.218750X0.256250X-0.218750X0.256250X0.218750X-0.256250X0.218750X-0.256250X-0.218750X0*%
%TD*%
%TA.AperFunction,SMDPad,CuDef*%
%ADD49RoundRect,0.147500X0.172500X-0.147500X0.172500X0.147500X-0.172500X0.147500X-0.172500X-0.147500X0*%
%TD*%
%TA.AperFunction,SMDPad,CuDef*%
%ADD50RoundRect,0.147500X-0.172500X0.147500X-0.172500X-0.147500X0.172500X-0.147500X0.172500X0.147500X0*%
%TD*%
%TA.AperFunction,SMDPad,CuDef*%
%ADD51RoundRect,0.160000X0.197500X0.160000X-0.197500X0.160000X-0.197500X-0.160000X0.197500X-0.160000X0*%
%TD*%
%TA.AperFunction,SMDPad,CuDef*%
%ADD52RoundRect,0.320000X-1.030000X0.480000X-1.030000X-0.480000X1.030000X-0.480000X1.030000X0.480000X0*%
%TD*%
%TA.AperFunction,SMDPad,CuDef*%
%ADD53R,0.900000X1.000000*%
%TD*%
%TA.AperFunction,SMDPad,CuDef*%
%ADD54R,1.000000X3.500000*%
%TD*%
%TA.AperFunction,SMDPad,CuDef*%
%ADD55R,1.500000X3.400000*%
%TD*%
%TA.AperFunction,SMDPad,CuDef*%
%ADD56R,1.600000X0.800000*%
%TD*%
%TA.AperFunction,ViaPad*%
%ADD57C,0.600000*%
%TD*%
%TA.AperFunction,ViaPad*%
%ADD58C,1.000000*%
%TD*%
%TA.AperFunction,Conductor*%
%ADD59C,0.250000*%
%TD*%
%TA.AperFunction,Conductor*%
%ADD60C,0.500000*%
%TD*%
%TA.AperFunction,Conductor*%
%ADD61C,0.350000*%
%TD*%
%TA.AperFunction,Conductor*%
%ADD62C,0.200000*%
%TD*%
%TA.AperFunction,Conductor*%
%ADD63C,1.000000*%
%TD*%
%TA.AperFunction,Conductor*%
%ADD64C,0.340000*%
%TD*%
G04 APERTURE END LIST*
D10*
%TO.P,J3,1,Pin_1*%
%TO.N,+3V3*%
X212690000Y-54500000D03*
D11*
%TO.P,J3,2,Pin_2*%
%TO.N,GND*%
X215230000Y-54500000D03*
%TO.P,J3,3,Pin_3*%
%TO.N,I2C_SDA*%
X217770000Y-54500000D03*
%TO.P,J3,4,Pin_4*%
%TO.N,I2C_SCL*%
X220310000Y-54500000D03*
%TD*%
D12*
%TO.P,U4,1,STAT*%
%TO.N,Net-(U4-STAT)*%
X237999999Y-84000000D03*
%TO.P,U4,2,V_{SS}*%
%TO.N,GND*%
X238949999Y-84000000D03*
%TO.P,U4,3,V_{BAT}*%
%TO.N,+BATT*%
X239899999Y-84000000D03*
%TO.P,U4,4,V_{DD}*%
%TO.N,VBUS*%
X239899999Y-81725000D03*
%TO.P,U4,5,PROG*%
%TO.N,Net-(U4-PROG)*%
X237999999Y-81725000D03*
%TD*%
D13*
%TO.P,D7,1,K*%
%TO.N,GND*%
X196436500Y-57658000D03*
%TO.P,D7,2,A*%
%TO.N,Net-(D7-A)*%
X198336498Y-57658000D03*
%TD*%
D14*
%TO.P,TP5,1,1*%
%TO.N,+3V3*%
X226300000Y-94600000D03*
%TD*%
D15*
%TO.P,C12,1*%
%TO.N,Net-(U6-~{RESET})*%
X233625000Y-64600000D03*
%TO.P,C12,2*%
%TO.N,GND*%
X235175000Y-64600000D03*
%TD*%
D16*
%TO.P,C27,1*%
%TO.N,GND*%
X241212500Y-61500000D03*
%TO.P,C27,2*%
X242787500Y-61500000D03*
%TD*%
D17*
%TO.P,C10,1*%
%TO.N,+3V3*%
X206259000Y-61728000D03*
%TO.P,C10,2*%
%TO.N,GND*%
X207229000Y-61728000D03*
%TD*%
D18*
%TO.P,C5,1*%
%TO.N,+3V3*%
X228362500Y-58662500D03*
%TO.P,C5,2*%
%TO.N,GND*%
X228362500Y-60537500D03*
%TD*%
D19*
%TO.P,C8,1*%
%TO.N,+3V3*%
X202669000Y-59182000D03*
%TO.P,C8,2*%
%TO.N,GND*%
X201699000Y-59182000D03*
%TD*%
D20*
%TO.P,D6,1,K*%
%TO.N,Net-(D6-K)*%
X225500000Y-88900000D03*
%TO.P,D6,2,A*%
%TO.N,VBUS*%
X225500000Y-87000002D03*
%TD*%
D21*
%TO.P,R15,1*%
%TO.N,+3V3*%
X208129500Y-56886000D03*
%TO.P,R15,2*%
%TO.N,I2C_SCL*%
X209324500Y-56886000D03*
%TD*%
D14*
%TO.P,TP4,1,1*%
%TO.N,/Power/V_SW*%
X223800000Y-94500000D03*
%TD*%
D20*
%TO.P,D2,1,K*%
%TO.N,/Peripherals/TXLED*%
X241540000Y-55399999D03*
%TO.P,D2,2,A*%
%TO.N,Net-(D2-A)*%
X241540000Y-53500001D03*
%TD*%
D22*
%TO.P,H3,1,1*%
%TO.N,GND*%
X194000000Y-93000000D03*
D23*
X194000000Y-93000000D03*
%TD*%
D24*
%TO.P,U1,1,GND*%
%TO.N,GND*%
X227785800Y-83737499D03*
%TO.P,U1,2,VOUT*%
%TO.N,/Power/V_SW*%
X227785800Y-83237499D03*
%TO.P,U1,3,VIN1*%
%TO.N,VBUS*%
X227785800Y-82737499D03*
%TO.P,U1,4,PR1*%
%TO.N,Net-(U1-PR1)*%
X227785800Y-82237499D03*
%TO.P,U1,5,MODE*%
%TO.N,VBUS*%
X226414200Y-82237499D03*
%TO.P,U1,6,VIN2*%
%TO.N,+BATT*%
X226414200Y-82737499D03*
%TO.P,U1,7,VOUT*%
%TO.N,/Power/V_SW*%
X226414200Y-83237499D03*
%TO.P,U1,8,ST*%
%TO.N,Net-(U1-ST)*%
X226414200Y-83737499D03*
%TD*%
D25*
%TO.P,C6,1*%
%TO.N,+BATT*%
X219287500Y-74900000D03*
%TO.P,C6,2*%
%TO.N,GND*%
X217412500Y-74900000D03*
%TD*%
D26*
%TO.P,C21,1*%
%TO.N,/nRF52840 and LoRa/DEC4_6*%
X206804000Y-70358000D03*
%TO.P,C21,2*%
%TO.N,GND*%
X206804000Y-71933002D03*
%TD*%
D27*
%TO.P,R10,1*%
%TO.N,+BATT*%
X230462499Y-92400000D03*
%TO.P,R10,2*%
%TO.N,Net-(D4-A)*%
X232337501Y-92400000D03*
%TD*%
D18*
%TO.P,R5,1*%
%TO.N,/Power/V_SW*%
X224200000Y-82062499D03*
%TO.P,R5,2*%
%TO.N,Net-(U1-ST)*%
X224200000Y-83937501D03*
%TD*%
D27*
%TO.P,C14,1*%
%TO.N,+3V3*%
X216625000Y-95800000D03*
%TO.P,C14,2*%
%TO.N,GND*%
X218500000Y-95800000D03*
%TD*%
D28*
%TO.P,R13,1*%
%TO.N,Net-(U4-STAT)*%
X223200000Y-87175000D03*
%TO.P,R13,2*%
%TO.N,Net-(D6-K)*%
X223200000Y-88825000D03*
%TD*%
D29*
%TO.P,Y1,*%
%TO.N,Net-(U5-XC1)*%
X196925999Y-71645499D03*
%TO.P,Y1,1,1*%
%TO.N,Net-(U5-XC2)*%
X198325999Y-70545499D03*
%TO.P,Y1,2,2*%
%TO.N,N/C*%
X196925999Y-70545499D03*
%TO.P,Y1,4*%
X198325999Y-71645499D03*
%TD*%
D26*
%TO.P,C1,1*%
%TO.N,VBUS*%
X230100000Y-82487500D03*
%TO.P,C1,2*%
%TO.N,GND*%
X230100000Y-84062500D03*
%TD*%
D30*
%TO.P,R2,1*%
%TO.N,GND*%
X233100000Y-84100000D03*
%TO.P,R2,2*%
%TO.N,Net-(U1-PR1)*%
X233100000Y-82450000D03*
%TD*%
D31*
%TO.P,U3,1,I/O1*%
%TO.N,/Power/D_N*%
X237600000Y-68075000D03*
%TO.P,U3,2,GND*%
%TO.N,GND*%
X236650001Y-68075000D03*
%TO.P,U3,3,I/O2*%
%TO.N,D-*%
X235700002Y-68075000D03*
%TO.P,U3,4,I/O2*%
%TO.N,D+*%
X235700002Y-70350000D03*
%TO.P,U3,5,VBUS*%
%TO.N,VBUS*%
X236650001Y-70350000D03*
%TO.P,U3,6,I/O1*%
%TO.N,/Power/D_P*%
X237600000Y-70350000D03*
%TD*%
D32*
%TO.P,IC2,1,GND*%
%TO.N,GND*%
X200960000Y-93500000D03*
%TO.P,IC2,2,GND*%
X202230000Y-93500000D03*
%TO.P,IC2,3,GND*%
X203500000Y-93500000D03*
%TO.P,IC2,4,GND*%
X209070000Y-93500000D03*
%TO.P,IC2,5,GND*%
X210340000Y-93500000D03*
%TO.P,IC2,6,RXEN*%
X211610000Y-93500000D03*
%TO.P,IC2,7,TXEN*%
X212880000Y-93500000D03*
%TO.P,IC2,8,DIO2*%
%TO.N,unconnected-(IC2-DIO2-Pad8)*%
X214150000Y-93500000D03*
%TO.P,IC2,9,VCC*%
%TO.N,+3V3*%
X215420000Y-93500000D03*
%TO.P,IC2,10,GND*%
%TO.N,GND*%
X216690000Y-93500000D03*
%TO.P,IC2,11,GND*%
X217960000Y-93500000D03*
%TO.P,IC2,12,GND*%
X217960000Y-79500000D03*
%TO.P,IC2,13,DIO1*%
%TO.N,/nRF52840 and LoRa/LORA_IRQ*%
X216690000Y-79500000D03*
%TO.P,IC2,14,BUSY*%
%TO.N,/nRF52840 and LoRa/LORA_BUSY*%
X215420000Y-79500000D03*
%TO.P,IC2,15,NRST*%
%TO.N,/nRF52840 and LoRa/LORA_NRST*%
X214150000Y-79500000D03*
%TO.P,IC2,16,MISO*%
%TO.N,/nRF52840 and LoRa/SPI_MISO*%
X212880000Y-79500000D03*
%TO.P,IC2,17,MOSI*%
%TO.N,/nRF52840 and LoRa/SPI_MOSI*%
X211610000Y-79500000D03*
%TO.P,IC2,18,SCK*%
%TO.N,/nRF52840 and LoRa/SPI_SCK*%
X210340000Y-79500000D03*
%TO.P,IC2,19,NSS*%
%TO.N,/nRF52840 and LoRa/LORA_SPI_CS*%
X209070000Y-79500000D03*
%TO.P,IC2,20,GND*%
%TO.N,GND*%
X203500000Y-79500000D03*
%TO.P,IC2,21,ANT*%
%TO.N,unconnected-(IC2-ANT-Pad21)*%
X202230000Y-79500000D03*
%TO.P,IC2,22,GND*%
%TO.N,GND*%
X200960000Y-79500000D03*
%TD*%
D33*
%TO.P,R16,1*%
%TO.N,/nRF52840 and LoRa/LED*%
X198183000Y-59690000D03*
%TO.P,R16,2*%
%TO.N,Net-(D7-A)*%
X196533000Y-59690000D03*
%TD*%
D10*
%TO.P,J7,1,Pin_1*%
%TO.N,+3V3*%
X192900000Y-77216000D03*
D11*
%TO.P,J7,2,Pin_2*%
%TO.N,GND*%
X192900000Y-79756000D03*
%TO.P,J7,3,Pin_3*%
%TO.N,P0.04*%
X192900000Y-82296000D03*
%TO.P,J7,4,Pin_4*%
%TO.N,P0.05*%
X192900000Y-84836000D03*
%TD*%
D17*
%TO.P,C28,1*%
%TO.N,+3V3*%
X207818000Y-68072000D03*
%TO.P,C28,2*%
%TO.N,GND*%
X208788000Y-68072000D03*
%TD*%
D19*
%TO.P,L6,1,1*%
%TO.N,Net-(U5-ANT)*%
X196682786Y-65000000D03*
%TO.P,L6,2,2*%
%TO.N,/nRF52840 and LoRa/50\u03A9*%
X195712786Y-65000000D03*
%TD*%
D27*
%TO.P,R11,1*%
%TO.N,+3V3*%
X246324999Y-88750000D03*
%TO.P,R11,2*%
%TO.N,Net-(D5-A)*%
X248200001Y-88750000D03*
%TD*%
D34*
%TO.P,U2,1,IN*%
%TO.N,/Power/V_SW*%
X224025000Y-58850000D03*
%TO.P,U2,2,GND*%
%TO.N,GND*%
X224025000Y-59800000D03*
%TO.P,U2,3,EN*%
%TO.N,/Power/V_SW*%
X224025000Y-60750000D03*
%TO.P,U2,4,BP*%
%TO.N,Net-(U2-BP)*%
X226300000Y-60750000D03*
%TO.P,U2,5,OUT*%
%TO.N,+3V3*%
X226300000Y-58850000D03*
%TD*%
D35*
%TO.P,U6,1,~{DTR}*%
%TO.N,unconnected-(U6-~{DTR}-Pad1)*%
X226400000Y-69142500D03*
%TO.P,U6,2,~{RTS}*%
%TO.N,unconnected-(U6-~{RTS}-Pad2)*%
X226400000Y-69777500D03*
%TO.P,U6,3,VCCIO*%
%TO.N,+3V3*%
X226399999Y-70412500D03*
%TO.P,U6,4,RXD*%
%TO.N,UART_TXD*%
X226400000Y-71047500D03*
%TO.P,U6,5,~{RI}*%
%TO.N,unconnected-(U6-~{RI}-Pad5)*%
X226400000Y-71682500D03*
%TO.P,U6,6,GND*%
%TO.N,GND*%
X226400000Y-72317500D03*
%TO.P,U6,7,~{DSR}*%
%TO.N,unconnected-(U6-~{DSR}-Pad7)*%
X226400000Y-72952500D03*
%TO.P,U6,8,~{DCD}*%
%TO.N,unconnected-(U6-~{DCD}-Pad8)*%
X226399999Y-73587500D03*
%TO.P,U6,9,~{CTS}*%
%TO.N,unconnected-(U6-~{CTS}-Pad9)*%
X226400000Y-74222500D03*
%TO.P,U6,10,CBUS2*%
%TO.N,/Peripherals/TXLED*%
X226400000Y-74857500D03*
%TO.P,U6,11,USBDP*%
%TO.N,D+*%
X231600000Y-74857500D03*
%TO.P,U6,12,USBDM*%
%TO.N,D-*%
X231600000Y-74222500D03*
%TO.P,U6,13,3V3OUT*%
%TO.N,+3V3*%
X231600001Y-73587500D03*
%TO.P,U6,14,~{RESET}*%
%TO.N,Net-(U6-~{RESET})*%
X231600000Y-72952500D03*
%TO.P,U6,15,VCC*%
%TO.N,+3V3*%
X231600000Y-72317500D03*
%TO.P,U6,16,GND*%
%TO.N,GND*%
X231600000Y-71682500D03*
%TO.P,U6,17,CBUS1*%
%TO.N,/Peripherals/RXLED*%
X231600000Y-71047500D03*
%TO.P,U6,18,CBUS0*%
%TO.N,unconnected-(U6-CBUS0-Pad18)*%
X231600001Y-70412500D03*
%TO.P,U6,19,CBUS3*%
%TO.N,Net-(U6-CBUS3)*%
X231600000Y-69777500D03*
%TO.P,U6,20,TXD*%
%TO.N,UART_RXD*%
X231600000Y-69142500D03*
%TD*%
D13*
%TO.P,D3,1,K*%
%TO.N,GND*%
X246300001Y-82650000D03*
%TO.P,D3,2,A*%
%TO.N,Net-(D3-A)*%
X248199999Y-82650000D03*
%TD*%
D28*
%TO.P,R12,1*%
%TO.N,Net-(U4-PROG)*%
X234700000Y-82475000D03*
%TO.P,R12,2*%
%TO.N,GND*%
X234700000Y-84125000D03*
%TD*%
D36*
%TO.P,IC1,1,CTG*%
%TO.N,GND*%
X221950000Y-76500000D03*
%TO.P,IC1,2,CELL*%
%TO.N,+BATT*%
X221950000Y-77000000D03*
%TO.P,IC1,3,VDD*%
X221950000Y-77500000D03*
%TO.P,IC1,4,GND*%
%TO.N,GND*%
X221950000Y-78000000D03*
%TO.P,IC1,5,~{ALRT}*%
%TO.N,unconnected-(IC1-~{ALRT}-Pad5)*%
X223950000Y-78000000D03*
%TO.P,IC1,6,QSTRT*%
%TO.N,GND*%
X223950000Y-77500000D03*
%TO.P,IC1,7,SCL*%
%TO.N,I2C_SCL*%
X223950000Y-77000000D03*
%TO.P,IC1,8,SDA*%
%TO.N,I2C_SDA*%
X223950000Y-76500000D03*
D37*
%TO.P,IC1,9,EP*%
%TO.N,GND*%
X222950000Y-77250000D03*
%TD*%
D38*
%TO.P,U5,1,DEC1*%
%TO.N,Net-(U5-DEC1)*%
X205150000Y-67000000D03*
%TO.P,U5,2,P0.00*%
%TO.N,unconnected-(U5-P0.00-Pad2)*%
X205150000Y-66600000D03*
%TO.P,U5,3,P0.01*%
%TO.N,unconnected-(U5-P0.01-Pad3)*%
X205150000Y-66199999D03*
%TO.P,U5,4,P0.04*%
%TO.N,P0.04*%
X205150000Y-65800000D03*
%TO.P,U5,5,P0.05*%
%TO.N,P0.05*%
X205150000Y-65400000D03*
%TO.P,U5,6,P0.07*%
%TO.N,unconnected-(U5-P0.07-Pad6)*%
X205150000Y-64999999D03*
%TO.P,U5,7,P0.08*%
%TO.N,UART_RXD*%
X205150000Y-64600001D03*
%TO.P,U5,8,P1.08*%
%TO.N,UART_TXD*%
X205150000Y-64200000D03*
%TO.P,U5,9,P1.09*%
%TO.N,unconnected-(U5-P1.09-Pad9)*%
X205150000Y-63800000D03*
%TO.P,U5,10,P0.11*%
%TO.N,/nRF52840 and LoRa/LORA_IRQ*%
X205150000Y-63400001D03*
%TO.P,U5,11,P0.12*%
%TO.N,/nRF52840 and LoRa/LORA_SPI_CS*%
X205150000Y-63000000D03*
%TO.P,U5,12,VDD*%
%TO.N,+3V3*%
X205150000Y-62600000D03*
D39*
%TO.P,U5,13,P0.13*%
%TO.N,/nRF52840 and LoRa/SPI_MOSI*%
X204400000Y-61850000D03*
%TO.P,U5,14,P0.14*%
%TO.N,/nRF52840 and LoRa/SPI_MISO*%
X204000000Y-61850000D03*
%TO.P,U5,15,P0.17*%
%TO.N,/nRF52840 and LoRa/LED*%
X203599999Y-61850000D03*
%TO.P,U5,16,~{RESET}*%
%TO.N,Net-(U5-~{RESET})*%
X203200000Y-61850000D03*
%TO.P,U5,17,VDD*%
%TO.N,+3V3*%
X202800000Y-61850000D03*
%TO.P,U5,18,P0.19*%
%TO.N,/nRF52840 and LoRa/SPI_SCK*%
X202399999Y-61850000D03*
%TO.P,U5,19,P0.20*%
%TO.N,unconnected-(U5-P0.20-Pad19)*%
X202000001Y-61850000D03*
%TO.P,U5,20,P0.21*%
%TO.N,unconnected-(U5-P0.21-Pad20)*%
X201600000Y-61850000D03*
%TO.P,U5,21,P0.22*%
%TO.N,I2C_SCL*%
X201200000Y-61850000D03*
%TO.P,U5,22,P0.23*%
%TO.N,I2C_SDA*%
X200800001Y-61850000D03*
%TO.P,U5,23,P0.24*%
%TO.N,unconnected-(U5-P0.24-Pad23)*%
X200400000Y-61850000D03*
%TO.P,U5,24,P1.00*%
%TO.N,unconnected-(U5-P1.00-Pad24)*%
X200000000Y-61850000D03*
D38*
%TO.P,U5,25,VDD*%
%TO.N,+3V3*%
X199250000Y-62600000D03*
%TO.P,U5,26,SWDIO*%
%TO.N,SWD_IO*%
X199250000Y-63000000D03*
%TO.P,U5,27,SWDCLK*%
%TO.N,SWD_CLK*%
X199250000Y-63400001D03*
%TO.P,U5,28,NC*%
%TO.N,unconnected-(U5-NC-Pad28)*%
X199250000Y-63800000D03*
%TO.P,U5,29,P0.09*%
%TO.N,unconnected-(U5-P0.09-Pad29)*%
X199250000Y-64200000D03*
%TO.P,U5,30,P0.10*%
%TO.N,unconnected-(U5-P0.10-Pad30)*%
X199250000Y-64600001D03*
%TO.P,U5,31,ANT*%
%TO.N,Net-(U5-ANT)*%
X199250000Y-64999999D03*
%TO.P,U5,32,VSS_PA_GND*%
%TO.N,GND*%
X199250000Y-65400000D03*
%TO.P,U5,33,DEC6*%
%TO.N,/nRF52840 and LoRa/DEC4_6*%
X199250000Y-65800000D03*
%TO.P,U5,34,DEC3*%
%TO.N,Net-(U5-DEC3)*%
X199250000Y-66199999D03*
%TO.P,U5,35,XC1*%
%TO.N,Net-(U5-XC1)*%
X199250000Y-66600000D03*
%TO.P,U5,36,XC2*%
%TO.N,Net-(U5-XC2)*%
X199250000Y-67000000D03*
D39*
%TO.P,U5,37,VDD*%
%TO.N,+3V3*%
X200000000Y-67750000D03*
%TO.P,U5,38,P1.15*%
%TO.N,unconnected-(U5-P1.15-Pad38)*%
X200400000Y-67750000D03*
%TO.P,U5,39,P0.03*%
%TO.N,/nRF52840 and LoRa/LORA_BUSY*%
X200800001Y-67750000D03*
%TO.P,U5,40,P0.02*%
%TO.N,/nRF52840 and LoRa/LORA_NRST*%
X201200000Y-67750000D03*
%TO.P,U5,41,P0.28*%
%TO.N,unconnected-(U5-P0.28-Pad41)*%
X201600000Y-67750000D03*
%TO.P,U5,42,P0.29*%
%TO.N,unconnected-(U5-P0.29-Pad42)*%
X202000001Y-67750000D03*
%TO.P,U5,43,P0.30*%
%TO.N,unconnected-(U5-P0.30-Pad43)*%
X202399999Y-67750000D03*
%TO.P,U5,44,P0.31*%
%TO.N,unconnected-(U5-P0.31-Pad44)*%
X202800000Y-67750000D03*
%TO.P,U5,45,VSS*%
%TO.N,GND*%
X203200000Y-67750000D03*
%TO.P,U5,46,DEC4*%
%TO.N,/nRF52840 and LoRa/DEC4_6*%
X203599999Y-67750000D03*
%TO.P,U5,47,DCC*%
%TO.N,Net-(U5-DCC)*%
X204000000Y-67750000D03*
%TO.P,U5,48,VDD*%
%TO.N,+3V3*%
X204400000Y-67750000D03*
D40*
%TO.P,U5,49,VSS*%
%TO.N,GND*%
X204000000Y-66600000D03*
X204000000Y-65400000D03*
X204000000Y-64200000D03*
X204000000Y-63000000D03*
X202800000Y-66600000D03*
X202800000Y-65400000D03*
X202800000Y-64200000D03*
X202800000Y-63000000D03*
D41*
X202200000Y-64800000D03*
D40*
X201600000Y-66600000D03*
X201600000Y-65400000D03*
X201600000Y-64200000D03*
X201600000Y-63000000D03*
X200400000Y-66600000D03*
X200400000Y-65400000D03*
X200400000Y-64200000D03*
X200400000Y-63000000D03*
%TD*%
D42*
%TO.P,J2,A1,GND*%
%TO.N,GND*%
X242820000Y-77700000D03*
%TO.P,J2,A4,VBUS*%
%TO.N,VBUS*%
X242820000Y-76900000D03*
D43*
%TO.P,J2,A5,CC1*%
%TO.N,Net-(J2-CC1)*%
X242820000Y-75750000D03*
%TO.P,J2,A6,D+*%
%TO.N,/Power/USB_D+*%
X242820000Y-74750000D03*
%TO.P,J2,A7,D-*%
%TO.N,/Power/USB_D-*%
X242820000Y-74250000D03*
%TO.P,J2,A8,SBU1*%
%TO.N,unconnected-(J2-SBU1-PadA8)*%
X242820000Y-73250000D03*
D42*
%TO.P,J2,A9,VBUS*%
%TO.N,VBUS*%
X242820000Y-72100000D03*
%TO.P,J2,A12,GND*%
%TO.N,GND*%
X242820000Y-71300000D03*
%TO.P,J2,B1,GND*%
X242820000Y-71300000D03*
%TO.P,J2,B4,VBUS*%
%TO.N,VBUS*%
X242820000Y-72100000D03*
D43*
%TO.P,J2,B5,CC2*%
%TO.N,Net-(J2-CC2)*%
X242820000Y-72750000D03*
%TO.P,J2,B6,D+*%
%TO.N,/Power/USB_D+*%
X242820000Y-73750000D03*
%TO.P,J2,B7,D-*%
%TO.N,/Power/USB_D-*%
X242820000Y-75250000D03*
%TO.P,J2,B8,SBU2*%
%TO.N,unconnected-(J2-SBU2-PadB8)*%
X242820000Y-76250000D03*
D42*
%TO.P,J2,B9,VBUS*%
%TO.N,VBUS*%
X242820000Y-76900000D03*
%TO.P,J2,B12,GND*%
%TO.N,GND*%
X242820000Y-77700000D03*
D44*
%TO.P,J2,S1,SHIELD*%
%TO.N,unconnected-(J2-SHIELD-PadS1)*%
X243395000Y-79610000D03*
%TO.N,unconnected-(J2-SHIELD-PadS1)_3*%
X247325000Y-79610000D03*
%TO.N,unconnected-(J2-SHIELD-PadS1)_2*%
X243395000Y-69390000D03*
%TO.N,unconnected-(J2-SHIELD-PadS1)_1*%
X247325000Y-69390000D03*
%TD*%
D22*
%TO.P,H2,1,1*%
%TO.N,GND*%
X245999999Y-56000001D03*
D23*
X245999999Y-56000001D03*
%TD*%
D45*
%TO.P,R8,1*%
%TO.N,+3V3*%
X235600000Y-58250000D03*
%TO.P,R8,2*%
%TO.N,Net-(D1-A)*%
X237250000Y-58250000D03*
%TD*%
%TO.P,R18,1*%
%TO.N,Net-(U6-CBUS3)*%
X235875000Y-74400000D03*
%TO.P,R18,2*%
%TO.N,GND*%
X237525000Y-74400000D03*
%TD*%
D17*
%TO.P,L5,1,1*%
%TO.N,GND*%
X191215000Y-60850000D03*
%TO.P,L5,2,2*%
%TO.N,Net-(C30-Pad2)*%
X192185000Y-60850000D03*
%TD*%
D19*
%TO.P,C26,1*%
%TO.N,+3V3*%
X197843000Y-61722000D03*
%TO.P,C26,2*%
%TO.N,GND*%
X196873000Y-61722000D03*
%TD*%
D27*
%TO.P,R20,1*%
%TO.N,+3V3*%
X235662499Y-61750000D03*
%TO.P,R20,2*%
%TO.N,Net-(U5-~{RESET})*%
X237537501Y-61750000D03*
%TD*%
D10*
%TO.P,J6,1,Pin_1*%
%TO.N,+3V3*%
X225420001Y-54500000D03*
D11*
%TO.P,J6,2,Pin_2*%
%TO.N,GND*%
X227960001Y-54500000D03*
%TO.P,J6,3,Pin_3*%
%TO.N,SWD_CLK*%
X230500001Y-54500000D03*
%TO.P,J6,4,Pin_4*%
%TO.N,SWD_IO*%
X233040001Y-54500000D03*
%TD*%
D26*
%TO.P,C24,1*%
%TO.N,Net-(U5-DEC3)*%
X201422000Y-70357999D03*
%TO.P,C24,2*%
%TO.N,GND*%
X201422000Y-71932999D03*
%TD*%
D46*
%TO.P,C31,1*%
%TO.N,Net-(U5-ANT)*%
X197612000Y-65000000D03*
%TO.P,C31,2*%
%TO.N,GND*%
X197612000Y-65960000D03*
%TD*%
D25*
%TO.P,R3,1*%
%TO.N,Net-(J2-CC1)*%
X237574000Y-78426000D03*
%TO.P,R3,2*%
%TO.N,GND*%
X235698998Y-78426000D03*
%TD*%
D26*
%TO.P,L3,1,1*%
%TO.N,/nRF52840 and LoRa/DEC4_6*%
X208304000Y-70358000D03*
%TO.P,L3,2,2*%
%TO.N,Net-(L2-Pad1)*%
X208304000Y-71933002D03*
%TD*%
D47*
%TO.P,C11,1*%
%TO.N,GND*%
X229799999Y-77700000D03*
%TO.P,C11,2*%
%TO.N,+3V3*%
X228224999Y-77700000D03*
%TD*%
D48*
%TO.P,C25,1*%
%TO.N,GND*%
X199926000Y-71933000D03*
%TO.P,C25,2*%
%TO.N,Net-(U5-XC2)*%
X199926000Y-70357998D03*
%TD*%
D26*
%TO.P,C23,1*%
%TO.N,/nRF52840 and LoRa/DEC4_6*%
X205206000Y-70357999D03*
%TO.P,C23,2*%
%TO.N,GND*%
X205206000Y-71932999D03*
%TD*%
D48*
%TO.P,L2,1,1*%
%TO.N,Net-(L2-Pad1)*%
X209804000Y-71933002D03*
%TO.P,L2,2,2*%
%TO.N,Net-(U5-DCC)*%
X209804000Y-70358000D03*
%TD*%
D16*
%TO.P,C20,1*%
%TO.N,+3V3*%
X205956500Y-60278000D03*
%TO.P,C20,2*%
%TO.N,GND*%
X207531500Y-60278000D03*
%TD*%
D13*
%TO.P,D5,1,K*%
%TO.N,GND*%
X246300001Y-86730000D03*
%TO.P,D5,2,A*%
%TO.N,Net-(D5-A)*%
X248199999Y-86730000D03*
%TD*%
D30*
%TO.P,R1,1*%
%TO.N,VBUS*%
X231600000Y-84100000D03*
%TO.P,R1,2*%
%TO.N,Net-(U1-PR1)*%
X231600000Y-82450000D03*
%TD*%
D49*
%TO.P,L4,1,1*%
%TO.N,Net-(C30-Pad2)*%
X192200000Y-59900000D03*
%TO.P,L4,2,2*%
%TO.N,Net-(E1-Pad1)*%
X192200000Y-58930000D03*
%TD*%
D45*
%TO.P,R7,1*%
%TO.N,+3V3*%
X235600000Y-59750000D03*
%TO.P,R7,2*%
%TO.N,Net-(D2-A)*%
X237250000Y-59750000D03*
%TD*%
D18*
%TO.P,C19,1*%
%TO.N,/Power/V_SW*%
X221762500Y-58762500D03*
%TO.P,C19,2*%
%TO.N,GND*%
X221762500Y-60637500D03*
%TD*%
D50*
%TO.P,C29,1*%
%TO.N,+3V3*%
X202692000Y-70612000D03*
%TO.P,C29,2*%
%TO.N,GND*%
X202692000Y-71582000D03*
%TD*%
D51*
%TO.P,R14,1*%
%TO.N,+3V3*%
X206427000Y-56896000D03*
%TO.P,R14,2*%
%TO.N,I2C_SDA*%
X205232000Y-56896000D03*
%TD*%
D47*
%TO.P,C22,1*%
%TO.N,/nRF52840 and LoRa/DEC4_6*%
X196621501Y-68072000D03*
%TO.P,C22,2*%
%TO.N,GND*%
X195046499Y-68072000D03*
%TD*%
D52*
%TO.P,C7,1*%
%TO.N,+BATT*%
X231700000Y-87250001D03*
%TO.P,C7,2*%
%TO.N,GND*%
X231700000Y-90049999D03*
%TD*%
D47*
%TO.P,C13,1*%
%TO.N,+3V3*%
X214337501Y-95800000D03*
%TO.P,C13,2*%
%TO.N,GND*%
X212762501Y-95800000D03*
%TD*%
D53*
%TO.P,RST1,1*%
%TO.N,Net-(U5-~{RESET})*%
X248550000Y-62000000D03*
%TO.P,RST1,2*%
%TO.N,GND*%
X248550000Y-63600000D03*
%TO.P,RST1,3*%
X244450000Y-63600000D03*
%TO.P,RST1,4*%
%TO.N,Net-(U5-~{RESET})*%
X244450000Y-62000000D03*
%TD*%
D14*
%TO.P,FID2,*%
%TO.N,*%
X191900000Y-88500000D03*
%TD*%
D18*
%TO.P,C18,1*%
%TO.N,VBUS*%
X228100000Y-86962500D03*
%TO.P,C18,2*%
%TO.N,GND*%
X228100000Y-88837500D03*
%TD*%
D10*
%TO.P,J1,1,Pin_1*%
%TO.N,+3V3*%
X200000000Y-54500000D03*
D11*
%TO.P,J1,2,Pin_2*%
%TO.N,GND*%
X202540000Y-54500000D03*
%TO.P,J1,3,Pin_3*%
%TO.N,I2C_SDA*%
X205080000Y-54500000D03*
%TO.P,J1,4,Pin_4*%
%TO.N,I2C_SCL*%
X207620000Y-54500000D03*
%TD*%
D27*
%TO.P,R4,1*%
%TO.N,GND*%
X235698998Y-76376000D03*
%TO.P,R4,2*%
%TO.N,Net-(J2-CC2)*%
X237574000Y-76376000D03*
%TD*%
D33*
%TO.P,R19,1*%
%TO.N,/Power/USB_D+*%
X243425000Y-67000000D03*
%TO.P,R19,2*%
%TO.N,/Power/D_P*%
X241775000Y-67000000D03*
%TD*%
D13*
%TO.P,D4,1,K*%
%TO.N,GND*%
X230550001Y-94825000D03*
%TO.P,D4,2,A*%
%TO.N,Net-(D4-A)*%
X232449999Y-94825000D03*
%TD*%
D14*
%TO.P,FID1,*%
%TO.N,*%
X248400000Y-66100000D03*
%TD*%
D18*
%TO.P,C17,1*%
%TO.N,VBUS*%
X241900000Y-84062499D03*
%TO.P,C17,2*%
%TO.N,GND*%
X241900000Y-85937501D03*
%TD*%
D25*
%TO.P,C4,1*%
%TO.N,Net-(U2-BP)*%
X225825000Y-62725000D03*
%TO.P,C4,2*%
%TO.N,GND*%
X223950000Y-62725000D03*
%TD*%
D49*
%TO.P,C30,1*%
%TO.N,/nRF52840 and LoRa/50\u03A9*%
X192200000Y-62785000D03*
%TO.P,C30,2*%
%TO.N,Net-(C30-Pad2)*%
X192200000Y-61815000D03*
%TD*%
D54*
%TO.P,J4,1,Pin_1*%
%TO.N,+BATT*%
X237000000Y-88875000D03*
%TO.P,J4,2,Pin_2*%
%TO.N,GND*%
X239000000Y-88875000D03*
D55*
%TO.P,J4,P1*%
%TO.N,N/C*%
X234650000Y-94625000D03*
%TO.P,J4,P2*%
X241350000Y-94625000D03*
%TD*%
D22*
%TO.P,H4,1,1*%
%TO.N,GND*%
X245999999Y-92999999D03*
D23*
X245999999Y-92999999D03*
%TD*%
D27*
%TO.P,R9,1*%
%TO.N,VBUS*%
X246262499Y-84650000D03*
%TO.P,R9,2*%
%TO.N,Net-(D3-A)*%
X248137501Y-84650000D03*
%TD*%
D26*
%TO.P,C2,1*%
%TO.N,/Power/V_SW*%
X219462500Y-58912500D03*
%TO.P,C2,2*%
%TO.N,GND*%
X219462500Y-60487500D03*
%TD*%
D56*
%TO.P,E1,1*%
%TO.N,Net-(E1-Pad1)*%
X192200000Y-57800001D03*
%TO.P,E1,2*%
%TO.N,unconnected-(E1-Pad2)*%
X192200000Y-54399999D03*
%TD*%
D33*
%TO.P,R21,1*%
%TO.N,/Power/USB_D-*%
X243425000Y-65500000D03*
%TO.P,R21,2*%
%TO.N,/Power/D_N*%
X241775000Y-65500000D03*
%TD*%
D16*
%TO.P,C3,1*%
%TO.N,Net-(U5-DEC1)*%
X207492500Y-66548000D03*
%TO.P,C3,2*%
%TO.N,GND*%
X209067500Y-66548000D03*
%TD*%
D20*
%TO.P,D1,1,K*%
%TO.N,/Peripherals/RXLED*%
X238500000Y-55399998D03*
%TO.P,D1,2,A*%
%TO.N,Net-(D1-A)*%
X238500000Y-53500000D03*
%TD*%
D33*
%TO.P,R6,1*%
%TO.N,VBUS*%
X237525000Y-72700000D03*
%TO.P,R6,2*%
%TO.N,Net-(U6-CBUS3)*%
X235875000Y-72700000D03*
%TD*%
D48*
%TO.P,C9,1*%
%TO.N,GND*%
X195326000Y-71933001D03*
%TO.P,C9,2*%
%TO.N,Net-(U5-XC1)*%
X195326000Y-70357999D03*
%TD*%
D57*
%TO.N,*%
X225000000Y-69800000D03*
%TO.N,VBUS*%
X241200000Y-76900000D03*
X241200000Y-72100000D03*
X241200000Y-72800000D03*
X229600000Y-87000000D03*
X241200000Y-76200000D03*
%TO.N,GND*%
X244850000Y-81500000D03*
X197612000Y-64008000D03*
X193793752Y-68100000D03*
X195500000Y-55280000D03*
X241200000Y-70500000D03*
X192000000Y-65100000D03*
X236700000Y-64600000D03*
X218100000Y-60500000D03*
X195500000Y-52800000D03*
X241200000Y-77800000D03*
X193100000Y-63300000D03*
X233100000Y-85400000D03*
X201000000Y-95634999D03*
X205200000Y-73406249D03*
X191300000Y-62500000D03*
X244850000Y-85550000D03*
X241200000Y-69700000D03*
X241200000Y-78600000D03*
X211600000Y-95734999D03*
X239100000Y-86300000D03*
X199900000Y-73306249D03*
X238100000Y-86300000D03*
X239000000Y-80100000D03*
X239200000Y-74200000D03*
X207544000Y-58928000D03*
X241200000Y-71300000D03*
X195500000Y-57760000D03*
X195500000Y-56520000D03*
X193700000Y-64200000D03*
X194050000Y-60100000D03*
X224600000Y-72300000D03*
X203500000Y-95634999D03*
X201700000Y-58200000D03*
X227800000Y-84700000D03*
X228000000Y-62700000D03*
X191300000Y-61700000D03*
X240000000Y-86300000D03*
X195500000Y-54040000D03*
X194500000Y-65800000D03*
X195500000Y-59000000D03*
X234286499Y-79126000D03*
X234386499Y-77326000D03*
X229600000Y-89400000D03*
X210306248Y-66500000D03*
X195300000Y-73206249D03*
X210300000Y-95734999D03*
X199600000Y-79900000D03*
X222800000Y-62000000D03*
X246500000Y-63600000D03*
X219900000Y-95800000D03*
X217400000Y-76406249D03*
X222675000Y-63325000D03*
X203500000Y-77700000D03*
X193100000Y-60900000D03*
X209700000Y-68100000D03*
X228100000Y-90100000D03*
X192800000Y-65700000D03*
X229100000Y-93700000D03*
X221950000Y-75350000D03*
X201400000Y-73306249D03*
X195000000Y-60100000D03*
X219100000Y-78700000D03*
X195834000Y-61722000D03*
X191300000Y-63300000D03*
X227700000Y-66800000D03*
X240000000Y-61500000D03*
X231212500Y-77700000D03*
X193100000Y-60100000D03*
X230100000Y-85400000D03*
X202200000Y-95634999D03*
X191600000Y-64200000D03*
X193100000Y-61700000D03*
X193100000Y-62500000D03*
X241200000Y-79400000D03*
X209069999Y-95769999D03*
X236650000Y-66550000D03*
X202692000Y-73282000D03*
X222000000Y-74600000D03*
X234700000Y-85400000D03*
X206804000Y-73389250D03*
X193700000Y-65800000D03*
X194500000Y-64200000D03*
%TO.N,+3V3*%
X234375000Y-59850000D03*
D58*
X230100000Y-59500000D03*
D57*
X215500000Y-95800000D03*
X207300000Y-58100000D03*
X234375000Y-61750000D03*
D58*
X230100000Y-61000000D03*
D57*
X226300000Y-92900000D03*
X197900000Y-60800000D03*
X202700000Y-74600000D03*
D58*
X231500000Y-61000000D03*
D57*
X234375000Y-58250000D03*
D58*
X230100000Y-58000000D03*
D57*
X243250000Y-88550000D03*
X205994000Y-58928000D03*
X202400000Y-57600000D03*
D58*
X231500000Y-58000000D03*
D57*
X226225000Y-77725000D03*
X206600000Y-68600000D03*
D58*
X231500000Y-59500000D03*
D57*
%TO.N,+BATT*%
X220200000Y-76400000D03*
X231200000Y-85700000D03*
X220200000Y-77300000D03*
X225500000Y-80900000D03*
X232000000Y-85700000D03*
%TO.N,/nRF52840 and LoRa/DEC4_6*%
X196596000Y-66294000D03*
X203874001Y-69025999D03*
%TO.N,Net-(U5-DEC3)*%
X199800000Y-69300000D03*
X197866000Y-67310000D03*
%TO.N,/Peripherals/RXLED*%
X231500000Y-66900000D03*
X236800000Y-53100000D03*
%TO.N,/Peripherals/TXLED*%
X240000000Y-53100000D03*
X224600000Y-74900000D03*
%TO.N,I2C_SDA*%
X203900000Y-56900000D03*
X222200000Y-70600000D03*
X214300000Y-62700000D03*
%TO.N,I2C_SCL*%
X222200000Y-69600000D03*
X215700000Y-62700000D03*
%TO.N,/nRF52840 and LoRa/LORA_SPI_CS*%
X213400000Y-68700000D03*
X213400000Y-66400000D03*
%TO.N,/nRF52840 and LoRa/SPI_SCK*%
X214600000Y-69800000D03*
X208900000Y-58700000D03*
X214700000Y-67300000D03*
X201703000Y-60300000D03*
%TO.N,/nRF52840 and LoRa/SPI_MISO*%
X204500000Y-59500000D03*
X212880000Y-77800000D03*
%TO.N,/nRF52840 and LoRa/SPI_MOSI*%
X211610000Y-77800000D03*
X204700000Y-60300000D03*
%TO.N,SWD_IO*%
X196850000Y-62738000D03*
%TO.N,SWD_CLK*%
X197612000Y-63246000D03*
%TO.N,Net-(U4-STAT)*%
X221500000Y-87200000D03*
X236500000Y-84300000D03*
%TO.N,/nRF52840 and LoRa/LED*%
X199900000Y-57200000D03*
X203100000Y-57000000D03*
%TO.N,Net-(U5-~{RESET})*%
X203000000Y-60200000D03*
X246500000Y-62000000D03*
X233800000Y-63100000D03*
%TO.N,UART_RXD*%
X222800000Y-64300000D03*
X214900000Y-64800000D03*
X207300000Y-64800000D03*
X221400000Y-64800000D03*
%TO.N,UART_TXD*%
X207300000Y-64000000D03*
X214600000Y-64000000D03*
%TO.N,/Power/V_SW*%
X222650000Y-82050000D03*
X216150000Y-58700000D03*
X221775000Y-82050000D03*
X220900000Y-82050000D03*
X217025000Y-58700000D03*
X217900000Y-58700000D03*
%TO.N,Net-(U6-CBUS3)*%
X233400000Y-67100000D03*
X234600000Y-74400000D03*
%TO.N,P0.05*%
X206300000Y-65200000D03*
X212100000Y-72000000D03*
X207400000Y-76300000D03*
%TO.N,P0.04*%
X211400000Y-71500000D03*
X206300000Y-66100000D03*
X206700000Y-75600000D03*
%TD*%
D59*
%TO.N,VBUS*%
X231600000Y-84100000D02*
X231600000Y-83987499D01*
X231600000Y-83987499D02*
X230100000Y-82487499D01*
D60*
X242820000Y-76900000D02*
X241200000Y-76900000D01*
D59*
X229600000Y-87000000D02*
X228137501Y-87000000D01*
X239899998Y-78200002D02*
X241200000Y-76900000D01*
X227452670Y-82737499D02*
X227785800Y-82737499D01*
X225500000Y-87000002D02*
X228062497Y-87000002D01*
X230100000Y-82487499D02*
X229131070Y-82487499D01*
X236650001Y-71012499D02*
X237287502Y-71650000D01*
X239899998Y-81725000D02*
X239899998Y-78200002D01*
X240374998Y-82200000D02*
X239899998Y-81725000D01*
X246262500Y-84650000D02*
X245162500Y-83550000D01*
X237525000Y-71725000D02*
X237525000Y-72700000D01*
X237287502Y-71650000D02*
X237600000Y-71650000D01*
X237600000Y-71650000D02*
X238800000Y-71650000D01*
X238800000Y-71650000D02*
X239250000Y-72100000D01*
X230100000Y-82487499D02*
X229850000Y-82737499D01*
D60*
X242820000Y-72100000D02*
X241200000Y-72100000D01*
D59*
X228500000Y-83118569D02*
X228118930Y-82737499D01*
X228137501Y-87000000D02*
X228100000Y-86962499D01*
X228900000Y-86162499D02*
X228900000Y-83518569D01*
X236650001Y-70350000D02*
X236650001Y-71012499D01*
X243500000Y-83500000D02*
X242937501Y-84062499D01*
X229131070Y-82487499D02*
X228500000Y-83118569D01*
D61*
X230137499Y-82450000D02*
X230100000Y-82487499D01*
D59*
X245162500Y-83550000D02*
X243550000Y-83550000D01*
X228100000Y-86962499D02*
X228900000Y-86162499D01*
X226952670Y-82237499D02*
X227452670Y-82737499D01*
X243500000Y-83500000D02*
X242200000Y-82200000D01*
D60*
X241200000Y-76200000D02*
X241200000Y-76900000D01*
X241200000Y-72100000D02*
X241200000Y-72800000D01*
D59*
X239250000Y-72100000D02*
X241200000Y-72100000D01*
X226414200Y-82237499D02*
X226952670Y-82237499D01*
X243550000Y-83550000D02*
X243500000Y-83500000D01*
X242200000Y-82200000D02*
X240374998Y-82200000D01*
X242937501Y-84062499D02*
X241900000Y-84062499D01*
X228118930Y-82737499D02*
X227785800Y-82737499D01*
X237600000Y-71650000D02*
X237525000Y-71725000D01*
X228900000Y-83518569D02*
X228500000Y-83118569D01*
X228062497Y-87000002D02*
X228100000Y-86962499D01*
%TO.N,GND*%
X246500000Y-63600000D02*
X248550000Y-63600000D01*
X199900000Y-73306249D02*
X199900000Y-71893751D01*
X199250000Y-65400000D02*
X198172000Y-65400000D01*
D60*
X242820000Y-71300000D02*
X241400000Y-71300000D01*
X239000000Y-87300000D02*
X240000000Y-86300000D01*
D59*
X228000000Y-60900000D02*
X228362500Y-60537500D01*
D62*
X234286499Y-79126000D02*
X234998998Y-79126000D01*
D59*
X202200000Y-95634999D02*
X202230001Y-95665000D01*
X227800000Y-83751699D02*
X227785800Y-83737499D01*
D62*
X200500000Y-79271262D02*
X200771262Y-79271262D01*
D59*
X241900000Y-85937501D02*
X240362499Y-85937501D01*
X230682500Y-71682500D02*
X231600000Y-71682500D01*
X207544000Y-58928000D02*
X207544000Y-60265500D01*
X222675000Y-63325000D02*
X223250000Y-62750000D01*
X218500000Y-95800000D02*
X219900000Y-95800000D01*
X218100000Y-60500000D02*
X219450000Y-60500000D01*
X207544000Y-60265500D02*
X207531500Y-60278000D01*
X223950000Y-62725000D02*
X223250000Y-62725000D01*
X203500000Y-77700000D02*
X203500000Y-79500000D01*
X227900000Y-69800000D02*
X227900000Y-67000000D01*
D62*
X203200000Y-67750000D02*
X203200000Y-65800000D01*
D59*
X212880000Y-95682500D02*
X212762500Y-95800000D01*
D62*
X200771262Y-79271262D02*
X201000000Y-79500000D01*
D59*
X229400000Y-71300000D02*
X227900000Y-69800000D01*
X236700000Y-64600000D02*
X235175000Y-64600000D01*
D60*
X239000000Y-87300000D02*
X239000000Y-86400000D01*
D59*
X222800000Y-62000000D02*
X222800000Y-61675000D01*
X210306248Y-66500000D02*
X208893752Y-66500000D01*
D62*
X222950000Y-77627000D02*
X222577000Y-78000000D01*
D59*
X201700000Y-58200000D02*
X201700000Y-58900000D01*
X230225000Y-94825000D02*
X229100000Y-93700000D01*
D62*
X234998998Y-79126000D02*
X235698998Y-78426000D01*
D59*
X196873000Y-61722000D02*
X195834000Y-61722000D01*
X229600000Y-89400000D02*
X231050001Y-89400000D01*
X211600000Y-95734999D02*
X211630001Y-95765000D01*
D60*
X217400000Y-76406249D02*
X217400000Y-74912499D01*
D59*
X234700000Y-85400000D02*
X234700000Y-84100000D01*
D62*
X234386499Y-77326000D02*
X235186499Y-76526000D01*
D59*
X246300000Y-82650000D02*
X246000000Y-82650000D01*
X218500000Y-95800000D02*
X218500000Y-94040000D01*
X238949999Y-80150001D02*
X239000000Y-80100000D01*
X226400000Y-72317500D02*
X224617500Y-72317500D01*
X218500000Y-95800000D02*
X216690000Y-93990000D01*
X230300000Y-71300000D02*
X230682500Y-71682500D01*
X228000000Y-62700000D02*
X228000000Y-60900000D01*
X205200000Y-73406249D02*
X205200000Y-71993751D01*
D62*
X222950000Y-75550000D02*
X222000000Y-74600000D01*
X235548998Y-76526000D02*
X235698998Y-76376000D01*
D59*
X218500000Y-94040000D02*
X217960000Y-93500000D01*
D62*
X221950000Y-75350000D02*
X221950000Y-76500000D01*
D59*
X245120000Y-85550000D02*
X246300000Y-86730000D01*
X201000000Y-95634999D02*
X201030001Y-95665000D01*
X202200000Y-93365000D02*
X202200000Y-95634999D01*
D62*
X223200000Y-77500000D02*
X223950000Y-77500000D01*
D61*
X218760000Y-78700000D02*
X217960000Y-79500000D01*
D59*
X216690000Y-93990000D02*
X216690000Y-93500000D01*
D60*
X217400000Y-74912499D02*
X217412499Y-74900000D01*
D59*
X203500000Y-95634999D02*
X203530001Y-95665000D01*
D60*
X241200000Y-71300000D02*
X241200000Y-69700000D01*
D59*
X222600000Y-59800000D02*
X221762500Y-60637500D01*
X198172000Y-65400000D02*
X197612000Y-65960000D01*
X244450000Y-63600000D02*
X242787500Y-61937500D01*
X230550000Y-94825000D02*
X230225000Y-94825000D01*
X239200000Y-74200000D02*
X237725000Y-74200000D01*
X201700000Y-58900000D02*
X201699000Y-58901000D01*
D61*
X219100000Y-78700000D02*
X218760000Y-78700000D01*
D59*
X209700000Y-68100000D02*
X208693752Y-68100000D01*
X193793752Y-68100000D02*
X195206248Y-68100000D01*
X244850000Y-85550000D02*
X245120000Y-85550000D01*
D60*
X241200000Y-77800000D02*
X241200000Y-79400000D01*
D59*
X201400000Y-73306249D02*
X201400000Y-71893751D01*
D62*
X235186499Y-76526000D02*
X235548998Y-76526000D01*
D59*
X212880000Y-93500000D02*
X212880000Y-95682500D01*
X223250000Y-62750000D02*
X223250000Y-62725000D01*
D60*
X236650001Y-68075000D02*
X236650000Y-66550000D01*
D59*
X206804000Y-73389250D02*
X206804000Y-71976752D01*
X211600000Y-95734999D02*
X212697500Y-95734999D01*
X233100000Y-85400000D02*
X233100000Y-84100000D01*
D62*
X195500000Y-57760000D02*
X196334500Y-57760000D01*
D59*
X235686499Y-76363500D02*
X235698999Y-76376000D01*
D60*
X241300000Y-77700000D02*
X241200000Y-77800000D01*
D62*
X196334500Y-57760000D02*
X196436500Y-57658000D01*
D59*
X242787500Y-61937500D02*
X242787500Y-61500000D01*
X200731262Y-79271262D02*
X200960000Y-79500000D01*
X210300000Y-93465000D02*
X210300000Y-95734999D01*
D62*
X222950000Y-77250000D02*
X223200000Y-77500000D01*
D60*
X239000000Y-89125000D02*
X239000000Y-87300000D01*
X239000000Y-86400000D02*
X239100000Y-86300000D01*
D59*
X246000000Y-82650000D02*
X244850000Y-81500000D01*
X199600000Y-79900000D02*
X200228738Y-79271262D01*
X207531500Y-60278000D02*
X207531500Y-61425500D01*
X195300000Y-73206249D02*
X195300000Y-71793751D01*
X227800000Y-84700000D02*
X227800000Y-83751699D01*
X219450000Y-60500000D02*
X219462500Y-60487500D01*
X227900000Y-67000000D02*
X227700000Y-66800000D01*
X209069999Y-95769999D02*
X209100000Y-95800000D01*
X229829999Y-77670001D02*
X229800000Y-77700000D01*
X210300000Y-95734999D02*
X210330001Y-95765000D01*
D60*
X239000000Y-87200000D02*
X239000000Y-87300000D01*
D59*
X200228738Y-79271262D02*
X200500000Y-79271262D01*
X230100000Y-85400000D02*
X230100000Y-84062501D01*
X228100000Y-90100000D02*
X228100000Y-88837501D01*
X237525000Y-74400000D02*
X237525000Y-74549998D01*
X222800000Y-61675000D02*
X221762500Y-60637500D01*
D62*
X222950000Y-77250000D02*
X222950000Y-75550000D01*
X201000000Y-79500000D02*
X200960000Y-79500000D01*
D59*
X237725000Y-74200000D02*
X237525000Y-74400000D01*
D60*
X242820000Y-77700000D02*
X241300000Y-77700000D01*
D62*
X201600000Y-65400000D02*
X200400000Y-65400000D01*
D60*
X241400000Y-71300000D02*
X241200000Y-71100000D01*
D59*
X246500000Y-63600000D02*
X244450000Y-63600000D01*
X212697500Y-95734999D02*
X212762501Y-95800000D01*
X203500000Y-93365000D02*
X203500000Y-95634999D01*
D60*
X238100000Y-86300000D02*
X239000000Y-87200000D01*
D62*
X222577000Y-78000000D02*
X221950000Y-78000000D01*
D59*
X207531500Y-61425500D02*
X207229000Y-61728000D01*
D62*
X203200000Y-65800000D02*
X202200000Y-64800000D01*
D59*
X200228738Y-79271262D02*
X200731262Y-79271262D01*
X209069999Y-93500000D02*
X209069999Y-95769999D01*
X235636499Y-78488499D02*
X235698998Y-78426000D01*
X201000000Y-93365000D02*
X201000000Y-95634999D01*
X238949999Y-84000000D02*
X238949999Y-80150001D01*
X224617500Y-72317500D02*
X224600000Y-72300000D01*
D62*
X222950000Y-77250000D02*
X222950000Y-77627000D01*
D59*
X231050001Y-89400000D02*
X231700000Y-90049999D01*
X202692000Y-73282000D02*
X202692000Y-71582001D01*
X230300000Y-71300000D02*
X229400000Y-71300000D01*
X241212500Y-61500000D02*
X240000000Y-61500000D01*
X201699000Y-58901000D02*
X201699000Y-59182000D01*
X211600000Y-93465000D02*
X211600000Y-95734999D01*
X240362499Y-85937501D02*
X240000000Y-86300000D01*
X224025000Y-59800000D02*
X222600000Y-59800000D01*
X231212500Y-77700000D02*
X229800000Y-77700000D01*
%TO.N,Net-(U5-DEC1)*%
X207040500Y-67000000D02*
X207492500Y-66548000D01*
X205150000Y-67000000D02*
X207040500Y-67000000D01*
%TO.N,Net-(U2-BP)*%
X226300000Y-60750000D02*
X225825000Y-61225000D01*
X225825000Y-61225000D02*
X225825000Y-62775000D01*
%TO.N,+3V3*%
X216625000Y-95800000D02*
X215420000Y-94595000D01*
X203400000Y-71100000D02*
X202912000Y-70612000D01*
D62*
X243450000Y-88750000D02*
X246325000Y-88750000D01*
D59*
X201970999Y-69596000D02*
X201096000Y-69596000D01*
X206427000Y-57027000D02*
X206427000Y-56896000D01*
X200000000Y-68500000D02*
X200000000Y-67750000D01*
D61*
X235662499Y-58312499D02*
X235600000Y-58250000D01*
D59*
X202800000Y-61100000D02*
X202400000Y-60700000D01*
X197900000Y-60800000D02*
X197900000Y-61665000D01*
X226225000Y-77725000D02*
X228199998Y-77725000D01*
X202692000Y-70317001D02*
X201970999Y-69596000D01*
X214337502Y-95800000D02*
X215500000Y-95800000D01*
X205994000Y-58928000D02*
X205994000Y-60240500D01*
X207300000Y-57715500D02*
X208129500Y-56886000D01*
X207290000Y-68600000D02*
X207818000Y-68072000D01*
X231600001Y-73587500D02*
X229637498Y-73587500D01*
X202700000Y-74600000D02*
X203400000Y-73900000D01*
X201096000Y-69596000D02*
X200000000Y-68500000D01*
X202669000Y-57869000D02*
X202400000Y-57600000D01*
X202400000Y-60700000D02*
X202400000Y-59451000D01*
X207300000Y-57769000D02*
X206427000Y-56896000D01*
X198372000Y-61722000D02*
X199250000Y-62600000D01*
D62*
X243250000Y-88550000D02*
X243450000Y-88750000D01*
D59*
X204400000Y-67750000D02*
X207150000Y-67750000D01*
X205150000Y-62600000D02*
X205840500Y-62600000D01*
X229637498Y-73587500D02*
X228224998Y-75000000D01*
X202400000Y-59451000D02*
X202669000Y-59182000D01*
X228199998Y-77725000D02*
X228224998Y-77700000D01*
X203400000Y-73900000D02*
X203400000Y-71100000D01*
X207150000Y-67750000D02*
X207472000Y-68072000D01*
X230062499Y-61062499D02*
X230100000Y-61024998D01*
X207300000Y-58100000D02*
X207300000Y-57900000D01*
X207300000Y-58100000D02*
X207300000Y-57715500D01*
X227924999Y-77400001D02*
X228224997Y-77700000D01*
X229607498Y-72317500D02*
X228224998Y-73700000D01*
X197900000Y-61665000D02*
X197843000Y-61722000D01*
D61*
X235574999Y-59800000D02*
X234425001Y-59800000D01*
D59*
X230100000Y-61024998D02*
X230100000Y-61000000D01*
X205840500Y-62600000D02*
X205956500Y-62484000D01*
D61*
X235574999Y-61700000D02*
X234425001Y-61700000D01*
D59*
X228224998Y-73700000D02*
X228224998Y-71420498D01*
X202912000Y-70612000D02*
X202692000Y-70612000D01*
X226300000Y-92900000D02*
X226300000Y-94600000D01*
X202692000Y-70612000D02*
X202692000Y-70317001D01*
X205956500Y-61728000D02*
X205956500Y-62484000D01*
X235550000Y-58200000D02*
X235600000Y-58250000D01*
X205956500Y-60278000D02*
X205956500Y-61728000D01*
X208129500Y-57070500D02*
X208129500Y-56886000D01*
X215420000Y-94595000D02*
X215420000Y-93499999D01*
D61*
X235574999Y-58200000D02*
X234425001Y-58200000D01*
D59*
X197843000Y-61722000D02*
X198372000Y-61722000D01*
X206600000Y-68600000D02*
X207290000Y-68600000D01*
X207300000Y-58100000D02*
X207300000Y-57769000D01*
X215500000Y-95800000D02*
X216625000Y-95800000D01*
X202800000Y-61850000D02*
X202800000Y-61100000D01*
X205994000Y-60240500D02*
X205956500Y-60278000D01*
X207472000Y-68072000D02*
X207818000Y-68072000D01*
X228224998Y-77700000D02*
X228224998Y-75000000D01*
X227217000Y-70412500D02*
X226399999Y-70412500D01*
X202669000Y-59182000D02*
X202669000Y-57869000D01*
X231600000Y-72317500D02*
X229607498Y-72317500D01*
X228224998Y-71420498D02*
X227217000Y-70412500D01*
X228224998Y-75000000D02*
X228224998Y-73700000D01*
D60*
%TO.N,+BATT*%
X237175002Y-85200000D02*
X235125001Y-87250001D01*
D59*
X230462500Y-92400000D02*
X231686501Y-91175999D01*
D60*
X239899998Y-84800002D02*
X239500000Y-85200000D01*
D59*
X234949001Y-91175999D02*
X237000000Y-89125000D01*
X231686501Y-91175999D02*
X234949001Y-91175999D01*
D60*
X220200000Y-75800000D02*
X220200000Y-76400000D01*
X219287501Y-74900000D02*
X220187501Y-75800000D01*
X222049000Y-77101000D02*
X221950000Y-77101000D01*
D63*
X231700000Y-87250001D02*
X235125001Y-87250001D01*
D60*
X231200000Y-85700000D02*
X231600000Y-86100000D01*
X231600000Y-87150001D02*
X231700000Y-87250001D01*
D63*
X235125001Y-87250001D02*
X237000000Y-89125000D01*
D60*
X239500000Y-85200000D02*
X237175002Y-85200000D01*
D59*
X226414200Y-82737499D02*
X226081070Y-82737499D01*
D60*
X239899998Y-84000000D02*
X239899998Y-84800002D01*
X231600000Y-86100000D02*
X232000000Y-85700000D01*
X220187501Y-75800000D02*
X220200000Y-75800000D01*
X222049000Y-77300000D02*
X222049000Y-77101000D01*
D59*
X225500000Y-82156429D02*
X225500000Y-80900000D01*
X226081070Y-82737499D02*
X225500000Y-82156429D01*
D60*
X220200000Y-77300000D02*
X222049000Y-77300000D01*
X231600000Y-86100000D02*
X231600000Y-87150001D01*
D62*
%TO.N,Net-(U5-XC1)*%
X196926000Y-71645500D02*
X196613500Y-71645500D01*
X198624000Y-66806000D02*
X198830000Y-66600000D01*
X195326000Y-70357999D02*
X195800999Y-70357999D01*
X198830000Y-66600000D02*
X199250000Y-66600000D01*
X195800999Y-70357999D02*
X198624000Y-67534998D01*
X198624000Y-67534998D02*
X198624000Y-66806000D01*
X196613500Y-71645500D02*
X195326000Y-70358000D01*
%TO.N,/nRF52840 and LoRa/DEC4_6*%
X196621501Y-67792499D02*
X196621501Y-68072000D01*
D59*
X196850000Y-68072000D02*
X196621501Y-68072000D01*
D62*
X208304000Y-70358000D02*
X206804000Y-70358000D01*
D59*
X196621501Y-66319501D02*
X196596000Y-66294000D01*
D62*
X198614000Y-65800000D02*
X196621501Y-67792499D01*
D59*
X205206000Y-70357999D02*
X206804000Y-70358000D01*
X203874001Y-69025999D02*
X203599999Y-68751998D01*
X205206000Y-70357999D02*
X203874001Y-69025999D01*
X203599999Y-68751998D02*
X203599999Y-67750000D01*
D62*
X199250000Y-65800000D02*
X198614000Y-65800000D01*
D59*
X196621501Y-68072000D02*
X196621501Y-66319501D01*
D62*
%TO.N,Net-(U5-DEC3)*%
X197866000Y-67067611D02*
X198733612Y-66199999D01*
D59*
X201197734Y-70357999D02*
X201422000Y-70357999D01*
X199800000Y-69300000D02*
X200139735Y-69300000D01*
X197866000Y-67310000D02*
X197866000Y-67067611D01*
D62*
X198733612Y-66199999D02*
X199250000Y-66199999D01*
D59*
X200139735Y-69300000D02*
X201197734Y-70357999D01*
%TO.N,Net-(U5-XC2)*%
X199926000Y-70357998D02*
X199136000Y-69567998D01*
X199136000Y-69567998D02*
X199136000Y-67114000D01*
X199136000Y-67114000D02*
X199250000Y-67000000D01*
X198325999Y-70545499D02*
X199738499Y-70545499D01*
X199738499Y-70545499D02*
X199926000Y-70357998D01*
D62*
%TO.N,/Peripherals/RXLED*%
X229825000Y-67925000D02*
X229825000Y-70222545D01*
X229825000Y-70222545D02*
X230649955Y-71047500D01*
X238500000Y-55399998D02*
X236800000Y-53699998D01*
X230850000Y-66900000D02*
X229825000Y-67925000D01*
X230649955Y-71047500D02*
X231600000Y-71047500D01*
X231500000Y-66900000D02*
X230850000Y-66900000D01*
X236800000Y-53699998D02*
X236800000Y-53100000D01*
D59*
%TO.N,Net-(D1-A)*%
X240000000Y-56500000D02*
X240000000Y-55000000D01*
X237250000Y-58250000D02*
X238250000Y-58250000D01*
X238250000Y-58250000D02*
X240000000Y-56500000D01*
X240000000Y-55000000D02*
X238500000Y-53500000D01*
%TO.N,Net-(D2-A)*%
X240100000Y-57400000D02*
X237750000Y-59750000D01*
X241540000Y-53500001D02*
X242700000Y-54660001D01*
X242600000Y-57400000D02*
X240100000Y-57400000D01*
X242700000Y-57300000D02*
X242600000Y-57400000D01*
X242700000Y-54660001D02*
X242700000Y-57300000D01*
X237750000Y-59750000D02*
X237250000Y-59750000D01*
D62*
%TO.N,/Peripherals/TXLED*%
X224600000Y-74900000D02*
X226357500Y-74900000D01*
X226357500Y-74900000D02*
X226400000Y-74857500D01*
X241540000Y-55399999D02*
X240000000Y-53859999D01*
X240000000Y-53859999D02*
X240000000Y-53100000D01*
D59*
%TO.N,Net-(D3-A)*%
X248137500Y-84650000D02*
X248137500Y-82712500D01*
X248137500Y-82712500D02*
X248200000Y-82650000D01*
D60*
%TO.N,Net-(D4-A)*%
X232450000Y-92512500D02*
X232337500Y-92400000D01*
X232450000Y-94825000D02*
X232450000Y-92512500D01*
D59*
%TO.N,Net-(D5-A)*%
X248200000Y-88750000D02*
X248200000Y-86730000D01*
%TO.N,Net-(D6-K)*%
X225500000Y-88900000D02*
X223275000Y-88900000D01*
X223275000Y-88900000D02*
X223200000Y-88825000D01*
%TO.N,Net-(D7-A)*%
X198336498Y-57886502D02*
X196533000Y-59690000D01*
X198336498Y-57658000D02*
X198336498Y-57886502D01*
%TO.N,I2C_SDA*%
X215000000Y-56800000D02*
X214200000Y-57600000D01*
X205228000Y-56900000D02*
X205232000Y-56896000D01*
X213600000Y-61800000D02*
X213600000Y-62000000D01*
X200500000Y-57400000D02*
X200500000Y-61000000D01*
X204180000Y-55400000D02*
X204180000Y-55420000D01*
X202100000Y-55800000D02*
X200500000Y-57400000D01*
X200800001Y-61300001D02*
X200800001Y-61850000D01*
D62*
X222200000Y-71800000D02*
X223399000Y-72999000D01*
D59*
X204180000Y-55400000D02*
X205080000Y-54500000D01*
D62*
X223399000Y-72999000D02*
X223399000Y-75949000D01*
D59*
X203900000Y-56900000D02*
X205228000Y-56900000D01*
X214200000Y-57600000D02*
X213600000Y-58200000D01*
D62*
X222200000Y-70600000D02*
X222200000Y-71800000D01*
X223399000Y-75949000D02*
X223950000Y-76500000D01*
D59*
X200500000Y-61000000D02*
X200800001Y-61300001D01*
X217500000Y-56800000D02*
X215000000Y-56800000D01*
X204180000Y-55420000D02*
X203800000Y-55800000D01*
X217770000Y-54500000D02*
X217770000Y-56530000D01*
X217770000Y-56530000D02*
X217500000Y-56800000D01*
X203800000Y-55800000D02*
X202100000Y-55800000D01*
X213600000Y-62000000D02*
X214300000Y-62700000D01*
X213600000Y-58200000D02*
X213600000Y-61800000D01*
%TO.N,I2C_SCL*%
X207400000Y-56000000D02*
X207620000Y-55780000D01*
D62*
X224900000Y-75900000D02*
X224900000Y-76700000D01*
D59*
X204600000Y-56000000D02*
X207400000Y-56000000D01*
D62*
X223800000Y-72200000D02*
X223800000Y-75300000D01*
D59*
X220310000Y-54500000D02*
X220310000Y-56190000D01*
X215400000Y-57800000D02*
X214900000Y-58300000D01*
X214900000Y-58300000D02*
X214700000Y-58500000D01*
X204300000Y-56300000D02*
X204600000Y-56000000D01*
X201200000Y-61000000D02*
X201000000Y-60800000D01*
X201000000Y-60800000D02*
X201000000Y-57600000D01*
X201200000Y-61850000D02*
X201178000Y-61828000D01*
X202300000Y-56300000D02*
X204300000Y-56300000D01*
D62*
X224100000Y-75600000D02*
X224600000Y-75600000D01*
D59*
X207620000Y-55780000D02*
X207620000Y-54500000D01*
X219700000Y-56800000D02*
X218700000Y-57800000D01*
D62*
X224900000Y-76700000D02*
X224600000Y-77000000D01*
D59*
X217700000Y-57800000D02*
X215400000Y-57800000D01*
X201200000Y-61850000D02*
X201200000Y-61000000D01*
X220310000Y-56190000D02*
X219700000Y-56800000D01*
X214700000Y-58500000D02*
X214700000Y-60900000D01*
X209324500Y-56204500D02*
X209324500Y-56886000D01*
D62*
X223000000Y-70900000D02*
X223000000Y-71400000D01*
X222200000Y-69600000D02*
X223000000Y-70400000D01*
D59*
X214700000Y-61700000D02*
X215700000Y-62700000D01*
D62*
X224600000Y-75600000D02*
X224900000Y-75900000D01*
X223000000Y-70900000D02*
X223000000Y-70600000D01*
D59*
X214700000Y-60900000D02*
X214700000Y-61700000D01*
D62*
X223800000Y-75300000D02*
X224100000Y-75600000D01*
D59*
X218700000Y-57800000D02*
X217700000Y-57800000D01*
D62*
X224600000Y-77000000D02*
X223950000Y-77000000D01*
D59*
X201000000Y-57600000D02*
X202300000Y-56300000D01*
D62*
X223000000Y-71400000D02*
X223800000Y-72200000D01*
D59*
X207620000Y-54500000D02*
X209324500Y-56204500D01*
D62*
X223000000Y-70400000D02*
X223000000Y-70900000D01*
D59*
%TO.N,/nRF52840 and LoRa/LORA_SPI_CS*%
X209800000Y-63000000D02*
X213200000Y-66400000D01*
X213200000Y-66400000D02*
X213400000Y-66400000D01*
X205150000Y-63000000D02*
X209800000Y-63000000D01*
X209070000Y-79500000D02*
X209069999Y-77800000D01*
D62*
X209069999Y-77800000D02*
X209069999Y-79500000D01*
D59*
X213400000Y-73470000D02*
X212735000Y-74135000D01*
X212735000Y-74135000D02*
X209069999Y-77800000D01*
X213400000Y-68700000D02*
X213400000Y-73470000D01*
%TO.N,/nRF52840 and LoRa/SPI_SCK*%
X202399999Y-61349999D02*
X201703000Y-60653000D01*
X201703000Y-60300000D02*
X201700000Y-60303000D01*
X214700000Y-66600000D02*
X214700000Y-67300000D01*
X208900000Y-60800000D02*
X214700000Y-66600000D01*
X214600000Y-73540000D02*
X210340000Y-77800000D01*
X201703000Y-60653000D02*
X201703000Y-60300000D01*
X208900000Y-58700000D02*
X208900000Y-60800000D01*
X210340000Y-79500000D02*
X210340000Y-77800000D01*
X214600000Y-69800000D02*
X214600000Y-73540000D01*
X202399999Y-61850000D02*
X202399999Y-61349999D01*
D62*
%TO.N,/nRF52840 and LoRa/LORA_BUSY*%
X208700000Y-83700000D02*
X212600000Y-83700000D01*
X206200000Y-77300000D02*
X206200000Y-81200000D01*
X203800000Y-74900000D02*
X206200000Y-77300000D01*
X200800001Y-67750000D02*
X200800001Y-68700001D01*
X200800001Y-68700001D02*
X201300000Y-69200000D01*
X212600000Y-83700000D02*
X215420000Y-80880000D01*
X203800000Y-70700000D02*
X203800000Y-74900000D01*
X215420000Y-80880000D02*
X215420000Y-79500000D01*
X202300000Y-69200000D02*
X203800000Y-70700000D01*
X206200000Y-81200000D02*
X208700000Y-83700000D01*
X201300000Y-69200000D02*
X202300000Y-69200000D01*
D59*
%TO.N,/nRF52840 and LoRa/LORA_IRQ*%
X216100000Y-70000000D02*
X216100000Y-77210000D01*
X205150000Y-63400001D02*
X209500001Y-63400001D01*
X216100000Y-77210000D02*
X216690000Y-77800000D01*
X209500001Y-63400001D02*
X216100000Y-70000000D01*
X216690000Y-77800000D02*
X216690000Y-79500000D01*
%TO.N,/nRF52840 and LoRa/SPI_MISO*%
X204000000Y-60000000D02*
X204500000Y-59500000D01*
D62*
X212880000Y-77800000D02*
X212880000Y-79500000D01*
D59*
X204000000Y-61850000D02*
X204000000Y-60000000D01*
D62*
%TO.N,/nRF52840 and LoRa/LORA_NRST*%
X206900000Y-80900000D02*
X208700000Y-82700000D01*
X202500000Y-68800000D02*
X204200000Y-70500000D01*
X201200000Y-68500000D02*
X201500000Y-68800000D01*
X206900000Y-77200000D02*
X206900000Y-80900000D01*
X208700000Y-82700000D02*
X212200000Y-82700000D01*
X201500000Y-68800000D02*
X202500000Y-68800000D01*
X201200000Y-67750000D02*
X201200000Y-68500000D01*
X214150000Y-80750000D02*
X214150000Y-79500000D01*
X212200000Y-82700000D02*
X214150000Y-80750000D01*
X204200000Y-74500000D02*
X206900000Y-77200000D01*
X204200000Y-70500000D02*
X204200000Y-74500000D01*
D59*
%TO.N,/nRF52840 and LoRa/SPI_MOSI*%
X204400000Y-61000000D02*
X204700000Y-60700000D01*
D62*
X211610000Y-77800000D02*
X211610000Y-79500000D01*
D59*
X204400000Y-61850000D02*
X204400000Y-61000000D01*
X204700000Y-60700000D02*
X204700000Y-60300000D01*
%TO.N,Net-(J2-CC1)*%
X241999822Y-75574000D02*
X240426000Y-75574000D01*
X242175822Y-75750000D02*
X241999822Y-75574000D01*
X242820000Y-75750000D02*
X242175822Y-75750000D01*
X240426000Y-75574000D02*
X237574000Y-78426000D01*
D62*
%TO.N,/Power/USB_D+*%
X242549000Y-73750000D02*
X242820000Y-73750000D01*
X241944000Y-74482824D02*
X241944000Y-74007000D01*
X242250000Y-73701000D02*
X242500000Y-73701000D01*
X245125000Y-72906802D02*
X244256802Y-73775000D01*
X242820000Y-74750000D02*
X242211176Y-74750000D01*
X241944000Y-74007000D02*
X242250000Y-73701000D01*
X243707501Y-73775000D02*
X243682501Y-73750000D01*
X243425000Y-67000000D02*
X244288603Y-67000000D01*
X244256802Y-73775000D02*
X243707501Y-73775000D01*
X244288603Y-67000000D02*
X245125000Y-67836397D01*
X242500000Y-73701000D02*
X242549000Y-73750000D01*
X242211176Y-74750000D02*
X241944000Y-74482824D01*
X245125000Y-67836397D02*
X245125000Y-72906802D01*
X243682501Y-73750000D02*
X242820000Y-73750000D01*
%TO.N,/Power/USB_D-*%
X243707501Y-74225000D02*
X244443198Y-74225000D01*
X243682501Y-74250000D02*
X243707501Y-74225000D01*
X242820000Y-74250000D02*
X243682501Y-74250000D01*
X243428824Y-75250000D02*
X244509099Y-74169725D01*
X242820000Y-75250000D02*
X243428824Y-75250000D01*
X244443198Y-74225000D02*
X244509099Y-74159099D01*
X245575001Y-67650001D02*
X245575001Y-68306801D01*
X245575000Y-73093198D02*
X245575001Y-68306801D01*
X244509099Y-74169725D02*
X244509099Y-74159099D01*
X245575000Y-73093198D02*
X244509099Y-74159099D01*
X243425000Y-65500000D02*
X245575001Y-67650001D01*
D59*
%TO.N,Net-(J2-CC2)*%
X237574000Y-76376000D02*
X238524000Y-76376000D01*
X238524000Y-76376000D02*
X239835298Y-75064702D01*
X239835298Y-75064702D02*
X239835298Y-75050000D01*
X242820000Y-72750000D02*
X242135298Y-72750000D01*
X242135298Y-72750000D02*
X239835298Y-75050000D01*
D62*
%TO.N,SWD_IO*%
X196850000Y-62738000D02*
X196988000Y-62600000D01*
X196988000Y-62600000D02*
X198450000Y-62600000D01*
X198450000Y-62600000D02*
X198850000Y-63000000D01*
X198850000Y-63000000D02*
X199250000Y-63000000D01*
%TO.N,SWD_CLK*%
X197766001Y-63400001D02*
X197612000Y-63246000D01*
X199250000Y-63400001D02*
X197766001Y-63400001D01*
%TO.N,Net-(L2-Pad1)*%
X208304000Y-71933002D02*
X209804000Y-71933003D01*
D59*
%TO.N,Net-(U5-DCC)*%
X208788000Y-69342000D02*
X204978000Y-69342000D01*
X204000000Y-68364000D02*
X204000000Y-67750000D01*
X204978000Y-69342000D02*
X204000000Y-68364000D01*
X209804000Y-70358000D02*
X208788000Y-69342000D01*
%TO.N,Net-(U1-PR1)*%
X231600000Y-82450000D02*
X230850000Y-81700000D01*
X230850000Y-81700000D02*
X228323299Y-81700000D01*
X228323299Y-81700000D02*
X227785800Y-82237499D01*
X231600000Y-82450000D02*
X233100000Y-82450000D01*
%TO.N,Net-(U1-ST)*%
X226214198Y-83937501D02*
X226414200Y-83737499D01*
X224200000Y-83937501D02*
X226214198Y-83937501D01*
%TO.N,Net-(U6-~{RESET})*%
X234300000Y-68779348D02*
X233100000Y-69979348D01*
X233625000Y-65825000D02*
X234300000Y-66500000D01*
X233100000Y-72200000D02*
X232347500Y-72952500D01*
X234300000Y-66500000D02*
X234300000Y-68779348D01*
X233625000Y-64600000D02*
X233625000Y-65825000D01*
X232347500Y-72952500D02*
X231600000Y-72952500D01*
X233100000Y-69979348D02*
X233100000Y-72200000D01*
%TO.N,Net-(U4-PROG)*%
X234700000Y-82475000D02*
X237250000Y-82475000D01*
X237250000Y-82475000D02*
X238000000Y-81725000D01*
%TO.N,Net-(U4-STAT)*%
X221500000Y-87200000D02*
X223175000Y-87200000D01*
X223175000Y-87200000D02*
X223200000Y-87175000D01*
X237700000Y-84300000D02*
X236500000Y-84300000D01*
X238000000Y-84000000D02*
X237700000Y-84300000D01*
D62*
%TO.N,/nRF52840 and LoRa/LED*%
X203599999Y-61850000D02*
X203599999Y-58100001D01*
X203100000Y-57600002D02*
X203100000Y-56900000D01*
D59*
X199900000Y-58600000D02*
X198810000Y-59690000D01*
X199900000Y-57200000D02*
X199900000Y-58600000D01*
X198810000Y-59690000D02*
X198183000Y-59690000D01*
D62*
X203599999Y-58100001D02*
X203100000Y-57600002D01*
%TO.N,Net-(U5-~{RESET})*%
X203100000Y-60200000D02*
X203200000Y-60300000D01*
D59*
X236187501Y-63100000D02*
X237537501Y-61750000D01*
D62*
X246500000Y-62000000D02*
X244450000Y-62000000D01*
X244450000Y-62000000D02*
X244450000Y-61450000D01*
X244450000Y-61450000D02*
X243000000Y-60000000D01*
X239287501Y-60000000D02*
X243000000Y-60000000D01*
D59*
X203200000Y-61850000D02*
X203200000Y-60300000D01*
D62*
X237537501Y-61750000D02*
X239287501Y-60000000D01*
D59*
X233800000Y-63100000D02*
X236187501Y-63100000D01*
D62*
X246500000Y-62000000D02*
X248550000Y-62000000D01*
X203000000Y-60200000D02*
X203100000Y-60200000D01*
%TO.N,/Power/D_P*%
X240101000Y-66766100D02*
X240466100Y-66401000D01*
X239217100Y-69450000D02*
X240101000Y-68566100D01*
X240466100Y-66401000D02*
X241301000Y-66401000D01*
X241775000Y-66875000D02*
X241775000Y-67000000D01*
X237600000Y-70350000D02*
X238500000Y-69450000D01*
X240101000Y-68566100D02*
X240101000Y-66766100D01*
X241301000Y-66401000D02*
X241775000Y-66875000D01*
X238500000Y-69450000D02*
X239217100Y-69450000D01*
D59*
%TO.N,Net-(U5-ANT)*%
X197950000Y-65000000D02*
X197894264Y-65055736D01*
X197950000Y-65000000D02*
X197020786Y-65000000D01*
X197950000Y-65000000D02*
X199250000Y-64999999D01*
D62*
%TO.N,Net-(C30-Pad2)*%
X192200000Y-61815000D02*
X192200000Y-59900000D01*
D59*
%TO.N,UART_RXD*%
X214900000Y-64800000D02*
X221400000Y-64800000D01*
D62*
X232100000Y-66600000D02*
X229800000Y-64300000D01*
D59*
X207100001Y-64600001D02*
X207300000Y-64800000D01*
X205150000Y-64600001D02*
X206100001Y-64600001D01*
D62*
X231600000Y-69142500D02*
X232100000Y-68642500D01*
D59*
X206100001Y-64600001D02*
X207100001Y-64600001D01*
D62*
X232100000Y-68642500D02*
X232100000Y-66600000D01*
X229800000Y-64300000D02*
X222800000Y-64300000D01*
D59*
%TO.N,UART_TXD*%
X205150000Y-64200000D02*
X206200000Y-64200000D01*
D62*
X223200000Y-65567100D02*
X221632900Y-64000000D01*
X226400000Y-71047500D02*
X225047500Y-71047500D01*
X223200000Y-69200000D02*
X223200000Y-65567100D01*
X221632900Y-64000000D02*
X214600000Y-64000000D01*
D59*
X207100000Y-64200000D02*
X207300000Y-64000000D01*
D62*
X225047500Y-71047500D02*
X223200000Y-69200000D01*
D59*
X206200000Y-64200000D02*
X207100000Y-64200000D01*
D60*
%TO.N,/Power/V_SW*%
X222650000Y-82050000D02*
X224187501Y-82050000D01*
X219462500Y-58912500D02*
X221612500Y-58912500D01*
D62*
X223800000Y-94500000D02*
X223800000Y-92425000D01*
D59*
X225300000Y-59462501D02*
X224687499Y-58850000D01*
D60*
X224025000Y-58850000D02*
X221850000Y-58850000D01*
D62*
X220875000Y-89500000D02*
X220875000Y-82075000D01*
D60*
X222650000Y-82050000D02*
X220900000Y-82050000D01*
X217900000Y-58700000D02*
X219250000Y-58700000D01*
D59*
X225375000Y-83237499D02*
X224200000Y-82062499D01*
D62*
X220875000Y-82075000D02*
X220900000Y-82050000D01*
D60*
X221850000Y-58850000D02*
X221762500Y-58762500D01*
D59*
X225300000Y-60000000D02*
X225300000Y-59462501D01*
D60*
X219250000Y-58700000D02*
X219462500Y-58912500D01*
X221612500Y-58912500D02*
X221762500Y-58762500D01*
D59*
X224550000Y-60750000D02*
X225300000Y-60000000D01*
X224025000Y-60750000D02*
X224550000Y-60750000D01*
X224687499Y-58850000D02*
X224025000Y-58850000D01*
D60*
X217900000Y-58700000D02*
X216150000Y-58700000D01*
X224187501Y-82050000D02*
X224200000Y-82062499D01*
D59*
X227785800Y-83237499D02*
X226414200Y-83237499D01*
D62*
X223800000Y-92425000D02*
X220875000Y-89500000D01*
D59*
X226414200Y-83237499D02*
X225375000Y-83237499D01*
D62*
%TO.N,D+*%
X234125000Y-70193198D02*
X234978533Y-69339665D01*
X235700002Y-70350000D02*
X235700002Y-69659041D01*
X232000000Y-74857500D02*
X232092500Y-74765000D01*
X234125000Y-73193198D02*
X234125000Y-70193198D01*
X234978533Y-69339665D02*
X235380626Y-69339665D01*
X232092500Y-74765000D02*
X232553198Y-74765000D01*
X232553198Y-74765000D02*
X234125000Y-73193198D01*
X235700002Y-69659041D02*
X235380626Y-69339665D01*
X231600000Y-74857500D02*
X232000000Y-74857500D01*
%TO.N,D-*%
X233675000Y-73006802D02*
X233675000Y-70006802D01*
X232366802Y-74315000D02*
X233675000Y-73006802D01*
X235589665Y-68889665D02*
X235600000Y-68900000D01*
X234792137Y-68889665D02*
X235589665Y-68889665D01*
X233675000Y-70006802D02*
X234792137Y-68889665D01*
X235700002Y-68799998D02*
X235700002Y-68075000D01*
X235600000Y-68900000D02*
X235700002Y-68799998D01*
X232092500Y-74315000D02*
X232366802Y-74315000D01*
X231600000Y-74222500D02*
X232000000Y-74222500D01*
X232000000Y-74222500D02*
X232092500Y-74315000D01*
%TO.N,Net-(E1-Pad1)*%
X192200000Y-58930000D02*
X192200000Y-57800001D01*
D59*
%TO.N,Net-(U6-CBUS3)*%
X235875000Y-74400000D02*
X235875000Y-72700000D01*
X231600000Y-69777500D02*
X232450000Y-69777500D01*
X232450000Y-69777500D02*
X233400000Y-68827500D01*
X233400000Y-68827500D02*
X233400000Y-67100000D01*
X234600000Y-74400000D02*
X235875000Y-74400000D01*
D62*
%TO.N,/Power/D_N*%
X241300000Y-65975000D02*
X241775000Y-65500000D01*
X239700000Y-66600000D02*
X240300000Y-66000000D01*
X241300000Y-66000000D02*
X241300000Y-65975000D01*
X239100000Y-69000000D02*
X239700000Y-68400000D01*
X237600000Y-68075000D02*
X238500000Y-68975000D01*
X239700000Y-68400000D02*
X239700000Y-66600000D01*
X238500000Y-69000000D02*
X239100000Y-69000000D01*
X238500000Y-68975000D02*
X238500000Y-69000000D01*
X240300000Y-66000000D02*
X241300000Y-66000000D01*
D59*
%TO.N,P0.05*%
X205150000Y-65400000D02*
X206100000Y-65400000D01*
X212100000Y-73400000D02*
X209200000Y-76300000D01*
X212100000Y-72000000D02*
X212100000Y-73400000D01*
X209200000Y-76300000D02*
X207400000Y-76300000D01*
X206100000Y-65400000D02*
X206300000Y-65200000D01*
%TO.N,P0.04*%
X206000000Y-65800000D02*
X206300000Y-66100000D01*
X209200000Y-75200000D02*
X208800000Y-75600000D01*
X208800000Y-75600000D02*
X207100000Y-75600000D01*
X211400000Y-73000000D02*
X209200000Y-75200000D01*
X211400000Y-71500000D02*
X211400000Y-73000000D01*
X205150000Y-65800000D02*
X206000000Y-65800000D01*
X207100000Y-75600000D02*
X206700000Y-75600000D01*
D64*
%TO.N,/nRF52840 and LoRa/50\u03A9*%
X193214214Y-65000000D02*
X195712786Y-65000000D01*
X192492893Y-64692893D02*
X192507107Y-64707107D01*
X192200000Y-62785000D02*
X192200000Y-63985786D01*
X192200000Y-63985786D02*
G75*
G03*
X192492886Y-64692900I1000000J-14D01*
G01*
X192507107Y-64707107D02*
G75*
G03*
X193214214Y-64999990I707093J707107D01*
G01*
D62*
%TO.N,unconnected-(IC2-ANT-Pad21)*%
X202200000Y-79470000D02*
X202230000Y-79500000D01*
%TD*%
%TA.AperFunction,Conductor*%
%TO.N,+3V3*%
G36*
X231615677Y-57319685D02*
G01*
X231636319Y-57336319D01*
X232063681Y-57763681D01*
X232097166Y-57825004D01*
X232100000Y-57851362D01*
X232100000Y-61248638D01*
X232080315Y-61315677D01*
X232063681Y-61336319D01*
X231836319Y-61563681D01*
X231774996Y-61597166D01*
X231748638Y-61600000D01*
X229624000Y-61600000D01*
X229556961Y-61580315D01*
X229511206Y-61527511D01*
X229500000Y-61476000D01*
X229500000Y-61111481D01*
X229506293Y-61072480D01*
X229552587Y-60932775D01*
X229563000Y-60830848D01*
X229563000Y-60244152D01*
X229552587Y-60142225D01*
X229506294Y-60002521D01*
X229500000Y-59963517D01*
X229500000Y-59500000D01*
X229300000Y-59300000D01*
X228200000Y-59300000D01*
X228200000Y-58100000D01*
X227600000Y-58100000D01*
X228363681Y-57336319D01*
X228425004Y-57302834D01*
X228451362Y-57300000D01*
X231548638Y-57300000D01*
X231615677Y-57319685D01*
G37*
%TD.AperFunction*%
%TD*%
%TA.AperFunction,Conductor*%
%TO.N,GND*%
G36*
X191643039Y-59819685D02*
G01*
X191688794Y-59872489D01*
X191700000Y-59924000D01*
X191700000Y-63076000D01*
X191680315Y-63143039D01*
X191627511Y-63188794D01*
X191576000Y-63200000D01*
X190624500Y-63200000D01*
X190557461Y-63180315D01*
X190511706Y-63127511D01*
X190500500Y-63076000D01*
X190500500Y-59924000D01*
X190520185Y-59856961D01*
X190572989Y-59811206D01*
X190624500Y-59800000D01*
X191576000Y-59800000D01*
X191643039Y-59819685D01*
G37*
%TD.AperFunction*%
%TD*%
%TA.AperFunction,Conductor*%
%TO.N,+3V3*%
G36*
X228200000Y-59300000D02*
G01*
X225992581Y-59300000D01*
X225925542Y-59280315D01*
X225879787Y-59227511D01*
X225878020Y-59223453D01*
X225854312Y-59166218D01*
X225854311Y-59166215D01*
X225854309Y-59166212D01*
X225854307Y-59166208D01*
X225785858Y-59063768D01*
X225785855Y-59063764D01*
X225695637Y-58973546D01*
X225695606Y-58973517D01*
X225536319Y-58814230D01*
X225502834Y-58752907D01*
X225500000Y-58726549D01*
X225500000Y-58551362D01*
X225519685Y-58484323D01*
X225536319Y-58463681D01*
X225663681Y-58336319D01*
X225725004Y-58302834D01*
X225751362Y-58300000D01*
X227400000Y-58300000D01*
X227600000Y-58100000D01*
X228200000Y-58100000D01*
X228200000Y-59300000D01*
G37*
%TD.AperFunction*%
%TD*%
M02*
