%TF.GenerationSoftware,KiCad,Pcbnew,9.0.3*%
%TF.CreationDate,2025-07-24T10:50:38+02:00*%
%TF.ProjectId,LoRa_Project,4c6f5261-5f50-4726-9f6a-6563742e6b69,rev?*%
%TF.SameCoordinates,Original*%
%TF.FileFunction,Copper,L2,Inr*%
%TF.FilePolarity,Positive*%
%FSLAX46Y46*%
G04 Gerber Fmt 4.6, Leading zero omitted, Abs format (unit mm)*
G04 Created by KiCad (PCBNEW 9.0.3) date 2025-07-24 10:50:38*
%MOMM*%
%LPD*%
G01*
G04 APERTURE LIST*
%TA.AperFunction,ComponentPad*%
%ADD10R,1.700000X1.700000*%
%TD*%
%TA.AperFunction,ComponentPad*%
%ADD11C,1.700000*%
%TD*%
%TA.AperFunction,ComponentPad*%
%ADD12C,3.600000*%
%TD*%
%TA.AperFunction,HeatsinkPad*%
%ADD13C,0.500000*%
%TD*%
%TA.AperFunction,ViaPad*%
%ADD14C,0.600000*%
%TD*%
%TA.AperFunction,ViaPad*%
%ADD15C,1.000000*%
%TD*%
G04 APERTURE END LIST*
D10*
%TO.N,+3V3*%
%TO.C,J3*%
X212690000Y-54500000D03*
D11*
%TO.N,GND*%
X215230000Y-54500000D03*
%TO.N,I2C_SDA*%
X217770000Y-54500000D03*
%TO.N,I2C_SCL*%
X220310000Y-54500000D03*
%TD*%
D12*
%TO.N,GND*%
%TO.C,H3*%
X194000000Y-93000000D03*
%TD*%
D10*
%TO.N,+3V3*%
%TO.C,J7*%
X192900000Y-77216000D03*
D11*
%TO.N,GND*%
X192900000Y-79756000D03*
%TO.N,P0.04*%
X192900000Y-82296000D03*
%TO.N,P0.05*%
X192900000Y-84836000D03*
%TD*%
D13*
%TO.N,GND*%
%TO.C,U5*%
X204000000Y-66600000D03*
X204000000Y-65400000D03*
X204000000Y-64200000D03*
X204000000Y-63000000D03*
X202800000Y-66600000D03*
X202800000Y-65400000D03*
X202800000Y-64200000D03*
X202800000Y-63000000D03*
X201600000Y-66600000D03*
X201600000Y-65400000D03*
X201600000Y-64200000D03*
X201600000Y-63000000D03*
X200400000Y-66600000D03*
X200400000Y-65400000D03*
X200400000Y-64200000D03*
X200400000Y-63000000D03*
%TD*%
D12*
%TO.N,GND*%
%TO.C,H2*%
X245999999Y-56000001D03*
%TD*%
D10*
%TO.N,+3V3*%
%TO.C,J6*%
X225420001Y-54500000D03*
D11*
%TO.N,GND*%
X227960001Y-54500000D03*
%TO.N,SWD_CLK*%
X230500001Y-54500000D03*
%TO.N,SWD_IO*%
X233040001Y-54500000D03*
%TD*%
D10*
%TO.N,+3V3*%
%TO.C,J1*%
X200000000Y-54500000D03*
D11*
%TO.N,GND*%
X202540000Y-54500000D03*
%TO.N,I2C_SDA*%
X205080000Y-54500000D03*
%TO.N,I2C_SCL*%
X207620000Y-54500000D03*
%TD*%
D12*
%TO.N,GND*%
%TO.C,H4*%
X245999999Y-92999999D03*
%TD*%
D14*
%TO.N,GND*%
X195500000Y-57760000D03*
X195500000Y-52800000D03*
X195500000Y-54040000D03*
X195500000Y-55280000D03*
X195500000Y-56520000D03*
X195500000Y-59000000D03*
X195000000Y-60100000D03*
X194050000Y-60100000D03*
%TO.N,*%
X225000000Y-69800000D03*
%TO.N,VBUS*%
X241200000Y-76900000D03*
X241200000Y-72100000D03*
X241200000Y-72800000D03*
X229600000Y-87000000D03*
X241200000Y-76200000D03*
%TO.N,GND*%
X244850000Y-81500000D03*
X197612000Y-64008000D03*
X193793752Y-68100000D03*
X241200000Y-70500000D03*
X192000000Y-65100000D03*
X236700000Y-64600000D03*
X218100000Y-60500000D03*
X241200000Y-77800000D03*
X193100000Y-63300000D03*
X233100000Y-85400000D03*
X201000000Y-95634999D03*
X205200000Y-73406249D03*
X191300000Y-62500000D03*
X244850000Y-85550000D03*
X241200000Y-69700000D03*
X241200000Y-78600000D03*
X211600000Y-95734999D03*
X239100000Y-86300000D03*
X199900000Y-73306249D03*
X238100000Y-86300000D03*
X239000000Y-80100000D03*
X239200000Y-74200000D03*
X207544000Y-58928000D03*
X241200000Y-71300000D03*
X193700000Y-64200000D03*
X224600000Y-72300000D03*
X203500000Y-95634999D03*
X201700000Y-58200000D03*
X227800000Y-84700000D03*
X228000000Y-62700000D03*
X191300000Y-61700000D03*
X240000000Y-86300000D03*
X194500000Y-65800000D03*
X234286499Y-79126000D03*
X234386499Y-77326000D03*
X229600000Y-89400000D03*
X210306248Y-66500000D03*
X195300000Y-73206249D03*
X210300000Y-95734999D03*
X199600000Y-79900000D03*
X222800000Y-62000000D03*
X246500000Y-63600000D03*
X219900000Y-95800000D03*
X217400000Y-76406249D03*
X222675000Y-63325000D03*
X203500000Y-77700000D03*
X193100000Y-60900000D03*
X209700000Y-68100000D03*
X228100000Y-90100000D03*
X192800000Y-65700000D03*
X229100000Y-93700000D03*
X221950000Y-75350000D03*
X201400000Y-73306249D03*
X219100000Y-78700000D03*
X195834000Y-61722000D03*
X191300000Y-63300000D03*
X227700000Y-66800000D03*
X240000000Y-61500000D03*
X231212500Y-77700000D03*
X193100000Y-60100000D03*
X230100000Y-85400000D03*
X202200000Y-95634999D03*
X191600000Y-64200000D03*
X193100000Y-61700000D03*
X193100000Y-62500000D03*
X241200000Y-79400000D03*
X209069999Y-95769999D03*
X236650000Y-66550000D03*
X202692000Y-73282000D03*
X222000000Y-74600000D03*
X234700000Y-85400000D03*
X206804000Y-73389250D03*
X193700000Y-65800000D03*
X194500000Y-64200000D03*
%TO.N,+3V3*%
X234375000Y-59850000D03*
D15*
X230100000Y-59500000D03*
D14*
X215500000Y-95800000D03*
X207300000Y-58100000D03*
X234375000Y-61750000D03*
D15*
X230100000Y-61000000D03*
D14*
X226300000Y-92900000D03*
X197900000Y-60800000D03*
X202700000Y-74600000D03*
D15*
X231500000Y-61000000D03*
D14*
X234375000Y-58250000D03*
D15*
X230100000Y-58000000D03*
D14*
X243250000Y-88550000D03*
X205994000Y-58928000D03*
X202400000Y-57600000D03*
D15*
X231500000Y-58000000D03*
D14*
X226225000Y-77725000D03*
X206600000Y-68600000D03*
D15*
X231500000Y-59500000D03*
D14*
%TO.N,+BATT*%
X220200000Y-76400000D03*
X231200000Y-85700000D03*
X220200000Y-77300000D03*
X225500000Y-80900000D03*
X232000000Y-85700000D03*
%TO.N,/nRF52840 and LoRa/DEC4_6*%
X196596000Y-66294000D03*
X203874001Y-69025999D03*
%TO.N,Net-(U5-DEC3)*%
X199800000Y-69300000D03*
X197866000Y-67310000D03*
%TO.N,/Peripherals/RXLED*%
X231500000Y-66900000D03*
X236800000Y-53100000D03*
%TO.N,/Peripherals/TXLED*%
X240000000Y-53100000D03*
X224600000Y-74900000D03*
%TO.N,I2C_SDA*%
X203900000Y-56900000D03*
X222200000Y-70600000D03*
X214300000Y-62700000D03*
%TO.N,I2C_SCL*%
X222200000Y-69600000D03*
X215700000Y-62700000D03*
%TO.N,/nRF52840 and LoRa/LORA_SPI_CS*%
X213400000Y-68700000D03*
X213400000Y-66400000D03*
%TO.N,/nRF52840 and LoRa/SPI_SCK*%
X214600000Y-69800000D03*
X208900000Y-58700000D03*
X214700000Y-67300000D03*
X201703000Y-60300000D03*
%TO.N,/nRF52840 and LoRa/SPI_MISO*%
X204500000Y-59500000D03*
X212880000Y-77800000D03*
%TO.N,/nRF52840 and LoRa/SPI_MOSI*%
X211610000Y-77800000D03*
X204700000Y-60300000D03*
%TO.N,SWD_IO*%
X196850000Y-62738000D03*
%TO.N,SWD_CLK*%
X197612000Y-63246000D03*
%TO.N,Net-(U4-STAT)*%
X221500000Y-87200000D03*
X236500000Y-84300000D03*
%TO.N,/nRF52840 and LoRa/LED*%
X199900000Y-57200000D03*
X203100000Y-57000000D03*
%TO.N,Net-(U5-~{RESET})*%
X203100000Y-60200000D03*
X246500000Y-62000000D03*
X233800000Y-63100000D03*
%TO.N,UART_RXD*%
X222800000Y-64300000D03*
X214900000Y-64800000D03*
X207300000Y-64800000D03*
X221400000Y-64800000D03*
%TO.N,UART_TXD*%
X207300000Y-64000000D03*
X214600000Y-64000000D03*
%TO.N,/Power/V_SW*%
X222650000Y-82050000D03*
X216150000Y-58700000D03*
X221775000Y-82050000D03*
X220900000Y-82050000D03*
X217025000Y-58700000D03*
X217900000Y-58700000D03*
%TO.N,Net-(U6-CBUS3)*%
X233400000Y-67100000D03*
X234600000Y-74400000D03*
%TO.N,P0.05*%
X206300000Y-65200000D03*
X212100000Y-72000000D03*
X207400000Y-76300000D03*
%TO.N,P0.04*%
X211400000Y-71500000D03*
X206300000Y-66100000D03*
X206700000Y-75600000D03*
%TD*%
%TA.AperFunction,Conductor*%
%TO.N,GND*%
G36*
X236072871Y-52520185D02*
G01*
X236118626Y-52572989D01*
X236128570Y-52642147D01*
X236108933Y-52693392D01*
X236090610Y-52720812D01*
X236090602Y-52720827D01*
X236030264Y-52866498D01*
X236030261Y-52866510D01*
X235999500Y-53021153D01*
X235999500Y-53178846D01*
X236030261Y-53333489D01*
X236030264Y-53333501D01*
X236090602Y-53479172D01*
X236090609Y-53479185D01*
X236178210Y-53610288D01*
X236178213Y-53610292D01*
X236289707Y-53721786D01*
X236289711Y-53721789D01*
X236420814Y-53809390D01*
X236420827Y-53809397D01*
X236566498Y-53869735D01*
X236566503Y-53869737D01*
X236721153Y-53900499D01*
X236721156Y-53900500D01*
X236721158Y-53900500D01*
X236878844Y-53900500D01*
X236878845Y-53900499D01*
X237033497Y-53869737D01*
X237179179Y-53809394D01*
X237310289Y-53721789D01*
X237421789Y-53610289D01*
X237509394Y-53479179D01*
X237569737Y-53333497D01*
X237600500Y-53178842D01*
X237600500Y-53021158D01*
X237600500Y-53021155D01*
X237600499Y-53021153D01*
X237584172Y-52939071D01*
X237569737Y-52866503D01*
X237538332Y-52790683D01*
X237509397Y-52720827D01*
X237509389Y-52720812D01*
X237491067Y-52693392D01*
X237470188Y-52626715D01*
X237488672Y-52559334D01*
X237540650Y-52512644D01*
X237594168Y-52500500D01*
X239205832Y-52500500D01*
X239272871Y-52520185D01*
X239318626Y-52572989D01*
X239328570Y-52642147D01*
X239308933Y-52693392D01*
X239290610Y-52720812D01*
X239290602Y-52720827D01*
X239230264Y-52866498D01*
X239230261Y-52866510D01*
X239199500Y-53021153D01*
X239199500Y-53178846D01*
X239230261Y-53333489D01*
X239230264Y-53333501D01*
X239290602Y-53479172D01*
X239290609Y-53479185D01*
X239378210Y-53610288D01*
X239378213Y-53610292D01*
X239489707Y-53721786D01*
X239489711Y-53721789D01*
X239620814Y-53809390D01*
X239620827Y-53809397D01*
X239766498Y-53869735D01*
X239766503Y-53869737D01*
X239921153Y-53900499D01*
X239921156Y-53900500D01*
X239921158Y-53900500D01*
X240078844Y-53900500D01*
X240078845Y-53900499D01*
X240233497Y-53869737D01*
X240379179Y-53809394D01*
X240510289Y-53721789D01*
X240621789Y-53610289D01*
X240709394Y-53479179D01*
X240769737Y-53333497D01*
X240800500Y-53178842D01*
X240800500Y-53021158D01*
X240800500Y-53021155D01*
X240800499Y-53021153D01*
X240784172Y-52939071D01*
X240769737Y-52866503D01*
X240738332Y-52790683D01*
X240709397Y-52720827D01*
X240709389Y-52720812D01*
X240691067Y-52693392D01*
X240670188Y-52626715D01*
X240688672Y-52559334D01*
X240740650Y-52512644D01*
X240794168Y-52500500D01*
X246934108Y-52500500D01*
X246996249Y-52500500D01*
X247003736Y-52500726D01*
X247293796Y-52518271D01*
X247308657Y-52520075D01*
X247590798Y-52571780D01*
X247605335Y-52575363D01*
X247879172Y-52660695D01*
X247893163Y-52666000D01*
X248154743Y-52783727D01*
X248167989Y-52790680D01*
X248413465Y-52939075D01*
X248425776Y-52947573D01*
X248519697Y-53021155D01*
X248651573Y-53124473D01*
X248662781Y-53134403D01*
X248865596Y-53337218D01*
X248875526Y-53348426D01*
X249027586Y-53542517D01*
X249052422Y-53574217D01*
X249060926Y-53586537D01*
X249112405Y-53671694D01*
X249209316Y-53832004D01*
X249216275Y-53845263D01*
X249333997Y-54106831D01*
X249339306Y-54120832D01*
X249424635Y-54394663D01*
X249428219Y-54409201D01*
X249479923Y-54691340D01*
X249481728Y-54706205D01*
X249499274Y-54996263D01*
X249499500Y-55003750D01*
X249499500Y-93996249D01*
X249499274Y-94003736D01*
X249481728Y-94293794D01*
X249479923Y-94308659D01*
X249428219Y-94590798D01*
X249424635Y-94605336D01*
X249339306Y-94879167D01*
X249333997Y-94893168D01*
X249216275Y-95154736D01*
X249209316Y-95167995D01*
X249060928Y-95413459D01*
X249052422Y-95425782D01*
X248875526Y-95651573D01*
X248865596Y-95662781D01*
X248662781Y-95865596D01*
X248651573Y-95875526D01*
X248425782Y-96052422D01*
X248413459Y-96060928D01*
X248167995Y-96209316D01*
X248154736Y-96216275D01*
X247893168Y-96333997D01*
X247879167Y-96339306D01*
X247605336Y-96424635D01*
X247590798Y-96428219D01*
X247308659Y-96479923D01*
X247293794Y-96481728D01*
X247003736Y-96499274D01*
X246996249Y-96499500D01*
X216227350Y-96499500D01*
X216160311Y-96479815D01*
X216114556Y-96427011D01*
X216104612Y-96357853D01*
X216124248Y-96306609D01*
X216209390Y-96179185D01*
X216209390Y-96179184D01*
X216209394Y-96179179D01*
X216269737Y-96033497D01*
X216300500Y-95878842D01*
X216300500Y-95721158D01*
X216300500Y-95721155D01*
X216300499Y-95721153D01*
X216288888Y-95662781D01*
X216269737Y-95566503D01*
X216211449Y-95425782D01*
X216209397Y-95420827D01*
X216209390Y-95420814D01*
X216121789Y-95289711D01*
X216121786Y-95289707D01*
X216010292Y-95178213D01*
X216010288Y-95178210D01*
X215879185Y-95090609D01*
X215879172Y-95090602D01*
X215733501Y-95030264D01*
X215733489Y-95030261D01*
X215578845Y-94999500D01*
X215578842Y-94999500D01*
X215421158Y-94999500D01*
X215421155Y-94999500D01*
X215266510Y-95030261D01*
X215266498Y-95030264D01*
X215120827Y-95090602D01*
X215120814Y-95090609D01*
X214989711Y-95178210D01*
X214989707Y-95178213D01*
X214878213Y-95289707D01*
X214878210Y-95289711D01*
X214790609Y-95420814D01*
X214790602Y-95420827D01*
X214730264Y-95566498D01*
X214730261Y-95566510D01*
X214699500Y-95721153D01*
X214699500Y-95878846D01*
X214730261Y-96033489D01*
X214730264Y-96033501D01*
X214790602Y-96179172D01*
X214790609Y-96179185D01*
X214875752Y-96306609D01*
X214896630Y-96373286D01*
X214878146Y-96440666D01*
X214826167Y-96487357D01*
X214772650Y-96499500D01*
X193003751Y-96499500D01*
X192996264Y-96499274D01*
X192706205Y-96481728D01*
X192691340Y-96479923D01*
X192409201Y-96428219D01*
X192394663Y-96424635D01*
X192120832Y-96339306D01*
X192106831Y-96333997D01*
X191845263Y-96216275D01*
X191832004Y-96209316D01*
X191586540Y-96060928D01*
X191574217Y-96052422D01*
X191348426Y-95875526D01*
X191337218Y-95865596D01*
X191134403Y-95662781D01*
X191124473Y-95651573D01*
X190947573Y-95425776D01*
X190939075Y-95413465D01*
X190790680Y-95167989D01*
X190783727Y-95154743D01*
X190666000Y-94893163D01*
X190660693Y-94879167D01*
X190575364Y-94605336D01*
X190571780Y-94590798D01*
X190520076Y-94308659D01*
X190518271Y-94293794D01*
X190500726Y-94003736D01*
X190500500Y-93996249D01*
X190500500Y-92821153D01*
X225499500Y-92821153D01*
X225499500Y-92978846D01*
X225530261Y-93133489D01*
X225530264Y-93133501D01*
X225590602Y-93279172D01*
X225590609Y-93279185D01*
X225678210Y-93410288D01*
X225678213Y-93410292D01*
X225789707Y-93521786D01*
X225789711Y-93521789D01*
X225920814Y-93609390D01*
X225920827Y-93609397D01*
X226066498Y-93669735D01*
X226066503Y-93669737D01*
X226221153Y-93700499D01*
X226221156Y-93700500D01*
X226221158Y-93700500D01*
X226378844Y-93700500D01*
X226378845Y-93700499D01*
X226533497Y-93669737D01*
X226679179Y-93609394D01*
X226810289Y-93521789D01*
X226921789Y-93410289D01*
X227009394Y-93279179D01*
X227069737Y-93133497D01*
X227100500Y-92978842D01*
X227100500Y-92821158D01*
X227100500Y-92821155D01*
X227100499Y-92821153D01*
X227069738Y-92666510D01*
X227069737Y-92666503D01*
X227069735Y-92666498D01*
X227009397Y-92520827D01*
X227009390Y-92520814D01*
X226921789Y-92389711D01*
X226921786Y-92389707D01*
X226810292Y-92278213D01*
X226810288Y-92278210D01*
X226679185Y-92190609D01*
X226679172Y-92190602D01*
X226533501Y-92130264D01*
X226533489Y-92130261D01*
X226378845Y-92099500D01*
X226378842Y-92099500D01*
X226221158Y-92099500D01*
X226221155Y-92099500D01*
X226066510Y-92130261D01*
X226066498Y-92130264D01*
X225920827Y-92190602D01*
X225920814Y-92190609D01*
X225789711Y-92278210D01*
X225789707Y-92278213D01*
X225678213Y-92389707D01*
X225678210Y-92389711D01*
X225590609Y-92520814D01*
X225590602Y-92520827D01*
X225530264Y-92666498D01*
X225530261Y-92666510D01*
X225499500Y-92821153D01*
X190500500Y-92821153D01*
X190500500Y-88471153D01*
X242449500Y-88471153D01*
X242449500Y-88628846D01*
X242480261Y-88783489D01*
X242480264Y-88783501D01*
X242540602Y-88929172D01*
X242540609Y-88929185D01*
X242628210Y-89060288D01*
X242628213Y-89060292D01*
X242739707Y-89171786D01*
X242739711Y-89171789D01*
X242870814Y-89259390D01*
X242870827Y-89259397D01*
X243016498Y-89319735D01*
X243016503Y-89319737D01*
X243171153Y-89350499D01*
X243171156Y-89350500D01*
X243171158Y-89350500D01*
X243328844Y-89350500D01*
X243328845Y-89350499D01*
X243483497Y-89319737D01*
X243629179Y-89259394D01*
X243760289Y-89171789D01*
X243871789Y-89060289D01*
X243959394Y-88929179D01*
X244019737Y-88783497D01*
X244050500Y-88628842D01*
X244050500Y-88471158D01*
X244050500Y-88471155D01*
X244050499Y-88471153D01*
X244019738Y-88316510D01*
X244019737Y-88316503D01*
X244019735Y-88316498D01*
X243959397Y-88170827D01*
X243959390Y-88170814D01*
X243871789Y-88039711D01*
X243871786Y-88039707D01*
X243760292Y-87928213D01*
X243760288Y-87928210D01*
X243629185Y-87840609D01*
X243629172Y-87840602D01*
X243483501Y-87780264D01*
X243483489Y-87780261D01*
X243328845Y-87749500D01*
X243328842Y-87749500D01*
X243171158Y-87749500D01*
X243171155Y-87749500D01*
X243016510Y-87780261D01*
X243016498Y-87780264D01*
X242870827Y-87840602D01*
X242870814Y-87840609D01*
X242739711Y-87928210D01*
X242739707Y-87928213D01*
X242628213Y-88039707D01*
X242628210Y-88039711D01*
X242540609Y-88170814D01*
X242540602Y-88170827D01*
X242480264Y-88316498D01*
X242480261Y-88316510D01*
X242449500Y-88471153D01*
X190500500Y-88471153D01*
X190500500Y-87121153D01*
X220699500Y-87121153D01*
X220699500Y-87278846D01*
X220730261Y-87433489D01*
X220730264Y-87433501D01*
X220790602Y-87579172D01*
X220790609Y-87579185D01*
X220878210Y-87710288D01*
X220878213Y-87710292D01*
X220989707Y-87821786D01*
X220989711Y-87821789D01*
X221120814Y-87909390D01*
X221120827Y-87909397D01*
X221166254Y-87928213D01*
X221266503Y-87969737D01*
X221421153Y-88000499D01*
X221421156Y-88000500D01*
X221421158Y-88000500D01*
X221578844Y-88000500D01*
X221578845Y-88000499D01*
X221733497Y-87969737D01*
X221879179Y-87909394D01*
X222010289Y-87821789D01*
X222121789Y-87710289D01*
X222209394Y-87579179D01*
X222269737Y-87433497D01*
X222300500Y-87278842D01*
X222300500Y-87121158D01*
X222300500Y-87121155D01*
X222300499Y-87121153D01*
X222269737Y-86966503D01*
X222250955Y-86921158D01*
X222250953Y-86921153D01*
X228799500Y-86921153D01*
X228799500Y-87078846D01*
X228830261Y-87233489D01*
X228830264Y-87233501D01*
X228890602Y-87379172D01*
X228890609Y-87379185D01*
X228978210Y-87510288D01*
X228978213Y-87510292D01*
X229089707Y-87621786D01*
X229089711Y-87621789D01*
X229220814Y-87709390D01*
X229220827Y-87709397D01*
X229317646Y-87749500D01*
X229366503Y-87769737D01*
X229521153Y-87800499D01*
X229521156Y-87800500D01*
X229521158Y-87800500D01*
X229678844Y-87800500D01*
X229678845Y-87800499D01*
X229833497Y-87769737D01*
X229979179Y-87709394D01*
X230110289Y-87621789D01*
X230221789Y-87510289D01*
X230309394Y-87379179D01*
X230369737Y-87233497D01*
X230400500Y-87078842D01*
X230400500Y-86921158D01*
X230400500Y-86921155D01*
X230400499Y-86921153D01*
X230380543Y-86820827D01*
X230369737Y-86766503D01*
X230337929Y-86689711D01*
X230309397Y-86620827D01*
X230309390Y-86620814D01*
X230221789Y-86489711D01*
X230221786Y-86489707D01*
X230110292Y-86378213D01*
X230110288Y-86378210D01*
X229979185Y-86290609D01*
X229979172Y-86290602D01*
X229833501Y-86230264D01*
X229833489Y-86230261D01*
X229678845Y-86199500D01*
X229678842Y-86199500D01*
X229521158Y-86199500D01*
X229521155Y-86199500D01*
X229366510Y-86230261D01*
X229366498Y-86230264D01*
X229220827Y-86290602D01*
X229220814Y-86290609D01*
X229089711Y-86378210D01*
X229089707Y-86378213D01*
X228978213Y-86489707D01*
X228978210Y-86489711D01*
X228890609Y-86620814D01*
X228890602Y-86620827D01*
X228830264Y-86766498D01*
X228830261Y-86766510D01*
X228799500Y-86921153D01*
X222250953Y-86921153D01*
X222209397Y-86820827D01*
X222209390Y-86820814D01*
X222121789Y-86689711D01*
X222121786Y-86689707D01*
X222010292Y-86578213D01*
X222010288Y-86578210D01*
X221879185Y-86490609D01*
X221879172Y-86490602D01*
X221733501Y-86430264D01*
X221733489Y-86430261D01*
X221578845Y-86399500D01*
X221578842Y-86399500D01*
X221421158Y-86399500D01*
X221421155Y-86399500D01*
X221266510Y-86430261D01*
X221266498Y-86430264D01*
X221120827Y-86490602D01*
X221120814Y-86490609D01*
X220989711Y-86578210D01*
X220989707Y-86578213D01*
X220878213Y-86689707D01*
X220878210Y-86689711D01*
X220790609Y-86820814D01*
X220790602Y-86820827D01*
X220730264Y-86966498D01*
X220730261Y-86966510D01*
X220699500Y-87121153D01*
X190500500Y-87121153D01*
X190500500Y-82189713D01*
X191549500Y-82189713D01*
X191549500Y-82402286D01*
X191574525Y-82560292D01*
X191582754Y-82612243D01*
X191630567Y-82759397D01*
X191648444Y-82814414D01*
X191744951Y-83003820D01*
X191869890Y-83175786D01*
X192020213Y-83326109D01*
X192192182Y-83451050D01*
X192200946Y-83455516D01*
X192251742Y-83503491D01*
X192268536Y-83571312D01*
X192245998Y-83637447D01*
X192200946Y-83676484D01*
X192192182Y-83680949D01*
X192020213Y-83805890D01*
X191869890Y-83956213D01*
X191744951Y-84128179D01*
X191648444Y-84317585D01*
X191582753Y-84519760D01*
X191549500Y-84729713D01*
X191549500Y-84942286D01*
X191574558Y-85100500D01*
X191582754Y-85152243D01*
X191637526Y-85320814D01*
X191648444Y-85354414D01*
X191744951Y-85543820D01*
X191869890Y-85715786D01*
X192020213Y-85866109D01*
X192192179Y-85991048D01*
X192192181Y-85991049D01*
X192192184Y-85991051D01*
X192381588Y-86087557D01*
X192583757Y-86153246D01*
X192793713Y-86186500D01*
X192793714Y-86186500D01*
X193006286Y-86186500D01*
X193006287Y-86186500D01*
X193216243Y-86153246D01*
X193418412Y-86087557D01*
X193607816Y-85991051D01*
X193629789Y-85975086D01*
X193779786Y-85866109D01*
X193779788Y-85866106D01*
X193779792Y-85866104D01*
X193930104Y-85715792D01*
X193998863Y-85621153D01*
X230399500Y-85621153D01*
X230399500Y-85778846D01*
X230430261Y-85933489D01*
X230430264Y-85933501D01*
X230490602Y-86079172D01*
X230490609Y-86079185D01*
X230578210Y-86210288D01*
X230578213Y-86210292D01*
X230689707Y-86321786D01*
X230689711Y-86321789D01*
X230820814Y-86409390D01*
X230820827Y-86409397D01*
X230966498Y-86469735D01*
X230966503Y-86469737D01*
X231121153Y-86500499D01*
X231121156Y-86500500D01*
X231121158Y-86500500D01*
X231278844Y-86500500D01*
X231278845Y-86500499D01*
X231433497Y-86469737D01*
X231528794Y-86430264D01*
X231552548Y-86420425D01*
X231622017Y-86412956D01*
X231647452Y-86420425D01*
X231671206Y-86430264D01*
X231766503Y-86469737D01*
X231921153Y-86500499D01*
X231921156Y-86500500D01*
X231921158Y-86500500D01*
X232078844Y-86500500D01*
X232078845Y-86500499D01*
X232233497Y-86469737D01*
X232379179Y-86409394D01*
X232510289Y-86321789D01*
X232621789Y-86210289D01*
X232709394Y-86079179D01*
X232769737Y-85933497D01*
X232800500Y-85778842D01*
X232800500Y-85621158D01*
X232800500Y-85621155D01*
X232800499Y-85621153D01*
X232769737Y-85466503D01*
X232723308Y-85354412D01*
X232709397Y-85320827D01*
X232709390Y-85320814D01*
X232621789Y-85189711D01*
X232621786Y-85189707D01*
X232510292Y-85078213D01*
X232510288Y-85078210D01*
X232379185Y-84990609D01*
X232379172Y-84990602D01*
X232233501Y-84930264D01*
X232233489Y-84930261D01*
X232078845Y-84899500D01*
X232078842Y-84899500D01*
X231921158Y-84899500D01*
X231921155Y-84899500D01*
X231766510Y-84930261D01*
X231766498Y-84930264D01*
X231647452Y-84979574D01*
X231577982Y-84987043D01*
X231552548Y-84979574D01*
X231433501Y-84930264D01*
X231433489Y-84930261D01*
X231278845Y-84899500D01*
X231278842Y-84899500D01*
X231121158Y-84899500D01*
X231121155Y-84899500D01*
X230966510Y-84930261D01*
X230966498Y-84930264D01*
X230820827Y-84990602D01*
X230820814Y-84990609D01*
X230689711Y-85078210D01*
X230689707Y-85078213D01*
X230578213Y-85189707D01*
X230578210Y-85189711D01*
X230490609Y-85320814D01*
X230490602Y-85320827D01*
X230430264Y-85466498D01*
X230430261Y-85466510D01*
X230399500Y-85621153D01*
X193998863Y-85621153D01*
X194055051Y-85543816D01*
X194151557Y-85354412D01*
X194217246Y-85152243D01*
X194250500Y-84942287D01*
X194250500Y-84729713D01*
X194217246Y-84519757D01*
X194151557Y-84317588D01*
X194102421Y-84221153D01*
X235699500Y-84221153D01*
X235699500Y-84378846D01*
X235730261Y-84533489D01*
X235730264Y-84533501D01*
X235790602Y-84679172D01*
X235790609Y-84679185D01*
X235878210Y-84810288D01*
X235878213Y-84810292D01*
X235989707Y-84921786D01*
X235989711Y-84921789D01*
X236120814Y-85009390D01*
X236120827Y-85009397D01*
X236266498Y-85069735D01*
X236266503Y-85069737D01*
X236421153Y-85100499D01*
X236421156Y-85100500D01*
X236421158Y-85100500D01*
X236578844Y-85100500D01*
X236578845Y-85100499D01*
X236733497Y-85069737D01*
X236879179Y-85009394D01*
X237010289Y-84921789D01*
X237121789Y-84810289D01*
X237209394Y-84679179D01*
X237269737Y-84533497D01*
X237300500Y-84378842D01*
X237300500Y-84221158D01*
X237300500Y-84221155D01*
X237300499Y-84221153D01*
X237269738Y-84066510D01*
X237269737Y-84066503D01*
X237224052Y-83956208D01*
X237209397Y-83920827D01*
X237209390Y-83920814D01*
X237121789Y-83789711D01*
X237121786Y-83789707D01*
X237010292Y-83678213D01*
X237010288Y-83678210D01*
X236879185Y-83590609D01*
X236879172Y-83590602D01*
X236733501Y-83530264D01*
X236733489Y-83530261D01*
X236578845Y-83499500D01*
X236578842Y-83499500D01*
X236421158Y-83499500D01*
X236421155Y-83499500D01*
X236266510Y-83530261D01*
X236266498Y-83530264D01*
X236120827Y-83590602D01*
X236120814Y-83590609D01*
X235989711Y-83678210D01*
X235989707Y-83678213D01*
X235878213Y-83789707D01*
X235878210Y-83789711D01*
X235790609Y-83920814D01*
X235790602Y-83920827D01*
X235730264Y-84066498D01*
X235730261Y-84066510D01*
X235699500Y-84221153D01*
X194102421Y-84221153D01*
X194055051Y-84128184D01*
X194055049Y-84128181D01*
X194055048Y-84128179D01*
X193930109Y-83956213D01*
X193779786Y-83805890D01*
X193607820Y-83680951D01*
X193602440Y-83678210D01*
X193599054Y-83676485D01*
X193548259Y-83628512D01*
X193531463Y-83560692D01*
X193553999Y-83494556D01*
X193599054Y-83455515D01*
X193607816Y-83451051D01*
X193629789Y-83435086D01*
X193779786Y-83326109D01*
X193779788Y-83326106D01*
X193779792Y-83326104D01*
X193930104Y-83175792D01*
X193930106Y-83175788D01*
X193930109Y-83175786D01*
X194055048Y-83003820D01*
X194055047Y-83003820D01*
X194055051Y-83003816D01*
X194151557Y-82814412D01*
X194217246Y-82612243D01*
X194250500Y-82402287D01*
X194250500Y-82189713D01*
X194217246Y-81979757D01*
X194214450Y-81971153D01*
X220099500Y-81971153D01*
X220099500Y-82128846D01*
X220130261Y-82283489D01*
X220130264Y-82283501D01*
X220190602Y-82429172D01*
X220190609Y-82429185D01*
X220278210Y-82560288D01*
X220278213Y-82560292D01*
X220389707Y-82671786D01*
X220389711Y-82671789D01*
X220520814Y-82759390D01*
X220520827Y-82759397D01*
X220653647Y-82814412D01*
X220666503Y-82819737D01*
X220821153Y-82850499D01*
X220821156Y-82850500D01*
X220821158Y-82850500D01*
X220978844Y-82850500D01*
X220978845Y-82850499D01*
X221133497Y-82819737D01*
X221189120Y-82796697D01*
X221284808Y-82757063D01*
X221285266Y-82758170D01*
X221347447Y-82745223D01*
X221389929Y-82757696D01*
X221390192Y-82757063D01*
X221528647Y-82814412D01*
X221541503Y-82819737D01*
X221696153Y-82850499D01*
X221696156Y-82850500D01*
X221696158Y-82850500D01*
X221853844Y-82850500D01*
X221853845Y-82850499D01*
X222008497Y-82819737D01*
X222064120Y-82796697D01*
X222159808Y-82757063D01*
X222160266Y-82758170D01*
X222222447Y-82745223D01*
X222264929Y-82757696D01*
X222265192Y-82757063D01*
X222403647Y-82814412D01*
X222416503Y-82819737D01*
X222571153Y-82850499D01*
X222571156Y-82850500D01*
X222571158Y-82850500D01*
X222728844Y-82850500D01*
X222728845Y-82850499D01*
X222883497Y-82819737D01*
X223029179Y-82759394D01*
X223160289Y-82671789D01*
X223271789Y-82560289D01*
X223359394Y-82429179D01*
X223419737Y-82283497D01*
X223450500Y-82128842D01*
X223450500Y-81971158D01*
X223450500Y-81971155D01*
X223450499Y-81971153D01*
X223419738Y-81816510D01*
X223419737Y-81816503D01*
X223403617Y-81777585D01*
X223359397Y-81670827D01*
X223359390Y-81670814D01*
X223271789Y-81539711D01*
X223271786Y-81539707D01*
X223160292Y-81428213D01*
X223160288Y-81428210D01*
X223029185Y-81340609D01*
X223029172Y-81340602D01*
X222883501Y-81280264D01*
X222883489Y-81280261D01*
X222728845Y-81249500D01*
X222728842Y-81249500D01*
X222571158Y-81249500D01*
X222571155Y-81249500D01*
X222416510Y-81280261D01*
X222416498Y-81280264D01*
X222265193Y-81342937D01*
X222264734Y-81341831D01*
X222202544Y-81354777D01*
X222160068Y-81342304D01*
X222159807Y-81342937D01*
X222008501Y-81280264D01*
X222008489Y-81280261D01*
X221853845Y-81249500D01*
X221853842Y-81249500D01*
X221696158Y-81249500D01*
X221696155Y-81249500D01*
X221541510Y-81280261D01*
X221541498Y-81280264D01*
X221390193Y-81342937D01*
X221389734Y-81341831D01*
X221327544Y-81354777D01*
X221285068Y-81342304D01*
X221284807Y-81342937D01*
X221133501Y-81280264D01*
X221133489Y-81280261D01*
X220978845Y-81249500D01*
X220978842Y-81249500D01*
X220821158Y-81249500D01*
X220821155Y-81249500D01*
X220666510Y-81280261D01*
X220666498Y-81280264D01*
X220520827Y-81340602D01*
X220520814Y-81340609D01*
X220389711Y-81428210D01*
X220389707Y-81428213D01*
X220278213Y-81539707D01*
X220278210Y-81539711D01*
X220190609Y-81670814D01*
X220190602Y-81670827D01*
X220130264Y-81816498D01*
X220130261Y-81816510D01*
X220099500Y-81971153D01*
X194214450Y-81971153D01*
X194151557Y-81777588D01*
X194055051Y-81588184D01*
X194055049Y-81588181D01*
X194055048Y-81588179D01*
X193930109Y-81416213D01*
X193779786Y-81265890D01*
X193607820Y-81140951D01*
X193418414Y-81044444D01*
X193418413Y-81044443D01*
X193418412Y-81044443D01*
X193216243Y-80978754D01*
X193216241Y-80978753D01*
X193216240Y-80978753D01*
X193054957Y-80953208D01*
X193006287Y-80945500D01*
X192793713Y-80945500D01*
X192745042Y-80953208D01*
X192583760Y-80978753D01*
X192381585Y-81044444D01*
X192192179Y-81140951D01*
X192020213Y-81265890D01*
X191869890Y-81416213D01*
X191744951Y-81588179D01*
X191648444Y-81777585D01*
X191582753Y-81979760D01*
X191549500Y-82189713D01*
X190500500Y-82189713D01*
X190500500Y-80821153D01*
X224699500Y-80821153D01*
X224699500Y-80978846D01*
X224730261Y-81133489D01*
X224730264Y-81133501D01*
X224790602Y-81279172D01*
X224790609Y-81279185D01*
X224878210Y-81410288D01*
X224878213Y-81410292D01*
X224989707Y-81521786D01*
X224989711Y-81521789D01*
X225120814Y-81609390D01*
X225120827Y-81609397D01*
X225266498Y-81669735D01*
X225266503Y-81669737D01*
X225421153Y-81700499D01*
X225421156Y-81700500D01*
X225421158Y-81700500D01*
X225578844Y-81700500D01*
X225578845Y-81700499D01*
X225733497Y-81669737D01*
X225879179Y-81609394D01*
X226010289Y-81521789D01*
X226121789Y-81410289D01*
X226209394Y-81279179D01*
X226214899Y-81265890D01*
X226269735Y-81133501D01*
X226269737Y-81133497D01*
X226300500Y-80978842D01*
X226300500Y-80821158D01*
X226300500Y-80821155D01*
X226300499Y-80821153D01*
X226269738Y-80666510D01*
X226269737Y-80666503D01*
X226269735Y-80666498D01*
X226209397Y-80520827D01*
X226209390Y-80520814D01*
X226121789Y-80389711D01*
X226121786Y-80389707D01*
X226010292Y-80278213D01*
X226010288Y-80278210D01*
X225879185Y-80190609D01*
X225879172Y-80190602D01*
X225733501Y-80130264D01*
X225733489Y-80130261D01*
X225578845Y-80099500D01*
X225578842Y-80099500D01*
X225421158Y-80099500D01*
X225421155Y-80099500D01*
X225266510Y-80130261D01*
X225266498Y-80130264D01*
X225120827Y-80190602D01*
X225120814Y-80190609D01*
X224989711Y-80278210D01*
X224989707Y-80278213D01*
X224878213Y-80389707D01*
X224878210Y-80389711D01*
X224790609Y-80520814D01*
X224790602Y-80520827D01*
X224730264Y-80666498D01*
X224730261Y-80666510D01*
X224699500Y-80821153D01*
X190500500Y-80821153D01*
X190500500Y-76318135D01*
X191549500Y-76318135D01*
X191549500Y-78113870D01*
X191549501Y-78113876D01*
X191555908Y-78173483D01*
X191606202Y-78308328D01*
X191606206Y-78308335D01*
X191692452Y-78423544D01*
X191692455Y-78423547D01*
X191807664Y-78509793D01*
X191807671Y-78509797D01*
X191942517Y-78560091D01*
X191942516Y-78560091D01*
X191949444Y-78560835D01*
X192002127Y-78566500D01*
X193797872Y-78566499D01*
X193857483Y-78560091D01*
X193992331Y-78509796D01*
X194107546Y-78423546D01*
X194193796Y-78308331D01*
X194244091Y-78173483D01*
X194250500Y-78113873D01*
X194250500Y-77721153D01*
X210809500Y-77721153D01*
X210809500Y-77878846D01*
X210840261Y-78033489D01*
X210840264Y-78033501D01*
X210900602Y-78179172D01*
X210900609Y-78179185D01*
X210988210Y-78310288D01*
X210988213Y-78310292D01*
X211099707Y-78421786D01*
X211099711Y-78421789D01*
X211230814Y-78509390D01*
X211230827Y-78509397D01*
X211368688Y-78566500D01*
X211376503Y-78569737D01*
X211531153Y-78600499D01*
X211531156Y-78600500D01*
X211531158Y-78600500D01*
X211688844Y-78600500D01*
X211688845Y-78600499D01*
X211843497Y-78569737D01*
X211988206Y-78509797D01*
X211989172Y-78509397D01*
X211989172Y-78509396D01*
X211989179Y-78509394D01*
X212120289Y-78421789D01*
X212120292Y-78421786D01*
X212157319Y-78384760D01*
X212218642Y-78351275D01*
X212288334Y-78356259D01*
X212332681Y-78384760D01*
X212369707Y-78421786D01*
X212369711Y-78421789D01*
X212500814Y-78509390D01*
X212500827Y-78509397D01*
X212638688Y-78566500D01*
X212646503Y-78569737D01*
X212801153Y-78600499D01*
X212801156Y-78600500D01*
X212801158Y-78600500D01*
X212958844Y-78600500D01*
X212958845Y-78600499D01*
X213113497Y-78569737D01*
X213258206Y-78509797D01*
X213259172Y-78509397D01*
X213259172Y-78509396D01*
X213259179Y-78509394D01*
X213390289Y-78421789D01*
X213501789Y-78310289D01*
X213589394Y-78179179D01*
X213649737Y-78033497D01*
X213680500Y-77878842D01*
X213680500Y-77721158D01*
X213680500Y-77721155D01*
X213680499Y-77721153D01*
X213658269Y-77609397D01*
X213649737Y-77566503D01*
X213618674Y-77491510D01*
X213589397Y-77420827D01*
X213589390Y-77420814D01*
X213501789Y-77289711D01*
X213501786Y-77289707D01*
X213390292Y-77178213D01*
X213390288Y-77178210D01*
X213259185Y-77090609D01*
X213259172Y-77090602D01*
X213113501Y-77030264D01*
X213113489Y-77030261D01*
X212958845Y-76999500D01*
X212958842Y-76999500D01*
X212801158Y-76999500D01*
X212801155Y-76999500D01*
X212646510Y-77030261D01*
X212646498Y-77030264D01*
X212500827Y-77090602D01*
X212500814Y-77090609D01*
X212369711Y-77178210D01*
X212369707Y-77178213D01*
X212332681Y-77215240D01*
X212271358Y-77248725D01*
X212201666Y-77243741D01*
X212157319Y-77215240D01*
X212120292Y-77178213D01*
X212120288Y-77178210D01*
X211989185Y-77090609D01*
X211989172Y-77090602D01*
X211843501Y-77030264D01*
X211843489Y-77030261D01*
X211688845Y-76999500D01*
X211688842Y-76999500D01*
X211531158Y-76999500D01*
X211531155Y-76999500D01*
X211376510Y-77030261D01*
X211376498Y-77030264D01*
X211230827Y-77090602D01*
X211230814Y-77090609D01*
X211099711Y-77178210D01*
X211099707Y-77178213D01*
X210988213Y-77289707D01*
X210988210Y-77289711D01*
X210900609Y-77420814D01*
X210900602Y-77420827D01*
X210840264Y-77566498D01*
X210840261Y-77566510D01*
X210809500Y-77721153D01*
X194250500Y-77721153D01*
X194250499Y-77215240D01*
X194250499Y-76318129D01*
X194250498Y-76318123D01*
X194250497Y-76318116D01*
X194244091Y-76258517D01*
X194230392Y-76221789D01*
X194193797Y-76123671D01*
X194193793Y-76123664D01*
X194107547Y-76008455D01*
X194107544Y-76008452D01*
X193992335Y-75922206D01*
X193992328Y-75922202D01*
X193857482Y-75871908D01*
X193857483Y-75871908D01*
X193797883Y-75865501D01*
X193797881Y-75865500D01*
X193797873Y-75865500D01*
X193797864Y-75865500D01*
X192002129Y-75865500D01*
X192002123Y-75865501D01*
X191942516Y-75871908D01*
X191807671Y-75922202D01*
X191807664Y-75922206D01*
X191692455Y-76008452D01*
X191692452Y-76008455D01*
X191606206Y-76123664D01*
X191606202Y-76123671D01*
X191555908Y-76258517D01*
X191549501Y-76318116D01*
X191549501Y-76318123D01*
X191549500Y-76318135D01*
X190500500Y-76318135D01*
X190500500Y-75521153D01*
X205899500Y-75521153D01*
X205899500Y-75678846D01*
X205930261Y-75833489D01*
X205930264Y-75833501D01*
X205990602Y-75979172D01*
X205990609Y-75979185D01*
X206078210Y-76110288D01*
X206078213Y-76110292D01*
X206189707Y-76221786D01*
X206189711Y-76221789D01*
X206320814Y-76309390D01*
X206320827Y-76309397D01*
X206430082Y-76354651D01*
X206466503Y-76369737D01*
X206521831Y-76380742D01*
X206583740Y-76413126D01*
X206618315Y-76473841D01*
X206619256Y-76478166D01*
X206630261Y-76533492D01*
X206630264Y-76533501D01*
X206690602Y-76679172D01*
X206690609Y-76679185D01*
X206778210Y-76810288D01*
X206778213Y-76810292D01*
X206889707Y-76921786D01*
X206889711Y-76921789D01*
X207020814Y-77009390D01*
X207020827Y-77009397D01*
X207158683Y-77066498D01*
X207166503Y-77069737D01*
X207308761Y-77098034D01*
X207321153Y-77100499D01*
X207321156Y-77100500D01*
X207321158Y-77100500D01*
X207478844Y-77100500D01*
X207478845Y-77100499D01*
X207633497Y-77069737D01*
X207764182Y-77015606D01*
X207779172Y-77009397D01*
X207779172Y-77009396D01*
X207779179Y-77009394D01*
X207910289Y-76921789D01*
X208021789Y-76810289D01*
X208109394Y-76679179D01*
X208169737Y-76533497D01*
X208200500Y-76378842D01*
X208200500Y-76321153D01*
X219399500Y-76321153D01*
X219399500Y-76478846D01*
X219430261Y-76633489D01*
X219430264Y-76633501D01*
X219490604Y-76779177D01*
X219490605Y-76779179D01*
X219491899Y-76781115D01*
X219492264Y-76782282D01*
X219493476Y-76784549D01*
X219493045Y-76784778D01*
X219512773Y-76847794D01*
X219494285Y-76915173D01*
X219491899Y-76918885D01*
X219490605Y-76920820D01*
X219490604Y-76920822D01*
X219430264Y-77066498D01*
X219430261Y-77066510D01*
X219399500Y-77221153D01*
X219399500Y-77378846D01*
X219430261Y-77533489D01*
X219430264Y-77533501D01*
X219490602Y-77679172D01*
X219490609Y-77679185D01*
X219578210Y-77810288D01*
X219578213Y-77810292D01*
X219689707Y-77921786D01*
X219689711Y-77921789D01*
X219820814Y-78009390D01*
X219820827Y-78009397D01*
X219966498Y-78069735D01*
X219966503Y-78069737D01*
X220121153Y-78100499D01*
X220121156Y-78100500D01*
X220121158Y-78100500D01*
X220278844Y-78100500D01*
X220278845Y-78100499D01*
X220433497Y-78069737D01*
X220579179Y-78009394D01*
X220710289Y-77921789D01*
X220821789Y-77810289D01*
X220909394Y-77679179D01*
X220923074Y-77646153D01*
X225424500Y-77646153D01*
X225424500Y-77803846D01*
X225455261Y-77958489D01*
X225455264Y-77958501D01*
X225515602Y-78104172D01*
X225515609Y-78104185D01*
X225603210Y-78235288D01*
X225603213Y-78235292D01*
X225714707Y-78346786D01*
X225714711Y-78346789D01*
X225845814Y-78434390D01*
X225845827Y-78434397D01*
X225991498Y-78494735D01*
X225991503Y-78494737D01*
X226146153Y-78525499D01*
X226146156Y-78525500D01*
X226146158Y-78525500D01*
X226303844Y-78525500D01*
X226303845Y-78525499D01*
X226458497Y-78494737D01*
X226604179Y-78434394D01*
X226735289Y-78346789D01*
X226846789Y-78235289D01*
X226934394Y-78104179D01*
X226994737Y-77958497D01*
X227025500Y-77803842D01*
X227025500Y-77646158D01*
X227025500Y-77646155D01*
X227025499Y-77646153D01*
X227009657Y-77566510D01*
X226994737Y-77491503D01*
X226994735Y-77491498D01*
X226934397Y-77345827D01*
X226934390Y-77345814D01*
X226846789Y-77214711D01*
X226846786Y-77214707D01*
X226735292Y-77103213D01*
X226735288Y-77103210D01*
X226604185Y-77015609D01*
X226604172Y-77015602D01*
X226458501Y-76955264D01*
X226458489Y-76955261D01*
X226303845Y-76924500D01*
X226303842Y-76924500D01*
X226146158Y-76924500D01*
X226146155Y-76924500D01*
X225991510Y-76955261D01*
X225991498Y-76955264D01*
X225845827Y-77015602D01*
X225845814Y-77015609D01*
X225714711Y-77103210D01*
X225714707Y-77103213D01*
X225603213Y-77214707D01*
X225603210Y-77214711D01*
X225515609Y-77345814D01*
X225515602Y-77345827D01*
X225455264Y-77491498D01*
X225455261Y-77491510D01*
X225424500Y-77646153D01*
X220923074Y-77646153D01*
X220945251Y-77592613D01*
X220953152Y-77573536D01*
X220969737Y-77533497D01*
X221000500Y-77378842D01*
X221000500Y-77221158D01*
X221000500Y-77221155D01*
X221000499Y-77221153D01*
X220977039Y-77103213D01*
X220969737Y-77066503D01*
X220969735Y-77066498D01*
X220909397Y-76920827D01*
X220909394Y-76920822D01*
X220909394Y-76920821D01*
X220908103Y-76918889D01*
X220907737Y-76917723D01*
X220906525Y-76915454D01*
X220906955Y-76915223D01*
X220887226Y-76852214D01*
X220905710Y-76784834D01*
X220908100Y-76781115D01*
X220909394Y-76779179D01*
X220969737Y-76633497D01*
X221000500Y-76478842D01*
X221000500Y-76321158D01*
X221000500Y-76321155D01*
X221000499Y-76321153D01*
X220998159Y-76309390D01*
X220969737Y-76166503D01*
X220950955Y-76121158D01*
X220950953Y-76121153D01*
X240399500Y-76121153D01*
X240399500Y-76278846D01*
X240430260Y-76433488D01*
X240430262Y-76433493D01*
X240430263Y-76433497D01*
X240449046Y-76478844D01*
X240458865Y-76502549D01*
X240466333Y-76572018D01*
X240458865Y-76597447D01*
X240430263Y-76666503D01*
X240430262Y-76666506D01*
X240430260Y-76666511D01*
X240399500Y-76821153D01*
X240399500Y-76978846D01*
X240430261Y-77133489D01*
X240430264Y-77133501D01*
X240490602Y-77279172D01*
X240490609Y-77279185D01*
X240578210Y-77410288D01*
X240578213Y-77410292D01*
X240689707Y-77521786D01*
X240689711Y-77521789D01*
X240820814Y-77609390D01*
X240820827Y-77609397D01*
X240966498Y-77669735D01*
X240966503Y-77669737D01*
X241121153Y-77700499D01*
X241121156Y-77700500D01*
X241121158Y-77700500D01*
X241278844Y-77700500D01*
X241278845Y-77700499D01*
X241433497Y-77669737D01*
X241579179Y-77609394D01*
X241710289Y-77521789D01*
X241821789Y-77410289D01*
X241877174Y-77327399D01*
X243419500Y-77327399D01*
X243419500Y-77452601D01*
X243451905Y-77573536D01*
X243514505Y-77681964D01*
X243603036Y-77770495D01*
X243711464Y-77833095D01*
X243832399Y-77865500D01*
X243832401Y-77865500D01*
X243957599Y-77865500D01*
X243957601Y-77865500D01*
X244078536Y-77833095D01*
X244186964Y-77770495D01*
X244275495Y-77681964D01*
X244338095Y-77573536D01*
X244370500Y-77452601D01*
X244370500Y-77327399D01*
X244338095Y-77206464D01*
X244275495Y-77098036D01*
X244186964Y-77009505D01*
X244078536Y-76946905D01*
X244078537Y-76946905D01*
X244038224Y-76936103D01*
X243957601Y-76914500D01*
X243832399Y-76914500D01*
X243751775Y-76936103D01*
X243711463Y-76946905D01*
X243603037Y-77009504D01*
X243603034Y-77009506D01*
X243514506Y-77098034D01*
X243514504Y-77098037D01*
X243451905Y-77206463D01*
X243441916Y-77243741D01*
X243419500Y-77327399D01*
X241877174Y-77327399D01*
X241909394Y-77279179D01*
X241969737Y-77133497D01*
X242000500Y-76978842D01*
X242000500Y-76821158D01*
X242000500Y-76821155D01*
X242000499Y-76821153D01*
X241993275Y-76784834D01*
X241969737Y-76666503D01*
X241941134Y-76597450D01*
X241933666Y-76527984D01*
X241941133Y-76502552D01*
X241969737Y-76433497D01*
X242000500Y-76278842D01*
X242000500Y-76121158D01*
X242000500Y-76121155D01*
X242000499Y-76121153D01*
X241980543Y-76020827D01*
X241969737Y-75966503D01*
X241937929Y-75889711D01*
X241909397Y-75820827D01*
X241909390Y-75820814D01*
X241821789Y-75689711D01*
X241821786Y-75689707D01*
X241710292Y-75578213D01*
X241710288Y-75578210D01*
X241579185Y-75490609D01*
X241579172Y-75490602D01*
X241433501Y-75430264D01*
X241433489Y-75430261D01*
X241278845Y-75399500D01*
X241278842Y-75399500D01*
X241121158Y-75399500D01*
X241121155Y-75399500D01*
X240966510Y-75430261D01*
X240966498Y-75430264D01*
X240820827Y-75490602D01*
X240820814Y-75490609D01*
X240689711Y-75578210D01*
X240689707Y-75578213D01*
X240578213Y-75689707D01*
X240578210Y-75689711D01*
X240490609Y-75820814D01*
X240490602Y-75820827D01*
X240430264Y-75966498D01*
X240430261Y-75966510D01*
X240399500Y-76121153D01*
X220950953Y-76121153D01*
X220909397Y-76020827D01*
X220909390Y-76020814D01*
X220821789Y-75889711D01*
X220821786Y-75889707D01*
X220710292Y-75778213D01*
X220710288Y-75778210D01*
X220579185Y-75690609D01*
X220579172Y-75690602D01*
X220433501Y-75630264D01*
X220433489Y-75630261D01*
X220278845Y-75599500D01*
X220278842Y-75599500D01*
X220121158Y-75599500D01*
X220121155Y-75599500D01*
X219966510Y-75630261D01*
X219966498Y-75630264D01*
X219820827Y-75690602D01*
X219820814Y-75690609D01*
X219689711Y-75778210D01*
X219689707Y-75778213D01*
X219578213Y-75889707D01*
X219578210Y-75889711D01*
X219490609Y-76020814D01*
X219490602Y-76020827D01*
X219430264Y-76166498D01*
X219430261Y-76166510D01*
X219399500Y-76321153D01*
X208200500Y-76321153D01*
X208200500Y-76221158D01*
X208200500Y-76221155D01*
X208200499Y-76221153D01*
X208189628Y-76166503D01*
X208169737Y-76066503D01*
X208133569Y-75979185D01*
X208109397Y-75920827D01*
X208109390Y-75920814D01*
X208021789Y-75789711D01*
X208021786Y-75789707D01*
X207910292Y-75678213D01*
X207910288Y-75678210D01*
X207779185Y-75590609D01*
X207779172Y-75590602D01*
X207633501Y-75530264D01*
X207633492Y-75530261D01*
X207578166Y-75519256D01*
X207516256Y-75486870D01*
X207481682Y-75426154D01*
X207480750Y-75421874D01*
X207469737Y-75366503D01*
X207433569Y-75279185D01*
X207409397Y-75220827D01*
X207409390Y-75220814D01*
X207321789Y-75089711D01*
X207321786Y-75089707D01*
X207210292Y-74978213D01*
X207210288Y-74978210D01*
X207120429Y-74918168D01*
X207079185Y-74890609D01*
X207079172Y-74890602D01*
X206933501Y-74830264D01*
X206933489Y-74830261D01*
X206887701Y-74821153D01*
X223799500Y-74821153D01*
X223799500Y-74978846D01*
X223830261Y-75133489D01*
X223830264Y-75133501D01*
X223890602Y-75279172D01*
X223890609Y-75279185D01*
X223978210Y-75410288D01*
X223978213Y-75410292D01*
X224089707Y-75521786D01*
X224089711Y-75521789D01*
X224220814Y-75609390D01*
X224220827Y-75609397D01*
X224366498Y-75669735D01*
X224366503Y-75669737D01*
X224521153Y-75700499D01*
X224521156Y-75700500D01*
X224521158Y-75700500D01*
X224678844Y-75700500D01*
X224678845Y-75700499D01*
X224833497Y-75669737D01*
X224979179Y-75609394D01*
X225110289Y-75521789D01*
X225221789Y-75410289D01*
X225309394Y-75279179D01*
X225369737Y-75133497D01*
X225400500Y-74978842D01*
X225400500Y-74821158D01*
X225400500Y-74821155D01*
X225400499Y-74821153D01*
X225372192Y-74678846D01*
X225369737Y-74666503D01*
X225309534Y-74521158D01*
X225309397Y-74520827D01*
X225309390Y-74520814D01*
X225221790Y-74389712D01*
X225221784Y-74389705D01*
X225153232Y-74321153D01*
X233799500Y-74321153D01*
X233799500Y-74478846D01*
X233830261Y-74633489D01*
X233830264Y-74633501D01*
X233890602Y-74779172D01*
X233890609Y-74779185D01*
X233978210Y-74910288D01*
X233978213Y-74910292D01*
X234089707Y-75021786D01*
X234089711Y-75021789D01*
X234220814Y-75109390D01*
X234220827Y-75109397D01*
X234366498Y-75169735D01*
X234366503Y-75169737D01*
X234521153Y-75200499D01*
X234521156Y-75200500D01*
X234521158Y-75200500D01*
X234678844Y-75200500D01*
X234678845Y-75200499D01*
X234833497Y-75169737D01*
X234979179Y-75109394D01*
X235110289Y-75021789D01*
X235221789Y-74910289D01*
X235309394Y-74779179D01*
X235369737Y-74633497D01*
X235400500Y-74478842D01*
X235400500Y-74321158D01*
X235400500Y-74321155D01*
X235400499Y-74321153D01*
X235380543Y-74220827D01*
X235369737Y-74166503D01*
X235369735Y-74166498D01*
X235309397Y-74020827D01*
X235309390Y-74020814D01*
X235221789Y-73889711D01*
X235221786Y-73889707D01*
X235110292Y-73778213D01*
X235110288Y-73778210D01*
X234979185Y-73690609D01*
X234979172Y-73690602D01*
X234833501Y-73630264D01*
X234833489Y-73630261D01*
X234678845Y-73599500D01*
X234678842Y-73599500D01*
X234521158Y-73599500D01*
X234521155Y-73599500D01*
X234366510Y-73630261D01*
X234366498Y-73630264D01*
X234220827Y-73690602D01*
X234220814Y-73690609D01*
X234089711Y-73778210D01*
X234089707Y-73778213D01*
X233978213Y-73889707D01*
X233978210Y-73889711D01*
X233890609Y-74020814D01*
X233890602Y-74020827D01*
X233830264Y-74166498D01*
X233830261Y-74166510D01*
X233799500Y-74321153D01*
X225153232Y-74321153D01*
X225110292Y-74278213D01*
X225110288Y-74278210D01*
X224979185Y-74190609D01*
X224979172Y-74190602D01*
X224833501Y-74130264D01*
X224833489Y-74130261D01*
X224678845Y-74099500D01*
X224678842Y-74099500D01*
X224521158Y-74099500D01*
X224521155Y-74099500D01*
X224366510Y-74130261D01*
X224366498Y-74130264D01*
X224220827Y-74190602D01*
X224220814Y-74190609D01*
X224089711Y-74278210D01*
X224089707Y-74278213D01*
X223978213Y-74389707D01*
X223978210Y-74389711D01*
X223890609Y-74520814D01*
X223890602Y-74520827D01*
X223830264Y-74666498D01*
X223830261Y-74666510D01*
X223799500Y-74821153D01*
X206887701Y-74821153D01*
X206778845Y-74799500D01*
X206778842Y-74799500D01*
X206621158Y-74799500D01*
X206621155Y-74799500D01*
X206466510Y-74830261D01*
X206466498Y-74830264D01*
X206320827Y-74890602D01*
X206320814Y-74890609D01*
X206189711Y-74978210D01*
X206189707Y-74978213D01*
X206078213Y-75089707D01*
X206078210Y-75089711D01*
X205990609Y-75220814D01*
X205990602Y-75220827D01*
X205930264Y-75366498D01*
X205930261Y-75366510D01*
X205899500Y-75521153D01*
X190500500Y-75521153D01*
X190500500Y-74521153D01*
X201899500Y-74521153D01*
X201899500Y-74678846D01*
X201930261Y-74833489D01*
X201930264Y-74833501D01*
X201990602Y-74979172D01*
X201990609Y-74979185D01*
X202078210Y-75110288D01*
X202078213Y-75110292D01*
X202189707Y-75221786D01*
X202189711Y-75221789D01*
X202320814Y-75309390D01*
X202320827Y-75309397D01*
X202458693Y-75366502D01*
X202466503Y-75369737D01*
X202616131Y-75399500D01*
X202621153Y-75400499D01*
X202621156Y-75400500D01*
X202621158Y-75400500D01*
X202778844Y-75400500D01*
X202778845Y-75400499D01*
X202789179Y-75398443D01*
X202814287Y-75393450D01*
X202814292Y-75393449D01*
X202899800Y-75376439D01*
X202933497Y-75369737D01*
X203079179Y-75309394D01*
X203210289Y-75221789D01*
X203321789Y-75110289D01*
X203409394Y-74979179D01*
X203469737Y-74833497D01*
X203500500Y-74678842D01*
X203500500Y-74521158D01*
X203500500Y-74521155D01*
X203500499Y-74521153D01*
X203500432Y-74520814D01*
X203469737Y-74366503D01*
X203450955Y-74321158D01*
X203409397Y-74220827D01*
X203409390Y-74220814D01*
X203321789Y-74089711D01*
X203321786Y-74089707D01*
X203210292Y-73978213D01*
X203210288Y-73978210D01*
X203079185Y-73890609D01*
X203079172Y-73890602D01*
X202933501Y-73830264D01*
X202933489Y-73830261D01*
X202778845Y-73799500D01*
X202778842Y-73799500D01*
X202621158Y-73799500D01*
X202621155Y-73799500D01*
X202466510Y-73830261D01*
X202466498Y-73830264D01*
X202320827Y-73890602D01*
X202320814Y-73890609D01*
X202189711Y-73978210D01*
X202189707Y-73978213D01*
X202078213Y-74089707D01*
X202078210Y-74089711D01*
X201990609Y-74220814D01*
X201990602Y-74220827D01*
X201930264Y-74366498D01*
X201930261Y-74366510D01*
X201899500Y-74521153D01*
X190500500Y-74521153D01*
X190500500Y-71421153D01*
X210599500Y-71421153D01*
X210599500Y-71578846D01*
X210630261Y-71733489D01*
X210630264Y-71733501D01*
X210690602Y-71879172D01*
X210690609Y-71879185D01*
X210778210Y-72010288D01*
X210778213Y-72010292D01*
X210889707Y-72121786D01*
X210889711Y-72121789D01*
X211020814Y-72209390D01*
X211020827Y-72209397D01*
X211166498Y-72269735D01*
X211166503Y-72269737D01*
X211296319Y-72295559D01*
X211358230Y-72327943D01*
X211386689Y-72369723D01*
X211390604Y-72379176D01*
X211390609Y-72379185D01*
X211478210Y-72510288D01*
X211478213Y-72510292D01*
X211589707Y-72621786D01*
X211589711Y-72621789D01*
X211720814Y-72709390D01*
X211720827Y-72709397D01*
X211866498Y-72769735D01*
X211866503Y-72769737D01*
X212021153Y-72800499D01*
X212021156Y-72800500D01*
X212021158Y-72800500D01*
X212178844Y-72800500D01*
X212178845Y-72800499D01*
X212333497Y-72769737D01*
X212479179Y-72709394D01*
X212610289Y-72621789D01*
X212721789Y-72510289D01*
X212809394Y-72379179D01*
X212869737Y-72233497D01*
X212900500Y-72078842D01*
X212900500Y-72021153D01*
X240399500Y-72021153D01*
X240399500Y-72178846D01*
X240430260Y-72333488D01*
X240430262Y-72333493D01*
X240430263Y-72333497D01*
X240458864Y-72402547D01*
X240458865Y-72402549D01*
X240466333Y-72472018D01*
X240458865Y-72497447D01*
X240430263Y-72566503D01*
X240430262Y-72566506D01*
X240430260Y-72566511D01*
X240399500Y-72721153D01*
X240399500Y-72878846D01*
X240430261Y-73033489D01*
X240430264Y-73033501D01*
X240490602Y-73179172D01*
X240490609Y-73179185D01*
X240578210Y-73310288D01*
X240578213Y-73310292D01*
X240689707Y-73421786D01*
X240689711Y-73421789D01*
X240820814Y-73509390D01*
X240820827Y-73509397D01*
X240966498Y-73569735D01*
X240966503Y-73569737D01*
X241116131Y-73599500D01*
X241121153Y-73600499D01*
X241121156Y-73600500D01*
X241121158Y-73600500D01*
X241278844Y-73600500D01*
X241278845Y-73600499D01*
X241433497Y-73569737D01*
X241579179Y-73509394D01*
X241710289Y-73421789D01*
X241821789Y-73310289D01*
X241909394Y-73179179D01*
X241969737Y-73033497D01*
X242000500Y-72878842D01*
X242000500Y-72721158D01*
X242000500Y-72721155D01*
X242000499Y-72721153D01*
X241980734Y-72621789D01*
X241969737Y-72566503D01*
X241941134Y-72497450D01*
X241933666Y-72427984D01*
X241941133Y-72402552D01*
X241969737Y-72333497D01*
X242000500Y-72178842D01*
X242000500Y-72021158D01*
X242000500Y-72021155D01*
X242000499Y-72021153D01*
X241994400Y-71990493D01*
X241969737Y-71866503D01*
X241969735Y-71866498D01*
X241909397Y-71720827D01*
X241909390Y-71720814D01*
X241834118Y-71608162D01*
X241821789Y-71589711D01*
X241821786Y-71589707D01*
X241779478Y-71547399D01*
X243419500Y-71547399D01*
X243419500Y-71672601D01*
X243451905Y-71793536D01*
X243514505Y-71901964D01*
X243603036Y-71990495D01*
X243711464Y-72053095D01*
X243832399Y-72085500D01*
X243832401Y-72085500D01*
X243957599Y-72085500D01*
X243957601Y-72085500D01*
X244078536Y-72053095D01*
X244186964Y-71990495D01*
X244275495Y-71901964D01*
X244338095Y-71793536D01*
X244370500Y-71672601D01*
X244370500Y-71547399D01*
X244338095Y-71426464D01*
X244275495Y-71318036D01*
X244186964Y-71229505D01*
X244078536Y-71166905D01*
X244078537Y-71166905D01*
X244038224Y-71156103D01*
X243957601Y-71134500D01*
X243832399Y-71134500D01*
X243751775Y-71156103D01*
X243711463Y-71166905D01*
X243603037Y-71229504D01*
X243603034Y-71229506D01*
X243514506Y-71318034D01*
X243514504Y-71318037D01*
X243451905Y-71426463D01*
X243451905Y-71426464D01*
X243419500Y-71547399D01*
X241779478Y-71547399D01*
X241710292Y-71478213D01*
X241710288Y-71478210D01*
X241579185Y-71390609D01*
X241579172Y-71390602D01*
X241433501Y-71330264D01*
X241433489Y-71330261D01*
X241278845Y-71299500D01*
X241278842Y-71299500D01*
X241121158Y-71299500D01*
X241121155Y-71299500D01*
X240966510Y-71330261D01*
X240966498Y-71330264D01*
X240820827Y-71390602D01*
X240820814Y-71390609D01*
X240689711Y-71478210D01*
X240689707Y-71478213D01*
X240578213Y-71589707D01*
X240578210Y-71589711D01*
X240490609Y-71720814D01*
X240490602Y-71720827D01*
X240430264Y-71866498D01*
X240430261Y-71866510D01*
X240399500Y-72021153D01*
X212900500Y-72021153D01*
X212900500Y-71921158D01*
X212900500Y-71921155D01*
X212900499Y-71921153D01*
X212869738Y-71766510D01*
X212869737Y-71766503D01*
X212830841Y-71672599D01*
X212809397Y-71620827D01*
X212809390Y-71620814D01*
X212721789Y-71489711D01*
X212721786Y-71489707D01*
X212610292Y-71378213D01*
X212610288Y-71378210D01*
X212479185Y-71290609D01*
X212479172Y-71290602D01*
X212333501Y-71230264D01*
X212333489Y-71230261D01*
X212203680Y-71204440D01*
X212141769Y-71172055D01*
X212113309Y-71130274D01*
X212109394Y-71120821D01*
X212109391Y-71120816D01*
X212109390Y-71120814D01*
X212021789Y-70989711D01*
X212021786Y-70989707D01*
X211910292Y-70878213D01*
X211910288Y-70878210D01*
X211779185Y-70790609D01*
X211779172Y-70790602D01*
X211633501Y-70730264D01*
X211633489Y-70730261D01*
X211478845Y-70699500D01*
X211478842Y-70699500D01*
X211321158Y-70699500D01*
X211321155Y-70699500D01*
X211166510Y-70730261D01*
X211166498Y-70730264D01*
X211020827Y-70790602D01*
X211020814Y-70790609D01*
X210889711Y-70878210D01*
X210889707Y-70878213D01*
X210778213Y-70989707D01*
X210778210Y-70989711D01*
X210690609Y-71120814D01*
X210690602Y-71120827D01*
X210630264Y-71266498D01*
X210630261Y-71266510D01*
X210599500Y-71421153D01*
X190500500Y-71421153D01*
X190500500Y-69221153D01*
X198999500Y-69221153D01*
X198999500Y-69378846D01*
X199030261Y-69533489D01*
X199030264Y-69533501D01*
X199090602Y-69679172D01*
X199090609Y-69679185D01*
X199178210Y-69810288D01*
X199178213Y-69810292D01*
X199289707Y-69921786D01*
X199289711Y-69921789D01*
X199420814Y-70009390D01*
X199420827Y-70009397D01*
X199482241Y-70034835D01*
X199566503Y-70069737D01*
X199707514Y-70097786D01*
X199721153Y-70100499D01*
X199721156Y-70100500D01*
X199721158Y-70100500D01*
X199878844Y-70100500D01*
X199878845Y-70100499D01*
X200033497Y-70069737D01*
X200179179Y-70009394D01*
X200310289Y-69921789D01*
X200421789Y-69810289D01*
X200509394Y-69679179D01*
X200569737Y-69533497D01*
X200600500Y-69378842D01*
X200600500Y-69221158D01*
X200600500Y-69221155D01*
X200600499Y-69221153D01*
X200578447Y-69110292D01*
X200569737Y-69066503D01*
X200561436Y-69046462D01*
X200537435Y-68988517D01*
X200520301Y-68947152D01*
X203073501Y-68947152D01*
X203073501Y-69104845D01*
X203104262Y-69259488D01*
X203104265Y-69259500D01*
X203164603Y-69405171D01*
X203164610Y-69405184D01*
X203252211Y-69536287D01*
X203252214Y-69536291D01*
X203363708Y-69647785D01*
X203363712Y-69647788D01*
X203494815Y-69735389D01*
X203494828Y-69735396D01*
X203640499Y-69795734D01*
X203640504Y-69795736D01*
X203795154Y-69826498D01*
X203795157Y-69826499D01*
X203795159Y-69826499D01*
X203952845Y-69826499D01*
X203952846Y-69826498D01*
X204107498Y-69795736D01*
X204253180Y-69735393D01*
X204384290Y-69647788D01*
X204495790Y-69536288D01*
X204583395Y-69405178D01*
X204643738Y-69259496D01*
X204674501Y-69104841D01*
X204674501Y-68947157D01*
X204674501Y-68947154D01*
X204674500Y-68947152D01*
X204651249Y-68830263D01*
X204643738Y-68792502D01*
X204596659Y-68678842D01*
X204583398Y-68646826D01*
X204583391Y-68646813D01*
X204541392Y-68583957D01*
X204499427Y-68521153D01*
X205799500Y-68521153D01*
X205799500Y-68678846D01*
X205830261Y-68833489D01*
X205830264Y-68833501D01*
X205890602Y-68979172D01*
X205890609Y-68979185D01*
X205978210Y-69110288D01*
X205978213Y-69110292D01*
X206089707Y-69221786D01*
X206089711Y-69221789D01*
X206220814Y-69309390D01*
X206220827Y-69309397D01*
X206358683Y-69366498D01*
X206366503Y-69369737D01*
X206521153Y-69400499D01*
X206521156Y-69400500D01*
X206521158Y-69400500D01*
X206678844Y-69400500D01*
X206678845Y-69400499D01*
X206833497Y-69369737D01*
X206979179Y-69309394D01*
X207110289Y-69221789D01*
X207221789Y-69110289D01*
X207309394Y-68979179D01*
X207369737Y-68833497D01*
X207400500Y-68678842D01*
X207400500Y-68621153D01*
X212599500Y-68621153D01*
X212599500Y-68778846D01*
X212630261Y-68933489D01*
X212630264Y-68933501D01*
X212690602Y-69079172D01*
X212690609Y-69079185D01*
X212778210Y-69210288D01*
X212778213Y-69210292D01*
X212889707Y-69321786D01*
X212889711Y-69321789D01*
X213020814Y-69409390D01*
X213020827Y-69409397D01*
X213127390Y-69453536D01*
X213166503Y-69469737D01*
X213321153Y-69500499D01*
X213321156Y-69500500D01*
X213321158Y-69500500D01*
X213478844Y-69500500D01*
X213478845Y-69500499D01*
X213633497Y-69469737D01*
X213654578Y-69461004D01*
X213724046Y-69453536D01*
X213786525Y-69484811D01*
X213822178Y-69544899D01*
X213823647Y-69599757D01*
X213799500Y-69721153D01*
X213799500Y-69878846D01*
X213830261Y-70033489D01*
X213830264Y-70033501D01*
X213890602Y-70179172D01*
X213890609Y-70179185D01*
X213978210Y-70310288D01*
X213978213Y-70310292D01*
X214089707Y-70421786D01*
X214089711Y-70421789D01*
X214220814Y-70509390D01*
X214220827Y-70509397D01*
X214366498Y-70569735D01*
X214366503Y-70569737D01*
X214521153Y-70600499D01*
X214521156Y-70600500D01*
X214521158Y-70600500D01*
X214678844Y-70600500D01*
X214678845Y-70600499D01*
X214833497Y-70569737D01*
X214979179Y-70509394D01*
X215110289Y-70421789D01*
X215221789Y-70310289D01*
X215309394Y-70179179D01*
X215369737Y-70033497D01*
X215400500Y-69878842D01*
X215400500Y-69721158D01*
X215400500Y-69721155D01*
X215400499Y-69721153D01*
X215392148Y-69679172D01*
X215369737Y-69566503D01*
X215368084Y-69562512D01*
X215350953Y-69521153D01*
X221399500Y-69521153D01*
X221399500Y-69678846D01*
X221430261Y-69833489D01*
X221430264Y-69833501D01*
X221490602Y-69979172D01*
X221490609Y-69979185D01*
X221525304Y-70031109D01*
X221546182Y-70097786D01*
X221527698Y-70165167D01*
X221525304Y-70168891D01*
X221490609Y-70220814D01*
X221490602Y-70220827D01*
X221430264Y-70366498D01*
X221430261Y-70366510D01*
X221399500Y-70521153D01*
X221399500Y-70678846D01*
X221430261Y-70833489D01*
X221430264Y-70833501D01*
X221490602Y-70979172D01*
X221490609Y-70979185D01*
X221578210Y-71110288D01*
X221578213Y-71110292D01*
X221689707Y-71221786D01*
X221689711Y-71221789D01*
X221820814Y-71309390D01*
X221820827Y-71309397D01*
X221966498Y-71369735D01*
X221966503Y-71369737D01*
X222121153Y-71400499D01*
X222121156Y-71400500D01*
X222121158Y-71400500D01*
X222278844Y-71400500D01*
X222278845Y-71400499D01*
X222433497Y-71369737D01*
X222579179Y-71309394D01*
X222710289Y-71221789D01*
X222821789Y-71110289D01*
X222909394Y-70979179D01*
X222969737Y-70833497D01*
X223000500Y-70678842D01*
X223000500Y-70521158D01*
X223000500Y-70521155D01*
X223000499Y-70521153D01*
X222980734Y-70421789D01*
X222969737Y-70366503D01*
X222946452Y-70310288D01*
X222909396Y-70220825D01*
X222909394Y-70220822D01*
X222909394Y-70220821D01*
X222874694Y-70168889D01*
X222853816Y-70102215D01*
X222872300Y-70034835D01*
X222874676Y-70031136D01*
X222909394Y-69979179D01*
X222969737Y-69833497D01*
X222992083Y-69721158D01*
X222992084Y-69721153D01*
X224199500Y-69721153D01*
X224199500Y-69878846D01*
X224230261Y-70033489D01*
X224230264Y-70033501D01*
X224290602Y-70179172D01*
X224290609Y-70179185D01*
X224378210Y-70310288D01*
X224378213Y-70310292D01*
X224489707Y-70421786D01*
X224489711Y-70421789D01*
X224620814Y-70509390D01*
X224620827Y-70509397D01*
X224766498Y-70569735D01*
X224766503Y-70569737D01*
X224921153Y-70600499D01*
X224921156Y-70600500D01*
X224921158Y-70600500D01*
X225078844Y-70600500D01*
X225078845Y-70600499D01*
X225233497Y-70569737D01*
X225379179Y-70509394D01*
X225510289Y-70421789D01*
X225621789Y-70310289D01*
X225709394Y-70179179D01*
X225769737Y-70033497D01*
X225800500Y-69878842D01*
X225800500Y-69721158D01*
X225800500Y-69721155D01*
X225800499Y-69721153D01*
X225792148Y-69679172D01*
X225769737Y-69566503D01*
X225768084Y-69562512D01*
X225709397Y-69420827D01*
X225709390Y-69420814D01*
X225621789Y-69289711D01*
X225621786Y-69289707D01*
X225510292Y-69178213D01*
X225510288Y-69178210D01*
X225379185Y-69090609D01*
X225379172Y-69090602D01*
X225233501Y-69030264D01*
X225233489Y-69030261D01*
X225078845Y-68999500D01*
X225078842Y-68999500D01*
X224921158Y-68999500D01*
X224921155Y-68999500D01*
X224766510Y-69030261D01*
X224766498Y-69030264D01*
X224620827Y-69090602D01*
X224620814Y-69090609D01*
X224489711Y-69178210D01*
X224489707Y-69178213D01*
X224378213Y-69289707D01*
X224378210Y-69289711D01*
X224290609Y-69420814D01*
X224290602Y-69420827D01*
X224230264Y-69566498D01*
X224230261Y-69566510D01*
X224199500Y-69721153D01*
X222992084Y-69721153D01*
X222998107Y-69690875D01*
X222998107Y-69690874D01*
X223000500Y-69678844D01*
X223000500Y-69521155D01*
X223000499Y-69521153D01*
X222980543Y-69420827D01*
X222969737Y-69366503D01*
X222937929Y-69289711D01*
X222909397Y-69220827D01*
X222909390Y-69220814D01*
X222821789Y-69089711D01*
X222821786Y-69089707D01*
X222710292Y-68978213D01*
X222710288Y-68978210D01*
X222579185Y-68890609D01*
X222579172Y-68890602D01*
X222433501Y-68830264D01*
X222433489Y-68830261D01*
X222278845Y-68799500D01*
X222278842Y-68799500D01*
X222121158Y-68799500D01*
X222121155Y-68799500D01*
X221966510Y-68830261D01*
X221966498Y-68830264D01*
X221820827Y-68890602D01*
X221820814Y-68890609D01*
X221689711Y-68978210D01*
X221689707Y-68978213D01*
X221578213Y-69089707D01*
X221578210Y-69089711D01*
X221490609Y-69220814D01*
X221490602Y-69220827D01*
X221430264Y-69366498D01*
X221430261Y-69366510D01*
X221399500Y-69521153D01*
X215350953Y-69521153D01*
X215309397Y-69420827D01*
X215309390Y-69420814D01*
X215221789Y-69289711D01*
X215221786Y-69289707D01*
X215110292Y-69178213D01*
X215110288Y-69178210D01*
X214979185Y-69090609D01*
X214979172Y-69090602D01*
X214833501Y-69030264D01*
X214833489Y-69030261D01*
X214678845Y-68999500D01*
X214678842Y-68999500D01*
X214521158Y-68999500D01*
X214521155Y-68999500D01*
X214366510Y-69030261D01*
X214366499Y-69030264D01*
X214345417Y-69038996D01*
X214275948Y-69046462D01*
X214213470Y-69015185D01*
X214177820Y-68955094D01*
X214176352Y-68900241D01*
X214200500Y-68778844D01*
X214200500Y-68621155D01*
X214200499Y-68621153D01*
X214182419Y-68530261D01*
X214169737Y-68466503D01*
X214169735Y-68466498D01*
X214109397Y-68320827D01*
X214109390Y-68320814D01*
X214021789Y-68189711D01*
X214021786Y-68189707D01*
X213910292Y-68078213D01*
X213910288Y-68078210D01*
X213779185Y-67990609D01*
X213779172Y-67990602D01*
X213633501Y-67930264D01*
X213633489Y-67930261D01*
X213478845Y-67899500D01*
X213478842Y-67899500D01*
X213321158Y-67899500D01*
X213321155Y-67899500D01*
X213166510Y-67930261D01*
X213166498Y-67930264D01*
X213020827Y-67990602D01*
X213020814Y-67990609D01*
X212889711Y-68078210D01*
X212889707Y-68078213D01*
X212778213Y-68189707D01*
X212778210Y-68189711D01*
X212690609Y-68320814D01*
X212690602Y-68320827D01*
X212630264Y-68466498D01*
X212630261Y-68466510D01*
X212599500Y-68621153D01*
X207400500Y-68621153D01*
X207400500Y-68521158D01*
X207400500Y-68521155D01*
X207400499Y-68521153D01*
X207369738Y-68366510D01*
X207369737Y-68366503D01*
X207349067Y-68316601D01*
X207309397Y-68220827D01*
X207309390Y-68220814D01*
X207221789Y-68089711D01*
X207221786Y-68089707D01*
X207110292Y-67978213D01*
X207110288Y-67978210D01*
X206979185Y-67890609D01*
X206979172Y-67890602D01*
X206833501Y-67830264D01*
X206833489Y-67830261D01*
X206678845Y-67799500D01*
X206678842Y-67799500D01*
X206521158Y-67799500D01*
X206521155Y-67799500D01*
X206366510Y-67830261D01*
X206366498Y-67830264D01*
X206220827Y-67890602D01*
X206220814Y-67890609D01*
X206089711Y-67978210D01*
X206089707Y-67978213D01*
X205978213Y-68089707D01*
X205978210Y-68089711D01*
X205890609Y-68220814D01*
X205890602Y-68220827D01*
X205830264Y-68366498D01*
X205830261Y-68366510D01*
X205799500Y-68521153D01*
X204499427Y-68521153D01*
X204495790Y-68515710D01*
X204495787Y-68515706D01*
X204384293Y-68404212D01*
X204384289Y-68404209D01*
X204253186Y-68316608D01*
X204253173Y-68316601D01*
X204107502Y-68256263D01*
X204107490Y-68256260D01*
X203952846Y-68225499D01*
X203952843Y-68225499D01*
X203795159Y-68225499D01*
X203795156Y-68225499D01*
X203640511Y-68256260D01*
X203640499Y-68256263D01*
X203494828Y-68316601D01*
X203494815Y-68316608D01*
X203363712Y-68404209D01*
X203363708Y-68404212D01*
X203252214Y-68515706D01*
X203252211Y-68515710D01*
X203164610Y-68646813D01*
X203164603Y-68646826D01*
X203104265Y-68792497D01*
X203104262Y-68792509D01*
X203073501Y-68947152D01*
X200520301Y-68947152D01*
X200509397Y-68920827D01*
X200509390Y-68920814D01*
X200421789Y-68789711D01*
X200421786Y-68789707D01*
X200310292Y-68678213D01*
X200310288Y-68678210D01*
X200179185Y-68590609D01*
X200179172Y-68590602D01*
X200033501Y-68530264D01*
X200033489Y-68530261D01*
X199878845Y-68499500D01*
X199878842Y-68499500D01*
X199721158Y-68499500D01*
X199721155Y-68499500D01*
X199566510Y-68530261D01*
X199566498Y-68530264D01*
X199420827Y-68590602D01*
X199420814Y-68590609D01*
X199289711Y-68678210D01*
X199289707Y-68678213D01*
X199178213Y-68789707D01*
X199178210Y-68789711D01*
X199090609Y-68920814D01*
X199090602Y-68920827D01*
X199030264Y-69066498D01*
X199030261Y-69066510D01*
X198999500Y-69221153D01*
X190500500Y-69221153D01*
X190500500Y-66215153D01*
X195795500Y-66215153D01*
X195795500Y-66372846D01*
X195826261Y-66527489D01*
X195826264Y-66527501D01*
X195886602Y-66673172D01*
X195886609Y-66673185D01*
X195974210Y-66804288D01*
X195974213Y-66804292D01*
X196085707Y-66915786D01*
X196085711Y-66915789D01*
X196216814Y-67003390D01*
X196216827Y-67003397D01*
X196340818Y-67054755D01*
X196362503Y-67063737D01*
X196517153Y-67094499D01*
X196517156Y-67094500D01*
X196517158Y-67094500D01*
X196674844Y-67094500D01*
X196674845Y-67094499D01*
X196829497Y-67063737D01*
X196908655Y-67030948D01*
X196978122Y-67023480D01*
X197040602Y-67054755D01*
X197076254Y-67114844D01*
X197077724Y-67169700D01*
X197065500Y-67231158D01*
X197065500Y-67388846D01*
X197096261Y-67543489D01*
X197096264Y-67543501D01*
X197156602Y-67689172D01*
X197156609Y-67689185D01*
X197244210Y-67820288D01*
X197244213Y-67820292D01*
X197355707Y-67931786D01*
X197355711Y-67931789D01*
X197486814Y-68019390D01*
X197486827Y-68019397D01*
X197608363Y-68069738D01*
X197632503Y-68079737D01*
X197787153Y-68110499D01*
X197787156Y-68110500D01*
X197787158Y-68110500D01*
X197944844Y-68110500D01*
X197944845Y-68110499D01*
X198099497Y-68079737D01*
X198245179Y-68019394D01*
X198376289Y-67931789D01*
X198487789Y-67820289D01*
X198575394Y-67689179D01*
X198635737Y-67543497D01*
X198666500Y-67388842D01*
X198666500Y-67231158D01*
X198666500Y-67231155D01*
X198666499Y-67231153D01*
X198660402Y-67200500D01*
X198635737Y-67076503D01*
X198616868Y-67030949D01*
X198575397Y-66930827D01*
X198575390Y-66930814D01*
X198487789Y-66799711D01*
X198487786Y-66799707D01*
X198376292Y-66688213D01*
X198376288Y-66688210D01*
X198245185Y-66600609D01*
X198245172Y-66600602D01*
X198099501Y-66540264D01*
X198099489Y-66540261D01*
X197944845Y-66509500D01*
X197944842Y-66509500D01*
X197787158Y-66509500D01*
X197787155Y-66509500D01*
X197632510Y-66540261D01*
X197632503Y-66540263D01*
X197553344Y-66573051D01*
X197483875Y-66580519D01*
X197421396Y-66549243D01*
X197385744Y-66489154D01*
X197384276Y-66434297D01*
X197396500Y-66372844D01*
X197396500Y-66215155D01*
X197396499Y-66215153D01*
X197365738Y-66060510D01*
X197365737Y-66060503D01*
X197349300Y-66020821D01*
X197305397Y-65914827D01*
X197305390Y-65914814D01*
X197217789Y-65783711D01*
X197217786Y-65783707D01*
X197106292Y-65672213D01*
X197106288Y-65672210D01*
X196975185Y-65584609D01*
X196975172Y-65584602D01*
X196829501Y-65524264D01*
X196829489Y-65524261D01*
X196674845Y-65493500D01*
X196674842Y-65493500D01*
X196517158Y-65493500D01*
X196517155Y-65493500D01*
X196362510Y-65524261D01*
X196362498Y-65524264D01*
X196216827Y-65584602D01*
X196216814Y-65584609D01*
X196085711Y-65672210D01*
X196085707Y-65672213D01*
X195974213Y-65783707D01*
X195974210Y-65783711D01*
X195886609Y-65914814D01*
X195886602Y-65914827D01*
X195826264Y-66060498D01*
X195826261Y-66060510D01*
X195795500Y-66215153D01*
X190500500Y-66215153D01*
X190500500Y-65121153D01*
X205499500Y-65121153D01*
X205499500Y-65278846D01*
X205530261Y-65433489D01*
X205530264Y-65433501D01*
X205590604Y-65579177D01*
X205590605Y-65579179D01*
X205591899Y-65581115D01*
X205592264Y-65582282D01*
X205593476Y-65584549D01*
X205593045Y-65584778D01*
X205612773Y-65647794D01*
X205594285Y-65715173D01*
X205591899Y-65718885D01*
X205590605Y-65720820D01*
X205590604Y-65720822D01*
X205530264Y-65866498D01*
X205530261Y-65866510D01*
X205499500Y-66021153D01*
X205499500Y-66178846D01*
X205530261Y-66333489D01*
X205530264Y-66333501D01*
X205590602Y-66479172D01*
X205590609Y-66479185D01*
X205678210Y-66610288D01*
X205678213Y-66610292D01*
X205789707Y-66721786D01*
X205789711Y-66721789D01*
X205920814Y-66809390D01*
X205920827Y-66809397D01*
X206058683Y-66866498D01*
X206066503Y-66869737D01*
X206221153Y-66900499D01*
X206221156Y-66900500D01*
X206221158Y-66900500D01*
X206378844Y-66900500D01*
X206378845Y-66900499D01*
X206533497Y-66869737D01*
X206679179Y-66809394D01*
X206810289Y-66721789D01*
X206921789Y-66610289D01*
X207009394Y-66479179D01*
X207069737Y-66333497D01*
X207072192Y-66321153D01*
X212599500Y-66321153D01*
X212599500Y-66478846D01*
X212630261Y-66633489D01*
X212630264Y-66633501D01*
X212690602Y-66779172D01*
X212690609Y-66779185D01*
X212778210Y-66910288D01*
X212778213Y-66910292D01*
X212889707Y-67021786D01*
X212889711Y-67021789D01*
X213020814Y-67109390D01*
X213020827Y-67109397D01*
X213129425Y-67154379D01*
X213166503Y-67169737D01*
X213321153Y-67200499D01*
X213321156Y-67200500D01*
X213321158Y-67200500D01*
X213478844Y-67200500D01*
X213478845Y-67200499D01*
X213633497Y-67169737D01*
X213728048Y-67130572D01*
X213797517Y-67123104D01*
X213859996Y-67154379D01*
X213895648Y-67214468D01*
X213899500Y-67245134D01*
X213899500Y-67378846D01*
X213930261Y-67533489D01*
X213930264Y-67533501D01*
X213990602Y-67679172D01*
X213990609Y-67679185D01*
X214078210Y-67810288D01*
X214078213Y-67810292D01*
X214189707Y-67921786D01*
X214189711Y-67921789D01*
X214320814Y-68009390D01*
X214320827Y-68009397D01*
X214466498Y-68069735D01*
X214466503Y-68069737D01*
X214621153Y-68100499D01*
X214621156Y-68100500D01*
X214621158Y-68100500D01*
X214778844Y-68100500D01*
X214778845Y-68100499D01*
X214933497Y-68069737D01*
X215046166Y-68023067D01*
X215079172Y-68009397D01*
X215079172Y-68009396D01*
X215079179Y-68009394D01*
X215210289Y-67921789D01*
X215321789Y-67810289D01*
X215409394Y-67679179D01*
X215469737Y-67533497D01*
X215500500Y-67378842D01*
X215500500Y-67221158D01*
X215500500Y-67221155D01*
X215500499Y-67221153D01*
X215496391Y-67200499D01*
X215469737Y-67066503D01*
X215468591Y-67063736D01*
X215409397Y-66920827D01*
X215409390Y-66920814D01*
X215384763Y-66883957D01*
X215342798Y-66821153D01*
X230699500Y-66821153D01*
X230699500Y-66978846D01*
X230730261Y-67133489D01*
X230730264Y-67133501D01*
X230790602Y-67279172D01*
X230790609Y-67279185D01*
X230878210Y-67410288D01*
X230878213Y-67410292D01*
X230989707Y-67521786D01*
X230989711Y-67521789D01*
X231120814Y-67609390D01*
X231120827Y-67609397D01*
X231266498Y-67669735D01*
X231266503Y-67669737D01*
X231421153Y-67700499D01*
X231421156Y-67700500D01*
X231421158Y-67700500D01*
X231578844Y-67700500D01*
X231578845Y-67700499D01*
X231733497Y-67669737D01*
X231879179Y-67609394D01*
X232010289Y-67521789D01*
X232121789Y-67410289D01*
X232209394Y-67279179D01*
X232269737Y-67133497D01*
X232291621Y-67023480D01*
X232292084Y-67021153D01*
X232599500Y-67021153D01*
X232599500Y-67178846D01*
X232630261Y-67333489D01*
X232630264Y-67333501D01*
X232690602Y-67479172D01*
X232690609Y-67479185D01*
X232778210Y-67610288D01*
X232778213Y-67610292D01*
X232889707Y-67721786D01*
X232889711Y-67721789D01*
X233020814Y-67809390D01*
X233020827Y-67809397D01*
X233166498Y-67869735D01*
X233166503Y-67869737D01*
X233316131Y-67899500D01*
X233321153Y-67900499D01*
X233321156Y-67900500D01*
X233321158Y-67900500D01*
X233478844Y-67900500D01*
X233478845Y-67900499D01*
X233633497Y-67869737D01*
X233779179Y-67809394D01*
X233910289Y-67721789D01*
X234021789Y-67610289D01*
X234109394Y-67479179D01*
X234169737Y-67333497D01*
X234200500Y-67178842D01*
X234200500Y-67021158D01*
X234200500Y-67021155D01*
X234200499Y-67021153D01*
X234194476Y-66990874D01*
X234169737Y-66866503D01*
X234150955Y-66821158D01*
X234109397Y-66720827D01*
X234109390Y-66720814D01*
X234021789Y-66589711D01*
X234021786Y-66589707D01*
X233910292Y-66478213D01*
X233910288Y-66478210D01*
X233779185Y-66390609D01*
X233779172Y-66390602D01*
X233633501Y-66330264D01*
X233633489Y-66330261D01*
X233478845Y-66299500D01*
X233478842Y-66299500D01*
X233321158Y-66299500D01*
X233321155Y-66299500D01*
X233166510Y-66330261D01*
X233166498Y-66330264D01*
X233020827Y-66390602D01*
X233020814Y-66390609D01*
X232889711Y-66478210D01*
X232889707Y-66478213D01*
X232778213Y-66589707D01*
X232778210Y-66589711D01*
X232690609Y-66720814D01*
X232690602Y-66720827D01*
X232630264Y-66866498D01*
X232630261Y-66866510D01*
X232599500Y-67021153D01*
X232292084Y-67021153D01*
X232298107Y-66990875D01*
X232298107Y-66990874D01*
X232300500Y-66978844D01*
X232300500Y-66821155D01*
X232300499Y-66821153D01*
X232297145Y-66804292D01*
X232269737Y-66666503D01*
X232237929Y-66589711D01*
X232209397Y-66520827D01*
X232209390Y-66520814D01*
X232121789Y-66389711D01*
X232121786Y-66389707D01*
X232010292Y-66278213D01*
X232010288Y-66278210D01*
X231879185Y-66190609D01*
X231879172Y-66190602D01*
X231733501Y-66130264D01*
X231733489Y-66130261D01*
X231578845Y-66099500D01*
X231578842Y-66099500D01*
X231421158Y-66099500D01*
X231421155Y-66099500D01*
X231266510Y-66130261D01*
X231266498Y-66130264D01*
X231120827Y-66190602D01*
X231120814Y-66190609D01*
X230989711Y-66278210D01*
X230989707Y-66278213D01*
X230878213Y-66389707D01*
X230878210Y-66389711D01*
X230790609Y-66520814D01*
X230790602Y-66520827D01*
X230730264Y-66666498D01*
X230730261Y-66666510D01*
X230699500Y-66821153D01*
X215342798Y-66821153D01*
X215321789Y-66789711D01*
X215321786Y-66789707D01*
X215210292Y-66678213D01*
X215210288Y-66678210D01*
X215079185Y-66590609D01*
X215079172Y-66590602D01*
X214933501Y-66530264D01*
X214933489Y-66530261D01*
X214778845Y-66499500D01*
X214778842Y-66499500D01*
X214621158Y-66499500D01*
X214621155Y-66499500D01*
X214466510Y-66530261D01*
X214466507Y-66530261D01*
X214371952Y-66569427D01*
X214302482Y-66576895D01*
X214240003Y-66545619D01*
X214204351Y-66485530D01*
X214200500Y-66454865D01*
X214200500Y-66321155D01*
X214200499Y-66321153D01*
X214179415Y-66215158D01*
X214169737Y-66166503D01*
X214169735Y-66166498D01*
X214109397Y-66020827D01*
X214109390Y-66020814D01*
X214021789Y-65889711D01*
X214021786Y-65889707D01*
X213910292Y-65778213D01*
X213910288Y-65778210D01*
X213779185Y-65690609D01*
X213779172Y-65690602D01*
X213633501Y-65630264D01*
X213633489Y-65630261D01*
X213478845Y-65599500D01*
X213478842Y-65599500D01*
X213321158Y-65599500D01*
X213321155Y-65599500D01*
X213166510Y-65630261D01*
X213166498Y-65630264D01*
X213020827Y-65690602D01*
X213020814Y-65690609D01*
X212889711Y-65778210D01*
X212889707Y-65778213D01*
X212778213Y-65889707D01*
X212778210Y-65889711D01*
X212690609Y-66020814D01*
X212690602Y-66020827D01*
X212630264Y-66166498D01*
X212630261Y-66166510D01*
X212599500Y-66321153D01*
X207072192Y-66321153D01*
X207078216Y-66290874D01*
X207078216Y-66290873D01*
X207100499Y-66178846D01*
X207100500Y-66178844D01*
X207100500Y-66021155D01*
X207100499Y-66021153D01*
X207079348Y-65914821D01*
X207069737Y-65866503D01*
X207035444Y-65783711D01*
X207024844Y-65758119D01*
X207017375Y-65688650D01*
X207048651Y-65626171D01*
X207108740Y-65590519D01*
X207163595Y-65589050D01*
X207205380Y-65597361D01*
X207221157Y-65600500D01*
X207221158Y-65600500D01*
X207378844Y-65600500D01*
X207378845Y-65600499D01*
X207533497Y-65569737D01*
X207679179Y-65509394D01*
X207810289Y-65421789D01*
X207921789Y-65310289D01*
X208009394Y-65179179D01*
X208069737Y-65033497D01*
X208100500Y-64878842D01*
X208100500Y-64721158D01*
X208100500Y-64721157D01*
X208100500Y-64721155D01*
X208100499Y-64721153D01*
X208072066Y-64578211D01*
X208069737Y-64566503D01*
X208038298Y-64490602D01*
X208020425Y-64447452D01*
X208012956Y-64377983D01*
X208020425Y-64352548D01*
X208046452Y-64289712D01*
X208069737Y-64233497D01*
X208100500Y-64078842D01*
X208100500Y-63921158D01*
X208100500Y-63921155D01*
X208100499Y-63921153D01*
X208089884Y-63867789D01*
X208069737Y-63766503D01*
X208069735Y-63766498D01*
X208009397Y-63620827D01*
X208009390Y-63620814D01*
X207921789Y-63489711D01*
X207921786Y-63489707D01*
X207810292Y-63378213D01*
X207810288Y-63378210D01*
X207679185Y-63290609D01*
X207679172Y-63290602D01*
X207533501Y-63230264D01*
X207533489Y-63230261D01*
X207378845Y-63199500D01*
X207378842Y-63199500D01*
X207221158Y-63199500D01*
X207221155Y-63199500D01*
X207066510Y-63230261D01*
X207066498Y-63230264D01*
X206920827Y-63290602D01*
X206920814Y-63290609D01*
X206789711Y-63378210D01*
X206789707Y-63378213D01*
X206678213Y-63489707D01*
X206678210Y-63489711D01*
X206590609Y-63620814D01*
X206590602Y-63620827D01*
X206530264Y-63766498D01*
X206530261Y-63766510D01*
X206499500Y-63921153D01*
X206499500Y-64078846D01*
X206530261Y-64233489D01*
X206532031Y-64239324D01*
X206530751Y-64239712D01*
X206537480Y-64302388D01*
X206506196Y-64364863D01*
X206446101Y-64400506D01*
X206391263Y-64401970D01*
X206378845Y-64399500D01*
X206378842Y-64399500D01*
X206221158Y-64399500D01*
X206221155Y-64399500D01*
X206066510Y-64430261D01*
X206066498Y-64430264D01*
X205920827Y-64490602D01*
X205920814Y-64490609D01*
X205789711Y-64578210D01*
X205789707Y-64578213D01*
X205678213Y-64689707D01*
X205678210Y-64689711D01*
X205590609Y-64820814D01*
X205590602Y-64820827D01*
X205530264Y-64966498D01*
X205530261Y-64966510D01*
X205499500Y-65121153D01*
X190500500Y-65121153D01*
X190500500Y-62659153D01*
X196049500Y-62659153D01*
X196049500Y-62816846D01*
X196080261Y-62971489D01*
X196080264Y-62971501D01*
X196140602Y-63117172D01*
X196140609Y-63117185D01*
X196228210Y-63248288D01*
X196228213Y-63248292D01*
X196339707Y-63359786D01*
X196339711Y-63359789D01*
X196470814Y-63447390D01*
X196470827Y-63447397D01*
X196599031Y-63500500D01*
X196616503Y-63507737D01*
X196771153Y-63538499D01*
X196771156Y-63538500D01*
X196771158Y-63538500D01*
X196783849Y-63538500D01*
X196850888Y-63558185D01*
X196896643Y-63610989D01*
X196898389Y-63615000D01*
X196902606Y-63625179D01*
X196902608Y-63625182D01*
X196902609Y-63625184D01*
X196990210Y-63756288D01*
X196990213Y-63756292D01*
X197101707Y-63867786D01*
X197101711Y-63867789D01*
X197232814Y-63955390D01*
X197232827Y-63955397D01*
X197339303Y-63999500D01*
X197378503Y-64015737D01*
X197533153Y-64046499D01*
X197533156Y-64046500D01*
X197533158Y-64046500D01*
X197690844Y-64046500D01*
X197690845Y-64046499D01*
X197845497Y-64015737D01*
X197991179Y-63955394D01*
X198122289Y-63867789D01*
X198233789Y-63756289D01*
X198321394Y-63625179D01*
X198381737Y-63479497D01*
X198412500Y-63324842D01*
X198412500Y-63167158D01*
X198412500Y-63167155D01*
X198412499Y-63167153D01*
X198394998Y-63079172D01*
X198381737Y-63012503D01*
X198364749Y-62971489D01*
X198321397Y-62866827D01*
X198321390Y-62866814D01*
X198233789Y-62735711D01*
X198233786Y-62735707D01*
X198122292Y-62624213D01*
X198122288Y-62624210D01*
X198117713Y-62621153D01*
X213499500Y-62621153D01*
X213499500Y-62778846D01*
X213530261Y-62933489D01*
X213530264Y-62933501D01*
X213590602Y-63079172D01*
X213590609Y-63079185D01*
X213678210Y-63210288D01*
X213678213Y-63210292D01*
X213789707Y-63321786D01*
X213789715Y-63321792D01*
X213894495Y-63391804D01*
X213939301Y-63445416D01*
X213948008Y-63514741D01*
X213928708Y-63563796D01*
X213890608Y-63620816D01*
X213890602Y-63620827D01*
X213830264Y-63766498D01*
X213830261Y-63766510D01*
X213799500Y-63921153D01*
X213799500Y-64078846D01*
X213830261Y-64233489D01*
X213830264Y-64233501D01*
X213890602Y-64379172D01*
X213890609Y-64379185D01*
X213978210Y-64510288D01*
X213978213Y-64510292D01*
X214067495Y-64599574D01*
X214100980Y-64660897D01*
X214101432Y-64711444D01*
X214099500Y-64721157D01*
X214099500Y-64878846D01*
X214130261Y-65033489D01*
X214130264Y-65033501D01*
X214190602Y-65179172D01*
X214190609Y-65179185D01*
X214278210Y-65310288D01*
X214278213Y-65310292D01*
X214389707Y-65421786D01*
X214389711Y-65421789D01*
X214520814Y-65509390D01*
X214520827Y-65509397D01*
X214666498Y-65569735D01*
X214666503Y-65569737D01*
X214816131Y-65599500D01*
X214821153Y-65600499D01*
X214821156Y-65600500D01*
X214821158Y-65600500D01*
X214978844Y-65600500D01*
X214978845Y-65600499D01*
X215133497Y-65569737D01*
X215279179Y-65509394D01*
X215410289Y-65421789D01*
X215521789Y-65310289D01*
X215609394Y-65179179D01*
X215669737Y-65033497D01*
X215700500Y-64878842D01*
X215700500Y-64721158D01*
X215700500Y-64721157D01*
X215700500Y-64721155D01*
X215700499Y-64721153D01*
X220599500Y-64721153D01*
X220599500Y-64878846D01*
X220630261Y-65033489D01*
X220630264Y-65033501D01*
X220690602Y-65179172D01*
X220690609Y-65179185D01*
X220778210Y-65310288D01*
X220778213Y-65310292D01*
X220889707Y-65421786D01*
X220889711Y-65421789D01*
X221020814Y-65509390D01*
X221020827Y-65509397D01*
X221166498Y-65569735D01*
X221166503Y-65569737D01*
X221316131Y-65599500D01*
X221321153Y-65600499D01*
X221321156Y-65600500D01*
X221321158Y-65600500D01*
X221478844Y-65600500D01*
X221478845Y-65600499D01*
X221633497Y-65569737D01*
X221779179Y-65509394D01*
X221910289Y-65421789D01*
X222021789Y-65310289D01*
X222109394Y-65179179D01*
X222154727Y-65069735D01*
X222172068Y-65027870D01*
X222173262Y-65028364D01*
X222207895Y-64975518D01*
X222271708Y-64947061D01*
X222340775Y-64957622D01*
X222357149Y-64966850D01*
X222420814Y-65009390D01*
X222420827Y-65009397D01*
X222566498Y-65069735D01*
X222566503Y-65069737D01*
X222721153Y-65100499D01*
X222721156Y-65100500D01*
X222721158Y-65100500D01*
X222878844Y-65100500D01*
X222878845Y-65100499D01*
X223033497Y-65069737D01*
X223179179Y-65009394D01*
X223310289Y-64921789D01*
X223421789Y-64810289D01*
X223509394Y-64679179D01*
X223569737Y-64533497D01*
X223600500Y-64378842D01*
X223600500Y-64221158D01*
X223600500Y-64221155D01*
X223600499Y-64221153D01*
X223574531Y-64090606D01*
X223569737Y-64066503D01*
X223561451Y-64046499D01*
X223509397Y-63920827D01*
X223509390Y-63920814D01*
X223421789Y-63789711D01*
X223421786Y-63789707D01*
X223310292Y-63678213D01*
X223310288Y-63678210D01*
X223179185Y-63590609D01*
X223179172Y-63590602D01*
X223033501Y-63530264D01*
X223033489Y-63530261D01*
X222878845Y-63499500D01*
X222878842Y-63499500D01*
X222721158Y-63499500D01*
X222721155Y-63499500D01*
X222566510Y-63530261D01*
X222566498Y-63530264D01*
X222420827Y-63590602D01*
X222420814Y-63590609D01*
X222289711Y-63678210D01*
X222289707Y-63678213D01*
X222178213Y-63789707D01*
X222178210Y-63789711D01*
X222090609Y-63920814D01*
X222090602Y-63920827D01*
X222027932Y-64072130D01*
X222026742Y-64071637D01*
X221992083Y-64124499D01*
X221928264Y-64152941D01*
X221859199Y-64142365D01*
X221842850Y-64133149D01*
X221779185Y-64090609D01*
X221779172Y-64090602D01*
X221633501Y-64030264D01*
X221633489Y-64030261D01*
X221478845Y-63999500D01*
X221478842Y-63999500D01*
X221321158Y-63999500D01*
X221321155Y-63999500D01*
X221166510Y-64030261D01*
X221166498Y-64030264D01*
X221020827Y-64090602D01*
X221020814Y-64090609D01*
X220889711Y-64178210D01*
X220889707Y-64178213D01*
X220778213Y-64289707D01*
X220778210Y-64289711D01*
X220690609Y-64420814D01*
X220690602Y-64420827D01*
X220630264Y-64566498D01*
X220630261Y-64566510D01*
X220599500Y-64721153D01*
X215700499Y-64721153D01*
X215672066Y-64578211D01*
X215669737Y-64566503D01*
X215638298Y-64490602D01*
X215609397Y-64420827D01*
X215609390Y-64420814D01*
X215521790Y-64289712D01*
X215499500Y-64267422D01*
X215432502Y-64200424D01*
X215399019Y-64139104D01*
X215398569Y-64088547D01*
X215400500Y-64078844D01*
X215400500Y-64078842D01*
X215400500Y-63921158D01*
X215400500Y-63921155D01*
X215400499Y-63921153D01*
X215389884Y-63867789D01*
X215369737Y-63766503D01*
X215315571Y-63635735D01*
X215308103Y-63566267D01*
X215339378Y-63503788D01*
X215399467Y-63468136D01*
X215460339Y-63469494D01*
X215460528Y-63468549D01*
X215465907Y-63469619D01*
X215466129Y-63469624D01*
X215466503Y-63469737D01*
X215621153Y-63500499D01*
X215621156Y-63500500D01*
X215621158Y-63500500D01*
X215778844Y-63500500D01*
X215778845Y-63500499D01*
X215933497Y-63469737D01*
X216079179Y-63409394D01*
X216210289Y-63321789D01*
X216321789Y-63210289D01*
X216409394Y-63079179D01*
X216433429Y-63021153D01*
X232999500Y-63021153D01*
X232999500Y-63178846D01*
X233030261Y-63333489D01*
X233030264Y-63333501D01*
X233090602Y-63479172D01*
X233090609Y-63479185D01*
X233178210Y-63610288D01*
X233178213Y-63610292D01*
X233289707Y-63721786D01*
X233289711Y-63721789D01*
X233420814Y-63809390D01*
X233420827Y-63809397D01*
X233561793Y-63867786D01*
X233566503Y-63869737D01*
X233721153Y-63900499D01*
X233721156Y-63900500D01*
X233721158Y-63900500D01*
X233878844Y-63900500D01*
X233878845Y-63900499D01*
X234033497Y-63869737D01*
X234179179Y-63809394D01*
X234310289Y-63721789D01*
X234421789Y-63610289D01*
X234509394Y-63479179D01*
X234569737Y-63333497D01*
X234600500Y-63178842D01*
X234600500Y-63021158D01*
X234600500Y-63021155D01*
X234600499Y-63021153D01*
X234598777Y-63012498D01*
X234569737Y-62866503D01*
X234542398Y-62800500D01*
X234509397Y-62720827D01*
X234509391Y-62720816D01*
X234505525Y-62715030D01*
X234484648Y-62648353D01*
X234503133Y-62580973D01*
X234555112Y-62534283D01*
X234584433Y-62524523D01*
X234608497Y-62519737D01*
X234754179Y-62459394D01*
X234885289Y-62371789D01*
X234996789Y-62260289D01*
X235084394Y-62129179D01*
X235089766Y-62116211D01*
X235144735Y-61983501D01*
X235144737Y-61983497D01*
X235157138Y-61921153D01*
X245699500Y-61921153D01*
X245699500Y-62078846D01*
X245730261Y-62233489D01*
X245730264Y-62233501D01*
X245790602Y-62379172D01*
X245790609Y-62379185D01*
X245878210Y-62510288D01*
X245878213Y-62510292D01*
X245989707Y-62621786D01*
X245989711Y-62621789D01*
X246120814Y-62709390D01*
X246120827Y-62709397D01*
X246184356Y-62735711D01*
X246266503Y-62769737D01*
X246421153Y-62800499D01*
X246421156Y-62800500D01*
X246421158Y-62800500D01*
X246578844Y-62800500D01*
X246578845Y-62800499D01*
X246733497Y-62769737D01*
X246851604Y-62720816D01*
X246879172Y-62709397D01*
X246879172Y-62709396D01*
X246879179Y-62709394D01*
X247010289Y-62621789D01*
X247121789Y-62510289D01*
X247209394Y-62379179D01*
X247217827Y-62358821D01*
X247229655Y-62330264D01*
X247269737Y-62233497D01*
X247300500Y-62078842D01*
X247300500Y-61921158D01*
X247300500Y-61921155D01*
X247300499Y-61921153D01*
X247293632Y-61886632D01*
X247269737Y-61766503D01*
X247216421Y-61637785D01*
X247209397Y-61620827D01*
X247209390Y-61620814D01*
X247121789Y-61489711D01*
X247121786Y-61489707D01*
X247010292Y-61378213D01*
X247010288Y-61378210D01*
X246879185Y-61290609D01*
X246879172Y-61290602D01*
X246733501Y-61230264D01*
X246733489Y-61230261D01*
X246578845Y-61199500D01*
X246578842Y-61199500D01*
X246421158Y-61199500D01*
X246421155Y-61199500D01*
X246266510Y-61230261D01*
X246266498Y-61230264D01*
X246120827Y-61290602D01*
X246120814Y-61290609D01*
X245989711Y-61378210D01*
X245989707Y-61378213D01*
X245878213Y-61489707D01*
X245878210Y-61489711D01*
X245790609Y-61620814D01*
X245790602Y-61620827D01*
X245730264Y-61766498D01*
X245730261Y-61766510D01*
X245699500Y-61921153D01*
X235157138Y-61921153D01*
X235164006Y-61886628D01*
X235175500Y-61828844D01*
X235175500Y-61671155D01*
X235175499Y-61671153D01*
X235155326Y-61569737D01*
X235144737Y-61516503D01*
X235141791Y-61509390D01*
X235084397Y-61370827D01*
X235084390Y-61370814D01*
X234996789Y-61239711D01*
X234996786Y-61239707D01*
X234885292Y-61128213D01*
X234885288Y-61128210D01*
X234754185Y-61040609D01*
X234754172Y-61040602D01*
X234608501Y-60980264D01*
X234608489Y-60980261D01*
X234453845Y-60949500D01*
X234453842Y-60949500D01*
X234296158Y-60949500D01*
X234296155Y-60949500D01*
X234141510Y-60980261D01*
X234141498Y-60980264D01*
X233995827Y-61040602D01*
X233995814Y-61040609D01*
X233864711Y-61128210D01*
X233864707Y-61128213D01*
X233753213Y-61239707D01*
X233753210Y-61239711D01*
X233665609Y-61370814D01*
X233665602Y-61370827D01*
X233605264Y-61516498D01*
X233605261Y-61516510D01*
X233574500Y-61671153D01*
X233574500Y-61828846D01*
X233605261Y-61983489D01*
X233605264Y-61983501D01*
X233665602Y-62129172D01*
X233665610Y-62129186D01*
X233669475Y-62134971D01*
X233690351Y-62201649D01*
X233671865Y-62269029D01*
X233619885Y-62315717D01*
X233590566Y-62325476D01*
X233566504Y-62330262D01*
X233566498Y-62330264D01*
X233420827Y-62390602D01*
X233420814Y-62390609D01*
X233289711Y-62478210D01*
X233289707Y-62478213D01*
X233178213Y-62589707D01*
X233178210Y-62589711D01*
X233090609Y-62720814D01*
X233090602Y-62720827D01*
X233030264Y-62866498D01*
X233030261Y-62866510D01*
X232999500Y-63021153D01*
X216433429Y-63021153D01*
X216437014Y-63012498D01*
X216455603Y-62967621D01*
X216455605Y-62967614D01*
X216469737Y-62933497D01*
X216500500Y-62778842D01*
X216500500Y-62621158D01*
X216500500Y-62621155D01*
X216500499Y-62621153D01*
X216483681Y-62536606D01*
X216469737Y-62466503D01*
X216433569Y-62379185D01*
X216409397Y-62320827D01*
X216409390Y-62320814D01*
X216321789Y-62189711D01*
X216321786Y-62189707D01*
X216210292Y-62078213D01*
X216210288Y-62078210D01*
X216079185Y-61990609D01*
X216079172Y-61990602D01*
X215933501Y-61930264D01*
X215933489Y-61930261D01*
X215778845Y-61899500D01*
X215778842Y-61899500D01*
X215621158Y-61899500D01*
X215621155Y-61899500D01*
X215466510Y-61930261D01*
X215466498Y-61930264D01*
X215320827Y-61990602D01*
X215320814Y-61990609D01*
X215189711Y-62078210D01*
X215189707Y-62078213D01*
X215087681Y-62180240D01*
X215026358Y-62213725D01*
X214956666Y-62208741D01*
X214912319Y-62180240D01*
X214810292Y-62078213D01*
X214810288Y-62078210D01*
X214679185Y-61990609D01*
X214679172Y-61990602D01*
X214533501Y-61930264D01*
X214533489Y-61930261D01*
X214378845Y-61899500D01*
X214378842Y-61899500D01*
X214221158Y-61899500D01*
X214221155Y-61899500D01*
X214066510Y-61930261D01*
X214066498Y-61930264D01*
X213920827Y-61990602D01*
X213920814Y-61990609D01*
X213789711Y-62078210D01*
X213789707Y-62078213D01*
X213678213Y-62189707D01*
X213678210Y-62189711D01*
X213590609Y-62320814D01*
X213590602Y-62320827D01*
X213530264Y-62466498D01*
X213530261Y-62466510D01*
X213499500Y-62621153D01*
X198117713Y-62621153D01*
X197991185Y-62536609D01*
X197991172Y-62536602D01*
X197845501Y-62476264D01*
X197845489Y-62476261D01*
X197690845Y-62445500D01*
X197690842Y-62445500D01*
X197678151Y-62445500D01*
X197611112Y-62425815D01*
X197565357Y-62373011D01*
X197563610Y-62368999D01*
X197559394Y-62358821D01*
X197471789Y-62227711D01*
X197471786Y-62227707D01*
X197360292Y-62116213D01*
X197360288Y-62116210D01*
X197229185Y-62028609D01*
X197229172Y-62028602D01*
X197083501Y-61968264D01*
X197083489Y-61968261D01*
X196928845Y-61937500D01*
X196928842Y-61937500D01*
X196771158Y-61937500D01*
X196771155Y-61937500D01*
X196616510Y-61968261D01*
X196616498Y-61968264D01*
X196470827Y-62028602D01*
X196470814Y-62028609D01*
X196339711Y-62116210D01*
X196339707Y-62116213D01*
X196228213Y-62227707D01*
X196228210Y-62227711D01*
X196140609Y-62358814D01*
X196140602Y-62358827D01*
X196080264Y-62504498D01*
X196080261Y-62504510D01*
X196049500Y-62659153D01*
X190500500Y-62659153D01*
X190500500Y-60721153D01*
X197099500Y-60721153D01*
X197099500Y-60878846D01*
X197130261Y-61033489D01*
X197130264Y-61033501D01*
X197190602Y-61179172D01*
X197190609Y-61179185D01*
X197278210Y-61310288D01*
X197278213Y-61310292D01*
X197389707Y-61421786D01*
X197389711Y-61421789D01*
X197520814Y-61509390D01*
X197520827Y-61509397D01*
X197666498Y-61569735D01*
X197666503Y-61569737D01*
X197821153Y-61600499D01*
X197821156Y-61600500D01*
X197821158Y-61600500D01*
X197978844Y-61600500D01*
X197978845Y-61600499D01*
X198133497Y-61569737D01*
X198279179Y-61509394D01*
X198410289Y-61421789D01*
X198521789Y-61310289D01*
X198609394Y-61179179D01*
X198669737Y-61033497D01*
X198700500Y-60878842D01*
X198700500Y-60721158D01*
X198700500Y-60721155D01*
X198700499Y-60721153D01*
X198698338Y-60710289D01*
X198669737Y-60566503D01*
X198656062Y-60533489D01*
X198609397Y-60420827D01*
X198609390Y-60420814D01*
X198521790Y-60289712D01*
X198521784Y-60289705D01*
X198453232Y-60221153D01*
X200902500Y-60221153D01*
X200902500Y-60378846D01*
X200933261Y-60533489D01*
X200933264Y-60533501D01*
X200993602Y-60679172D01*
X200993609Y-60679185D01*
X201081210Y-60810288D01*
X201081213Y-60810292D01*
X201192707Y-60921786D01*
X201192711Y-60921789D01*
X201323814Y-61009390D01*
X201323827Y-61009397D01*
X201399181Y-61040609D01*
X201469503Y-61069737D01*
X201614310Y-61098541D01*
X201624153Y-61100499D01*
X201624156Y-61100500D01*
X201624158Y-61100500D01*
X201781844Y-61100500D01*
X201781845Y-61100499D01*
X201936497Y-61069737D01*
X202082179Y-61009394D01*
X202213289Y-60921789D01*
X202324789Y-60810289D01*
X202342351Y-60784004D01*
X202395963Y-60739200D01*
X202465288Y-60730492D01*
X202528316Y-60760646D01*
X202533135Y-60765214D01*
X202589707Y-60821786D01*
X202589711Y-60821789D01*
X202720814Y-60909390D01*
X202720827Y-60909397D01*
X202817646Y-60949500D01*
X202866503Y-60969737D01*
X203021153Y-61000499D01*
X203021156Y-61000500D01*
X203021158Y-61000500D01*
X203178844Y-61000500D01*
X203178845Y-61000499D01*
X203333497Y-60969737D01*
X203479179Y-60909394D01*
X203610289Y-60821789D01*
X203721789Y-60710289D01*
X203766804Y-60642919D01*
X203820414Y-60598116D01*
X203889739Y-60589408D01*
X203952767Y-60619562D01*
X203984465Y-60664355D01*
X203990604Y-60679176D01*
X203990609Y-60679185D01*
X204078210Y-60810288D01*
X204078213Y-60810292D01*
X204189707Y-60921786D01*
X204189711Y-60921789D01*
X204320814Y-61009390D01*
X204320827Y-61009397D01*
X204396181Y-61040609D01*
X204466503Y-61069737D01*
X204611310Y-61098541D01*
X204621153Y-61100499D01*
X204621156Y-61100500D01*
X204621158Y-61100500D01*
X204778844Y-61100500D01*
X204778845Y-61100499D01*
X204933497Y-61069737D01*
X205079179Y-61009394D01*
X205210289Y-60921789D01*
X205321789Y-60810289D01*
X205409394Y-60679179D01*
X205469737Y-60533497D01*
X205500500Y-60378842D01*
X205500500Y-60221158D01*
X205500500Y-60221155D01*
X205500499Y-60221153D01*
X205483915Y-60137780D01*
X205469737Y-60066503D01*
X205468518Y-60063560D01*
X205409397Y-59920827D01*
X205409390Y-59920814D01*
X205321789Y-59789711D01*
X205321786Y-59789707D01*
X205315913Y-59783834D01*
X205312108Y-59776866D01*
X205305669Y-59772223D01*
X205295602Y-59746638D01*
X205282428Y-59722511D01*
X205282342Y-59712936D01*
X205280087Y-59707204D01*
X205281977Y-59671961D01*
X205288853Y-59637397D01*
X205290890Y-59627153D01*
X205323275Y-59565243D01*
X205383991Y-59530669D01*
X205453761Y-59534410D01*
X205481398Y-59548244D01*
X205614814Y-59637390D01*
X205614827Y-59637397D01*
X205760498Y-59697735D01*
X205760503Y-59697737D01*
X205915153Y-59728499D01*
X205915156Y-59728500D01*
X205915158Y-59728500D01*
X206072844Y-59728500D01*
X206072845Y-59728499D01*
X206227497Y-59697737D01*
X206373179Y-59637394D01*
X206504289Y-59549789D01*
X206615789Y-59438289D01*
X206703394Y-59307179D01*
X206763737Y-59161497D01*
X206794500Y-59006842D01*
X206794500Y-58942649D01*
X206814185Y-58875610D01*
X206866989Y-58829855D01*
X206936147Y-58819911D01*
X206965952Y-58828088D01*
X207048350Y-58862218D01*
X207066503Y-58869737D01*
X207221153Y-58900499D01*
X207221156Y-58900500D01*
X207221158Y-58900500D01*
X207378844Y-58900500D01*
X207378845Y-58900499D01*
X207533497Y-58869737D01*
X207679179Y-58809394D01*
X207810289Y-58721789D01*
X207837580Y-58694498D01*
X207887819Y-58644260D01*
X207949142Y-58610775D01*
X208018834Y-58615759D01*
X208074767Y-58657631D01*
X208099184Y-58723095D01*
X208099500Y-58731941D01*
X208099500Y-58778844D01*
X208130261Y-58933489D01*
X208130264Y-58933501D01*
X208190602Y-59079172D01*
X208190609Y-59079185D01*
X208278210Y-59210288D01*
X208278213Y-59210292D01*
X208389707Y-59321786D01*
X208389711Y-59321789D01*
X208520814Y-59409390D01*
X208520827Y-59409397D01*
X208590580Y-59438289D01*
X208666503Y-59469737D01*
X208816131Y-59499500D01*
X208821153Y-59500499D01*
X208821156Y-59500500D01*
X208821158Y-59500500D01*
X208978844Y-59500500D01*
X208978845Y-59500499D01*
X209133497Y-59469737D01*
X209279179Y-59409394D01*
X209410289Y-59321789D01*
X209521789Y-59210289D01*
X209609394Y-59079179D01*
X209669737Y-58933497D01*
X209694424Y-58809390D01*
X209700500Y-58778844D01*
X209700500Y-58621155D01*
X209700499Y-58621153D01*
X215349500Y-58621153D01*
X215349500Y-58778844D01*
X215380261Y-58933489D01*
X215380264Y-58933501D01*
X215440602Y-59079172D01*
X215440609Y-59079185D01*
X215528210Y-59210288D01*
X215528213Y-59210292D01*
X215639707Y-59321786D01*
X215639711Y-59321789D01*
X215770814Y-59409390D01*
X215770827Y-59409397D01*
X215840580Y-59438289D01*
X215916503Y-59469737D01*
X216066131Y-59499500D01*
X216071153Y-59500499D01*
X216071156Y-59500500D01*
X216071158Y-59500500D01*
X216228844Y-59500500D01*
X216228845Y-59500499D01*
X216383497Y-59469737D01*
X216459422Y-59438288D01*
X216534808Y-59407063D01*
X216535266Y-59408170D01*
X216597447Y-59395223D01*
X216639929Y-59407696D01*
X216640192Y-59407063D01*
X216715587Y-59438292D01*
X216791503Y-59469737D01*
X216941131Y-59499500D01*
X216946153Y-59500499D01*
X216946156Y-59500500D01*
X216946158Y-59500500D01*
X217103844Y-59500500D01*
X217103845Y-59500499D01*
X217258497Y-59469737D01*
X217334422Y-59438288D01*
X217409808Y-59407063D01*
X217410266Y-59408170D01*
X217472447Y-59395223D01*
X217514929Y-59407696D01*
X217515192Y-59407063D01*
X217590587Y-59438292D01*
X217666503Y-59469737D01*
X217816131Y-59499500D01*
X217821153Y-59500499D01*
X217821156Y-59500500D01*
X217821158Y-59500500D01*
X217978844Y-59500500D01*
X217978845Y-59500499D01*
X218133497Y-59469737D01*
X218279179Y-59409394D01*
X218410289Y-59321789D01*
X218521789Y-59210289D01*
X218609394Y-59079179D01*
X218669737Y-58933497D01*
X218694424Y-58809390D01*
X218700500Y-58778844D01*
X218700500Y-58621155D01*
X218700499Y-58621153D01*
X218673117Y-58483497D01*
X218669737Y-58466503D01*
X218642398Y-58400500D01*
X218609397Y-58320827D01*
X218609390Y-58320814D01*
X218521789Y-58189711D01*
X218521786Y-58189707D01*
X218430622Y-58098543D01*
X229099499Y-58098543D01*
X229137947Y-58291829D01*
X229137950Y-58291839D01*
X229213364Y-58473907D01*
X229213371Y-58473920D01*
X229322860Y-58637781D01*
X229322863Y-58637785D01*
X229347397Y-58662319D01*
X229380882Y-58723642D01*
X229375898Y-58793334D01*
X229347397Y-58837681D01*
X229322863Y-58862214D01*
X229322860Y-58862218D01*
X229213371Y-59026079D01*
X229213364Y-59026092D01*
X229137950Y-59208160D01*
X229137947Y-59208170D01*
X229099500Y-59401456D01*
X229099500Y-59401459D01*
X229099500Y-59598541D01*
X229099500Y-59598543D01*
X229099499Y-59598543D01*
X229137947Y-59791829D01*
X229137950Y-59791839D01*
X229213364Y-59973907D01*
X229213371Y-59973920D01*
X229322860Y-60137781D01*
X229322863Y-60137785D01*
X229347397Y-60162319D01*
X229380882Y-60223642D01*
X229375898Y-60293334D01*
X229347397Y-60337681D01*
X229322863Y-60362214D01*
X229322860Y-60362218D01*
X229213371Y-60526079D01*
X229213364Y-60526092D01*
X229137950Y-60708160D01*
X229137947Y-60708170D01*
X229099500Y-60901456D01*
X229099500Y-60901459D01*
X229099500Y-61098541D01*
X229099500Y-61098543D01*
X229099499Y-61098543D01*
X229137947Y-61291829D01*
X229137950Y-61291839D01*
X229213364Y-61473907D01*
X229213371Y-61473920D01*
X229322860Y-61637781D01*
X229322863Y-61637785D01*
X229462214Y-61777136D01*
X229462218Y-61777139D01*
X229626079Y-61886628D01*
X229626092Y-61886635D01*
X229748893Y-61937500D01*
X229808165Y-61962051D01*
X229808169Y-61962051D01*
X229808170Y-61962052D01*
X230001456Y-62000500D01*
X230001459Y-62000500D01*
X230198543Y-62000500D01*
X230360600Y-61968264D01*
X230391835Y-61962051D01*
X230542848Y-61899500D01*
X230573907Y-61886635D01*
X230573907Y-61886634D01*
X230573914Y-61886632D01*
X230731109Y-61781598D01*
X230797787Y-61760720D01*
X230865167Y-61779204D01*
X230868891Y-61781598D01*
X231026079Y-61886628D01*
X231026092Y-61886635D01*
X231148893Y-61937500D01*
X231208165Y-61962051D01*
X231208169Y-61962051D01*
X231208170Y-61962052D01*
X231401456Y-62000500D01*
X231401459Y-62000500D01*
X231598543Y-62000500D01*
X231760600Y-61968264D01*
X231791835Y-61962051D01*
X231942848Y-61899500D01*
X231973907Y-61886635D01*
X231973907Y-61886634D01*
X231973914Y-61886632D01*
X232137782Y-61777139D01*
X232277139Y-61637782D01*
X232386632Y-61473914D01*
X232462051Y-61291835D01*
X232494598Y-61128213D01*
X232500500Y-61098543D01*
X232500500Y-60901456D01*
X232462052Y-60708170D01*
X232462051Y-60708169D01*
X232462051Y-60708165D01*
X232450045Y-60679179D01*
X232386635Y-60526092D01*
X232386628Y-60526079D01*
X232277140Y-60362219D01*
X232275209Y-60360288D01*
X232252601Y-60337680D01*
X232219117Y-60276360D01*
X232224100Y-60206668D01*
X232252601Y-60162319D01*
X232277139Y-60137782D01*
X232386632Y-59973914D01*
X232462051Y-59791835D01*
X232480768Y-59697738D01*
X232500500Y-59598543D01*
X232500500Y-59401456D01*
X232462052Y-59208170D01*
X232462051Y-59208169D01*
X232462051Y-59208165D01*
X232442721Y-59161497D01*
X232386635Y-59026092D01*
X232386628Y-59026079D01*
X232277140Y-58862219D01*
X232277135Y-58862214D01*
X232252601Y-58837680D01*
X232219117Y-58776360D01*
X232224100Y-58706668D01*
X232252601Y-58662319D01*
X232277139Y-58637782D01*
X232386632Y-58473914D01*
X232462051Y-58291835D01*
X232476617Y-58218609D01*
X232486057Y-58171153D01*
X233574500Y-58171153D01*
X233574500Y-58328846D01*
X233605261Y-58483489D01*
X233605264Y-58483501D01*
X233665602Y-58629172D01*
X233665609Y-58629185D01*
X233753210Y-58760288D01*
X233753213Y-58760292D01*
X233864707Y-58871786D01*
X233864711Y-58871789D01*
X233977118Y-58946898D01*
X234021923Y-59000510D01*
X234030630Y-59069835D01*
X234000475Y-59132863D01*
X233977118Y-59153102D01*
X233864711Y-59228210D01*
X233864707Y-59228213D01*
X233753213Y-59339707D01*
X233753210Y-59339711D01*
X233665609Y-59470814D01*
X233665602Y-59470827D01*
X233605264Y-59616498D01*
X233605261Y-59616510D01*
X233574500Y-59771153D01*
X233574500Y-59928846D01*
X233605261Y-60083489D01*
X233605264Y-60083501D01*
X233665602Y-60229172D01*
X233665609Y-60229185D01*
X233753210Y-60360288D01*
X233753213Y-60360292D01*
X233864707Y-60471786D01*
X233864711Y-60471789D01*
X233995814Y-60559390D01*
X233995827Y-60559397D01*
X234141498Y-60619735D01*
X234141503Y-60619737D01*
X234296153Y-60650499D01*
X234296156Y-60650500D01*
X234296158Y-60650500D01*
X234453844Y-60650500D01*
X234453845Y-60650499D01*
X234608497Y-60619737D01*
X234754179Y-60559394D01*
X234885289Y-60471789D01*
X234996789Y-60360289D01*
X235084394Y-60229179D01*
X235086688Y-60223642D01*
X235122250Y-60137785D01*
X235144737Y-60083497D01*
X235175500Y-59928842D01*
X235175500Y-59771158D01*
X235175500Y-59771155D01*
X235175499Y-59771153D01*
X235167015Y-59728500D01*
X235144737Y-59616503D01*
X235137297Y-59598541D01*
X235084397Y-59470827D01*
X235084390Y-59470814D01*
X234996789Y-59339711D01*
X234996786Y-59339707D01*
X234885292Y-59228213D01*
X234885288Y-59228210D01*
X234772881Y-59153102D01*
X234728076Y-59099490D01*
X234719369Y-59030165D01*
X234749523Y-58967137D01*
X234772881Y-58946898D01*
X234847064Y-58897330D01*
X234885289Y-58871789D01*
X234996789Y-58760289D01*
X235084394Y-58629179D01*
X235087719Y-58621153D01*
X235098067Y-58596166D01*
X235144737Y-58483497D01*
X235175500Y-58328842D01*
X235175500Y-58171158D01*
X235175500Y-58171155D01*
X235175499Y-58171153D01*
X235161055Y-58098541D01*
X235144737Y-58016503D01*
X235139880Y-58004777D01*
X235084397Y-57870827D01*
X235084390Y-57870814D01*
X234996789Y-57739711D01*
X234996786Y-57739707D01*
X234885292Y-57628213D01*
X234885288Y-57628210D01*
X234754185Y-57540609D01*
X234754172Y-57540602D01*
X234608501Y-57480264D01*
X234608489Y-57480261D01*
X234453845Y-57449500D01*
X234453842Y-57449500D01*
X234296158Y-57449500D01*
X234296155Y-57449500D01*
X234141510Y-57480261D01*
X234141498Y-57480264D01*
X233995827Y-57540602D01*
X233995814Y-57540609D01*
X233864711Y-57628210D01*
X233864707Y-57628213D01*
X233753213Y-57739707D01*
X233753210Y-57739711D01*
X233665609Y-57870814D01*
X233665602Y-57870827D01*
X233605264Y-58016498D01*
X233605261Y-58016510D01*
X233574500Y-58171153D01*
X232486057Y-58171153D01*
X232492080Y-58140874D01*
X232492080Y-58140873D01*
X232500499Y-58098545D01*
X232500500Y-58098543D01*
X232500500Y-57901456D01*
X232462052Y-57708170D01*
X232462051Y-57708169D01*
X232462051Y-57708165D01*
X232428933Y-57628210D01*
X232386635Y-57526092D01*
X232386628Y-57526079D01*
X232277139Y-57362218D01*
X232277136Y-57362214D01*
X232137785Y-57222863D01*
X232137781Y-57222860D01*
X231973920Y-57113371D01*
X231973907Y-57113364D01*
X231791839Y-57037950D01*
X231791829Y-57037947D01*
X231598543Y-56999500D01*
X231598541Y-56999500D01*
X231401459Y-56999500D01*
X231401457Y-56999500D01*
X231208170Y-57037947D01*
X231208160Y-57037950D01*
X231026092Y-57113364D01*
X231026074Y-57113374D01*
X230868890Y-57218401D01*
X230802213Y-57239279D01*
X230734833Y-57220794D01*
X230731110Y-57218401D01*
X230573925Y-57113374D01*
X230573907Y-57113364D01*
X230391839Y-57037950D01*
X230391829Y-57037947D01*
X230198543Y-56999500D01*
X230198541Y-56999500D01*
X230001459Y-56999500D01*
X230001457Y-56999500D01*
X229808170Y-57037947D01*
X229808160Y-57037950D01*
X229626092Y-57113364D01*
X229626079Y-57113371D01*
X229462218Y-57222860D01*
X229462214Y-57222863D01*
X229322863Y-57362214D01*
X229322860Y-57362218D01*
X229213371Y-57526079D01*
X229213364Y-57526092D01*
X229137950Y-57708160D01*
X229137947Y-57708170D01*
X229099500Y-57901456D01*
X229099500Y-57901459D01*
X229099500Y-58098541D01*
X229099500Y-58098543D01*
X229099499Y-58098543D01*
X218430622Y-58098543D01*
X218410292Y-58078213D01*
X218410288Y-58078210D01*
X218290948Y-57998469D01*
X218279183Y-57990608D01*
X218279172Y-57990602D01*
X218133501Y-57930264D01*
X218133489Y-57930261D01*
X217978845Y-57899500D01*
X217978842Y-57899500D01*
X217821158Y-57899500D01*
X217821155Y-57899500D01*
X217666510Y-57930261D01*
X217666498Y-57930264D01*
X217515193Y-57992937D01*
X217514734Y-57991831D01*
X217452544Y-58004777D01*
X217410068Y-57992304D01*
X217409807Y-57992937D01*
X217258501Y-57930264D01*
X217258489Y-57930261D01*
X217103845Y-57899500D01*
X217103842Y-57899500D01*
X216946158Y-57899500D01*
X216946155Y-57899500D01*
X216791510Y-57930261D01*
X216791498Y-57930264D01*
X216640193Y-57992937D01*
X216639734Y-57991831D01*
X216577544Y-58004777D01*
X216535068Y-57992304D01*
X216534807Y-57992937D01*
X216383501Y-57930264D01*
X216383489Y-57930261D01*
X216228845Y-57899500D01*
X216228842Y-57899500D01*
X216071158Y-57899500D01*
X216071155Y-57899500D01*
X215916510Y-57930261D01*
X215916498Y-57930264D01*
X215770827Y-57990602D01*
X215770814Y-57990609D01*
X215639711Y-58078210D01*
X215639707Y-58078213D01*
X215528213Y-58189707D01*
X215528210Y-58189711D01*
X215440609Y-58320814D01*
X215440602Y-58320827D01*
X215380264Y-58466498D01*
X215380261Y-58466510D01*
X215349500Y-58621153D01*
X209700499Y-58621153D01*
X209673117Y-58483497D01*
X209669737Y-58466503D01*
X209642398Y-58400500D01*
X209609397Y-58320827D01*
X209609390Y-58320814D01*
X209521789Y-58189711D01*
X209521786Y-58189707D01*
X209410292Y-58078213D01*
X209410288Y-58078210D01*
X209279185Y-57990609D01*
X209279172Y-57990602D01*
X209133501Y-57930264D01*
X209133489Y-57930261D01*
X208978845Y-57899500D01*
X208978842Y-57899500D01*
X208821158Y-57899500D01*
X208821155Y-57899500D01*
X208666510Y-57930261D01*
X208666498Y-57930264D01*
X208520827Y-57990602D01*
X208520814Y-57990609D01*
X208389711Y-58078210D01*
X208389707Y-58078213D01*
X208312181Y-58155740D01*
X208250858Y-58189225D01*
X208181166Y-58184241D01*
X208125233Y-58142369D01*
X208100816Y-58076905D01*
X208100500Y-58068059D01*
X208100500Y-58021155D01*
X208100499Y-58021153D01*
X208094886Y-57992937D01*
X208069737Y-57866503D01*
X208029655Y-57769735D01*
X208009397Y-57720827D01*
X208009390Y-57720814D01*
X207921789Y-57589711D01*
X207921786Y-57589707D01*
X207810292Y-57478213D01*
X207810288Y-57478210D01*
X207679185Y-57390609D01*
X207679172Y-57390602D01*
X207533501Y-57330264D01*
X207533489Y-57330261D01*
X207378845Y-57299500D01*
X207378842Y-57299500D01*
X207221158Y-57299500D01*
X207221155Y-57299500D01*
X207066510Y-57330261D01*
X207066498Y-57330264D01*
X206920827Y-57390602D01*
X206920814Y-57390609D01*
X206789711Y-57478210D01*
X206789707Y-57478213D01*
X206678213Y-57589707D01*
X206678210Y-57589711D01*
X206590609Y-57720814D01*
X206590602Y-57720827D01*
X206530264Y-57866498D01*
X206530261Y-57866510D01*
X206499500Y-58021153D01*
X206499500Y-58085350D01*
X206479815Y-58152389D01*
X206427011Y-58198144D01*
X206357853Y-58208088D01*
X206328049Y-58199912D01*
X206265404Y-58173964D01*
X206227497Y-58158263D01*
X206227493Y-58158262D01*
X206227489Y-58158261D01*
X206072845Y-58127500D01*
X206072842Y-58127500D01*
X205915158Y-58127500D01*
X205915155Y-58127500D01*
X205760510Y-58158261D01*
X205760498Y-58158264D01*
X205614827Y-58218602D01*
X205614814Y-58218609D01*
X205483711Y-58306210D01*
X205483707Y-58306213D01*
X205372213Y-58417707D01*
X205372210Y-58417711D01*
X205284609Y-58548814D01*
X205284602Y-58548827D01*
X205224264Y-58694498D01*
X205224261Y-58694508D01*
X205203109Y-58800845D01*
X205170724Y-58862756D01*
X205110008Y-58897330D01*
X205040238Y-58893589D01*
X205012601Y-58879755D01*
X204879185Y-58790609D01*
X204879172Y-58790602D01*
X204733501Y-58730264D01*
X204733489Y-58730261D01*
X204578845Y-58699500D01*
X204578842Y-58699500D01*
X204421158Y-58699500D01*
X204421155Y-58699500D01*
X204266510Y-58730261D01*
X204266498Y-58730264D01*
X204120827Y-58790602D01*
X204120814Y-58790609D01*
X203989711Y-58878210D01*
X203989707Y-58878213D01*
X203878213Y-58989707D01*
X203878210Y-58989711D01*
X203790609Y-59120814D01*
X203790602Y-59120827D01*
X203730264Y-59266498D01*
X203730261Y-59266510D01*
X203698311Y-59427132D01*
X203696444Y-59426760D01*
X203673590Y-59483348D01*
X203616553Y-59523704D01*
X203546753Y-59526816D01*
X203507463Y-59509504D01*
X203479183Y-59490608D01*
X203479172Y-59490602D01*
X203333501Y-59430264D01*
X203333489Y-59430261D01*
X203178845Y-59399500D01*
X203178842Y-59399500D01*
X203021158Y-59399500D01*
X203021155Y-59399500D01*
X202866510Y-59430261D01*
X202866498Y-59430264D01*
X202720827Y-59490602D01*
X202720814Y-59490609D01*
X202589711Y-59578210D01*
X202589707Y-59578213D01*
X202478213Y-59689707D01*
X202478209Y-59689712D01*
X202460645Y-59715998D01*
X202407032Y-59760801D01*
X202337707Y-59769507D01*
X202274680Y-59739350D01*
X202269864Y-59734785D01*
X202213292Y-59678213D01*
X202213288Y-59678210D01*
X202082185Y-59590609D01*
X202082172Y-59590602D01*
X201936501Y-59530264D01*
X201936489Y-59530261D01*
X201781845Y-59499500D01*
X201781842Y-59499500D01*
X201624158Y-59499500D01*
X201624155Y-59499500D01*
X201469510Y-59530261D01*
X201469498Y-59530264D01*
X201323827Y-59590602D01*
X201323814Y-59590609D01*
X201192711Y-59678210D01*
X201192707Y-59678213D01*
X201081213Y-59789707D01*
X201081210Y-59789711D01*
X200993609Y-59920814D01*
X200993602Y-59920827D01*
X200933264Y-60066498D01*
X200933261Y-60066510D01*
X200902500Y-60221153D01*
X198453232Y-60221153D01*
X198410292Y-60178213D01*
X198410288Y-60178210D01*
X198279185Y-60090609D01*
X198279172Y-60090602D01*
X198133501Y-60030264D01*
X198133489Y-60030261D01*
X197978845Y-59999500D01*
X197978842Y-59999500D01*
X197821158Y-59999500D01*
X197821155Y-59999500D01*
X197666510Y-60030261D01*
X197666498Y-60030264D01*
X197520827Y-60090602D01*
X197520814Y-60090609D01*
X197389711Y-60178210D01*
X197389707Y-60178213D01*
X197278213Y-60289707D01*
X197278210Y-60289711D01*
X197190609Y-60420814D01*
X197190602Y-60420827D01*
X197130264Y-60566498D01*
X197130261Y-60566510D01*
X197099500Y-60721153D01*
X190500500Y-60721153D01*
X190500500Y-59924000D01*
X190520185Y-59856961D01*
X190572989Y-59811206D01*
X190624500Y-59800000D01*
X195200000Y-59800000D01*
X195200000Y-57121153D01*
X199099500Y-57121153D01*
X199099500Y-57278844D01*
X199130261Y-57433489D01*
X199130264Y-57433501D01*
X199190602Y-57579172D01*
X199190609Y-57579185D01*
X199278210Y-57710288D01*
X199278213Y-57710292D01*
X199389707Y-57821786D01*
X199389711Y-57821789D01*
X199520814Y-57909390D01*
X199520827Y-57909397D01*
X199666498Y-57969735D01*
X199666503Y-57969737D01*
X199810948Y-57998469D01*
X199821153Y-58000499D01*
X199821156Y-58000500D01*
X199821158Y-58000500D01*
X199978844Y-58000500D01*
X199978845Y-58000499D01*
X200133497Y-57969737D01*
X200279179Y-57909394D01*
X200410289Y-57821789D01*
X200521789Y-57710289D01*
X200609394Y-57579179D01*
X200625370Y-57540609D01*
X200633429Y-57521153D01*
X201599500Y-57521153D01*
X201599500Y-57678846D01*
X201630261Y-57833489D01*
X201630264Y-57833501D01*
X201690602Y-57979172D01*
X201690609Y-57979185D01*
X201778210Y-58110288D01*
X201778213Y-58110292D01*
X201889707Y-58221786D01*
X201889711Y-58221789D01*
X202020814Y-58309390D01*
X202020827Y-58309397D01*
X202166498Y-58369735D01*
X202166503Y-58369737D01*
X202321153Y-58400499D01*
X202321156Y-58400500D01*
X202321158Y-58400500D01*
X202478844Y-58400500D01*
X202478845Y-58400499D01*
X202633497Y-58369737D01*
X202751592Y-58320821D01*
X202779172Y-58309397D01*
X202779172Y-58309396D01*
X202779179Y-58309394D01*
X202910289Y-58221789D01*
X203021789Y-58110289D01*
X203109394Y-57979179D01*
X203158452Y-57860740D01*
X203202290Y-57806342D01*
X203248815Y-57786581D01*
X203333497Y-57769737D01*
X203479179Y-57709394D01*
X203532394Y-57673836D01*
X203599069Y-57652958D01*
X203648734Y-57662377D01*
X203666503Y-57669737D01*
X203666507Y-57669737D01*
X203666511Y-57669739D01*
X203821153Y-57700499D01*
X203821156Y-57700500D01*
X203821158Y-57700500D01*
X203978844Y-57700500D01*
X203978845Y-57700499D01*
X204133497Y-57669737D01*
X204279179Y-57609394D01*
X204410289Y-57521789D01*
X204521789Y-57410289D01*
X204609394Y-57279179D01*
X204669737Y-57133497D01*
X204700500Y-56978842D01*
X204700500Y-56821158D01*
X204700500Y-56821155D01*
X204700499Y-56821153D01*
X204674353Y-56689711D01*
X204669737Y-56666503D01*
X204650812Y-56620814D01*
X204609397Y-56520827D01*
X204609390Y-56520814D01*
X204521789Y-56389711D01*
X204521786Y-56389707D01*
X204410292Y-56278213D01*
X204410288Y-56278210D01*
X204279185Y-56190609D01*
X204279172Y-56190602D01*
X204133501Y-56130264D01*
X204133489Y-56130261D01*
X203978845Y-56099500D01*
X203978842Y-56099500D01*
X203821158Y-56099500D01*
X203821155Y-56099500D01*
X203666510Y-56130261D01*
X203666498Y-56130264D01*
X203520828Y-56190602D01*
X203520812Y-56190611D01*
X203467604Y-56226163D01*
X203400927Y-56247040D01*
X203351263Y-56237621D01*
X203333502Y-56230264D01*
X203333494Y-56230261D01*
X203178845Y-56199500D01*
X203178842Y-56199500D01*
X203021158Y-56199500D01*
X203021155Y-56199500D01*
X202866510Y-56230261D01*
X202866498Y-56230264D01*
X202720827Y-56290602D01*
X202720814Y-56290609D01*
X202589711Y-56378210D01*
X202589707Y-56378213D01*
X202478213Y-56489707D01*
X202478210Y-56489711D01*
X202390609Y-56620814D01*
X202390604Y-56620823D01*
X202341549Y-56739255D01*
X202297708Y-56793658D01*
X202251180Y-56813419D01*
X202166508Y-56830261D01*
X202166498Y-56830264D01*
X202020827Y-56890602D01*
X202020814Y-56890609D01*
X201889711Y-56978210D01*
X201889707Y-56978213D01*
X201778213Y-57089707D01*
X201778210Y-57089711D01*
X201690609Y-57220814D01*
X201690602Y-57220827D01*
X201630264Y-57366498D01*
X201630261Y-57366510D01*
X201599500Y-57521153D01*
X200633429Y-57521153D01*
X200655603Y-57467621D01*
X200655605Y-57467614D01*
X200669737Y-57433497D01*
X200688127Y-57341041D01*
X200700500Y-57278844D01*
X200700500Y-57121155D01*
X200700499Y-57121153D01*
X200683949Y-57037950D01*
X200669737Y-56966503D01*
X200638298Y-56890602D01*
X200609397Y-56820827D01*
X200609390Y-56820814D01*
X200521789Y-56689711D01*
X200521786Y-56689707D01*
X200410292Y-56578213D01*
X200410288Y-56578210D01*
X200279185Y-56490609D01*
X200279172Y-56490602D01*
X200133501Y-56430264D01*
X200133489Y-56430261D01*
X199978845Y-56399500D01*
X199978842Y-56399500D01*
X199821158Y-56399500D01*
X199821155Y-56399500D01*
X199666510Y-56430261D01*
X199666498Y-56430264D01*
X199520827Y-56490602D01*
X199520814Y-56490609D01*
X199389711Y-56578210D01*
X199389707Y-56578213D01*
X199278213Y-56689707D01*
X199278210Y-56689711D01*
X199190609Y-56820814D01*
X199190602Y-56820827D01*
X199130264Y-56966498D01*
X199130261Y-56966510D01*
X199099500Y-57121153D01*
X195200000Y-57121153D01*
X195200000Y-53602135D01*
X198649500Y-53602135D01*
X198649500Y-55397870D01*
X198649501Y-55397876D01*
X198655908Y-55457483D01*
X198706202Y-55592328D01*
X198706206Y-55592335D01*
X198792452Y-55707544D01*
X198792455Y-55707547D01*
X198907664Y-55793793D01*
X198907671Y-55793797D01*
X199042517Y-55844091D01*
X199042516Y-55844091D01*
X199049444Y-55844835D01*
X199102127Y-55850500D01*
X200897872Y-55850499D01*
X200957483Y-55844091D01*
X201092331Y-55793796D01*
X201207546Y-55707546D01*
X201293796Y-55592331D01*
X201344091Y-55457483D01*
X201350500Y-55397873D01*
X201350499Y-54393713D01*
X203729500Y-54393713D01*
X203729500Y-54606286D01*
X203745325Y-54706205D01*
X203762754Y-54816243D01*
X203821246Y-54996263D01*
X203828444Y-55018414D01*
X203924951Y-55207820D01*
X204049890Y-55379786D01*
X204200213Y-55530109D01*
X204372179Y-55655048D01*
X204372181Y-55655049D01*
X204372184Y-55655051D01*
X204561588Y-55751557D01*
X204763757Y-55817246D01*
X204973713Y-55850500D01*
X204973714Y-55850500D01*
X205186286Y-55850500D01*
X205186287Y-55850500D01*
X205396243Y-55817246D01*
X205598412Y-55751557D01*
X205787816Y-55655051D01*
X205874138Y-55592335D01*
X205959786Y-55530109D01*
X205959788Y-55530106D01*
X205959792Y-55530104D01*
X206110104Y-55379792D01*
X206110106Y-55379788D01*
X206110109Y-55379786D01*
X206235048Y-55207820D01*
X206235047Y-55207820D01*
X206235051Y-55207816D01*
X206239514Y-55199054D01*
X206287488Y-55148259D01*
X206355308Y-55131463D01*
X206421444Y-55153999D01*
X206460486Y-55199056D01*
X206464951Y-55207820D01*
X206589890Y-55379786D01*
X206740213Y-55530109D01*
X206912179Y-55655048D01*
X206912181Y-55655049D01*
X206912184Y-55655051D01*
X207101588Y-55751557D01*
X207303757Y-55817246D01*
X207513713Y-55850500D01*
X207513714Y-55850500D01*
X207726286Y-55850500D01*
X207726287Y-55850500D01*
X207936243Y-55817246D01*
X208138412Y-55751557D01*
X208327816Y-55655051D01*
X208414138Y-55592335D01*
X208499786Y-55530109D01*
X208499788Y-55530106D01*
X208499792Y-55530104D01*
X208650104Y-55379792D01*
X208650106Y-55379788D01*
X208650109Y-55379786D01*
X208775048Y-55207820D01*
X208775047Y-55207820D01*
X208775051Y-55207816D01*
X208871557Y-55018412D01*
X208937246Y-54816243D01*
X208970500Y-54606287D01*
X208970500Y-54393713D01*
X208937246Y-54183757D01*
X208871557Y-53981588D01*
X208775051Y-53792184D01*
X208761077Y-53772950D01*
X208687511Y-53671694D01*
X208687508Y-53671691D01*
X208650107Y-53620213D01*
X208650104Y-53620208D01*
X208632031Y-53602135D01*
X211339500Y-53602135D01*
X211339500Y-55397870D01*
X211339501Y-55397876D01*
X211345908Y-55457483D01*
X211396202Y-55592328D01*
X211396206Y-55592335D01*
X211482452Y-55707544D01*
X211482455Y-55707547D01*
X211597664Y-55793793D01*
X211597671Y-55793797D01*
X211732517Y-55844091D01*
X211732516Y-55844091D01*
X211739444Y-55844835D01*
X211792127Y-55850500D01*
X213587872Y-55850499D01*
X213647483Y-55844091D01*
X213782331Y-55793796D01*
X213897546Y-55707546D01*
X213983796Y-55592331D01*
X214034091Y-55457483D01*
X214040500Y-55397873D01*
X214040499Y-54393713D01*
X216419500Y-54393713D01*
X216419500Y-54606286D01*
X216435325Y-54706205D01*
X216452754Y-54816243D01*
X216511246Y-54996263D01*
X216518444Y-55018414D01*
X216614951Y-55207820D01*
X216739890Y-55379786D01*
X216890213Y-55530109D01*
X217062179Y-55655048D01*
X217062181Y-55655049D01*
X217062184Y-55655051D01*
X217251588Y-55751557D01*
X217453757Y-55817246D01*
X217663713Y-55850500D01*
X217663714Y-55850500D01*
X217876286Y-55850500D01*
X217876287Y-55850500D01*
X218086243Y-55817246D01*
X218288412Y-55751557D01*
X218477816Y-55655051D01*
X218564138Y-55592335D01*
X218649786Y-55530109D01*
X218649788Y-55530106D01*
X218649792Y-55530104D01*
X218800104Y-55379792D01*
X218800106Y-55379788D01*
X218800109Y-55379786D01*
X218925048Y-55207820D01*
X218925047Y-55207820D01*
X218925051Y-55207816D01*
X218929514Y-55199054D01*
X218977488Y-55148259D01*
X219045308Y-55131463D01*
X219111444Y-55153999D01*
X219150486Y-55199056D01*
X219154951Y-55207820D01*
X219279890Y-55379786D01*
X219430213Y-55530109D01*
X219602179Y-55655048D01*
X219602181Y-55655049D01*
X219602184Y-55655051D01*
X219791588Y-55751557D01*
X219993757Y-55817246D01*
X220203713Y-55850500D01*
X220203714Y-55850500D01*
X220416286Y-55850500D01*
X220416287Y-55850500D01*
X220626243Y-55817246D01*
X220828412Y-55751557D01*
X221017816Y-55655051D01*
X221104138Y-55592335D01*
X221189786Y-55530109D01*
X221189788Y-55530106D01*
X221189792Y-55530104D01*
X221340104Y-55379792D01*
X221340106Y-55379788D01*
X221340109Y-55379786D01*
X221465048Y-55207820D01*
X221465047Y-55207820D01*
X221465051Y-55207816D01*
X221561557Y-55018412D01*
X221627246Y-54816243D01*
X221660500Y-54606287D01*
X221660500Y-54393713D01*
X221627246Y-54183757D01*
X221561557Y-53981588D01*
X221465051Y-53792184D01*
X221451077Y-53772950D01*
X221377511Y-53671694D01*
X221377508Y-53671691D01*
X221340107Y-53620213D01*
X221340104Y-53620208D01*
X221322031Y-53602135D01*
X224069501Y-53602135D01*
X224069501Y-55397870D01*
X224069502Y-55397876D01*
X224075909Y-55457483D01*
X224126203Y-55592328D01*
X224126207Y-55592335D01*
X224212453Y-55707544D01*
X224212456Y-55707547D01*
X224327665Y-55793793D01*
X224327672Y-55793797D01*
X224462518Y-55844091D01*
X224462517Y-55844091D01*
X224469445Y-55844835D01*
X224522128Y-55850500D01*
X226317873Y-55850499D01*
X226377484Y-55844091D01*
X226512332Y-55793796D01*
X226627547Y-55707546D01*
X226713797Y-55592331D01*
X226764092Y-55457483D01*
X226770501Y-55397873D01*
X226770500Y-54393713D01*
X229149501Y-54393713D01*
X229149501Y-54606286D01*
X229165326Y-54706205D01*
X229182755Y-54816243D01*
X229241247Y-54996263D01*
X229248445Y-55018414D01*
X229344952Y-55207820D01*
X229469891Y-55379786D01*
X229620214Y-55530109D01*
X229792180Y-55655048D01*
X229792182Y-55655049D01*
X229792185Y-55655051D01*
X229981589Y-55751557D01*
X230183758Y-55817246D01*
X230393714Y-55850500D01*
X230393715Y-55850500D01*
X230606287Y-55850500D01*
X230606288Y-55850500D01*
X230816244Y-55817246D01*
X231018413Y-55751557D01*
X231207817Y-55655051D01*
X231294139Y-55592335D01*
X231379787Y-55530109D01*
X231379789Y-55530106D01*
X231379793Y-55530104D01*
X231530105Y-55379792D01*
X231530107Y-55379788D01*
X231530110Y-55379786D01*
X231655049Y-55207820D01*
X231655048Y-55207820D01*
X231655052Y-55207816D01*
X231659515Y-55199054D01*
X231707489Y-55148259D01*
X231775309Y-55131463D01*
X231841445Y-55153999D01*
X231880487Y-55199056D01*
X231884952Y-55207820D01*
X232009891Y-55379786D01*
X232160214Y-55530109D01*
X232332180Y-55655048D01*
X232332182Y-55655049D01*
X232332185Y-55655051D01*
X232521589Y-55751557D01*
X232723758Y-55817246D01*
X232933714Y-55850500D01*
X232933715Y-55850500D01*
X233146287Y-55850500D01*
X233146288Y-55850500D01*
X233356244Y-55817246D01*
X233558413Y-55751557D01*
X233747817Y-55655051D01*
X233834139Y-55592335D01*
X233919787Y-55530109D01*
X233919789Y-55530106D01*
X233919793Y-55530104D01*
X234070105Y-55379792D01*
X234070107Y-55379788D01*
X234070110Y-55379786D01*
X234195049Y-55207820D01*
X234195048Y-55207820D01*
X234195052Y-55207816D01*
X234291558Y-55018412D01*
X234357247Y-54816243D01*
X234390501Y-54606287D01*
X234390501Y-54393713D01*
X234357247Y-54183757D01*
X234291558Y-53981588D01*
X234195052Y-53792184D01*
X234195050Y-53792181D01*
X234195049Y-53792179D01*
X234070110Y-53620213D01*
X233919787Y-53469890D01*
X233747821Y-53344951D01*
X233558415Y-53248444D01*
X233558414Y-53248443D01*
X233558413Y-53248443D01*
X233356244Y-53182754D01*
X233356242Y-53182753D01*
X233356241Y-53182753D01*
X233194958Y-53157208D01*
X233146288Y-53149500D01*
X232933714Y-53149500D01*
X232885043Y-53157208D01*
X232723761Y-53182753D01*
X232521586Y-53248444D01*
X232332180Y-53344951D01*
X232160214Y-53469890D01*
X232009891Y-53620213D01*
X231884950Y-53792182D01*
X231880485Y-53800946D01*
X231832510Y-53851742D01*
X231764689Y-53868536D01*
X231698554Y-53845998D01*
X231659517Y-53800946D01*
X231655051Y-53792182D01*
X231530110Y-53620213D01*
X231379787Y-53469890D01*
X231207821Y-53344951D01*
X231018415Y-53248444D01*
X231018414Y-53248443D01*
X231018413Y-53248443D01*
X230816244Y-53182754D01*
X230816242Y-53182753D01*
X230816241Y-53182753D01*
X230654958Y-53157208D01*
X230606288Y-53149500D01*
X230393714Y-53149500D01*
X230345043Y-53157208D01*
X230183761Y-53182753D01*
X229981586Y-53248444D01*
X229792180Y-53344951D01*
X229620214Y-53469890D01*
X229469891Y-53620213D01*
X229344952Y-53792179D01*
X229248445Y-53981585D01*
X229182754Y-54183760D01*
X229149501Y-54393713D01*
X226770500Y-54393713D01*
X226770500Y-53602128D01*
X226764092Y-53542517D01*
X226740468Y-53479179D01*
X226713798Y-53407671D01*
X226713794Y-53407664D01*
X226627548Y-53292455D01*
X226627545Y-53292452D01*
X226512336Y-53206206D01*
X226512329Y-53206202D01*
X226377483Y-53155908D01*
X226377484Y-53155908D01*
X226317884Y-53149501D01*
X226317882Y-53149500D01*
X226317874Y-53149500D01*
X226317865Y-53149500D01*
X224522130Y-53149500D01*
X224522124Y-53149501D01*
X224462517Y-53155908D01*
X224327672Y-53206202D01*
X224327665Y-53206206D01*
X224212456Y-53292452D01*
X224212453Y-53292455D01*
X224126207Y-53407664D01*
X224126203Y-53407671D01*
X224075909Y-53542517D01*
X224069502Y-53602116D01*
X224069502Y-53602123D01*
X224069501Y-53602135D01*
X221322031Y-53602135D01*
X221189792Y-53469896D01*
X221189786Y-53469890D01*
X221017820Y-53344951D01*
X220828414Y-53248444D01*
X220828413Y-53248443D01*
X220828412Y-53248443D01*
X220626243Y-53182754D01*
X220626241Y-53182753D01*
X220626240Y-53182753D01*
X220464957Y-53157208D01*
X220416287Y-53149500D01*
X220203713Y-53149500D01*
X220155042Y-53157208D01*
X219993760Y-53182753D01*
X219791585Y-53248444D01*
X219602179Y-53344951D01*
X219430213Y-53469890D01*
X219279890Y-53620213D01*
X219154949Y-53792182D01*
X219150484Y-53800946D01*
X219102509Y-53851742D01*
X219034688Y-53868536D01*
X218968553Y-53845998D01*
X218929516Y-53800946D01*
X218925050Y-53792182D01*
X218800109Y-53620213D01*
X218649786Y-53469890D01*
X218477820Y-53344951D01*
X218288414Y-53248444D01*
X218288413Y-53248443D01*
X218288412Y-53248443D01*
X218086243Y-53182754D01*
X218086241Y-53182753D01*
X218086240Y-53182753D01*
X217924957Y-53157208D01*
X217876287Y-53149500D01*
X217663713Y-53149500D01*
X217615042Y-53157208D01*
X217453760Y-53182753D01*
X217251585Y-53248444D01*
X217062179Y-53344951D01*
X216890213Y-53469890D01*
X216739890Y-53620213D01*
X216614951Y-53792179D01*
X216518444Y-53981585D01*
X216452753Y-54183760D01*
X216419500Y-54393713D01*
X214040499Y-54393713D01*
X214040499Y-53602128D01*
X214034091Y-53542517D01*
X214010467Y-53479179D01*
X213983797Y-53407671D01*
X213983793Y-53407664D01*
X213897547Y-53292455D01*
X213897544Y-53292452D01*
X213782335Y-53206206D01*
X213782328Y-53206202D01*
X213647482Y-53155908D01*
X213647483Y-53155908D01*
X213587883Y-53149501D01*
X213587881Y-53149500D01*
X213587873Y-53149500D01*
X213587864Y-53149500D01*
X211792129Y-53149500D01*
X211792123Y-53149501D01*
X211732516Y-53155908D01*
X211597671Y-53206202D01*
X211597664Y-53206206D01*
X211482455Y-53292452D01*
X211482452Y-53292455D01*
X211396206Y-53407664D01*
X211396202Y-53407671D01*
X211345908Y-53542517D01*
X211339501Y-53602116D01*
X211339501Y-53602123D01*
X211339500Y-53602135D01*
X208632031Y-53602135D01*
X208499792Y-53469896D01*
X208499786Y-53469890D01*
X208327820Y-53344951D01*
X208138414Y-53248444D01*
X208138413Y-53248443D01*
X208138412Y-53248443D01*
X207936243Y-53182754D01*
X207936241Y-53182753D01*
X207936240Y-53182753D01*
X207774957Y-53157208D01*
X207726287Y-53149500D01*
X207513713Y-53149500D01*
X207465042Y-53157208D01*
X207303760Y-53182753D01*
X207101585Y-53248444D01*
X206912179Y-53344951D01*
X206740213Y-53469890D01*
X206589890Y-53620213D01*
X206464949Y-53792182D01*
X206460484Y-53800946D01*
X206412509Y-53851742D01*
X206344688Y-53868536D01*
X206278553Y-53845998D01*
X206239516Y-53800946D01*
X206235050Y-53792182D01*
X206110109Y-53620213D01*
X205959786Y-53469890D01*
X205787820Y-53344951D01*
X205598414Y-53248444D01*
X205598413Y-53248443D01*
X205598412Y-53248443D01*
X205396243Y-53182754D01*
X205396241Y-53182753D01*
X205396240Y-53182753D01*
X205234957Y-53157208D01*
X205186287Y-53149500D01*
X204973713Y-53149500D01*
X204925042Y-53157208D01*
X204763760Y-53182753D01*
X204561585Y-53248444D01*
X204372179Y-53344951D01*
X204200213Y-53469890D01*
X204049890Y-53620213D01*
X203924951Y-53792179D01*
X203828444Y-53981585D01*
X203762753Y-54183760D01*
X203729500Y-54393713D01*
X201350499Y-54393713D01*
X201350499Y-53602128D01*
X201344091Y-53542517D01*
X201320467Y-53479179D01*
X201293797Y-53407671D01*
X201293793Y-53407664D01*
X201207547Y-53292455D01*
X201207544Y-53292452D01*
X201092335Y-53206206D01*
X201092328Y-53206202D01*
X200957482Y-53155908D01*
X200957483Y-53155908D01*
X200897883Y-53149501D01*
X200897881Y-53149500D01*
X200897873Y-53149500D01*
X200897864Y-53149500D01*
X199102129Y-53149500D01*
X199102123Y-53149501D01*
X199042516Y-53155908D01*
X198907671Y-53206202D01*
X198907664Y-53206206D01*
X198792455Y-53292452D01*
X198792452Y-53292455D01*
X198706206Y-53407664D01*
X198706202Y-53407671D01*
X198655908Y-53542517D01*
X198649501Y-53602116D01*
X198649501Y-53602123D01*
X198649500Y-53602135D01*
X195200000Y-53602135D01*
X195200000Y-52624500D01*
X195219685Y-52557461D01*
X195272489Y-52511706D01*
X195324000Y-52500500D01*
X236005832Y-52500500D01*
X236072871Y-52520185D01*
G37*
%TD.AperFunction*%
%TD*%
M02*
