M48
; DRILL file {KiCad 9.0.3} date 2025-07-27T17:57:50+0200
; FORMAT={-:-/ absolute / metric / decimal}
; #@! TF.CreationDate,2025-07-27T17:57:50+02:00
; #@! TF.GenerationSoftware,Kicad,Pcbnew,9.0.3
; #@! TF.FileFunction,MixedPlating,1,4
FMAT,2
METRIC
; #@! TA.AperFunction,Plated,PTH,ComponentDrill
T1C0.200
; #@! TA.AperFunction,Plated,PTH,ViaDrill
T2C0.300
; #@! TA.AperFunction,Plated,PTH,ViaDrill
T3C0.600
; #@! TA.AperFunction,Plated,PTH,ComponentDrill
T4C1.000
; #@! TA.AperFunction,Plated,PTH,ComponentDrill
T5C3.200
; #@! TA.AperFunction,NonPlated,NPTH,ComponentDrill
T6C0.650
%
G90
G05
T1
X200.4Y-63.0
X200.4Y-64.2
X200.4Y-65.4
X200.4Y-66.6
X201.6Y-63.0
X201.6Y-64.2
X201.6Y-65.4
X201.6Y-66.6
X202.8Y-63.0
X202.8Y-64.2
X202.8Y-65.4
X202.8Y-66.6
X204.0Y-63.0
X204.0Y-64.2
X204.0Y-65.4
X204.0Y-66.6
T2
X191.3Y-61.7
X191.3Y-62.5
X191.3Y-63.3
X191.6Y-64.2
X192.0Y-65.1
X192.8Y-65.7
X193.1Y-60.1
X193.1Y-60.9
X193.1Y-61.7
X193.1Y-62.5
X193.1Y-63.3
X193.7Y-64.2
X193.7Y-65.8
X193.794Y-68.1
X194.05Y-60.1
X194.5Y-64.2
X194.5Y-65.8
X195.0Y-60.1
X195.3Y-73.206
X195.5Y-52.8
X195.5Y-54.04
X195.5Y-55.28
X195.5Y-56.52
X195.5Y-57.76
X195.5Y-59.0
X195.834Y-61.722
X196.596Y-66.294
X196.85Y-62.738
X197.612Y-63.246
X197.612Y-64.008
X197.866Y-67.31
X197.9Y-60.8
X199.6Y-79.9
X199.8Y-69.3
X199.9Y-57.2
X199.9Y-73.306
X201.0Y-95.635
X201.4Y-73.306
X201.7Y-58.2
X201.703Y-60.3
X202.2Y-95.635
X202.4Y-57.6
X202.692Y-73.282
X202.7Y-74.6
X203.0Y-60.2
X203.1Y-57.0
X203.5Y-77.7
X203.5Y-95.635
X203.874Y-69.026
X203.9Y-56.9
X204.5Y-59.5
X204.7Y-60.3
X205.2Y-73.406
X205.994Y-58.928
X206.3Y-65.2
X206.3Y-66.1
X206.6Y-68.6
X206.7Y-75.6
X206.804Y-73.389
X207.3Y-58.1
X207.3Y-64.0
X207.3Y-64.8
X207.4Y-76.3
X207.544Y-58.928
X208.9Y-58.7
X209.07Y-95.77
X209.7Y-68.1
X210.3Y-95.735
X210.306Y-66.5
X211.4Y-71.5
X211.6Y-95.735
X211.61Y-77.8
X212.1Y-72.0
X212.88Y-77.8
X213.4Y-66.4
X213.4Y-68.7
X214.3Y-62.7
X214.6Y-64.0
X214.6Y-69.8
X214.7Y-67.3
X214.9Y-64.8
X215.5Y-95.8
X215.7Y-62.7
X216.15Y-58.7
X217.025Y-58.7
X217.4Y-76.406
X217.9Y-58.7
X218.1Y-60.5
X219.1Y-78.7
X219.9Y-95.8
X220.2Y-76.4
X220.2Y-77.3
X220.9Y-82.05
X221.4Y-64.8
X221.5Y-87.2
X221.775Y-82.05
X221.95Y-75.35
X222.0Y-74.6
X222.2Y-69.6
X222.2Y-70.6
X222.65Y-82.05
X222.675Y-63.325
X222.8Y-62.0
X222.8Y-64.3
X224.6Y-72.3
X224.6Y-74.9
X225.0Y-69.8
X225.5Y-80.9
X226.225Y-77.725
X226.3Y-92.9
X227.7Y-66.8
X227.8Y-84.7
X228.0Y-62.7
X228.1Y-90.1
X229.1Y-93.7
X229.6Y-87.0
X229.6Y-89.4
X230.1Y-85.4
X231.2Y-85.7
X231.212Y-77.7
X231.5Y-66.9
X232.0Y-85.7
X233.1Y-85.4
X233.4Y-67.1
X233.8Y-63.1
X234.286Y-79.126
X234.375Y-58.25
X234.375Y-59.85
X234.375Y-61.75
X234.386Y-77.326
X234.6Y-74.4
X234.7Y-85.4
X236.5Y-84.3
X236.65Y-66.55
X236.7Y-64.6
X236.8Y-53.1
X238.1Y-86.3
X239.0Y-80.1
X239.1Y-86.3
X239.2Y-74.2
X240.0Y-53.1
X240.0Y-61.5
X240.0Y-86.3
X241.2Y-69.7
X241.2Y-70.5
X241.2Y-71.3
X241.2Y-72.1
X241.2Y-72.8
X241.2Y-76.2
X241.2Y-76.9
X241.2Y-77.8
X241.2Y-78.6
X241.2Y-79.4
X243.25Y-88.55
X244.85Y-81.5
X244.85Y-85.55
X246.5Y-62.0
X246.5Y-63.6
T3
X230.1Y-58.0
X230.1Y-59.5
X230.1Y-61.0
X231.5Y-58.0
X231.5Y-59.5
X231.5Y-61.0
T4
X192.9Y-77.216
X192.9Y-79.756
X192.9Y-82.296
X192.9Y-84.836
X200.0Y-54.5
X202.54Y-54.5
X205.08Y-54.5
X207.62Y-54.5
X212.69Y-54.5
X215.23Y-54.5
X217.77Y-54.5
X220.31Y-54.5
X225.42Y-54.5
X227.96Y-54.5
X230.5Y-54.5
X233.04Y-54.5
T5
X194.0Y-93.0
X246.0Y-56.0
X246.0Y-93.0
T6
X243.895Y-71.61
X243.895Y-77.39
M30
