%TF.GenerationSoftware,KiCad,Pcbnew,9.0.3*%
%TF.CreationDate,2025-07-21T13:51:53+02:00*%
%TF.ProjectId,LoRa_Project,4c6f5261-5f50-4726-9f6a-6563742e6b69,rev?*%
%TF.SameCoordinates,Original*%
%TF.FileFunction,Copper,L4,Bot*%
%TF.FilePolarity,Positive*%
%FSLAX46Y46*%
G04 Gerber Fmt 4.6, Leading zero omitted, Abs format (unit mm)*
G04 Created by KiCad (PCBNEW 9.0.3) date 2025-07-21 13:51:53*
%MOMM*%
%LPD*%
G01*
G04 APERTURE LIST*
G04 Aperture macros list*
%AMRotRect*
0 Rectangle, with rotation*
0 The origin of the aperture is its center*
0 $1 length*
0 $2 width*
0 $3 Rotation angle, in degrees counterclockwise*
0 Add horizontal line*
21,1,$1,$2,0,0,$3*%
G04 Aperture macros list end*
%TA.AperFunction,ComponentPad*%
%ADD10C,3.600000*%
%TD*%
%TA.AperFunction,ConnectorPad*%
%ADD11C,5.600000*%
%TD*%
%TA.AperFunction,ComponentPad*%
%ADD12R,1.700000X1.700000*%
%TD*%
%TA.AperFunction,ComponentPad*%
%ADD13C,1.700000*%
%TD*%
%TA.AperFunction,HeatsinkPad*%
%ADD14C,0.500000*%
%TD*%
%TA.AperFunction,HeatsinkPad*%
%ADD15RotRect,4.100000X4.100000X225.000000*%
%TD*%
%TA.AperFunction,ViaPad*%
%ADD16C,0.600000*%
%TD*%
%TA.AperFunction,ViaPad*%
%ADD17C,1.000000*%
%TD*%
%TA.AperFunction,Conductor*%
%ADD18C,0.200000*%
%TD*%
%TA.AperFunction,Conductor*%
%ADD19C,0.250000*%
%TD*%
G04 APERTURE END LIST*
D10*
%TO.P,H1,1,1*%
%TO.N,GND*%
X194000000Y-56000000D03*
D11*
X194000000Y-56000000D03*
%TD*%
D12*
%TO.P,J3,1,Pin_1*%
%TO.N,+3V3*%
X212690000Y-54500000D03*
D13*
%TO.P,J3,2,Pin_2*%
%TO.N,GND*%
X215230000Y-54500000D03*
%TO.P,J3,3,Pin_3*%
%TO.N,I2C_SDA*%
X217770000Y-54500000D03*
%TO.P,J3,4,Pin_4*%
%TO.N,I2C_SCL*%
X220310000Y-54500000D03*
%TD*%
D10*
%TO.P,H3,1,1*%
%TO.N,GND*%
X194000000Y-93000000D03*
D11*
X194000000Y-93000000D03*
%TD*%
D12*
%TO.P,J7,1,Pin_1*%
%TO.N,+3V3*%
X193200000Y-73180000D03*
D13*
%TO.P,J7,2,Pin_2*%
%TO.N,GND*%
X193200000Y-75720000D03*
%TO.P,J7,3,Pin_3*%
%TO.N,P0.04*%
X193200000Y-78260000D03*
%TO.P,J7,4,Pin_4*%
%TO.N,P0.05*%
X193200000Y-80800000D03*
%TD*%
D14*
%TO.P,U5,49,VSS*%
%TO.N,GND*%
X213187184Y-66030330D03*
X212338656Y-65181802D03*
X211490128Y-64333274D03*
X210641600Y-63484746D03*
X212338656Y-66878858D03*
X211490128Y-66030330D03*
X210641600Y-65181802D03*
X209793072Y-64333274D03*
D15*
X210641600Y-66030330D03*
D14*
X211490128Y-67727386D03*
X210641600Y-66878858D03*
X209793072Y-66030330D03*
X208944544Y-65181802D03*
X210641600Y-68575914D03*
X209793072Y-67727386D03*
X208944544Y-66878858D03*
X208096016Y-66030330D03*
%TD*%
D10*
%TO.P,H2,1,1*%
%TO.N,GND*%
X245999999Y-56000001D03*
D11*
X245999999Y-56000001D03*
%TD*%
D12*
%TO.P,J6,1,Pin_1*%
%TO.N,+3V3*%
X225420001Y-54500000D03*
D13*
%TO.P,J6,2,Pin_2*%
%TO.N,GND*%
X227960001Y-54500000D03*
%TO.P,J6,3,Pin_3*%
%TO.N,SWD_CLK*%
X230500001Y-54500000D03*
%TO.P,J6,4,Pin_4*%
%TO.N,SWD_IO*%
X233040001Y-54500000D03*
%TD*%
D12*
%TO.P,J1,1,Pin_1*%
%TO.N,+3V3*%
X200000000Y-54500000D03*
D13*
%TO.P,J1,2,Pin_2*%
%TO.N,GND*%
X202540000Y-54500000D03*
%TO.P,J1,3,Pin_3*%
%TO.N,I2C_SDA*%
X205080000Y-54500000D03*
%TO.P,J1,4,Pin_4*%
%TO.N,I2C_SCL*%
X207620000Y-54500000D03*
%TD*%
D10*
%TO.P,H4,1,1*%
%TO.N,GND*%
X245999999Y-92999999D03*
D11*
X245999999Y-92999999D03*
%TD*%
D16*
%TO.N,*%
X225000000Y-69800000D03*
%TO.N,VBUS*%
X241200000Y-76900000D03*
X241200000Y-72100000D03*
X241200000Y-72800000D03*
X229600000Y-87000000D03*
X241200000Y-76200000D03*
%TO.N,GND*%
X205400000Y-69500000D03*
X244850000Y-81500000D03*
X205500000Y-75300000D03*
X241200000Y-70500000D03*
X198000000Y-64400000D03*
X202100000Y-65700000D03*
X236700000Y-64600000D03*
X218100000Y-60500000D03*
X241200000Y-77800000D03*
X233100000Y-85400000D03*
X201100000Y-62500000D03*
X201000000Y-95634999D03*
X203950000Y-75300000D03*
X199400000Y-66500000D03*
X244850000Y-85550000D03*
X206900000Y-69500000D03*
X241200000Y-69700000D03*
X241200000Y-78600000D03*
X211600000Y-95734999D03*
X239100000Y-86300000D03*
X238100000Y-86300000D03*
X239000000Y-80100000D03*
X239200000Y-74200000D03*
X213800000Y-57650000D03*
X241200000Y-71300000D03*
X224600000Y-72300000D03*
X203500000Y-95634999D03*
X227800000Y-84700000D03*
X228000000Y-62700000D03*
X220400000Y-67050000D03*
X240000000Y-86300000D03*
X199400000Y-67400000D03*
X234286499Y-79126000D03*
X234386499Y-77326000D03*
X229600000Y-89400000D03*
X210300000Y-95734999D03*
X198868527Y-79271262D03*
X222800000Y-62000000D03*
X246500000Y-63600000D03*
X219900000Y-95800000D03*
X217400000Y-76406249D03*
X204100000Y-67600000D03*
X222675000Y-63325000D03*
X203500000Y-77000000D03*
X207050000Y-75300000D03*
X201700000Y-67200000D03*
X228100000Y-90100000D03*
X200800000Y-66300000D03*
X198100000Y-67400000D03*
X199200000Y-64300000D03*
X229100000Y-93700000D03*
X221950000Y-75350000D03*
X204000000Y-69300000D03*
X219100000Y-78700000D03*
X227700000Y-66800000D03*
X240000000Y-61500000D03*
X231212500Y-77700000D03*
X230100000Y-85400000D03*
X202200000Y-95634999D03*
X220400000Y-65300000D03*
X214100000Y-75293749D03*
X241200000Y-79400000D03*
X209069999Y-95769999D03*
X236650000Y-66550000D03*
X221500000Y-72700000D03*
X201100000Y-64800000D03*
X222000000Y-74600000D03*
X234700000Y-85400000D03*
X209500000Y-75350000D03*
X220456248Y-71000000D03*
%TO.N,+3V3*%
X204250000Y-63050000D03*
X205050000Y-59900000D03*
X234375000Y-59850000D03*
D17*
X230100000Y-59500000D03*
D16*
X215500000Y-95800000D03*
X234375000Y-61750000D03*
D17*
X230100000Y-61000000D03*
D16*
X226300000Y-92900000D03*
X216000000Y-65550000D03*
X216650000Y-73400000D03*
D17*
X231500000Y-61000000D03*
D16*
X234375000Y-58250000D03*
D17*
X230100000Y-58000000D03*
D16*
X243250000Y-88550000D03*
X212250000Y-57650000D03*
X204250000Y-65300000D03*
D17*
X231500000Y-58000000D03*
D16*
X226225000Y-77725000D03*
X202200000Y-59900000D03*
D17*
X231500000Y-59500000D03*
D16*
%TO.N,+BATT*%
X220200000Y-76400000D03*
X231200000Y-85700000D03*
X220200000Y-77300000D03*
X225500000Y-80900000D03*
X232000000Y-85700000D03*
%TO.N,/nRF52840 and LoRa/DEC4_6*%
X216000000Y-69400000D03*
X208200000Y-69700000D03*
%TO.N,/Peripherals/RXLED*%
X231500000Y-66900000D03*
X236800000Y-53100000D03*
%TO.N,/Peripherals/TXLED*%
X240000000Y-53100000D03*
X224600000Y-74900000D03*
%TO.N,I2C_SDA*%
X203400000Y-59900000D03*
X222200000Y-70600000D03*
X205500000Y-63150000D03*
%TO.N,I2C_SCL*%
X206350000Y-63150000D03*
X222200000Y-69600000D03*
X206250000Y-59900000D03*
%TO.N,/nRF52840 and LoRa/LORA_SPI_CS*%
X212800000Y-61350000D03*
X209069999Y-77800000D03*
%TO.N,/nRF52840 and LoRa/SPI_SCK*%
X210340000Y-77800000D03*
X207250000Y-63150000D03*
%TO.N,/nRF52840 and LoRa/LORA_BUSY*%
X215420000Y-77800001D03*
X215899265Y-71400735D03*
%TO.N,/nRF52840 and LoRa/LORA_IRQ*%
X216690000Y-77800000D03*
X212775000Y-62225000D03*
%TO.N,/nRF52840 and LoRa/SPI_MISO*%
X212880000Y-77800000D03*
X208950000Y-60800000D03*
%TO.N,/nRF52840 and LoRa/LORA_NRST*%
X214150000Y-77800000D03*
X213825000Y-69350000D03*
%TO.N,/nRF52840 and LoRa/SPI_MOSI*%
X211610000Y-77800000D03*
X210000000Y-60800000D03*
%TO.N,SWD_IO*%
X206100000Y-67500000D03*
X218000000Y-85700000D03*
X206200000Y-77800000D03*
%TO.N,SWD_CLK*%
X206700000Y-68200000D03*
X218000000Y-84400000D03*
X207500000Y-77800000D03*
%TO.N,Net-(U4-STAT)*%
X221500000Y-87200000D03*
X236500000Y-84300000D03*
%TO.N,Net-(U5-~{RESET})*%
X207475000Y-60350000D03*
X246500000Y-62000000D03*
X207475000Y-61875000D03*
%TO.N,UART_TXD*%
X214800000Y-61000000D03*
X216500000Y-62200000D03*
%TO.N,/Power/V_SW*%
X222650000Y-82050000D03*
X216150000Y-58700000D03*
X221775000Y-82050000D03*
X220900000Y-82050000D03*
X217025000Y-58700000D03*
X217900000Y-58700000D03*
%TO.N,Net-(U6-CBUS3)*%
X233400000Y-67100000D03*
X234600000Y-74400000D03*
%TO.N,P0.05*%
X213900000Y-63200000D03*
%TO.N,P0.04*%
X214800000Y-63800000D03*
%TD*%
D18*
%TO.N,/nRF52840 and LoRa/DEC4_6*%
X215000000Y-68400000D02*
X216000000Y-69400000D01*
X211200000Y-70100000D02*
X212900000Y-68400000D01*
X208200000Y-69700000D02*
X208600000Y-70100000D01*
X212900000Y-68400000D02*
X215000000Y-68400000D01*
X208600000Y-70100000D02*
X211200000Y-70100000D01*
%TO.N,/Peripherals/RXLED*%
X236800000Y-55800000D02*
X236800000Y-53100000D01*
X232900000Y-65500000D02*
X237400000Y-65500000D01*
X238600000Y-64300000D02*
X238600000Y-57600000D01*
X231500000Y-66900000D02*
X232900000Y-65500000D01*
X238600000Y-57600000D02*
X236800000Y-55800000D01*
X237400000Y-65500000D02*
X238600000Y-64300000D01*
%TO.N,/Peripherals/TXLED*%
X225000000Y-75200000D02*
X224700000Y-74900000D01*
X241600000Y-54700000D02*
X241600000Y-64000000D01*
X239500000Y-66100000D02*
X239500000Y-71700000D01*
X236300000Y-75200000D02*
X225000000Y-75200000D01*
X239500000Y-71700000D02*
X239500000Y-72000000D01*
X239500000Y-72000000D02*
X236300000Y-75200000D01*
X241600000Y-64000000D02*
X239500000Y-66100000D01*
X239500000Y-70550057D02*
X239500000Y-71700000D01*
X240000000Y-53100000D02*
X241600000Y-54700000D01*
D19*
%TO.N,I2C_SDA*%
X216019999Y-52750000D02*
X217769999Y-54500000D01*
X205500000Y-62000000D02*
X205500000Y-63150000D01*
X215600000Y-59800000D02*
X219100000Y-63300000D01*
X219100000Y-63300000D02*
X219100000Y-68750000D01*
X220950000Y-70600000D02*
X222200000Y-70600000D01*
X212282190Y-59800000D02*
X215600000Y-59800000D01*
X206829999Y-52750000D02*
X216019999Y-52750000D01*
X206553999Y-55974000D02*
X208456190Y-55974000D01*
X205079999Y-54500000D02*
X206829999Y-52750000D01*
X219100000Y-68750000D02*
X220950000Y-70600000D01*
X203400000Y-59900000D02*
X205500000Y-62000000D01*
X208456190Y-55974000D02*
X212282190Y-59800000D01*
X205079999Y-54500000D02*
X206553999Y-55974000D01*
%TO.N,I2C_SCL*%
X220310000Y-55450000D02*
X220310000Y-55690000D01*
D18*
X220310000Y-62110000D02*
X220310000Y-55450000D01*
D19*
X206350000Y-63150000D02*
X206350000Y-60000000D01*
X209370000Y-56250000D02*
X207620000Y-54500000D01*
X220310000Y-55690000D02*
X219750000Y-56250000D01*
D18*
X222200000Y-69600000D02*
X222200000Y-64000000D01*
D19*
X206350000Y-60000000D02*
X206250000Y-59900000D01*
X220310000Y-54500000D02*
X220310000Y-55450000D01*
X219750000Y-56250000D02*
X209370000Y-56250000D01*
D18*
X222200000Y-64000000D02*
X220310000Y-62110000D01*
%TO.N,/nRF52840 and LoRa/LORA_SPI_CS*%
X213550000Y-77575000D02*
X213550000Y-80052100D01*
X209069999Y-77505001D02*
X209925000Y-76650000D01*
X199650000Y-73500000D02*
X200062500Y-73087500D01*
X210801100Y-82801000D02*
X204226000Y-82801000D01*
X199650000Y-78225000D02*
X199650000Y-73500000D01*
X204226000Y-82801000D02*
X199650000Y-78225000D01*
X201550000Y-56400000D02*
X207850000Y-56400000D01*
X209069999Y-77800000D02*
X209069999Y-77505001D01*
X209925000Y-76650000D02*
X212625000Y-76650000D01*
X200050000Y-57900000D02*
X201550000Y-56400000D01*
X200050000Y-73075000D02*
X200050000Y-57900000D01*
X207850000Y-56400000D02*
X212800000Y-61350000D01*
X213550000Y-80052100D02*
X210801100Y-82801000D01*
X200062500Y-73087500D02*
X200050000Y-73075000D01*
X212625000Y-76650000D02*
X213550000Y-77575000D01*
D19*
%TO.N,/nRF52840 and LoRa/SPI_SCK*%
X204650000Y-77550000D02*
X204650000Y-68550000D01*
X210340000Y-78710000D02*
X208950000Y-80100000D01*
X205400000Y-64900000D02*
X207100000Y-63200000D01*
X204650000Y-68550000D02*
X205400000Y-67800000D01*
X208950000Y-80100000D02*
X207200000Y-80100000D01*
X210340000Y-77800000D02*
X210340000Y-78710000D01*
X205400000Y-67800000D02*
X205400000Y-64900000D01*
X207200000Y-80100000D02*
X204650000Y-77550000D01*
D18*
%TO.N,/nRF52840 and LoRa/LORA_BUSY*%
X215899265Y-71400735D02*
X215420000Y-71880000D01*
X215420000Y-71880000D02*
X215420000Y-77800001D01*
%TO.N,/nRF52840 and LoRa/LORA_IRQ*%
X218600000Y-69800000D02*
X218600000Y-77300000D01*
X217800000Y-63900000D02*
X217800000Y-69000000D01*
X218600000Y-77300000D02*
X218100000Y-77800000D01*
X215125000Y-62225000D02*
X216200000Y-63300000D01*
X218100000Y-77800000D02*
X216690000Y-77800000D01*
X212775000Y-62225000D02*
X215125000Y-62225000D01*
X217800000Y-69000000D02*
X218600000Y-69800000D01*
X217200000Y-63300000D02*
X217800000Y-63900000D01*
X216200000Y-63300000D02*
X217200000Y-63300000D01*
%TO.N,/nRF52840 and LoRa/SPI_MISO*%
X200900000Y-58350000D02*
X200900000Y-60825000D01*
X208950000Y-60800000D02*
X208950000Y-61050000D01*
X200900000Y-60825000D02*
X202600000Y-62525000D01*
X212862500Y-80137500D02*
X212880000Y-80155000D01*
X202600000Y-72750000D02*
X200725000Y-74625000D01*
X210600000Y-61600000D02*
X210625000Y-61625000D01*
X205075000Y-82400000D02*
X210600000Y-82400000D01*
X211025000Y-60750000D02*
X207525000Y-57250000D01*
X200700000Y-74625000D02*
X200700000Y-78025000D01*
X202600000Y-62525000D02*
X202600000Y-72750000D01*
X210600000Y-82400000D02*
X212862500Y-80137500D01*
X212880000Y-80155000D02*
X212880000Y-77800000D01*
X207525000Y-57250000D02*
X202000000Y-57250000D01*
X211025000Y-61225000D02*
X211025000Y-60750000D01*
X200700000Y-78025000D02*
X205075000Y-82400000D01*
X209500000Y-61600000D02*
X210600000Y-61600000D01*
X210625000Y-61625000D02*
X211025000Y-61225000D01*
X208950000Y-61050000D02*
X209500000Y-61600000D01*
X202000000Y-57250000D02*
X200900000Y-58350000D01*
%TO.N,/nRF52840 and LoRa/LORA_NRST*%
X214150000Y-77800000D02*
X214150000Y-76900000D01*
X213175000Y-70900000D02*
X213800000Y-70275000D01*
X213175000Y-75925000D02*
X213175000Y-70900000D01*
X213800000Y-70275000D02*
X213800000Y-69600000D01*
X214150000Y-76900000D02*
X213175000Y-75925000D01*
%TO.N,/nRF52840 and LoRa/SPI_MOSI*%
X203349000Y-61898943D02*
X201599000Y-60148943D01*
X209700000Y-81475000D02*
X207572546Y-81475000D01*
X202225000Y-58000000D02*
X207200000Y-58000000D01*
X211610000Y-79565000D02*
X209700000Y-81475000D01*
X203349000Y-75548943D02*
X203349000Y-61898943D01*
X204224000Y-76423943D02*
X203349000Y-75548943D01*
X211610000Y-77800000D02*
X211610000Y-79565000D01*
X201599000Y-58626000D02*
X202225000Y-58000000D01*
X204224000Y-78126454D02*
X204224000Y-76423943D01*
X201599000Y-60148943D02*
X201599000Y-58626000D01*
X207572546Y-81475000D02*
X204224000Y-78126454D01*
X207200000Y-58000000D02*
X210000000Y-60800000D01*
%TO.N,SWD_IO*%
X219300000Y-82800057D02*
X223999000Y-78101057D01*
X217900000Y-85800000D02*
X218000000Y-85700000D01*
X219200000Y-84500000D02*
X219300000Y-84500000D01*
X219300000Y-84500000D02*
X219300000Y-82800057D01*
X206100000Y-77700000D02*
X206200000Y-77800000D01*
X229600000Y-56400000D02*
X231140001Y-56400000D01*
X218000000Y-85700000D02*
X219200000Y-84500000D01*
X206100000Y-67500000D02*
X206100000Y-77700000D01*
X223999000Y-78101057D02*
X223999000Y-62001000D01*
X223999000Y-62001000D02*
X229600000Y-56400000D01*
X231140001Y-56400000D02*
X233040001Y-54500000D01*
%TO.N,SWD_CLK*%
X223551000Y-75949000D02*
X218000000Y-81500000D01*
X207400000Y-69100000D02*
X206700000Y-68400000D01*
X208400000Y-71700000D02*
X207400000Y-70700000D01*
X207501000Y-69748943D02*
X207501000Y-69251057D01*
X207400000Y-69150057D02*
X207400000Y-69100000D01*
X218000000Y-81500000D02*
X218000000Y-84400000D01*
X206700000Y-68400000D02*
X206700000Y-68200000D01*
X223551000Y-61449000D02*
X223551000Y-75949000D01*
X207400000Y-69849943D02*
X207501000Y-69748943D01*
X207500000Y-77800000D02*
X208400000Y-76900000D01*
X230500000Y-54500000D02*
X223551000Y-61449000D01*
X207501000Y-69251057D02*
X207400000Y-69150057D01*
X208400000Y-76900000D02*
X208400000Y-71700000D01*
X207400000Y-70700000D02*
X207400000Y-69849943D01*
D19*
%TO.N,Net-(U4-STAT)*%
X222500000Y-88200000D02*
X232785298Y-88200000D01*
X221500000Y-87200000D02*
X222500000Y-88200000D01*
X236500000Y-84485298D02*
X236500000Y-84300000D01*
X232785298Y-88200000D02*
X236500000Y-84485298D01*
D18*
%TO.N,Net-(U5-~{RESET})*%
X207475000Y-60350000D02*
X207475000Y-61875000D01*
%TO.N,UART_TXD*%
X214800000Y-61000000D02*
X216000000Y-62200000D01*
X216000000Y-62200000D02*
X216500000Y-62200000D01*
D19*
%TO.N,Net-(U6-CBUS3)*%
X233400000Y-67100000D02*
X233400000Y-73200000D01*
X233400000Y-73200000D02*
X234600000Y-74400000D01*
%TO.N,P0.05*%
X216000000Y-75900000D02*
X217500000Y-74400000D01*
X217500000Y-69500000D02*
X217400000Y-69400000D01*
X217500000Y-74400000D02*
X217500000Y-69500000D01*
X216000000Y-79900000D02*
X216000000Y-75900000D01*
X215200000Y-63100000D02*
X217400000Y-65300000D01*
X217400000Y-69400000D02*
X217400000Y-65300000D01*
X214000000Y-63100000D02*
X215200000Y-63100000D01*
X212100000Y-83800000D02*
X216000000Y-79900000D01*
X193200000Y-80800000D02*
X196200000Y-83800000D01*
X214000000Y-63100000D02*
X213900000Y-63200000D01*
X196200000Y-83800000D02*
X212100000Y-83800000D01*
%TO.N,P0.04*%
X216800000Y-69700000D02*
X216800000Y-67700000D01*
X216800000Y-67700000D02*
X214350000Y-65250000D01*
X198240000Y-83300000D02*
X211100000Y-83300000D01*
X214900000Y-70700000D02*
X215800000Y-70700000D01*
X214800000Y-63800000D02*
X214350000Y-64250000D01*
X214350000Y-64250000D02*
X214350000Y-65250000D01*
X193200000Y-78260000D02*
X198240000Y-83300000D01*
X211100000Y-83300000D02*
X211100000Y-83200000D01*
X211100000Y-83200000D02*
X214700000Y-79600000D01*
X214700000Y-79600000D02*
X214700000Y-70900000D01*
X215800000Y-70700000D02*
X216800000Y-69700000D01*
X214700000Y-70900000D02*
X214900000Y-70700000D01*
%TD*%
%TA.AperFunction,Conductor*%
%TO.N,GND*%
G36*
X205962586Y-52520185D02*
G01*
X206008341Y-52572989D01*
X206018285Y-52642147D01*
X205989260Y-52705703D01*
X205983228Y-52712181D01*
X205537837Y-53157570D01*
X205476514Y-53191055D01*
X205411842Y-53187821D01*
X205396246Y-53182754D01*
X205237239Y-53157570D01*
X205186287Y-53149500D01*
X204973713Y-53149500D01*
X204925042Y-53157208D01*
X204763760Y-53182753D01*
X204561585Y-53248444D01*
X204372179Y-53344951D01*
X204200213Y-53469890D01*
X204049890Y-53620213D01*
X203924951Y-53792179D01*
X203828444Y-53981585D01*
X203762753Y-54183760D01*
X203739388Y-54331282D01*
X203729500Y-54393713D01*
X203729500Y-54606287D01*
X203739534Y-54669644D01*
X203762753Y-54816239D01*
X203762753Y-54816241D01*
X203762754Y-54816243D01*
X203821246Y-54996263D01*
X203828444Y-55018414D01*
X203924951Y-55207820D01*
X204049890Y-55379786D01*
X204200207Y-55530103D01*
X204262252Y-55575181D01*
X204304918Y-55630511D01*
X204310897Y-55700124D01*
X204278292Y-55761920D01*
X204217453Y-55796277D01*
X204189367Y-55799500D01*
X201470940Y-55799500D01*
X201430018Y-55810465D01*
X201401414Y-55818129D01*
X201331564Y-55816466D01*
X201273702Y-55777302D01*
X201246199Y-55713073D01*
X201257786Y-55644171D01*
X201270053Y-55624047D01*
X201293796Y-55592331D01*
X201344091Y-55457483D01*
X201350500Y-55397873D01*
X201350499Y-53602128D01*
X201344091Y-53542517D01*
X201344089Y-53542512D01*
X201293797Y-53407671D01*
X201293793Y-53407664D01*
X201207547Y-53292455D01*
X201207544Y-53292452D01*
X201092335Y-53206206D01*
X201092328Y-53206202D01*
X200957482Y-53155908D01*
X200957483Y-53155908D01*
X200897883Y-53149501D01*
X200897881Y-53149500D01*
X200897873Y-53149500D01*
X200897864Y-53149500D01*
X199102129Y-53149500D01*
X199102123Y-53149501D01*
X199042516Y-53155908D01*
X198907671Y-53206202D01*
X198907664Y-53206206D01*
X198792455Y-53292452D01*
X198792452Y-53292455D01*
X198706206Y-53407664D01*
X198706202Y-53407671D01*
X198655908Y-53542517D01*
X198651107Y-53587181D01*
X198649501Y-53602123D01*
X198649500Y-53602135D01*
X198649500Y-55397870D01*
X198649501Y-55397876D01*
X198655908Y-55457483D01*
X198706202Y-55592328D01*
X198706206Y-55592335D01*
X198792452Y-55707544D01*
X198792455Y-55707547D01*
X198907664Y-55793793D01*
X198907671Y-55793797D01*
X199042517Y-55844091D01*
X199042516Y-55844091D01*
X199049444Y-55844835D01*
X199102127Y-55850500D01*
X200897872Y-55850499D01*
X200943236Y-55845622D01*
X201011994Y-55858028D01*
X201063131Y-55905639D01*
X201080410Y-55973338D01*
X201058345Y-56039632D01*
X201044170Y-56056593D01*
X199684300Y-57416463D01*
X199684293Y-57416470D01*
X199681286Y-57419478D01*
X199681284Y-57419480D01*
X199569480Y-57531284D01*
X199546459Y-57571158D01*
X199540455Y-57581556D01*
X199540454Y-57581558D01*
X199513520Y-57628210D01*
X199490423Y-57668215D01*
X199449499Y-57820943D01*
X199449499Y-57820945D01*
X199449499Y-57989046D01*
X199449500Y-57989059D01*
X199449500Y-72799902D01*
X199429815Y-72866941D01*
X199413181Y-72887583D01*
X199169481Y-73131282D01*
X199169479Y-73131285D01*
X199123887Y-73210255D01*
X199123885Y-73210257D01*
X199090425Y-73268209D01*
X199090423Y-73268212D01*
X199076738Y-73319286D01*
X199049499Y-73420943D01*
X199049499Y-73420945D01*
X199049499Y-73589046D01*
X199049500Y-73589059D01*
X199049500Y-78138330D01*
X199049499Y-78138348D01*
X199049499Y-78304054D01*
X199049498Y-78304054D01*
X199090423Y-78456785D01*
X199097922Y-78469773D01*
X199097923Y-78469775D01*
X199169477Y-78593712D01*
X199169481Y-78593717D01*
X199288349Y-78712585D01*
X199288355Y-78712590D01*
X203038584Y-82462819D01*
X203072069Y-82524142D01*
X203067085Y-82593834D01*
X203025213Y-82649767D01*
X202959749Y-82674184D01*
X202950903Y-82674500D01*
X198550453Y-82674500D01*
X198483414Y-82654815D01*
X198462772Y-82638181D01*
X194542428Y-78717837D01*
X194508943Y-78656514D01*
X194512178Y-78591837D01*
X194517246Y-78576243D01*
X194550500Y-78366287D01*
X194550500Y-78153713D01*
X194517246Y-77943757D01*
X194451557Y-77741588D01*
X194355051Y-77552184D01*
X194355049Y-77552181D01*
X194355048Y-77552179D01*
X194230109Y-77380213D01*
X194079786Y-77229890D01*
X193907820Y-77104951D01*
X193718414Y-77008444D01*
X193718413Y-77008443D01*
X193718412Y-77008443D01*
X193516243Y-76942754D01*
X193516241Y-76942753D01*
X193516240Y-76942753D01*
X193342420Y-76915223D01*
X193306287Y-76909500D01*
X193093713Y-76909500D01*
X193057580Y-76915223D01*
X192883760Y-76942753D01*
X192883757Y-76942754D01*
X192707878Y-76999901D01*
X192681585Y-77008444D01*
X192492179Y-77104951D01*
X192320213Y-77229890D01*
X192169890Y-77380213D01*
X192044951Y-77552179D01*
X191948444Y-77741585D01*
X191882753Y-77943760D01*
X191849500Y-78153713D01*
X191849500Y-78366286D01*
X191882424Y-78574164D01*
X191882754Y-78576243D01*
X191927054Y-78712585D01*
X191948444Y-78778414D01*
X192044951Y-78967820D01*
X192169890Y-79139786D01*
X192320213Y-79290109D01*
X192492182Y-79415050D01*
X192500946Y-79419516D01*
X192551742Y-79467491D01*
X192568536Y-79535312D01*
X192545998Y-79601447D01*
X192500946Y-79640484D01*
X192492182Y-79644949D01*
X192320213Y-79769890D01*
X192169890Y-79920213D01*
X192044951Y-80092179D01*
X191948444Y-80281585D01*
X191882753Y-80483760D01*
X191849500Y-80693713D01*
X191849500Y-80906286D01*
X191881183Y-81106328D01*
X191882754Y-81116243D01*
X191935697Y-81279185D01*
X191948444Y-81318414D01*
X192044951Y-81507820D01*
X192169890Y-81679786D01*
X192320213Y-81830109D01*
X192492179Y-81955048D01*
X192492181Y-81955049D01*
X192492184Y-81955051D01*
X192681588Y-82051557D01*
X192883757Y-82117246D01*
X193093713Y-82150500D01*
X193093714Y-82150500D01*
X193306286Y-82150500D01*
X193306287Y-82150500D01*
X193516243Y-82117246D01*
X193531837Y-82112178D01*
X193601676Y-82110182D01*
X193657837Y-82142428D01*
X195801263Y-84285855D01*
X195801267Y-84285858D01*
X195903710Y-84354309D01*
X195903711Y-84354309D01*
X195903715Y-84354312D01*
X195970397Y-84381932D01*
X196017548Y-84401463D01*
X196037597Y-84405451D01*
X196095074Y-84416884D01*
X196138392Y-84425501D01*
X196138394Y-84425501D01*
X196267721Y-84425501D01*
X196267741Y-84425500D01*
X212161607Y-84425500D01*
X212222029Y-84413481D01*
X212282452Y-84401463D01*
X212315792Y-84387652D01*
X212396286Y-84354312D01*
X212447509Y-84320084D01*
X212498733Y-84285858D01*
X212585858Y-84198733D01*
X212585859Y-84198731D01*
X212592925Y-84191665D01*
X212592928Y-84191661D01*
X216398729Y-80385860D01*
X216398733Y-80385858D01*
X216485858Y-80298733D01*
X216554311Y-80196286D01*
X216554312Y-80196285D01*
X216554313Y-80196282D01*
X216554315Y-80196279D01*
X216554315Y-80196277D01*
X216581659Y-80130263D01*
X216601463Y-80082451D01*
X216606239Y-80058443D01*
X216625500Y-79961606D01*
X216625500Y-78724500D01*
X216645185Y-78657461D01*
X216697989Y-78611706D01*
X216749500Y-78600500D01*
X216768844Y-78600500D01*
X216768845Y-78600499D01*
X216923497Y-78569737D01*
X217069179Y-78509394D01*
X217069185Y-78509390D01*
X217200875Y-78421398D01*
X217267553Y-78400520D01*
X217269766Y-78400500D01*
X218013331Y-78400500D01*
X218013347Y-78400501D01*
X218020943Y-78400501D01*
X218179054Y-78400501D01*
X218179057Y-78400501D01*
X218331785Y-78359577D01*
X218381904Y-78330639D01*
X218468716Y-78280520D01*
X218580520Y-78168716D01*
X218580521Y-78168714D01*
X219080520Y-77668716D01*
X219159577Y-77531784D01*
X219177097Y-77466398D01*
X219213461Y-77406741D01*
X219276309Y-77376212D01*
X219345684Y-77384507D01*
X219399562Y-77428992D01*
X219418488Y-77474303D01*
X219430261Y-77533491D01*
X219430264Y-77533501D01*
X219490602Y-77679172D01*
X219490609Y-77679185D01*
X219578210Y-77810288D01*
X219578213Y-77810292D01*
X219689707Y-77921786D01*
X219689711Y-77921789D01*
X219820814Y-78009390D01*
X219820827Y-78009397D01*
X219966498Y-78069735D01*
X219966503Y-78069737D01*
X220121153Y-78100499D01*
X220121156Y-78100500D01*
X220250903Y-78100500D01*
X220317942Y-78120185D01*
X220363697Y-78172989D01*
X220373641Y-78242147D01*
X220344616Y-78305703D01*
X220338590Y-78312173D01*
X218953827Y-79696937D01*
X217631286Y-81019478D01*
X217519481Y-81131282D01*
X217519475Y-81131290D01*
X217480539Y-81198731D01*
X217480539Y-81198733D01*
X217440423Y-81268214D01*
X217437194Y-81280264D01*
X217399499Y-81420943D01*
X217399499Y-81420945D01*
X217399499Y-81589046D01*
X217399500Y-81589059D01*
X217399500Y-83820234D01*
X217379815Y-83887273D01*
X217378602Y-83889125D01*
X217290609Y-84020814D01*
X217290602Y-84020827D01*
X217230264Y-84166498D01*
X217230261Y-84166510D01*
X217199500Y-84321153D01*
X217199500Y-84478846D01*
X217230261Y-84633489D01*
X217230264Y-84633501D01*
X217290602Y-84779172D01*
X217290609Y-84779185D01*
X217378210Y-84910288D01*
X217378213Y-84910292D01*
X217430240Y-84962319D01*
X217463725Y-85023642D01*
X217458741Y-85093334D01*
X217430240Y-85137681D01*
X217378213Y-85189707D01*
X217378210Y-85189711D01*
X217290609Y-85320814D01*
X217290602Y-85320827D01*
X217230264Y-85466498D01*
X217230261Y-85466510D01*
X217199500Y-85621153D01*
X217199500Y-85778846D01*
X217230261Y-85933489D01*
X217230264Y-85933501D01*
X217290602Y-86079172D01*
X217290609Y-86079185D01*
X217378210Y-86210288D01*
X217378213Y-86210292D01*
X217489707Y-86321786D01*
X217489711Y-86321789D01*
X217620814Y-86409390D01*
X217620827Y-86409397D01*
X217766498Y-86469735D01*
X217766503Y-86469737D01*
X217921153Y-86500499D01*
X217921156Y-86500500D01*
X217921158Y-86500500D01*
X218078844Y-86500500D01*
X218078845Y-86500499D01*
X218233497Y-86469737D01*
X218379179Y-86409394D01*
X218510289Y-86321789D01*
X218621789Y-86210289D01*
X218709394Y-86079179D01*
X218769737Y-85933497D01*
X218789113Y-85836085D01*
X218800638Y-85778150D01*
X218833023Y-85716239D01*
X218834521Y-85714713D01*
X218928081Y-85621153D01*
X230399500Y-85621153D01*
X230399500Y-85778846D01*
X230430261Y-85933489D01*
X230430264Y-85933501D01*
X230490602Y-86079172D01*
X230490609Y-86079185D01*
X230578210Y-86210288D01*
X230578213Y-86210292D01*
X230689707Y-86321786D01*
X230689711Y-86321789D01*
X230820814Y-86409390D01*
X230820827Y-86409397D01*
X230966498Y-86469735D01*
X230966503Y-86469737D01*
X231121153Y-86500499D01*
X231121156Y-86500500D01*
X231121158Y-86500500D01*
X231278844Y-86500500D01*
X231278845Y-86500499D01*
X231433497Y-86469737D01*
X231528794Y-86430264D01*
X231552548Y-86420425D01*
X231622017Y-86412956D01*
X231647452Y-86420425D01*
X231671206Y-86430264D01*
X231766503Y-86469737D01*
X231921153Y-86500499D01*
X231921156Y-86500500D01*
X231921158Y-86500500D01*
X232078844Y-86500500D01*
X232078845Y-86500499D01*
X232233497Y-86469737D01*
X232379179Y-86409394D01*
X232510289Y-86321789D01*
X232621789Y-86210289D01*
X232709394Y-86079179D01*
X232769737Y-85933497D01*
X232800500Y-85778842D01*
X232800500Y-85621158D01*
X232800500Y-85621155D01*
X232800499Y-85621153D01*
X232769738Y-85466510D01*
X232769737Y-85466503D01*
X232769735Y-85466498D01*
X232709397Y-85320827D01*
X232709390Y-85320814D01*
X232621789Y-85189711D01*
X232621786Y-85189707D01*
X232510292Y-85078213D01*
X232510288Y-85078210D01*
X232379185Y-84990609D01*
X232379172Y-84990602D01*
X232233501Y-84930264D01*
X232233489Y-84930261D01*
X232078845Y-84899500D01*
X232078842Y-84899500D01*
X231921158Y-84899500D01*
X231921155Y-84899500D01*
X231766510Y-84930261D01*
X231766498Y-84930264D01*
X231647452Y-84979574D01*
X231577982Y-84987043D01*
X231552548Y-84979574D01*
X231433501Y-84930264D01*
X231433489Y-84930261D01*
X231278845Y-84899500D01*
X231278842Y-84899500D01*
X231121158Y-84899500D01*
X231121155Y-84899500D01*
X230966510Y-84930261D01*
X230966498Y-84930264D01*
X230820827Y-84990602D01*
X230820814Y-84990609D01*
X230689711Y-85078210D01*
X230689707Y-85078213D01*
X230578213Y-85189707D01*
X230578210Y-85189711D01*
X230490609Y-85320814D01*
X230490602Y-85320827D01*
X230430264Y-85466498D01*
X230430261Y-85466510D01*
X230399500Y-85621153D01*
X218928081Y-85621153D01*
X219450744Y-85098489D01*
X219506329Y-85066397D01*
X219531784Y-85059577D01*
X219668716Y-84980520D01*
X219780520Y-84868716D01*
X219859577Y-84731784D01*
X219900500Y-84579057D01*
X219900500Y-83100154D01*
X219920185Y-83033115D01*
X219936819Y-83012473D01*
X220070178Y-82879114D01*
X220250490Y-82698801D01*
X220311811Y-82665318D01*
X220381502Y-82670302D01*
X220407060Y-82683382D01*
X220520814Y-82759390D01*
X220520827Y-82759397D01*
X220666498Y-82819735D01*
X220666503Y-82819737D01*
X220821153Y-82850499D01*
X220821156Y-82850500D01*
X220821158Y-82850500D01*
X220978844Y-82850500D01*
X220978845Y-82850499D01*
X221133497Y-82819737D01*
X221189120Y-82796697D01*
X221284808Y-82757063D01*
X221285266Y-82758170D01*
X221347447Y-82745223D01*
X221389929Y-82757696D01*
X221390192Y-82757063D01*
X221541498Y-82819735D01*
X221541503Y-82819737D01*
X221696153Y-82850499D01*
X221696156Y-82850500D01*
X221696158Y-82850500D01*
X221853844Y-82850500D01*
X221853845Y-82850499D01*
X222008497Y-82819737D01*
X222064120Y-82796697D01*
X222159808Y-82757063D01*
X222160266Y-82758170D01*
X222222447Y-82745223D01*
X222264929Y-82757696D01*
X222265192Y-82757063D01*
X222416498Y-82819735D01*
X222416503Y-82819737D01*
X222571153Y-82850499D01*
X222571156Y-82850500D01*
X222571158Y-82850500D01*
X222728844Y-82850500D01*
X222728845Y-82850499D01*
X222883497Y-82819737D01*
X223029179Y-82759394D01*
X223160289Y-82671789D01*
X223271789Y-82560289D01*
X223359394Y-82429179D01*
X223419737Y-82283497D01*
X223450500Y-82128842D01*
X223450500Y-81971158D01*
X223450500Y-81971155D01*
X223450499Y-81971153D01*
X223447296Y-81955051D01*
X223419737Y-81816503D01*
X223419735Y-81816498D01*
X223359397Y-81670827D01*
X223359390Y-81670814D01*
X223271789Y-81539711D01*
X223271786Y-81539707D01*
X223160292Y-81428213D01*
X223160288Y-81428210D01*
X223029185Y-81340609D01*
X223029172Y-81340602D01*
X222883501Y-81280264D01*
X222883489Y-81280261D01*
X222728845Y-81249500D01*
X222728842Y-81249500D01*
X222571158Y-81249500D01*
X222571155Y-81249500D01*
X222416510Y-81280261D01*
X222416498Y-81280264D01*
X222265193Y-81342937D01*
X222264734Y-81341831D01*
X222202544Y-81354777D01*
X222171009Y-81348029D01*
X222158800Y-81343694D01*
X222154179Y-81340606D01*
X222008497Y-81280263D01*
X221944063Y-81267446D01*
X221935580Y-81264434D01*
X221914277Y-81249006D01*
X221890968Y-81236814D01*
X221886425Y-81228837D01*
X221878991Y-81223453D01*
X221869409Y-81198954D01*
X221856394Y-81176097D01*
X221856885Y-81166931D01*
X221853542Y-81158382D01*
X221858726Y-81132592D01*
X221860135Y-81106328D01*
X221865820Y-81097304D01*
X221867313Y-81089883D01*
X221876421Y-81080482D01*
X221889388Y-81059903D01*
X222128138Y-80821153D01*
X224699500Y-80821153D01*
X224699500Y-80978846D01*
X224730261Y-81133489D01*
X224730264Y-81133501D01*
X224790602Y-81279172D01*
X224790609Y-81279185D01*
X224878210Y-81410288D01*
X224878213Y-81410292D01*
X224989707Y-81521786D01*
X224989711Y-81521789D01*
X225120814Y-81609390D01*
X225120827Y-81609397D01*
X225266498Y-81669735D01*
X225266503Y-81669737D01*
X225421153Y-81700499D01*
X225421156Y-81700500D01*
X225421158Y-81700500D01*
X225578844Y-81700500D01*
X225578845Y-81700499D01*
X225733497Y-81669737D01*
X225879179Y-81609394D01*
X226010289Y-81521789D01*
X226121789Y-81410289D01*
X226209394Y-81279179D01*
X226269737Y-81133497D01*
X226300500Y-80978842D01*
X226300500Y-80821158D01*
X226300500Y-80821155D01*
X226300499Y-80821153D01*
X226295188Y-80794452D01*
X226269737Y-80666503D01*
X226236333Y-80585857D01*
X226209397Y-80520827D01*
X226209390Y-80520814D01*
X226121789Y-80389711D01*
X226121786Y-80389707D01*
X226010292Y-80278213D01*
X226010288Y-80278210D01*
X225879185Y-80190609D01*
X225879172Y-80190602D01*
X225733501Y-80130264D01*
X225733489Y-80130261D01*
X225578845Y-80099500D01*
X225578842Y-80099500D01*
X225421158Y-80099500D01*
X225421155Y-80099500D01*
X225266510Y-80130261D01*
X225266498Y-80130264D01*
X225120827Y-80190602D01*
X225120814Y-80190609D01*
X224989711Y-80278210D01*
X224989707Y-80278213D01*
X224878213Y-80389707D01*
X224878210Y-80389711D01*
X224790609Y-80520814D01*
X224790602Y-80520827D01*
X224730264Y-80666498D01*
X224730261Y-80666510D01*
X224699500Y-80821153D01*
X222128138Y-80821153D01*
X224479520Y-78469773D01*
X224558577Y-78332841D01*
X224599501Y-78180114D01*
X224599501Y-78021999D01*
X224599501Y-78014404D01*
X224599500Y-78014386D01*
X224599500Y-77646153D01*
X225424500Y-77646153D01*
X225424500Y-77803846D01*
X225455261Y-77958489D01*
X225455264Y-77958501D01*
X225515602Y-78104172D01*
X225515609Y-78104185D01*
X225603210Y-78235288D01*
X225603213Y-78235292D01*
X225714707Y-78346786D01*
X225714711Y-78346789D01*
X225845814Y-78434390D01*
X225845827Y-78434397D01*
X225945601Y-78475724D01*
X225991503Y-78494737D01*
X226115200Y-78519342D01*
X226146153Y-78525499D01*
X226146156Y-78525500D01*
X226146158Y-78525500D01*
X226303844Y-78525500D01*
X226303845Y-78525499D01*
X226458497Y-78494737D01*
X226604179Y-78434394D01*
X226735289Y-78346789D01*
X226846789Y-78235289D01*
X226934394Y-78104179D01*
X226994737Y-77958497D01*
X227025500Y-77803842D01*
X227025500Y-77646158D01*
X227025500Y-77646155D01*
X227025499Y-77646153D01*
X227003089Y-77533491D01*
X226994737Y-77491503D01*
X226986687Y-77472068D01*
X226934397Y-77345827D01*
X226934390Y-77345814D01*
X226846789Y-77214711D01*
X226846786Y-77214707D01*
X226735292Y-77103213D01*
X226735288Y-77103210D01*
X226604185Y-77015609D01*
X226604172Y-77015602D01*
X226458501Y-76955264D01*
X226458489Y-76955261D01*
X226303845Y-76924500D01*
X226303842Y-76924500D01*
X226146158Y-76924500D01*
X226146155Y-76924500D01*
X225991510Y-76955261D01*
X225991498Y-76955264D01*
X225845827Y-77015602D01*
X225845814Y-77015609D01*
X225714711Y-77103210D01*
X225714707Y-77103213D01*
X225603213Y-77214707D01*
X225603210Y-77214711D01*
X225515609Y-77345814D01*
X225515602Y-77345827D01*
X225455264Y-77491498D01*
X225455261Y-77491510D01*
X225424500Y-77646153D01*
X224599500Y-77646153D01*
X224599500Y-76121153D01*
X240399500Y-76121153D01*
X240399500Y-76278846D01*
X240430260Y-76433488D01*
X240430262Y-76433493D01*
X240430263Y-76433497D01*
X240449046Y-76478844D01*
X240458865Y-76502549D01*
X240466333Y-76572018D01*
X240458865Y-76597447D01*
X240430263Y-76666503D01*
X240430262Y-76666506D01*
X240430260Y-76666511D01*
X240399500Y-76821153D01*
X240399500Y-76978846D01*
X240430261Y-77133489D01*
X240430264Y-77133501D01*
X240490602Y-77279172D01*
X240490609Y-77279185D01*
X240578210Y-77410288D01*
X240578213Y-77410292D01*
X240689707Y-77521786D01*
X240689711Y-77521789D01*
X240820814Y-77609390D01*
X240820827Y-77609397D01*
X240964021Y-77668709D01*
X240966503Y-77669737D01*
X241121153Y-77700499D01*
X241121156Y-77700500D01*
X241121158Y-77700500D01*
X241278844Y-77700500D01*
X241278845Y-77700499D01*
X241433497Y-77669737D01*
X241579179Y-77609394D01*
X241710289Y-77521789D01*
X241821789Y-77410289D01*
X241877174Y-77327399D01*
X243419500Y-77327399D01*
X243419500Y-77452601D01*
X243451905Y-77573536D01*
X243514505Y-77681964D01*
X243603036Y-77770495D01*
X243711464Y-77833095D01*
X243832399Y-77865500D01*
X243832401Y-77865500D01*
X243957599Y-77865500D01*
X243957601Y-77865500D01*
X244078536Y-77833095D01*
X244186964Y-77770495D01*
X244275495Y-77681964D01*
X244338095Y-77573536D01*
X244370500Y-77452601D01*
X244370500Y-77327399D01*
X244338095Y-77206464D01*
X244275495Y-77098036D01*
X244186964Y-77009505D01*
X244078536Y-76946905D01*
X244078537Y-76946905D01*
X244038224Y-76936103D01*
X243957601Y-76914500D01*
X243832399Y-76914500D01*
X243751775Y-76936103D01*
X243711463Y-76946905D01*
X243603037Y-77009504D01*
X243603034Y-77009506D01*
X243514506Y-77098034D01*
X243514504Y-77098037D01*
X243451905Y-77206463D01*
X243445628Y-77229890D01*
X243419500Y-77327399D01*
X241877174Y-77327399D01*
X241909394Y-77279179D01*
X241969737Y-77133497D01*
X242000500Y-76978842D01*
X242000500Y-76821158D01*
X242000500Y-76821155D01*
X242000499Y-76821153D01*
X241993275Y-76784834D01*
X241969737Y-76666503D01*
X241941134Y-76597450D01*
X241933666Y-76527984D01*
X241941133Y-76502552D01*
X241969737Y-76433497D01*
X242000500Y-76278842D01*
X242000500Y-76121158D01*
X242000500Y-76121155D01*
X242000499Y-76121153D01*
X242000142Y-76119359D01*
X241969737Y-75966503D01*
X241949506Y-75917660D01*
X241909397Y-75820827D01*
X241909390Y-75820814D01*
X241821789Y-75689711D01*
X241821786Y-75689707D01*
X241710292Y-75578213D01*
X241710288Y-75578210D01*
X241579185Y-75490609D01*
X241579172Y-75490602D01*
X241433501Y-75430264D01*
X241433489Y-75430261D01*
X241278845Y-75399500D01*
X241278842Y-75399500D01*
X241121158Y-75399500D01*
X241121155Y-75399500D01*
X240966510Y-75430261D01*
X240966498Y-75430264D01*
X240820827Y-75490602D01*
X240820814Y-75490609D01*
X240689711Y-75578210D01*
X240689707Y-75578213D01*
X240578213Y-75689707D01*
X240578210Y-75689711D01*
X240490609Y-75820814D01*
X240490602Y-75820827D01*
X240430264Y-75966498D01*
X240430261Y-75966510D01*
X240399500Y-76121153D01*
X224599500Y-76121153D01*
X224599500Y-75875271D01*
X224619185Y-75808232D01*
X224671989Y-75762477D01*
X224741147Y-75752533D01*
X224760280Y-75757783D01*
X224760364Y-75757473D01*
X224768213Y-75759576D01*
X224768215Y-75759577D01*
X224920943Y-75800500D01*
X236213331Y-75800500D01*
X236213347Y-75800501D01*
X236220943Y-75800501D01*
X236379054Y-75800501D01*
X236379057Y-75800501D01*
X236531785Y-75759577D01*
X236605156Y-75717216D01*
X236668716Y-75680520D01*
X236780520Y-75568716D01*
X236780520Y-75568714D01*
X236790724Y-75558511D01*
X236790728Y-75558506D01*
X239858506Y-72490728D01*
X239858511Y-72490724D01*
X239868714Y-72480520D01*
X239868716Y-72480520D01*
X239980520Y-72368716D01*
X240059577Y-72231784D01*
X240092174Y-72110129D01*
X240100500Y-72079058D01*
X240100500Y-72021153D01*
X240399500Y-72021153D01*
X240399500Y-72178846D01*
X240430260Y-72333488D01*
X240430262Y-72333493D01*
X240430263Y-72333497D01*
X240458864Y-72402547D01*
X240458865Y-72402549D01*
X240466333Y-72472018D01*
X240458865Y-72497447D01*
X240430263Y-72566503D01*
X240430262Y-72566506D01*
X240430260Y-72566511D01*
X240399500Y-72721153D01*
X240399500Y-72878846D01*
X240430261Y-73033489D01*
X240430264Y-73033501D01*
X240490602Y-73179172D01*
X240490609Y-73179185D01*
X240578210Y-73310288D01*
X240578213Y-73310292D01*
X240689707Y-73421786D01*
X240689711Y-73421789D01*
X240820814Y-73509390D01*
X240820827Y-73509397D01*
X240962358Y-73568020D01*
X240966503Y-73569737D01*
X241063641Y-73589059D01*
X241121153Y-73600499D01*
X241121156Y-73600500D01*
X241121158Y-73600500D01*
X241278844Y-73600500D01*
X241278845Y-73600499D01*
X241433497Y-73569737D01*
X241579179Y-73509394D01*
X241710289Y-73421789D01*
X241821789Y-73310289D01*
X241909394Y-73179179D01*
X241969737Y-73033497D01*
X242000500Y-72878842D01*
X242000500Y-72721158D01*
X242000500Y-72721155D01*
X242000499Y-72721153D01*
X241994422Y-72690602D01*
X241969737Y-72566503D01*
X241941134Y-72497450D01*
X241933666Y-72427984D01*
X241941133Y-72402552D01*
X241969737Y-72333497D01*
X242000500Y-72178842D01*
X242000500Y-72021158D01*
X242000500Y-72021155D01*
X242000499Y-72021153D01*
X241980566Y-71920943D01*
X241969737Y-71866503D01*
X241957064Y-71835908D01*
X241909397Y-71720827D01*
X241909390Y-71720814D01*
X241834118Y-71608162D01*
X241821789Y-71589711D01*
X241821786Y-71589707D01*
X241779478Y-71547399D01*
X243419500Y-71547399D01*
X243419500Y-71672601D01*
X243451905Y-71793536D01*
X243514505Y-71901964D01*
X243603036Y-71990495D01*
X243711464Y-72053095D01*
X243832399Y-72085500D01*
X243832401Y-72085500D01*
X243957599Y-72085500D01*
X243957601Y-72085500D01*
X244078536Y-72053095D01*
X244186964Y-71990495D01*
X244275495Y-71901964D01*
X244338095Y-71793536D01*
X244370500Y-71672601D01*
X244370500Y-71547399D01*
X244338095Y-71426464D01*
X244275495Y-71318036D01*
X244186964Y-71229505D01*
X244078536Y-71166905D01*
X244078537Y-71166905D01*
X244038224Y-71156103D01*
X243957601Y-71134500D01*
X243832399Y-71134500D01*
X243751775Y-71156103D01*
X243711463Y-71166905D01*
X243603037Y-71229504D01*
X243603034Y-71229506D01*
X243514506Y-71318034D01*
X243514504Y-71318037D01*
X243451905Y-71426463D01*
X243451905Y-71426464D01*
X243419500Y-71547399D01*
X241779478Y-71547399D01*
X241710292Y-71478213D01*
X241710288Y-71478210D01*
X241579185Y-71390609D01*
X241579172Y-71390602D01*
X241433501Y-71330264D01*
X241433489Y-71330261D01*
X241278845Y-71299500D01*
X241278842Y-71299500D01*
X241121158Y-71299500D01*
X241121155Y-71299500D01*
X240966510Y-71330261D01*
X240966498Y-71330264D01*
X240820827Y-71390602D01*
X240820814Y-71390609D01*
X240689711Y-71478210D01*
X240689707Y-71478213D01*
X240578213Y-71589707D01*
X240578210Y-71589711D01*
X240490609Y-71720814D01*
X240490602Y-71720827D01*
X240430264Y-71866498D01*
X240430261Y-71866510D01*
X240399500Y-72021153D01*
X240100500Y-72021153D01*
X240100500Y-71920943D01*
X240100500Y-71620943D01*
X240100500Y-70471000D01*
X240100500Y-66400096D01*
X240120185Y-66333057D01*
X240136814Y-66312420D01*
X241958506Y-64490727D01*
X241958511Y-64490724D01*
X241968714Y-64480520D01*
X241968716Y-64480520D01*
X242080520Y-64368716D01*
X242159577Y-64231784D01*
X242200500Y-64079057D01*
X242200500Y-61921153D01*
X245699500Y-61921153D01*
X245699500Y-62078846D01*
X245730261Y-62233489D01*
X245730264Y-62233501D01*
X245790602Y-62379172D01*
X245790609Y-62379185D01*
X245878210Y-62510288D01*
X245878213Y-62510292D01*
X245989707Y-62621786D01*
X245989711Y-62621789D01*
X246120814Y-62709390D01*
X246120827Y-62709397D01*
X246195732Y-62740423D01*
X246266503Y-62769737D01*
X246412305Y-62798739D01*
X246421153Y-62800499D01*
X246421156Y-62800500D01*
X246421158Y-62800500D01*
X246578844Y-62800500D01*
X246578845Y-62800499D01*
X246733497Y-62769737D01*
X246879179Y-62709394D01*
X247010289Y-62621789D01*
X247121789Y-62510289D01*
X247209394Y-62379179D01*
X247269737Y-62233497D01*
X247300500Y-62078842D01*
X247300500Y-61921158D01*
X247300500Y-61921155D01*
X247300499Y-61921153D01*
X247293632Y-61886632D01*
X247269737Y-61766503D01*
X247252172Y-61724097D01*
X247209397Y-61620827D01*
X247209390Y-61620814D01*
X247121789Y-61489711D01*
X247121786Y-61489707D01*
X247010292Y-61378213D01*
X247010288Y-61378210D01*
X246879185Y-61290609D01*
X246879172Y-61290602D01*
X246733501Y-61230264D01*
X246733489Y-61230261D01*
X246578845Y-61199500D01*
X246578842Y-61199500D01*
X246421158Y-61199500D01*
X246421155Y-61199500D01*
X246266510Y-61230261D01*
X246266498Y-61230264D01*
X246120827Y-61290602D01*
X246120814Y-61290609D01*
X245989711Y-61378210D01*
X245989707Y-61378213D01*
X245878213Y-61489707D01*
X245878210Y-61489711D01*
X245790609Y-61620814D01*
X245790602Y-61620827D01*
X245730264Y-61766498D01*
X245730261Y-61766510D01*
X245699500Y-61921153D01*
X242200500Y-61921153D01*
X242200500Y-54789060D01*
X242200501Y-54789047D01*
X242200501Y-54620944D01*
X242196574Y-54606287D01*
X242159577Y-54468216D01*
X242125505Y-54409201D01*
X242080524Y-54331290D01*
X242080518Y-54331282D01*
X240834573Y-53085337D01*
X240801088Y-53024014D01*
X240800637Y-53021847D01*
X240784172Y-52939071D01*
X240769737Y-52866503D01*
X240738332Y-52790683D01*
X240709397Y-52720827D01*
X240709389Y-52720812D01*
X240691067Y-52693392D01*
X240670188Y-52626715D01*
X240688672Y-52559334D01*
X240740650Y-52512644D01*
X240794168Y-52500500D01*
X246934108Y-52500500D01*
X246996249Y-52500500D01*
X247003736Y-52500726D01*
X247293796Y-52518271D01*
X247308657Y-52520075D01*
X247590798Y-52571780D01*
X247605335Y-52575363D01*
X247879172Y-52660695D01*
X247893163Y-52666000D01*
X248154743Y-52783727D01*
X248167989Y-52790680D01*
X248413465Y-52939075D01*
X248425776Y-52947573D01*
X248651573Y-53124473D01*
X248662781Y-53134403D01*
X248865596Y-53337218D01*
X248875526Y-53348426D01*
X248912159Y-53395185D01*
X249027586Y-53542517D01*
X249052422Y-53574217D01*
X249060926Y-53586537D01*
X249112405Y-53671694D01*
X249209316Y-53832004D01*
X249216275Y-53845263D01*
X249333997Y-54106831D01*
X249339306Y-54120832D01*
X249424635Y-54394663D01*
X249428219Y-54409201D01*
X249479923Y-54691340D01*
X249481728Y-54706205D01*
X249499274Y-54996263D01*
X249499500Y-55003750D01*
X249499500Y-93996249D01*
X249499274Y-94003736D01*
X249481728Y-94293794D01*
X249479923Y-94308659D01*
X249428219Y-94590798D01*
X249424635Y-94605336D01*
X249339306Y-94879167D01*
X249333997Y-94893168D01*
X249216275Y-95154736D01*
X249209316Y-95167995D01*
X249060928Y-95413459D01*
X249052422Y-95425782D01*
X248875526Y-95651573D01*
X248865596Y-95662781D01*
X248662781Y-95865596D01*
X248651573Y-95875526D01*
X248425782Y-96052422D01*
X248413459Y-96060928D01*
X248167995Y-96209316D01*
X248154736Y-96216275D01*
X247893168Y-96333997D01*
X247879167Y-96339306D01*
X247605336Y-96424635D01*
X247590798Y-96428219D01*
X247308659Y-96479923D01*
X247293794Y-96481728D01*
X247003736Y-96499274D01*
X246996249Y-96499500D01*
X216227350Y-96499500D01*
X216160311Y-96479815D01*
X216114556Y-96427011D01*
X216104612Y-96357853D01*
X216124248Y-96306609D01*
X216209390Y-96179185D01*
X216209390Y-96179184D01*
X216209394Y-96179179D01*
X216269737Y-96033497D01*
X216300500Y-95878842D01*
X216300500Y-95721158D01*
X216300500Y-95721155D01*
X216300499Y-95721153D01*
X216288888Y-95662781D01*
X216269737Y-95566503D01*
X216211449Y-95425782D01*
X216209397Y-95420827D01*
X216209390Y-95420814D01*
X216121789Y-95289711D01*
X216121786Y-95289707D01*
X216010292Y-95178213D01*
X216010288Y-95178210D01*
X215879185Y-95090609D01*
X215879172Y-95090602D01*
X215733501Y-95030264D01*
X215733489Y-95030261D01*
X215578845Y-94999500D01*
X215578842Y-94999500D01*
X215421158Y-94999500D01*
X215421155Y-94999500D01*
X215266510Y-95030261D01*
X215266498Y-95030264D01*
X215120827Y-95090602D01*
X215120814Y-95090609D01*
X214989711Y-95178210D01*
X214989707Y-95178213D01*
X214878213Y-95289707D01*
X214878210Y-95289711D01*
X214790609Y-95420814D01*
X214790602Y-95420827D01*
X214730264Y-95566498D01*
X214730261Y-95566510D01*
X214699500Y-95721153D01*
X214699500Y-95878846D01*
X214730261Y-96033489D01*
X214730264Y-96033501D01*
X214790602Y-96179172D01*
X214790609Y-96179185D01*
X214875752Y-96306609D01*
X214896630Y-96373286D01*
X214878146Y-96440666D01*
X214826167Y-96487357D01*
X214772650Y-96499500D01*
X193003751Y-96499500D01*
X192996264Y-96499274D01*
X192706205Y-96481728D01*
X192691340Y-96479923D01*
X192409201Y-96428219D01*
X192394663Y-96424635D01*
X192120832Y-96339306D01*
X192106831Y-96333997D01*
X191845263Y-96216275D01*
X191832004Y-96209316D01*
X191586540Y-96060928D01*
X191574217Y-96052422D01*
X191348426Y-95875526D01*
X191337218Y-95865596D01*
X191134403Y-95662781D01*
X191124473Y-95651573D01*
X190947573Y-95425776D01*
X190939075Y-95413465D01*
X190790680Y-95167989D01*
X190783727Y-95154743D01*
X190666000Y-94893163D01*
X190660693Y-94879167D01*
X190575364Y-94605336D01*
X190571780Y-94590798D01*
X190520076Y-94308659D01*
X190518271Y-94293794D01*
X190500726Y-94003736D01*
X190500500Y-93996249D01*
X190500500Y-92821153D01*
X225499500Y-92821153D01*
X225499500Y-92978846D01*
X225530261Y-93133489D01*
X225530264Y-93133501D01*
X225590602Y-93279172D01*
X225590609Y-93279185D01*
X225678210Y-93410288D01*
X225678213Y-93410292D01*
X225789707Y-93521786D01*
X225789711Y-93521789D01*
X225920814Y-93609390D01*
X225920827Y-93609397D01*
X226066498Y-93669735D01*
X226066503Y-93669737D01*
X226221153Y-93700499D01*
X226221156Y-93700500D01*
X226221158Y-93700500D01*
X226378844Y-93700500D01*
X226378845Y-93700499D01*
X226533497Y-93669737D01*
X226679179Y-93609394D01*
X226810289Y-93521789D01*
X226921789Y-93410289D01*
X227009394Y-93279179D01*
X227069737Y-93133497D01*
X227100500Y-92978842D01*
X227100500Y-92821158D01*
X227100500Y-92821155D01*
X227100499Y-92821153D01*
X227069738Y-92666510D01*
X227069737Y-92666503D01*
X227069735Y-92666498D01*
X227009397Y-92520827D01*
X227009390Y-92520814D01*
X226921789Y-92389711D01*
X226921786Y-92389707D01*
X226810292Y-92278213D01*
X226810288Y-92278210D01*
X226679185Y-92190609D01*
X226679172Y-92190602D01*
X226533501Y-92130264D01*
X226533489Y-92130261D01*
X226378845Y-92099500D01*
X226378842Y-92099500D01*
X226221158Y-92099500D01*
X226221155Y-92099500D01*
X226066510Y-92130261D01*
X226066498Y-92130264D01*
X225920827Y-92190602D01*
X225920814Y-92190609D01*
X225789711Y-92278210D01*
X225789707Y-92278213D01*
X225678213Y-92389707D01*
X225678210Y-92389711D01*
X225590609Y-92520814D01*
X225590602Y-92520827D01*
X225530264Y-92666498D01*
X225530261Y-92666510D01*
X225499500Y-92821153D01*
X190500500Y-92821153D01*
X190500500Y-87121153D01*
X220699500Y-87121153D01*
X220699500Y-87278846D01*
X220730261Y-87433489D01*
X220730264Y-87433501D01*
X220790602Y-87579172D01*
X220790609Y-87579185D01*
X220878210Y-87710288D01*
X220878213Y-87710292D01*
X220989707Y-87821786D01*
X220989711Y-87821789D01*
X221120814Y-87909390D01*
X221120827Y-87909397D01*
X221166254Y-87928213D01*
X221266503Y-87969737D01*
X221377716Y-87991858D01*
X221439623Y-88024241D01*
X221441203Y-88025793D01*
X222101263Y-88685855D01*
X222101267Y-88685858D01*
X222203710Y-88754309D01*
X222203711Y-88754309D01*
X222203715Y-88754312D01*
X222270397Y-88781932D01*
X222317548Y-88801463D01*
X222337597Y-88805451D01*
X222402624Y-88818385D01*
X222438392Y-88825501D01*
X222438394Y-88825501D01*
X222567721Y-88825501D01*
X222567741Y-88825500D01*
X232846905Y-88825500D01*
X232907327Y-88813481D01*
X232967750Y-88801463D01*
X233001090Y-88787652D01*
X233081584Y-88754312D01*
X233132807Y-88720084D01*
X233184031Y-88685858D01*
X233271156Y-88598733D01*
X233271157Y-88598731D01*
X233278223Y-88591665D01*
X233278226Y-88591661D01*
X233398734Y-88471153D01*
X242449500Y-88471153D01*
X242449500Y-88628846D01*
X242480261Y-88783489D01*
X242480264Y-88783501D01*
X242540602Y-88929172D01*
X242540609Y-88929185D01*
X242628210Y-89060288D01*
X242628213Y-89060292D01*
X242739707Y-89171786D01*
X242739711Y-89171789D01*
X242870814Y-89259390D01*
X242870827Y-89259397D01*
X243016498Y-89319735D01*
X243016503Y-89319737D01*
X243171153Y-89350499D01*
X243171156Y-89350500D01*
X243171158Y-89350500D01*
X243328844Y-89350500D01*
X243328845Y-89350499D01*
X243483497Y-89319737D01*
X243629179Y-89259394D01*
X243760289Y-89171789D01*
X243871789Y-89060289D01*
X243959394Y-88929179D01*
X244019737Y-88783497D01*
X244050500Y-88628842D01*
X244050500Y-88471158D01*
X244050500Y-88471155D01*
X244050499Y-88471153D01*
X244019738Y-88316510D01*
X244019737Y-88316503D01*
X244019735Y-88316498D01*
X243959397Y-88170827D01*
X243959390Y-88170814D01*
X243871789Y-88039711D01*
X243871786Y-88039707D01*
X243760292Y-87928213D01*
X243760288Y-87928210D01*
X243629185Y-87840609D01*
X243629172Y-87840602D01*
X243483501Y-87780264D01*
X243483489Y-87780261D01*
X243328845Y-87749500D01*
X243328842Y-87749500D01*
X243171158Y-87749500D01*
X243171155Y-87749500D01*
X243016510Y-87780261D01*
X243016498Y-87780264D01*
X242870827Y-87840602D01*
X242870814Y-87840609D01*
X242739711Y-87928210D01*
X242739707Y-87928213D01*
X242628213Y-88039707D01*
X242628210Y-88039711D01*
X242540609Y-88170814D01*
X242540602Y-88170827D01*
X242480264Y-88316498D01*
X242480261Y-88316510D01*
X242449500Y-88471153D01*
X233398734Y-88471153D01*
X236829842Y-85040044D01*
X236870067Y-85013167D01*
X236879179Y-85009394D01*
X237010289Y-84921789D01*
X237121789Y-84810289D01*
X237209394Y-84679179D01*
X237269737Y-84533497D01*
X237300500Y-84378842D01*
X237300500Y-84221158D01*
X237300500Y-84221155D01*
X237300499Y-84221153D01*
X237269738Y-84066510D01*
X237269737Y-84066503D01*
X237250812Y-84020814D01*
X237209397Y-83920827D01*
X237209390Y-83920814D01*
X237121789Y-83789711D01*
X237121786Y-83789707D01*
X237010292Y-83678213D01*
X237010288Y-83678210D01*
X236879185Y-83590609D01*
X236879172Y-83590602D01*
X236733501Y-83530264D01*
X236733489Y-83530261D01*
X236578845Y-83499500D01*
X236578842Y-83499500D01*
X236421158Y-83499500D01*
X236421155Y-83499500D01*
X236266510Y-83530261D01*
X236266498Y-83530264D01*
X236120827Y-83590602D01*
X236120814Y-83590609D01*
X235989711Y-83678210D01*
X235989707Y-83678213D01*
X235878213Y-83789707D01*
X235878210Y-83789711D01*
X235790609Y-83920814D01*
X235790602Y-83920827D01*
X235730264Y-84066498D01*
X235730261Y-84066510D01*
X235699500Y-84221153D01*
X235699500Y-84349845D01*
X235679815Y-84416884D01*
X235663181Y-84437526D01*
X232562527Y-87538181D01*
X232501204Y-87571666D01*
X232474846Y-87574500D01*
X230410873Y-87574500D01*
X230343834Y-87554815D01*
X230298079Y-87502011D01*
X230288135Y-87432853D01*
X230306621Y-87384607D01*
X230306521Y-87384554D01*
X230306950Y-87383750D01*
X230307771Y-87381609D01*
X230309390Y-87379185D01*
X230309390Y-87379184D01*
X230309394Y-87379179D01*
X230369737Y-87233497D01*
X230400500Y-87078842D01*
X230400500Y-86921158D01*
X230400500Y-86921155D01*
X230400499Y-86921153D01*
X230380543Y-86820827D01*
X230369737Y-86766503D01*
X230337929Y-86689711D01*
X230309397Y-86620827D01*
X230309390Y-86620814D01*
X230221789Y-86489711D01*
X230221786Y-86489707D01*
X230110292Y-86378213D01*
X230110288Y-86378210D01*
X229979185Y-86290609D01*
X229979172Y-86290602D01*
X229833501Y-86230264D01*
X229833489Y-86230261D01*
X229678845Y-86199500D01*
X229678842Y-86199500D01*
X229521158Y-86199500D01*
X229521155Y-86199500D01*
X229366510Y-86230261D01*
X229366498Y-86230264D01*
X229220827Y-86290602D01*
X229220814Y-86290609D01*
X229089711Y-86378210D01*
X229089707Y-86378213D01*
X228978213Y-86489707D01*
X228978210Y-86489711D01*
X228890609Y-86620814D01*
X228890602Y-86620827D01*
X228830264Y-86766498D01*
X228830261Y-86766510D01*
X228799500Y-86921153D01*
X228799500Y-87078846D01*
X228830261Y-87233489D01*
X228830264Y-87233501D01*
X228890602Y-87379172D01*
X228890609Y-87379185D01*
X228892229Y-87381609D01*
X228892687Y-87383072D01*
X228893479Y-87384554D01*
X228893198Y-87384704D01*
X228913107Y-87448287D01*
X228894622Y-87515667D01*
X228842644Y-87562357D01*
X228789127Y-87574500D01*
X222810453Y-87574500D01*
X222743414Y-87554815D01*
X222722772Y-87538181D01*
X222325793Y-87141203D01*
X222292308Y-87079880D01*
X222291887Y-87077864D01*
X222269737Y-86966503D01*
X222245599Y-86908230D01*
X222209397Y-86820827D01*
X222209390Y-86820814D01*
X222121789Y-86689711D01*
X222121786Y-86689707D01*
X222010292Y-86578213D01*
X222010288Y-86578210D01*
X221879185Y-86490609D01*
X221879172Y-86490602D01*
X221733501Y-86430264D01*
X221733489Y-86430261D01*
X221578845Y-86399500D01*
X221578842Y-86399500D01*
X221421158Y-86399500D01*
X221421155Y-86399500D01*
X221266510Y-86430261D01*
X221266498Y-86430264D01*
X221120827Y-86490602D01*
X221120814Y-86490609D01*
X220989711Y-86578210D01*
X220989707Y-86578213D01*
X220878213Y-86689707D01*
X220878210Y-86689711D01*
X220790609Y-86820814D01*
X220790602Y-86820827D01*
X220730264Y-86966498D01*
X220730261Y-86966510D01*
X220699500Y-87121153D01*
X190500500Y-87121153D01*
X190500500Y-72282135D01*
X191849500Y-72282135D01*
X191849500Y-74077870D01*
X191849501Y-74077876D01*
X191855908Y-74137483D01*
X191906202Y-74272328D01*
X191906206Y-74272335D01*
X191992452Y-74387544D01*
X191992455Y-74387547D01*
X192107664Y-74473793D01*
X192107671Y-74473797D01*
X192242517Y-74524091D01*
X192242516Y-74524091D01*
X192249444Y-74524835D01*
X192302127Y-74530500D01*
X194097872Y-74530499D01*
X194157483Y-74524091D01*
X194292331Y-74473796D01*
X194407546Y-74387546D01*
X194493796Y-74272331D01*
X194544091Y-74137483D01*
X194550500Y-74077873D01*
X194550499Y-72282128D01*
X194544091Y-72222517D01*
X194527801Y-72178842D01*
X194493797Y-72087671D01*
X194493793Y-72087664D01*
X194407547Y-71972455D01*
X194407544Y-71972452D01*
X194292335Y-71886206D01*
X194292328Y-71886202D01*
X194157482Y-71835908D01*
X194157483Y-71835908D01*
X194097883Y-71829501D01*
X194097881Y-71829500D01*
X194097873Y-71829500D01*
X194097864Y-71829500D01*
X192302129Y-71829500D01*
X192302123Y-71829501D01*
X192242516Y-71835908D01*
X192107671Y-71886202D01*
X192107664Y-71886206D01*
X191992455Y-71972452D01*
X191992452Y-71972455D01*
X191906206Y-72087664D01*
X191906202Y-72087671D01*
X191855908Y-72222517D01*
X191849501Y-72282116D01*
X191849501Y-72282123D01*
X191849500Y-72282135D01*
X190500500Y-72282135D01*
X190500500Y-68199000D01*
X190520185Y-68131961D01*
X190572989Y-68086206D01*
X190624500Y-68075000D01*
X197400000Y-68075000D01*
X197425000Y-68050000D01*
X197425000Y-62925000D01*
X190624500Y-62925000D01*
X190557461Y-62905315D01*
X190511706Y-62852511D01*
X190500500Y-62801000D01*
X190500500Y-55003750D01*
X190500726Y-54996263D01*
X190511615Y-54816239D01*
X190518271Y-54706201D01*
X190520076Y-54691340D01*
X190560966Y-54468214D01*
X190571780Y-54409197D01*
X190575364Y-54394663D01*
X190595114Y-54331284D01*
X190660696Y-54120822D01*
X190665998Y-54106841D01*
X190783731Y-53845249D01*
X190790676Y-53832016D01*
X190939080Y-53586526D01*
X190947567Y-53574230D01*
X191124480Y-53348417D01*
X191134395Y-53337226D01*
X191337226Y-53134395D01*
X191348417Y-53124480D01*
X191574230Y-52947567D01*
X191586526Y-52939080D01*
X191832016Y-52790676D01*
X191845249Y-52783731D01*
X192106841Y-52665998D01*
X192120822Y-52660696D01*
X192394668Y-52575362D01*
X192409197Y-52571780D01*
X192691344Y-52520075D01*
X192706201Y-52518271D01*
X192996264Y-52500726D01*
X193003751Y-52500500D01*
X193065892Y-52500500D01*
X205895547Y-52500500D01*
X205962586Y-52520185D01*
G37*
%TD.AperFunction*%
%TA.AperFunction,Conductor*%
G36*
X202667834Y-73633915D02*
G01*
X202723767Y-73675787D01*
X202748184Y-73741251D01*
X202748500Y-73750097D01*
X202748500Y-75462273D01*
X202748499Y-75462291D01*
X202748499Y-75627997D01*
X202748498Y-75627997D01*
X202754100Y-75648902D01*
X202789423Y-75780728D01*
X202800839Y-75800501D01*
X202868477Y-75917655D01*
X202868481Y-75917660D01*
X202987349Y-76036528D01*
X202987355Y-76036533D01*
X203587181Y-76636359D01*
X203620666Y-76697682D01*
X203623500Y-76724040D01*
X203623500Y-78039784D01*
X203623499Y-78039802D01*
X203623499Y-78205508D01*
X203623498Y-78205508D01*
X203662297Y-78350308D01*
X203664423Y-78358239D01*
X203684906Y-78393716D01*
X203732253Y-78475724D01*
X203743479Y-78495168D01*
X203743481Y-78495171D01*
X203862349Y-78614039D01*
X203862355Y-78614044D01*
X206836130Y-81587819D01*
X206869615Y-81649142D01*
X206864631Y-81718834D01*
X206822759Y-81774767D01*
X206757295Y-81799184D01*
X206748449Y-81799500D01*
X205375097Y-81799500D01*
X205308058Y-81779815D01*
X205287416Y-81763181D01*
X201336819Y-77812584D01*
X201303334Y-77751261D01*
X201300500Y-77724903D01*
X201300500Y-74950097D01*
X201320185Y-74883058D01*
X201336819Y-74862416D01*
X202536819Y-73662416D01*
X202598142Y-73628931D01*
X202667834Y-73633915D01*
G37*
%TD.AperFunction*%
%TA.AperFunction,Conductor*%
G36*
X219405703Y-69940739D02*
G01*
X219412181Y-69946771D01*
X220464139Y-70998729D01*
X220464142Y-70998733D01*
X220551267Y-71085858D01*
X220587831Y-71110289D01*
X220653714Y-71154312D01*
X220734207Y-71187652D01*
X220767548Y-71201463D01*
X220815450Y-71210991D01*
X220888391Y-71225499D01*
X220888392Y-71225500D01*
X220888393Y-71225500D01*
X220888394Y-71225500D01*
X221657650Y-71225500D01*
X221724689Y-71245185D01*
X221726541Y-71246398D01*
X221820821Y-71309394D01*
X221820823Y-71309395D01*
X221820827Y-71309397D01*
X221966498Y-71369735D01*
X221966503Y-71369737D01*
X222121153Y-71400499D01*
X222121156Y-71400500D01*
X222121158Y-71400500D01*
X222278844Y-71400500D01*
X222278845Y-71400499D01*
X222433497Y-71369737D01*
X222579179Y-71309394D01*
X222710289Y-71221789D01*
X222721087Y-71210991D01*
X222738819Y-71193260D01*
X222800142Y-71159775D01*
X222869834Y-71164759D01*
X222925767Y-71206631D01*
X222950184Y-71272095D01*
X222950500Y-71280941D01*
X222950500Y-75648902D01*
X222930815Y-75715941D01*
X222914181Y-75736583D01*
X221212181Y-77438583D01*
X221150858Y-77472068D01*
X221081166Y-77467084D01*
X221025233Y-77425212D01*
X221000816Y-77359748D01*
X221000500Y-77350902D01*
X221000500Y-77221155D01*
X221000499Y-77221153D01*
X220990656Y-77171670D01*
X220969737Y-77066503D01*
X220960938Y-77045261D01*
X220909397Y-76920827D01*
X220909394Y-76920822D01*
X220909394Y-76920821D01*
X220908103Y-76918889D01*
X220907737Y-76917723D01*
X220906525Y-76915454D01*
X220906955Y-76915223D01*
X220887226Y-76852214D01*
X220905710Y-76784834D01*
X220908077Y-76781149D01*
X220909394Y-76779179D01*
X220969737Y-76633497D01*
X221000500Y-76478842D01*
X221000500Y-76321158D01*
X221000500Y-76321155D01*
X221000499Y-76321153D01*
X220992569Y-76281286D01*
X220969737Y-76166503D01*
X220969735Y-76166498D01*
X220909397Y-76020827D01*
X220909390Y-76020814D01*
X220821789Y-75889711D01*
X220821786Y-75889707D01*
X220710292Y-75778213D01*
X220710288Y-75778210D01*
X220579185Y-75690609D01*
X220579172Y-75690602D01*
X220433501Y-75630264D01*
X220433489Y-75630261D01*
X220278845Y-75599500D01*
X220278842Y-75599500D01*
X220121158Y-75599500D01*
X220121155Y-75599500D01*
X219966510Y-75630261D01*
X219966498Y-75630264D01*
X219820827Y-75690602D01*
X219820814Y-75690609D01*
X219689711Y-75778210D01*
X219689707Y-75778213D01*
X219578213Y-75889707D01*
X219578210Y-75889711D01*
X219490609Y-76020814D01*
X219490602Y-76020827D01*
X219439061Y-76145261D01*
X219395220Y-76199665D01*
X219328926Y-76221730D01*
X219261227Y-76204451D01*
X219213616Y-76153314D01*
X219200500Y-76097809D01*
X219200500Y-70034452D01*
X219220185Y-69967413D01*
X219272989Y-69921658D01*
X219342147Y-69911714D01*
X219405703Y-69940739D01*
G37*
%TD.AperFunction*%
%TA.AperFunction,Conductor*%
G36*
X206828927Y-71027789D02*
G01*
X206842147Y-71025889D01*
X206862390Y-71035134D01*
X206884129Y-71039905D01*
X206901618Y-71053048D01*
X206905703Y-71054914D01*
X206909588Y-71059037D01*
X206912344Y-71061109D01*
X206918869Y-71067659D01*
X206919480Y-71068716D01*
X207031284Y-71180520D01*
X207031286Y-71180521D01*
X207038417Y-71187652D01*
X207038418Y-71187653D01*
X207763181Y-71912416D01*
X207796666Y-71973739D01*
X207799500Y-72000097D01*
X207799500Y-76599903D01*
X207779815Y-76666942D01*
X207763181Y-76687584D01*
X207485339Y-76965425D01*
X207424016Y-76998910D01*
X207421850Y-76999361D01*
X207266508Y-77030261D01*
X207266498Y-77030264D01*
X207120827Y-77090602D01*
X207120814Y-77090609D01*
X206989711Y-77178210D01*
X206989706Y-77178214D01*
X206937679Y-77230241D01*
X206876356Y-77263725D01*
X206806664Y-77258740D01*
X206762318Y-77230240D01*
X206736817Y-77204739D01*
X206703333Y-77143415D01*
X206700500Y-77117059D01*
X206700500Y-71148627D01*
X206706770Y-71127273D01*
X206708399Y-71105078D01*
X206716422Y-71094400D01*
X206720185Y-71081588D01*
X206737002Y-71067015D01*
X206750374Y-71049222D01*
X206762897Y-71044577D01*
X206772989Y-71035833D01*
X206795017Y-71032665D01*
X206815884Y-71024927D01*
X206828927Y-71027789D01*
G37*
%TD.AperFunction*%
%TA.AperFunction,Conductor*%
G36*
X217918834Y-74968270D02*
G01*
X217974767Y-75010142D01*
X217999184Y-75075606D01*
X217999500Y-75084452D01*
X217999500Y-76999901D01*
X217979815Y-77066940D01*
X217963182Y-77087582D01*
X217887584Y-77163181D01*
X217826261Y-77196666D01*
X217799902Y-77199500D01*
X217269766Y-77199500D01*
X217202727Y-77179815D01*
X217200875Y-77178602D01*
X217069185Y-77090609D01*
X217069172Y-77090602D01*
X216923501Y-77030264D01*
X216923489Y-77030261D01*
X216768845Y-76999500D01*
X216768842Y-76999500D01*
X216749500Y-76999500D01*
X216682461Y-76979815D01*
X216636706Y-76927011D01*
X216625500Y-76875500D01*
X216625500Y-76210452D01*
X216645185Y-76143413D01*
X216661819Y-76122771D01*
X217293988Y-75490602D01*
X217787820Y-74996769D01*
X217849142Y-74963286D01*
X217918834Y-74968270D01*
G37*
%TD.AperFunction*%
%TA.AperFunction,Conductor*%
G36*
X212943834Y-69307914D02*
G01*
X212999767Y-69349786D01*
X213024184Y-69415250D01*
X213024500Y-69424096D01*
X213024500Y-69428846D01*
X213055261Y-69583489D01*
X213055264Y-69583501D01*
X213115602Y-69729172D01*
X213115609Y-69729184D01*
X213178602Y-69823459D01*
X213184252Y-69841505D01*
X213194477Y-69857415D01*
X213198928Y-69888374D01*
X213199480Y-69890136D01*
X213199500Y-69892350D01*
X213199500Y-69974902D01*
X213179815Y-70041941D01*
X213163181Y-70062583D01*
X212694481Y-70531282D01*
X212694480Y-70531284D01*
X212652663Y-70603714D01*
X212615423Y-70668215D01*
X212574499Y-70820943D01*
X212574499Y-70820945D01*
X212574499Y-70989046D01*
X212574500Y-70989059D01*
X212574500Y-75845939D01*
X212574499Y-75845943D01*
X212574499Y-75889707D01*
X212574499Y-75925501D01*
X212554814Y-75992541D01*
X212502009Y-76038295D01*
X212501998Y-76038296D01*
X212450499Y-76049500D01*
X210011669Y-76049500D01*
X210011653Y-76049499D01*
X210004057Y-76049499D01*
X209845943Y-76049499D01*
X209738587Y-76078265D01*
X209693210Y-76090424D01*
X209693209Y-76090425D01*
X209643096Y-76119359D01*
X209643095Y-76119360D01*
X209601434Y-76143413D01*
X209556285Y-76169479D01*
X209556282Y-76169481D01*
X209212181Y-76513583D01*
X209150858Y-76547068D01*
X209081166Y-76542084D01*
X209025233Y-76500212D01*
X209000816Y-76434748D01*
X209000500Y-76425902D01*
X209000500Y-71789060D01*
X209000501Y-71789047D01*
X209000501Y-71620944D01*
X208992131Y-71589707D01*
X208959577Y-71468216D01*
X208914771Y-71390609D01*
X208880524Y-71331290D01*
X208880518Y-71331282D01*
X208461417Y-70912181D01*
X208427932Y-70850858D01*
X208432916Y-70781166D01*
X208474788Y-70725233D01*
X208540252Y-70700816D01*
X208549098Y-70700500D01*
X211113331Y-70700500D01*
X211113347Y-70700501D01*
X211120943Y-70700501D01*
X211279054Y-70700501D01*
X211279057Y-70700501D01*
X211431785Y-70659577D01*
X211481904Y-70630639D01*
X211568716Y-70580520D01*
X211680520Y-70468716D01*
X211680520Y-70468714D01*
X211690728Y-70458507D01*
X211690730Y-70458504D01*
X212812819Y-69336415D01*
X212874142Y-69302930D01*
X212943834Y-69307914D01*
G37*
%TD.AperFunction*%
%TA.AperFunction,Conductor*%
G36*
X213993834Y-71032915D02*
G01*
X214049767Y-71074787D01*
X214074184Y-71140251D01*
X214074500Y-71149097D01*
X214074500Y-75675903D01*
X214068261Y-75697148D01*
X214066682Y-75719237D01*
X214058609Y-75730020D01*
X214054815Y-75742942D01*
X214038081Y-75757441D01*
X214024810Y-75775170D01*
X214012189Y-75779877D01*
X214002011Y-75788697D01*
X213980093Y-75791848D01*
X213959346Y-75799587D01*
X213946185Y-75796724D01*
X213932853Y-75798641D01*
X213912709Y-75789441D01*
X213891073Y-75784735D01*
X213873347Y-75771466D01*
X213869297Y-75769616D01*
X213862819Y-75763584D01*
X213811819Y-75712584D01*
X213778334Y-75651261D01*
X213775500Y-75624903D01*
X213775500Y-71200097D01*
X213795185Y-71133058D01*
X213811819Y-71112416D01*
X213862819Y-71061416D01*
X213924142Y-71027931D01*
X213993834Y-71032915D01*
G37*
%TD.AperFunction*%
%TA.AperFunction,Conductor*%
G36*
X236015583Y-52503363D02*
G01*
X236025668Y-52502097D01*
X236048543Y-52513041D01*
X236072871Y-52520185D01*
X236079525Y-52527864D01*
X236088696Y-52532252D01*
X236102024Y-52553829D01*
X236118626Y-52572989D01*
X236120072Y-52583048D01*
X236125414Y-52591696D01*
X236124961Y-52617047D01*
X236128570Y-52642147D01*
X236124314Y-52653252D01*
X236124166Y-52661554D01*
X236108933Y-52693392D01*
X236090610Y-52720812D01*
X236090602Y-52720827D01*
X236030264Y-52866498D01*
X236030261Y-52866510D01*
X235999500Y-53021153D01*
X235999500Y-53178846D01*
X236030261Y-53333489D01*
X236030264Y-53333501D01*
X236090602Y-53479172D01*
X236090609Y-53479185D01*
X236178602Y-53610874D01*
X236199480Y-53677551D01*
X236199500Y-53679765D01*
X236199500Y-55713330D01*
X236199499Y-55713348D01*
X236199499Y-55879054D01*
X236199498Y-55879054D01*
X236240423Y-56031787D01*
X236240424Y-56031788D01*
X236261071Y-56067549D01*
X236319475Y-56168709D01*
X236319481Y-56168717D01*
X236438349Y-56287585D01*
X236438355Y-56287590D01*
X237963181Y-57812416D01*
X237996666Y-57873739D01*
X237999500Y-57900097D01*
X237999500Y-63999903D01*
X237979815Y-64066942D01*
X237963181Y-64087584D01*
X237187584Y-64863181D01*
X237126261Y-64896666D01*
X237099903Y-64899500D01*
X232986669Y-64899500D01*
X232986653Y-64899499D01*
X232979057Y-64899499D01*
X232820943Y-64899499D01*
X232713794Y-64928210D01*
X232668214Y-64940423D01*
X232650061Y-64950904D01*
X232645195Y-64953714D01*
X232624078Y-64965906D01*
X232531285Y-65019479D01*
X232531282Y-65019481D01*
X231485339Y-66065425D01*
X231424016Y-66098910D01*
X231421850Y-66099361D01*
X231266508Y-66130261D01*
X231266498Y-66130264D01*
X231120827Y-66190602D01*
X231120814Y-66190609D01*
X230989711Y-66278210D01*
X230989707Y-66278213D01*
X230878213Y-66389707D01*
X230878210Y-66389711D01*
X230790609Y-66520814D01*
X230790602Y-66520827D01*
X230730264Y-66666498D01*
X230730261Y-66666510D01*
X230699500Y-66821153D01*
X230699500Y-66978846D01*
X230730261Y-67133489D01*
X230730264Y-67133501D01*
X230790602Y-67279172D01*
X230790609Y-67279185D01*
X230878210Y-67410288D01*
X230878213Y-67410292D01*
X230989707Y-67521786D01*
X230989711Y-67521789D01*
X231120814Y-67609390D01*
X231120827Y-67609397D01*
X231195039Y-67640136D01*
X231266503Y-67669737D01*
X231421153Y-67700499D01*
X231421156Y-67700500D01*
X231421158Y-67700500D01*
X231578844Y-67700500D01*
X231578845Y-67700499D01*
X231733497Y-67669737D01*
X231879179Y-67609394D01*
X232010289Y-67521789D01*
X232121789Y-67410289D01*
X232209394Y-67279179D01*
X232269737Y-67133497D01*
X232298339Y-66989707D01*
X232300638Y-66978150D01*
X232309402Y-66961393D01*
X232313423Y-66942914D01*
X232332167Y-66917875D01*
X232333023Y-66916239D01*
X232334518Y-66914716D01*
X232402681Y-66846553D01*
X232464002Y-66813070D01*
X232533694Y-66818054D01*
X232589627Y-66859926D01*
X232614044Y-66925390D01*
X232611977Y-66958427D01*
X232599500Y-67021153D01*
X232599500Y-67178846D01*
X232630261Y-67333489D01*
X232630264Y-67333501D01*
X232690602Y-67479172D01*
X232690609Y-67479184D01*
X232753602Y-67573459D01*
X232774480Y-67640136D01*
X232774500Y-67642350D01*
X232774500Y-73261611D01*
X232798535Y-73382444D01*
X232798540Y-73382461D01*
X232845684Y-73496278D01*
X232845687Y-73496285D01*
X232845688Y-73496286D01*
X232854444Y-73509390D01*
X232854448Y-73509395D01*
X232854449Y-73509397D01*
X232914141Y-73598732D01*
X232914144Y-73598736D01*
X233005586Y-73690178D01*
X233005608Y-73690198D01*
X233703229Y-74387819D01*
X233736714Y-74449142D01*
X233731730Y-74518834D01*
X233689858Y-74574767D01*
X233624394Y-74599184D01*
X233615548Y-74599500D01*
X225424838Y-74599500D01*
X225357799Y-74579815D01*
X225312044Y-74527011D01*
X225310275Y-74522949D01*
X225309394Y-74520821D01*
X225309391Y-74520816D01*
X225309390Y-74520814D01*
X225221789Y-74389711D01*
X225221786Y-74389707D01*
X225110292Y-74278213D01*
X225110288Y-74278210D01*
X224979185Y-74190609D01*
X224979172Y-74190602D01*
X224833501Y-74130264D01*
X224833491Y-74130261D01*
X224699308Y-74103570D01*
X224637397Y-74071185D01*
X224602823Y-74010469D01*
X224599500Y-73981953D01*
X224599500Y-70686141D01*
X224619185Y-70619102D01*
X224671989Y-70573347D01*
X224741147Y-70563403D01*
X224760454Y-70568700D01*
X224760676Y-70567969D01*
X224766492Y-70569732D01*
X224766503Y-70569737D01*
X224921153Y-70600499D01*
X224921156Y-70600500D01*
X224921158Y-70600500D01*
X225078844Y-70600500D01*
X225078845Y-70600499D01*
X225233497Y-70569737D01*
X225379179Y-70509394D01*
X225510289Y-70421789D01*
X225621789Y-70310289D01*
X225709394Y-70179179D01*
X225712876Y-70170774D01*
X225742797Y-70098537D01*
X225769737Y-70033497D01*
X225800500Y-69878842D01*
X225800500Y-69721158D01*
X225800500Y-69721155D01*
X225800499Y-69721153D01*
X225773117Y-69583497D01*
X225769737Y-69566503D01*
X225726940Y-69463181D01*
X225709397Y-69420827D01*
X225709390Y-69420814D01*
X225621789Y-69289711D01*
X225621786Y-69289707D01*
X225510292Y-69178213D01*
X225510288Y-69178210D01*
X225379185Y-69090609D01*
X225379172Y-69090602D01*
X225233501Y-69030264D01*
X225233489Y-69030261D01*
X225078845Y-68999500D01*
X225078842Y-68999500D01*
X224921158Y-68999500D01*
X224921155Y-68999500D01*
X224766510Y-69030261D01*
X224760676Y-69032031D01*
X224759944Y-69029618D01*
X224701400Y-69035873D01*
X224638942Y-69004555D01*
X224603331Y-68944442D01*
X224599500Y-68913858D01*
X224599500Y-62301096D01*
X224619185Y-62234057D01*
X224635814Y-62213420D01*
X228887819Y-57961414D01*
X228949142Y-57927930D01*
X229018834Y-57932914D01*
X229074767Y-57974786D01*
X229099184Y-58040250D01*
X229099500Y-58049096D01*
X229099500Y-58098541D01*
X229099500Y-58098543D01*
X229099499Y-58098543D01*
X229137947Y-58291829D01*
X229137950Y-58291839D01*
X229213364Y-58473907D01*
X229213371Y-58473920D01*
X229322860Y-58637781D01*
X229322863Y-58637785D01*
X229347397Y-58662319D01*
X229380882Y-58723642D01*
X229375898Y-58793334D01*
X229347397Y-58837681D01*
X229322863Y-58862214D01*
X229322860Y-58862218D01*
X229213371Y-59026079D01*
X229213364Y-59026092D01*
X229137950Y-59208160D01*
X229137947Y-59208170D01*
X229099500Y-59401456D01*
X229099500Y-59401459D01*
X229099500Y-59598541D01*
X229099500Y-59598543D01*
X229099499Y-59598543D01*
X229137947Y-59791829D01*
X229137950Y-59791839D01*
X229213364Y-59973907D01*
X229213371Y-59973920D01*
X229322860Y-60137781D01*
X229322863Y-60137785D01*
X229347397Y-60162319D01*
X229380882Y-60223642D01*
X229375898Y-60293334D01*
X229347397Y-60337681D01*
X229322863Y-60362214D01*
X229322860Y-60362218D01*
X229213371Y-60526079D01*
X229213364Y-60526092D01*
X229137950Y-60708160D01*
X229137947Y-60708170D01*
X229099500Y-60901456D01*
X229099500Y-60901459D01*
X229099500Y-61098541D01*
X229099500Y-61098543D01*
X229099499Y-61098543D01*
X229137947Y-61291829D01*
X229137950Y-61291839D01*
X229213364Y-61473907D01*
X229213371Y-61473920D01*
X229322860Y-61637781D01*
X229322863Y-61637785D01*
X229462214Y-61777136D01*
X229462218Y-61777139D01*
X229626079Y-61886628D01*
X229626092Y-61886635D01*
X229788351Y-61953844D01*
X229808165Y-61962051D01*
X229808169Y-61962051D01*
X229808170Y-61962052D01*
X230001456Y-62000500D01*
X230001459Y-62000500D01*
X230198543Y-62000500D01*
X230380101Y-61964385D01*
X230391835Y-61962051D01*
X230573914Y-61886632D01*
X230731109Y-61781598D01*
X230797787Y-61760720D01*
X230865167Y-61779204D01*
X230868891Y-61781598D01*
X231026079Y-61886628D01*
X231026092Y-61886635D01*
X231188351Y-61953844D01*
X231208165Y-61962051D01*
X231208169Y-61962051D01*
X231208170Y-61962052D01*
X231401456Y-62000500D01*
X231401459Y-62000500D01*
X231598543Y-62000500D01*
X231780101Y-61964385D01*
X231791835Y-61962051D01*
X231973914Y-61886632D01*
X232137782Y-61777139D01*
X232243768Y-61671153D01*
X233574500Y-61671153D01*
X233574500Y-61828846D01*
X233605261Y-61983489D01*
X233605264Y-61983501D01*
X233665602Y-62129172D01*
X233665609Y-62129185D01*
X233753210Y-62260288D01*
X233753213Y-62260292D01*
X233864707Y-62371786D01*
X233864711Y-62371789D01*
X233995814Y-62459390D01*
X233995827Y-62459397D01*
X234141498Y-62519735D01*
X234141503Y-62519737D01*
X234296153Y-62550499D01*
X234296156Y-62550500D01*
X234296158Y-62550500D01*
X234453844Y-62550500D01*
X234453845Y-62550499D01*
X234608497Y-62519737D01*
X234754179Y-62459394D01*
X234885289Y-62371789D01*
X234996789Y-62260289D01*
X235084394Y-62129179D01*
X235144737Y-61983497D01*
X235175500Y-61828842D01*
X235175500Y-61671158D01*
X235175500Y-61671155D01*
X235175499Y-61671153D01*
X235151800Y-61552011D01*
X235144737Y-61516503D01*
X235140248Y-61505666D01*
X235084397Y-61370827D01*
X235084390Y-61370814D01*
X234996789Y-61239711D01*
X234996786Y-61239707D01*
X234885292Y-61128213D01*
X234885288Y-61128210D01*
X234754185Y-61040609D01*
X234754172Y-61040602D01*
X234608501Y-60980264D01*
X234608489Y-60980261D01*
X234453845Y-60949500D01*
X234453842Y-60949500D01*
X234296158Y-60949500D01*
X234296155Y-60949500D01*
X234141510Y-60980261D01*
X234141498Y-60980264D01*
X233995827Y-61040602D01*
X233995814Y-61040609D01*
X233864711Y-61128210D01*
X233864707Y-61128213D01*
X233753213Y-61239707D01*
X233753210Y-61239711D01*
X233665609Y-61370814D01*
X233665602Y-61370827D01*
X233605264Y-61516498D01*
X233605261Y-61516510D01*
X233574500Y-61671153D01*
X232243768Y-61671153D01*
X232277139Y-61637782D01*
X232288477Y-61620814D01*
X232304940Y-61596176D01*
X232304940Y-61596175D01*
X232386628Y-61473920D01*
X232386628Y-61473919D01*
X232386632Y-61473914D01*
X232462051Y-61291835D01*
X232479023Y-61206511D01*
X232500500Y-61098543D01*
X232500500Y-60901456D01*
X232462052Y-60708170D01*
X232462051Y-60708169D01*
X232462051Y-60708165D01*
X232435496Y-60644054D01*
X232386635Y-60526092D01*
X232386628Y-60526079D01*
X232277140Y-60362219D01*
X232275209Y-60360288D01*
X232252601Y-60337680D01*
X232219117Y-60276360D01*
X232224100Y-60206668D01*
X232252601Y-60162319D01*
X232277139Y-60137782D01*
X232386632Y-59973914D01*
X232462051Y-59791835D01*
X232474707Y-59728211D01*
X232500500Y-59598543D01*
X232500500Y-59401456D01*
X232462052Y-59208170D01*
X232462051Y-59208169D01*
X232462051Y-59208165D01*
X232439953Y-59154815D01*
X232386635Y-59026092D01*
X232386628Y-59026079D01*
X232277140Y-58862219D01*
X232273979Y-58859058D01*
X232252601Y-58837680D01*
X232219117Y-58776360D01*
X232224100Y-58706668D01*
X232252601Y-58662319D01*
X232277139Y-58637782D01*
X232386632Y-58473914D01*
X232462051Y-58291835D01*
X232482366Y-58189707D01*
X232486057Y-58171153D01*
X233574500Y-58171153D01*
X233574500Y-58328846D01*
X233605261Y-58483489D01*
X233605264Y-58483501D01*
X233665602Y-58629172D01*
X233665609Y-58629185D01*
X233753210Y-58760288D01*
X233753213Y-58760292D01*
X233864707Y-58871786D01*
X233864711Y-58871789D01*
X233977118Y-58946898D01*
X234021923Y-59000510D01*
X234030630Y-59069835D01*
X234000475Y-59132863D01*
X233977118Y-59153102D01*
X233864711Y-59228210D01*
X233864707Y-59228213D01*
X233753213Y-59339707D01*
X233753210Y-59339711D01*
X233665609Y-59470814D01*
X233665602Y-59470827D01*
X233605264Y-59616498D01*
X233605261Y-59616510D01*
X233574500Y-59771153D01*
X233574500Y-59928846D01*
X233605261Y-60083489D01*
X233605264Y-60083501D01*
X233665602Y-60229172D01*
X233665609Y-60229185D01*
X233753210Y-60360288D01*
X233753213Y-60360292D01*
X233864707Y-60471786D01*
X233864711Y-60471789D01*
X233995814Y-60559390D01*
X233995827Y-60559397D01*
X234138253Y-60618391D01*
X234141503Y-60619737D01*
X234246418Y-60640606D01*
X234296153Y-60650499D01*
X234296156Y-60650500D01*
X234296158Y-60650500D01*
X234453844Y-60650500D01*
X234453845Y-60650499D01*
X234608497Y-60619737D01*
X234721166Y-60573067D01*
X234754172Y-60559397D01*
X234754172Y-60559396D01*
X234754179Y-60559394D01*
X234885289Y-60471789D01*
X234996789Y-60360289D01*
X235084394Y-60229179D01*
X235086688Y-60223642D01*
X235112089Y-60162317D01*
X235144737Y-60083497D01*
X235175500Y-59928842D01*
X235175500Y-59771158D01*
X235175500Y-59771155D01*
X235175499Y-59771153D01*
X235166957Y-59728211D01*
X235144737Y-59616503D01*
X235137917Y-59600038D01*
X235084397Y-59470827D01*
X235084390Y-59470814D01*
X234996789Y-59339711D01*
X234996786Y-59339707D01*
X234885292Y-59228213D01*
X234885288Y-59228210D01*
X234772881Y-59153102D01*
X234728076Y-59099490D01*
X234719369Y-59030165D01*
X234749523Y-58967137D01*
X234772881Y-58946898D01*
X234806981Y-58924112D01*
X234885289Y-58871789D01*
X234996789Y-58760289D01*
X235084394Y-58629179D01*
X235087719Y-58621153D01*
X235144735Y-58483501D01*
X235144737Y-58483497D01*
X235175500Y-58328842D01*
X235175500Y-58171158D01*
X235175500Y-58171155D01*
X235175499Y-58171153D01*
X235157012Y-58078213D01*
X235144737Y-58016503D01*
X235134518Y-57991831D01*
X235084397Y-57870827D01*
X235084390Y-57870814D01*
X234996789Y-57739711D01*
X234996786Y-57739707D01*
X234885292Y-57628213D01*
X234885288Y-57628210D01*
X234754185Y-57540609D01*
X234754172Y-57540602D01*
X234608501Y-57480264D01*
X234608489Y-57480261D01*
X234453845Y-57449500D01*
X234453842Y-57449500D01*
X234296158Y-57449500D01*
X234296155Y-57449500D01*
X234141510Y-57480261D01*
X234141498Y-57480264D01*
X233995827Y-57540602D01*
X233995814Y-57540609D01*
X233864711Y-57628210D01*
X233864707Y-57628213D01*
X233753213Y-57739707D01*
X233753210Y-57739711D01*
X233665609Y-57870814D01*
X233665602Y-57870827D01*
X233605264Y-58016498D01*
X233605261Y-58016510D01*
X233574500Y-58171153D01*
X232486057Y-58171153D01*
X232492080Y-58140874D01*
X232492080Y-58140873D01*
X232500499Y-58098545D01*
X232500500Y-58098543D01*
X232500500Y-57901456D01*
X232462052Y-57708170D01*
X232462051Y-57708169D01*
X232462051Y-57708165D01*
X232445503Y-57668215D01*
X232386635Y-57526092D01*
X232386628Y-57526079D01*
X232277139Y-57362218D01*
X232277136Y-57362214D01*
X232137785Y-57222863D01*
X232137781Y-57222860D01*
X231973920Y-57113371D01*
X231973907Y-57113364D01*
X231791839Y-57037950D01*
X231791829Y-57037947D01*
X231651909Y-57010115D01*
X231642905Y-57005405D01*
X231632772Y-57004681D01*
X231612472Y-56989486D01*
X231589998Y-56977730D01*
X231584969Y-56968899D01*
X231576837Y-56962812D01*
X231567974Y-56939054D01*
X231555424Y-56917014D01*
X231555967Y-56906867D01*
X231552417Y-56897348D01*
X231557806Y-56872569D01*
X231559164Y-56847245D01*
X231565503Y-56837184D01*
X231567267Y-56829075D01*
X231588412Y-56800826D01*
X231588417Y-56800820D01*
X231620521Y-56768716D01*
X231620522Y-56768713D01*
X232555479Y-55833755D01*
X232616800Y-55800272D01*
X232681474Y-55803506D01*
X232723758Y-55817246D01*
X232933714Y-55850500D01*
X232933715Y-55850500D01*
X233146287Y-55850500D01*
X233146288Y-55850500D01*
X233356244Y-55817246D01*
X233558413Y-55751557D01*
X233747817Y-55655051D01*
X233793768Y-55621666D01*
X233919787Y-55530109D01*
X233919789Y-55530106D01*
X233919793Y-55530104D01*
X234070105Y-55379792D01*
X234070107Y-55379788D01*
X234070110Y-55379786D01*
X234195049Y-55207820D01*
X234195048Y-55207820D01*
X234195052Y-55207816D01*
X234291558Y-55018412D01*
X234357247Y-54816243D01*
X234390501Y-54606287D01*
X234390501Y-54393713D01*
X234357247Y-54183757D01*
X234291558Y-53981588D01*
X234195052Y-53792184D01*
X234195050Y-53792181D01*
X234195049Y-53792179D01*
X234070110Y-53620213D01*
X233919787Y-53469890D01*
X233747821Y-53344951D01*
X233558415Y-53248444D01*
X233558414Y-53248443D01*
X233558413Y-53248443D01*
X233356244Y-53182754D01*
X233356242Y-53182753D01*
X233356241Y-53182753D01*
X233194958Y-53157208D01*
X233146288Y-53149500D01*
X232933714Y-53149500D01*
X232885043Y-53157208D01*
X232723761Y-53182753D01*
X232521586Y-53248444D01*
X232332180Y-53344951D01*
X232160214Y-53469890D01*
X232009891Y-53620213D01*
X231884950Y-53792182D01*
X231880485Y-53800946D01*
X231832510Y-53851742D01*
X231764689Y-53868536D01*
X231698554Y-53845998D01*
X231659517Y-53800946D01*
X231655051Y-53792182D01*
X231530110Y-53620213D01*
X231379787Y-53469890D01*
X231207821Y-53344951D01*
X231018415Y-53248444D01*
X231018414Y-53248443D01*
X231018413Y-53248443D01*
X230816244Y-53182754D01*
X230816242Y-53182753D01*
X230816241Y-53182753D01*
X230654958Y-53157208D01*
X230606288Y-53149500D01*
X230393714Y-53149500D01*
X230345043Y-53157208D01*
X230183761Y-53182753D01*
X229981586Y-53248444D01*
X229792180Y-53344951D01*
X229620214Y-53469890D01*
X229469891Y-53620213D01*
X229344952Y-53792179D01*
X229248445Y-53981585D01*
X229182754Y-54183760D01*
X229159389Y-54331282D01*
X229149501Y-54393713D01*
X229149501Y-54606287D01*
X229157209Y-54654957D01*
X229182754Y-54816240D01*
X229182755Y-54816244D01*
X229196492Y-54858523D01*
X229198487Y-54928365D01*
X229166242Y-54984521D01*
X223182286Y-60968478D01*
X223070481Y-61080282D01*
X223070480Y-61080284D01*
X223032572Y-61145943D01*
X222991423Y-61217215D01*
X222950499Y-61369943D01*
X222950499Y-61369945D01*
X222950499Y-61538046D01*
X222950500Y-61538059D01*
X222950500Y-63636129D01*
X222930815Y-63703168D01*
X222878011Y-63748923D01*
X222808853Y-63758867D01*
X222745297Y-63729842D01*
X222719113Y-63698129D01*
X222680522Y-63631287D01*
X222680518Y-63631282D01*
X220946819Y-61897583D01*
X220913334Y-61836260D01*
X220910500Y-61809902D01*
X220910500Y-55889505D01*
X220912883Y-55865314D01*
X220935856Y-55749821D01*
X220968241Y-55687910D01*
X221001176Y-55663529D01*
X221017816Y-55655051D01*
X221189792Y-55530104D01*
X221340104Y-55379792D01*
X221340106Y-55379788D01*
X221340109Y-55379786D01*
X221465048Y-55207820D01*
X221465047Y-55207820D01*
X221465051Y-55207816D01*
X221561557Y-55018412D01*
X221627246Y-54816243D01*
X221660500Y-54606287D01*
X221660500Y-54393713D01*
X221627246Y-54183757D01*
X221561557Y-53981588D01*
X221465051Y-53792184D01*
X221451077Y-53772950D01*
X221377511Y-53671694D01*
X221377508Y-53671691D01*
X221348364Y-53631578D01*
X221340104Y-53620208D01*
X221322031Y-53602135D01*
X224069501Y-53602135D01*
X224069501Y-55397870D01*
X224069502Y-55397876D01*
X224075909Y-55457483D01*
X224126203Y-55592328D01*
X224126207Y-55592335D01*
X224212453Y-55707544D01*
X224212456Y-55707547D01*
X224327665Y-55793793D01*
X224327672Y-55793797D01*
X224462518Y-55844091D01*
X224462517Y-55844091D01*
X224469445Y-55844835D01*
X224522128Y-55850500D01*
X226317873Y-55850499D01*
X226377484Y-55844091D01*
X226512332Y-55793796D01*
X226627547Y-55707546D01*
X226713797Y-55592331D01*
X226764092Y-55457483D01*
X226770501Y-55397873D01*
X226770500Y-53602128D01*
X226764092Y-53542517D01*
X226764090Y-53542512D01*
X226713798Y-53407671D01*
X226713794Y-53407664D01*
X226627548Y-53292455D01*
X226627545Y-53292452D01*
X226512336Y-53206206D01*
X226512329Y-53206202D01*
X226377483Y-53155908D01*
X226377484Y-53155908D01*
X226317884Y-53149501D01*
X226317882Y-53149500D01*
X226317874Y-53149500D01*
X226317865Y-53149500D01*
X224522130Y-53149500D01*
X224522124Y-53149501D01*
X224462517Y-53155908D01*
X224327672Y-53206202D01*
X224327665Y-53206206D01*
X224212456Y-53292452D01*
X224212453Y-53292455D01*
X224126207Y-53407664D01*
X224126203Y-53407671D01*
X224075909Y-53542517D01*
X224071108Y-53587181D01*
X224069502Y-53602123D01*
X224069501Y-53602135D01*
X221322031Y-53602135D01*
X221189792Y-53469896D01*
X221189786Y-53469890D01*
X221017820Y-53344951D01*
X220828414Y-53248444D01*
X220828413Y-53248443D01*
X220828412Y-53248443D01*
X220626243Y-53182754D01*
X220626241Y-53182753D01*
X220626240Y-53182753D01*
X220464957Y-53157208D01*
X220416287Y-53149500D01*
X220203713Y-53149500D01*
X220155042Y-53157208D01*
X219993760Y-53182753D01*
X219791585Y-53248444D01*
X219602179Y-53344951D01*
X219430213Y-53469890D01*
X219279890Y-53620213D01*
X219154949Y-53792182D01*
X219150484Y-53800946D01*
X219102509Y-53851742D01*
X219034688Y-53868536D01*
X218968553Y-53845998D01*
X218929516Y-53800946D01*
X218925050Y-53792182D01*
X218800109Y-53620213D01*
X218649786Y-53469890D01*
X218477820Y-53344951D01*
X218288414Y-53248444D01*
X218288413Y-53248443D01*
X218288412Y-53248443D01*
X218086243Y-53182754D01*
X218086241Y-53182753D01*
X218086240Y-53182753D01*
X217924957Y-53157208D01*
X217876287Y-53149500D01*
X217663713Y-53149500D01*
X217612755Y-53157571D01*
X217453755Y-53182754D01*
X217438157Y-53187822D01*
X217368316Y-53189816D01*
X217312160Y-53157571D01*
X216866770Y-52712181D01*
X216833285Y-52650858D01*
X216838269Y-52581166D01*
X216880141Y-52525233D01*
X216945605Y-52500816D01*
X216954451Y-52500500D01*
X236005832Y-52500500D01*
X236015583Y-52503363D01*
G37*
%TD.AperFunction*%
%TA.AperFunction,Conductor*%
G36*
X239272871Y-52520185D02*
G01*
X239318626Y-52572989D01*
X239328570Y-52642147D01*
X239308933Y-52693392D01*
X239290610Y-52720812D01*
X239290602Y-52720827D01*
X239230264Y-52866498D01*
X239230261Y-52866510D01*
X239199500Y-53021153D01*
X239199500Y-53178846D01*
X239230261Y-53333489D01*
X239230264Y-53333501D01*
X239290602Y-53479172D01*
X239290609Y-53479185D01*
X239378210Y-53610288D01*
X239378213Y-53610292D01*
X239489707Y-53721786D01*
X239489711Y-53721789D01*
X239620814Y-53809390D01*
X239620827Y-53809397D01*
X239766498Y-53869735D01*
X239766503Y-53869737D01*
X239831147Y-53882595D01*
X239921849Y-53900638D01*
X239983760Y-53933023D01*
X239985339Y-53934574D01*
X240963181Y-54912416D01*
X240996666Y-54973739D01*
X240999500Y-55000097D01*
X240999500Y-63699902D01*
X240979815Y-63766941D01*
X240963181Y-63787583D01*
X239019481Y-65731282D01*
X239019479Y-65731285D01*
X239004407Y-65757390D01*
X238989335Y-65783497D01*
X238940423Y-65868215D01*
X238899499Y-66020943D01*
X238899499Y-66020945D01*
X238899499Y-66189046D01*
X238899500Y-66189059D01*
X238899500Y-71699903D01*
X238879815Y-71766942D01*
X238863181Y-71787584D01*
X236087584Y-74563181D01*
X236026261Y-74596666D01*
X235999903Y-74599500D01*
X235524500Y-74599500D01*
X235457461Y-74579815D01*
X235411706Y-74527011D01*
X235400500Y-74475500D01*
X235400500Y-74321155D01*
X235400499Y-74321153D01*
X235390787Y-74272328D01*
X235369737Y-74166503D01*
X235357716Y-74137482D01*
X235309397Y-74020827D01*
X235309390Y-74020814D01*
X235221789Y-73889711D01*
X235221786Y-73889707D01*
X235110292Y-73778213D01*
X235110288Y-73778210D01*
X234979185Y-73690609D01*
X234979172Y-73690602D01*
X234833501Y-73630264D01*
X234833489Y-73630261D01*
X234722285Y-73608141D01*
X234660374Y-73575756D01*
X234658795Y-73574205D01*
X234061819Y-72977229D01*
X234028334Y-72915906D01*
X234025500Y-72889548D01*
X234025500Y-67642350D01*
X234045185Y-67575311D01*
X234046398Y-67573459D01*
X234057672Y-67556586D01*
X234109394Y-67479179D01*
X234169737Y-67333497D01*
X234200500Y-67178842D01*
X234200500Y-67021158D01*
X234200500Y-67021155D01*
X234200499Y-67021153D01*
X234194244Y-66989707D01*
X234169737Y-66866503D01*
X234149669Y-66818054D01*
X234109397Y-66720827D01*
X234109390Y-66720814D01*
X234021789Y-66589711D01*
X234021786Y-66589707D01*
X233910292Y-66478213D01*
X233910288Y-66478210D01*
X233779185Y-66390609D01*
X233779172Y-66390602D01*
X233654738Y-66339061D01*
X233600334Y-66295221D01*
X233578269Y-66228926D01*
X233595548Y-66161227D01*
X233646685Y-66113616D01*
X233702190Y-66100500D01*
X237313331Y-66100500D01*
X237313347Y-66100501D01*
X237320943Y-66100501D01*
X237479054Y-66100501D01*
X237479057Y-66100501D01*
X237631785Y-66059577D01*
X237681904Y-66030639D01*
X237768716Y-65980520D01*
X237880520Y-65868716D01*
X237880520Y-65868714D01*
X237890728Y-65858507D01*
X237890730Y-65858504D01*
X238958506Y-64790728D01*
X238958511Y-64790724D01*
X238968714Y-64780520D01*
X238968716Y-64780520D01*
X239080520Y-64668716D01*
X239143531Y-64559577D01*
X239159577Y-64531785D01*
X239200500Y-64379058D01*
X239200500Y-64220943D01*
X239200500Y-57520943D01*
X239200108Y-57519481D01*
X239172515Y-57416503D01*
X239159577Y-57368216D01*
X239159576Y-57368214D01*
X239159576Y-57368213D01*
X239080524Y-57231290D01*
X239080521Y-57231286D01*
X239080520Y-57231284D01*
X238968716Y-57119480D01*
X238968715Y-57119479D01*
X238964385Y-57115149D01*
X238964374Y-57115139D01*
X237436819Y-55587584D01*
X237403334Y-55526261D01*
X237400500Y-55499903D01*
X237400500Y-53679765D01*
X237420185Y-53612726D01*
X237421398Y-53610874D01*
X237445892Y-53574217D01*
X237509394Y-53479179D01*
X237569737Y-53333497D01*
X237600500Y-53178842D01*
X237600500Y-53021158D01*
X237600500Y-53021155D01*
X237600499Y-53021153D01*
X237584172Y-52939071D01*
X237569737Y-52866503D01*
X237538332Y-52790683D01*
X237509397Y-52720827D01*
X237509389Y-52720812D01*
X237491067Y-52693392D01*
X237470188Y-52626715D01*
X237488672Y-52559334D01*
X237540650Y-52512644D01*
X237594168Y-52500500D01*
X239205832Y-52500500D01*
X239272871Y-52520185D01*
G37*
%TD.AperFunction*%
%TA.AperFunction,Conductor*%
G36*
X200855703Y-61630384D02*
G01*
X200862181Y-61636416D01*
X201963181Y-62737416D01*
X201996666Y-62798739D01*
X201999500Y-62825097D01*
X201999500Y-72449902D01*
X201979815Y-72516941D01*
X201963181Y-72537583D01*
X200462181Y-74038583D01*
X200442744Y-74049195D01*
X200426011Y-74063696D01*
X200412679Y-74065612D01*
X200400858Y-74072068D01*
X200378771Y-74070488D01*
X200356853Y-74073640D01*
X200344601Y-74068044D01*
X200331166Y-74067084D01*
X200313439Y-74053813D01*
X200293297Y-74044615D01*
X200286014Y-74033283D01*
X200275233Y-74025212D01*
X200267495Y-74004466D01*
X200255523Y-73985837D01*
X200252371Y-73963918D01*
X200250816Y-73959748D01*
X200250500Y-73950902D01*
X200250500Y-73800096D01*
X200270185Y-73733057D01*
X200286810Y-73712424D01*
X200421009Y-73578224D01*
X200421014Y-73578221D01*
X200431214Y-73568020D01*
X200431216Y-73568020D01*
X200543020Y-73456216D01*
X200622077Y-73319285D01*
X200663001Y-73166558D01*
X200663001Y-73008443D01*
X200654725Y-72977555D01*
X200650500Y-72945463D01*
X200650500Y-61724097D01*
X200670185Y-61657058D01*
X200722989Y-61611303D01*
X200792147Y-61601359D01*
X200855703Y-61630384D01*
G37*
%TD.AperFunction*%
%TA.AperFunction,Conductor*%
G36*
X219652539Y-56895185D02*
G01*
X219698294Y-56947989D01*
X219709500Y-56999500D01*
X219709500Y-62023330D01*
X219709499Y-62023348D01*
X219709499Y-62189054D01*
X219709498Y-62189054D01*
X219750423Y-62341787D01*
X219750424Y-62341788D01*
X219758351Y-62355517D01*
X219758353Y-62355520D01*
X219829477Y-62478712D01*
X219829481Y-62478717D01*
X219948352Y-62597588D01*
X219948355Y-62597590D01*
X221563181Y-64212416D01*
X221596666Y-64273739D01*
X221599500Y-64300097D01*
X221599500Y-69020234D01*
X221579815Y-69087273D01*
X221578602Y-69089125D01*
X221490609Y-69220814D01*
X221490602Y-69220827D01*
X221430264Y-69366498D01*
X221430261Y-69366510D01*
X221399500Y-69521153D01*
X221399500Y-69521158D01*
X221399500Y-69678842D01*
X221399500Y-69678844D01*
X221399499Y-69678844D01*
X221428833Y-69826308D01*
X221426955Y-69847292D01*
X221429954Y-69868147D01*
X221423903Y-69881394D01*
X221422606Y-69895900D01*
X221409681Y-69912537D01*
X221400929Y-69931703D01*
X221388676Y-69939577D01*
X221379743Y-69951077D01*
X221359876Y-69958085D01*
X221342151Y-69969477D01*
X221317568Y-69973011D01*
X221313854Y-69974322D01*
X221307216Y-69974500D01*
X221260452Y-69974500D01*
X221193413Y-69954815D01*
X221172771Y-69938181D01*
X219761819Y-68527229D01*
X219728334Y-68465906D01*
X219725500Y-68439548D01*
X219725500Y-63238389D01*
X219722545Y-63223537D01*
X219722543Y-63223531D01*
X219701463Y-63117548D01*
X219654311Y-63003714D01*
X219596737Y-62917549D01*
X219588563Y-62905315D01*
X219585860Y-62901269D01*
X219498732Y-62814141D01*
X217927218Y-61242627D01*
X216352672Y-59668082D01*
X216337060Y-59639490D01*
X216320318Y-59611506D01*
X216320399Y-59608977D01*
X216319188Y-59606760D01*
X216321513Y-59574247D01*
X216322558Y-59541672D01*
X216323991Y-59539591D01*
X216324172Y-59537068D01*
X216343713Y-59510964D01*
X216362197Y-59484135D01*
X216365087Y-59482412D01*
X216366044Y-59481135D01*
X216392484Y-59466015D01*
X216392602Y-59465965D01*
X216529179Y-59409394D01*
X216531519Y-59407830D01*
X216539630Y-59404436D01*
X216568755Y-59401197D01*
X216597447Y-59395223D01*
X216604323Y-59397242D01*
X216609072Y-59396714D01*
X216618569Y-59401424D01*
X216639929Y-59407696D01*
X216640192Y-59407063D01*
X216782517Y-59466015D01*
X216791503Y-59469737D01*
X216946153Y-59500499D01*
X216946156Y-59500500D01*
X216946158Y-59500500D01*
X217103844Y-59500500D01*
X217103845Y-59500499D01*
X217258497Y-59469737D01*
X217314120Y-59446697D01*
X217409808Y-59407063D01*
X217410266Y-59408170D01*
X217472447Y-59395223D01*
X217514929Y-59407696D01*
X217515192Y-59407063D01*
X217657517Y-59466015D01*
X217666503Y-59469737D01*
X217821153Y-59500499D01*
X217821156Y-59500500D01*
X217821158Y-59500500D01*
X217978844Y-59500500D01*
X217978845Y-59500499D01*
X218133497Y-59469737D01*
X218279179Y-59409394D01*
X218410289Y-59321789D01*
X218521789Y-59210289D01*
X218609394Y-59079179D01*
X218669737Y-58933497D01*
X218688796Y-58837681D01*
X218700500Y-58778844D01*
X218700500Y-58621155D01*
X218700499Y-58621153D01*
X218673117Y-58483497D01*
X218669737Y-58466503D01*
X218669002Y-58464729D01*
X218609397Y-58320827D01*
X218609390Y-58320814D01*
X218521789Y-58189711D01*
X218521786Y-58189707D01*
X218410292Y-58078213D01*
X218410288Y-58078210D01*
X218279185Y-57990609D01*
X218279172Y-57990602D01*
X218133501Y-57930264D01*
X218133489Y-57930261D01*
X217978845Y-57899500D01*
X217978842Y-57899500D01*
X217821158Y-57899500D01*
X217821155Y-57899500D01*
X217666510Y-57930261D01*
X217666498Y-57930264D01*
X217515193Y-57992937D01*
X217514734Y-57991831D01*
X217452544Y-58004777D01*
X217410068Y-57992304D01*
X217409807Y-57992937D01*
X217258501Y-57930264D01*
X217258489Y-57930261D01*
X217103845Y-57899500D01*
X217103842Y-57899500D01*
X216946158Y-57899500D01*
X216946155Y-57899500D01*
X216791510Y-57930261D01*
X216791498Y-57930264D01*
X216640193Y-57992937D01*
X216639734Y-57991831D01*
X216577544Y-58004777D01*
X216535068Y-57992304D01*
X216534807Y-57992937D01*
X216383501Y-57930264D01*
X216383489Y-57930261D01*
X216228845Y-57899500D01*
X216228842Y-57899500D01*
X216071158Y-57899500D01*
X216071155Y-57899500D01*
X215916510Y-57930261D01*
X215916498Y-57930264D01*
X215770827Y-57990602D01*
X215770814Y-57990609D01*
X215639711Y-58078210D01*
X215639707Y-58078213D01*
X215528213Y-58189707D01*
X215528210Y-58189711D01*
X215440609Y-58320814D01*
X215440602Y-58320827D01*
X215380264Y-58466498D01*
X215380261Y-58466510D01*
X215349500Y-58621153D01*
X215349500Y-58778844D01*
X215380261Y-58933489D01*
X215380264Y-58933501D01*
X215409071Y-59003048D01*
X215416540Y-59072518D01*
X215385264Y-59134997D01*
X215325175Y-59170648D01*
X215294510Y-59174500D01*
X212592642Y-59174500D01*
X212525603Y-59154815D01*
X212504961Y-59138181D01*
X212018457Y-58651677D01*
X211984972Y-58590354D01*
X211989956Y-58520662D01*
X212031828Y-58464729D01*
X212097292Y-58440312D01*
X212130330Y-58442379D01*
X212171155Y-58450500D01*
X212171158Y-58450500D01*
X212328844Y-58450500D01*
X212328845Y-58450499D01*
X212483497Y-58419737D01*
X212629179Y-58359394D01*
X212760289Y-58271789D01*
X212871789Y-58160289D01*
X212959394Y-58029179D01*
X213019737Y-57883497D01*
X213050500Y-57728842D01*
X213050500Y-57571158D01*
X213050500Y-57571155D01*
X213050499Y-57571153D01*
X213044422Y-57540602D01*
X213019737Y-57416503D01*
X213019735Y-57416498D01*
X212959397Y-57270827D01*
X212959390Y-57270814D01*
X212871789Y-57139711D01*
X212871786Y-57139707D01*
X212819260Y-57087181D01*
X212785775Y-57025858D01*
X212790759Y-56956166D01*
X212832631Y-56900233D01*
X212898095Y-56875816D01*
X212906941Y-56875500D01*
X219585500Y-56875500D01*
X219652539Y-56895185D01*
G37*
%TD.AperFunction*%
%TA.AperFunction,Conductor*%
G36*
X211752239Y-61203676D02*
G01*
X211781634Y-61203327D01*
X211787074Y-61206511D01*
X211792585Y-61206960D01*
X211808128Y-61218835D01*
X211835795Y-61235030D01*
X211965425Y-61364660D01*
X211998910Y-61425983D01*
X211999361Y-61428149D01*
X212030261Y-61583491D01*
X212030264Y-61583501D01*
X212085500Y-61716853D01*
X212092969Y-61786322D01*
X212074043Y-61833193D01*
X212065610Y-61845814D01*
X212065602Y-61845828D01*
X212005264Y-61991498D01*
X212005261Y-61991510D01*
X211974500Y-62146153D01*
X211974500Y-62303846D01*
X212005261Y-62458489D01*
X212005264Y-62458501D01*
X212065602Y-62604172D01*
X212065609Y-62604185D01*
X212153210Y-62735288D01*
X212153213Y-62735292D01*
X212264707Y-62846786D01*
X212264711Y-62846789D01*
X212395814Y-62934390D01*
X212395827Y-62934397D01*
X212541498Y-62994735D01*
X212541503Y-62994737D01*
X212696153Y-63025499D01*
X212696156Y-63025500D01*
X212696158Y-63025500D01*
X212853844Y-63025500D01*
X212951308Y-63006113D01*
X213020900Y-63012340D01*
X213076077Y-63055203D01*
X213099322Y-63121093D01*
X213099500Y-63127730D01*
X213099500Y-63278846D01*
X213130261Y-63433489D01*
X213130264Y-63433501D01*
X213190602Y-63579172D01*
X213190609Y-63579185D01*
X213278210Y-63710288D01*
X213278213Y-63710292D01*
X213389707Y-63821786D01*
X213389711Y-63821789D01*
X213520814Y-63909390D01*
X213520818Y-63909392D01*
X213520821Y-63909394D01*
X213666253Y-63969633D01*
X213720652Y-64013471D01*
X213742718Y-64079765D01*
X213740415Y-64108380D01*
X213732389Y-64148735D01*
X213724500Y-64188395D01*
X213724500Y-65311611D01*
X213748535Y-65432444D01*
X213748540Y-65432461D01*
X213795685Y-65546281D01*
X213795687Y-65546284D01*
X213813552Y-65573021D01*
X213813555Y-65573024D01*
X213817586Y-65579057D01*
X213864142Y-65648733D01*
X213951267Y-65735858D01*
X213951270Y-65735860D01*
X213959084Y-65743674D01*
X216138181Y-67922771D01*
X216171666Y-67984094D01*
X216174500Y-68010452D01*
X216174500Y-68425902D01*
X216154815Y-68492941D01*
X216102011Y-68538696D01*
X216032853Y-68548640D01*
X215969297Y-68519615D01*
X215962819Y-68513583D01*
X215487590Y-68038355D01*
X215487588Y-68038352D01*
X215368717Y-67919481D01*
X215368716Y-67919480D01*
X215268476Y-67861607D01*
X215268475Y-67861606D01*
X215231783Y-67840422D01*
X215175881Y-67825443D01*
X215079057Y-67799499D01*
X214920943Y-67799499D01*
X214913347Y-67799499D01*
X214913331Y-67799500D01*
X212820943Y-67799500D01*
X212668214Y-67840423D01*
X212631524Y-67861607D01*
X212631523Y-67861607D01*
X212531287Y-67919477D01*
X212531282Y-67919481D01*
X212466670Y-67984094D01*
X212419480Y-68031284D01*
X212419478Y-68031286D01*
X211699500Y-68751265D01*
X210987584Y-69463181D01*
X210926261Y-69496666D01*
X210899903Y-69499500D01*
X209066259Y-69499500D01*
X208999220Y-69479815D01*
X208953465Y-69427011D01*
X208951698Y-69422952D01*
X208909397Y-69320827D01*
X208909390Y-69320814D01*
X208821789Y-69189711D01*
X208821786Y-69189707D01*
X208710292Y-69078213D01*
X208710288Y-69078210D01*
X208579185Y-68990609D01*
X208579172Y-68990602D01*
X208433501Y-68930264D01*
X208433489Y-68930261D01*
X208278845Y-68899500D01*
X208278842Y-68899500D01*
X208121158Y-68899500D01*
X208084003Y-68906890D01*
X208076099Y-68906182D01*
X208068665Y-68908956D01*
X208041795Y-68903112D01*
X208014412Y-68900661D01*
X208006407Y-68895415D01*
X208000392Y-68894107D01*
X207972137Y-68872957D01*
X207960444Y-68861265D01*
X207940733Y-68835579D01*
X207880520Y-68731284D01*
X207768716Y-68619480D01*
X207768715Y-68619479D01*
X207764385Y-68615149D01*
X207764374Y-68615139D01*
X207535351Y-68386116D01*
X207501866Y-68324793D01*
X207501515Y-68285065D01*
X207499903Y-68284907D01*
X207500500Y-68278844D01*
X207500500Y-68121155D01*
X207500499Y-68121153D01*
X207469737Y-67966503D01*
X207469735Y-67966498D01*
X207409397Y-67820827D01*
X207409390Y-67820814D01*
X207321789Y-67689711D01*
X207321786Y-67689707D01*
X207210292Y-67578213D01*
X207210288Y-67578210D01*
X207079185Y-67490609D01*
X207079172Y-67490602D01*
X206960745Y-67441549D01*
X206906341Y-67397708D01*
X206886580Y-67351182D01*
X206869737Y-67266503D01*
X206833427Y-67178842D01*
X206809397Y-67120827D01*
X206809390Y-67120814D01*
X206721789Y-66989711D01*
X206721786Y-66989707D01*
X206610292Y-66878213D01*
X206610288Y-66878210D01*
X206479185Y-66790609D01*
X206479172Y-66790602D01*
X206333501Y-66730264D01*
X206333489Y-66730261D01*
X206178845Y-66699500D01*
X206178842Y-66699500D01*
X206149500Y-66699500D01*
X206082461Y-66679815D01*
X206036706Y-66627011D01*
X206025500Y-66575500D01*
X206025500Y-65210452D01*
X206045185Y-65143413D01*
X206061819Y-65122771D01*
X207197771Y-63986819D01*
X207259094Y-63953334D01*
X207285452Y-63950500D01*
X207328844Y-63950500D01*
X207328845Y-63950499D01*
X207483497Y-63919737D01*
X207629179Y-63859394D01*
X207760289Y-63771789D01*
X207871789Y-63660289D01*
X207959394Y-63529179D01*
X208019737Y-63383497D01*
X208050500Y-63228842D01*
X208050500Y-63071158D01*
X208050500Y-63071155D01*
X208050499Y-63071153D01*
X208038800Y-63012340D01*
X208019737Y-62916503D01*
X207990861Y-62846789D01*
X207959397Y-62770827D01*
X207959390Y-62770814D01*
X207909691Y-62696435D01*
X207888813Y-62629758D01*
X207907297Y-62562378D01*
X207943902Y-62524442D01*
X207985289Y-62496789D01*
X208096789Y-62385289D01*
X208184394Y-62254179D01*
X208244737Y-62108497D01*
X208275500Y-61953842D01*
X208275500Y-61796158D01*
X208275500Y-61796155D01*
X208275499Y-61796153D01*
X208271716Y-61777136D01*
X208244737Y-61641503D01*
X208190069Y-61509523D01*
X208189655Y-61505666D01*
X208187408Y-61502504D01*
X208185950Y-61471205D01*
X208182601Y-61440055D01*
X208184337Y-61436585D01*
X208184157Y-61432710D01*
X208199853Y-61405589D01*
X208213876Y-61377576D01*
X208217212Y-61375596D01*
X208219156Y-61372238D01*
X208247023Y-61357908D01*
X208273965Y-61341924D01*
X208277841Y-61342062D01*
X208281293Y-61340288D01*
X208312486Y-61343299D01*
X208343790Y-61344418D01*
X208348094Y-61346737D01*
X208350839Y-61347003D01*
X208360846Y-61353611D01*
X208381386Y-61364683D01*
X208387139Y-61369217D01*
X208439711Y-61421789D01*
X208532574Y-61483838D01*
X208536397Y-61486851D01*
X208537660Y-61488629D01*
X208547323Y-61496559D01*
X208588349Y-61537585D01*
X208588355Y-61537590D01*
X209015139Y-61964374D01*
X209015149Y-61964385D01*
X209019479Y-61968715D01*
X209019480Y-61968716D01*
X209131284Y-62080520D01*
X209131286Y-62080521D01*
X209131290Y-62080524D01*
X209238629Y-62142495D01*
X209268216Y-62159577D01*
X209378237Y-62189057D01*
X209378236Y-62189057D01*
X209389679Y-62192122D01*
X209420942Y-62200500D01*
X209420943Y-62200500D01*
X210436313Y-62200500D01*
X210468406Y-62204725D01*
X210481312Y-62208183D01*
X210545943Y-62225501D01*
X210545945Y-62225501D01*
X210704054Y-62225501D01*
X210704057Y-62225501D01*
X210856785Y-62184577D01*
X210993716Y-62105519D01*
X211383509Y-61715724D01*
X211383514Y-61715721D01*
X211393714Y-61705520D01*
X211393716Y-61705520D01*
X211505520Y-61593716D01*
X211584577Y-61456784D01*
X211624021Y-61309576D01*
X211625500Y-61304058D01*
X211625500Y-61302678D01*
X211627212Y-61295166D01*
X211641550Y-61269509D01*
X211653443Y-61242627D01*
X211658400Y-61239357D01*
X211661297Y-61234174D01*
X211687231Y-61220341D01*
X211711769Y-61204157D01*
X211717706Y-61204086D01*
X211722946Y-61201292D01*
X211752239Y-61203676D01*
G37*
%TD.AperFunction*%
%TA.AperFunction,Conductor*%
G36*
X204734996Y-66044024D02*
G01*
X204770648Y-66104113D01*
X204774500Y-66134779D01*
X204774500Y-67489547D01*
X204754815Y-67556586D01*
X204738181Y-67577228D01*
X204494595Y-67820814D01*
X204251270Y-68064139D01*
X204251267Y-68064142D01*
X204194256Y-68121153D01*
X204161181Y-68154228D01*
X204099857Y-68187712D01*
X204030166Y-68182728D01*
X203974232Y-68140856D01*
X203949816Y-68075391D01*
X203949500Y-68066546D01*
X203949500Y-66207504D01*
X203969185Y-66140465D01*
X204021989Y-66094710D01*
X204091147Y-66084766D01*
X204097691Y-66085887D01*
X204171153Y-66100499D01*
X204171156Y-66100500D01*
X204171158Y-66100500D01*
X204328844Y-66100500D01*
X204328845Y-66100499D01*
X204483497Y-66069737D01*
X204550631Y-66041929D01*
X204603048Y-66020218D01*
X204672517Y-66012749D01*
X204734996Y-66044024D01*
G37*
%TD.AperFunction*%
%TA.AperFunction,Conductor*%
G36*
X215776586Y-53395185D02*
G01*
X215797228Y-53411819D01*
X216427571Y-54042162D01*
X216461056Y-54103485D01*
X216457821Y-54168160D01*
X216452754Y-54183753D01*
X216429388Y-54331282D01*
X216419500Y-54393713D01*
X216419500Y-54606287D01*
X216429534Y-54669644D01*
X216452753Y-54816239D01*
X216452753Y-54816241D01*
X216452754Y-54816243D01*
X216511246Y-54996263D01*
X216518444Y-55018414D01*
X216614951Y-55207820D01*
X216739890Y-55379786D01*
X216772923Y-55412819D01*
X216806408Y-55474142D01*
X216801424Y-55543834D01*
X216759552Y-55599767D01*
X216694088Y-55624184D01*
X216685242Y-55624500D01*
X214150391Y-55624500D01*
X214083352Y-55604815D01*
X214037597Y-55552011D01*
X214027653Y-55482853D01*
X214033633Y-55459422D01*
X214034091Y-55457483D01*
X214034091Y-55457482D01*
X214040500Y-55397873D01*
X214040499Y-53602128D01*
X214034091Y-53542517D01*
X214034090Y-53542515D01*
X214034090Y-53542512D01*
X214032308Y-53534969D01*
X214033624Y-53534657D01*
X214029225Y-53473142D01*
X214062709Y-53411819D01*
X214124032Y-53378334D01*
X214150391Y-53375500D01*
X215709547Y-53375500D01*
X215776586Y-53395185D01*
G37*
%TD.AperFunction*%
%TD*%
M02*
