%TF.GenerationSoftware,KiCad,Pcbnew,9.0.3*%
%TF.CreationDate,2025-07-23T13:55:40+02:00*%
%TF.ProjectId,LoRa_Project,4c6f5261-5f50-4726-9f6a-6563742e6b69,rev?*%
%TF.SameCoordinates,Original*%
%TF.FileFunction,Paste,Top*%
%TF.FilePolarity,Positive*%
%FSLAX46Y46*%
G04 Gerber Fmt 4.6, Leading zero omitted, Abs format (unit mm)*
G04 Created by KiCad (PCBNEW 9.0.3) date 2025-07-23 13:55:40*
%MOMM*%
%LPD*%
G01*
G04 APERTURE LIST*
G04 Aperture macros list*
%AMRoundRect*
0 Rectangle with rounded corners*
0 $1 Rounding radius*
0 $2 $3 $4 $5 $6 $7 $8 $9 X,Y pos of 4 corners*
0 Add a 4 corners polygon primitive as box body*
4,1,4,$2,$3,$4,$5,$6,$7,$8,$9,$2,$3,0*
0 Add four circle primitives for the rounded corners*
1,1,$1+$1,$2,$3*
1,1,$1+$1,$4,$5*
1,1,$1+$1,$6,$7*
1,1,$1+$1,$8,$9*
0 Add four rect primitives between the rounded corners*
20,1,$1+$1,$2,$3,$4,$5,0*
20,1,$1+$1,$4,$5,$6,$7,0*
20,1,$1+$1,$6,$7,$8,$9,0*
20,1,$1+$1,$8,$9,$2,$3,0*%
G04 Aperture macros list end*
%ADD10RoundRect,0.147500X-0.172500X0.147500X-0.172500X-0.147500X0.172500X-0.147500X0.172500X0.147500X0*%
%ADD11RoundRect,0.150000X0.150000X-0.512500X0.150000X0.512500X-0.150000X0.512500X-0.150000X-0.512500X0*%
%ADD12RoundRect,0.100000X-0.300000X-0.450000X0.300000X-0.450000X0.300000X0.450000X-0.300000X0.450000X0*%
%ADD13RoundRect,0.225000X-0.225000X-0.250000X0.225000X-0.250000X0.225000X0.250000X-0.225000X0.250000X0*%
%ADD14RoundRect,0.218750X-0.218750X-0.256250X0.218750X-0.256250X0.218750X0.256250X-0.218750X0.256250X0*%
%ADD15RoundRect,0.147500X-0.147500X-0.172500X0.147500X-0.172500X0.147500X0.172500X-0.147500X0.172500X0*%
%ADD16RoundRect,0.243750X-0.456250X0.243750X-0.456250X-0.243750X0.456250X-0.243750X0.456250X0.243750X0*%
%ADD17RoundRect,0.147500X0.147500X0.172500X-0.147500X0.172500X-0.147500X-0.172500X0.147500X-0.172500X0*%
%ADD18RoundRect,0.100000X0.450000X-0.300000X0.450000X0.300000X-0.450000X0.300000X-0.450000X-0.300000X0*%
%ADD19RoundRect,0.160000X-0.197500X-0.160000X0.197500X-0.160000X0.197500X0.160000X-0.197500X0.160000X0*%
%ADD20RoundRect,0.050000X0.200000X0.100000X-0.200000X0.100000X-0.200000X-0.100000X0.200000X-0.100000X0*%
%ADD21RoundRect,0.243750X0.243750X0.456250X-0.243750X0.456250X-0.243750X-0.456250X0.243750X-0.456250X0*%
%ADD22RoundRect,0.218750X-0.256250X0.218750X-0.256250X-0.218750X0.256250X-0.218750X0.256250X0.218750X0*%
%ADD23RoundRect,0.243750X-0.243750X-0.456250X0.243750X-0.456250X0.243750X0.456250X-0.243750X0.456250X0*%
%ADD24RoundRect,0.200000X-0.275000X0.200000X-0.275000X-0.200000X0.275000X-0.200000X0.275000X0.200000X0*%
%ADD25RoundRect,0.200000X0.250000X0.200000X-0.250000X0.200000X-0.250000X-0.200000X0.250000X-0.200000X0*%
%ADD26RoundRect,0.200000X0.275000X-0.200000X0.275000X0.200000X-0.275000X0.200000X-0.275000X-0.200000X0*%
%ADD27RoundRect,0.150000X-0.150000X0.512500X-0.150000X-0.512500X0.150000X-0.512500X0.150000X0.512500X0*%
%ADD28R,0.800000X2.000000*%
%ADD29RoundRect,0.200000X0.200000X0.275000X-0.200000X0.275000X-0.200000X-0.275000X0.200000X-0.275000X0*%
%ADD30RoundRect,0.150000X-0.512500X-0.150000X0.512500X-0.150000X0.512500X0.150000X-0.512500X0.150000X0*%
%ADD31R,1.200000X0.400000*%
%ADD32R,0.750000X0.300000*%
%ADD33R,0.900000X1.300000*%
%ADD34RoundRect,0.250000X0.370000X0.370000X-0.370000X0.370000X-0.370000X-0.370000X0.370000X-0.370000X0*%
%ADD35RoundRect,0.050000X0.350000X0.050000X-0.350000X0.050000X-0.350000X-0.050000X0.350000X-0.050000X0*%
%ADD36RoundRect,0.050000X0.050000X0.350000X-0.050000X0.350000X-0.050000X-0.350000X0.050000X-0.350000X0*%
%ADD37RoundRect,0.150000X0.425000X-0.150000X0.425000X0.150000X-0.425000X0.150000X-0.425000X-0.150000X0*%
%ADD38RoundRect,0.075000X0.500000X-0.075000X0.500000X0.075000X-0.500000X0.075000X-0.500000X-0.075000X0*%
%ADD39RoundRect,0.250000X0.750000X-0.840000X0.750000X0.840000X-0.750000X0.840000X-0.750000X-0.840000X0*%
%ADD40RoundRect,0.200000X-0.200000X-0.275000X0.200000X-0.275000X0.200000X0.275000X-0.200000X0.275000X0*%
%ADD41RoundRect,0.140000X-0.170000X0.140000X-0.170000X-0.140000X0.170000X-0.140000X0.170000X0.140000X0*%
%ADD42RoundRect,0.218750X0.218750X0.256250X-0.218750X0.256250X-0.218750X-0.256250X0.218750X-0.256250X0*%
%ADD43RoundRect,0.218750X0.256250X-0.218750X0.256250X0.218750X-0.256250X0.218750X-0.256250X-0.218750X0*%
%ADD44RoundRect,0.147500X0.172500X-0.147500X0.172500X0.147500X-0.172500X0.147500X-0.172500X-0.147500X0*%
%ADD45RoundRect,0.160000X0.197500X0.160000X-0.197500X0.160000X-0.197500X-0.160000X0.197500X-0.160000X0*%
%ADD46RoundRect,0.320000X-1.030000X0.480000X-1.030000X-0.480000X1.030000X-0.480000X1.030000X0.480000X0*%
%ADD47R,0.900000X1.000000*%
%ADD48R,1.000000X3.500000*%
%ADD49R,1.500000X3.400000*%
%ADD50R,1.600000X0.800000*%
G04 APERTURE END LIST*
D10*
%TO.C,C29*%
X202692000Y-71582000D03*
X202692000Y-70612000D03*
%TD*%
D11*
%TO.C,U4*%
X237999999Y-84000000D03*
X238949999Y-84000000D03*
X239899999Y-84000000D03*
X239899999Y-81725000D03*
X237999999Y-81725000D03*
%TD*%
D12*
%TO.C,D7*%
X196436500Y-57658000D03*
X198336498Y-57658000D03*
%TD*%
D13*
%TO.C,C12*%
X233625000Y-64600000D03*
X235175000Y-64600000D03*
%TD*%
D14*
%TO.C,C27*%
X241212500Y-61500000D03*
X242787500Y-61500000D03*
%TD*%
D15*
%TO.C,C10*%
X206259000Y-61728000D03*
X207229000Y-61728000D03*
%TD*%
D16*
%TO.C,C5*%
X228362500Y-58662500D03*
X228362500Y-60537500D03*
%TD*%
D17*
%TO.C,C8*%
X202669000Y-59182000D03*
X201699000Y-59182000D03*
%TD*%
D18*
%TO.C,D6*%
X225500000Y-88900000D03*
X225500000Y-87000002D03*
%TD*%
D19*
%TO.C,R15*%
X208129500Y-56886000D03*
X209324500Y-56886000D03*
%TD*%
D18*
%TO.C,D2*%
X241540000Y-55399999D03*
X241540000Y-53500001D03*
%TD*%
D20*
%TO.C,U1*%
X227785800Y-83737499D03*
X227785800Y-83237499D03*
X227785800Y-82737499D03*
X227785800Y-82237499D03*
X226414200Y-82237499D03*
X226414200Y-82737499D03*
X226414200Y-83237499D03*
X226414200Y-83737499D03*
%TD*%
D21*
%TO.C,C6*%
X219287500Y-74900000D03*
X217412500Y-74900000D03*
%TD*%
D22*
%TO.C,C21*%
X206804000Y-70358000D03*
X206804000Y-71933002D03*
%TD*%
D23*
%TO.C,R10*%
X230462499Y-92400000D03*
X232337501Y-92400000D03*
%TD*%
D16*
%TO.C,R5*%
X224200000Y-82062499D03*
X224200000Y-83937501D03*
%TD*%
D23*
%TO.C,C14*%
X216625000Y-95800000D03*
X218500000Y-95800000D03*
%TD*%
D24*
%TO.C,R13*%
X223200000Y-87175000D03*
X223200000Y-88825000D03*
%TD*%
D25*
%TO.C,Y1*%
X198325999Y-70545499D03*
X196925999Y-70545499D03*
X196925999Y-71645499D03*
X198325999Y-71645499D03*
%TD*%
D22*
%TO.C,C1*%
X230100000Y-82487500D03*
X230100000Y-84062500D03*
%TD*%
D26*
%TO.C,R2*%
X233100000Y-84100000D03*
X233100000Y-82450000D03*
%TD*%
D27*
%TO.C,U3*%
X237600000Y-68075000D03*
X236650001Y-68075000D03*
X235700002Y-68075000D03*
X235700002Y-70350000D03*
X236650001Y-70350000D03*
X237600000Y-70350000D03*
%TD*%
D28*
%TO.C,IC2*%
X200960000Y-79500000D03*
X202230000Y-79500000D03*
X203500000Y-79500000D03*
X209070000Y-79500000D03*
X210340000Y-79500000D03*
X211610000Y-79500000D03*
X212880000Y-79500000D03*
X214150000Y-79500000D03*
X215420000Y-79500000D03*
X216690000Y-79500000D03*
X217960000Y-79500000D03*
X217960000Y-93500000D03*
X216690000Y-93500000D03*
X215420000Y-93500000D03*
X214150000Y-93500000D03*
X212880000Y-93500000D03*
X211610000Y-93500000D03*
X210340000Y-93500000D03*
X209070000Y-93500000D03*
X203500000Y-93500000D03*
X202230000Y-93500000D03*
X200960000Y-93500000D03*
%TD*%
D29*
%TO.C,R16*%
X198183000Y-59690000D03*
X196533000Y-59690000D03*
%TD*%
D15*
%TO.C,C28*%
X207818000Y-68072000D03*
X208788000Y-68072000D03*
%TD*%
D17*
%TO.C,L6*%
X196682786Y-65000000D03*
X195712786Y-65000000D03*
%TD*%
D23*
%TO.C,R11*%
X246324999Y-88750000D03*
X248200001Y-88750000D03*
%TD*%
D30*
%TO.C,U2*%
X224025000Y-58850000D03*
X224025000Y-59800000D03*
X224025000Y-60750000D03*
X226300000Y-60750000D03*
X226300000Y-58850000D03*
%TD*%
D31*
%TO.C,U6*%
X226400000Y-69142500D03*
X226400000Y-69777500D03*
X226399999Y-70412500D03*
X226400000Y-71047500D03*
X226400000Y-71682500D03*
X226400000Y-72317500D03*
X226400000Y-72952500D03*
X226399999Y-73587500D03*
X226400000Y-74222500D03*
X226400000Y-74857500D03*
X231600000Y-74857500D03*
X231600000Y-74222500D03*
X231600001Y-73587500D03*
X231600000Y-72952500D03*
X231600000Y-72317500D03*
X231600000Y-71682500D03*
X231600000Y-71047500D03*
X231600001Y-70412500D03*
X231600000Y-69777500D03*
X231600000Y-69142500D03*
%TD*%
D12*
%TO.C,D3*%
X246300001Y-82650000D03*
X248199999Y-82650000D03*
%TD*%
D24*
%TO.C,R12*%
X234700000Y-82475000D03*
X234700000Y-84125000D03*
%TD*%
D32*
%TO.C,IC1*%
X221950000Y-76500000D03*
X221950000Y-77000000D03*
X221950000Y-77500000D03*
X221950000Y-78000000D03*
X223950000Y-78000000D03*
X223950000Y-77500000D03*
X223950000Y-77000000D03*
X223950000Y-76500000D03*
D33*
X222950000Y-77250000D03*
%TD*%
D34*
%TO.C,U5*%
X203730000Y-66330000D03*
X203730000Y-63270000D03*
X203729999Y-64800000D03*
X202200000Y-66329999D03*
X202200000Y-64800000D03*
X202200000Y-63270001D03*
X200670001Y-64800000D03*
X200670000Y-66330000D03*
X200670000Y-63270000D03*
D35*
X205150000Y-67000000D03*
X205150000Y-66600000D03*
X205150000Y-66199999D03*
X205150000Y-65800000D03*
X205150000Y-65400000D03*
X205150000Y-64999999D03*
X205150000Y-64600001D03*
X205150000Y-64200000D03*
X205150000Y-63800000D03*
X205150000Y-63400001D03*
X205150000Y-63000000D03*
X205150000Y-62600000D03*
D36*
X204400000Y-61850000D03*
X204000000Y-61850000D03*
X203599999Y-61850000D03*
X203200000Y-61850000D03*
X202800000Y-61850000D03*
X202399999Y-61850000D03*
X202000001Y-61850000D03*
X201600000Y-61850000D03*
X201200000Y-61850000D03*
X200800001Y-61850000D03*
X200400000Y-61850000D03*
X200000000Y-61850000D03*
D35*
X199250000Y-62600000D03*
X199250000Y-63000000D03*
X199250000Y-63400001D03*
X199250000Y-63800000D03*
X199250000Y-64200000D03*
X199250000Y-64600001D03*
X199250000Y-64999999D03*
X199250000Y-65400000D03*
X199250000Y-65800000D03*
X199250000Y-66199999D03*
X199250000Y-66600000D03*
X199250000Y-67000000D03*
D36*
X200000000Y-67750000D03*
X200400000Y-67750000D03*
X200800001Y-67750000D03*
X201200000Y-67750000D03*
X201600000Y-67750000D03*
X202000001Y-67750000D03*
X202399999Y-67750000D03*
X202800000Y-67750000D03*
X203200000Y-67750000D03*
X203599999Y-67750000D03*
X204000000Y-67750000D03*
X204400000Y-67750000D03*
%TD*%
D37*
%TO.C,J2*%
X242820000Y-77700000D03*
X242820000Y-76900000D03*
D38*
X242820000Y-75750000D03*
X242820000Y-74750000D03*
X242820000Y-74250000D03*
X242820000Y-73250000D03*
D37*
X242820000Y-72100000D03*
X242820000Y-71300000D03*
X242820000Y-71300000D03*
X242820000Y-72100000D03*
D38*
X242820000Y-72750000D03*
X242820000Y-73750000D03*
X242820000Y-75250000D03*
X242820000Y-76250000D03*
D37*
X242820000Y-76900000D03*
X242820000Y-77700000D03*
D39*
X243395000Y-79610000D03*
X247325000Y-79610000D03*
X243395000Y-69390000D03*
X247325000Y-69390000D03*
%TD*%
D40*
%TO.C,R8*%
X235600000Y-58250000D03*
X237250000Y-58250000D03*
%TD*%
%TO.C,R18*%
X235875000Y-74400000D03*
X237525000Y-74400000D03*
%TD*%
D15*
%TO.C,L5*%
X191215000Y-60850000D03*
X192185000Y-60850000D03*
%TD*%
D17*
%TO.C,C26*%
X197843000Y-61722000D03*
X196873000Y-61722000D03*
%TD*%
D23*
%TO.C,R20*%
X235662499Y-61750000D03*
X237537501Y-61750000D03*
%TD*%
D22*
%TO.C,C24*%
X201422000Y-70357999D03*
X201422000Y-71932999D03*
%TD*%
D41*
%TO.C,C31*%
X197612000Y-65000000D03*
X197612000Y-65960000D03*
%TD*%
D21*
%TO.C,R3*%
X237574000Y-78426000D03*
X235698998Y-78426000D03*
%TD*%
D22*
%TO.C,L3*%
X208304000Y-70358000D03*
X208304000Y-71933002D03*
%TD*%
D42*
%TO.C,C11*%
X229799999Y-77700000D03*
X228224999Y-77700000D03*
%TD*%
D43*
%TO.C,C25*%
X199926000Y-71933000D03*
X199926000Y-70357998D03*
%TD*%
D22*
%TO.C,C23*%
X205206000Y-70357999D03*
X205206000Y-71932999D03*
%TD*%
D43*
%TO.C,L2*%
X209804000Y-71933002D03*
X209804000Y-70358000D03*
%TD*%
D14*
%TO.C,C20*%
X205956500Y-60278000D03*
X207531500Y-60278000D03*
%TD*%
D12*
%TO.C,D5*%
X246300001Y-86730000D03*
X248199999Y-86730000D03*
%TD*%
D26*
%TO.C,R1*%
X231600000Y-84100000D03*
X231600000Y-82450000D03*
%TD*%
D44*
%TO.C,L4*%
X192200000Y-59900000D03*
X192200000Y-58930000D03*
%TD*%
D40*
%TO.C,R7*%
X235600000Y-59750000D03*
X237250000Y-59750000D03*
%TD*%
D16*
%TO.C,C19*%
X221762500Y-58762500D03*
X221762500Y-60637500D03*
%TD*%
D45*
%TO.C,R14*%
X206427000Y-56896000D03*
X205232000Y-56896000D03*
%TD*%
D42*
%TO.C,C22*%
X196621501Y-68072000D03*
X195046499Y-68072000D03*
%TD*%
D46*
%TO.C,C7*%
X231700000Y-87250001D03*
X231700000Y-90049999D03*
%TD*%
D42*
%TO.C,C13*%
X214337501Y-95800000D03*
X212762501Y-95800000D03*
%TD*%
D47*
%TO.C,RST1*%
X248550000Y-62000000D03*
X248550000Y-63600000D03*
X244450000Y-63600000D03*
X244450000Y-62000000D03*
%TD*%
D16*
%TO.C,C18*%
X228100000Y-86962500D03*
X228100000Y-88837500D03*
%TD*%
D23*
%TO.C,R4*%
X235698998Y-76376000D03*
X237574000Y-76376000D03*
%TD*%
D29*
%TO.C,R19*%
X243425000Y-67000000D03*
X241775000Y-67000000D03*
%TD*%
D12*
%TO.C,D4*%
X230550001Y-94825000D03*
X232449999Y-94825000D03*
%TD*%
D16*
%TO.C,C17*%
X241900000Y-84062499D03*
X241900000Y-85937501D03*
%TD*%
D21*
%TO.C,C4*%
X225825000Y-62725000D03*
X223950000Y-62725000D03*
%TD*%
D44*
%TO.C,C30*%
X192200000Y-62785000D03*
X192200000Y-61815000D03*
%TD*%
D48*
%TO.C,J4*%
X237000000Y-88875000D03*
X239000000Y-88875000D03*
D49*
X234650000Y-94625000D03*
X241350000Y-94625000D03*
%TD*%
D23*
%TO.C,R9*%
X246262499Y-84650000D03*
X248137501Y-84650000D03*
%TD*%
D22*
%TO.C,C2*%
X219462500Y-58912500D03*
X219462500Y-60487500D03*
%TD*%
D50*
%TO.C,E1*%
X192200000Y-57800001D03*
X192200000Y-54399999D03*
%TD*%
D29*
%TO.C,R21*%
X243425000Y-65500000D03*
X241775000Y-65500000D03*
%TD*%
D14*
%TO.C,C3*%
X207492500Y-66548000D03*
X209067500Y-66548000D03*
%TD*%
D18*
%TO.C,D1*%
X238500000Y-55399998D03*
X238500000Y-53500000D03*
%TD*%
D29*
%TO.C,R6*%
X237525000Y-72700000D03*
X235875000Y-72700000D03*
%TD*%
D43*
%TO.C,C9*%
X195326000Y-71933001D03*
X195326000Y-70357999D03*
%TD*%
M02*
