%TF.GenerationSoftware,KiCad,Pcbnew,9.0.3*%
%TF.CreationDate,2025-07-18T13:59:51+02:00*%
%TF.ProjectId,LoRa_Project,4c6f5261-5f50-4726-9f6a-6563742e6b69,rev?*%
%TF.SameCoordinates,Original*%
%TF.FileFunction,Copper,L4,Bot*%
%TF.FilePolarity,Positive*%
%FSLAX46Y46*%
G04 Gerber Fmt 4.6, Leading zero omitted, Abs format (unit mm)*
G04 Created by KiCad (PCBNEW 9.0.3) date 2025-07-18 13:59:51*
%MOMM*%
%LPD*%
G01*
G04 APERTURE LIST*
G04 Aperture macros list*
%AMRotRect*
0 Rectangle, with rotation*
0 The origin of the aperture is its center*
0 $1 length*
0 $2 width*
0 $3 Rotation angle, in degrees counterclockwise*
0 Add horizontal line*
21,1,$1,$2,0,0,$3*%
G04 Aperture macros list end*
%TA.AperFunction,ComponentPad*%
%ADD10C,3.600000*%
%TD*%
%TA.AperFunction,ConnectorPad*%
%ADD11C,5.600000*%
%TD*%
%TA.AperFunction,ComponentPad*%
%ADD12R,1.700000X1.700000*%
%TD*%
%TA.AperFunction,ComponentPad*%
%ADD13C,1.700000*%
%TD*%
%TA.AperFunction,HeatsinkPad*%
%ADD14C,0.500000*%
%TD*%
%TA.AperFunction,HeatsinkPad*%
%ADD15RotRect,4.100000X4.100000X225.000000*%
%TD*%
%TA.AperFunction,ViaPad*%
%ADD16C,0.600000*%
%TD*%
%TA.AperFunction,ViaPad*%
%ADD17C,1.000000*%
%TD*%
%TA.AperFunction,Conductor*%
%ADD18C,0.200000*%
%TD*%
%TA.AperFunction,Conductor*%
%ADD19C,0.250000*%
%TD*%
G04 APERTURE END LIST*
D10*
%TO.P,H1,1,1*%
%TO.N,GND*%
X194000000Y-56000000D03*
D11*
X194000000Y-56000000D03*
%TD*%
D12*
%TO.P,J3,1,Pin_1*%
%TO.N,+3V3*%
X212690000Y-54500000D03*
D13*
%TO.P,J3,2,Pin_2*%
%TO.N,GND*%
X215230000Y-54500000D03*
%TO.P,J3,3,Pin_3*%
%TO.N,I2C_SDA*%
X217770000Y-54500000D03*
%TO.P,J3,4,Pin_4*%
%TO.N,I2C_SCL*%
X220310000Y-54500000D03*
%TD*%
D10*
%TO.P,H3,1,1*%
%TO.N,GND*%
X194000000Y-93000000D03*
D11*
X194000000Y-93000000D03*
%TD*%
D14*
%TO.P,U5,49,VSS*%
%TO.N,GND*%
X213187184Y-66030330D03*
X212338656Y-65181802D03*
X211490128Y-64333274D03*
X210641600Y-63484746D03*
X212338656Y-66878858D03*
X211490128Y-66030330D03*
X210641600Y-65181802D03*
X209793072Y-64333274D03*
D15*
X210641600Y-66030330D03*
D14*
X211490128Y-67727386D03*
X210641600Y-66878858D03*
X209793072Y-66030330D03*
X208944544Y-65181802D03*
X210641600Y-68575914D03*
X209793072Y-67727386D03*
X208944544Y-66878858D03*
X208096016Y-66030330D03*
%TD*%
D10*
%TO.P,H2,1,1*%
%TO.N,GND*%
X245999999Y-56000001D03*
D11*
X245999999Y-56000001D03*
%TD*%
D12*
%TO.P,J6,1,Pin_1*%
%TO.N,+3V3*%
X225420001Y-54500000D03*
D13*
%TO.P,J6,2,Pin_2*%
%TO.N,GND*%
X227960001Y-54500000D03*
%TO.P,J6,3,Pin_3*%
%TO.N,SWD_CLK*%
X230500001Y-54500000D03*
%TO.P,J6,4,Pin_4*%
%TO.N,SWD_IO*%
X233040001Y-54500000D03*
%TD*%
D12*
%TO.P,J1,1,Pin_1*%
%TO.N,+3V3*%
X200000000Y-54500000D03*
D13*
%TO.P,J1,2,Pin_2*%
%TO.N,GND*%
X202540000Y-54500000D03*
%TO.P,J1,3,Pin_3*%
%TO.N,I2C_SDA*%
X205080000Y-54500000D03*
%TO.P,J1,4,Pin_4*%
%TO.N,I2C_SCL*%
X207620000Y-54500000D03*
%TD*%
D10*
%TO.P,H4,1,1*%
%TO.N,GND*%
X245999999Y-92999999D03*
D11*
X245999999Y-92999999D03*
%TD*%
D16*
%TO.N,*%
X225000000Y-69800000D03*
%TO.N,VBUS*%
X241200000Y-76900000D03*
X241200000Y-72100000D03*
X241200000Y-72800000D03*
X229600000Y-87000000D03*
X241200000Y-76200000D03*
%TO.N,GND*%
X205400000Y-69500000D03*
X244850000Y-81500000D03*
X201300000Y-72600000D03*
X205500000Y-75300000D03*
X241200000Y-70500000D03*
X198000000Y-64400000D03*
X200931262Y-82134208D03*
X202100000Y-65700000D03*
X236700000Y-64600000D03*
X218100000Y-60500000D03*
X241200000Y-77800000D03*
X233100000Y-85400000D03*
X201100000Y-62500000D03*
X201000000Y-95634999D03*
X203950000Y-75300000D03*
X199400000Y-66500000D03*
X200700000Y-71800000D03*
X196800000Y-71400000D03*
X244850000Y-85550000D03*
X206900000Y-69500000D03*
X241200000Y-69700000D03*
X241200000Y-78600000D03*
X211600000Y-95734999D03*
X239100000Y-86300000D03*
X191300000Y-68700000D03*
X238100000Y-86300000D03*
X239000000Y-80100000D03*
X196800000Y-72600000D03*
X239200000Y-74200000D03*
X213800000Y-57650000D03*
X241200000Y-71300000D03*
X202000000Y-70600000D03*
X196800000Y-73900000D03*
X191300000Y-72700000D03*
X224600000Y-72300000D03*
X203500000Y-95634999D03*
X191300000Y-71500000D03*
X227800000Y-84700000D03*
X228000000Y-62700000D03*
X220400000Y-67050000D03*
X240000000Y-86300000D03*
X200700000Y-69400000D03*
X199400000Y-67400000D03*
X234286499Y-79126000D03*
X196800000Y-75200000D03*
X234386499Y-77326000D03*
X229600000Y-89400000D03*
X210300000Y-95734999D03*
X193600000Y-68700000D03*
X222800000Y-62000000D03*
X246500000Y-63600000D03*
X196800000Y-70200000D03*
X219900000Y-95800000D03*
X217400000Y-76406249D03*
X204100000Y-67600000D03*
X222675000Y-63325000D03*
X199400000Y-68300000D03*
X203500000Y-77000000D03*
X207050000Y-75300000D03*
X201700000Y-67200000D03*
X228100000Y-90100000D03*
X200800000Y-66300000D03*
X198100000Y-67400000D03*
X199200000Y-64300000D03*
X229100000Y-93700000D03*
X221950000Y-75350000D03*
X204000000Y-69300000D03*
X192400000Y-68700000D03*
X219100000Y-78700000D03*
X227700000Y-66800000D03*
X198100000Y-68300000D03*
X198900000Y-69800000D03*
X240000000Y-61500000D03*
X231212500Y-77700000D03*
X230100000Y-85400000D03*
X202200000Y-95634999D03*
X220400000Y-65300000D03*
X214100000Y-75293749D03*
X241200000Y-79400000D03*
X196000000Y-68500000D03*
X191300000Y-74000000D03*
X209069999Y-95769999D03*
X193300000Y-71500000D03*
X193300000Y-73900000D03*
X236650000Y-66550000D03*
X221500000Y-72700000D03*
X201100000Y-64800000D03*
X222000000Y-74600000D03*
X234700000Y-85400000D03*
X197700000Y-69600000D03*
X209500000Y-75350000D03*
X220456248Y-71000000D03*
%TO.N,+3V3*%
X204250000Y-63050000D03*
X205050000Y-59900000D03*
X234375000Y-59850000D03*
D17*
X230100000Y-59500000D03*
D16*
X215500000Y-95800000D03*
X234375000Y-61750000D03*
D17*
X230100000Y-61000000D03*
D16*
X226300000Y-92900000D03*
X216000000Y-65550000D03*
X216650000Y-73400000D03*
D17*
X231500000Y-61000000D03*
D16*
X234375000Y-58250000D03*
D17*
X230100000Y-58000000D03*
D16*
X243250000Y-88550000D03*
X212250000Y-57650000D03*
X204250000Y-65300000D03*
D17*
X231500000Y-58000000D03*
D16*
X226225000Y-77725000D03*
X202200000Y-59900000D03*
D17*
X231500000Y-59500000D03*
D16*
%TO.N,+BATT*%
X220200000Y-76400000D03*
X231200000Y-85700000D03*
X220200000Y-77300000D03*
X225500000Y-80900000D03*
X232000000Y-85700000D03*
%TO.N,/nRF52840 and LoRa/DEC4_6*%
X216000000Y-69400000D03*
X208200000Y-69700000D03*
%TO.N,/Peripherals/RXLED*%
X231500000Y-66900000D03*
X236800000Y-53100000D03*
%TO.N,/Peripherals/TXLED*%
X240000000Y-53100000D03*
X224600000Y-74900000D03*
%TO.N,I2C_SDA*%
X203400000Y-59900000D03*
X222200000Y-70600000D03*
X205500000Y-63150000D03*
%TO.N,I2C_SCL*%
X206350000Y-63150000D03*
X222200000Y-69600000D03*
X206250000Y-59900000D03*
%TO.N,/nRF52840 and LoRa/LORA_SPI_CS*%
X212800000Y-61350000D03*
X209069999Y-77800000D03*
%TO.N,/nRF52840 and LoRa/SPI_SCK*%
X210340000Y-77800000D03*
X207250000Y-63150000D03*
%TO.N,/nRF52840 and LoRa/LORA_BUSY*%
X215420000Y-77800001D03*
X215899265Y-71400735D03*
%TO.N,/nRF52840 and LoRa/LORA_IRQ*%
X216690000Y-77800000D03*
X212775000Y-62225000D03*
%TO.N,/nRF52840 and LoRa/SPI_MISO*%
X212880000Y-77800000D03*
X208950000Y-60800000D03*
%TO.N,/nRF52840 and LoRa/LORA_NRST*%
X214150000Y-77800000D03*
X213825000Y-69350000D03*
%TO.N,/nRF52840 and LoRa/SPI_MOSI*%
X211610000Y-77800000D03*
X210000000Y-60800000D03*
%TO.N,SWD_IO*%
X206100000Y-67500000D03*
X218000000Y-85700000D03*
X206200000Y-77800000D03*
%TO.N,SWD_CLK*%
X206700000Y-68200000D03*
X218000000Y-84400000D03*
X207500000Y-77800000D03*
%TO.N,Net-(U4-STAT)*%
X221500000Y-87200000D03*
X236500000Y-84300000D03*
%TO.N,Net-(U5-~{RESET})*%
X207475000Y-60350000D03*
X246500000Y-62000000D03*
X207475000Y-61875000D03*
%TO.N,UART_TXD*%
X214800000Y-61000000D03*
X216500000Y-62200000D03*
%TO.N,/Power/V_SW*%
X222650000Y-82050000D03*
X216150000Y-58700000D03*
X221775000Y-82050000D03*
X220900000Y-82050000D03*
X217025000Y-58700000D03*
X217900000Y-58700000D03*
%TO.N,Net-(U6-CBUS3)*%
X233400000Y-67100000D03*
X234600000Y-74400000D03*
%TD*%
D18*
%TO.N,/nRF52840 and LoRa/DEC4_6*%
X215000000Y-68400000D02*
X216000000Y-69400000D01*
X211200000Y-70100000D02*
X212900000Y-68400000D01*
X208200000Y-69700000D02*
X208600000Y-70100000D01*
X212900000Y-68400000D02*
X215000000Y-68400000D01*
X208600000Y-70100000D02*
X211200000Y-70100000D01*
%TO.N,/Peripherals/RXLED*%
X236800000Y-55800000D02*
X236800000Y-53100000D01*
X232900000Y-65500000D02*
X237400000Y-65500000D01*
X238600000Y-64300000D02*
X238600000Y-57600000D01*
X231500000Y-66900000D02*
X232900000Y-65500000D01*
X238600000Y-57600000D02*
X236800000Y-55800000D01*
X237400000Y-65500000D02*
X238600000Y-64300000D01*
%TO.N,/Peripherals/TXLED*%
X225000000Y-75200000D02*
X224700000Y-74900000D01*
X241600000Y-54700000D02*
X241600000Y-64000000D01*
X239500000Y-66100000D02*
X239500000Y-71700000D01*
X236300000Y-75200000D02*
X225000000Y-75200000D01*
X239500000Y-71700000D02*
X239500000Y-72000000D01*
X239500000Y-72000000D02*
X236300000Y-75200000D01*
X241600000Y-64000000D02*
X239500000Y-66100000D01*
X239500000Y-70550057D02*
X239500000Y-71700000D01*
X240000000Y-53100000D02*
X241600000Y-54700000D01*
D19*
%TO.N,I2C_SDA*%
X216019999Y-52750000D02*
X217769999Y-54500000D01*
X205500000Y-62000000D02*
X205500000Y-63150000D01*
X215600000Y-59800000D02*
X219100000Y-63300000D01*
X219100000Y-63300000D02*
X219100000Y-68750000D01*
X220950000Y-70600000D02*
X222200000Y-70600000D01*
X212282190Y-59800000D02*
X215600000Y-59800000D01*
X206829999Y-52750000D02*
X216019999Y-52750000D01*
X206553999Y-55974000D02*
X208456190Y-55974000D01*
X205079999Y-54500000D02*
X206829999Y-52750000D01*
X219100000Y-68750000D02*
X220950000Y-70600000D01*
X203400000Y-59900000D02*
X205500000Y-62000000D01*
X208456190Y-55974000D02*
X212282190Y-59800000D01*
X205079999Y-54500000D02*
X206553999Y-55974000D01*
%TO.N,I2C_SCL*%
X220310000Y-55450000D02*
X220310000Y-55690000D01*
D18*
X220310000Y-62110000D02*
X220310000Y-55450000D01*
D19*
X206350000Y-63150000D02*
X206350000Y-60000000D01*
X209370000Y-56250000D02*
X207620000Y-54500000D01*
X220310000Y-55690000D02*
X219750000Y-56250000D01*
D18*
X222200000Y-69600000D02*
X222200000Y-64000000D01*
D19*
X206350000Y-60000000D02*
X206250000Y-59900000D01*
X220310000Y-54500000D02*
X220310000Y-55450000D01*
X219750000Y-56250000D02*
X209370000Y-56250000D01*
D18*
X222200000Y-64000000D02*
X220310000Y-62110000D01*
%TO.N,/nRF52840 and LoRa/LORA_SPI_CS*%
X213550000Y-77575000D02*
X213550000Y-80052100D01*
X209069999Y-77505001D02*
X209925000Y-76650000D01*
X199650000Y-73500000D02*
X200062500Y-73087500D01*
X210801100Y-82801000D02*
X204226000Y-82801000D01*
X199650000Y-78225000D02*
X199650000Y-73500000D01*
X204226000Y-82801000D02*
X199650000Y-78225000D01*
X201550000Y-56400000D02*
X207850000Y-56400000D01*
X209069999Y-77800000D02*
X209069999Y-77505001D01*
X209925000Y-76650000D02*
X212625000Y-76650000D01*
X200050000Y-57900000D02*
X201550000Y-56400000D01*
X200050000Y-73075000D02*
X200050000Y-57900000D01*
X207850000Y-56400000D02*
X212800000Y-61350000D01*
X213550000Y-80052100D02*
X210801100Y-82801000D01*
X200062500Y-73087500D02*
X200050000Y-73075000D01*
X212625000Y-76650000D02*
X213550000Y-77575000D01*
D19*
%TO.N,/nRF52840 and LoRa/SPI_SCK*%
X204650000Y-77550000D02*
X204650000Y-68550000D01*
X210340000Y-78710000D02*
X208950000Y-80100000D01*
X205400000Y-64900000D02*
X207100000Y-63200000D01*
X204650000Y-68550000D02*
X205400000Y-67800000D01*
X208950000Y-80100000D02*
X207200000Y-80100000D01*
X210340000Y-77800000D02*
X210340000Y-78710000D01*
X205400000Y-67800000D02*
X205400000Y-64900000D01*
X207200000Y-80100000D02*
X204650000Y-77550000D01*
D18*
%TO.N,/nRF52840 and LoRa/LORA_BUSY*%
X215899265Y-71400735D02*
X215420000Y-71880000D01*
X215420000Y-71880000D02*
X215420000Y-77800001D01*
%TO.N,/nRF52840 and LoRa/LORA_IRQ*%
X216049000Y-77159000D02*
X216049000Y-72100943D01*
X216850000Y-71299943D02*
X216850000Y-64600000D01*
X216690000Y-77800000D02*
X216049000Y-77159000D01*
X214450000Y-62200000D02*
X212750000Y-62200000D01*
X216049000Y-72100943D02*
X216850000Y-71299943D01*
X214450000Y-62200000D02*
X216850000Y-64600000D01*
%TO.N,/nRF52840 and LoRa/SPI_MISO*%
X200900000Y-58350000D02*
X200900000Y-60825000D01*
X208950000Y-60800000D02*
X208950000Y-61050000D01*
X200900000Y-60825000D02*
X202600000Y-62525000D01*
X212862500Y-80137500D02*
X212880000Y-80155000D01*
X202600000Y-72750000D02*
X200725000Y-74625000D01*
X210600000Y-61600000D02*
X210625000Y-61625000D01*
X205075000Y-82400000D02*
X210600000Y-82400000D01*
X211025000Y-60750000D02*
X207525000Y-57250000D01*
X200700000Y-74625000D02*
X200700000Y-78025000D01*
X202600000Y-62525000D02*
X202600000Y-72750000D01*
X210600000Y-82400000D02*
X212862500Y-80137500D01*
X212880000Y-80155000D02*
X212880000Y-77800000D01*
X207525000Y-57250000D02*
X202000000Y-57250000D01*
X211025000Y-61225000D02*
X211025000Y-60750000D01*
X200700000Y-78025000D02*
X205075000Y-82400000D01*
X209500000Y-61600000D02*
X210600000Y-61600000D01*
X210625000Y-61625000D02*
X211025000Y-61225000D01*
X208950000Y-61050000D02*
X209500000Y-61600000D01*
X202000000Y-57250000D02*
X200900000Y-58350000D01*
%TO.N,/nRF52840 and LoRa/LORA_NRST*%
X214150000Y-77800000D02*
X214150000Y-76900000D01*
X213175000Y-70900000D02*
X213800000Y-70275000D01*
X213175000Y-75925000D02*
X213175000Y-70900000D01*
X213800000Y-70275000D02*
X213800000Y-69600000D01*
X214150000Y-76900000D02*
X213175000Y-75925000D01*
%TO.N,/nRF52840 and LoRa/SPI_MOSI*%
X203349000Y-61898943D02*
X201599000Y-60148943D01*
X209700000Y-81475000D02*
X207572546Y-81475000D01*
X202225000Y-58000000D02*
X207200000Y-58000000D01*
X211610000Y-79565000D02*
X209700000Y-81475000D01*
X203349000Y-75548943D02*
X203349000Y-61898943D01*
X204224000Y-76423943D02*
X203349000Y-75548943D01*
X211610000Y-77800000D02*
X211610000Y-79565000D01*
X201599000Y-58626000D02*
X202225000Y-58000000D01*
X204224000Y-78126454D02*
X204224000Y-76423943D01*
X201599000Y-60148943D02*
X201599000Y-58626000D01*
X207572546Y-81475000D02*
X204224000Y-78126454D01*
X207200000Y-58000000D02*
X210000000Y-60800000D01*
%TO.N,SWD_IO*%
X219300000Y-82800057D02*
X223999000Y-78101057D01*
X217900000Y-85800000D02*
X218000000Y-85700000D01*
X219200000Y-84500000D02*
X219300000Y-84500000D01*
X219300000Y-84500000D02*
X219300000Y-82800057D01*
X206100000Y-77700000D02*
X206200000Y-77800000D01*
X229600000Y-56400000D02*
X231140001Y-56400000D01*
X218000000Y-85700000D02*
X219200000Y-84500000D01*
X206100000Y-67500000D02*
X206100000Y-77700000D01*
X223999000Y-78101057D02*
X223999000Y-62001000D01*
X223999000Y-62001000D02*
X229600000Y-56400000D01*
X231140001Y-56400000D02*
X233040001Y-54500000D01*
%TO.N,SWD_CLK*%
X223551000Y-75949000D02*
X218000000Y-81500000D01*
X207400000Y-69100000D02*
X206700000Y-68400000D01*
X208400000Y-71700000D02*
X207400000Y-70700000D01*
X207501000Y-69748943D02*
X207501000Y-69251057D01*
X207400000Y-69150057D02*
X207400000Y-69100000D01*
X218000000Y-81500000D02*
X218000000Y-84400000D01*
X206700000Y-68400000D02*
X206700000Y-68200000D01*
X223551000Y-61449000D02*
X223551000Y-75949000D01*
X207400000Y-69849943D02*
X207501000Y-69748943D01*
X207500000Y-77800000D02*
X208400000Y-76900000D01*
X230500000Y-54500000D02*
X223551000Y-61449000D01*
X207501000Y-69251057D02*
X207400000Y-69150057D01*
X208400000Y-76900000D02*
X208400000Y-71700000D01*
X207400000Y-70700000D02*
X207400000Y-69849943D01*
D19*
%TO.N,Net-(U4-STAT)*%
X222500000Y-88200000D02*
X232785298Y-88200000D01*
X221500000Y-87200000D02*
X222500000Y-88200000D01*
X236500000Y-84485298D02*
X236500000Y-84300000D01*
X232785298Y-88200000D02*
X236500000Y-84485298D01*
D18*
%TO.N,Net-(U5-~{RESET})*%
X207475000Y-60350000D02*
X207475000Y-61875000D01*
%TO.N,UART_TXD*%
X214800000Y-61000000D02*
X216000000Y-62200000D01*
X216000000Y-62200000D02*
X216500000Y-62200000D01*
D19*
%TO.N,Net-(U6-CBUS3)*%
X233400000Y-67100000D02*
X233400000Y-73200000D01*
X233400000Y-73200000D02*
X234600000Y-74400000D01*
%TD*%
M02*
