%TF.GenerationSoftware,KiCad,Pcbnew,9.0.3*%
%TF.CreationDate,2025-07-17T21:10:23+02:00*%
%TF.ProjectId,LoRa_Project,4c6f5261-5f50-4726-9f6a-6563742e6b69,rev?*%
%TF.SameCoordinates,Original*%
%TF.FileFunction,Soldermask,Top*%
%TF.FilePolarity,Negative*%
%FSLAX46Y46*%
G04 Gerber Fmt 4.6, Leading zero omitted, Abs format (unit mm)*
G04 Created by KiCad (PCBNEW 9.0.3) date 2025-07-17 21:10:23*
%MOMM*%
%LPD*%
G01*
G04 APERTURE LIST*
G04 Aperture macros list*
%AMRoundRect*
0 Rectangle with rounded corners*
0 $1 Rounding radius*
0 $2 $3 $4 $5 $6 $7 $8 $9 X,Y pos of 4 corners*
0 Add a 4 corners polygon primitive as box body*
4,1,4,$2,$3,$4,$5,$6,$7,$8,$9,$2,$3,0*
0 Add four circle primitives for the rounded corners*
1,1,$1+$1,$2,$3*
1,1,$1+$1,$4,$5*
1,1,$1+$1,$6,$7*
1,1,$1+$1,$8,$9*
0 Add four rect primitives between the rounded corners*
20,1,$1+$1,$2,$3,$4,$5,0*
20,1,$1+$1,$4,$5,$6,$7,0*
20,1,$1+$1,$6,$7,$8,$9,0*
20,1,$1+$1,$8,$9,$2,$3,0*%
%AMRotRect*
0 Rectangle, with rotation*
0 The origin of the aperture is its center*
0 $1 length*
0 $2 width*
0 $3 Rotation angle, in degrees counterclockwise*
0 Add horizontal line*
21,1,$1,$2,0,0,$3*%
%AMFreePoly0*
4,1,14,1.640000,1.767700,1.302700,1.428100,1.020700,0.978600,0.850200,0.476000,0.800000,0.000000,0.850200,-0.476000,1.020700,-0.978600,1.302700,-1.428100,1.640000,-1.767700,1.640000,-3.680000,-0.800000,-3.680000,-0.800000,3.680000,1.640000,3.680000,1.640000,1.767700,1.640000,1.767700,$1*%
G04 Aperture macros list end*
%ADD10C,5.600000*%
%ADD11RoundRect,0.243750X0.243750X0.456250X-0.243750X0.456250X-0.243750X-0.456250X0.243750X-0.456250X0*%
%ADD12R,1.700000X1.700000*%
%ADD13C,1.700000*%
%ADD14RoundRect,0.150000X0.150000X-0.512500X0.150000X0.512500X-0.150000X0.512500X-0.150000X-0.512500X0*%
%ADD15RoundRect,0.100000X0.300000X0.450000X-0.300000X0.450000X-0.300000X-0.450000X0.300000X-0.450000X0*%
%ADD16C,1.000000*%
%ADD17RoundRect,0.218750X-0.218750X-0.256250X0.218750X-0.256250X0.218750X0.256250X-0.218750X0.256250X0*%
%ADD18RoundRect,0.243750X-0.456250X0.243750X-0.456250X-0.243750X0.456250X-0.243750X0.456250X0.243750X0*%
%ADD19RoundRect,0.147500X-0.147500X-0.172500X0.147500X-0.172500X0.147500X0.172500X-0.147500X0.172500X0*%
%ADD20RoundRect,0.147500X0.147500X0.172500X-0.147500X0.172500X-0.147500X-0.172500X0.147500X-0.172500X0*%
%ADD21RoundRect,0.100000X0.450000X-0.300000X0.450000X0.300000X-0.450000X0.300000X-0.450000X-0.300000X0*%
%ADD22RoundRect,0.160000X-0.197500X-0.160000X0.197500X-0.160000X0.197500X0.160000X-0.197500X0.160000X0*%
%ADD23RoundRect,0.050000X0.200000X0.100000X-0.200000X0.100000X-0.200000X-0.100000X0.200000X-0.100000X0*%
%ADD24RoundRect,0.243750X-0.243750X-0.456250X0.243750X-0.456250X0.243750X0.456250X-0.243750X0.456250X0*%
%ADD25RoundRect,0.200000X-0.275000X0.200000X-0.275000X-0.200000X0.275000X-0.200000X0.275000X0.200000X0*%
%ADD26RoundRect,0.200000X0.250000X0.200000X-0.250000X0.200000X-0.250000X-0.200000X0.250000X-0.200000X0*%
%ADD27RoundRect,0.218750X-0.256250X0.218750X-0.256250X-0.218750X0.256250X-0.218750X0.256250X0.218750X0*%
%ADD28RoundRect,0.200000X0.275000X-0.200000X0.275000X0.200000X-0.275000X0.200000X-0.275000X-0.200000X0*%
%ADD29RoundRect,0.150000X-0.150000X0.512500X-0.150000X-0.512500X0.150000X-0.512500X0.150000X0.512500X0*%
%ADD30RoundRect,0.102000X-0.400000X1.000000X-0.400000X-1.000000X0.400000X-1.000000X0.400000X1.000000X0*%
%ADD31RoundRect,0.150000X-0.512500X-0.150000X0.512500X-0.150000X0.512500X0.150000X-0.512500X0.150000X0*%
%ADD32R,1.200000X0.400000*%
%ADD33RoundRect,0.100000X-0.300000X-0.450000X0.300000X-0.450000X0.300000X0.450000X-0.300000X0.450000X0*%
%ADD34R,0.750000X0.300000*%
%ADD35R,0.900000X1.300000*%
%ADD36RoundRect,0.050000X0.212132X0.282843X-0.282843X-0.212132X-0.212132X-0.282843X0.282843X0.212132X0*%
%ADD37RoundRect,0.050000X-0.212132X0.282843X-0.282843X0.212132X0.212132X-0.282843X0.282843X-0.212132X0*%
%ADD38RotRect,4.600000X4.600000X225.000000*%
%ADD39C,0.650000*%
%ADD40RoundRect,0.150000X0.425000X-0.150000X0.425000X0.150000X-0.425000X0.150000X-0.425000X-0.150000X0*%
%ADD41RoundRect,0.075000X0.500000X-0.075000X0.500000X0.075000X-0.500000X0.075000X-0.500000X-0.075000X0*%
%ADD42RoundRect,0.250000X0.750000X-0.840000X0.750000X0.840000X-0.750000X0.840000X-0.750000X-0.840000X0*%
%ADD43RoundRect,0.200000X-0.200000X-0.275000X0.200000X-0.275000X0.200000X0.275000X-0.200000X0.275000X0*%
%ADD44RoundRect,0.147500X0.172500X-0.147500X0.172500X0.147500X-0.172500X0.147500X-0.172500X-0.147500X0*%
%ADD45RoundRect,0.218750X0.218750X0.256250X-0.218750X0.256250X-0.218750X-0.256250X0.218750X-0.256250X0*%
%ADD46RoundRect,0.218750X0.256250X-0.218750X0.256250X0.218750X-0.256250X0.218750X-0.256250X-0.218750X0*%
%ADD47RoundRect,0.320000X-1.030000X0.480000X-1.030000X-0.480000X1.030000X-0.480000X1.030000X0.480000X0*%
%ADD48R,0.900000X1.000000*%
%ADD49RoundRect,0.243750X0.456250X-0.243750X0.456250X0.243750X-0.456250X0.243750X-0.456250X-0.243750X0*%
%ADD50RoundRect,0.102000X0.500000X1.750000X-0.500000X1.750000X-0.500000X-1.750000X0.500000X-1.750000X0*%
%ADD51RoundRect,0.102000X0.750000X1.700000X-0.750000X1.700000X-0.750000X-1.700000X0.750000X-1.700000X0*%
%ADD52RoundRect,0.102000X0.400000X0.800000X-0.400000X0.800000X-0.400000X-0.800000X0.400000X-0.800000X0*%
%ADD53C,2.050000*%
%ADD54FreePoly0,180.000000*%
%ADD55FreePoly0,0.000000*%
G04 APERTURE END LIST*
D10*
%TO.C,H1*%
X194000000Y-56000000D03*
%TD*%
D11*
%TO.C,C15*%
X195337500Y-70100000D03*
X193462500Y-70100000D03*
%TD*%
D12*
%TO.C,J3*%
X212690000Y-54500000D03*
D13*
X215230000Y-54500000D03*
X217770000Y-54500000D03*
X220310000Y-54500000D03*
%TD*%
D14*
%TO.C,U4*%
X237999999Y-84000000D03*
X238949999Y-84000000D03*
X239899999Y-84000000D03*
X239899999Y-81725000D03*
X237999999Y-81725000D03*
%TD*%
D15*
%TO.C,D7*%
X199449999Y-59000000D03*
X197550001Y-59000000D03*
%TD*%
D16*
%TO.C,TP5*%
X226300000Y-94600000D03*
%TD*%
D17*
%TO.C,C27*%
X241212500Y-61500000D03*
X242787500Y-61500000D03*
%TD*%
D18*
%TO.C,L1*%
X195100000Y-71862499D03*
X195100000Y-73737501D03*
%TD*%
D19*
%TO.C,C10*%
X212515000Y-60450000D03*
X213485000Y-60450000D03*
%TD*%
D18*
%TO.C,C5*%
X228362500Y-58662500D03*
X228362500Y-60537500D03*
%TD*%
D20*
%TO.C,C8*%
X203235000Y-64750000D03*
X202265000Y-64750000D03*
%TD*%
D21*
%TO.C,D6*%
X225500000Y-88900000D03*
X225500000Y-87000002D03*
%TD*%
D22*
%TO.C,R15*%
X205102500Y-58900000D03*
X206297500Y-58900000D03*
%TD*%
D16*
%TO.C,TP4*%
X223800000Y-94500000D03*
%TD*%
D21*
%TO.C,D2*%
X241540000Y-55399999D03*
X241540000Y-53500001D03*
%TD*%
D10*
%TO.C,H3*%
X194000000Y-93000000D03*
%TD*%
D23*
%TO.C,U1*%
X227785800Y-83737499D03*
X227785800Y-83237499D03*
X227785800Y-82737499D03*
X227785800Y-82237499D03*
X226414200Y-82237499D03*
X226414200Y-82737499D03*
X226414200Y-83237499D03*
X226414200Y-83737499D03*
%TD*%
D11*
%TO.C,C6*%
X219287500Y-74900000D03*
X217412500Y-74900000D03*
%TD*%
D17*
%TO.C,C21*%
X217424999Y-71000000D03*
X218999999Y-71000000D03*
%TD*%
D24*
%TO.C,R10*%
X230462499Y-92400000D03*
X232337501Y-92400000D03*
%TD*%
D18*
%TO.C,R5*%
X224200000Y-82062499D03*
X224200000Y-83937501D03*
%TD*%
D24*
%TO.C,C14*%
X216625000Y-95800000D03*
X218500000Y-95800000D03*
%TD*%
D25*
%TO.C,R13*%
X223200000Y-87175000D03*
X223200000Y-88825000D03*
%TD*%
D26*
%TO.C,Y1*%
X212500000Y-71900000D03*
X211100000Y-71900000D03*
X211100000Y-73000000D03*
X212500000Y-73000000D03*
%TD*%
D27*
%TO.C,C1*%
X230100000Y-82487500D03*
X230100000Y-84062500D03*
%TD*%
D28*
%TO.C,R2*%
X233100000Y-84100000D03*
X233100000Y-82450000D03*
%TD*%
D29*
%TO.C,U3*%
X237600000Y-68075000D03*
X236650001Y-68075000D03*
X235700002Y-68075000D03*
X235700002Y-70350000D03*
X236650001Y-70350000D03*
X237600000Y-70350000D03*
%TD*%
D30*
%TO.C,IC2*%
X200960000Y-93500000D03*
X202230000Y-93500000D03*
X203500000Y-93500000D03*
X209070000Y-93500000D03*
X210340000Y-93500000D03*
X211610000Y-93500000D03*
X212880000Y-93500000D03*
X214150000Y-93500000D03*
X215420000Y-93500000D03*
X216690000Y-93500000D03*
X217960000Y-93500000D03*
X217960000Y-79500000D03*
X216690000Y-79500000D03*
X215420000Y-79500000D03*
X214150000Y-79500000D03*
X212880000Y-79500000D03*
X211610000Y-79500000D03*
X210340000Y-79500000D03*
X209070000Y-79500000D03*
X203500000Y-79500000D03*
X202230000Y-79500000D03*
X200960000Y-79500000D03*
%TD*%
D11*
%TO.C,R16*%
X199487501Y-61500000D03*
X197612499Y-61500000D03*
%TD*%
%TO.C,C16*%
X195299999Y-75500000D03*
X193424999Y-75500000D03*
%TD*%
D19*
%TO.C,C28*%
X217715000Y-66200000D03*
X218685000Y-66200000D03*
%TD*%
D24*
%TO.C,R11*%
X246324999Y-88750000D03*
X248200001Y-88750000D03*
%TD*%
D31*
%TO.C,U2*%
X224025000Y-58850000D03*
X224025000Y-59800000D03*
X224025000Y-60750000D03*
X226300000Y-60750000D03*
X226300000Y-58850000D03*
%TD*%
D32*
%TO.C,U6*%
X226400000Y-69142500D03*
X226400000Y-69777500D03*
X226399999Y-70412500D03*
X226400000Y-71047500D03*
X226400000Y-71682500D03*
X226400000Y-72317500D03*
X226400000Y-72952500D03*
X226399999Y-73587500D03*
X226400000Y-74222500D03*
X226400000Y-74857500D03*
X231600000Y-74857500D03*
X231600000Y-74222500D03*
X231600001Y-73587500D03*
X231600000Y-72952500D03*
X231600000Y-72317500D03*
X231600000Y-71682500D03*
X231600000Y-71047500D03*
X231600001Y-70412500D03*
X231600000Y-69777500D03*
X231600000Y-69142500D03*
%TD*%
D33*
%TO.C,D3*%
X246300001Y-82650000D03*
X248199999Y-82650000D03*
%TD*%
D25*
%TO.C,R12*%
X234700000Y-82475000D03*
X234700000Y-84125000D03*
%TD*%
D34*
%TO.C,IC1*%
X221950000Y-76500000D03*
X221950000Y-77000000D03*
X221950000Y-77500000D03*
X221950000Y-78000000D03*
X223950000Y-78000000D03*
X223950000Y-77500000D03*
X223950000Y-77000000D03*
X223950000Y-76500000D03*
D35*
X222950000Y-77250000D03*
%TD*%
D36*
%TO.C,U5*%
X214283200Y-65500000D03*
X214000357Y-65217157D03*
X213717514Y-64934314D03*
X213434672Y-64651472D03*
X213151829Y-64368629D03*
X212868986Y-64085786D03*
X212586144Y-63802944D03*
X212303301Y-63520101D03*
X212020458Y-63237258D03*
X211737616Y-62954416D03*
X211454773Y-62671573D03*
X211171930Y-62388730D03*
D37*
X210111270Y-62388730D03*
X209828427Y-62671573D03*
X209545584Y-62954416D03*
X209262742Y-63237258D03*
X208979899Y-63520101D03*
X208697056Y-63802944D03*
X208414214Y-64085786D03*
X208131371Y-64368629D03*
X207848528Y-64651472D03*
X207565686Y-64934314D03*
X207282843Y-65217157D03*
X207000000Y-65500000D03*
D36*
X207000000Y-66560660D03*
X207282843Y-66843503D03*
X207565686Y-67126346D03*
X207848528Y-67409188D03*
X208131371Y-67692031D03*
X208414214Y-67974874D03*
X208697056Y-68257716D03*
X208979899Y-68540559D03*
X209262742Y-68823402D03*
X209545584Y-69106244D03*
X209828427Y-69389087D03*
X210111270Y-69671930D03*
D37*
X211171930Y-69671930D03*
X211454773Y-69389087D03*
X211737616Y-69106244D03*
X212020458Y-68823402D03*
X212303301Y-68540559D03*
X212586144Y-68257716D03*
X212868986Y-67974874D03*
X213151829Y-67692031D03*
X213434672Y-67409188D03*
X213717514Y-67126346D03*
X214000357Y-66843503D03*
X214283200Y-66560660D03*
D38*
X210641600Y-66030330D03*
%TD*%
D39*
%TO.C,J2*%
X243895000Y-77390000D03*
X243895000Y-71610000D03*
D40*
X242820000Y-77700000D03*
X242820000Y-76900000D03*
D41*
X242820000Y-75750000D03*
X242820000Y-74750000D03*
X242820000Y-74250000D03*
X242820000Y-73250000D03*
D40*
X242820000Y-72100000D03*
X242820000Y-71300000D03*
X242820000Y-71300000D03*
X242820000Y-72100000D03*
D41*
X242820000Y-72750000D03*
X242820000Y-73750000D03*
X242820000Y-75250000D03*
X242820000Y-76250000D03*
D40*
X242820000Y-76900000D03*
X242820000Y-77700000D03*
D42*
X243395000Y-79610000D03*
X247325000Y-79610000D03*
X243395000Y-69390000D03*
X247325000Y-69390000D03*
%TD*%
D10*
%TO.C,H2*%
X245999999Y-56000001D03*
%TD*%
D43*
%TO.C,R8*%
X235600000Y-58250000D03*
X237250000Y-58250000D03*
%TD*%
D44*
%TO.C,L5*%
X198250000Y-66400000D03*
X198250000Y-65430000D03*
%TD*%
D20*
%TO.C,C26*%
X203235000Y-62510001D03*
X202265000Y-62510001D03*
%TD*%
D24*
%TO.C,R20*%
X235662499Y-61750000D03*
X237537501Y-61750000D03*
%TD*%
D12*
%TO.C,J6*%
X225420001Y-54500000D03*
D13*
X227960001Y-54500000D03*
X230500001Y-54500000D03*
X233040001Y-54500000D03*
%TD*%
D27*
%TO.C,C24*%
X207000000Y-71712500D03*
X207000000Y-73287500D03*
%TD*%
D11*
%TO.C,R3*%
X237587501Y-77100000D03*
X235712499Y-77100000D03*
%TD*%
D17*
%TO.C,L3*%
X217424998Y-69500000D03*
X219000000Y-69500000D03*
%TD*%
D45*
%TO.C,C11*%
X229799999Y-77700000D03*
X228224999Y-77700000D03*
%TD*%
D46*
%TO.C,C25*%
X214100000Y-73287500D03*
X214100000Y-71712500D03*
%TD*%
D27*
%TO.C,C23*%
X205500000Y-71712500D03*
X205500000Y-73287500D03*
%TD*%
D45*
%TO.C,L2*%
X219000000Y-68000000D03*
X217424998Y-68000000D03*
%TD*%
D17*
%TO.C,C20*%
X212212500Y-59000000D03*
X213787500Y-59000000D03*
%TD*%
D33*
%TO.C,D5*%
X246300001Y-86730000D03*
X248199999Y-86730000D03*
%TD*%
D28*
%TO.C,R1*%
X231600000Y-84100000D03*
X231600000Y-82450000D03*
%TD*%
D20*
%TO.C,L4*%
X197300000Y-65500000D03*
X196330000Y-65500000D03*
%TD*%
D43*
%TO.C,R7*%
X235600000Y-59750000D03*
X237250000Y-59750000D03*
%TD*%
D18*
%TO.C,C19*%
X221762500Y-58762500D03*
X221762500Y-60637500D03*
%TD*%
D19*
%TO.C,C29*%
X217730000Y-72700000D03*
X218700000Y-72700000D03*
%TD*%
D22*
%TO.C,R14*%
X202205000Y-58910000D03*
X203400000Y-58910000D03*
%TD*%
D27*
%TO.C,C22*%
X204000000Y-71712500D03*
X204000000Y-73287500D03*
%TD*%
D47*
%TO.C,C7*%
X231700000Y-87250001D03*
X231700000Y-90049999D03*
%TD*%
D45*
%TO.C,C13*%
X214337501Y-95800000D03*
X212762501Y-95800000D03*
%TD*%
D48*
%TO.C,RST1*%
X248550000Y-62000000D03*
X248550000Y-63600000D03*
X244450000Y-63600000D03*
X244450000Y-62000000D03*
%TD*%
D18*
%TO.C,C18*%
X228100000Y-86962500D03*
X228100000Y-88837500D03*
%TD*%
D12*
%TO.C,J1*%
X200000000Y-54500000D03*
D13*
X202540000Y-54500000D03*
X205080000Y-54500000D03*
X207620000Y-54500000D03*
%TD*%
D24*
%TO.C,R4*%
X235712499Y-75050000D03*
X237587501Y-75050000D03*
%TD*%
D33*
%TO.C,D4*%
X230550001Y-94825000D03*
X232449999Y-94825000D03*
%TD*%
D49*
%TO.C,C17*%
X242100000Y-86875001D03*
X242100000Y-85000001D03*
%TD*%
D11*
%TO.C,C4*%
X225825000Y-62725000D03*
X223950000Y-62725000D03*
%TD*%
D20*
%TO.C,C30*%
X200185000Y-65500000D03*
X199215000Y-65500000D03*
%TD*%
D50*
%TO.C,J4*%
X237000000Y-88875000D03*
X239000000Y-88875000D03*
D51*
X234650000Y-94625000D03*
X241350000Y-94625000D03*
%TD*%
D10*
%TO.C,H4*%
X245999999Y-92999999D03*
%TD*%
D24*
%TO.C,R9*%
X246262499Y-84650000D03*
X248137501Y-84650000D03*
%TD*%
D27*
%TO.C,C2*%
X219462500Y-58912500D03*
X219462500Y-60487500D03*
%TD*%
D52*
%TO.C,E1*%
X195200000Y-65500000D03*
X191800000Y-65500000D03*
%TD*%
D17*
%TO.C,C3*%
X217425000Y-64500000D03*
X219000000Y-64500000D03*
%TD*%
D21*
%TO.C,D1*%
X238500000Y-55399998D03*
X238500000Y-53500000D03*
%TD*%
D24*
%TO.C,R6*%
X230062499Y-62800000D03*
X231937501Y-62800000D03*
%TD*%
D53*
%TO.C,J5*%
X195200000Y-81300000D03*
D54*
X198280000Y-81300000D03*
D55*
X192120000Y-81300000D03*
%TD*%
D46*
%TO.C,C9*%
X209500000Y-73287500D03*
X209500000Y-71712500D03*
%TD*%
M02*
