%TF.GenerationSoftware,KiCad,Pcbnew,9.0.3*%
%TF.CreationDate,2025-07-17T21:10:23+02:00*%
%TF.ProjectId,LoRa_Project,4c6f5261-5f50-4726-9f6a-6563742e6b69,rev?*%
%TF.SameCoordinates,Original*%
%TF.FileFunction,Copper,L2,Inr*%
%TF.FilePolarity,Positive*%
%FSLAX46Y46*%
G04 Gerber Fmt 4.6, Leading zero omitted, Abs format (unit mm)*
G04 Created by KiCad (PCBNEW 9.0.3) date 2025-07-17 21:10:23*
%MOMM*%
%LPD*%
G01*
G04 APERTURE LIST*
%TA.AperFunction,ComponentPad*%
%ADD10C,5.600000*%
%TD*%
%TA.AperFunction,ComponentPad*%
%ADD11R,1.700000X1.700000*%
%TD*%
%TA.AperFunction,ComponentPad*%
%ADD12C,1.700000*%
%TD*%
%TA.AperFunction,HeatsinkPad*%
%ADD13C,0.500000*%
%TD*%
%TA.AperFunction,ViaPad*%
%ADD14C,0.600000*%
%TD*%
%TA.AperFunction,ViaPad*%
%ADD15C,1.000000*%
%TD*%
G04 APERTURE END LIST*
D10*
%TO.N,GND*%
%TO.C,H1*%
X194000000Y-56000000D03*
%TD*%
D11*
%TO.N,+3V3*%
%TO.C,J3*%
X212690000Y-54500000D03*
D12*
%TO.N,GND*%
X215230000Y-54500000D03*
%TO.N,I2C_SDA*%
X217770000Y-54500000D03*
%TO.N,I2C_SCL*%
X220310000Y-54500000D03*
%TD*%
D10*
%TO.N,GND*%
%TO.C,H3*%
X194000000Y-93000000D03*
%TD*%
D13*
%TO.N,GND*%
%TO.C,U5*%
X213187184Y-66030330D03*
X212338656Y-65181802D03*
X211490128Y-64333274D03*
X210641600Y-63484746D03*
X212338656Y-66878858D03*
X211490128Y-66030330D03*
X210641600Y-65181802D03*
X209793072Y-64333274D03*
X211490128Y-67727386D03*
X210641600Y-66878858D03*
X209793072Y-66030330D03*
X208944544Y-65181802D03*
X210641600Y-68575914D03*
X209793072Y-67727386D03*
X208944544Y-66878858D03*
X208096016Y-66030330D03*
%TD*%
D10*
%TO.N,GND*%
%TO.C,H2*%
X245999999Y-56000001D03*
%TD*%
D11*
%TO.N,+3V3*%
%TO.C,J6*%
X225420001Y-54500000D03*
D12*
%TO.N,GND*%
X227960001Y-54500000D03*
%TO.N,SWD_CLK*%
X230500001Y-54500000D03*
%TO.N,SWD_IO*%
X233040001Y-54500000D03*
%TD*%
D11*
%TO.N,+3V3*%
%TO.C,J1*%
X200000000Y-54500000D03*
D12*
%TO.N,GND*%
X202540000Y-54500000D03*
%TO.N,I2C_SDA*%
X205080000Y-54500000D03*
%TO.N,I2C_SCL*%
X207620000Y-54500000D03*
%TD*%
D10*
%TO.N,GND*%
%TO.C,H4*%
X245999999Y-92999999D03*
%TD*%
D14*
%TO.N,*%
X225000000Y-69800000D03*
%TO.N,VBUS*%
X241200000Y-76900000D03*
X241200000Y-72100000D03*
X241200000Y-72800000D03*
X229600000Y-87000000D03*
X241200000Y-76200000D03*
%TO.N,GND*%
X201500000Y-75200000D03*
X205400000Y-69500000D03*
X244850000Y-81500000D03*
X201300000Y-72600000D03*
X205500000Y-75300000D03*
X241200000Y-70500000D03*
X198000000Y-64400000D03*
X202100000Y-65700000D03*
X218100000Y-60500000D03*
X201500000Y-76400000D03*
X241200000Y-77800000D03*
X233100000Y-85400000D03*
X201100000Y-62500000D03*
X201000000Y-95634999D03*
X203950000Y-75300000D03*
X199400000Y-66500000D03*
X200700000Y-71800000D03*
X196800000Y-71400000D03*
X244850000Y-85550000D03*
X206900000Y-69500000D03*
X241200000Y-69700000D03*
X241200000Y-78600000D03*
X211600000Y-95734999D03*
X239100000Y-86300000D03*
X191300000Y-68700000D03*
X238100000Y-86300000D03*
X239000000Y-80100000D03*
X196800000Y-72600000D03*
X213800000Y-57650000D03*
X241200000Y-71300000D03*
X202000000Y-70600000D03*
X196800000Y-73900000D03*
X191300000Y-72700000D03*
X224600000Y-72300000D03*
X203500000Y-95634999D03*
X191300000Y-71500000D03*
X227800000Y-84700000D03*
X228000000Y-62700000D03*
X220400000Y-67050000D03*
X240000000Y-86300000D03*
X200700000Y-69400000D03*
X199400000Y-67400000D03*
X235650000Y-78700000D03*
X196800000Y-75200000D03*
X229600000Y-89400000D03*
X210300000Y-95734999D03*
X193600000Y-68700000D03*
X222800000Y-62000000D03*
X246500000Y-63600000D03*
X196800000Y-70200000D03*
X219900000Y-95800000D03*
X217400000Y-76406249D03*
X204100000Y-67600000D03*
X222675000Y-63325000D03*
X199400000Y-68300000D03*
X203500000Y-77000000D03*
X207050000Y-75300000D03*
X201700000Y-67200000D03*
X228100000Y-90100000D03*
X200800000Y-66300000D03*
X198100000Y-67400000D03*
X199200000Y-64300000D03*
X229100000Y-93700000D03*
X221950000Y-75350000D03*
X204000000Y-69300000D03*
X192400000Y-68700000D03*
X219100000Y-78700000D03*
X227700000Y-66800000D03*
X198100000Y-68300000D03*
X198900000Y-69800000D03*
X240000000Y-61500000D03*
X231212500Y-77700000D03*
X230100000Y-85400000D03*
X202200000Y-95634999D03*
X220400000Y-65300000D03*
X214100000Y-75293749D03*
X241200000Y-79400000D03*
X196000000Y-68500000D03*
X191300000Y-74000000D03*
X209069999Y-95769999D03*
X193300000Y-71500000D03*
X193300000Y-73900000D03*
X236650000Y-66550000D03*
X221500000Y-72700000D03*
X201100000Y-64800000D03*
X222000000Y-74600000D03*
X234700000Y-85400000D03*
X201500000Y-77528517D03*
X197700000Y-69600000D03*
X209500000Y-75350000D03*
X235700000Y-73450000D03*
X220456248Y-71000000D03*
%TO.N,+3V3*%
X204250000Y-63050000D03*
X205050000Y-59900000D03*
D15*
X230100000Y-59500000D03*
D14*
X215500000Y-95800000D03*
D15*
X230100000Y-61000000D03*
D14*
X226300000Y-92900000D03*
X216000000Y-65550000D03*
X216650000Y-73400000D03*
D15*
X231500000Y-61000000D03*
D14*
X235550000Y-57050000D03*
D15*
X230100000Y-58000000D03*
D14*
X243250000Y-88550000D03*
X212250000Y-57650000D03*
X204250000Y-65300000D03*
D15*
X231500000Y-58000000D03*
D14*
X226225000Y-77725000D03*
X202200000Y-59900000D03*
D15*
X231500000Y-59500000D03*
D14*
%TO.N,+BATT*%
X220200000Y-76400000D03*
X231200000Y-85700000D03*
X220200000Y-77300000D03*
X225500000Y-80900000D03*
X232000000Y-85700000D03*
%TO.N,/nRF52840 and LoRa/DEC4_6*%
X216000000Y-69400000D03*
X208200000Y-69700000D03*
%TO.N,/Peripherals/RXLED*%
X231500000Y-66900000D03*
X236800000Y-53100000D03*
%TO.N,/Peripherals/TXLED*%
X240000000Y-53100000D03*
X224600000Y-74900000D03*
%TO.N,I2C_SDA*%
X203400000Y-59900000D03*
X222200000Y-70600000D03*
X205500000Y-63150000D03*
%TO.N,I2C_SCL*%
X206350000Y-63150000D03*
X222200000Y-69600000D03*
X206250000Y-59900000D03*
%TO.N,/nRF52840 and LoRa/LORA_SPI_CS*%
X212800000Y-61350000D03*
X209069999Y-77800000D03*
%TO.N,/nRF52840 and LoRa/SPI_SCK*%
X210340000Y-77800000D03*
X207250000Y-63150000D03*
%TO.N,/nRF52840 and LoRa/LORA_BUSY*%
X215420000Y-77800001D03*
X215899265Y-71400735D03*
%TO.N,/nRF52840 and LoRa/LORA_IRQ*%
X216690000Y-77800000D03*
X212775000Y-62225000D03*
%TO.N,/nRF52840 and LoRa/SPI_MISO*%
X212880000Y-77800000D03*
X208950000Y-60800000D03*
%TO.N,/nRF52840 and LoRa/LORA_NRST*%
X214150000Y-77800000D03*
X213825000Y-69350000D03*
%TO.N,/nRF52840 and LoRa/SPI_MOSI*%
X211610000Y-77800000D03*
X210000000Y-60800000D03*
%TO.N,SWD_IO*%
X206100000Y-67500000D03*
X218000000Y-85700000D03*
X206200000Y-77800000D03*
%TO.N,SWD_CLK*%
X206700000Y-68200000D03*
X218000000Y-84400000D03*
X207500000Y-77800000D03*
%TO.N,Net-(U4-STAT)*%
X221500000Y-87200000D03*
X236500000Y-84300000D03*
%TO.N,Net-(U5-~{RESET})*%
X207475000Y-60350000D03*
X246500000Y-62000000D03*
X207475000Y-61875000D03*
%TO.N,UART_TXD*%
X214800000Y-61000000D03*
X216500000Y-62200000D03*
%TO.N,/Power/V_SW*%
X222650000Y-82050000D03*
X216150000Y-58700000D03*
X221775000Y-82050000D03*
X220900000Y-82050000D03*
X217025000Y-58700000D03*
X217900000Y-58700000D03*
%TD*%
%TA.AperFunction,Conductor*%
%TO.N,GND*%
G36*
X236072871Y-52520185D02*
G01*
X236118626Y-52572989D01*
X236128570Y-52642147D01*
X236108933Y-52693392D01*
X236090610Y-52720812D01*
X236090602Y-52720827D01*
X236030264Y-52866498D01*
X236030261Y-52866510D01*
X235999500Y-53021153D01*
X235999500Y-53178846D01*
X236030261Y-53333489D01*
X236030264Y-53333501D01*
X236090602Y-53479172D01*
X236090609Y-53479185D01*
X236178210Y-53610288D01*
X236178213Y-53610292D01*
X236289707Y-53721786D01*
X236289711Y-53721789D01*
X236420814Y-53809390D01*
X236420827Y-53809397D01*
X236566498Y-53869735D01*
X236566503Y-53869737D01*
X236721153Y-53900499D01*
X236721156Y-53900500D01*
X236721158Y-53900500D01*
X236878844Y-53900500D01*
X236878845Y-53900499D01*
X237033497Y-53869737D01*
X237179179Y-53809394D01*
X237310289Y-53721789D01*
X237421789Y-53610289D01*
X237509394Y-53479179D01*
X237569737Y-53333497D01*
X237600500Y-53178842D01*
X237600500Y-53021158D01*
X237600500Y-53021155D01*
X237600499Y-53021153D01*
X237584172Y-52939071D01*
X237569737Y-52866503D01*
X237538332Y-52790683D01*
X237509397Y-52720827D01*
X237509389Y-52720812D01*
X237491067Y-52693392D01*
X237470188Y-52626715D01*
X237488672Y-52559334D01*
X237540650Y-52512644D01*
X237594168Y-52500500D01*
X239205832Y-52500500D01*
X239272871Y-52520185D01*
X239318626Y-52572989D01*
X239328570Y-52642147D01*
X239308933Y-52693392D01*
X239290610Y-52720812D01*
X239290602Y-52720827D01*
X239230264Y-52866498D01*
X239230261Y-52866510D01*
X239199500Y-53021153D01*
X239199500Y-53178846D01*
X239230261Y-53333489D01*
X239230264Y-53333501D01*
X239290602Y-53479172D01*
X239290609Y-53479185D01*
X239378210Y-53610288D01*
X239378213Y-53610292D01*
X239489707Y-53721786D01*
X239489711Y-53721789D01*
X239620814Y-53809390D01*
X239620827Y-53809397D01*
X239766498Y-53869735D01*
X239766503Y-53869737D01*
X239921153Y-53900499D01*
X239921156Y-53900500D01*
X239921158Y-53900500D01*
X240078844Y-53900500D01*
X240078845Y-53900499D01*
X240233497Y-53869737D01*
X240379179Y-53809394D01*
X240510289Y-53721789D01*
X240621789Y-53610289D01*
X240709394Y-53479179D01*
X240769737Y-53333497D01*
X240800500Y-53178842D01*
X240800500Y-53021158D01*
X240800500Y-53021155D01*
X240800499Y-53021153D01*
X240784172Y-52939071D01*
X240769737Y-52866503D01*
X240738332Y-52790683D01*
X240709397Y-52720827D01*
X240709389Y-52720812D01*
X240691067Y-52693392D01*
X240670188Y-52626715D01*
X240688672Y-52559334D01*
X240740650Y-52512644D01*
X240794168Y-52500500D01*
X246934108Y-52500500D01*
X246996249Y-52500500D01*
X247003736Y-52500726D01*
X247293796Y-52518271D01*
X247308657Y-52520075D01*
X247590798Y-52571780D01*
X247605335Y-52575363D01*
X247879172Y-52660695D01*
X247893163Y-52666000D01*
X248154743Y-52783727D01*
X248167989Y-52790680D01*
X248413465Y-52939075D01*
X248425776Y-52947573D01*
X248519697Y-53021155D01*
X248651573Y-53124473D01*
X248662781Y-53134403D01*
X248865596Y-53337218D01*
X248875526Y-53348426D01*
X249027586Y-53542517D01*
X249052422Y-53574217D01*
X249060926Y-53586537D01*
X249112405Y-53671694D01*
X249209316Y-53832004D01*
X249216275Y-53845263D01*
X249333997Y-54106831D01*
X249339306Y-54120832D01*
X249424635Y-54394663D01*
X249428219Y-54409201D01*
X249479923Y-54691340D01*
X249481728Y-54706205D01*
X249499274Y-54996263D01*
X249499500Y-55003750D01*
X249499500Y-93996249D01*
X249499274Y-94003736D01*
X249481728Y-94293794D01*
X249479923Y-94308659D01*
X249428219Y-94590798D01*
X249424635Y-94605336D01*
X249339306Y-94879167D01*
X249333997Y-94893168D01*
X249216275Y-95154736D01*
X249209316Y-95167995D01*
X249060928Y-95413459D01*
X249052422Y-95425782D01*
X248875526Y-95651573D01*
X248865596Y-95662781D01*
X248662781Y-95865596D01*
X248651573Y-95875526D01*
X248425782Y-96052422D01*
X248413459Y-96060928D01*
X248167995Y-96209316D01*
X248154736Y-96216275D01*
X247893168Y-96333997D01*
X247879167Y-96339306D01*
X247605336Y-96424635D01*
X247590798Y-96428219D01*
X247308659Y-96479923D01*
X247293794Y-96481728D01*
X247003736Y-96499274D01*
X246996249Y-96499500D01*
X216227350Y-96499500D01*
X216160311Y-96479815D01*
X216114556Y-96427011D01*
X216104612Y-96357853D01*
X216124248Y-96306609D01*
X216209390Y-96179185D01*
X216209390Y-96179184D01*
X216209394Y-96179179D01*
X216269737Y-96033497D01*
X216300500Y-95878842D01*
X216300500Y-95721158D01*
X216300500Y-95721155D01*
X216300499Y-95721153D01*
X216288888Y-95662781D01*
X216269737Y-95566503D01*
X216211449Y-95425782D01*
X216209397Y-95420827D01*
X216209390Y-95420814D01*
X216121789Y-95289711D01*
X216121786Y-95289707D01*
X216010292Y-95178213D01*
X216010288Y-95178210D01*
X215879185Y-95090609D01*
X215879172Y-95090602D01*
X215733501Y-95030264D01*
X215733489Y-95030261D01*
X215578845Y-94999500D01*
X215578842Y-94999500D01*
X215421158Y-94999500D01*
X215421155Y-94999500D01*
X215266510Y-95030261D01*
X215266498Y-95030264D01*
X215120827Y-95090602D01*
X215120814Y-95090609D01*
X214989711Y-95178210D01*
X214989707Y-95178213D01*
X214878213Y-95289707D01*
X214878210Y-95289711D01*
X214790609Y-95420814D01*
X214790602Y-95420827D01*
X214730264Y-95566498D01*
X214730261Y-95566510D01*
X214699500Y-95721153D01*
X214699500Y-95878846D01*
X214730261Y-96033489D01*
X214730264Y-96033501D01*
X214790602Y-96179172D01*
X214790609Y-96179185D01*
X214875752Y-96306609D01*
X214896630Y-96373286D01*
X214878146Y-96440666D01*
X214826167Y-96487357D01*
X214772650Y-96499500D01*
X193003751Y-96499500D01*
X192996264Y-96499274D01*
X192706205Y-96481728D01*
X192691340Y-96479923D01*
X192409201Y-96428219D01*
X192394663Y-96424635D01*
X192120832Y-96339306D01*
X192106831Y-96333997D01*
X191845263Y-96216275D01*
X191832004Y-96209316D01*
X191586540Y-96060928D01*
X191574217Y-96052422D01*
X191348426Y-95875526D01*
X191337218Y-95865596D01*
X191134403Y-95662781D01*
X191124473Y-95651573D01*
X190947573Y-95425776D01*
X190939075Y-95413465D01*
X190790680Y-95167989D01*
X190783727Y-95154743D01*
X190666000Y-94893163D01*
X190660693Y-94879167D01*
X190575364Y-94605336D01*
X190571780Y-94590798D01*
X190520076Y-94308659D01*
X190518271Y-94293794D01*
X190500726Y-94003736D01*
X190500500Y-93996249D01*
X190500500Y-92821153D01*
X225499500Y-92821153D01*
X225499500Y-92978846D01*
X225530261Y-93133489D01*
X225530264Y-93133501D01*
X225590602Y-93279172D01*
X225590609Y-93279185D01*
X225678210Y-93410288D01*
X225678213Y-93410292D01*
X225789707Y-93521786D01*
X225789711Y-93521789D01*
X225920814Y-93609390D01*
X225920827Y-93609397D01*
X226066498Y-93669735D01*
X226066503Y-93669737D01*
X226221153Y-93700499D01*
X226221156Y-93700500D01*
X226221158Y-93700500D01*
X226378844Y-93700500D01*
X226378845Y-93700499D01*
X226533497Y-93669737D01*
X226679179Y-93609394D01*
X226810289Y-93521789D01*
X226921789Y-93410289D01*
X227009394Y-93279179D01*
X227069737Y-93133497D01*
X227100500Y-92978842D01*
X227100500Y-92821158D01*
X227100500Y-92821155D01*
X227100499Y-92821153D01*
X227069738Y-92666510D01*
X227069737Y-92666503D01*
X227069735Y-92666498D01*
X227009397Y-92520827D01*
X227009390Y-92520814D01*
X226921789Y-92389711D01*
X226921786Y-92389707D01*
X226810292Y-92278213D01*
X226810288Y-92278210D01*
X226679185Y-92190609D01*
X226679172Y-92190602D01*
X226533501Y-92130264D01*
X226533489Y-92130261D01*
X226378845Y-92099500D01*
X226378842Y-92099500D01*
X226221158Y-92099500D01*
X226221155Y-92099500D01*
X226066510Y-92130261D01*
X226066498Y-92130264D01*
X225920827Y-92190602D01*
X225920814Y-92190609D01*
X225789711Y-92278210D01*
X225789707Y-92278213D01*
X225678213Y-92389707D01*
X225678210Y-92389711D01*
X225590609Y-92520814D01*
X225590602Y-92520827D01*
X225530264Y-92666498D01*
X225530261Y-92666510D01*
X225499500Y-92821153D01*
X190500500Y-92821153D01*
X190500500Y-88471153D01*
X242449500Y-88471153D01*
X242449500Y-88628846D01*
X242480261Y-88783489D01*
X242480264Y-88783501D01*
X242540602Y-88929172D01*
X242540609Y-88929185D01*
X242628210Y-89060288D01*
X242628213Y-89060292D01*
X242739707Y-89171786D01*
X242739711Y-89171789D01*
X242870814Y-89259390D01*
X242870827Y-89259397D01*
X243016498Y-89319735D01*
X243016503Y-89319737D01*
X243171153Y-89350499D01*
X243171156Y-89350500D01*
X243171158Y-89350500D01*
X243328844Y-89350500D01*
X243328845Y-89350499D01*
X243483497Y-89319737D01*
X243629179Y-89259394D01*
X243760289Y-89171789D01*
X243871789Y-89060289D01*
X243959394Y-88929179D01*
X244019737Y-88783497D01*
X244050500Y-88628842D01*
X244050500Y-88471158D01*
X244050500Y-88471155D01*
X244050499Y-88471153D01*
X244019738Y-88316510D01*
X244019737Y-88316503D01*
X244019735Y-88316498D01*
X243959397Y-88170827D01*
X243959390Y-88170814D01*
X243871789Y-88039711D01*
X243871786Y-88039707D01*
X243760292Y-87928213D01*
X243760288Y-87928210D01*
X243629185Y-87840609D01*
X243629172Y-87840602D01*
X243483501Y-87780264D01*
X243483489Y-87780261D01*
X243328845Y-87749500D01*
X243328842Y-87749500D01*
X243171158Y-87749500D01*
X243171155Y-87749500D01*
X243016510Y-87780261D01*
X243016498Y-87780264D01*
X242870827Y-87840602D01*
X242870814Y-87840609D01*
X242739711Y-87928210D01*
X242739707Y-87928213D01*
X242628213Y-88039707D01*
X242628210Y-88039711D01*
X242540609Y-88170814D01*
X242540602Y-88170827D01*
X242480264Y-88316498D01*
X242480261Y-88316510D01*
X242449500Y-88471153D01*
X190500500Y-88471153D01*
X190500500Y-87121153D01*
X220699500Y-87121153D01*
X220699500Y-87278846D01*
X220730261Y-87433489D01*
X220730264Y-87433501D01*
X220790602Y-87579172D01*
X220790609Y-87579185D01*
X220878210Y-87710288D01*
X220878213Y-87710292D01*
X220989707Y-87821786D01*
X220989711Y-87821789D01*
X221120814Y-87909390D01*
X221120827Y-87909397D01*
X221166254Y-87928213D01*
X221266503Y-87969737D01*
X221421153Y-88000499D01*
X221421156Y-88000500D01*
X221421158Y-88000500D01*
X221578844Y-88000500D01*
X221578845Y-88000499D01*
X221733497Y-87969737D01*
X221879179Y-87909394D01*
X222010289Y-87821789D01*
X222121789Y-87710289D01*
X222209394Y-87579179D01*
X222269737Y-87433497D01*
X222300500Y-87278842D01*
X222300500Y-87121158D01*
X222300500Y-87121155D01*
X222300499Y-87121153D01*
X222269737Y-86966503D01*
X222250955Y-86921158D01*
X222250953Y-86921153D01*
X228799500Y-86921153D01*
X228799500Y-87078846D01*
X228830261Y-87233489D01*
X228830264Y-87233501D01*
X228890602Y-87379172D01*
X228890609Y-87379185D01*
X228978210Y-87510288D01*
X228978213Y-87510292D01*
X229089707Y-87621786D01*
X229089711Y-87621789D01*
X229220814Y-87709390D01*
X229220827Y-87709397D01*
X229317646Y-87749500D01*
X229366503Y-87769737D01*
X229521153Y-87800499D01*
X229521156Y-87800500D01*
X229521158Y-87800500D01*
X229678844Y-87800500D01*
X229678845Y-87800499D01*
X229833497Y-87769737D01*
X229979179Y-87709394D01*
X230110289Y-87621789D01*
X230221789Y-87510289D01*
X230309394Y-87379179D01*
X230369737Y-87233497D01*
X230400500Y-87078842D01*
X230400500Y-86921158D01*
X230400500Y-86921155D01*
X230400499Y-86921153D01*
X230380543Y-86820827D01*
X230369737Y-86766503D01*
X230337929Y-86689711D01*
X230309397Y-86620827D01*
X230309390Y-86620814D01*
X230221789Y-86489711D01*
X230221786Y-86489707D01*
X230110292Y-86378213D01*
X230110288Y-86378210D01*
X229979185Y-86290609D01*
X229979172Y-86290602D01*
X229833501Y-86230264D01*
X229833489Y-86230261D01*
X229678845Y-86199500D01*
X229678842Y-86199500D01*
X229521158Y-86199500D01*
X229521155Y-86199500D01*
X229366510Y-86230261D01*
X229366498Y-86230264D01*
X229220827Y-86290602D01*
X229220814Y-86290609D01*
X229089711Y-86378210D01*
X229089707Y-86378213D01*
X228978213Y-86489707D01*
X228978210Y-86489711D01*
X228890609Y-86620814D01*
X228890602Y-86620827D01*
X228830264Y-86766498D01*
X228830261Y-86766510D01*
X228799500Y-86921153D01*
X222250953Y-86921153D01*
X222209397Y-86820827D01*
X222209390Y-86820814D01*
X222121789Y-86689711D01*
X222121786Y-86689707D01*
X222010292Y-86578213D01*
X222010288Y-86578210D01*
X221879185Y-86490609D01*
X221879172Y-86490602D01*
X221733501Y-86430264D01*
X221733489Y-86430261D01*
X221578845Y-86399500D01*
X221578842Y-86399500D01*
X221421158Y-86399500D01*
X221421155Y-86399500D01*
X221266510Y-86430261D01*
X221266498Y-86430264D01*
X221120827Y-86490602D01*
X221120814Y-86490609D01*
X220989711Y-86578210D01*
X220989707Y-86578213D01*
X220878213Y-86689707D01*
X220878210Y-86689711D01*
X220790609Y-86820814D01*
X220790602Y-86820827D01*
X220730264Y-86966498D01*
X220730261Y-86966510D01*
X220699500Y-87121153D01*
X190500500Y-87121153D01*
X190500500Y-84321153D01*
X217199500Y-84321153D01*
X217199500Y-84478846D01*
X217230261Y-84633489D01*
X217230264Y-84633501D01*
X217290602Y-84779172D01*
X217290609Y-84779185D01*
X217378210Y-84910288D01*
X217378213Y-84910292D01*
X217430240Y-84962319D01*
X217463725Y-85023642D01*
X217458741Y-85093334D01*
X217430240Y-85137681D01*
X217378213Y-85189707D01*
X217378210Y-85189711D01*
X217290609Y-85320814D01*
X217290602Y-85320827D01*
X217230264Y-85466498D01*
X217230261Y-85466510D01*
X217199500Y-85621153D01*
X217199500Y-85778846D01*
X217230261Y-85933489D01*
X217230264Y-85933501D01*
X217290602Y-86079172D01*
X217290609Y-86079185D01*
X217378210Y-86210288D01*
X217378213Y-86210292D01*
X217489707Y-86321786D01*
X217489711Y-86321789D01*
X217620814Y-86409390D01*
X217620827Y-86409397D01*
X217766498Y-86469735D01*
X217766503Y-86469737D01*
X217921153Y-86500499D01*
X217921156Y-86500500D01*
X217921158Y-86500500D01*
X218078844Y-86500500D01*
X218078845Y-86500499D01*
X218233497Y-86469737D01*
X218379179Y-86409394D01*
X218510289Y-86321789D01*
X218621789Y-86210289D01*
X218709394Y-86079179D01*
X218769737Y-85933497D01*
X218800500Y-85778842D01*
X218800500Y-85621158D01*
X218800500Y-85621155D01*
X218800499Y-85621153D01*
X230399500Y-85621153D01*
X230399500Y-85778846D01*
X230430261Y-85933489D01*
X230430264Y-85933501D01*
X230490602Y-86079172D01*
X230490609Y-86079185D01*
X230578210Y-86210288D01*
X230578213Y-86210292D01*
X230689707Y-86321786D01*
X230689711Y-86321789D01*
X230820814Y-86409390D01*
X230820827Y-86409397D01*
X230966498Y-86469735D01*
X230966503Y-86469737D01*
X231121153Y-86500499D01*
X231121156Y-86500500D01*
X231121158Y-86500500D01*
X231278844Y-86500500D01*
X231278845Y-86500499D01*
X231433497Y-86469737D01*
X231528794Y-86430264D01*
X231552548Y-86420425D01*
X231622017Y-86412956D01*
X231647452Y-86420425D01*
X231671206Y-86430264D01*
X231766503Y-86469737D01*
X231921153Y-86500499D01*
X231921156Y-86500500D01*
X231921158Y-86500500D01*
X232078844Y-86500500D01*
X232078845Y-86500499D01*
X232233497Y-86469737D01*
X232379179Y-86409394D01*
X232510289Y-86321789D01*
X232621789Y-86210289D01*
X232709394Y-86079179D01*
X232769737Y-85933497D01*
X232800500Y-85778842D01*
X232800500Y-85621158D01*
X232800500Y-85621155D01*
X232800499Y-85621153D01*
X232769738Y-85466510D01*
X232769737Y-85466503D01*
X232769735Y-85466498D01*
X232709397Y-85320827D01*
X232709390Y-85320814D01*
X232621789Y-85189711D01*
X232621786Y-85189707D01*
X232510292Y-85078213D01*
X232510288Y-85078210D01*
X232379185Y-84990609D01*
X232379172Y-84990602D01*
X232233501Y-84930264D01*
X232233489Y-84930261D01*
X232078845Y-84899500D01*
X232078842Y-84899500D01*
X231921158Y-84899500D01*
X231921155Y-84899500D01*
X231766510Y-84930261D01*
X231766498Y-84930264D01*
X231647452Y-84979574D01*
X231577982Y-84987043D01*
X231552548Y-84979574D01*
X231433501Y-84930264D01*
X231433489Y-84930261D01*
X231278845Y-84899500D01*
X231278842Y-84899500D01*
X231121158Y-84899500D01*
X231121155Y-84899500D01*
X230966510Y-84930261D01*
X230966498Y-84930264D01*
X230820827Y-84990602D01*
X230820814Y-84990609D01*
X230689711Y-85078210D01*
X230689707Y-85078213D01*
X230578213Y-85189707D01*
X230578210Y-85189711D01*
X230490609Y-85320814D01*
X230490602Y-85320827D01*
X230430264Y-85466498D01*
X230430261Y-85466510D01*
X230399500Y-85621153D01*
X218800499Y-85621153D01*
X218769738Y-85466510D01*
X218769737Y-85466503D01*
X218769735Y-85466498D01*
X218709397Y-85320827D01*
X218709390Y-85320814D01*
X218621789Y-85189711D01*
X218621786Y-85189707D01*
X218569760Y-85137681D01*
X218536275Y-85076358D01*
X218541259Y-85006666D01*
X218569760Y-84962319D01*
X218621786Y-84910292D01*
X218621789Y-84910289D01*
X218709394Y-84779179D01*
X218769737Y-84633497D01*
X218800500Y-84478842D01*
X218800500Y-84321158D01*
X218800500Y-84321155D01*
X218784209Y-84239258D01*
X218784209Y-84239257D01*
X218780608Y-84221153D01*
X235699500Y-84221153D01*
X235699500Y-84378846D01*
X235730261Y-84533489D01*
X235730264Y-84533501D01*
X235790602Y-84679172D01*
X235790609Y-84679185D01*
X235878210Y-84810288D01*
X235878213Y-84810292D01*
X235989707Y-84921786D01*
X235989711Y-84921789D01*
X236120814Y-85009390D01*
X236120827Y-85009397D01*
X236218853Y-85050000D01*
X236266503Y-85069737D01*
X236421153Y-85100499D01*
X236421156Y-85100500D01*
X236421158Y-85100500D01*
X236578844Y-85100500D01*
X236578845Y-85100499D01*
X236733497Y-85069737D01*
X236879179Y-85009394D01*
X237010289Y-84921789D01*
X237121789Y-84810289D01*
X237209394Y-84679179D01*
X237269737Y-84533497D01*
X237300500Y-84378842D01*
X237300500Y-84221158D01*
X237300500Y-84221155D01*
X237300499Y-84221153D01*
X237269738Y-84066510D01*
X237269737Y-84066503D01*
X237250812Y-84020814D01*
X237209397Y-83920827D01*
X237209390Y-83920814D01*
X237121789Y-83789711D01*
X237121786Y-83789707D01*
X237010292Y-83678213D01*
X237010288Y-83678210D01*
X236879185Y-83590609D01*
X236879172Y-83590602D01*
X236733501Y-83530264D01*
X236733489Y-83530261D01*
X236578845Y-83499500D01*
X236578842Y-83499500D01*
X236421158Y-83499500D01*
X236421155Y-83499500D01*
X236266510Y-83530261D01*
X236266498Y-83530264D01*
X236120827Y-83590602D01*
X236120814Y-83590609D01*
X235989711Y-83678210D01*
X235989707Y-83678213D01*
X235878213Y-83789707D01*
X235878210Y-83789711D01*
X235790609Y-83920814D01*
X235790602Y-83920827D01*
X235730264Y-84066498D01*
X235730261Y-84066510D01*
X235699500Y-84221153D01*
X218780608Y-84221153D01*
X218769738Y-84166510D01*
X218769737Y-84166503D01*
X218728314Y-84066498D01*
X218709397Y-84020827D01*
X218709390Y-84020814D01*
X218621789Y-83889711D01*
X218621786Y-83889707D01*
X218510292Y-83778213D01*
X218510288Y-83778210D01*
X218379185Y-83690609D01*
X218379172Y-83690602D01*
X218233501Y-83630264D01*
X218233489Y-83630261D01*
X218078845Y-83599500D01*
X218078842Y-83599500D01*
X217921158Y-83599500D01*
X217921155Y-83599500D01*
X217766510Y-83630261D01*
X217766498Y-83630264D01*
X217620827Y-83690602D01*
X217620814Y-83690609D01*
X217489711Y-83778210D01*
X217489707Y-83778213D01*
X217378213Y-83889707D01*
X217378210Y-83889711D01*
X217290609Y-84020814D01*
X217290602Y-84020827D01*
X217230264Y-84166498D01*
X217230261Y-84166510D01*
X217199500Y-84321153D01*
X190500500Y-84321153D01*
X190500500Y-81971153D01*
X220099500Y-81971153D01*
X220099500Y-82128846D01*
X220130261Y-82283489D01*
X220130264Y-82283501D01*
X220190602Y-82429172D01*
X220190609Y-82429185D01*
X220278210Y-82560288D01*
X220278213Y-82560292D01*
X220389707Y-82671786D01*
X220389711Y-82671789D01*
X220520814Y-82759390D01*
X220520827Y-82759397D01*
X220666498Y-82819735D01*
X220666503Y-82819737D01*
X220821153Y-82850499D01*
X220821156Y-82850500D01*
X220821158Y-82850500D01*
X220978844Y-82850500D01*
X220978845Y-82850499D01*
X221133497Y-82819737D01*
X221189120Y-82796697D01*
X221284808Y-82757063D01*
X221285266Y-82758170D01*
X221347447Y-82745223D01*
X221389929Y-82757696D01*
X221390192Y-82757063D01*
X221541498Y-82819735D01*
X221541503Y-82819737D01*
X221696153Y-82850499D01*
X221696156Y-82850500D01*
X221696158Y-82850500D01*
X221853844Y-82850500D01*
X221853845Y-82850499D01*
X222008497Y-82819737D01*
X222064120Y-82796697D01*
X222159808Y-82757063D01*
X222160266Y-82758170D01*
X222222447Y-82745223D01*
X222264929Y-82757696D01*
X222265192Y-82757063D01*
X222416498Y-82819735D01*
X222416503Y-82819737D01*
X222571153Y-82850499D01*
X222571156Y-82850500D01*
X222571158Y-82850500D01*
X222728844Y-82850500D01*
X222728845Y-82850499D01*
X222883497Y-82819737D01*
X223029179Y-82759394D01*
X223160289Y-82671789D01*
X223271789Y-82560289D01*
X223359394Y-82429179D01*
X223419737Y-82283497D01*
X223450500Y-82128842D01*
X223450500Y-81971158D01*
X223450500Y-81971155D01*
X223450499Y-81971153D01*
X223419738Y-81816510D01*
X223419737Y-81816503D01*
X223419735Y-81816498D01*
X223359397Y-81670827D01*
X223359390Y-81670814D01*
X223271789Y-81539711D01*
X223271786Y-81539707D01*
X223160292Y-81428213D01*
X223160288Y-81428210D01*
X223029185Y-81340609D01*
X223029172Y-81340602D01*
X222883501Y-81280264D01*
X222883489Y-81280261D01*
X222728845Y-81249500D01*
X222728842Y-81249500D01*
X222571158Y-81249500D01*
X222571155Y-81249500D01*
X222416510Y-81280261D01*
X222416498Y-81280264D01*
X222265193Y-81342937D01*
X222264734Y-81341831D01*
X222202544Y-81354777D01*
X222160068Y-81342304D01*
X222159807Y-81342937D01*
X222008501Y-81280264D01*
X222008489Y-81280261D01*
X221853845Y-81249500D01*
X221853842Y-81249500D01*
X221696158Y-81249500D01*
X221696155Y-81249500D01*
X221541510Y-81280261D01*
X221541498Y-81280264D01*
X221390193Y-81342937D01*
X221389734Y-81341831D01*
X221327544Y-81354777D01*
X221285068Y-81342304D01*
X221284807Y-81342937D01*
X221133501Y-81280264D01*
X221133489Y-81280261D01*
X220978845Y-81249500D01*
X220978842Y-81249500D01*
X220821158Y-81249500D01*
X220821155Y-81249500D01*
X220666510Y-81280261D01*
X220666498Y-81280264D01*
X220520827Y-81340602D01*
X220520814Y-81340609D01*
X220389711Y-81428210D01*
X220389707Y-81428213D01*
X220278213Y-81539707D01*
X220278210Y-81539711D01*
X220190609Y-81670814D01*
X220190602Y-81670827D01*
X220130264Y-81816498D01*
X220130261Y-81816510D01*
X220099500Y-81971153D01*
X190500500Y-81971153D01*
X190500500Y-80821153D01*
X224699500Y-80821153D01*
X224699500Y-80978846D01*
X224730261Y-81133489D01*
X224730264Y-81133501D01*
X224790602Y-81279172D01*
X224790609Y-81279185D01*
X224878210Y-81410288D01*
X224878213Y-81410292D01*
X224989707Y-81521786D01*
X224989711Y-81521789D01*
X225120814Y-81609390D01*
X225120827Y-81609397D01*
X225266498Y-81669735D01*
X225266503Y-81669737D01*
X225421153Y-81700499D01*
X225421156Y-81700500D01*
X225421158Y-81700500D01*
X225578844Y-81700500D01*
X225578845Y-81700499D01*
X225733497Y-81669737D01*
X225879179Y-81609394D01*
X226010289Y-81521789D01*
X226121789Y-81410289D01*
X226209394Y-81279179D01*
X226269737Y-81133497D01*
X226300500Y-80978842D01*
X226300500Y-80821158D01*
X226300500Y-80821155D01*
X226300499Y-80821153D01*
X226269738Y-80666510D01*
X226269737Y-80666503D01*
X226269735Y-80666498D01*
X226209397Y-80520827D01*
X226209390Y-80520814D01*
X226121789Y-80389711D01*
X226121786Y-80389707D01*
X226010292Y-80278213D01*
X226010288Y-80278210D01*
X225879185Y-80190609D01*
X225879172Y-80190602D01*
X225733501Y-80130264D01*
X225733489Y-80130261D01*
X225578845Y-80099500D01*
X225578842Y-80099500D01*
X225421158Y-80099500D01*
X225421155Y-80099500D01*
X225266510Y-80130261D01*
X225266498Y-80130264D01*
X225120827Y-80190602D01*
X225120814Y-80190609D01*
X224989711Y-80278210D01*
X224989707Y-80278213D01*
X224878213Y-80389707D01*
X224878210Y-80389711D01*
X224790609Y-80520814D01*
X224790602Y-80520827D01*
X224730264Y-80666498D01*
X224730261Y-80666510D01*
X224699500Y-80821153D01*
X190500500Y-80821153D01*
X190500500Y-77721153D01*
X205399500Y-77721153D01*
X205399500Y-77878846D01*
X205430261Y-78033489D01*
X205430264Y-78033501D01*
X205490602Y-78179172D01*
X205490609Y-78179185D01*
X205578210Y-78310288D01*
X205578213Y-78310292D01*
X205689707Y-78421786D01*
X205689711Y-78421789D01*
X205820814Y-78509390D01*
X205820827Y-78509397D01*
X205966498Y-78569735D01*
X205966503Y-78569737D01*
X206121153Y-78600499D01*
X206121156Y-78600500D01*
X206121158Y-78600500D01*
X206278844Y-78600500D01*
X206278845Y-78600499D01*
X206433497Y-78569737D01*
X206546166Y-78523067D01*
X206579172Y-78509397D01*
X206579172Y-78509396D01*
X206579179Y-78509394D01*
X206710289Y-78421789D01*
X206710292Y-78421786D01*
X206762319Y-78369760D01*
X206823642Y-78336275D01*
X206893334Y-78341259D01*
X206937681Y-78369760D01*
X206989707Y-78421786D01*
X206989711Y-78421789D01*
X207120814Y-78509390D01*
X207120827Y-78509397D01*
X207266498Y-78569735D01*
X207266503Y-78569737D01*
X207421153Y-78600499D01*
X207421156Y-78600500D01*
X207421158Y-78600500D01*
X207578844Y-78600500D01*
X207578845Y-78600499D01*
X207733497Y-78569737D01*
X207846166Y-78523067D01*
X207879172Y-78509397D01*
X207879172Y-78509396D01*
X207879179Y-78509394D01*
X208010289Y-78421789D01*
X208121789Y-78310289D01*
X208150000Y-78268068D01*
X208181897Y-78220332D01*
X208235509Y-78175526D01*
X208304834Y-78166819D01*
X208367861Y-78196973D01*
X208388101Y-78220331D01*
X208448209Y-78310288D01*
X208448212Y-78310292D01*
X208559706Y-78421786D01*
X208559710Y-78421789D01*
X208690813Y-78509390D01*
X208690826Y-78509397D01*
X208836497Y-78569735D01*
X208836502Y-78569737D01*
X208991152Y-78600499D01*
X208991155Y-78600500D01*
X208991157Y-78600500D01*
X209148843Y-78600500D01*
X209148844Y-78600499D01*
X209303496Y-78569737D01*
X209416165Y-78523067D01*
X209449171Y-78509397D01*
X209449171Y-78509396D01*
X209449178Y-78509394D01*
X209580288Y-78421789D01*
X209617317Y-78384760D01*
X209678639Y-78351274D01*
X209748331Y-78356258D01*
X209792680Y-78384759D01*
X209829707Y-78421786D01*
X209829711Y-78421789D01*
X209960814Y-78509390D01*
X209960827Y-78509397D01*
X210106498Y-78569735D01*
X210106503Y-78569737D01*
X210261153Y-78600499D01*
X210261156Y-78600500D01*
X210261158Y-78600500D01*
X210418844Y-78600500D01*
X210418845Y-78600499D01*
X210573497Y-78569737D01*
X210686166Y-78523067D01*
X210719172Y-78509397D01*
X210719172Y-78509396D01*
X210719179Y-78509394D01*
X210850289Y-78421789D01*
X210850292Y-78421786D01*
X210887319Y-78384760D01*
X210948642Y-78351275D01*
X211018334Y-78356259D01*
X211062681Y-78384760D01*
X211099707Y-78421786D01*
X211099711Y-78421789D01*
X211230814Y-78509390D01*
X211230827Y-78509397D01*
X211376498Y-78569735D01*
X211376503Y-78569737D01*
X211531153Y-78600499D01*
X211531156Y-78600500D01*
X211531158Y-78600500D01*
X211688844Y-78600500D01*
X211688845Y-78600499D01*
X211843497Y-78569737D01*
X211956166Y-78523067D01*
X211989172Y-78509397D01*
X211989172Y-78509396D01*
X211989179Y-78509394D01*
X212120289Y-78421789D01*
X212120292Y-78421786D01*
X212157319Y-78384760D01*
X212218642Y-78351275D01*
X212288334Y-78356259D01*
X212332681Y-78384760D01*
X212369707Y-78421786D01*
X212369711Y-78421789D01*
X212500814Y-78509390D01*
X212500827Y-78509397D01*
X212646498Y-78569735D01*
X212646503Y-78569737D01*
X212801153Y-78600499D01*
X212801156Y-78600500D01*
X212801158Y-78600500D01*
X212958844Y-78600500D01*
X212958845Y-78600499D01*
X213113497Y-78569737D01*
X213226166Y-78523067D01*
X213259172Y-78509397D01*
X213259172Y-78509396D01*
X213259179Y-78509394D01*
X213390289Y-78421789D01*
X213390292Y-78421786D01*
X213427319Y-78384760D01*
X213488642Y-78351275D01*
X213558334Y-78356259D01*
X213602681Y-78384760D01*
X213639707Y-78421786D01*
X213639711Y-78421789D01*
X213770814Y-78509390D01*
X213770827Y-78509397D01*
X213916498Y-78569735D01*
X213916503Y-78569737D01*
X214071153Y-78600499D01*
X214071156Y-78600500D01*
X214071158Y-78600500D01*
X214228844Y-78600500D01*
X214228845Y-78600499D01*
X214383497Y-78569737D01*
X214496166Y-78523067D01*
X214529172Y-78509397D01*
X214529172Y-78509396D01*
X214529179Y-78509394D01*
X214660289Y-78421789D01*
X214697317Y-78384761D01*
X214758639Y-78351275D01*
X214828331Y-78356259D01*
X214872680Y-78384760D01*
X214909707Y-78421787D01*
X214909711Y-78421790D01*
X215040814Y-78509391D01*
X215040827Y-78509398D01*
X215186496Y-78569735D01*
X215186503Y-78569738D01*
X215341148Y-78600499D01*
X215341153Y-78600500D01*
X215341156Y-78600501D01*
X215341158Y-78600501D01*
X215498844Y-78600501D01*
X215498845Y-78600500D01*
X215653497Y-78569738D01*
X215799179Y-78509395D01*
X215930289Y-78421790D01*
X215967318Y-78384761D01*
X216028640Y-78351275D01*
X216098332Y-78356259D01*
X216142681Y-78384760D01*
X216179707Y-78421786D01*
X216179711Y-78421789D01*
X216310814Y-78509390D01*
X216310827Y-78509397D01*
X216456498Y-78569735D01*
X216456503Y-78569737D01*
X216611153Y-78600499D01*
X216611156Y-78600500D01*
X216611158Y-78600500D01*
X216768844Y-78600500D01*
X216768845Y-78600499D01*
X216923497Y-78569737D01*
X217036166Y-78523067D01*
X217069172Y-78509397D01*
X217069172Y-78509396D01*
X217069179Y-78509394D01*
X217200289Y-78421789D01*
X217311789Y-78310289D01*
X217399394Y-78179179D01*
X217459737Y-78033497D01*
X217490500Y-77878842D01*
X217490500Y-77721158D01*
X217490500Y-77721155D01*
X217490499Y-77721153D01*
X217468269Y-77609397D01*
X217459737Y-77566503D01*
X217428674Y-77491510D01*
X217399397Y-77420827D01*
X217399390Y-77420814D01*
X217311789Y-77289711D01*
X217311786Y-77289707D01*
X217200292Y-77178213D01*
X217200288Y-77178210D01*
X217069185Y-77090609D01*
X217069172Y-77090602D01*
X216923501Y-77030264D01*
X216923489Y-77030261D01*
X216768845Y-76999500D01*
X216768842Y-76999500D01*
X216611158Y-76999500D01*
X216611155Y-76999500D01*
X216456510Y-77030261D01*
X216456498Y-77030264D01*
X216310827Y-77090602D01*
X216310814Y-77090609D01*
X216179711Y-77178210D01*
X216179706Y-77178214D01*
X216142679Y-77215241D01*
X216081356Y-77248726D01*
X216011664Y-77243740D01*
X215967318Y-77215240D01*
X215930292Y-77178214D01*
X215930288Y-77178211D01*
X215799185Y-77090610D01*
X215799172Y-77090603D01*
X215653501Y-77030265D01*
X215653489Y-77030262D01*
X215498845Y-76999501D01*
X215498842Y-76999501D01*
X215341158Y-76999501D01*
X215341155Y-76999501D01*
X215186510Y-77030262D01*
X215186498Y-77030265D01*
X215040827Y-77090603D01*
X215040814Y-77090610D01*
X214909711Y-77178211D01*
X214909706Y-77178215D01*
X214872680Y-77215241D01*
X214811357Y-77248726D01*
X214741665Y-77243740D01*
X214697319Y-77215240D01*
X214660292Y-77178213D01*
X214660288Y-77178210D01*
X214529185Y-77090609D01*
X214529172Y-77090602D01*
X214383501Y-77030264D01*
X214383489Y-77030261D01*
X214228845Y-76999500D01*
X214228842Y-76999500D01*
X214071158Y-76999500D01*
X214071155Y-76999500D01*
X213916510Y-77030261D01*
X213916498Y-77030264D01*
X213770827Y-77090602D01*
X213770814Y-77090609D01*
X213639711Y-77178210D01*
X213639707Y-77178213D01*
X213602681Y-77215240D01*
X213541358Y-77248725D01*
X213471666Y-77243741D01*
X213427319Y-77215240D01*
X213390292Y-77178213D01*
X213390288Y-77178210D01*
X213259185Y-77090609D01*
X213259172Y-77090602D01*
X213113501Y-77030264D01*
X213113489Y-77030261D01*
X212958845Y-76999500D01*
X212958842Y-76999500D01*
X212801158Y-76999500D01*
X212801155Y-76999500D01*
X212646510Y-77030261D01*
X212646498Y-77030264D01*
X212500827Y-77090602D01*
X212500814Y-77090609D01*
X212369711Y-77178210D01*
X212369707Y-77178213D01*
X212332681Y-77215240D01*
X212271358Y-77248725D01*
X212201666Y-77243741D01*
X212157319Y-77215240D01*
X212120292Y-77178213D01*
X212120288Y-77178210D01*
X211989185Y-77090609D01*
X211989172Y-77090602D01*
X211843501Y-77030264D01*
X211843489Y-77030261D01*
X211688845Y-76999500D01*
X211688842Y-76999500D01*
X211531158Y-76999500D01*
X211531155Y-76999500D01*
X211376510Y-77030261D01*
X211376498Y-77030264D01*
X211230827Y-77090602D01*
X211230814Y-77090609D01*
X211099711Y-77178210D01*
X211099707Y-77178213D01*
X211062681Y-77215240D01*
X211001358Y-77248725D01*
X210931666Y-77243741D01*
X210887319Y-77215240D01*
X210850292Y-77178213D01*
X210850288Y-77178210D01*
X210719185Y-77090609D01*
X210719172Y-77090602D01*
X210573501Y-77030264D01*
X210573489Y-77030261D01*
X210418845Y-76999500D01*
X210418842Y-76999500D01*
X210261158Y-76999500D01*
X210261155Y-76999500D01*
X210106510Y-77030261D01*
X210106498Y-77030264D01*
X209960827Y-77090602D01*
X209960814Y-77090609D01*
X209829711Y-77178210D01*
X209829706Y-77178214D01*
X209792679Y-77215241D01*
X209731356Y-77248726D01*
X209661664Y-77243740D01*
X209617318Y-77215240D01*
X209580291Y-77178213D01*
X209580287Y-77178210D01*
X209449184Y-77090609D01*
X209449171Y-77090602D01*
X209303500Y-77030264D01*
X209303488Y-77030261D01*
X209148844Y-76999500D01*
X209148841Y-76999500D01*
X208991157Y-76999500D01*
X208991154Y-76999500D01*
X208836509Y-77030261D01*
X208836497Y-77030264D01*
X208690826Y-77090602D01*
X208690813Y-77090609D01*
X208559710Y-77178210D01*
X208559706Y-77178213D01*
X208448212Y-77289707D01*
X208388101Y-77379669D01*
X208334488Y-77424473D01*
X208265163Y-77433180D01*
X208202136Y-77403025D01*
X208181897Y-77379668D01*
X208121789Y-77289711D01*
X208121786Y-77289707D01*
X208010292Y-77178213D01*
X208010288Y-77178210D01*
X207879185Y-77090609D01*
X207879172Y-77090602D01*
X207733501Y-77030264D01*
X207733489Y-77030261D01*
X207578845Y-76999500D01*
X207578842Y-76999500D01*
X207421158Y-76999500D01*
X207421155Y-76999500D01*
X207266510Y-77030261D01*
X207266498Y-77030264D01*
X207120827Y-77090602D01*
X207120814Y-77090609D01*
X206989711Y-77178210D01*
X206989707Y-77178213D01*
X206937681Y-77230240D01*
X206876358Y-77263725D01*
X206806666Y-77258741D01*
X206762319Y-77230240D01*
X206710292Y-77178213D01*
X206710288Y-77178210D01*
X206579185Y-77090609D01*
X206579172Y-77090602D01*
X206433501Y-77030264D01*
X206433489Y-77030261D01*
X206278845Y-76999500D01*
X206278842Y-76999500D01*
X206121158Y-76999500D01*
X206121155Y-76999500D01*
X205966510Y-77030261D01*
X205966498Y-77030264D01*
X205820827Y-77090602D01*
X205820814Y-77090609D01*
X205689711Y-77178210D01*
X205689707Y-77178213D01*
X205578213Y-77289707D01*
X205578210Y-77289711D01*
X205490609Y-77420814D01*
X205490602Y-77420827D01*
X205430264Y-77566498D01*
X205430261Y-77566510D01*
X205399500Y-77721153D01*
X190500500Y-77721153D01*
X190500500Y-76321153D01*
X219399500Y-76321153D01*
X219399500Y-76478846D01*
X219430261Y-76633489D01*
X219430264Y-76633501D01*
X219490604Y-76779177D01*
X219490605Y-76779179D01*
X219491899Y-76781115D01*
X219492264Y-76782282D01*
X219493476Y-76784549D01*
X219493045Y-76784778D01*
X219512773Y-76847794D01*
X219494285Y-76915173D01*
X219491899Y-76918885D01*
X219490605Y-76920820D01*
X219490604Y-76920822D01*
X219430264Y-77066498D01*
X219430261Y-77066510D01*
X219399500Y-77221153D01*
X219399500Y-77378846D01*
X219430261Y-77533489D01*
X219430264Y-77533501D01*
X219490602Y-77679172D01*
X219490609Y-77679185D01*
X219578210Y-77810288D01*
X219578213Y-77810292D01*
X219689707Y-77921786D01*
X219689711Y-77921789D01*
X219820814Y-78009390D01*
X219820827Y-78009397D01*
X219966498Y-78069735D01*
X219966503Y-78069737D01*
X220121153Y-78100499D01*
X220121156Y-78100500D01*
X220121158Y-78100500D01*
X220278844Y-78100500D01*
X220278845Y-78100499D01*
X220433497Y-78069737D01*
X220579179Y-78009394D01*
X220710289Y-77921789D01*
X220821789Y-77810289D01*
X220909394Y-77679179D01*
X220923074Y-77646153D01*
X225424500Y-77646153D01*
X225424500Y-77803846D01*
X225455261Y-77958489D01*
X225455264Y-77958501D01*
X225515602Y-78104172D01*
X225515609Y-78104185D01*
X225603210Y-78235288D01*
X225603213Y-78235292D01*
X225714707Y-78346786D01*
X225714711Y-78346789D01*
X225845814Y-78434390D01*
X225845827Y-78434397D01*
X225991498Y-78494735D01*
X225991503Y-78494737D01*
X226146153Y-78525499D01*
X226146156Y-78525500D01*
X226146158Y-78525500D01*
X226303844Y-78525500D01*
X226303845Y-78525499D01*
X226458497Y-78494737D01*
X226604179Y-78434394D01*
X226735289Y-78346789D01*
X226846789Y-78235289D01*
X226934394Y-78104179D01*
X226994737Y-77958497D01*
X227025500Y-77803842D01*
X227025500Y-77646158D01*
X227025500Y-77646155D01*
X227025499Y-77646153D01*
X227024918Y-77643232D01*
X226994737Y-77491503D01*
X226994735Y-77491498D01*
X226934397Y-77345827D01*
X226934390Y-77345814D01*
X226846789Y-77214711D01*
X226846786Y-77214707D01*
X226735292Y-77103213D01*
X226735288Y-77103210D01*
X226604185Y-77015609D01*
X226604172Y-77015602D01*
X226458501Y-76955264D01*
X226458489Y-76955261D01*
X226303845Y-76924500D01*
X226303842Y-76924500D01*
X226146158Y-76924500D01*
X226146155Y-76924500D01*
X225991510Y-76955261D01*
X225991498Y-76955264D01*
X225845827Y-77015602D01*
X225845814Y-77015609D01*
X225714711Y-77103210D01*
X225714707Y-77103213D01*
X225603213Y-77214707D01*
X225603210Y-77214711D01*
X225515609Y-77345814D01*
X225515602Y-77345827D01*
X225455264Y-77491498D01*
X225455261Y-77491510D01*
X225424500Y-77646153D01*
X220923074Y-77646153D01*
X220937164Y-77612136D01*
X220945251Y-77592613D01*
X220951282Y-77578050D01*
X220969737Y-77533497D01*
X221000500Y-77378842D01*
X221000500Y-77221158D01*
X221000500Y-77221155D01*
X221000499Y-77221153D01*
X220977039Y-77103213D01*
X220969737Y-77066503D01*
X220969735Y-77066498D01*
X220909397Y-76920827D01*
X220909394Y-76920822D01*
X220909394Y-76920821D01*
X220908103Y-76918889D01*
X220907737Y-76917723D01*
X220906525Y-76915454D01*
X220906955Y-76915223D01*
X220887226Y-76852214D01*
X220905710Y-76784834D01*
X220908100Y-76781115D01*
X220909394Y-76779179D01*
X220969737Y-76633497D01*
X221000500Y-76478842D01*
X221000500Y-76321158D01*
X221000500Y-76321155D01*
X221000499Y-76321153D01*
X220969737Y-76166503D01*
X220950955Y-76121158D01*
X220950953Y-76121153D01*
X240399500Y-76121153D01*
X240399500Y-76278846D01*
X240430260Y-76433488D01*
X240430262Y-76433493D01*
X240430263Y-76433497D01*
X240449046Y-76478844D01*
X240458865Y-76502549D01*
X240466333Y-76572018D01*
X240458865Y-76597447D01*
X240430263Y-76666503D01*
X240430262Y-76666506D01*
X240430260Y-76666511D01*
X240399500Y-76821153D01*
X240399500Y-76978846D01*
X240430261Y-77133489D01*
X240430264Y-77133501D01*
X240490602Y-77279172D01*
X240490609Y-77279185D01*
X240578210Y-77410288D01*
X240578213Y-77410292D01*
X240689707Y-77521786D01*
X240689711Y-77521789D01*
X240820814Y-77609390D01*
X240820827Y-77609397D01*
X240966498Y-77669735D01*
X240966503Y-77669737D01*
X241121153Y-77700499D01*
X241121156Y-77700500D01*
X241121158Y-77700500D01*
X241278844Y-77700500D01*
X241278845Y-77700499D01*
X241433497Y-77669737D01*
X241579179Y-77609394D01*
X241710289Y-77521789D01*
X241821789Y-77410289D01*
X241885971Y-77314234D01*
X243319500Y-77314234D01*
X243319500Y-77465765D01*
X243358719Y-77612136D01*
X243391976Y-77669737D01*
X243434485Y-77743365D01*
X243541635Y-77850515D01*
X243672865Y-77926281D01*
X243819234Y-77965500D01*
X243819236Y-77965500D01*
X243970764Y-77965500D01*
X243970766Y-77965500D01*
X244117135Y-77926281D01*
X244248365Y-77850515D01*
X244355515Y-77743365D01*
X244431281Y-77612135D01*
X244470500Y-77465766D01*
X244470500Y-77314234D01*
X244431281Y-77167865D01*
X244355515Y-77036635D01*
X244248365Y-76929485D01*
X244182750Y-76891602D01*
X244117136Y-76853719D01*
X243995614Y-76821158D01*
X243970766Y-76814500D01*
X243819234Y-76814500D01*
X243672863Y-76853719D01*
X243541635Y-76929485D01*
X243541632Y-76929487D01*
X243434487Y-77036632D01*
X243434485Y-77036635D01*
X243358719Y-77167863D01*
X243319500Y-77314234D01*
X241885971Y-77314234D01*
X241909394Y-77279179D01*
X241969737Y-77133497D01*
X242000500Y-76978842D01*
X242000500Y-76821158D01*
X242000500Y-76821155D01*
X242000499Y-76821153D01*
X241993275Y-76784834D01*
X241969737Y-76666503D01*
X241941134Y-76597450D01*
X241933666Y-76527984D01*
X241941133Y-76502552D01*
X241969737Y-76433497D01*
X242000500Y-76278842D01*
X242000500Y-76121158D01*
X242000500Y-76121155D01*
X242000499Y-76121153D01*
X241980543Y-76020827D01*
X241969737Y-75966503D01*
X241937929Y-75889711D01*
X241909397Y-75820827D01*
X241909390Y-75820814D01*
X241821789Y-75689711D01*
X241821786Y-75689707D01*
X241710292Y-75578213D01*
X241710288Y-75578210D01*
X241579185Y-75490609D01*
X241579172Y-75490602D01*
X241433501Y-75430264D01*
X241433489Y-75430261D01*
X241278845Y-75399500D01*
X241278842Y-75399500D01*
X241121158Y-75399500D01*
X241121155Y-75399500D01*
X240966510Y-75430261D01*
X240966498Y-75430264D01*
X240820827Y-75490602D01*
X240820814Y-75490609D01*
X240689711Y-75578210D01*
X240689707Y-75578213D01*
X240578213Y-75689707D01*
X240578210Y-75689711D01*
X240490609Y-75820814D01*
X240490602Y-75820827D01*
X240430264Y-75966498D01*
X240430261Y-75966510D01*
X240399500Y-76121153D01*
X220950953Y-76121153D01*
X220909397Y-76020827D01*
X220909390Y-76020814D01*
X220821789Y-75889711D01*
X220821786Y-75889707D01*
X220710292Y-75778213D01*
X220710288Y-75778210D01*
X220579185Y-75690609D01*
X220579172Y-75690602D01*
X220433501Y-75630264D01*
X220433489Y-75630261D01*
X220278845Y-75599500D01*
X220278842Y-75599500D01*
X220121158Y-75599500D01*
X220121155Y-75599500D01*
X219966510Y-75630261D01*
X219966498Y-75630264D01*
X219820827Y-75690602D01*
X219820814Y-75690609D01*
X219689711Y-75778210D01*
X219689707Y-75778213D01*
X219578213Y-75889707D01*
X219578210Y-75889711D01*
X219490609Y-76020814D01*
X219490602Y-76020827D01*
X219430264Y-76166498D01*
X219430261Y-76166510D01*
X219399500Y-76321153D01*
X190500500Y-76321153D01*
X190500500Y-74821153D01*
X223799500Y-74821153D01*
X223799500Y-74978846D01*
X223830261Y-75133489D01*
X223830264Y-75133501D01*
X223890602Y-75279172D01*
X223890609Y-75279185D01*
X223978210Y-75410288D01*
X223978213Y-75410292D01*
X224089707Y-75521786D01*
X224089711Y-75521789D01*
X224220814Y-75609390D01*
X224220827Y-75609397D01*
X224366498Y-75669735D01*
X224366503Y-75669737D01*
X224521153Y-75700499D01*
X224521156Y-75700500D01*
X224521158Y-75700500D01*
X224678844Y-75700500D01*
X224678845Y-75700499D01*
X224833497Y-75669737D01*
X224979179Y-75609394D01*
X225110289Y-75521789D01*
X225221789Y-75410289D01*
X225309394Y-75279179D01*
X225369737Y-75133497D01*
X225400500Y-74978842D01*
X225400500Y-74821158D01*
X225400500Y-74821155D01*
X225400499Y-74821153D01*
X225369738Y-74666510D01*
X225369737Y-74666503D01*
X225369735Y-74666498D01*
X225309397Y-74520827D01*
X225309390Y-74520814D01*
X225221789Y-74389711D01*
X225221786Y-74389707D01*
X225110292Y-74278213D01*
X225110288Y-74278210D01*
X224979185Y-74190609D01*
X224979172Y-74190602D01*
X224833501Y-74130264D01*
X224833489Y-74130261D01*
X224678845Y-74099500D01*
X224678842Y-74099500D01*
X224521158Y-74099500D01*
X224521155Y-74099500D01*
X224366510Y-74130261D01*
X224366498Y-74130264D01*
X224220827Y-74190602D01*
X224220814Y-74190609D01*
X224089711Y-74278210D01*
X224089707Y-74278213D01*
X223978213Y-74389707D01*
X223978210Y-74389711D01*
X223890609Y-74520814D01*
X223890602Y-74520827D01*
X223830264Y-74666498D01*
X223830261Y-74666510D01*
X223799500Y-74821153D01*
X190500500Y-74821153D01*
X190500500Y-73321153D01*
X215849500Y-73321153D01*
X215849500Y-73478846D01*
X215880261Y-73633489D01*
X215880264Y-73633501D01*
X215940602Y-73779172D01*
X215940609Y-73779185D01*
X216028210Y-73910288D01*
X216028213Y-73910292D01*
X216139707Y-74021786D01*
X216139711Y-74021789D01*
X216270814Y-74109390D01*
X216270827Y-74109397D01*
X216416498Y-74169735D01*
X216416503Y-74169737D01*
X216571153Y-74200499D01*
X216571156Y-74200500D01*
X216571158Y-74200500D01*
X216728844Y-74200500D01*
X216728845Y-74200499D01*
X216883497Y-74169737D01*
X217029179Y-74109394D01*
X217160289Y-74021789D01*
X217271789Y-73910289D01*
X217359394Y-73779179D01*
X217419737Y-73633497D01*
X217450500Y-73478842D01*
X217450500Y-73321158D01*
X217450500Y-73321155D01*
X217450499Y-73321153D01*
X217448338Y-73310288D01*
X217419737Y-73166503D01*
X217419735Y-73166498D01*
X217359397Y-73020827D01*
X217359390Y-73020814D01*
X217271789Y-72889711D01*
X217271786Y-72889707D01*
X217160292Y-72778213D01*
X217160288Y-72778210D01*
X217029185Y-72690609D01*
X217029172Y-72690602D01*
X216883501Y-72630264D01*
X216883489Y-72630261D01*
X216728845Y-72599500D01*
X216728842Y-72599500D01*
X216571158Y-72599500D01*
X216571155Y-72599500D01*
X216416510Y-72630261D01*
X216416498Y-72630264D01*
X216270827Y-72690602D01*
X216270814Y-72690609D01*
X216139711Y-72778210D01*
X216139707Y-72778213D01*
X216028213Y-72889707D01*
X216028210Y-72889711D01*
X215940609Y-73020814D01*
X215940602Y-73020827D01*
X215880264Y-73166498D01*
X215880261Y-73166510D01*
X215849500Y-73321153D01*
X190500500Y-73321153D01*
X190500500Y-71321888D01*
X215098765Y-71321888D01*
X215098765Y-71479581D01*
X215129526Y-71634224D01*
X215129529Y-71634236D01*
X215189867Y-71779907D01*
X215189874Y-71779920D01*
X215277475Y-71911023D01*
X215277478Y-71911027D01*
X215388972Y-72022521D01*
X215388976Y-72022524D01*
X215520079Y-72110125D01*
X215520092Y-72110132D01*
X215607365Y-72146281D01*
X215665768Y-72170472D01*
X215820418Y-72201234D01*
X215820421Y-72201235D01*
X215820423Y-72201235D01*
X215978109Y-72201235D01*
X215978110Y-72201234D01*
X216132762Y-72170472D01*
X216278444Y-72110129D01*
X216409554Y-72022524D01*
X216410925Y-72021153D01*
X240399500Y-72021153D01*
X240399500Y-72178846D01*
X240430260Y-72333488D01*
X240430262Y-72333493D01*
X240430263Y-72333497D01*
X240458864Y-72402547D01*
X240458865Y-72402549D01*
X240466333Y-72472018D01*
X240458865Y-72497447D01*
X240430263Y-72566503D01*
X240430262Y-72566506D01*
X240430260Y-72566511D01*
X240399500Y-72721153D01*
X240399500Y-72878846D01*
X240430261Y-73033489D01*
X240430264Y-73033501D01*
X240490602Y-73179172D01*
X240490609Y-73179185D01*
X240578210Y-73310288D01*
X240578213Y-73310292D01*
X240689707Y-73421786D01*
X240689711Y-73421789D01*
X240820814Y-73509390D01*
X240820827Y-73509397D01*
X240966498Y-73569735D01*
X240966503Y-73569737D01*
X241121153Y-73600499D01*
X241121156Y-73600500D01*
X241121158Y-73600500D01*
X241278844Y-73600500D01*
X241278845Y-73600499D01*
X241433497Y-73569737D01*
X241579179Y-73509394D01*
X241710289Y-73421789D01*
X241821789Y-73310289D01*
X241909394Y-73179179D01*
X241969737Y-73033497D01*
X242000500Y-72878842D01*
X242000500Y-72721158D01*
X242000500Y-72721155D01*
X242000499Y-72721153D01*
X241982419Y-72630261D01*
X241969737Y-72566503D01*
X241941134Y-72497450D01*
X241933666Y-72427984D01*
X241941133Y-72402552D01*
X241969737Y-72333497D01*
X242000500Y-72178842D01*
X242000500Y-72021158D01*
X242000500Y-72021155D01*
X242000499Y-72021153D01*
X241969737Y-71866503D01*
X241955502Y-71832136D01*
X241909397Y-71720827D01*
X241909390Y-71720814D01*
X241825322Y-71594998D01*
X241821789Y-71589711D01*
X241821786Y-71589707D01*
X241766313Y-71534234D01*
X243319500Y-71534234D01*
X243319500Y-71685766D01*
X243339109Y-71758950D01*
X243358719Y-71832136D01*
X243396602Y-71897750D01*
X243434485Y-71963365D01*
X243541635Y-72070515D01*
X243672865Y-72146281D01*
X243819234Y-72185500D01*
X243819236Y-72185500D01*
X243970764Y-72185500D01*
X243970766Y-72185500D01*
X244117135Y-72146281D01*
X244248365Y-72070515D01*
X244355515Y-71963365D01*
X244431281Y-71832135D01*
X244470500Y-71685766D01*
X244470500Y-71534234D01*
X244431281Y-71387865D01*
X244355515Y-71256635D01*
X244248365Y-71149485D01*
X244180474Y-71110288D01*
X244117136Y-71073719D01*
X244043950Y-71054109D01*
X243970766Y-71034500D01*
X243819234Y-71034500D01*
X243672863Y-71073719D01*
X243541635Y-71149485D01*
X243541632Y-71149487D01*
X243434487Y-71256632D01*
X243434485Y-71256635D01*
X243358719Y-71387863D01*
X243334144Y-71479581D01*
X243319500Y-71534234D01*
X241766313Y-71534234D01*
X241710292Y-71478213D01*
X241710288Y-71478210D01*
X241579185Y-71390609D01*
X241579172Y-71390602D01*
X241433501Y-71330264D01*
X241433489Y-71330261D01*
X241278845Y-71299500D01*
X241278842Y-71299500D01*
X241121158Y-71299500D01*
X241121155Y-71299500D01*
X240966510Y-71330261D01*
X240966498Y-71330264D01*
X240820827Y-71390602D01*
X240820814Y-71390609D01*
X240689711Y-71478210D01*
X240689707Y-71478213D01*
X240578213Y-71589707D01*
X240578210Y-71589711D01*
X240490609Y-71720814D01*
X240490602Y-71720827D01*
X240430264Y-71866498D01*
X240430261Y-71866510D01*
X240399500Y-72021153D01*
X216410925Y-72021153D01*
X216504694Y-71927385D01*
X216521051Y-71911027D01*
X216521054Y-71911024D01*
X216608659Y-71779914D01*
X216669002Y-71634232D01*
X216699765Y-71479577D01*
X216699765Y-71321893D01*
X216699765Y-71321890D01*
X216699764Y-71321888D01*
X216669003Y-71167245D01*
X216669002Y-71167238D01*
X216661649Y-71149485D01*
X216608662Y-71021562D01*
X216608655Y-71021549D01*
X216521054Y-70890446D01*
X216521051Y-70890442D01*
X216409557Y-70778948D01*
X216409553Y-70778945D01*
X216278450Y-70691344D01*
X216278437Y-70691337D01*
X216132766Y-70630999D01*
X216132754Y-70630996D01*
X215978110Y-70600235D01*
X215978107Y-70600235D01*
X215820423Y-70600235D01*
X215820420Y-70600235D01*
X215665775Y-70630996D01*
X215665763Y-70630999D01*
X215520092Y-70691337D01*
X215520079Y-70691344D01*
X215388976Y-70778945D01*
X215388972Y-70778948D01*
X215277478Y-70890442D01*
X215277475Y-70890446D01*
X215189874Y-71021549D01*
X215189867Y-71021562D01*
X215129529Y-71167233D01*
X215129526Y-71167245D01*
X215098765Y-71321888D01*
X190500500Y-71321888D01*
X190500500Y-69621153D01*
X207399500Y-69621153D01*
X207399500Y-69778846D01*
X207430261Y-69933489D01*
X207430264Y-69933501D01*
X207490602Y-70079172D01*
X207490609Y-70079185D01*
X207578210Y-70210288D01*
X207578213Y-70210292D01*
X207689707Y-70321786D01*
X207689711Y-70321789D01*
X207820814Y-70409390D01*
X207820827Y-70409397D01*
X207966498Y-70469735D01*
X207966503Y-70469737D01*
X208121153Y-70500499D01*
X208121156Y-70500500D01*
X208121158Y-70500500D01*
X208278844Y-70500500D01*
X208278845Y-70500499D01*
X208433497Y-70469737D01*
X208579179Y-70409394D01*
X208710289Y-70321789D01*
X208821789Y-70210289D01*
X208909394Y-70079179D01*
X208969737Y-69933497D01*
X209000500Y-69778842D01*
X209000500Y-69621158D01*
X209000500Y-69621155D01*
X209000499Y-69621153D01*
X208969737Y-69466503D01*
X208954138Y-69428844D01*
X208909394Y-69320820D01*
X208876207Y-69271153D01*
X213024500Y-69271153D01*
X213024500Y-69428846D01*
X213055261Y-69583489D01*
X213055264Y-69583501D01*
X213115602Y-69729172D01*
X213115609Y-69729185D01*
X213203210Y-69860288D01*
X213203213Y-69860292D01*
X213314707Y-69971786D01*
X213314711Y-69971789D01*
X213445814Y-70059390D01*
X213445827Y-70059397D01*
X213591498Y-70119735D01*
X213591503Y-70119737D01*
X213746153Y-70150499D01*
X213746156Y-70150500D01*
X213746158Y-70150500D01*
X213903844Y-70150500D01*
X213903845Y-70150499D01*
X214058497Y-70119737D01*
X214204179Y-70059394D01*
X214335289Y-69971789D01*
X214446789Y-69860289D01*
X214534394Y-69729179D01*
X214537719Y-69721153D01*
X214579137Y-69621158D01*
X214594737Y-69583497D01*
X214625500Y-69428842D01*
X214625500Y-69321153D01*
X215199500Y-69321153D01*
X215199500Y-69478846D01*
X215230261Y-69633489D01*
X215230264Y-69633501D01*
X215290602Y-69779172D01*
X215290609Y-69779185D01*
X215378210Y-69910288D01*
X215378213Y-69910292D01*
X215489707Y-70021786D01*
X215489711Y-70021789D01*
X215620814Y-70109390D01*
X215620827Y-70109397D01*
X215764463Y-70168892D01*
X215766503Y-70169737D01*
X215921153Y-70200499D01*
X215921156Y-70200500D01*
X215921158Y-70200500D01*
X216078844Y-70200500D01*
X216078845Y-70200499D01*
X216233497Y-70169737D01*
X216379179Y-70109394D01*
X216510289Y-70021789D01*
X216621789Y-69910289D01*
X216709394Y-69779179D01*
X216769737Y-69633497D01*
X216792083Y-69521158D01*
X216792084Y-69521153D01*
X221399500Y-69521153D01*
X221399500Y-69678846D01*
X221430261Y-69833489D01*
X221430264Y-69833501D01*
X221490602Y-69979172D01*
X221490609Y-69979185D01*
X221525304Y-70031109D01*
X221546182Y-70097786D01*
X221527698Y-70165167D01*
X221525304Y-70168891D01*
X221490609Y-70220814D01*
X221490602Y-70220827D01*
X221430264Y-70366498D01*
X221430261Y-70366510D01*
X221399500Y-70521153D01*
X221399500Y-70678846D01*
X221430261Y-70833489D01*
X221430264Y-70833501D01*
X221490602Y-70979172D01*
X221490609Y-70979185D01*
X221578210Y-71110288D01*
X221578213Y-71110292D01*
X221689707Y-71221786D01*
X221689711Y-71221789D01*
X221820814Y-71309390D01*
X221820827Y-71309397D01*
X221966498Y-71369735D01*
X221966503Y-71369737D01*
X222121153Y-71400499D01*
X222121156Y-71400500D01*
X222121158Y-71400500D01*
X222278844Y-71400500D01*
X222278845Y-71400499D01*
X222433497Y-71369737D01*
X222579179Y-71309394D01*
X222710289Y-71221789D01*
X222821789Y-71110289D01*
X222909394Y-70979179D01*
X222969737Y-70833497D01*
X223000500Y-70678842D01*
X223000500Y-70521158D01*
X223000500Y-70521155D01*
X223000499Y-70521153D01*
X222980734Y-70421789D01*
X222969737Y-70366503D01*
X222946452Y-70310288D01*
X222909396Y-70220825D01*
X222909394Y-70220822D01*
X222909394Y-70220821D01*
X222874694Y-70168889D01*
X222853816Y-70102215D01*
X222872300Y-70034835D01*
X222874676Y-70031136D01*
X222909394Y-69979179D01*
X222969737Y-69833497D01*
X222990486Y-69729185D01*
X222992084Y-69721153D01*
X224199500Y-69721153D01*
X224199500Y-69878846D01*
X224230261Y-70033489D01*
X224230264Y-70033501D01*
X224290602Y-70179172D01*
X224290609Y-70179185D01*
X224378210Y-70310288D01*
X224378213Y-70310292D01*
X224489707Y-70421786D01*
X224489711Y-70421789D01*
X224620814Y-70509390D01*
X224620827Y-70509397D01*
X224766498Y-70569735D01*
X224766503Y-70569737D01*
X224919826Y-70600235D01*
X224921153Y-70600499D01*
X224921156Y-70600500D01*
X224921158Y-70600500D01*
X225078844Y-70600500D01*
X225078845Y-70600499D01*
X225233497Y-70569737D01*
X225379179Y-70509394D01*
X225510289Y-70421789D01*
X225621789Y-70310289D01*
X225709394Y-70179179D01*
X225769737Y-70033497D01*
X225800500Y-69878842D01*
X225800500Y-69721158D01*
X225800500Y-69721155D01*
X225800499Y-69721153D01*
X225794476Y-69690874D01*
X225769737Y-69566503D01*
X225750955Y-69521158D01*
X225709397Y-69420827D01*
X225709390Y-69420814D01*
X225621789Y-69289711D01*
X225621786Y-69289707D01*
X225510292Y-69178213D01*
X225510288Y-69178210D01*
X225379185Y-69090609D01*
X225379172Y-69090602D01*
X225233501Y-69030264D01*
X225233489Y-69030261D01*
X225078845Y-68999500D01*
X225078842Y-68999500D01*
X224921158Y-68999500D01*
X224921155Y-68999500D01*
X224766510Y-69030261D01*
X224766498Y-69030264D01*
X224620827Y-69090602D01*
X224620814Y-69090609D01*
X224489711Y-69178210D01*
X224489707Y-69178213D01*
X224378213Y-69289707D01*
X224378210Y-69289711D01*
X224290609Y-69420814D01*
X224290602Y-69420827D01*
X224230264Y-69566498D01*
X224230261Y-69566510D01*
X224199500Y-69721153D01*
X222992084Y-69721153D01*
X222998107Y-69690875D01*
X222998107Y-69690874D01*
X223000500Y-69678844D01*
X223000500Y-69521155D01*
X223000499Y-69521153D01*
X222994476Y-69490874D01*
X222969737Y-69366503D01*
X222950955Y-69321158D01*
X222909397Y-69220827D01*
X222909390Y-69220814D01*
X222821789Y-69089711D01*
X222821786Y-69089707D01*
X222710292Y-68978213D01*
X222710288Y-68978210D01*
X222579185Y-68890609D01*
X222579172Y-68890602D01*
X222433501Y-68830264D01*
X222433489Y-68830261D01*
X222278845Y-68799500D01*
X222278842Y-68799500D01*
X222121158Y-68799500D01*
X222121155Y-68799500D01*
X221966510Y-68830261D01*
X221966498Y-68830264D01*
X221820827Y-68890602D01*
X221820814Y-68890609D01*
X221689711Y-68978210D01*
X221689707Y-68978213D01*
X221578213Y-69089707D01*
X221578210Y-69089711D01*
X221490609Y-69220814D01*
X221490602Y-69220827D01*
X221430264Y-69366498D01*
X221430261Y-69366510D01*
X221399500Y-69521153D01*
X216792084Y-69521153D01*
X216798107Y-69490875D01*
X216798107Y-69490874D01*
X216800500Y-69478844D01*
X216800500Y-69321155D01*
X216800499Y-69321153D01*
X216780543Y-69220827D01*
X216769737Y-69166503D01*
X216769735Y-69166498D01*
X216709397Y-69020827D01*
X216709390Y-69020814D01*
X216621789Y-68889711D01*
X216621786Y-68889707D01*
X216510292Y-68778213D01*
X216510288Y-68778210D01*
X216379185Y-68690609D01*
X216379172Y-68690602D01*
X216233501Y-68630264D01*
X216233489Y-68630261D01*
X216078845Y-68599500D01*
X216078842Y-68599500D01*
X215921158Y-68599500D01*
X215921155Y-68599500D01*
X215766510Y-68630261D01*
X215766498Y-68630264D01*
X215620827Y-68690602D01*
X215620814Y-68690609D01*
X215489711Y-68778210D01*
X215489707Y-68778213D01*
X215378213Y-68889707D01*
X215378210Y-68889711D01*
X215290609Y-69020814D01*
X215290602Y-69020827D01*
X215230264Y-69166498D01*
X215230261Y-69166510D01*
X215199500Y-69321153D01*
X214625500Y-69321153D01*
X214625500Y-69271158D01*
X214625500Y-69271155D01*
X214625499Y-69271153D01*
X214607012Y-69178213D01*
X214594737Y-69116503D01*
X214594735Y-69116498D01*
X214534397Y-68970827D01*
X214534390Y-68970814D01*
X214446789Y-68839711D01*
X214446786Y-68839707D01*
X214335292Y-68728213D01*
X214335288Y-68728210D01*
X214204185Y-68640609D01*
X214204172Y-68640602D01*
X214058501Y-68580264D01*
X214058489Y-68580261D01*
X213903845Y-68549500D01*
X213903842Y-68549500D01*
X213746158Y-68549500D01*
X213746155Y-68549500D01*
X213591510Y-68580261D01*
X213591498Y-68580264D01*
X213445827Y-68640602D01*
X213445814Y-68640609D01*
X213314711Y-68728210D01*
X213314707Y-68728213D01*
X213203213Y-68839707D01*
X213203210Y-68839711D01*
X213115609Y-68970814D01*
X213115602Y-68970827D01*
X213055264Y-69116498D01*
X213055261Y-69116510D01*
X213024500Y-69271153D01*
X208876207Y-69271153D01*
X208821789Y-69189711D01*
X208821786Y-69189707D01*
X208710292Y-69078213D01*
X208710288Y-69078210D01*
X208579185Y-68990609D01*
X208579172Y-68990602D01*
X208433501Y-68930264D01*
X208433489Y-68930261D01*
X208278845Y-68899500D01*
X208278842Y-68899500D01*
X208121158Y-68899500D01*
X208121155Y-68899500D01*
X207966510Y-68930261D01*
X207966498Y-68930264D01*
X207820827Y-68990602D01*
X207820814Y-68990609D01*
X207689711Y-69078210D01*
X207689707Y-69078213D01*
X207578213Y-69189707D01*
X207578210Y-69189711D01*
X207490609Y-69320814D01*
X207490602Y-69320827D01*
X207430264Y-69466498D01*
X207430261Y-69466510D01*
X207399500Y-69621153D01*
X190500500Y-69621153D01*
X190500500Y-68199000D01*
X190520185Y-68131961D01*
X190572989Y-68086206D01*
X190624500Y-68075000D01*
X197400000Y-68075000D01*
X197425000Y-68050000D01*
X197425000Y-67421153D01*
X205299500Y-67421153D01*
X205299500Y-67578846D01*
X205330261Y-67733489D01*
X205330264Y-67733501D01*
X205390602Y-67879172D01*
X205390609Y-67879185D01*
X205478210Y-68010288D01*
X205478213Y-68010292D01*
X205589707Y-68121786D01*
X205589711Y-68121789D01*
X205720814Y-68209390D01*
X205720823Y-68209395D01*
X205839255Y-68258451D01*
X205893658Y-68302292D01*
X205913419Y-68348820D01*
X205930261Y-68433491D01*
X205930264Y-68433501D01*
X205990602Y-68579172D01*
X205990609Y-68579185D01*
X206078210Y-68710288D01*
X206078213Y-68710292D01*
X206189707Y-68821786D01*
X206189711Y-68821789D01*
X206320814Y-68909390D01*
X206320827Y-68909397D01*
X206466498Y-68969735D01*
X206466503Y-68969737D01*
X206616131Y-68999500D01*
X206621153Y-69000499D01*
X206621156Y-69000500D01*
X206621158Y-69000500D01*
X206778844Y-69000500D01*
X206778845Y-69000499D01*
X206933497Y-68969737D01*
X207079179Y-68909394D01*
X207210289Y-68821789D01*
X207321789Y-68710289D01*
X207409394Y-68579179D01*
X207469737Y-68433497D01*
X207500500Y-68278842D01*
X207500500Y-68121158D01*
X207500500Y-68121155D01*
X207500499Y-68121153D01*
X207469737Y-67966503D01*
X207433569Y-67879185D01*
X207409397Y-67820827D01*
X207409390Y-67820814D01*
X207321789Y-67689711D01*
X207321786Y-67689707D01*
X207210292Y-67578213D01*
X207210288Y-67578210D01*
X207079185Y-67490609D01*
X207079172Y-67490602D01*
X206960745Y-67441549D01*
X206906341Y-67397708D01*
X206886580Y-67351182D01*
X206869737Y-67266503D01*
X206869735Y-67266498D01*
X206809397Y-67120827D01*
X206809390Y-67120814D01*
X206721789Y-66989711D01*
X206721786Y-66989707D01*
X206610292Y-66878213D01*
X206610288Y-66878210D01*
X206524897Y-66821153D01*
X230699500Y-66821153D01*
X230699500Y-66978846D01*
X230730261Y-67133489D01*
X230730264Y-67133501D01*
X230790602Y-67279172D01*
X230790609Y-67279185D01*
X230878210Y-67410288D01*
X230878213Y-67410292D01*
X230989707Y-67521786D01*
X230989711Y-67521789D01*
X231120814Y-67609390D01*
X231120827Y-67609397D01*
X231266498Y-67669735D01*
X231266503Y-67669737D01*
X231421153Y-67700499D01*
X231421156Y-67700500D01*
X231421158Y-67700500D01*
X231578844Y-67700500D01*
X231578845Y-67700499D01*
X231733497Y-67669737D01*
X231879179Y-67609394D01*
X232010289Y-67521789D01*
X232121789Y-67410289D01*
X232209394Y-67279179D01*
X232269737Y-67133497D01*
X232300500Y-66978842D01*
X232300500Y-66821158D01*
X232300500Y-66821155D01*
X232300499Y-66821153D01*
X232282419Y-66730261D01*
X232269737Y-66666503D01*
X232269735Y-66666498D01*
X232209397Y-66520827D01*
X232209390Y-66520814D01*
X232121789Y-66389711D01*
X232121786Y-66389707D01*
X232010292Y-66278213D01*
X232010288Y-66278210D01*
X231879185Y-66190609D01*
X231879172Y-66190602D01*
X231733501Y-66130264D01*
X231733489Y-66130261D01*
X231578845Y-66099500D01*
X231578842Y-66099500D01*
X231421158Y-66099500D01*
X231421155Y-66099500D01*
X231266510Y-66130261D01*
X231266498Y-66130264D01*
X231120827Y-66190602D01*
X231120814Y-66190609D01*
X230989711Y-66278210D01*
X230989707Y-66278213D01*
X230878213Y-66389707D01*
X230878210Y-66389711D01*
X230790609Y-66520814D01*
X230790602Y-66520827D01*
X230730264Y-66666498D01*
X230730261Y-66666510D01*
X230699500Y-66821153D01*
X206524897Y-66821153D01*
X206479185Y-66790609D01*
X206479172Y-66790602D01*
X206333501Y-66730264D01*
X206333489Y-66730261D01*
X206178845Y-66699500D01*
X206178842Y-66699500D01*
X206021158Y-66699500D01*
X206021155Y-66699500D01*
X205866510Y-66730261D01*
X205866498Y-66730264D01*
X205720827Y-66790602D01*
X205720814Y-66790609D01*
X205589711Y-66878210D01*
X205589707Y-66878213D01*
X205478213Y-66989707D01*
X205478210Y-66989711D01*
X205390609Y-67120814D01*
X205390602Y-67120827D01*
X205330264Y-67266498D01*
X205330261Y-67266510D01*
X205299500Y-67421153D01*
X197425000Y-67421153D01*
X197425000Y-65221153D01*
X203449500Y-65221153D01*
X203449500Y-65378846D01*
X203480261Y-65533489D01*
X203480264Y-65533501D01*
X203540602Y-65679172D01*
X203540609Y-65679185D01*
X203628210Y-65810288D01*
X203628213Y-65810292D01*
X203739707Y-65921786D01*
X203739711Y-65921789D01*
X203870814Y-66009390D01*
X203870827Y-66009397D01*
X204016498Y-66069735D01*
X204016503Y-66069737D01*
X204166131Y-66099500D01*
X204171153Y-66100499D01*
X204171156Y-66100500D01*
X204171158Y-66100500D01*
X204328844Y-66100500D01*
X204328845Y-66100499D01*
X204483497Y-66069737D01*
X204629179Y-66009394D01*
X204760289Y-65921789D01*
X204871789Y-65810289D01*
X204959394Y-65679179D01*
X205019737Y-65533497D01*
X205032138Y-65471153D01*
X215199500Y-65471153D01*
X215199500Y-65628846D01*
X215230261Y-65783489D01*
X215230264Y-65783501D01*
X215290602Y-65929172D01*
X215290609Y-65929185D01*
X215378210Y-66060288D01*
X215378213Y-66060292D01*
X215489707Y-66171786D01*
X215489711Y-66171789D01*
X215620814Y-66259390D01*
X215620827Y-66259397D01*
X215666254Y-66278213D01*
X215766503Y-66319737D01*
X215921153Y-66350499D01*
X215921156Y-66350500D01*
X215921158Y-66350500D01*
X216078844Y-66350500D01*
X216078845Y-66350499D01*
X216233497Y-66319737D01*
X216379179Y-66259394D01*
X216510289Y-66171789D01*
X216621789Y-66060289D01*
X216709394Y-65929179D01*
X216769737Y-65783497D01*
X216800500Y-65628842D01*
X216800500Y-65471158D01*
X216800500Y-65471155D01*
X216800499Y-65471153D01*
X216769738Y-65316510D01*
X216769737Y-65316503D01*
X216730242Y-65221153D01*
X216709397Y-65170827D01*
X216709390Y-65170814D01*
X216621789Y-65039711D01*
X216621786Y-65039707D01*
X216510292Y-64928213D01*
X216510288Y-64928210D01*
X216379185Y-64840609D01*
X216379172Y-64840602D01*
X216233501Y-64780264D01*
X216233489Y-64780261D01*
X216078845Y-64749500D01*
X216078842Y-64749500D01*
X215921158Y-64749500D01*
X215921155Y-64749500D01*
X215766510Y-64780261D01*
X215766498Y-64780264D01*
X215620827Y-64840602D01*
X215620814Y-64840609D01*
X215489711Y-64928210D01*
X215489707Y-64928213D01*
X215378213Y-65039707D01*
X215378210Y-65039711D01*
X215290609Y-65170814D01*
X215290602Y-65170827D01*
X215230264Y-65316498D01*
X215230261Y-65316510D01*
X215199500Y-65471153D01*
X205032138Y-65471153D01*
X205038161Y-65440874D01*
X205050500Y-65378844D01*
X205050500Y-65221155D01*
X205050499Y-65221153D01*
X205019738Y-65066510D01*
X205019737Y-65066503D01*
X205019735Y-65066498D01*
X204959397Y-64920827D01*
X204959390Y-64920814D01*
X204871789Y-64789711D01*
X204871786Y-64789707D01*
X204760292Y-64678213D01*
X204760288Y-64678210D01*
X204629185Y-64590609D01*
X204629172Y-64590602D01*
X204483501Y-64530264D01*
X204483489Y-64530261D01*
X204328845Y-64499500D01*
X204328842Y-64499500D01*
X204171158Y-64499500D01*
X204171155Y-64499500D01*
X204016510Y-64530261D01*
X204016498Y-64530264D01*
X203870827Y-64590602D01*
X203870814Y-64590609D01*
X203739711Y-64678210D01*
X203739707Y-64678213D01*
X203628213Y-64789707D01*
X203628210Y-64789711D01*
X203540609Y-64920814D01*
X203540602Y-64920827D01*
X203480264Y-65066498D01*
X203480261Y-65066510D01*
X203449500Y-65221153D01*
X197425000Y-65221153D01*
X197425000Y-62925000D01*
X190624500Y-62925000D01*
X190557461Y-62905315D01*
X190511706Y-62852511D01*
X190500500Y-62801000D01*
X190500500Y-59821153D01*
X201399500Y-59821153D01*
X201399500Y-59978846D01*
X201430261Y-60133489D01*
X201430264Y-60133501D01*
X201490602Y-60279172D01*
X201490609Y-60279185D01*
X201578210Y-60410288D01*
X201578213Y-60410292D01*
X201689707Y-60521786D01*
X201689711Y-60521789D01*
X201820814Y-60609390D01*
X201820827Y-60609397D01*
X201966498Y-60669735D01*
X201966503Y-60669737D01*
X202121153Y-60700499D01*
X202121156Y-60700500D01*
X202121158Y-60700500D01*
X202278844Y-60700500D01*
X202278845Y-60700499D01*
X202433497Y-60669737D01*
X202551592Y-60620821D01*
X202579172Y-60609397D01*
X202579172Y-60609396D01*
X202579179Y-60609394D01*
X202710289Y-60521789D01*
X202712312Y-60519766D01*
X202713634Y-60519043D01*
X202714999Y-60517924D01*
X202715211Y-60518182D01*
X202773632Y-60486276D01*
X202843324Y-60491255D01*
X202884939Y-60517999D01*
X202885001Y-60517924D01*
X202885648Y-60518454D01*
X202887688Y-60519766D01*
X202889711Y-60521789D01*
X203020814Y-60609390D01*
X203020827Y-60609397D01*
X203166498Y-60669735D01*
X203166503Y-60669737D01*
X203321153Y-60700499D01*
X203321156Y-60700500D01*
X203321158Y-60700500D01*
X203478844Y-60700500D01*
X203478845Y-60700499D01*
X203633497Y-60669737D01*
X203751592Y-60620821D01*
X203779172Y-60609397D01*
X203779172Y-60609396D01*
X203779179Y-60609394D01*
X203910289Y-60521789D01*
X204021789Y-60410289D01*
X204109394Y-60279179D01*
X204110438Y-60276659D01*
X204111337Y-60275543D01*
X204112264Y-60273809D01*
X204112592Y-60273984D01*
X204154277Y-60222255D01*
X204220571Y-60200188D01*
X204288271Y-60217466D01*
X204335882Y-60268602D01*
X204339562Y-60276659D01*
X204340604Y-60279175D01*
X204340609Y-60279185D01*
X204428210Y-60410288D01*
X204428213Y-60410292D01*
X204539707Y-60521786D01*
X204539711Y-60521789D01*
X204670814Y-60609390D01*
X204670827Y-60609397D01*
X204816498Y-60669735D01*
X204816503Y-60669737D01*
X204971153Y-60700499D01*
X204971156Y-60700500D01*
X204971158Y-60700500D01*
X205128844Y-60700500D01*
X205128845Y-60700499D01*
X205283497Y-60669737D01*
X205401592Y-60620821D01*
X205429172Y-60609397D01*
X205429172Y-60609396D01*
X205429179Y-60609394D01*
X205560289Y-60521789D01*
X205562312Y-60519766D01*
X205563634Y-60519043D01*
X205564999Y-60517924D01*
X205565211Y-60518182D01*
X205623632Y-60486276D01*
X205693324Y-60491255D01*
X205734939Y-60517999D01*
X205735001Y-60517924D01*
X205735648Y-60518454D01*
X205737688Y-60519766D01*
X205739711Y-60521789D01*
X205870814Y-60609390D01*
X205870827Y-60609397D01*
X206016498Y-60669735D01*
X206016503Y-60669737D01*
X206171153Y-60700499D01*
X206171156Y-60700500D01*
X206171158Y-60700500D01*
X206328844Y-60700500D01*
X206328845Y-60700499D01*
X206483497Y-60669737D01*
X206588717Y-60626153D01*
X206658183Y-60618685D01*
X206720662Y-60649960D01*
X206750728Y-60693261D01*
X206762282Y-60721155D01*
X206765606Y-60729178D01*
X206765609Y-60729185D01*
X206853210Y-60860288D01*
X206853213Y-60860292D01*
X206964707Y-60971786D01*
X206964711Y-60971789D01*
X207020996Y-61009398D01*
X207065801Y-61063010D01*
X207074508Y-61132335D01*
X207044353Y-61195363D01*
X207020996Y-61215602D01*
X206964711Y-61253210D01*
X206964707Y-61253213D01*
X206853213Y-61364707D01*
X206853210Y-61364711D01*
X206765609Y-61495814D01*
X206765602Y-61495827D01*
X206705264Y-61641498D01*
X206705261Y-61641510D01*
X206674500Y-61796153D01*
X206674500Y-61953846D01*
X206699365Y-62078846D01*
X206705263Y-62108497D01*
X206720863Y-62146158D01*
X206751803Y-62220856D01*
X206759271Y-62290326D01*
X206727995Y-62352805D01*
X206667906Y-62388457D01*
X206598081Y-62385962D01*
X206589788Y-62382869D01*
X206583497Y-62380263D01*
X206583489Y-62380261D01*
X206428845Y-62349500D01*
X206428842Y-62349500D01*
X206271158Y-62349500D01*
X206271155Y-62349500D01*
X206116510Y-62380261D01*
X206116498Y-62380264D01*
X205972452Y-62439930D01*
X205902983Y-62447399D01*
X205877548Y-62439930D01*
X205733501Y-62380264D01*
X205733489Y-62380261D01*
X205578845Y-62349500D01*
X205578842Y-62349500D01*
X205421158Y-62349500D01*
X205421155Y-62349500D01*
X205266510Y-62380261D01*
X205266498Y-62380264D01*
X205120827Y-62440602D01*
X205120814Y-62440609D01*
X204996742Y-62523512D01*
X204930064Y-62544390D01*
X204862684Y-62525905D01*
X204840170Y-62508091D01*
X204760292Y-62428213D01*
X204760288Y-62428210D01*
X204629185Y-62340609D01*
X204629172Y-62340602D01*
X204483501Y-62280264D01*
X204483489Y-62280261D01*
X204328845Y-62249500D01*
X204328842Y-62249500D01*
X204171158Y-62249500D01*
X204171155Y-62249500D01*
X204016510Y-62280261D01*
X204016498Y-62280264D01*
X203870827Y-62340602D01*
X203870814Y-62340609D01*
X203739711Y-62428210D01*
X203739707Y-62428213D01*
X203628213Y-62539707D01*
X203628210Y-62539711D01*
X203540609Y-62670814D01*
X203540602Y-62670827D01*
X203480264Y-62816498D01*
X203480261Y-62816510D01*
X203449500Y-62971153D01*
X203449500Y-63128846D01*
X203480261Y-63283489D01*
X203480264Y-63283501D01*
X203540602Y-63429172D01*
X203540609Y-63429185D01*
X203628210Y-63560288D01*
X203628213Y-63560292D01*
X203739707Y-63671786D01*
X203739711Y-63671789D01*
X203870814Y-63759390D01*
X203870827Y-63759397D01*
X203997998Y-63812072D01*
X204016503Y-63819737D01*
X204104426Y-63837226D01*
X204171153Y-63850499D01*
X204171156Y-63850500D01*
X204171158Y-63850500D01*
X204328844Y-63850500D01*
X204328845Y-63850499D01*
X204483497Y-63819737D01*
X204629179Y-63759394D01*
X204753258Y-63676486D01*
X204819934Y-63655609D01*
X204887314Y-63674093D01*
X204909829Y-63691908D01*
X204989707Y-63771786D01*
X204989711Y-63771789D01*
X205120814Y-63859390D01*
X205120827Y-63859397D01*
X205266498Y-63919735D01*
X205266503Y-63919737D01*
X205421153Y-63950499D01*
X205421156Y-63950500D01*
X205421158Y-63950500D01*
X205578844Y-63950500D01*
X205578845Y-63950499D01*
X205733497Y-63919737D01*
X205798033Y-63893005D01*
X205877548Y-63860070D01*
X205947017Y-63852601D01*
X205972452Y-63860070D01*
X206116498Y-63919735D01*
X206116503Y-63919737D01*
X206271153Y-63950499D01*
X206271156Y-63950500D01*
X206271158Y-63950500D01*
X206428844Y-63950500D01*
X206428845Y-63950499D01*
X206583497Y-63919737D01*
X206729179Y-63859394D01*
X206731110Y-63858103D01*
X206732276Y-63857737D01*
X206734546Y-63856525D01*
X206734776Y-63856955D01*
X206797786Y-63837226D01*
X206865166Y-63855710D01*
X206868850Y-63858077D01*
X206870821Y-63859394D01*
X206870824Y-63859395D01*
X206870827Y-63859397D01*
X207016498Y-63919735D01*
X207016503Y-63919737D01*
X207171153Y-63950499D01*
X207171156Y-63950500D01*
X207171158Y-63950500D01*
X207328844Y-63950500D01*
X207328845Y-63950499D01*
X207483497Y-63919737D01*
X207629179Y-63859394D01*
X207760289Y-63771789D01*
X207871789Y-63660289D01*
X207959394Y-63529179D01*
X208019737Y-63383497D01*
X208050500Y-63228842D01*
X208050500Y-63071158D01*
X208050500Y-63071155D01*
X208050499Y-63071153D01*
X208035298Y-62994735D01*
X208019737Y-62916503D01*
X207990861Y-62846789D01*
X207959397Y-62770827D01*
X207959390Y-62770814D01*
X207909691Y-62696435D01*
X207888813Y-62629758D01*
X207907297Y-62562378D01*
X207943902Y-62524442D01*
X207985289Y-62496789D01*
X208096789Y-62385289D01*
X208184394Y-62254179D01*
X208229139Y-62146153D01*
X211974500Y-62146153D01*
X211974500Y-62303846D01*
X212005261Y-62458489D01*
X212005264Y-62458501D01*
X212065602Y-62604172D01*
X212065609Y-62604185D01*
X212153210Y-62735288D01*
X212153213Y-62735292D01*
X212264707Y-62846786D01*
X212264711Y-62846789D01*
X212395814Y-62934390D01*
X212395827Y-62934397D01*
X212541498Y-62994735D01*
X212541503Y-62994737D01*
X212696153Y-63025499D01*
X212696156Y-63025500D01*
X212696158Y-63025500D01*
X212853844Y-63025500D01*
X212853845Y-63025499D01*
X213008497Y-62994737D01*
X213154179Y-62934394D01*
X213285289Y-62846789D01*
X213396789Y-62735289D01*
X213484394Y-62604179D01*
X213544737Y-62458497D01*
X213575500Y-62303842D01*
X213575500Y-62146158D01*
X213575500Y-62146155D01*
X213575499Y-62146153D01*
X213574128Y-62139257D01*
X213570527Y-62121153D01*
X215699500Y-62121153D01*
X215699500Y-62278846D01*
X215730261Y-62433489D01*
X215730264Y-62433501D01*
X215790602Y-62579172D01*
X215790609Y-62579185D01*
X215878210Y-62710288D01*
X215878213Y-62710292D01*
X215989707Y-62821786D01*
X215989711Y-62821789D01*
X216120814Y-62909390D01*
X216120827Y-62909397D01*
X216218853Y-62950000D01*
X216266503Y-62969737D01*
X216392176Y-62994735D01*
X216421153Y-63000499D01*
X216421156Y-63000500D01*
X216421158Y-63000500D01*
X216578844Y-63000500D01*
X216578845Y-63000499D01*
X216733497Y-62969737D01*
X216879179Y-62909394D01*
X217010289Y-62821789D01*
X217121789Y-62710289D01*
X217209394Y-62579179D01*
X217269737Y-62433497D01*
X217300500Y-62278842D01*
X217300500Y-62121158D01*
X217300500Y-62121155D01*
X217300499Y-62121153D01*
X217297980Y-62108489D01*
X217269737Y-61966503D01*
X217250955Y-61921158D01*
X217209397Y-61820827D01*
X217209390Y-61820814D01*
X217121789Y-61689711D01*
X217121786Y-61689707D01*
X217010292Y-61578213D01*
X217010288Y-61578210D01*
X216879185Y-61490609D01*
X216879172Y-61490602D01*
X216733501Y-61430264D01*
X216733489Y-61430261D01*
X216578845Y-61399500D01*
X216578842Y-61399500D01*
X216421158Y-61399500D01*
X216421155Y-61399500D01*
X216266510Y-61430261D01*
X216266498Y-61430264D01*
X216120827Y-61490602D01*
X216120814Y-61490609D01*
X215989711Y-61578210D01*
X215989707Y-61578213D01*
X215878213Y-61689707D01*
X215878210Y-61689711D01*
X215790609Y-61820814D01*
X215790602Y-61820827D01*
X215730264Y-61966498D01*
X215730261Y-61966510D01*
X215699500Y-62121153D01*
X213570527Y-62121153D01*
X213544738Y-61991508D01*
X213544737Y-61991507D01*
X213544737Y-61991503D01*
X213489498Y-61858145D01*
X213482030Y-61788677D01*
X213500957Y-61741805D01*
X213509394Y-61729179D01*
X213569737Y-61583497D01*
X213600500Y-61428842D01*
X213600500Y-61271158D01*
X213600500Y-61271155D01*
X213600499Y-61271153D01*
X213596930Y-61253210D01*
X213569737Y-61116503D01*
X213554138Y-61078844D01*
X213509394Y-60970820D01*
X213476207Y-60921153D01*
X213999500Y-60921153D01*
X213999500Y-61078846D01*
X214030261Y-61233489D01*
X214030264Y-61233501D01*
X214090602Y-61379172D01*
X214090609Y-61379185D01*
X214178210Y-61510288D01*
X214178213Y-61510292D01*
X214289707Y-61621786D01*
X214289711Y-61621789D01*
X214420814Y-61709390D01*
X214420827Y-61709397D01*
X214566498Y-61769735D01*
X214566503Y-61769737D01*
X214721153Y-61800499D01*
X214721156Y-61800500D01*
X214721158Y-61800500D01*
X214878844Y-61800500D01*
X214878845Y-61800499D01*
X215033497Y-61769737D01*
X215179179Y-61709394D01*
X215310289Y-61621789D01*
X215421789Y-61510289D01*
X215509394Y-61379179D01*
X215515389Y-61364707D01*
X215545575Y-61291829D01*
X215569737Y-61233497D01*
X215600500Y-61078842D01*
X215600500Y-60921158D01*
X215600500Y-60921155D01*
X215600499Y-60921153D01*
X215596581Y-60901456D01*
X215569737Y-60766503D01*
X215569735Y-60766498D01*
X215509397Y-60620827D01*
X215509390Y-60620814D01*
X215421789Y-60489711D01*
X215421786Y-60489707D01*
X215310292Y-60378213D01*
X215310288Y-60378210D01*
X215179185Y-60290609D01*
X215179172Y-60290602D01*
X215033501Y-60230264D01*
X215033489Y-60230261D01*
X214878845Y-60199500D01*
X214878842Y-60199500D01*
X214721158Y-60199500D01*
X214721155Y-60199500D01*
X214566510Y-60230261D01*
X214566498Y-60230264D01*
X214420827Y-60290602D01*
X214420814Y-60290609D01*
X214289711Y-60378210D01*
X214289707Y-60378213D01*
X214178213Y-60489707D01*
X214178210Y-60489711D01*
X214090609Y-60620814D01*
X214090602Y-60620827D01*
X214030264Y-60766498D01*
X214030261Y-60766510D01*
X213999500Y-60921153D01*
X213476207Y-60921153D01*
X213421789Y-60839711D01*
X213421786Y-60839707D01*
X213310292Y-60728213D01*
X213310288Y-60728210D01*
X213179185Y-60640609D01*
X213179172Y-60640602D01*
X213033501Y-60580264D01*
X213033489Y-60580261D01*
X212878845Y-60549500D01*
X212878842Y-60549500D01*
X212721158Y-60549500D01*
X212721155Y-60549500D01*
X212566510Y-60580261D01*
X212566498Y-60580264D01*
X212420827Y-60640602D01*
X212420814Y-60640609D01*
X212289711Y-60728210D01*
X212289707Y-60728213D01*
X212178213Y-60839707D01*
X212178210Y-60839711D01*
X212090609Y-60970814D01*
X212090602Y-60970827D01*
X212030264Y-61116498D01*
X212030261Y-61116510D01*
X211999500Y-61271153D01*
X211999500Y-61428846D01*
X212030261Y-61583489D01*
X212030264Y-61583501D01*
X212085500Y-61716853D01*
X212092969Y-61786322D01*
X212074043Y-61833193D01*
X212065610Y-61845814D01*
X212065602Y-61845828D01*
X212005264Y-61991498D01*
X212005261Y-61991510D01*
X211974500Y-62146153D01*
X208229139Y-62146153D01*
X208244737Y-62108497D01*
X208275500Y-61953842D01*
X208275500Y-61796158D01*
X208275500Y-61796155D01*
X208275499Y-61796153D01*
X208270245Y-61769738D01*
X208244737Y-61641503D01*
X208190069Y-61509523D01*
X208182601Y-61440055D01*
X208213876Y-61377576D01*
X208273965Y-61341924D01*
X208343790Y-61344418D01*
X208392312Y-61374391D01*
X208439707Y-61421786D01*
X208439711Y-61421789D01*
X208570814Y-61509390D01*
X208570827Y-61509397D01*
X208716498Y-61569735D01*
X208716503Y-61569737D01*
X208871153Y-61600499D01*
X208871156Y-61600500D01*
X208871158Y-61600500D01*
X209028844Y-61600500D01*
X209028845Y-61600499D01*
X209183497Y-61569737D01*
X209329179Y-61509394D01*
X209406109Y-61457991D01*
X209472786Y-61437113D01*
X209540166Y-61455597D01*
X209543891Y-61457991D01*
X209620821Y-61509394D01*
X209620823Y-61509395D01*
X209620827Y-61509397D01*
X209766498Y-61569735D01*
X209766503Y-61569737D01*
X209921153Y-61600499D01*
X209921156Y-61600500D01*
X209921158Y-61600500D01*
X210078844Y-61600500D01*
X210078845Y-61600499D01*
X210233497Y-61569737D01*
X210379179Y-61509394D01*
X210510289Y-61421789D01*
X210621789Y-61310289D01*
X210709394Y-61179179D01*
X210769737Y-61033497D01*
X210800500Y-60878842D01*
X210800500Y-60721158D01*
X210800500Y-60721155D01*
X210800499Y-60721153D01*
X210769737Y-60566503D01*
X210762694Y-60549500D01*
X210709397Y-60420827D01*
X210709390Y-60420814D01*
X210621789Y-60289711D01*
X210621786Y-60289707D01*
X210510292Y-60178213D01*
X210510288Y-60178210D01*
X210379185Y-60090609D01*
X210379172Y-60090602D01*
X210233501Y-60030264D01*
X210233489Y-60030261D01*
X210078845Y-59999500D01*
X210078842Y-59999500D01*
X209921158Y-59999500D01*
X209921155Y-59999500D01*
X209766510Y-60030261D01*
X209766498Y-60030264D01*
X209620827Y-60090602D01*
X209620809Y-60090612D01*
X209543890Y-60142008D01*
X209477213Y-60162886D01*
X209409833Y-60144401D01*
X209406110Y-60142008D01*
X209329190Y-60090612D01*
X209329172Y-60090602D01*
X209183501Y-60030264D01*
X209183489Y-60030261D01*
X209028845Y-59999500D01*
X209028842Y-59999500D01*
X208871158Y-59999500D01*
X208871155Y-59999500D01*
X208716510Y-60030261D01*
X208716498Y-60030264D01*
X208570827Y-60090602D01*
X208570814Y-60090609D01*
X208434646Y-60181595D01*
X208433525Y-60179918D01*
X208377709Y-60203612D01*
X208308844Y-60191808D01*
X208257293Y-60144646D01*
X208247225Y-60122064D01*
X208247068Y-60122130D01*
X208184397Y-59970827D01*
X208184390Y-59970814D01*
X208096789Y-59839711D01*
X208096786Y-59839707D01*
X207985292Y-59728213D01*
X207985288Y-59728210D01*
X207854185Y-59640609D01*
X207854172Y-59640602D01*
X207708501Y-59580264D01*
X207708489Y-59580261D01*
X207553845Y-59549500D01*
X207553842Y-59549500D01*
X207396158Y-59549500D01*
X207396155Y-59549500D01*
X207241510Y-59580261D01*
X207241498Y-59580264D01*
X207136284Y-59623845D01*
X207066815Y-59631314D01*
X207004336Y-59600038D01*
X206974271Y-59556737D01*
X206959395Y-59520823D01*
X206959390Y-59520814D01*
X206871789Y-59389711D01*
X206871786Y-59389707D01*
X206760292Y-59278213D01*
X206760288Y-59278210D01*
X206629185Y-59190609D01*
X206629172Y-59190602D01*
X206483501Y-59130264D01*
X206483489Y-59130261D01*
X206328845Y-59099500D01*
X206328842Y-59099500D01*
X206171158Y-59099500D01*
X206171155Y-59099500D01*
X206016510Y-59130261D01*
X206016498Y-59130264D01*
X205870827Y-59190602D01*
X205870814Y-59190609D01*
X205739711Y-59278210D01*
X205739707Y-59278213D01*
X205737681Y-59280240D01*
X205736357Y-59280962D01*
X205735001Y-59282076D01*
X205734789Y-59281818D01*
X205676358Y-59313725D01*
X205606666Y-59308741D01*
X205565060Y-59282001D01*
X205564999Y-59282076D01*
X205564360Y-59281552D01*
X205562319Y-59280240D01*
X205560292Y-59278213D01*
X205560288Y-59278210D01*
X205429185Y-59190609D01*
X205429172Y-59190602D01*
X205283501Y-59130264D01*
X205283489Y-59130261D01*
X205128845Y-59099500D01*
X205128842Y-59099500D01*
X204971158Y-59099500D01*
X204971155Y-59099500D01*
X204816510Y-59130261D01*
X204816498Y-59130264D01*
X204670827Y-59190602D01*
X204670814Y-59190609D01*
X204539711Y-59278210D01*
X204539707Y-59278213D01*
X204428213Y-59389707D01*
X204428210Y-59389711D01*
X204340609Y-59520814D01*
X204340603Y-59520826D01*
X204339560Y-59523345D01*
X204338660Y-59524460D01*
X204337736Y-59526191D01*
X204337407Y-59526015D01*
X204295718Y-59577747D01*
X204229424Y-59599811D01*
X204161725Y-59582531D01*
X204114115Y-59531393D01*
X204110440Y-59523345D01*
X204109396Y-59520826D01*
X204109394Y-59520821D01*
X204109392Y-59520818D01*
X204109390Y-59520814D01*
X204021789Y-59389711D01*
X204021786Y-59389707D01*
X203910292Y-59278213D01*
X203910288Y-59278210D01*
X203779185Y-59190609D01*
X203779172Y-59190602D01*
X203633501Y-59130264D01*
X203633489Y-59130261D01*
X203478845Y-59099500D01*
X203478842Y-59099500D01*
X203321158Y-59099500D01*
X203321155Y-59099500D01*
X203166510Y-59130261D01*
X203166498Y-59130264D01*
X203020827Y-59190602D01*
X203020814Y-59190609D01*
X202889711Y-59278210D01*
X202889707Y-59278213D01*
X202887681Y-59280240D01*
X202886357Y-59280962D01*
X202885001Y-59282076D01*
X202884789Y-59281818D01*
X202826358Y-59313725D01*
X202756666Y-59308741D01*
X202715060Y-59282001D01*
X202714999Y-59282076D01*
X202714360Y-59281552D01*
X202712319Y-59280240D01*
X202710292Y-59278213D01*
X202710288Y-59278210D01*
X202579185Y-59190609D01*
X202579172Y-59190602D01*
X202433501Y-59130264D01*
X202433489Y-59130261D01*
X202278845Y-59099500D01*
X202278842Y-59099500D01*
X202121158Y-59099500D01*
X202121155Y-59099500D01*
X201966510Y-59130261D01*
X201966498Y-59130264D01*
X201820827Y-59190602D01*
X201820814Y-59190609D01*
X201689711Y-59278210D01*
X201689707Y-59278213D01*
X201578213Y-59389707D01*
X201578210Y-59389711D01*
X201490609Y-59520814D01*
X201490602Y-59520827D01*
X201430264Y-59666498D01*
X201430261Y-59666510D01*
X201399500Y-59821153D01*
X190500500Y-59821153D01*
X190500500Y-58621153D01*
X215349500Y-58621153D01*
X215349500Y-58778844D01*
X215380261Y-58933489D01*
X215380264Y-58933501D01*
X215440602Y-59079172D01*
X215440609Y-59079185D01*
X215528210Y-59210288D01*
X215528213Y-59210292D01*
X215639707Y-59321786D01*
X215639711Y-59321789D01*
X215770814Y-59409390D01*
X215770827Y-59409397D01*
X215916498Y-59469735D01*
X215916503Y-59469737D01*
X216071153Y-59500499D01*
X216071156Y-59500500D01*
X216071158Y-59500500D01*
X216228844Y-59500500D01*
X216228845Y-59500499D01*
X216383497Y-59469737D01*
X216439120Y-59446697D01*
X216534808Y-59407063D01*
X216535266Y-59408170D01*
X216597447Y-59395223D01*
X216639929Y-59407696D01*
X216640192Y-59407063D01*
X216791498Y-59469735D01*
X216791503Y-59469737D01*
X216946153Y-59500499D01*
X216946156Y-59500500D01*
X216946158Y-59500500D01*
X217103844Y-59500500D01*
X217103845Y-59500499D01*
X217258497Y-59469737D01*
X217314120Y-59446697D01*
X217409808Y-59407063D01*
X217410266Y-59408170D01*
X217472447Y-59395223D01*
X217514929Y-59407696D01*
X217515192Y-59407063D01*
X217666498Y-59469735D01*
X217666503Y-59469737D01*
X217821153Y-59500499D01*
X217821156Y-59500500D01*
X217821158Y-59500500D01*
X217978844Y-59500500D01*
X217978845Y-59500499D01*
X218133497Y-59469737D01*
X218279179Y-59409394D01*
X218410289Y-59321789D01*
X218521789Y-59210289D01*
X218609394Y-59079179D01*
X218669737Y-58933497D01*
X218688796Y-58837681D01*
X218700500Y-58778844D01*
X218700500Y-58621155D01*
X218700499Y-58621153D01*
X218671211Y-58473914D01*
X218669737Y-58466503D01*
X218669735Y-58466498D01*
X218609397Y-58320827D01*
X218609390Y-58320814D01*
X218521789Y-58189711D01*
X218521786Y-58189707D01*
X218430622Y-58098543D01*
X229099499Y-58098543D01*
X229137947Y-58291829D01*
X229137950Y-58291839D01*
X229213364Y-58473907D01*
X229213371Y-58473920D01*
X229322860Y-58637781D01*
X229322863Y-58637785D01*
X229347397Y-58662319D01*
X229380882Y-58723642D01*
X229375898Y-58793334D01*
X229347397Y-58837681D01*
X229322863Y-58862214D01*
X229322860Y-58862218D01*
X229213371Y-59026079D01*
X229213364Y-59026092D01*
X229137950Y-59208160D01*
X229137947Y-59208170D01*
X229099500Y-59401456D01*
X229099500Y-59401459D01*
X229099500Y-59598541D01*
X229099500Y-59598543D01*
X229099499Y-59598543D01*
X229137947Y-59791829D01*
X229137950Y-59791839D01*
X229213364Y-59973907D01*
X229213371Y-59973920D01*
X229322860Y-60137781D01*
X229322863Y-60137785D01*
X229347397Y-60162319D01*
X229380882Y-60223642D01*
X229375898Y-60293334D01*
X229347397Y-60337681D01*
X229322863Y-60362214D01*
X229322860Y-60362218D01*
X229213371Y-60526079D01*
X229213364Y-60526092D01*
X229137950Y-60708160D01*
X229137947Y-60708170D01*
X229099500Y-60901456D01*
X229099500Y-60901459D01*
X229099500Y-61098541D01*
X229099500Y-61098543D01*
X229099499Y-61098543D01*
X229137947Y-61291829D01*
X229137950Y-61291839D01*
X229213364Y-61473907D01*
X229213371Y-61473920D01*
X229322860Y-61637781D01*
X229322863Y-61637785D01*
X229462214Y-61777136D01*
X229462218Y-61777139D01*
X229626079Y-61886628D01*
X229626092Y-61886635D01*
X229788351Y-61953844D01*
X229808165Y-61962051D01*
X229808169Y-61962051D01*
X229808170Y-61962052D01*
X230001456Y-62000500D01*
X230001459Y-62000500D01*
X230198543Y-62000500D01*
X230369418Y-61966510D01*
X230391835Y-61962051D01*
X230573914Y-61886632D01*
X230702820Y-61800500D01*
X230731109Y-61781598D01*
X230797787Y-61760720D01*
X230865167Y-61779204D01*
X230868891Y-61781598D01*
X231026079Y-61886628D01*
X231026092Y-61886635D01*
X231188351Y-61953844D01*
X231208165Y-61962051D01*
X231208169Y-61962051D01*
X231208170Y-61962052D01*
X231401456Y-62000500D01*
X231401459Y-62000500D01*
X231598543Y-62000500D01*
X231769418Y-61966510D01*
X231791835Y-61962051D01*
X231890572Y-61921153D01*
X245699500Y-61921153D01*
X245699500Y-62078846D01*
X245730261Y-62233489D01*
X245730264Y-62233501D01*
X245790602Y-62379172D01*
X245790609Y-62379185D01*
X245878210Y-62510288D01*
X245878213Y-62510292D01*
X245989707Y-62621786D01*
X245989711Y-62621789D01*
X246120814Y-62709390D01*
X246120827Y-62709397D01*
X246266498Y-62769735D01*
X246266503Y-62769737D01*
X246421153Y-62800499D01*
X246421156Y-62800500D01*
X246421158Y-62800500D01*
X246578844Y-62800500D01*
X246578845Y-62800499D01*
X246733497Y-62769737D01*
X246879179Y-62709394D01*
X247010289Y-62621789D01*
X247121789Y-62510289D01*
X247209394Y-62379179D01*
X247269737Y-62233497D01*
X247300500Y-62078842D01*
X247300500Y-61921158D01*
X247300500Y-61921155D01*
X247300499Y-61921153D01*
X247293632Y-61886632D01*
X247269737Y-61766503D01*
X247254275Y-61729173D01*
X247209397Y-61620827D01*
X247209390Y-61620814D01*
X247121789Y-61489711D01*
X247121786Y-61489707D01*
X247010292Y-61378213D01*
X247010288Y-61378210D01*
X246879185Y-61290609D01*
X246879172Y-61290602D01*
X246733501Y-61230264D01*
X246733489Y-61230261D01*
X246578845Y-61199500D01*
X246578842Y-61199500D01*
X246421158Y-61199500D01*
X246421155Y-61199500D01*
X246266510Y-61230261D01*
X246266498Y-61230264D01*
X246120827Y-61290602D01*
X246120814Y-61290609D01*
X245989711Y-61378210D01*
X245989707Y-61378213D01*
X245878213Y-61489707D01*
X245878210Y-61489711D01*
X245790609Y-61620814D01*
X245790602Y-61620827D01*
X245730264Y-61766498D01*
X245730261Y-61766510D01*
X245699500Y-61921153D01*
X231890572Y-61921153D01*
X231973914Y-61886632D01*
X232053891Y-61833193D01*
X232085663Y-61811964D01*
X232137782Y-61777139D01*
X232277136Y-61637785D01*
X232277139Y-61637782D01*
X232386632Y-61473914D01*
X232393228Y-61457991D01*
X232426273Y-61378211D01*
X232462051Y-61291835D01*
X232496928Y-61116498D01*
X232500500Y-61098543D01*
X232500500Y-60901456D01*
X232462052Y-60708170D01*
X232462051Y-60708169D01*
X232462051Y-60708165D01*
X232434069Y-60640609D01*
X232386635Y-60526092D01*
X232386628Y-60526079D01*
X232277140Y-60362219D01*
X232277135Y-60362214D01*
X232252601Y-60337680D01*
X232219117Y-60276360D01*
X232224100Y-60206668D01*
X232252601Y-60162319D01*
X232277139Y-60137782D01*
X232386632Y-59973914D01*
X232462051Y-59791835D01*
X232474707Y-59728210D01*
X232500500Y-59598543D01*
X232500500Y-59401456D01*
X232462052Y-59208170D01*
X232462051Y-59208169D01*
X232462051Y-59208165D01*
X232429783Y-59130263D01*
X232386635Y-59026092D01*
X232386628Y-59026079D01*
X232277140Y-58862219D01*
X232277135Y-58862214D01*
X232252601Y-58837680D01*
X232219117Y-58776360D01*
X232224100Y-58706668D01*
X232252601Y-58662319D01*
X232277139Y-58637782D01*
X232386632Y-58473914D01*
X232462051Y-58291835D01*
X232488217Y-58160292D01*
X232500500Y-58098543D01*
X232500500Y-57901456D01*
X232462052Y-57708170D01*
X232462051Y-57708169D01*
X232462051Y-57708165D01*
X232446984Y-57671789D01*
X232386635Y-57526092D01*
X232386628Y-57526079D01*
X232277139Y-57362218D01*
X232277136Y-57362214D01*
X232137785Y-57222863D01*
X232137781Y-57222860D01*
X231973920Y-57113371D01*
X231973907Y-57113364D01*
X231892456Y-57079627D01*
X231791839Y-57037950D01*
X231791829Y-57037947D01*
X231598543Y-56999500D01*
X231598541Y-56999500D01*
X231401459Y-56999500D01*
X231401457Y-56999500D01*
X231208170Y-57037947D01*
X231208160Y-57037950D01*
X231026092Y-57113364D01*
X231026074Y-57113374D01*
X230868890Y-57218401D01*
X230802213Y-57239279D01*
X230734833Y-57220794D01*
X230731110Y-57218401D01*
X230573925Y-57113374D01*
X230573907Y-57113364D01*
X230391839Y-57037950D01*
X230391829Y-57037947D01*
X230198543Y-56999500D01*
X230198541Y-56999500D01*
X230001459Y-56999500D01*
X230001457Y-56999500D01*
X229808170Y-57037947D01*
X229808160Y-57037950D01*
X229626092Y-57113364D01*
X229626079Y-57113371D01*
X229462218Y-57222860D01*
X229462214Y-57222863D01*
X229322863Y-57362214D01*
X229322860Y-57362218D01*
X229213371Y-57526079D01*
X229213364Y-57526092D01*
X229137950Y-57708160D01*
X229137947Y-57708170D01*
X229099500Y-57901456D01*
X229099500Y-57901459D01*
X229099500Y-58098541D01*
X229099500Y-58098543D01*
X229099499Y-58098543D01*
X218430622Y-58098543D01*
X218410292Y-58078213D01*
X218410288Y-58078210D01*
X218290948Y-57998469D01*
X218279183Y-57990608D01*
X218279172Y-57990602D01*
X218133501Y-57930264D01*
X218133489Y-57930261D01*
X217978845Y-57899500D01*
X217978842Y-57899500D01*
X217821158Y-57899500D01*
X217821155Y-57899500D01*
X217666510Y-57930261D01*
X217666498Y-57930264D01*
X217515193Y-57992937D01*
X217514734Y-57991831D01*
X217452544Y-58004777D01*
X217410068Y-57992304D01*
X217409807Y-57992937D01*
X217258501Y-57930264D01*
X217258489Y-57930261D01*
X217103845Y-57899500D01*
X217103842Y-57899500D01*
X216946158Y-57899500D01*
X216946155Y-57899500D01*
X216791510Y-57930261D01*
X216791498Y-57930264D01*
X216640193Y-57992937D01*
X216639734Y-57991831D01*
X216577544Y-58004777D01*
X216535068Y-57992304D01*
X216534807Y-57992937D01*
X216383501Y-57930264D01*
X216383489Y-57930261D01*
X216228845Y-57899500D01*
X216228842Y-57899500D01*
X216071158Y-57899500D01*
X216071155Y-57899500D01*
X215916510Y-57930261D01*
X215916498Y-57930264D01*
X215770827Y-57990602D01*
X215770814Y-57990609D01*
X215639711Y-58078210D01*
X215639707Y-58078213D01*
X215528213Y-58189707D01*
X215528210Y-58189711D01*
X215440609Y-58320814D01*
X215440602Y-58320827D01*
X215380264Y-58466498D01*
X215380261Y-58466510D01*
X215349500Y-58621153D01*
X190500500Y-58621153D01*
X190500500Y-57571153D01*
X211449500Y-57571153D01*
X211449500Y-57728846D01*
X211480261Y-57883489D01*
X211480264Y-57883501D01*
X211540602Y-58029172D01*
X211540609Y-58029185D01*
X211628210Y-58160288D01*
X211628213Y-58160292D01*
X211739707Y-58271786D01*
X211739711Y-58271789D01*
X211870814Y-58359390D01*
X211870827Y-58359397D01*
X212016498Y-58419735D01*
X212016503Y-58419737D01*
X212171153Y-58450499D01*
X212171156Y-58450500D01*
X212171158Y-58450500D01*
X212328844Y-58450500D01*
X212328845Y-58450499D01*
X212483497Y-58419737D01*
X212629179Y-58359394D01*
X212760289Y-58271789D01*
X212871789Y-58160289D01*
X212959394Y-58029179D01*
X213019737Y-57883497D01*
X213050500Y-57728842D01*
X213050500Y-57571158D01*
X213050500Y-57571155D01*
X213050499Y-57571153D01*
X213041536Y-57526092D01*
X213019737Y-57416503D01*
X212965300Y-57285079D01*
X212959397Y-57270827D01*
X212959390Y-57270814D01*
X212871789Y-57139711D01*
X212871786Y-57139707D01*
X212760292Y-57028213D01*
X212760288Y-57028210D01*
X212674897Y-56971153D01*
X234749500Y-56971153D01*
X234749500Y-57128846D01*
X234780261Y-57283489D01*
X234780264Y-57283501D01*
X234840602Y-57429172D01*
X234840609Y-57429185D01*
X234928210Y-57560288D01*
X234928213Y-57560292D01*
X235039707Y-57671786D01*
X235039711Y-57671789D01*
X235170814Y-57759390D01*
X235170827Y-57759397D01*
X235316498Y-57819735D01*
X235316503Y-57819737D01*
X235471153Y-57850499D01*
X235471156Y-57850500D01*
X235471158Y-57850500D01*
X235628844Y-57850500D01*
X235628845Y-57850499D01*
X235783497Y-57819737D01*
X235929179Y-57759394D01*
X236060289Y-57671789D01*
X236171789Y-57560289D01*
X236259394Y-57429179D01*
X236319737Y-57283497D01*
X236350500Y-57128842D01*
X236350500Y-56971158D01*
X236350500Y-56971155D01*
X236350499Y-56971153D01*
X236332419Y-56880261D01*
X236319737Y-56816503D01*
X236319735Y-56816498D01*
X236259397Y-56670827D01*
X236259390Y-56670814D01*
X236171789Y-56539711D01*
X236171786Y-56539707D01*
X236060292Y-56428213D01*
X236060288Y-56428210D01*
X235929185Y-56340609D01*
X235929172Y-56340602D01*
X235783501Y-56280264D01*
X235783489Y-56280261D01*
X235628845Y-56249500D01*
X235628842Y-56249500D01*
X235471158Y-56249500D01*
X235471155Y-56249500D01*
X235316510Y-56280261D01*
X235316498Y-56280264D01*
X235170827Y-56340602D01*
X235170814Y-56340609D01*
X235039711Y-56428210D01*
X235039707Y-56428213D01*
X234928213Y-56539707D01*
X234928210Y-56539711D01*
X234840609Y-56670814D01*
X234840602Y-56670827D01*
X234780264Y-56816498D01*
X234780261Y-56816510D01*
X234749500Y-56971153D01*
X212674897Y-56971153D01*
X212629185Y-56940609D01*
X212629172Y-56940602D01*
X212483501Y-56880264D01*
X212483489Y-56880261D01*
X212328845Y-56849500D01*
X212328842Y-56849500D01*
X212171158Y-56849500D01*
X212171155Y-56849500D01*
X212016510Y-56880261D01*
X212016498Y-56880264D01*
X211870827Y-56940602D01*
X211870814Y-56940609D01*
X211739711Y-57028210D01*
X211739707Y-57028213D01*
X211628213Y-57139707D01*
X211628210Y-57139711D01*
X211540609Y-57270814D01*
X211540602Y-57270827D01*
X211480264Y-57416498D01*
X211480261Y-57416510D01*
X211449500Y-57571153D01*
X190500500Y-57571153D01*
X190500500Y-55003750D01*
X190500726Y-54996263D01*
X190518271Y-54706205D01*
X190520076Y-54691340D01*
X190571780Y-54409201D01*
X190575364Y-54394663D01*
X190652096Y-54148422D01*
X190660696Y-54120822D01*
X190665998Y-54106841D01*
X190783731Y-53845249D01*
X190790676Y-53832016D01*
X190929644Y-53602135D01*
X198649500Y-53602135D01*
X198649500Y-55397870D01*
X198649501Y-55397876D01*
X198655908Y-55457483D01*
X198706202Y-55592328D01*
X198706206Y-55592335D01*
X198792452Y-55707544D01*
X198792455Y-55707547D01*
X198907664Y-55793793D01*
X198907671Y-55793797D01*
X199042517Y-55844091D01*
X199042516Y-55844091D01*
X199049444Y-55844835D01*
X199102127Y-55850500D01*
X200897872Y-55850499D01*
X200957483Y-55844091D01*
X201092331Y-55793796D01*
X201207546Y-55707546D01*
X201293796Y-55592331D01*
X201344091Y-55457483D01*
X201350500Y-55397873D01*
X201350499Y-54393713D01*
X203729500Y-54393713D01*
X203729500Y-54606286D01*
X203745325Y-54706205D01*
X203762754Y-54816243D01*
X203821246Y-54996263D01*
X203828444Y-55018414D01*
X203924951Y-55207820D01*
X204049890Y-55379786D01*
X204200213Y-55530109D01*
X204372179Y-55655048D01*
X204372181Y-55655049D01*
X204372184Y-55655051D01*
X204561588Y-55751557D01*
X204763757Y-55817246D01*
X204973713Y-55850500D01*
X204973714Y-55850500D01*
X205186286Y-55850500D01*
X205186287Y-55850500D01*
X205396243Y-55817246D01*
X205598412Y-55751557D01*
X205787816Y-55655051D01*
X205874138Y-55592335D01*
X205959786Y-55530109D01*
X205959788Y-55530106D01*
X205959792Y-55530104D01*
X206110104Y-55379792D01*
X206110106Y-55379788D01*
X206110109Y-55379786D01*
X206235048Y-55207820D01*
X206235047Y-55207820D01*
X206235051Y-55207816D01*
X206239514Y-55199054D01*
X206287488Y-55148259D01*
X206355308Y-55131463D01*
X206421444Y-55153999D01*
X206460486Y-55199056D01*
X206464951Y-55207820D01*
X206589890Y-55379786D01*
X206740213Y-55530109D01*
X206912179Y-55655048D01*
X206912181Y-55655049D01*
X206912184Y-55655051D01*
X207101588Y-55751557D01*
X207303757Y-55817246D01*
X207513713Y-55850500D01*
X207513714Y-55850500D01*
X207726286Y-55850500D01*
X207726287Y-55850500D01*
X207936243Y-55817246D01*
X208138412Y-55751557D01*
X208327816Y-55655051D01*
X208414138Y-55592335D01*
X208499786Y-55530109D01*
X208499788Y-55530106D01*
X208499792Y-55530104D01*
X208650104Y-55379792D01*
X208650106Y-55379788D01*
X208650109Y-55379786D01*
X208775048Y-55207820D01*
X208775047Y-55207820D01*
X208775051Y-55207816D01*
X208871557Y-55018412D01*
X208937246Y-54816243D01*
X208970500Y-54606287D01*
X208970500Y-54393713D01*
X208937246Y-54183757D01*
X208871557Y-53981588D01*
X208775051Y-53792184D01*
X208761077Y-53772950D01*
X208687511Y-53671694D01*
X208687508Y-53671691D01*
X208650107Y-53620213D01*
X208650104Y-53620208D01*
X208632031Y-53602135D01*
X211339500Y-53602135D01*
X211339500Y-55397870D01*
X211339501Y-55397876D01*
X211345908Y-55457483D01*
X211396202Y-55592328D01*
X211396206Y-55592335D01*
X211482452Y-55707544D01*
X211482455Y-55707547D01*
X211597664Y-55793793D01*
X211597671Y-55793797D01*
X211732517Y-55844091D01*
X211732516Y-55844091D01*
X211739444Y-55844835D01*
X211792127Y-55850500D01*
X213587872Y-55850499D01*
X213647483Y-55844091D01*
X213782331Y-55793796D01*
X213897546Y-55707546D01*
X213983796Y-55592331D01*
X214034091Y-55457483D01*
X214040500Y-55397873D01*
X214040499Y-54393713D01*
X216419500Y-54393713D01*
X216419500Y-54606286D01*
X216435325Y-54706205D01*
X216452754Y-54816243D01*
X216511246Y-54996263D01*
X216518444Y-55018414D01*
X216614951Y-55207820D01*
X216739890Y-55379786D01*
X216890213Y-55530109D01*
X217062179Y-55655048D01*
X217062181Y-55655049D01*
X217062184Y-55655051D01*
X217251588Y-55751557D01*
X217453757Y-55817246D01*
X217663713Y-55850500D01*
X217663714Y-55850500D01*
X217876286Y-55850500D01*
X217876287Y-55850500D01*
X218086243Y-55817246D01*
X218288412Y-55751557D01*
X218477816Y-55655051D01*
X218564138Y-55592335D01*
X218649786Y-55530109D01*
X218649788Y-55530106D01*
X218649792Y-55530104D01*
X218800104Y-55379792D01*
X218800106Y-55379788D01*
X218800109Y-55379786D01*
X218925048Y-55207820D01*
X218925047Y-55207820D01*
X218925051Y-55207816D01*
X218929514Y-55199054D01*
X218977488Y-55148259D01*
X219045308Y-55131463D01*
X219111444Y-55153999D01*
X219150486Y-55199056D01*
X219154951Y-55207820D01*
X219279890Y-55379786D01*
X219430213Y-55530109D01*
X219602179Y-55655048D01*
X219602181Y-55655049D01*
X219602184Y-55655051D01*
X219791588Y-55751557D01*
X219993757Y-55817246D01*
X220203713Y-55850500D01*
X220203714Y-55850500D01*
X220416286Y-55850500D01*
X220416287Y-55850500D01*
X220626243Y-55817246D01*
X220828412Y-55751557D01*
X221017816Y-55655051D01*
X221104138Y-55592335D01*
X221189786Y-55530109D01*
X221189788Y-55530106D01*
X221189792Y-55530104D01*
X221340104Y-55379792D01*
X221340106Y-55379788D01*
X221340109Y-55379786D01*
X221465048Y-55207820D01*
X221465047Y-55207820D01*
X221465051Y-55207816D01*
X221561557Y-55018412D01*
X221627246Y-54816243D01*
X221660500Y-54606287D01*
X221660500Y-54393713D01*
X221627246Y-54183757D01*
X221561557Y-53981588D01*
X221465051Y-53792184D01*
X221451077Y-53772950D01*
X221377511Y-53671694D01*
X221377508Y-53671691D01*
X221340107Y-53620213D01*
X221340104Y-53620208D01*
X221322031Y-53602135D01*
X224069501Y-53602135D01*
X224069501Y-55397870D01*
X224069502Y-55397876D01*
X224075909Y-55457483D01*
X224126203Y-55592328D01*
X224126207Y-55592335D01*
X224212453Y-55707544D01*
X224212456Y-55707547D01*
X224327665Y-55793793D01*
X224327672Y-55793797D01*
X224462518Y-55844091D01*
X224462517Y-55844091D01*
X224469445Y-55844835D01*
X224522128Y-55850500D01*
X226317873Y-55850499D01*
X226377484Y-55844091D01*
X226512332Y-55793796D01*
X226627547Y-55707546D01*
X226713797Y-55592331D01*
X226764092Y-55457483D01*
X226770501Y-55397873D01*
X226770500Y-54393713D01*
X229149501Y-54393713D01*
X229149501Y-54606286D01*
X229165326Y-54706205D01*
X229182755Y-54816243D01*
X229241247Y-54996263D01*
X229248445Y-55018414D01*
X229344952Y-55207820D01*
X229469891Y-55379786D01*
X229620214Y-55530109D01*
X229792180Y-55655048D01*
X229792182Y-55655049D01*
X229792185Y-55655051D01*
X229981589Y-55751557D01*
X230183758Y-55817246D01*
X230393714Y-55850500D01*
X230393715Y-55850500D01*
X230606287Y-55850500D01*
X230606288Y-55850500D01*
X230816244Y-55817246D01*
X231018413Y-55751557D01*
X231207817Y-55655051D01*
X231294139Y-55592335D01*
X231379787Y-55530109D01*
X231379789Y-55530106D01*
X231379793Y-55530104D01*
X231530105Y-55379792D01*
X231530107Y-55379788D01*
X231530110Y-55379786D01*
X231655049Y-55207820D01*
X231655048Y-55207820D01*
X231655052Y-55207816D01*
X231659515Y-55199054D01*
X231707489Y-55148259D01*
X231775309Y-55131463D01*
X231841445Y-55153999D01*
X231880487Y-55199056D01*
X231884952Y-55207820D01*
X232009891Y-55379786D01*
X232160214Y-55530109D01*
X232332180Y-55655048D01*
X232332182Y-55655049D01*
X232332185Y-55655051D01*
X232521589Y-55751557D01*
X232723758Y-55817246D01*
X232933714Y-55850500D01*
X232933715Y-55850500D01*
X233146287Y-55850500D01*
X233146288Y-55850500D01*
X233356244Y-55817246D01*
X233558413Y-55751557D01*
X233747817Y-55655051D01*
X233834139Y-55592335D01*
X233919787Y-55530109D01*
X233919789Y-55530106D01*
X233919793Y-55530104D01*
X234070105Y-55379792D01*
X234070107Y-55379788D01*
X234070110Y-55379786D01*
X234195049Y-55207820D01*
X234195048Y-55207820D01*
X234195052Y-55207816D01*
X234291558Y-55018412D01*
X234357247Y-54816243D01*
X234390501Y-54606287D01*
X234390501Y-54393713D01*
X234357247Y-54183757D01*
X234291558Y-53981588D01*
X234195052Y-53792184D01*
X234195050Y-53792181D01*
X234195049Y-53792179D01*
X234070110Y-53620213D01*
X233919787Y-53469890D01*
X233747821Y-53344951D01*
X233558415Y-53248444D01*
X233558414Y-53248443D01*
X233558413Y-53248443D01*
X233356244Y-53182754D01*
X233356242Y-53182753D01*
X233356241Y-53182753D01*
X233194958Y-53157208D01*
X233146288Y-53149500D01*
X232933714Y-53149500D01*
X232885043Y-53157208D01*
X232723761Y-53182753D01*
X232521586Y-53248444D01*
X232332180Y-53344951D01*
X232160214Y-53469890D01*
X232009891Y-53620213D01*
X231884950Y-53792182D01*
X231880485Y-53800946D01*
X231832510Y-53851742D01*
X231764689Y-53868536D01*
X231698554Y-53845998D01*
X231659517Y-53800946D01*
X231655051Y-53792182D01*
X231530110Y-53620213D01*
X231379787Y-53469890D01*
X231207821Y-53344951D01*
X231018415Y-53248444D01*
X231018414Y-53248443D01*
X231018413Y-53248443D01*
X230816244Y-53182754D01*
X230816242Y-53182753D01*
X230816241Y-53182753D01*
X230654958Y-53157208D01*
X230606288Y-53149500D01*
X230393714Y-53149500D01*
X230345043Y-53157208D01*
X230183761Y-53182753D01*
X229981586Y-53248444D01*
X229792180Y-53344951D01*
X229620214Y-53469890D01*
X229469891Y-53620213D01*
X229344952Y-53792179D01*
X229248445Y-53981585D01*
X229182754Y-54183760D01*
X229149501Y-54393713D01*
X226770500Y-54393713D01*
X226770500Y-53602128D01*
X226764092Y-53542517D01*
X226756563Y-53522332D01*
X226713798Y-53407671D01*
X226713794Y-53407664D01*
X226627548Y-53292455D01*
X226627545Y-53292452D01*
X226512336Y-53206206D01*
X226512329Y-53206202D01*
X226377483Y-53155908D01*
X226377484Y-53155908D01*
X226317884Y-53149501D01*
X226317882Y-53149500D01*
X226317874Y-53149500D01*
X226317865Y-53149500D01*
X224522130Y-53149500D01*
X224522124Y-53149501D01*
X224462517Y-53155908D01*
X224327672Y-53206202D01*
X224327665Y-53206206D01*
X224212456Y-53292452D01*
X224212453Y-53292455D01*
X224126207Y-53407664D01*
X224126203Y-53407671D01*
X224075909Y-53542517D01*
X224069502Y-53602116D01*
X224069502Y-53602123D01*
X224069501Y-53602135D01*
X221322031Y-53602135D01*
X221189792Y-53469896D01*
X221189786Y-53469890D01*
X221017820Y-53344951D01*
X220828414Y-53248444D01*
X220828413Y-53248443D01*
X220828412Y-53248443D01*
X220626243Y-53182754D01*
X220626241Y-53182753D01*
X220626240Y-53182753D01*
X220464957Y-53157208D01*
X220416287Y-53149500D01*
X220203713Y-53149500D01*
X220155042Y-53157208D01*
X219993760Y-53182753D01*
X219791585Y-53248444D01*
X219602179Y-53344951D01*
X219430213Y-53469890D01*
X219279890Y-53620213D01*
X219154949Y-53792182D01*
X219150484Y-53800946D01*
X219102509Y-53851742D01*
X219034688Y-53868536D01*
X218968553Y-53845998D01*
X218929516Y-53800946D01*
X218925050Y-53792182D01*
X218800109Y-53620213D01*
X218649786Y-53469890D01*
X218477820Y-53344951D01*
X218288414Y-53248444D01*
X218288413Y-53248443D01*
X218288412Y-53248443D01*
X218086243Y-53182754D01*
X218086241Y-53182753D01*
X218086240Y-53182753D01*
X217924957Y-53157208D01*
X217876287Y-53149500D01*
X217663713Y-53149500D01*
X217615042Y-53157208D01*
X217453760Y-53182753D01*
X217251585Y-53248444D01*
X217062179Y-53344951D01*
X216890213Y-53469890D01*
X216739890Y-53620213D01*
X216614951Y-53792179D01*
X216518444Y-53981585D01*
X216452753Y-54183760D01*
X216419500Y-54393713D01*
X214040499Y-54393713D01*
X214040499Y-53602128D01*
X214034091Y-53542517D01*
X214026562Y-53522332D01*
X213983797Y-53407671D01*
X213983793Y-53407664D01*
X213897547Y-53292455D01*
X213897544Y-53292452D01*
X213782335Y-53206206D01*
X213782328Y-53206202D01*
X213647482Y-53155908D01*
X213647483Y-53155908D01*
X213587883Y-53149501D01*
X213587881Y-53149500D01*
X213587873Y-53149500D01*
X213587864Y-53149500D01*
X211792129Y-53149500D01*
X211792123Y-53149501D01*
X211732516Y-53155908D01*
X211597671Y-53206202D01*
X211597664Y-53206206D01*
X211482455Y-53292452D01*
X211482452Y-53292455D01*
X211396206Y-53407664D01*
X211396202Y-53407671D01*
X211345908Y-53542517D01*
X211339501Y-53602116D01*
X211339501Y-53602123D01*
X211339500Y-53602135D01*
X208632031Y-53602135D01*
X208499792Y-53469896D01*
X208499786Y-53469890D01*
X208327820Y-53344951D01*
X208138414Y-53248444D01*
X208138413Y-53248443D01*
X208138412Y-53248443D01*
X207936243Y-53182754D01*
X207936241Y-53182753D01*
X207936240Y-53182753D01*
X207774957Y-53157208D01*
X207726287Y-53149500D01*
X207513713Y-53149500D01*
X207465042Y-53157208D01*
X207303760Y-53182753D01*
X207101585Y-53248444D01*
X206912179Y-53344951D01*
X206740213Y-53469890D01*
X206589890Y-53620213D01*
X206464949Y-53792182D01*
X206460484Y-53800946D01*
X206412509Y-53851742D01*
X206344688Y-53868536D01*
X206278553Y-53845998D01*
X206239516Y-53800946D01*
X206235050Y-53792182D01*
X206110109Y-53620213D01*
X205959786Y-53469890D01*
X205787820Y-53344951D01*
X205598414Y-53248444D01*
X205598413Y-53248443D01*
X205598412Y-53248443D01*
X205396243Y-53182754D01*
X205396241Y-53182753D01*
X205396240Y-53182753D01*
X205234957Y-53157208D01*
X205186287Y-53149500D01*
X204973713Y-53149500D01*
X204925042Y-53157208D01*
X204763760Y-53182753D01*
X204561585Y-53248444D01*
X204372179Y-53344951D01*
X204200213Y-53469890D01*
X204049890Y-53620213D01*
X203924951Y-53792179D01*
X203828444Y-53981585D01*
X203762753Y-54183760D01*
X203729500Y-54393713D01*
X201350499Y-54393713D01*
X201350499Y-53602128D01*
X201344091Y-53542517D01*
X201336562Y-53522332D01*
X201293797Y-53407671D01*
X201293793Y-53407664D01*
X201207547Y-53292455D01*
X201207544Y-53292452D01*
X201092335Y-53206206D01*
X201092328Y-53206202D01*
X200957482Y-53155908D01*
X200957483Y-53155908D01*
X200897883Y-53149501D01*
X200897881Y-53149500D01*
X200897873Y-53149500D01*
X200897864Y-53149500D01*
X199102129Y-53149500D01*
X199102123Y-53149501D01*
X199042516Y-53155908D01*
X198907671Y-53206202D01*
X198907664Y-53206206D01*
X198792455Y-53292452D01*
X198792452Y-53292455D01*
X198706206Y-53407664D01*
X198706202Y-53407671D01*
X198655908Y-53542517D01*
X198649501Y-53602116D01*
X198649501Y-53602123D01*
X198649500Y-53602135D01*
X190929644Y-53602135D01*
X190939080Y-53586526D01*
X190947570Y-53574227D01*
X191124480Y-53348417D01*
X191134395Y-53337226D01*
X191337226Y-53134395D01*
X191348417Y-53124480D01*
X191574230Y-52947567D01*
X191586526Y-52939080D01*
X191832016Y-52790676D01*
X191845249Y-52783731D01*
X192106841Y-52665998D01*
X192120822Y-52660696D01*
X192394668Y-52575362D01*
X192409197Y-52571780D01*
X192691344Y-52520075D01*
X192706201Y-52518271D01*
X192996264Y-52500726D01*
X193003751Y-52500500D01*
X193065892Y-52500500D01*
X236005832Y-52500500D01*
X236072871Y-52520185D01*
G37*
%TD.AperFunction*%
%TD*%
M02*
