%TF.GenerationSoftware,KiCad,Pcbnew,9.0.3*%
%TF.CreationDate,2025-07-18T13:59:51+02:00*%
%TF.ProjectId,LoRa_Project,4c6f5261-5f50-4726-9f6a-6563742e6b69,rev?*%
%TF.SameCoordinates,Original*%
%TF.FileFunction,Copper,L1,Top*%
%TF.FilePolarity,Positive*%
%FSLAX46Y46*%
G04 Gerber Fmt 4.6, Leading zero omitted, Abs format (unit mm)*
G04 Created by KiCad (PCBNEW 9.0.3) date 2025-07-18 13:59:51*
%MOMM*%
%LPD*%
G01*
G04 APERTURE LIST*
G04 Aperture macros list*
%AMRoundRect*
0 Rectangle with rounded corners*
0 $1 Rounding radius*
0 $2 $3 $4 $5 $6 $7 $8 $9 X,Y pos of 4 corners*
0 Add a 4 corners polygon primitive as box body*
4,1,4,$2,$3,$4,$5,$6,$7,$8,$9,$2,$3,0*
0 Add four circle primitives for the rounded corners*
1,1,$1+$1,$2,$3*
1,1,$1+$1,$4,$5*
1,1,$1+$1,$6,$7*
1,1,$1+$1,$8,$9*
0 Add four rect primitives between the rounded corners*
20,1,$1+$1,$2,$3,$4,$5,0*
20,1,$1+$1,$4,$5,$6,$7,0*
20,1,$1+$1,$6,$7,$8,$9,0*
20,1,$1+$1,$8,$9,$2,$3,0*%
%AMRotRect*
0 Rectangle, with rotation*
0 The origin of the aperture is its center*
0 $1 length*
0 $2 width*
0 $3 Rotation angle, in degrees counterclockwise*
0 Add horizontal line*
21,1,$1,$2,0,0,$3*%
%AMFreePoly0*
4,1,14,1.640000,1.767700,1.302700,1.428100,1.020700,0.978600,0.850200,0.476000,0.800000,0.000000,0.850200,-0.476000,1.020700,-0.978600,1.302700,-1.428100,1.640000,-1.767700,1.640000,-3.680000,-0.800000,-3.680000,-0.800000,3.680000,1.640000,3.680000,1.640000,1.767700,1.640000,1.767700,$1*%
G04 Aperture macros list end*
%TA.AperFunction,ComponentPad*%
%ADD10C,3.600000*%
%TD*%
%TA.AperFunction,ConnectorPad*%
%ADD11C,5.600000*%
%TD*%
%TA.AperFunction,SMDPad,CuDef*%
%ADD12RoundRect,0.243750X0.243750X0.456250X-0.243750X0.456250X-0.243750X-0.456250X0.243750X-0.456250X0*%
%TD*%
%TA.AperFunction,ComponentPad*%
%ADD13R,1.700000X1.700000*%
%TD*%
%TA.AperFunction,ComponentPad*%
%ADD14C,1.700000*%
%TD*%
%TA.AperFunction,SMDPad,CuDef*%
%ADD15RoundRect,0.150000X0.150000X-0.512500X0.150000X0.512500X-0.150000X0.512500X-0.150000X-0.512500X0*%
%TD*%
%TA.AperFunction,SMDPad,CuDef*%
%ADD16RoundRect,0.100000X0.300000X0.450000X-0.300000X0.450000X-0.300000X-0.450000X0.300000X-0.450000X0*%
%TD*%
%TA.AperFunction,SMDPad,CuDef*%
%ADD17C,1.000000*%
%TD*%
%TA.AperFunction,SMDPad,CuDef*%
%ADD18RoundRect,0.225000X-0.225000X-0.250000X0.225000X-0.250000X0.225000X0.250000X-0.225000X0.250000X0*%
%TD*%
%TA.AperFunction,SMDPad,CuDef*%
%ADD19RoundRect,0.218750X-0.218750X-0.256250X0.218750X-0.256250X0.218750X0.256250X-0.218750X0.256250X0*%
%TD*%
%TA.AperFunction,SMDPad,CuDef*%
%ADD20RoundRect,0.243750X-0.456250X0.243750X-0.456250X-0.243750X0.456250X-0.243750X0.456250X0.243750X0*%
%TD*%
%TA.AperFunction,SMDPad,CuDef*%
%ADD21RoundRect,0.147500X-0.147500X-0.172500X0.147500X-0.172500X0.147500X0.172500X-0.147500X0.172500X0*%
%TD*%
%TA.AperFunction,SMDPad,CuDef*%
%ADD22RoundRect,0.147500X0.147500X0.172500X-0.147500X0.172500X-0.147500X-0.172500X0.147500X-0.172500X0*%
%TD*%
%TA.AperFunction,SMDPad,CuDef*%
%ADD23RoundRect,0.100000X0.450000X-0.300000X0.450000X0.300000X-0.450000X0.300000X-0.450000X-0.300000X0*%
%TD*%
%TA.AperFunction,SMDPad,CuDef*%
%ADD24RoundRect,0.160000X-0.197500X-0.160000X0.197500X-0.160000X0.197500X0.160000X-0.197500X0.160000X0*%
%TD*%
%TA.AperFunction,SMDPad,CuDef*%
%ADD25RoundRect,0.050000X0.200000X0.100000X-0.200000X0.100000X-0.200000X-0.100000X0.200000X-0.100000X0*%
%TD*%
%TA.AperFunction,SMDPad,CuDef*%
%ADD26RoundRect,0.243750X-0.243750X-0.456250X0.243750X-0.456250X0.243750X0.456250X-0.243750X0.456250X0*%
%TD*%
%TA.AperFunction,SMDPad,CuDef*%
%ADD27RoundRect,0.200000X-0.275000X0.200000X-0.275000X-0.200000X0.275000X-0.200000X0.275000X0.200000X0*%
%TD*%
%TA.AperFunction,SMDPad,CuDef*%
%ADD28RoundRect,0.200000X0.250000X0.200000X-0.250000X0.200000X-0.250000X-0.200000X0.250000X-0.200000X0*%
%TD*%
%TA.AperFunction,SMDPad,CuDef*%
%ADD29RoundRect,0.218750X-0.256250X0.218750X-0.256250X-0.218750X0.256250X-0.218750X0.256250X0.218750X0*%
%TD*%
%TA.AperFunction,SMDPad,CuDef*%
%ADD30RoundRect,0.200000X0.275000X-0.200000X0.275000X0.200000X-0.275000X0.200000X-0.275000X-0.200000X0*%
%TD*%
%TA.AperFunction,SMDPad,CuDef*%
%ADD31RoundRect,0.150000X-0.150000X0.512500X-0.150000X-0.512500X0.150000X-0.512500X0.150000X0.512500X0*%
%TD*%
%TA.AperFunction,SMDPad,CuDef*%
%ADD32R,0.800000X2.000000*%
%TD*%
%TA.AperFunction,SMDPad,CuDef*%
%ADD33RoundRect,0.150000X-0.512500X-0.150000X0.512500X-0.150000X0.512500X0.150000X-0.512500X0.150000X0*%
%TD*%
%TA.AperFunction,SMDPad,CuDef*%
%ADD34R,1.200000X0.400000*%
%TD*%
%TA.AperFunction,SMDPad,CuDef*%
%ADD35RoundRect,0.100000X-0.300000X-0.450000X0.300000X-0.450000X0.300000X0.450000X-0.300000X0.450000X0*%
%TD*%
%TA.AperFunction,SMDPad,CuDef*%
%ADD36R,0.750000X0.300000*%
%TD*%
%TA.AperFunction,SMDPad,CuDef*%
%ADD37R,0.900000X1.300000*%
%TD*%
%TA.AperFunction,SMDPad,CuDef*%
%ADD38RoundRect,0.050000X0.212132X0.282843X-0.282843X-0.212132X-0.212132X-0.282843X0.282843X0.212132X0*%
%TD*%
%TA.AperFunction,SMDPad,CuDef*%
%ADD39RoundRect,0.050000X-0.212132X0.282843X-0.282843X0.212132X0.212132X-0.282843X0.282843X-0.212132X0*%
%TD*%
%TA.AperFunction,HeatsinkPad*%
%ADD40C,0.500000*%
%TD*%
%TA.AperFunction,HeatsinkPad*%
%ADD41RotRect,4.600000X4.600000X225.000000*%
%TD*%
%TA.AperFunction,SMDPad,CuDef*%
%ADD42RoundRect,0.150000X0.425000X-0.150000X0.425000X0.150000X-0.425000X0.150000X-0.425000X-0.150000X0*%
%TD*%
%TA.AperFunction,SMDPad,CuDef*%
%ADD43RoundRect,0.075000X0.500000X-0.075000X0.500000X0.075000X-0.500000X0.075000X-0.500000X-0.075000X0*%
%TD*%
%TA.AperFunction,SMDPad,CuDef*%
%ADD44RoundRect,0.250000X0.750000X-0.840000X0.750000X0.840000X-0.750000X0.840000X-0.750000X-0.840000X0*%
%TD*%
%TA.AperFunction,SMDPad,CuDef*%
%ADD45RoundRect,0.200000X-0.200000X-0.275000X0.200000X-0.275000X0.200000X0.275000X-0.200000X0.275000X0*%
%TD*%
%TA.AperFunction,SMDPad,CuDef*%
%ADD46RoundRect,0.147500X0.172500X-0.147500X0.172500X0.147500X-0.172500X0.147500X-0.172500X-0.147500X0*%
%TD*%
%TA.AperFunction,SMDPad,CuDef*%
%ADD47RoundRect,0.218750X0.218750X0.256250X-0.218750X0.256250X-0.218750X-0.256250X0.218750X-0.256250X0*%
%TD*%
%TA.AperFunction,SMDPad,CuDef*%
%ADD48RoundRect,0.218750X0.256250X-0.218750X0.256250X0.218750X-0.256250X0.218750X-0.256250X-0.218750X0*%
%TD*%
%TA.AperFunction,SMDPad,CuDef*%
%ADD49RoundRect,0.320000X-1.030000X0.480000X-1.030000X-0.480000X1.030000X-0.480000X1.030000X0.480000X0*%
%TD*%
%TA.AperFunction,SMDPad,CuDef*%
%ADD50R,0.900000X1.000000*%
%TD*%
%TA.AperFunction,SMDPad,CuDef*%
%ADD51RoundRect,0.200000X0.200000X0.275000X-0.200000X0.275000X-0.200000X-0.275000X0.200000X-0.275000X0*%
%TD*%
%TA.AperFunction,SMDPad,CuDef*%
%ADD52RoundRect,0.243750X0.456250X-0.243750X0.456250X0.243750X-0.456250X0.243750X-0.456250X-0.243750X0*%
%TD*%
%TA.AperFunction,SMDPad,CuDef*%
%ADD53R,1.000000X3.500000*%
%TD*%
%TA.AperFunction,SMDPad,CuDef*%
%ADD54R,1.500000X3.400000*%
%TD*%
%TA.AperFunction,SMDPad,CuDef*%
%ADD55R,0.800000X1.600000*%
%TD*%
%TA.AperFunction,SMDPad,CuDef*%
%ADD56C,2.050000*%
%TD*%
%TA.AperFunction,SMDPad,CuDef*%
%ADD57FreePoly0,180.000000*%
%TD*%
%TA.AperFunction,SMDPad,CuDef*%
%ADD58FreePoly0,0.000000*%
%TD*%
%TA.AperFunction,ViaPad*%
%ADD59C,0.600000*%
%TD*%
%TA.AperFunction,ViaPad*%
%ADD60C,1.000000*%
%TD*%
%TA.AperFunction,Conductor*%
%ADD61C,0.250000*%
%TD*%
%TA.AperFunction,Conductor*%
%ADD62C,0.500000*%
%TD*%
%TA.AperFunction,Conductor*%
%ADD63C,0.350000*%
%TD*%
%TA.AperFunction,Conductor*%
%ADD64C,0.200000*%
%TD*%
%TA.AperFunction,Conductor*%
%ADD65C,1.000000*%
%TD*%
%TA.AperFunction,Conductor*%
%ADD66C,0.355547*%
%TD*%
%TA.AperFunction,Conductor*%
%ADD67C,0.100000*%
%TD*%
%TA.AperFunction,Conductor*%
%ADD68C,0.150000*%
%TD*%
G04 APERTURE END LIST*
D10*
%TO.P,H1,1,1*%
%TO.N,GND*%
X194000000Y-56000000D03*
D11*
X194000000Y-56000000D03*
%TD*%
D12*
%TO.P,C15,1*%
%TO.N,Net-(C15-Pad1)*%
X195337500Y-70100000D03*
%TO.P,C15,2*%
%TO.N,GND*%
X193462500Y-70100000D03*
%TD*%
D13*
%TO.P,J3,1,Pin_1*%
%TO.N,+3V3*%
X212690000Y-54500000D03*
D14*
%TO.P,J3,2,Pin_2*%
%TO.N,GND*%
X215230000Y-54500000D03*
%TO.P,J3,3,Pin_3*%
%TO.N,I2C_SDA*%
X217770000Y-54500000D03*
%TO.P,J3,4,Pin_4*%
%TO.N,I2C_SCL*%
X220310000Y-54500000D03*
%TD*%
D15*
%TO.P,U4,1,STAT*%
%TO.N,Net-(U4-STAT)*%
X237999999Y-84000000D03*
%TO.P,U4,2,V_{SS}*%
%TO.N,GND*%
X238949999Y-84000000D03*
%TO.P,U4,3,V_{BAT}*%
%TO.N,+BATT*%
X239899999Y-84000000D03*
%TO.P,U4,4,V_{DD}*%
%TO.N,VBUS*%
X239899999Y-81725000D03*
%TO.P,U4,5,PROG*%
%TO.N,Net-(U4-PROG)*%
X237999999Y-81725000D03*
%TD*%
D16*
%TO.P,D7,1,K*%
%TO.N,GND*%
X199449999Y-59000000D03*
%TO.P,D7,2,A*%
%TO.N,Net-(D7-A)*%
X197550001Y-59000000D03*
%TD*%
D17*
%TO.P,TP5,1,1*%
%TO.N,+3V3*%
X226300000Y-94600000D03*
%TD*%
D18*
%TO.P,C12,1*%
%TO.N,Net-(U6-~{RESET})*%
X233625000Y-64600000D03*
%TO.P,C12,2*%
%TO.N,GND*%
X235175000Y-64600000D03*
%TD*%
D19*
%TO.P,C27,1*%
%TO.N,GND*%
X241212500Y-61500000D03*
%TO.P,C27,2*%
X242787500Y-61500000D03*
%TD*%
D20*
%TO.P,L1,1,1*%
%TO.N,Net-(C15-Pad1)*%
X195100000Y-71862499D03*
%TO.P,L1,2,2*%
%TO.N,Net-(J5-In)*%
X195100000Y-73737501D03*
%TD*%
D21*
%TO.P,C10,1*%
%TO.N,+3V3*%
X212515000Y-60450000D03*
%TO.P,C10,2*%
%TO.N,GND*%
X213485000Y-60450000D03*
%TD*%
D20*
%TO.P,C5,1*%
%TO.N,+3V3*%
X228362500Y-58662500D03*
%TO.P,C5,2*%
%TO.N,GND*%
X228362500Y-60537500D03*
%TD*%
D22*
%TO.P,C8,1*%
%TO.N,+3V3*%
X203235000Y-64750000D03*
%TO.P,C8,2*%
%TO.N,GND*%
X202265000Y-64750000D03*
%TD*%
D23*
%TO.P,D6,1,K*%
%TO.N,Net-(D6-K)*%
X225500000Y-88900000D03*
%TO.P,D6,2,A*%
%TO.N,VBUS*%
X225500000Y-87000002D03*
%TD*%
D24*
%TO.P,R15,1*%
%TO.N,+3V3*%
X205102500Y-58900000D03*
%TO.P,R15,2*%
%TO.N,I2C_SCL*%
X206297500Y-58900000D03*
%TD*%
D17*
%TO.P,TP4,1,1*%
%TO.N,/Power/V_SW*%
X223800000Y-94500000D03*
%TD*%
D23*
%TO.P,D2,1,K*%
%TO.N,/Peripherals/TXLED*%
X241540000Y-55399999D03*
%TO.P,D2,2,A*%
%TO.N,Net-(D2-A)*%
X241540000Y-53500001D03*
%TD*%
D10*
%TO.P,H3,1,1*%
%TO.N,GND*%
X194000000Y-93000000D03*
D11*
X194000000Y-93000000D03*
%TD*%
D25*
%TO.P,U1,1,GND*%
%TO.N,GND*%
X227785800Y-83737499D03*
%TO.P,U1,2,VOUT*%
%TO.N,/Power/V_SW*%
X227785800Y-83237499D03*
%TO.P,U1,3,VIN1*%
%TO.N,VBUS*%
X227785800Y-82737499D03*
%TO.P,U1,4,PR1*%
%TO.N,Net-(U1-PR1)*%
X227785800Y-82237499D03*
%TO.P,U1,5,MODE*%
%TO.N,VBUS*%
X226414200Y-82237499D03*
%TO.P,U1,6,VIN2*%
%TO.N,+BATT*%
X226414200Y-82737499D03*
%TO.P,U1,7,VOUT*%
%TO.N,/Power/V_SW*%
X226414200Y-83237499D03*
%TO.P,U1,8,ST*%
%TO.N,Net-(U1-ST)*%
X226414200Y-83737499D03*
%TD*%
D12*
%TO.P,C6,1*%
%TO.N,+BATT*%
X219287500Y-74900000D03*
%TO.P,C6,2*%
%TO.N,GND*%
X217412500Y-74900000D03*
%TD*%
D19*
%TO.P,C21,1*%
%TO.N,/nRF52840 and LoRa/DEC4_6*%
X217424999Y-71000000D03*
%TO.P,C21,2*%
%TO.N,GND*%
X218999999Y-71000000D03*
%TD*%
D26*
%TO.P,R10,1*%
%TO.N,+BATT*%
X230462499Y-92400000D03*
%TO.P,R10,2*%
%TO.N,Net-(D4-A)*%
X232337501Y-92400000D03*
%TD*%
D20*
%TO.P,R5,1*%
%TO.N,/Power/V_SW*%
X224200000Y-82062499D03*
%TO.P,R5,2*%
%TO.N,Net-(U1-ST)*%
X224200000Y-83937501D03*
%TD*%
D26*
%TO.P,C14,1*%
%TO.N,+3V3*%
X216625000Y-95800000D03*
%TO.P,C14,2*%
%TO.N,GND*%
X218500000Y-95800000D03*
%TD*%
D27*
%TO.P,R13,1*%
%TO.N,Net-(U4-STAT)*%
X223200000Y-87175000D03*
%TO.P,R13,2*%
%TO.N,Net-(D6-K)*%
X223200000Y-88825000D03*
%TD*%
D28*
%TO.P,Y1,1,1*%
%TO.N,Net-(U5-XC2)*%
X212500000Y-71900000D03*
%TO.P,Y1,2,2*%
%TO.N,N/C*%
X211100000Y-71900000D03*
%TO.P,Y1,3*%
%TO.N,Net-(U5-XC1)*%
X211100000Y-73000000D03*
%TO.P,Y1,4*%
%TO.N,N/C*%
X212500000Y-73000000D03*
%TD*%
D27*
%TO.P,R17,1*%
%TO.N,Net-(C15-Pad1)*%
X202200000Y-75900000D03*
%TO.P,R17,2*%
%TO.N,Net-(IC2-ANT)*%
X202200000Y-77550000D03*
%TD*%
D29*
%TO.P,C1,1*%
%TO.N,VBUS*%
X230100000Y-82487500D03*
%TO.P,C1,2*%
%TO.N,GND*%
X230100000Y-84062500D03*
%TD*%
D30*
%TO.P,R2,1*%
%TO.N,GND*%
X233100000Y-84100000D03*
%TO.P,R2,2*%
%TO.N,Net-(U1-PR1)*%
X233100000Y-82450000D03*
%TD*%
D31*
%TO.P,U3,1,I/O1*%
%TO.N,Net-(R21-Pad2)*%
X237600000Y-68075000D03*
%TO.P,U3,2,GND*%
%TO.N,GND*%
X236650001Y-68075000D03*
%TO.P,U3,3,I/O2*%
%TO.N,D-*%
X235700002Y-68075000D03*
%TO.P,U3,4,I/O2*%
%TO.N,D+*%
X235700002Y-70350000D03*
%TO.P,U3,5,VBUS*%
%TO.N,VBUS*%
X236650001Y-70350000D03*
%TO.P,U3,6,I/O1*%
%TO.N,Net-(R19-Pad2)*%
X237600000Y-70350000D03*
%TD*%
D32*
%TO.P,IC2,1,GND*%
%TO.N,GND*%
X200960000Y-93500000D03*
%TO.P,IC2,2,GND*%
X202230000Y-93500000D03*
%TO.P,IC2,3,GND*%
X203500000Y-93500000D03*
%TO.P,IC2,4,GND*%
X209070000Y-93500000D03*
%TO.P,IC2,5,GND*%
X210340000Y-93500000D03*
%TO.P,IC2,6,RXEN*%
X211610000Y-93500000D03*
%TO.P,IC2,7,TXEN*%
X212880000Y-93500000D03*
%TO.P,IC2,8,DIO2*%
%TO.N,unconnected-(IC2-DIO2-Pad8)*%
X214150000Y-93500000D03*
%TO.P,IC2,9,VCC*%
%TO.N,+3V3*%
X215420000Y-93500000D03*
%TO.P,IC2,10,GND*%
%TO.N,GND*%
X216690000Y-93500000D03*
%TO.P,IC2,11,GND*%
X217960000Y-93500000D03*
%TO.P,IC2,12,GND*%
X217960000Y-79500000D03*
%TO.P,IC2,13,DIO1*%
%TO.N,/nRF52840 and LoRa/LORA_IRQ*%
X216690000Y-79500000D03*
%TO.P,IC2,14,BUSY*%
%TO.N,/nRF52840 and LoRa/LORA_BUSY*%
X215420000Y-79500000D03*
%TO.P,IC2,15,NRST*%
%TO.N,/nRF52840 and LoRa/LORA_NRST*%
X214150000Y-79500000D03*
%TO.P,IC2,16,MISO*%
%TO.N,/nRF52840 and LoRa/SPI_MISO*%
X212880000Y-79500000D03*
%TO.P,IC2,17,MOSI*%
%TO.N,/nRF52840 and LoRa/SPI_MOSI*%
X211610000Y-79500000D03*
%TO.P,IC2,18,SCK*%
%TO.N,/nRF52840 and LoRa/SPI_SCK*%
X210340000Y-79500000D03*
%TO.P,IC2,19,NSS*%
%TO.N,/nRF52840 and LoRa/LORA_SPI_CS*%
X209070000Y-79500000D03*
%TO.P,IC2,20,GND*%
%TO.N,GND*%
X203500000Y-79500000D03*
%TO.P,IC2,21,ANT*%
%TO.N,Net-(IC2-ANT)*%
X202230000Y-79500000D03*
%TO.P,IC2,22,GND*%
%TO.N,GND*%
X200960000Y-79500000D03*
%TD*%
D12*
%TO.P,R16,1*%
%TO.N,/nRF52840 and LoRa/LED*%
X199487501Y-61500000D03*
%TO.P,R16,2*%
%TO.N,Net-(D7-A)*%
X197612499Y-61500000D03*
%TD*%
%TO.P,C16,1*%
%TO.N,Net-(J5-In)*%
X195299999Y-75500000D03*
%TO.P,C16,2*%
%TO.N,GND*%
X193424999Y-75500000D03*
%TD*%
D21*
%TO.P,C28,1*%
%TO.N,+3V3*%
X217715000Y-66200000D03*
%TO.P,C28,2*%
%TO.N,GND*%
X218685000Y-66200000D03*
%TD*%
D26*
%TO.P,R11,1*%
%TO.N,+3V3*%
X246324999Y-88750000D03*
%TO.P,R11,2*%
%TO.N,Net-(D5-A)*%
X248200001Y-88750000D03*
%TD*%
D33*
%TO.P,U2,1,IN*%
%TO.N,/Power/V_SW*%
X224025000Y-58850000D03*
%TO.P,U2,2,GND*%
%TO.N,GND*%
X224025000Y-59800000D03*
%TO.P,U2,3,EN*%
%TO.N,/Power/V_SW*%
X224025000Y-60750000D03*
%TO.P,U2,4,BP*%
%TO.N,Net-(U2-BP)*%
X226300000Y-60750000D03*
%TO.P,U2,5,OUT*%
%TO.N,+3V3*%
X226300000Y-58850000D03*
%TD*%
D34*
%TO.P,U6,1,~{DTR}*%
%TO.N,unconnected-(U6-~{DTR}-Pad1)*%
X226400000Y-69142500D03*
%TO.P,U6,2,~{RTS}*%
%TO.N,unconnected-(U6-~{RTS}-Pad2)*%
X226400000Y-69777500D03*
%TO.P,U6,3,VCCIO*%
%TO.N,+3V3*%
X226399999Y-70412500D03*
%TO.P,U6,4,RXD*%
%TO.N,UART_TXD*%
X226400000Y-71047500D03*
%TO.P,U6,5,~{RI}*%
%TO.N,unconnected-(U6-~{RI}-Pad5)*%
X226400000Y-71682500D03*
%TO.P,U6,6,GND*%
%TO.N,GND*%
X226400000Y-72317500D03*
%TO.P,U6,7,~{DSR}*%
%TO.N,unconnected-(U6-~{DSR}-Pad7)*%
X226400000Y-72952500D03*
%TO.P,U6,8,~{DCD}*%
%TO.N,unconnected-(U6-~{DCD}-Pad8)*%
X226399999Y-73587500D03*
%TO.P,U6,9,~{CTS}*%
%TO.N,unconnected-(U6-~{CTS}-Pad9)*%
X226400000Y-74222500D03*
%TO.P,U6,10,CBUS2*%
%TO.N,/Peripherals/TXLED*%
X226400000Y-74857500D03*
%TO.P,U6,11,USBDP*%
%TO.N,D+*%
X231600000Y-74857500D03*
%TO.P,U6,12,USBDM*%
%TO.N,D-*%
X231600000Y-74222500D03*
%TO.P,U6,13,3V3OUT*%
%TO.N,+3V3*%
X231600001Y-73587500D03*
%TO.P,U6,14,~{RESET}*%
%TO.N,Net-(U6-~{RESET})*%
X231600000Y-72952500D03*
%TO.P,U6,15,VCC*%
%TO.N,+3V3*%
X231600000Y-72317500D03*
%TO.P,U6,16,GND*%
%TO.N,GND*%
X231600000Y-71682500D03*
%TO.P,U6,17,CBUS1*%
%TO.N,/Peripherals/RXLED*%
X231600000Y-71047500D03*
%TO.P,U6,18,CBUS0*%
%TO.N,unconnected-(U6-CBUS0-Pad18)*%
X231600001Y-70412500D03*
%TO.P,U6,19,CBUS3*%
%TO.N,Net-(U6-CBUS3)*%
X231600000Y-69777500D03*
%TO.P,U6,20,TXD*%
%TO.N,UART_RXD*%
X231600000Y-69142500D03*
%TD*%
D35*
%TO.P,D3,1,K*%
%TO.N,GND*%
X246300001Y-82650000D03*
%TO.P,D3,2,A*%
%TO.N,Net-(D3-A)*%
X248199999Y-82650000D03*
%TD*%
D27*
%TO.P,R12,1*%
%TO.N,Net-(U4-PROG)*%
X234700000Y-82475000D03*
%TO.P,R12,2*%
%TO.N,GND*%
X234700000Y-84125000D03*
%TD*%
D36*
%TO.P,IC1,1,CTG*%
%TO.N,GND*%
X221950000Y-76500000D03*
%TO.P,IC1,2,CELL*%
%TO.N,+BATT*%
X221950000Y-77000000D03*
%TO.P,IC1,3,VDD*%
X221950000Y-77500000D03*
%TO.P,IC1,4,GND*%
%TO.N,GND*%
X221950000Y-78000000D03*
%TO.P,IC1,5,~{ALRT}*%
%TO.N,unconnected-(IC1-~{ALRT}-Pad5)*%
X223950000Y-78000000D03*
%TO.P,IC1,6,QSTRT*%
%TO.N,GND*%
X223950000Y-77500000D03*
%TO.P,IC1,7,SCL*%
%TO.N,I2C_SCL*%
X223950000Y-77000000D03*
%TO.P,IC1,8,SDA*%
%TO.N,I2C_SDA*%
X223950000Y-76500000D03*
D37*
%TO.P,IC1,9,EP*%
%TO.N,GND*%
X222950000Y-77250000D03*
%TD*%
D38*
%TO.P,U5,1,DEC1*%
%TO.N,Net-(U5-DEC1)*%
X214283200Y-65500000D03*
%TO.P,U5,2,P0.00*%
%TO.N,unconnected-(U5-P0.00-Pad2)*%
X214000357Y-65217157D03*
%TO.P,U5,3,P0.01*%
%TO.N,unconnected-(U5-P0.01-Pad3)*%
X213717514Y-64934314D03*
%TO.P,U5,4,P0.04*%
%TO.N,unconnected-(U5-P0.04-Pad4)*%
X213434672Y-64651472D03*
%TO.P,U5,5,P0.05*%
%TO.N,unconnected-(U5-P0.05-Pad5)*%
X213151829Y-64368629D03*
%TO.P,U5,6,P0.07*%
%TO.N,unconnected-(U5-P0.07-Pad6)*%
X212868986Y-64085786D03*
%TO.P,U5,7,P0.08*%
%TO.N,UART_RXD*%
X212586144Y-63802944D03*
%TO.P,U5,8,P1.08*%
%TO.N,UART_TXD*%
X212303301Y-63520101D03*
%TO.P,U5,9,P1.09*%
%TO.N,unconnected-(U5-P1.09-Pad9)*%
X212020458Y-63237258D03*
%TO.P,U5,10,P0.11*%
%TO.N,/nRF52840 and LoRa/LORA_IRQ*%
X211737616Y-62954416D03*
%TO.P,U5,11,P0.12*%
%TO.N,/nRF52840 and LoRa/LORA_SPI_CS*%
X211454773Y-62671573D03*
%TO.P,U5,12,VDD*%
%TO.N,+3V3*%
X211171930Y-62388730D03*
D39*
%TO.P,U5,13,P0.13*%
%TO.N,/nRF52840 and LoRa/SPI_MOSI*%
X210111270Y-62388730D03*
%TO.P,U5,14,P0.14*%
%TO.N,/nRF52840 and LoRa/SPI_MISO*%
X209828427Y-62671573D03*
%TO.P,U5,15,P0.17*%
%TO.N,/nRF52840 and LoRa/LED*%
X209545584Y-62954416D03*
%TO.P,U5,16,~{RESET}*%
%TO.N,Net-(U5-~{RESET})*%
X209262742Y-63237258D03*
%TO.P,U5,17,VDD*%
%TO.N,+3V3*%
X208979899Y-63520101D03*
%TO.P,U5,18,P0.19*%
%TO.N,/nRF52840 and LoRa/SPI_SCK*%
X208697056Y-63802944D03*
%TO.P,U5,19,P0.20*%
%TO.N,unconnected-(U5-P0.20-Pad19)*%
X208414214Y-64085786D03*
%TO.P,U5,20,P0.21*%
%TO.N,unconnected-(U5-P0.21-Pad20)*%
X208131371Y-64368629D03*
%TO.P,U5,21,P0.22*%
%TO.N,I2C_SCL*%
X207848528Y-64651472D03*
%TO.P,U5,22,P0.23*%
%TO.N,I2C_SDA*%
X207565686Y-64934314D03*
%TO.P,U5,23,P0.24*%
%TO.N,unconnected-(U5-P0.24-Pad23)*%
X207282843Y-65217157D03*
%TO.P,U5,24,P1.00*%
%TO.N,unconnected-(U5-P1.00-Pad24)*%
X207000000Y-65500000D03*
D38*
%TO.P,U5,25,VDD*%
%TO.N,+3V3*%
X207000000Y-66560660D03*
%TO.P,U5,26,SWDIO*%
%TO.N,SWD_IO*%
X207282843Y-66843503D03*
%TO.P,U5,27,SWDCLK*%
%TO.N,SWD_CLK*%
X207565686Y-67126346D03*
%TO.P,U5,28,NC*%
%TO.N,unconnected-(U5-NC-Pad28)*%
X207848528Y-67409188D03*
%TO.P,U5,29,P0.09*%
%TO.N,unconnected-(U5-P0.09-Pad29)*%
X208131371Y-67692031D03*
%TO.P,U5,30,P0.10*%
%TO.N,unconnected-(U5-P0.10-Pad30)*%
X208414214Y-67974874D03*
%TO.P,U5,31,ANT*%
%TO.N,Net-(U5-ANT)*%
X208697056Y-68257716D03*
%TO.P,U5,32,VSS_PA*%
%TO.N,GND*%
X208979899Y-68540559D03*
%TO.P,U5,33,DEC6*%
%TO.N,/nRF52840 and LoRa/DEC4_6*%
X209262742Y-68823402D03*
%TO.P,U5,34,DEC3*%
%TO.N,Net-(U5-DEC3)*%
X209545584Y-69106244D03*
%TO.P,U5,35,XC1*%
%TO.N,Net-(U5-XC1)*%
X209828427Y-69389087D03*
%TO.P,U5,36,XC2*%
%TO.N,Net-(U5-XC2)*%
X210111270Y-69671930D03*
D39*
%TO.P,U5,37,VDD*%
%TO.N,+3V3*%
X211171930Y-69671930D03*
%TO.P,U5,38,P1.15*%
%TO.N,unconnected-(U5-P1.15-Pad38)*%
X211454773Y-69389087D03*
%TO.P,U5,39,P0.03*%
%TO.N,/nRF52840 and LoRa/LORA_BUSY*%
X211737616Y-69106244D03*
%TO.P,U5,40,P0.02*%
%TO.N,/nRF52840 and LoRa/LORA_NRST*%
X212020458Y-68823402D03*
%TO.P,U5,41,P0.28*%
%TO.N,unconnected-(U5-P0.28-Pad41)*%
X212303301Y-68540559D03*
%TO.P,U5,42,P0.29*%
%TO.N,unconnected-(U5-P0.29-Pad42)*%
X212586144Y-68257716D03*
%TO.P,U5,43,P0.30*%
%TO.N,unconnected-(U5-P0.30-Pad43)*%
X212868986Y-67974874D03*
%TO.P,U5,44,P0.31*%
%TO.N,unconnected-(U5-P0.31-Pad44)*%
X213151829Y-67692031D03*
%TO.P,U5,45,VSS*%
%TO.N,GND*%
X213434672Y-67409188D03*
%TO.P,U5,46,DEC4*%
%TO.N,/nRF52840 and LoRa/DEC4_6*%
X213717514Y-67126346D03*
%TO.P,U5,47,DCC*%
%TO.N,Net-(U5-DCC)*%
X214000357Y-66843503D03*
%TO.P,U5,48,VDD*%
%TO.N,+3V3*%
X214283200Y-66560660D03*
D40*
%TO.P,U5,49,VSS*%
%TO.N,GND*%
X213187184Y-66030330D03*
X212338656Y-65181802D03*
X211490128Y-64333274D03*
X210641600Y-63484746D03*
X212338656Y-66878858D03*
X211490128Y-66030330D03*
X210641600Y-65181802D03*
X209793072Y-64333274D03*
D41*
X210641600Y-66030330D03*
D40*
X211490128Y-67727386D03*
X210641600Y-66878858D03*
X209793072Y-66030330D03*
X208944544Y-65181802D03*
X210641600Y-68575914D03*
X209793072Y-67727386D03*
X208944544Y-66878858D03*
X208096016Y-66030330D03*
%TD*%
D42*
%TO.P,J2,A1,GND*%
%TO.N,GND*%
X242820000Y-77700000D03*
%TO.P,J2,A4,VBUS*%
%TO.N,VBUS*%
X242820000Y-76900000D03*
D43*
%TO.P,J2,A5,CC1*%
%TO.N,Net-(J2-CC1)*%
X242820000Y-75750000D03*
%TO.P,J2,A6,D+*%
%TO.N,/Power/USB_D+*%
X242820000Y-74750000D03*
%TO.P,J2,A7,D-*%
%TO.N,/Power/USB_D-*%
X242820000Y-74250000D03*
%TO.P,J2,A8,SBU1*%
%TO.N,unconnected-(J2-SBU1-PadA8)*%
X242820000Y-73250000D03*
D42*
%TO.P,J2,A9,VBUS*%
%TO.N,VBUS*%
X242820000Y-72100000D03*
%TO.P,J2,A12,GND*%
%TO.N,GND*%
X242820000Y-71300000D03*
%TO.P,J2,B1,GND*%
X242820000Y-71300000D03*
%TO.P,J2,B4,VBUS*%
%TO.N,VBUS*%
X242820000Y-72100000D03*
D43*
%TO.P,J2,B5,CC2*%
%TO.N,Net-(J2-CC2)*%
X242820000Y-72750000D03*
%TO.P,J2,B6,D+*%
%TO.N,/Power/USB_D+*%
X242820000Y-73750000D03*
%TO.P,J2,B7,D-*%
%TO.N,/Power/USB_D-*%
X242820000Y-75250000D03*
%TO.P,J2,B8,SBU2*%
%TO.N,unconnected-(J2-SBU2-PadB8)*%
X242820000Y-76250000D03*
D42*
%TO.P,J2,B9,VBUS*%
%TO.N,VBUS*%
X242820000Y-76900000D03*
%TO.P,J2,B12,GND*%
%TO.N,GND*%
X242820000Y-77700000D03*
D44*
%TO.P,J2,S1,SHIELD*%
%TO.N,unconnected-(J2-SHIELD-PadS1)*%
X243395000Y-79610000D03*
%TO.N,unconnected-(J2-SHIELD-PadS1)_3*%
X247325000Y-79610000D03*
%TO.N,unconnected-(J2-SHIELD-PadS1)_2*%
X243395000Y-69390000D03*
%TO.N,unconnected-(J2-SHIELD-PadS1)_1*%
X247325000Y-69390000D03*
%TD*%
D10*
%TO.P,H2,1,1*%
%TO.N,GND*%
X245999999Y-56000001D03*
D11*
X245999999Y-56000001D03*
%TD*%
D45*
%TO.P,R8,1*%
%TO.N,+3V3*%
X235600000Y-58250000D03*
%TO.P,R8,2*%
%TO.N,Net-(D1-A)*%
X237250000Y-58250000D03*
%TD*%
%TO.P,R18,1*%
%TO.N,Net-(U6-CBUS3)*%
X235875000Y-74400000D03*
%TO.P,R18,2*%
%TO.N,GND*%
X237525000Y-74400000D03*
%TD*%
D46*
%TO.P,L5,1,1*%
%TO.N,GND*%
X198250000Y-66400000D03*
%TO.P,L5,2,2*%
%TO.N,Net-(C30-Pad2)*%
X198250000Y-65430000D03*
%TD*%
D22*
%TO.P,C26,1*%
%TO.N,+3V3*%
X203235000Y-62510001D03*
%TO.P,C26,2*%
%TO.N,GND*%
X202265000Y-62510001D03*
%TD*%
D26*
%TO.P,R20,1*%
%TO.N,+3V3*%
X235662499Y-61750000D03*
%TO.P,R20,2*%
%TO.N,Net-(U5-~{RESET})*%
X237537501Y-61750000D03*
%TD*%
D13*
%TO.P,J6,1,Pin_1*%
%TO.N,+3V3*%
X225420001Y-54500000D03*
D14*
%TO.P,J6,2,Pin_2*%
%TO.N,GND*%
X227960001Y-54500000D03*
%TO.P,J6,3,Pin_3*%
%TO.N,SWD_CLK*%
X230500001Y-54500000D03*
%TO.P,J6,4,Pin_4*%
%TO.N,SWD_IO*%
X233040001Y-54500000D03*
%TD*%
D29*
%TO.P,C24,1*%
%TO.N,Net-(U5-DEC3)*%
X207000000Y-71712500D03*
%TO.P,C24,2*%
%TO.N,GND*%
X207000000Y-73287500D03*
%TD*%
D12*
%TO.P,R3,1*%
%TO.N,Net-(J2-CC1)*%
X237574000Y-78426000D03*
%TO.P,R3,2*%
%TO.N,GND*%
X235698998Y-78426000D03*
%TD*%
D19*
%TO.P,L3,1,1*%
%TO.N,/nRF52840 and LoRa/DEC4_6*%
X217424998Y-69500000D03*
%TO.P,L3,2,2*%
%TO.N,Net-(L2-Pad1)*%
X219000000Y-69500000D03*
%TD*%
D47*
%TO.P,C11,1*%
%TO.N,GND*%
X229799999Y-77700000D03*
%TO.P,C11,2*%
%TO.N,+3V3*%
X228224999Y-77700000D03*
%TD*%
D48*
%TO.P,C25,1*%
%TO.N,GND*%
X214100000Y-73287500D03*
%TO.P,C25,2*%
%TO.N,Net-(U5-XC2)*%
X214100000Y-71712500D03*
%TD*%
D29*
%TO.P,C23,1*%
%TO.N,/nRF52840 and LoRa/DEC4_6*%
X205500000Y-71712500D03*
%TO.P,C23,2*%
%TO.N,GND*%
X205500000Y-73287500D03*
%TD*%
D47*
%TO.P,L2,1,1*%
%TO.N,Net-(L2-Pad1)*%
X219000000Y-68000000D03*
%TO.P,L2,2,2*%
%TO.N,Net-(U5-DCC)*%
X217424998Y-68000000D03*
%TD*%
D19*
%TO.P,C20,1*%
%TO.N,+3V3*%
X212212500Y-59000000D03*
%TO.P,C20,2*%
%TO.N,GND*%
X213787500Y-59000000D03*
%TD*%
D35*
%TO.P,D5,1,K*%
%TO.N,GND*%
X246300001Y-86730000D03*
%TO.P,D5,2,A*%
%TO.N,Net-(D5-A)*%
X248199999Y-86730000D03*
%TD*%
D30*
%TO.P,R1,1*%
%TO.N,VBUS*%
X231600000Y-84100000D03*
%TO.P,R1,2*%
%TO.N,Net-(U1-PR1)*%
X231600000Y-82450000D03*
%TD*%
D22*
%TO.P,L4,1,1*%
%TO.N,Net-(C30-Pad2)*%
X197300000Y-65500000D03*
%TO.P,L4,2,2*%
%TO.N,Net-(E1-Pad1)*%
X196330000Y-65500000D03*
%TD*%
D45*
%TO.P,R7,1*%
%TO.N,+3V3*%
X235600000Y-59750000D03*
%TO.P,R7,2*%
%TO.N,Net-(D2-A)*%
X237250000Y-59750000D03*
%TD*%
D20*
%TO.P,C19,1*%
%TO.N,/Power/V_SW*%
X221762500Y-58762500D03*
%TO.P,C19,2*%
%TO.N,GND*%
X221762500Y-60637500D03*
%TD*%
D21*
%TO.P,C29,1*%
%TO.N,+3V3*%
X217730000Y-72700000D03*
%TO.P,C29,2*%
%TO.N,GND*%
X218700000Y-72700000D03*
%TD*%
D24*
%TO.P,R14,1*%
%TO.N,+3V3*%
X202205000Y-58910000D03*
%TO.P,R14,2*%
%TO.N,I2C_SDA*%
X203400000Y-58910000D03*
%TD*%
D29*
%TO.P,C22,1*%
%TO.N,/nRF52840 and LoRa/DEC4_6*%
X204000000Y-71712500D03*
%TO.P,C22,2*%
%TO.N,GND*%
X204000000Y-73287500D03*
%TD*%
D49*
%TO.P,C7,1*%
%TO.N,+BATT*%
X231700000Y-87250001D03*
%TO.P,C7,2*%
%TO.N,GND*%
X231700000Y-90049999D03*
%TD*%
D47*
%TO.P,C13,1*%
%TO.N,+3V3*%
X214337501Y-95800000D03*
%TO.P,C13,2*%
%TO.N,GND*%
X212762501Y-95800000D03*
%TD*%
D50*
%TO.P,RST1,1*%
%TO.N,Net-(U5-~{RESET})*%
X248550000Y-62000000D03*
%TO.P,RST1,2*%
%TO.N,GND*%
X248550000Y-63600000D03*
%TO.P,RST1,3*%
X244450000Y-63600000D03*
%TO.P,RST1,4*%
%TO.N,Net-(U5-~{RESET})*%
X244450000Y-62000000D03*
%TD*%
D20*
%TO.P,C18,1*%
%TO.N,VBUS*%
X228100000Y-86962500D03*
%TO.P,C18,2*%
%TO.N,GND*%
X228100000Y-88837500D03*
%TD*%
D13*
%TO.P,J1,1,Pin_1*%
%TO.N,+3V3*%
X200000000Y-54500000D03*
D14*
%TO.P,J1,2,Pin_2*%
%TO.N,GND*%
X202540000Y-54500000D03*
%TO.P,J1,3,Pin_3*%
%TO.N,I2C_SDA*%
X205080000Y-54500000D03*
%TO.P,J1,4,Pin_4*%
%TO.N,I2C_SCL*%
X207620000Y-54500000D03*
%TD*%
D26*
%TO.P,R4,1*%
%TO.N,GND*%
X235698998Y-76376000D03*
%TO.P,R4,2*%
%TO.N,Net-(J2-CC2)*%
X237574000Y-76376000D03*
%TD*%
D51*
%TO.P,R19,1*%
%TO.N,/Power/USB_D+*%
X243425000Y-67000000D03*
%TO.P,R19,2*%
%TO.N,Net-(R19-Pad2)*%
X241775000Y-67000000D03*
%TD*%
D35*
%TO.P,D4,1,K*%
%TO.N,GND*%
X230550001Y-94825000D03*
%TO.P,D4,2,A*%
%TO.N,Net-(D4-A)*%
X232449999Y-94825000D03*
%TD*%
D52*
%TO.P,C17,1*%
%TO.N,VBUS*%
X242100000Y-86875001D03*
%TO.P,C17,2*%
%TO.N,GND*%
X242100000Y-85000001D03*
%TD*%
D12*
%TO.P,C4,1*%
%TO.N,Net-(U2-BP)*%
X225825000Y-62725000D03*
%TO.P,C4,2*%
%TO.N,GND*%
X223950000Y-62725000D03*
%TD*%
D22*
%TO.P,C30,1*%
%TO.N,Net-(U5-ANT)*%
X200185000Y-65500000D03*
%TO.P,C30,2*%
%TO.N,Net-(C30-Pad2)*%
X199215000Y-65500000D03*
%TD*%
D53*
%TO.P,J4,1,Pin_1*%
%TO.N,+BATT*%
X237000000Y-88875000D03*
%TO.P,J4,2,Pin_2*%
%TO.N,GND*%
X239000000Y-88875000D03*
D54*
%TO.P,J4,P1*%
%TO.N,N/C*%
X234650000Y-94625000D03*
%TO.P,J4,P2*%
X241350000Y-94625000D03*
%TD*%
D10*
%TO.P,H4,1,1*%
%TO.N,GND*%
X245999999Y-92999999D03*
D11*
X245999999Y-92999999D03*
%TD*%
D26*
%TO.P,R9,1*%
%TO.N,VBUS*%
X246262499Y-84650000D03*
%TO.P,R9,2*%
%TO.N,Net-(D3-A)*%
X248137501Y-84650000D03*
%TD*%
D29*
%TO.P,C2,1*%
%TO.N,/Power/V_SW*%
X219462500Y-58912500D03*
%TO.P,C2,2*%
%TO.N,GND*%
X219462500Y-60487500D03*
%TD*%
D55*
%TO.P,E1,1*%
%TO.N,Net-(E1-Pad1)*%
X195200000Y-65500000D03*
%TO.P,E1,2*%
%TO.N,unconnected-(E1-Pad2)*%
X191800000Y-65500000D03*
%TD*%
D51*
%TO.P,R21,1*%
%TO.N,/Power/USB_D-*%
X243425000Y-65500000D03*
%TO.P,R21,2*%
%TO.N,Net-(R21-Pad2)*%
X241775000Y-65500000D03*
%TD*%
D19*
%TO.P,C3,1*%
%TO.N,Net-(U5-DEC1)*%
X217425000Y-64500000D03*
%TO.P,C3,2*%
%TO.N,GND*%
X219000000Y-64500000D03*
%TD*%
D23*
%TO.P,D1,1,K*%
%TO.N,/Peripherals/RXLED*%
X238500000Y-55399998D03*
%TO.P,D1,2,A*%
%TO.N,Net-(D1-A)*%
X238500000Y-53500000D03*
%TD*%
D51*
%TO.P,R6,1*%
%TO.N,VBUS*%
X237525000Y-72700000D03*
%TO.P,R6,2*%
%TO.N,Net-(U6-CBUS3)*%
X235875000Y-72700000D03*
%TD*%
D56*
%TO.P,J5,1,In*%
%TO.N,Net-(J5-In)*%
X195200000Y-81300000D03*
D57*
%TO.P,J5,2,Ext*%
%TO.N,GND*%
X198280000Y-81300000D03*
D58*
X192120000Y-81300000D03*
%TD*%
D48*
%TO.P,C9,1*%
%TO.N,GND*%
X209500000Y-73287500D03*
%TO.P,C9,2*%
%TO.N,Net-(U5-XC1)*%
X209500000Y-71712500D03*
%TD*%
D59*
%TO.N,*%
X225000000Y-69800000D03*
%TO.N,VBUS*%
X241200000Y-76900000D03*
X241200000Y-72100000D03*
X241200000Y-72800000D03*
X229600000Y-87000000D03*
X241200000Y-76200000D03*
%TO.N,GND*%
X205400000Y-69500000D03*
X244850000Y-81500000D03*
X201300000Y-72600000D03*
X205500000Y-75300000D03*
X241200000Y-70500000D03*
X198000000Y-64400000D03*
X200931262Y-82134208D03*
X202100000Y-65700000D03*
X236700000Y-64600000D03*
X218100000Y-60500000D03*
X241200000Y-77800000D03*
X233100000Y-85400000D03*
X201100000Y-62500000D03*
X201000000Y-95634999D03*
X203950000Y-75300000D03*
X199400000Y-66500000D03*
X200700000Y-71800000D03*
X196800000Y-71400000D03*
X244850000Y-85550000D03*
X206900000Y-69500000D03*
X241200000Y-69700000D03*
X241200000Y-78600000D03*
X211600000Y-95734999D03*
X239100000Y-86300000D03*
X191300000Y-68700000D03*
X238100000Y-86300000D03*
X239000000Y-80100000D03*
X196800000Y-72600000D03*
X239200000Y-74200000D03*
X213800000Y-57650000D03*
X241200000Y-71300000D03*
X202000000Y-70600000D03*
X196800000Y-73900000D03*
X191300000Y-72700000D03*
X224600000Y-72300000D03*
X203500000Y-95634999D03*
X191300000Y-71500000D03*
X227800000Y-84700000D03*
X228000000Y-62700000D03*
X220400000Y-67050000D03*
X240000000Y-86300000D03*
X200700000Y-69400000D03*
X199400000Y-67400000D03*
X234286499Y-79126000D03*
X196800000Y-75200000D03*
X234386499Y-77326000D03*
X229600000Y-89400000D03*
X210300000Y-95734999D03*
X193600000Y-68700000D03*
X222800000Y-62000000D03*
X246500000Y-63600000D03*
X196800000Y-70200000D03*
X219900000Y-95800000D03*
X217400000Y-76406249D03*
X204100000Y-67600000D03*
X222675000Y-63325000D03*
X199400000Y-68300000D03*
X203500000Y-77000000D03*
X207050000Y-75300000D03*
X201700000Y-67200000D03*
X228100000Y-90100000D03*
X200800000Y-66300000D03*
X198100000Y-67400000D03*
X199200000Y-64300000D03*
X229100000Y-93700000D03*
X221950000Y-75350000D03*
X204000000Y-69300000D03*
X192400000Y-68700000D03*
X219100000Y-78700000D03*
X227700000Y-66800000D03*
X198100000Y-68300000D03*
X198900000Y-69800000D03*
X240000000Y-61500000D03*
X231212500Y-77700000D03*
X230100000Y-85400000D03*
X202200000Y-95634999D03*
X220400000Y-65300000D03*
X214100000Y-75293749D03*
X241200000Y-79400000D03*
X196000000Y-68500000D03*
X191300000Y-74000000D03*
X209069999Y-95769999D03*
X193300000Y-71500000D03*
X193300000Y-73900000D03*
X236650000Y-66550000D03*
X221500000Y-72700000D03*
X201100000Y-64800000D03*
X222000000Y-74600000D03*
X234700000Y-85400000D03*
X197700000Y-69600000D03*
X209500000Y-75350000D03*
X220456248Y-71000000D03*
%TO.N,+3V3*%
X204250000Y-63050000D03*
X205050000Y-59900000D03*
X234375000Y-59850000D03*
D60*
X230100000Y-59500000D03*
D59*
X215500000Y-95800000D03*
X234375000Y-61750000D03*
D60*
X230100000Y-61000000D03*
D59*
X226300000Y-92900000D03*
X216000000Y-65550000D03*
X216650000Y-73400000D03*
D60*
X231500000Y-61000000D03*
D59*
X234375000Y-58250000D03*
D60*
X230100000Y-58000000D03*
D59*
X243250000Y-88550000D03*
X212250000Y-57650000D03*
X204250000Y-65300000D03*
D60*
X231500000Y-58000000D03*
D59*
X226225000Y-77725000D03*
X202200000Y-59900000D03*
D60*
X231500000Y-59500000D03*
D59*
%TO.N,+BATT*%
X220200000Y-76400000D03*
X231200000Y-85700000D03*
X220200000Y-77300000D03*
X225500000Y-80900000D03*
X232000000Y-85700000D03*
%TO.N,/nRF52840 and LoRa/DEC4_6*%
X216000000Y-69400000D03*
X208200000Y-69700000D03*
%TO.N,/Peripherals/RXLED*%
X231500000Y-66900000D03*
X236800000Y-53100000D03*
%TO.N,/Peripherals/TXLED*%
X240000000Y-53100000D03*
X224600000Y-74900000D03*
%TO.N,I2C_SDA*%
X203400000Y-59900000D03*
X222200000Y-70600000D03*
X205500000Y-63150000D03*
%TO.N,I2C_SCL*%
X206350000Y-63150000D03*
X222200000Y-69600000D03*
X206250000Y-59900000D03*
%TO.N,/nRF52840 and LoRa/LORA_SPI_CS*%
X212800000Y-61350000D03*
X209069999Y-77800000D03*
%TO.N,/nRF52840 and LoRa/SPI_SCK*%
X210340000Y-77800000D03*
X207250000Y-63150000D03*
%TO.N,/nRF52840 and LoRa/LORA_BUSY*%
X215420000Y-77800001D03*
X215899265Y-71400735D03*
%TO.N,/nRF52840 and LoRa/LORA_IRQ*%
X216690000Y-77800000D03*
X212775000Y-62225000D03*
%TO.N,/nRF52840 and LoRa/SPI_MISO*%
X212880000Y-77800000D03*
X208950000Y-60800000D03*
%TO.N,/nRF52840 and LoRa/LORA_NRST*%
X214150000Y-77800000D03*
X213825000Y-69350000D03*
%TO.N,/nRF52840 and LoRa/SPI_MOSI*%
X211610000Y-77800000D03*
X210000000Y-60800000D03*
%TO.N,SWD_IO*%
X206100000Y-67500000D03*
X218000000Y-85700000D03*
X206200000Y-77800000D03*
%TO.N,SWD_CLK*%
X206700000Y-68200000D03*
X218000000Y-84400000D03*
X207500000Y-77800000D03*
%TO.N,Net-(U4-STAT)*%
X221500000Y-87200000D03*
X236500000Y-84300000D03*
%TO.N,Net-(U5-~{RESET})*%
X207475000Y-60350000D03*
X246500000Y-62000000D03*
X207475000Y-61875000D03*
%TO.N,UART_TXD*%
X214800000Y-61000000D03*
X216500000Y-62200000D03*
%TO.N,/Power/V_SW*%
X222650000Y-82050000D03*
X216150000Y-58700000D03*
X221775000Y-82050000D03*
X220900000Y-82050000D03*
X217025000Y-58700000D03*
X217900000Y-58700000D03*
%TO.N,Net-(U6-CBUS3)*%
X233400000Y-67100000D03*
X234600000Y-74400000D03*
%TD*%
D61*
%TO.N,VBUS*%
X231600000Y-84100000D02*
X231600000Y-83987499D01*
X231600000Y-83987499D02*
X230100000Y-82487499D01*
D62*
X242820000Y-76900000D02*
X241200000Y-76900000D01*
D61*
X229600000Y-87000000D02*
X228137501Y-87000000D01*
X239899998Y-78200002D02*
X241200000Y-76900000D01*
X227452670Y-82737499D02*
X227785800Y-82737499D01*
X225500000Y-87000002D02*
X228062497Y-87000002D01*
X230100000Y-82487499D02*
X229131070Y-82487499D01*
X236650001Y-71012499D02*
X237287502Y-71650000D01*
X239899998Y-81725000D02*
X239899998Y-78200002D01*
X240374998Y-82200000D02*
X239899998Y-81725000D01*
X246262500Y-84650000D02*
X245162500Y-83550000D01*
X237525000Y-71725000D02*
X237525000Y-72700000D01*
X237287502Y-71650000D02*
X237600000Y-71650000D01*
X237600000Y-71650000D02*
X238800000Y-71650000D01*
X238800000Y-71650000D02*
X239250000Y-72100000D01*
X230100000Y-82487499D02*
X229850000Y-82737499D01*
X242100000Y-86875002D02*
X243124998Y-86875002D01*
D62*
X242820000Y-72100000D02*
X241200000Y-72100000D01*
D61*
X243500000Y-86500000D02*
X243500000Y-83500000D01*
X228500000Y-83118569D02*
X228118930Y-82737499D01*
X228137501Y-87000000D02*
X228100000Y-86962499D01*
X228900000Y-86162499D02*
X228900000Y-83518569D01*
X236650001Y-70350000D02*
X236650001Y-71012499D01*
X229131070Y-82487499D02*
X228500000Y-83118569D01*
D63*
X230137499Y-82450000D02*
X230100000Y-82487499D01*
D61*
X245162500Y-83550000D02*
X243550000Y-83550000D01*
X228100000Y-86962499D02*
X228900000Y-86162499D01*
X226952670Y-82237499D02*
X227452670Y-82737499D01*
X243124998Y-86875002D02*
X243500000Y-86500000D01*
X243500000Y-83500000D02*
X242200000Y-82200000D01*
D62*
X241200000Y-72100000D02*
X241200000Y-72800000D01*
D61*
X239250000Y-72100000D02*
X241200000Y-72100000D01*
X226414200Y-82237499D02*
X226952670Y-82237499D01*
X243550000Y-83550000D02*
X243500000Y-83500000D01*
X242200000Y-82200000D02*
X240374998Y-82200000D01*
X228118930Y-82737499D02*
X227785800Y-82737499D01*
X237600000Y-71650000D02*
X237525000Y-71725000D01*
X228900000Y-83518569D02*
X228500000Y-83118569D01*
X228062497Y-87000002D02*
X228100000Y-86962499D01*
%TO.N,GND*%
X219550000Y-66200000D02*
X220400000Y-67050000D01*
D64*
X202215000Y-64800000D02*
X202265000Y-64750000D01*
D61*
X246500000Y-63600000D02*
X248550000Y-63600000D01*
X210641600Y-66030330D02*
X212019044Y-66030330D01*
D62*
X242820000Y-71300000D02*
X241400000Y-71300000D01*
X239000000Y-87300000D02*
X240000000Y-86300000D01*
D61*
X228000000Y-60900000D02*
X228362500Y-60537500D01*
D64*
X234286499Y-79126000D02*
X234998998Y-79126000D01*
D61*
X202200000Y-95634999D02*
X202230001Y-95665000D01*
X227800000Y-83751699D02*
X227785800Y-83737499D01*
X209500000Y-75350000D02*
X209500000Y-73362501D01*
X230682500Y-71682500D02*
X231600000Y-71682500D01*
X213800000Y-57650000D02*
X213800000Y-58987500D01*
X222675000Y-63325000D02*
X223250000Y-62750000D01*
X218500000Y-95800000D02*
X219900000Y-95800000D01*
X218100000Y-60500000D02*
X219450000Y-60500000D01*
X213800000Y-58987500D02*
X213787500Y-59000000D01*
X223950000Y-62725000D02*
X223250000Y-62725000D01*
X227900000Y-69800000D02*
X227900000Y-67000000D01*
X203950000Y-73337501D02*
X204000000Y-73287501D01*
X212880000Y-95682500D02*
X212762500Y-95800000D01*
X205500000Y-75300000D02*
X205500000Y-73287501D01*
X229400000Y-71300000D02*
X227900000Y-69800000D01*
D64*
X201210001Y-62510001D02*
X201100000Y-62400000D01*
D61*
X236700000Y-64600000D02*
X235175000Y-64600000D01*
D62*
X239000000Y-87300000D02*
X239000000Y-86400000D01*
D61*
X222800000Y-62000000D02*
X222800000Y-61675000D01*
D64*
X222950000Y-77627000D02*
X222577000Y-78000000D01*
D61*
X230225000Y-94825000D02*
X229100000Y-93700000D01*
D64*
X234998998Y-79126000D02*
X235698998Y-78426000D01*
D61*
X229600000Y-89400000D02*
X231050001Y-89400000D01*
X211600000Y-95734999D02*
X211630001Y-95765000D01*
D62*
X217400000Y-76406249D02*
X217400000Y-74912499D01*
D61*
X234700000Y-85400000D02*
X234700000Y-84100000D01*
X202540000Y-54500000D02*
X199449999Y-57590001D01*
D64*
X234386499Y-77326000D02*
X235186499Y-76526000D01*
D61*
X246300000Y-82650000D02*
X246000000Y-82650000D01*
D65*
X192120000Y-81300000D02*
X192120000Y-83620000D01*
D61*
X218500000Y-95800000D02*
X218500000Y-94040000D01*
X238949999Y-80150001D02*
X239000000Y-80100000D01*
X226400000Y-72317500D02*
X224617500Y-72317500D01*
X218500000Y-95800000D02*
X216690000Y-93990000D01*
X230300000Y-71300000D02*
X230682500Y-71682500D01*
X228000000Y-62700000D02*
X228000000Y-60900000D01*
D64*
X202265000Y-62510001D02*
X201210001Y-62510001D01*
X222950000Y-75550000D02*
X222000000Y-74600000D01*
X235548998Y-76526000D02*
X235698998Y-76376000D01*
D61*
X218500000Y-94040000D02*
X217960000Y-93500000D01*
D64*
X221950000Y-75350000D02*
X221950000Y-76500000D01*
D61*
X241300000Y-85000000D02*
X242100000Y-85000000D01*
X245120000Y-85550000D02*
X246300000Y-86730000D01*
X201000000Y-95634999D02*
X201030001Y-95665000D01*
X202200000Y-93365000D02*
X202200000Y-95634999D01*
D64*
X223200000Y-77500000D02*
X223950000Y-77500000D01*
D63*
X218760000Y-78700000D02*
X217960000Y-79500000D01*
D61*
X216690000Y-93990000D02*
X216690000Y-93500000D01*
D62*
X217400000Y-74912499D02*
X217412499Y-74900000D01*
D61*
X218685000Y-66200000D02*
X219550000Y-66200000D01*
X203500000Y-95634999D02*
X203530001Y-95665000D01*
D62*
X241200000Y-71300000D02*
X241200000Y-69700000D01*
D61*
X222600000Y-59800000D02*
X221762500Y-60637500D01*
X219600000Y-64500000D02*
X220400000Y-65300000D01*
X244450000Y-63600000D02*
X242787500Y-61937500D01*
X230550000Y-94825000D02*
X230225000Y-94825000D01*
X239200000Y-74200000D02*
X237725000Y-74200000D01*
D63*
X219100000Y-78700000D02*
X218760000Y-78700000D01*
D65*
X198280000Y-84280000D02*
X198280000Y-81300000D01*
D61*
X244850000Y-85550000D02*
X245120000Y-85550000D01*
D62*
X241200000Y-77800000D02*
X241200000Y-79400000D01*
D61*
X200931262Y-82134208D02*
X200960000Y-82105470D01*
D64*
X235186499Y-76526000D02*
X235548998Y-76526000D01*
D61*
X212880000Y-93500000D02*
X212880000Y-95682500D01*
X223250000Y-62750000D02*
X223250000Y-62725000D01*
D62*
X236650001Y-68075000D02*
X236650000Y-66550000D01*
D61*
X220456248Y-71000000D02*
X219043750Y-71000000D01*
X211600000Y-95734999D02*
X212697500Y-95734999D01*
X233100000Y-85400000D02*
X233100000Y-84100000D01*
D65*
X192120000Y-83620000D02*
X192800000Y-84300000D01*
D61*
X235686499Y-76363500D02*
X235698999Y-76376000D01*
D62*
X241300000Y-77700000D02*
X241200000Y-77800000D01*
D61*
X242787500Y-61937500D02*
X242787500Y-61500000D01*
X210300000Y-93465000D02*
X210300000Y-95734999D01*
D64*
X222950000Y-77250000D02*
X223200000Y-77500000D01*
D62*
X239000000Y-89125000D02*
X239000000Y-87300000D01*
D61*
X214100000Y-75293749D02*
X214100000Y-73306250D01*
D62*
X239000000Y-86400000D02*
X239100000Y-86300000D01*
D61*
X207050000Y-75300000D02*
X207050000Y-73337501D01*
X246000000Y-82650000D02*
X244850000Y-81500000D01*
X213787500Y-59000000D02*
X213787500Y-60147500D01*
X227800000Y-84700000D02*
X227800000Y-83751699D01*
X219450000Y-60500000D02*
X219462500Y-60487500D01*
X227900000Y-67000000D02*
X227700000Y-66800000D01*
D64*
X201100000Y-64800000D02*
X202215000Y-64800000D01*
D61*
X199449999Y-57590001D02*
X199449999Y-59000000D01*
X209069999Y-95769999D02*
X209100000Y-95800000D01*
X221500000Y-72700000D02*
X218693750Y-72700000D01*
X203950000Y-75300000D02*
X203950000Y-73337501D01*
X229829999Y-77670001D02*
X229800000Y-77700000D01*
X210300000Y-95734999D02*
X210330001Y-95765000D01*
D65*
X192800000Y-84300000D02*
X198300000Y-84300000D01*
D62*
X239000000Y-87200000D02*
X239000000Y-87300000D01*
D61*
X207050000Y-73337501D02*
X207000000Y-73287501D01*
D64*
X209793072Y-67727386D02*
X209175829Y-68344629D01*
D61*
X230100000Y-85400000D02*
X230100000Y-84062501D01*
X228100000Y-90100000D02*
X228100000Y-88837501D01*
X219000000Y-64500000D02*
X219600000Y-64500000D01*
X237525000Y-74400000D02*
X237525000Y-74549998D01*
X222800000Y-61675000D02*
X221762500Y-60637500D01*
D64*
X222950000Y-77250000D02*
X222950000Y-75550000D01*
D61*
X237725000Y-74200000D02*
X237525000Y-74400000D01*
D62*
X242820000Y-77700000D02*
X241300000Y-77700000D01*
X241400000Y-71300000D02*
X241200000Y-71100000D01*
D65*
X198300000Y-84300000D02*
X198280000Y-84280000D01*
D61*
X203500000Y-79500000D02*
X203500000Y-77000000D01*
X246500000Y-63600000D02*
X244450000Y-63600000D01*
X200960000Y-82105470D02*
X200960000Y-79500000D01*
X212697500Y-95734999D02*
X212762501Y-95800000D01*
X240000000Y-86300000D02*
X241300000Y-85000000D01*
X203500000Y-93365000D02*
X203500000Y-95634999D01*
D62*
X238100000Y-86300000D02*
X239000000Y-87200000D01*
D64*
X222577000Y-78000000D02*
X221950000Y-78000000D01*
D61*
X213787500Y-60147500D02*
X213485000Y-60450000D01*
X209069999Y-93500000D02*
X209069999Y-95769999D01*
X235636499Y-78488499D02*
X235698998Y-78426000D01*
X201000000Y-93365000D02*
X201000000Y-95634999D01*
X238949999Y-84000000D02*
X238949999Y-80150001D01*
X224617500Y-72317500D02*
X224600000Y-72300000D01*
D64*
X222950000Y-77250000D02*
X222950000Y-77627000D01*
D61*
X231050001Y-89400000D02*
X231700000Y-90049999D01*
X230300000Y-71300000D02*
X229400000Y-71300000D01*
X241212500Y-61500000D02*
X240000000Y-61500000D01*
X211600000Y-93465000D02*
X211600000Y-95734999D01*
X224025000Y-59800000D02*
X222600000Y-59800000D01*
X231212500Y-77700000D02*
X229800000Y-77700000D01*
X212019044Y-66030330D02*
X213416287Y-67427573D01*
D64*
%TO.N,Net-(U5-DEC1)*%
X215283200Y-64500000D02*
X214283200Y-65500000D01*
X217425000Y-64500000D02*
X215283200Y-64500000D01*
D61*
%TO.N,Net-(U2-BP)*%
X226300000Y-60750000D02*
X225825000Y-61225000D01*
X225825000Y-61225000D02*
X225825000Y-62775000D01*
%TO.N,+3V3*%
X216625000Y-95800000D02*
X215420000Y-94595000D01*
D64*
X215025000Y-70775000D02*
X214875000Y-70625000D01*
X243450000Y-88750000D02*
X246325000Y-88750000D01*
X202200000Y-58915000D02*
X202205000Y-58910000D01*
X217730000Y-72700000D02*
X216350000Y-72700000D01*
X208979899Y-63520101D02*
X208602920Y-63143122D01*
D63*
X235662499Y-58312499D02*
X235600000Y-58250000D01*
D64*
X216450000Y-66250000D02*
X216450000Y-66000000D01*
D61*
X205050000Y-59900000D02*
X205050000Y-58952500D01*
D64*
X214875000Y-70625000D02*
X212125000Y-70625000D01*
D61*
X216650000Y-73400000D02*
X217030000Y-73400000D01*
X226225000Y-77725000D02*
X228199998Y-77725000D01*
D64*
X216450000Y-66000000D02*
X216000000Y-65550000D01*
D61*
X214337502Y-95800000D02*
X215500000Y-95800000D01*
D64*
X204250000Y-65300000D02*
X203785000Y-65300000D01*
D61*
X212250000Y-57650000D02*
X212250000Y-58962500D01*
X231600001Y-73587500D02*
X229637498Y-73587500D01*
D64*
X202200000Y-59900000D02*
X202200000Y-58915000D01*
X243250000Y-88550000D02*
X243450000Y-88750000D01*
D61*
X217030000Y-73400000D02*
X217730000Y-72700000D01*
X229637498Y-73587500D02*
X228224998Y-75000000D01*
X204250000Y-64750000D02*
X205189340Y-64750000D01*
D64*
X215700000Y-67000000D02*
X214722540Y-67000000D01*
D61*
X204250000Y-62560001D02*
X204200000Y-62510001D01*
X228199998Y-77725000D02*
X228224998Y-77700000D01*
X203235000Y-62510001D02*
X204200000Y-62510001D01*
D64*
X214722540Y-67000000D02*
X214283200Y-66560660D01*
X216450000Y-66250000D02*
X215700000Y-67000000D01*
D61*
X230062499Y-61062499D02*
X230100000Y-61024998D01*
X227924999Y-77400001D02*
X228224997Y-77700000D01*
X229607498Y-72317500D02*
X228224998Y-73700000D01*
D64*
X217715000Y-66200000D02*
X216500000Y-66200000D01*
D61*
X203235000Y-64750000D02*
X204250000Y-64750000D01*
D63*
X235574999Y-59800000D02*
X234425001Y-59800000D01*
D61*
X230100000Y-61024998D02*
X230100000Y-61000000D01*
D63*
X235574999Y-61700000D02*
X234425001Y-61700000D01*
D61*
X228224998Y-73700000D02*
X228224998Y-71420498D01*
X226300000Y-92900000D02*
X226300000Y-94600000D01*
X212212500Y-60450000D02*
X212212500Y-61311390D01*
X235550000Y-58200000D02*
X235600000Y-58250000D01*
X207969799Y-62510001D02*
X208602920Y-63143122D01*
X212212500Y-61311390D02*
X211153545Y-62370345D01*
D64*
X216350000Y-72700000D02*
X215025000Y-71375000D01*
D61*
X212212500Y-59000000D02*
X212212500Y-60450000D01*
X215420000Y-94595000D02*
X215420000Y-93499999D01*
D63*
X235574999Y-58200000D02*
X234425001Y-58200000D01*
D64*
X212125000Y-70625000D02*
X211171930Y-69671930D01*
D61*
X215500000Y-95800000D02*
X216625000Y-95800000D01*
X204250000Y-63050000D02*
X204250000Y-62560001D01*
X212250000Y-58962500D02*
X212212500Y-59000000D01*
X228224998Y-77700000D02*
X228224998Y-75000000D01*
D64*
X215025000Y-71375000D02*
X215025000Y-70775000D01*
X203785000Y-65300000D02*
X203235000Y-64750000D01*
D61*
X205189340Y-64750000D02*
X206981615Y-66542275D01*
X227217000Y-70412500D02*
X226399999Y-70412500D01*
X231600000Y-72317500D02*
X229607498Y-72317500D01*
D64*
X216500000Y-66200000D02*
X216450000Y-66250000D01*
D61*
X228224998Y-71420498D02*
X227217000Y-70412500D01*
X205050000Y-58952500D02*
X205102500Y-58900000D01*
X204200000Y-62510001D02*
X207969799Y-62510001D01*
X228224998Y-75000000D02*
X228224998Y-73700000D01*
D62*
%TO.N,+BATT*%
X237175002Y-85200000D02*
X235125001Y-87250001D01*
D61*
X230462500Y-92400000D02*
X231686501Y-91175999D01*
D62*
X239899998Y-84800002D02*
X239500000Y-85200000D01*
D61*
X234949001Y-91175999D02*
X237000000Y-89125000D01*
X231686501Y-91175999D02*
X234949001Y-91175999D01*
D62*
X220200000Y-75800000D02*
X220200000Y-76400000D01*
X219287501Y-74900000D02*
X220187501Y-75800000D01*
X222049000Y-77101000D02*
X221950000Y-77101000D01*
D65*
X231700000Y-87250001D02*
X235125001Y-87250001D01*
D62*
X231200000Y-85700000D02*
X231600000Y-86100000D01*
X231600000Y-87150001D02*
X231700000Y-87250001D01*
D65*
X235125001Y-87250001D02*
X237000000Y-89125000D01*
D62*
X239500000Y-85200000D02*
X237175002Y-85200000D01*
D61*
X226414200Y-82737499D02*
X226081070Y-82737499D01*
D62*
X239899998Y-84000000D02*
X239899998Y-84800002D01*
X231600000Y-86100000D02*
X232000000Y-85700000D01*
X220187501Y-75800000D02*
X220200000Y-75800000D01*
X222049000Y-77300000D02*
X222049000Y-77101000D01*
D61*
X225500000Y-82156429D02*
X225500000Y-80900000D01*
X226081070Y-82737499D02*
X225500000Y-82156429D01*
D62*
X220200000Y-77300000D02*
X222049000Y-77300000D01*
X231600000Y-86100000D02*
X231600000Y-87150001D01*
D64*
%TO.N,Net-(U5-XC1)*%
X209500000Y-71637499D02*
X209500000Y-70700000D01*
X211100000Y-73000000D02*
X210787500Y-73000000D01*
X209762501Y-71900000D02*
X209500000Y-71637499D01*
X209200000Y-70400000D02*
X209200000Y-70017514D01*
X209200000Y-70017514D02*
X209828427Y-69389087D01*
X209500000Y-70700000D02*
X209200000Y-70400000D01*
X210787500Y-73000000D02*
X209500000Y-71712500D01*
%TO.N,Net-(IC2-ANT)*%
X202200000Y-79470000D02*
X202230000Y-79500000D01*
D66*
X202200000Y-77550000D02*
X202200000Y-79470000D01*
%TO.N,Net-(J5-In)*%
X195300000Y-75500000D02*
X195300000Y-81200000D01*
D63*
X195300000Y-81200000D02*
X195200000Y-81300000D01*
D66*
X195100000Y-73737501D02*
X195100000Y-75300000D01*
D63*
X195100000Y-75300000D02*
X195300000Y-75500000D01*
D64*
%TO.N,/nRF52840 and LoRa/DEC4_6*%
X208642364Y-69442364D02*
X208817364Y-69267364D01*
X206620135Y-70592364D02*
X207307636Y-70592364D01*
D67*
X209261326Y-68823402D02*
X208910762Y-69173966D01*
D64*
X216091168Y-69500000D02*
X217424998Y-69500000D01*
X217424998Y-69500000D02*
X217424998Y-71000000D01*
X208642364Y-69442364D02*
X209262034Y-68822694D01*
X207307636Y-70592364D02*
X208457636Y-69442364D01*
X208817364Y-69267364D02*
X208910762Y-69173966D01*
X208457636Y-69442364D02*
X208642364Y-69442364D01*
D67*
X209261326Y-68823402D02*
X208817364Y-69267364D01*
D64*
X213717514Y-67126346D02*
X216091168Y-69500000D01*
X205500000Y-71712499D02*
X206620135Y-70592364D01*
X205500000Y-71712499D02*
X204000000Y-71712499D01*
D67*
X209262742Y-68823402D02*
X209261326Y-68823402D01*
D64*
%TO.N,Net-(U5-DEC3)*%
X207000000Y-71651828D02*
X209545584Y-69106244D01*
X207000000Y-71712499D02*
X207000000Y-71651828D01*
%TO.N,Net-(U5-XC2)*%
X210111270Y-69671930D02*
X210271930Y-69671930D01*
X212762501Y-71637499D02*
X212500000Y-71900000D01*
X210271930Y-69671930D02*
X212500000Y-71900000D01*
X214000000Y-71637499D02*
X212762501Y-71637499D01*
%TO.N,/Peripherals/RXLED*%
X229825000Y-67925000D02*
X229825000Y-70222545D01*
X229825000Y-70222545D02*
X230649955Y-71047500D01*
X238500000Y-55399998D02*
X236800000Y-53699998D01*
X230850000Y-66900000D02*
X229825000Y-67925000D01*
X230649955Y-71047500D02*
X231600000Y-71047500D01*
X231500000Y-66900000D02*
X230850000Y-66900000D01*
X236800000Y-53699998D02*
X236800000Y-53100000D01*
D61*
%TO.N,Net-(D1-A)*%
X240000000Y-56500000D02*
X240000000Y-55000000D01*
X237250000Y-58250000D02*
X238250000Y-58250000D01*
X238250000Y-58250000D02*
X240000000Y-56500000D01*
X240000000Y-55000000D02*
X238500000Y-53500000D01*
%TO.N,Net-(D2-A)*%
X240100000Y-57400000D02*
X237750000Y-59750000D01*
X241540000Y-53500001D02*
X242700000Y-54660001D01*
X242600000Y-57400000D02*
X240100000Y-57400000D01*
X242700000Y-57300000D02*
X242600000Y-57400000D01*
X242700000Y-54660001D02*
X242700000Y-57300000D01*
X237750000Y-59750000D02*
X237250000Y-59750000D01*
D64*
%TO.N,/Peripherals/TXLED*%
X224600000Y-74900000D02*
X226357500Y-74900000D01*
X226357500Y-74900000D02*
X226400000Y-74857500D01*
X241540000Y-55399999D02*
X240000000Y-53859999D01*
X240000000Y-53859999D02*
X240000000Y-53100000D01*
D61*
%TO.N,Net-(D3-A)*%
X248137500Y-84650000D02*
X248137500Y-82712500D01*
X248137500Y-82712500D02*
X248200000Y-82650000D01*
D62*
%TO.N,Net-(D4-A)*%
X232450000Y-92512500D02*
X232337500Y-92400000D01*
X232450000Y-94825000D02*
X232450000Y-92512500D01*
D61*
%TO.N,Net-(D5-A)*%
X248200000Y-88750000D02*
X248200000Y-86730000D01*
%TO.N,Net-(D6-K)*%
X225500000Y-88900000D02*
X223275000Y-88900000D01*
X223275000Y-88900000D02*
X223200000Y-88825000D01*
D64*
%TO.N,Net-(D7-A)*%
X197612499Y-61500000D02*
X197612499Y-59062498D01*
X197612499Y-59062498D02*
X197550001Y-59000000D01*
D61*
%TO.N,I2C_SDA*%
X205500000Y-63150000D02*
X205500000Y-63185298D01*
X205500000Y-63185298D02*
X206764702Y-64450000D01*
D64*
X222200000Y-71800000D02*
X223399000Y-72999000D01*
X223399000Y-72999000D02*
X223399000Y-75949000D01*
D61*
X203400000Y-58600000D02*
X205079999Y-56920001D01*
X205079999Y-56920001D02*
X205079999Y-54500000D01*
X203400000Y-59900000D02*
X203400000Y-58910000D01*
X206764702Y-64450000D02*
X207081372Y-64450000D01*
D64*
X222200000Y-70600000D02*
X222200000Y-71800000D01*
X223399000Y-75949000D02*
X223950000Y-76500000D01*
D61*
X203400000Y-58910000D02*
X203400000Y-58600000D01*
X207081372Y-64450000D02*
X207565686Y-64934314D01*
D64*
%TO.N,I2C_SCL*%
X224900000Y-75900000D02*
X224900000Y-76700000D01*
D61*
X206297500Y-58900000D02*
X207620000Y-57577500D01*
D64*
X223800000Y-72200000D02*
X223800000Y-75300000D01*
D61*
X207268182Y-63999000D02*
X207848528Y-64579346D01*
D64*
X224100000Y-75600000D02*
X224600000Y-75600000D01*
D61*
X206250000Y-58947500D02*
X206297500Y-58900000D01*
D64*
X224900000Y-76700000D02*
X224600000Y-77000000D01*
D61*
X206250000Y-59900000D02*
X206250000Y-58947500D01*
X206350000Y-63150000D02*
X207199000Y-63999000D01*
D64*
X223000000Y-70900000D02*
X223000000Y-71400000D01*
X222200000Y-69600000D02*
X223000000Y-70400000D01*
X224600000Y-75600000D02*
X224900000Y-75900000D01*
X223000000Y-70900000D02*
X223000000Y-70600000D01*
X223800000Y-75300000D02*
X224100000Y-75600000D01*
X224600000Y-77000000D02*
X223950000Y-77000000D01*
X223000000Y-71400000D02*
X223800000Y-72200000D01*
D61*
X207199000Y-63999000D02*
X207268182Y-63999000D01*
X207620000Y-57577500D02*
X207620000Y-54500000D01*
D64*
X223000000Y-70400000D02*
X223000000Y-70900000D01*
%TO.N,/nRF52840 and LoRa/LORA_SPI_CS*%
X212800000Y-61350000D02*
X212776344Y-61350000D01*
X211454773Y-62671571D02*
X211454773Y-62671573D01*
X209069999Y-77800000D02*
X209069999Y-79500000D01*
X212776344Y-61350000D02*
X211454773Y-62671571D01*
D61*
%TO.N,/nRF52840 and LoRa/SPI_SCK*%
X208643316Y-63821328D02*
X208678672Y-63821328D01*
X207100000Y-63200000D02*
X208021988Y-63200000D01*
X208021988Y-63200000D02*
X208643316Y-63821328D01*
X210340000Y-77800000D02*
X210340000Y-79500000D01*
%TO.N,/nRF52840 and LoRa/LORA_BUSY*%
X212240686Y-69609314D02*
X211737616Y-69106244D01*
D64*
X215420000Y-77800001D02*
X215420000Y-79500000D01*
X215899265Y-71082165D02*
X214992100Y-70175000D01*
D61*
X212431372Y-69800000D02*
X212240686Y-69609314D01*
D64*
X214992100Y-70175000D02*
X212806372Y-70175000D01*
X212806372Y-70175000D02*
X212240686Y-69609314D01*
X215899265Y-71400735D02*
X215899265Y-71082165D01*
%TO.N,/nRF52840 and LoRa/LORA_IRQ*%
X211737616Y-62954416D02*
X212467032Y-62225000D01*
X216690000Y-77800000D02*
X216690000Y-79500000D01*
X212467032Y-62225000D02*
X212775000Y-62225000D01*
%TO.N,/nRF52840 and LoRa/SPI_MISO*%
X209828427Y-62671573D02*
X208950000Y-61793146D01*
X208950000Y-61793146D02*
X208950000Y-60800000D01*
X212880000Y-77800000D02*
X212880000Y-79500000D01*
D61*
%TO.N,/nRF52840 and LoRa/LORA_NRST*%
X212056521Y-68787339D02*
X212443182Y-69174000D01*
X212443182Y-69174000D02*
X213649000Y-69174000D01*
D64*
X214150000Y-77800000D02*
X214150000Y-79500000D01*
D61*
X213649000Y-69174000D02*
X213825000Y-69350000D01*
D64*
%TO.N,/nRF52840 and LoRa/SPI_MOSI*%
X211610000Y-77800000D02*
X211610000Y-79500000D01*
X210111270Y-62388730D02*
X210111270Y-60911270D01*
X210111270Y-60911270D02*
X210000000Y-60800000D01*
D61*
%TO.N,Net-(J2-CC1)*%
X241999822Y-75574000D02*
X240426000Y-75574000D01*
X242175822Y-75750000D02*
X241999822Y-75574000D01*
X242820000Y-75750000D02*
X242175822Y-75750000D01*
X240426000Y-75574000D02*
X237574000Y-78426000D01*
D64*
%TO.N,/Power/USB_D+*%
X242549000Y-73750000D02*
X242820000Y-73750000D01*
X241944000Y-74482824D02*
X241944000Y-74007000D01*
X242250000Y-73701000D02*
X242500000Y-73701000D01*
X245125000Y-72906802D02*
X244256802Y-73775000D01*
X242820000Y-74750000D02*
X242211176Y-74750000D01*
X241944000Y-74007000D02*
X242250000Y-73701000D01*
X243707501Y-73775000D02*
X243682501Y-73750000D01*
X243425000Y-67000000D02*
X244288603Y-67000000D01*
X244256802Y-73775000D02*
X243707501Y-73775000D01*
X244288603Y-67000000D02*
X245125000Y-67836397D01*
X242500000Y-73701000D02*
X242549000Y-73750000D01*
X242211176Y-74750000D02*
X241944000Y-74482824D01*
X245125000Y-67836397D02*
X245125000Y-68493198D01*
X243682501Y-73750000D02*
X242820000Y-73750000D01*
X245125000Y-68493198D02*
X245125000Y-72906802D01*
%TO.N,/Power/USB_D-*%
X243707501Y-74225000D02*
X244443198Y-74225000D01*
X243682501Y-74250000D02*
X243707501Y-74225000D01*
X242820000Y-74250000D02*
X243682501Y-74250000D01*
X245575000Y-68306802D02*
X245575000Y-73093198D01*
X243428824Y-75250000D02*
X244509099Y-74169725D01*
X242820000Y-75250000D02*
X243428824Y-75250000D01*
X244443198Y-74225000D02*
X244509099Y-74159099D01*
X245575001Y-67650001D02*
X245575001Y-68306801D01*
X245575001Y-68306801D02*
X245575000Y-68306802D01*
X244509099Y-74169725D02*
X244509099Y-74159099D01*
X245575000Y-73093198D02*
X244509099Y-74159099D01*
X243425000Y-65500000D02*
X245575001Y-67650001D01*
D61*
%TO.N,Net-(J2-CC2)*%
X237574000Y-76376000D02*
X238524000Y-76376000D01*
X238524000Y-76376000D02*
X239835298Y-75064702D01*
X239835298Y-75064702D02*
X239835298Y-75050000D01*
X242820000Y-72750000D02*
X242135298Y-72750000D01*
X242135298Y-72750000D02*
X239835298Y-75050000D01*
D64*
%TO.N,SWD_IO*%
X206626346Y-67500000D02*
X206100000Y-67500000D01*
X218000000Y-85700000D02*
X208800000Y-85700000D01*
X206200000Y-83100000D02*
X206200000Y-77800000D01*
X208800000Y-85700000D02*
X206200000Y-83100000D01*
X207282843Y-66843503D02*
X206626346Y-67500000D01*
%TO.N,SWD_CLK*%
X206700000Y-67992032D02*
X206700000Y-68200000D01*
X207500000Y-77800000D02*
X207500000Y-82100000D01*
X207565686Y-67126346D02*
X206700000Y-67992032D01*
X209800000Y-84400000D02*
X218000000Y-84400000D01*
X207500000Y-82100000D02*
X209800000Y-84400000D01*
%TO.N,Net-(L2-Pad1)*%
X219000000Y-69500000D02*
X219000000Y-68000000D01*
%TO.N,Net-(U5-DCC)*%
X215156854Y-68000000D02*
X214000357Y-66843503D01*
X217424998Y-68000000D02*
X215156854Y-68000000D01*
D61*
%TO.N,Net-(U1-PR1)*%
X231600000Y-82450000D02*
X230850000Y-81700000D01*
X230850000Y-81700000D02*
X228323299Y-81700000D01*
X228323299Y-81700000D02*
X227785800Y-82237499D01*
X231600000Y-82450000D02*
X233100000Y-82450000D01*
%TO.N,Net-(U1-ST)*%
X226214198Y-83937501D02*
X226414200Y-83737499D01*
X224200000Y-83937501D02*
X226214198Y-83937501D01*
%TO.N,Net-(U6-~{RESET})*%
X234300000Y-68779348D02*
X233100000Y-69979348D01*
X233625000Y-65825000D02*
X234300000Y-66500000D01*
X233100000Y-72200000D02*
X232347500Y-72952500D01*
X234300000Y-66500000D02*
X234300000Y-68779348D01*
X233625000Y-64600000D02*
X233625000Y-65825000D01*
X232347500Y-72952500D02*
X231600000Y-72952500D01*
X233100000Y-69979348D02*
X233100000Y-72200000D01*
%TO.N,Net-(U4-PROG)*%
X234700000Y-82475000D02*
X237250000Y-82475000D01*
X237250000Y-82475000D02*
X238000000Y-81725000D01*
%TO.N,Net-(U4-STAT)*%
X221500000Y-87200000D02*
X223175000Y-87200000D01*
X223175000Y-87200000D02*
X223200000Y-87175000D01*
X237700000Y-84300000D02*
X236500000Y-84300000D01*
X238000000Y-84000000D02*
X237700000Y-84300000D01*
D64*
%TO.N,/nRF52840 and LoRa/LED*%
X199812501Y-61175000D02*
X207766168Y-61175000D01*
X199487501Y-61500000D02*
X199812501Y-61175000D01*
X207766168Y-61175000D02*
X209545584Y-62954416D01*
%TO.N,Net-(U5-~{RESET})*%
X233100000Y-57700000D02*
X233100000Y-61800000D01*
X210225000Y-56600000D02*
X232000000Y-56600000D01*
X246500000Y-62000000D02*
X244450000Y-62000000D01*
X207475000Y-60350000D02*
X207475000Y-59350000D01*
X235987501Y-63300000D02*
X237537501Y-61750000D01*
X234600000Y-63300000D02*
X235987501Y-63300000D01*
X244450000Y-62000000D02*
X244450000Y-61450000D01*
X244450000Y-61450000D02*
X243000000Y-60000000D01*
X239287501Y-60000000D02*
X243000000Y-60000000D01*
X207475000Y-59350000D02*
X210225000Y-56600000D01*
D68*
X209262742Y-63237258D02*
X207900484Y-61875000D01*
D64*
X232000000Y-56600000D02*
X233100000Y-57700000D01*
X237537501Y-61750000D02*
X239287501Y-60000000D01*
D68*
X207900484Y-61875000D02*
X207475000Y-61875000D01*
D64*
X233100000Y-61800000D02*
X234600000Y-63300000D01*
X246500000Y-62000000D02*
X248550000Y-62000000D01*
D66*
%TO.N,Net-(U5-ANT)*%
X208697056Y-68257716D02*
X208340559Y-68614213D01*
X207633452Y-68907106D02*
X204771320Y-68907106D01*
X204064213Y-68614213D02*
X201242893Y-65792893D01*
D64*
X208346492Y-68608280D02*
X208697056Y-68257716D01*
D66*
X200535786Y-65500000D02*
G75*
G02*
X201242900Y-65792886I14J-1000000D01*
G01*
X207633452Y-68907106D02*
G75*
G03*
X208340584Y-68614238I48J1000006D01*
G01*
X204771320Y-68907106D02*
G75*
G02*
X204064202Y-68614224I-20J1000006D01*
G01*
%TO.N,Net-(C30-Pad2)*%
X197300000Y-65500000D02*
X199215000Y-65500000D01*
D64*
%TO.N,UART_RXD*%
X232100000Y-66600000D02*
X229800000Y-64300000D01*
X219700000Y-61500000D02*
X214889088Y-61500000D01*
X222500000Y-64300000D02*
X219700000Y-61500000D01*
X231600000Y-69142500D02*
X232100000Y-68642500D01*
X232100000Y-68642500D02*
X232100000Y-66600000D01*
X229800000Y-64300000D02*
X222500000Y-64300000D01*
X214889088Y-61500000D02*
X212586144Y-63802944D01*
%TO.N,UART_TXD*%
X226400000Y-71047500D02*
X225047500Y-71047500D01*
X225047500Y-71047500D02*
X223200000Y-69200000D01*
X219533900Y-61901000D02*
X216799000Y-61901000D01*
X216799000Y-61901000D02*
X216500000Y-62200000D01*
X214800000Y-61000000D02*
X212850000Y-62950000D01*
X212850000Y-62950000D02*
X212655280Y-63144720D01*
X223200000Y-69200000D02*
X223200000Y-65567100D01*
X212655280Y-63144720D02*
X212655280Y-63166708D01*
X212303301Y-63520101D02*
X212303301Y-63496699D01*
X212303301Y-63496699D02*
X212850000Y-62950000D01*
X223200000Y-65567100D02*
X219533900Y-61901000D01*
D62*
%TO.N,/Power/V_SW*%
X222650000Y-82050000D02*
X224187501Y-82050000D01*
X219462500Y-58912500D02*
X221612500Y-58912500D01*
D64*
X223800000Y-94500000D02*
X223800000Y-92425000D01*
D61*
X225300000Y-59462501D02*
X224687499Y-58850000D01*
D62*
X224025000Y-58850000D02*
X221850000Y-58850000D01*
D64*
X220875000Y-89500000D02*
X220875000Y-82075000D01*
D62*
X222650000Y-82050000D02*
X220900000Y-82050000D01*
X217900000Y-58700000D02*
X219250000Y-58700000D01*
D61*
X225375000Y-83237499D02*
X224200000Y-82062499D01*
D64*
X220875000Y-82075000D02*
X220900000Y-82050000D01*
D62*
X221850000Y-58850000D02*
X221762500Y-58762500D01*
D61*
X225300000Y-60000000D02*
X225300000Y-59462501D01*
D62*
X219250000Y-58700000D02*
X219462500Y-58912500D01*
X221612500Y-58912500D02*
X221762500Y-58762500D01*
D61*
X224550000Y-60750000D02*
X225300000Y-60000000D01*
X224025000Y-60750000D02*
X224550000Y-60750000D01*
X224687499Y-58850000D02*
X224025000Y-58850000D01*
D62*
X217900000Y-58700000D02*
X216150000Y-58700000D01*
X224187501Y-82050000D02*
X224200000Y-82062499D01*
D61*
X227785800Y-83237499D02*
X226414200Y-83237499D01*
D64*
X223800000Y-92425000D02*
X220875000Y-89500000D01*
D61*
X226414200Y-83237499D02*
X225375000Y-83237499D01*
D64*
%TO.N,D+*%
X234125000Y-70193198D02*
X234978533Y-69339665D01*
X235700002Y-70350000D02*
X235700002Y-69659041D01*
X232000000Y-74857500D02*
X232092500Y-74765000D01*
X234125000Y-73193198D02*
X234125000Y-70193198D01*
X234978533Y-69339665D02*
X235380626Y-69339665D01*
X232092500Y-74765000D02*
X232553198Y-74765000D01*
X232553198Y-74765000D02*
X234125000Y-73193198D01*
X235700002Y-69659041D02*
X235380626Y-69339665D01*
X231600000Y-74857500D02*
X232000000Y-74857500D01*
%TO.N,D-*%
X233675000Y-73006802D02*
X233675000Y-70006802D01*
X232366802Y-74315000D02*
X233675000Y-73006802D01*
X235589665Y-68889665D02*
X235600000Y-68900000D01*
X234792137Y-68889665D02*
X235589665Y-68889665D01*
X233675000Y-70006802D02*
X234792137Y-68889665D01*
X235700002Y-68799998D02*
X235700002Y-68075000D01*
X235600000Y-68900000D02*
X235700002Y-68799998D01*
X232092500Y-74315000D02*
X232366802Y-74315000D01*
X231600000Y-74222500D02*
X232000000Y-74222500D01*
X232000000Y-74222500D02*
X232092500Y-74315000D01*
D66*
%TO.N,Net-(E1-Pad1)*%
X196330000Y-65500000D02*
X195200001Y-65500000D01*
%TO.N,Net-(C15-Pad1)*%
X195337501Y-71335049D02*
X195337501Y-70389949D01*
X199392893Y-69192893D02*
X201994975Y-71794975D01*
X202200000Y-72289949D02*
X202200000Y-75900000D01*
X195542527Y-69894974D02*
X196244608Y-69192893D01*
X195100000Y-71862499D02*
X195132476Y-71830023D01*
X196951715Y-68900000D02*
X198685786Y-68900000D01*
X195132476Y-71830023D02*
G75*
G03*
X195337535Y-71335049I-494976J495023D01*
G01*
X201994975Y-71794975D02*
G75*
G02*
X202200036Y-72289949I-494975J-495025D01*
G01*
X198685786Y-68900000D02*
G75*
G02*
X199392900Y-69192886I14J-1000000D01*
G01*
X195542527Y-69894974D02*
G75*
G03*
X195337465Y-70389949I494973J-495026D01*
G01*
X196244608Y-69192893D02*
G75*
G02*
X196951715Y-68900010I707092J-707107D01*
G01*
D61*
%TO.N,Net-(U6-CBUS3)*%
X235875000Y-74400000D02*
X235875000Y-72700000D01*
X231600000Y-69777500D02*
X232450000Y-69777500D01*
X232450000Y-69777500D02*
X233400000Y-68827500D01*
X233400000Y-68827500D02*
X233400000Y-67100000D01*
X234600000Y-74400000D02*
X235875000Y-74400000D01*
D64*
%TO.N,Net-(R21-Pad2)*%
X241300000Y-65975000D02*
X241775000Y-65500000D01*
X239700000Y-66600000D02*
X240300000Y-66000000D01*
X241300000Y-66000000D02*
X241300000Y-65975000D01*
X239100000Y-69000000D02*
X239700000Y-68400000D01*
X237600000Y-68075000D02*
X238500000Y-68975000D01*
X239700000Y-68400000D02*
X239700000Y-66600000D01*
X238500000Y-69000000D02*
X239100000Y-69000000D01*
X238500000Y-68975000D02*
X238500000Y-69000000D01*
X240300000Y-66000000D02*
X241300000Y-66000000D01*
%TO.N,Net-(R19-Pad2)*%
X240101000Y-66766100D02*
X240466100Y-66401000D01*
X239217100Y-69450000D02*
X240101000Y-68566100D01*
X240466100Y-66401000D02*
X241301000Y-66401000D01*
X241775000Y-66875000D02*
X241775000Y-67000000D01*
X237600000Y-70350000D02*
X238500000Y-69450000D01*
X240101000Y-68566100D02*
X240101000Y-66766100D01*
X241301000Y-66401000D02*
X241775000Y-66875000D01*
X238500000Y-69450000D02*
X239217100Y-69450000D01*
%TD*%
%TA.AperFunction,Conductor*%
%TO.N,+3V3*%
G36*
X231615677Y-57319685D02*
G01*
X231636319Y-57336319D01*
X232063681Y-57763681D01*
X232097166Y-57825004D01*
X232100000Y-57851362D01*
X232100000Y-61248638D01*
X232080315Y-61315677D01*
X232063681Y-61336319D01*
X231836319Y-61563681D01*
X231774996Y-61597166D01*
X231748638Y-61600000D01*
X229624000Y-61600000D01*
X229556961Y-61580315D01*
X229511206Y-61527511D01*
X229500000Y-61476000D01*
X229500000Y-61111481D01*
X229506293Y-61072480D01*
X229552587Y-60932775D01*
X229563000Y-60830848D01*
X229563000Y-60244152D01*
X229552587Y-60142225D01*
X229506294Y-60002521D01*
X229500000Y-59963517D01*
X229500000Y-59500000D01*
X229300000Y-59300000D01*
X228200000Y-59300000D01*
X228200000Y-58100000D01*
X227600000Y-58100000D01*
X228363681Y-57336319D01*
X228425004Y-57302834D01*
X228451362Y-57300000D01*
X231548638Y-57300000D01*
X231615677Y-57319685D01*
G37*
%TD.AperFunction*%
%TD*%
%TA.AperFunction,Conductor*%
%TO.N,+3V3*%
G36*
X228200000Y-59300000D02*
G01*
X225992581Y-59300000D01*
X225925542Y-59280315D01*
X225879787Y-59227511D01*
X225878020Y-59223453D01*
X225854312Y-59166218D01*
X225854311Y-59166215D01*
X225854309Y-59166212D01*
X225854307Y-59166208D01*
X225785858Y-59063768D01*
X225785855Y-59063764D01*
X225695637Y-58973546D01*
X225695606Y-58973517D01*
X225536319Y-58814230D01*
X225502834Y-58752907D01*
X225500000Y-58726549D01*
X225500000Y-58551362D01*
X225519685Y-58484323D01*
X225536319Y-58463681D01*
X225663681Y-58336319D01*
X225725004Y-58302834D01*
X225751362Y-58300000D01*
X227400000Y-58300000D01*
X227600000Y-58100000D01*
X228200000Y-58100000D01*
X228200000Y-59300000D01*
G37*
%TD.AperFunction*%
%TD*%
%TA.AperFunction,Conductor*%
%TO.N,GND*%
G36*
X194043039Y-68119685D02*
G01*
X194088794Y-68172489D01*
X194100000Y-68224000D01*
X194100000Y-79248636D01*
X194080315Y-79315675D01*
X194063681Y-79336318D01*
X193938650Y-79461348D01*
X193926456Y-79472041D01*
X193793094Y-79574375D01*
X193727925Y-79599570D01*
X193717607Y-79600000D01*
X191424000Y-79600000D01*
X191356961Y-79580315D01*
X191311206Y-79527511D01*
X191300000Y-79476000D01*
X191300000Y-77200000D01*
X190536819Y-76436819D01*
X190503334Y-76375496D01*
X190500500Y-76349138D01*
X190500500Y-68224000D01*
X190520185Y-68156961D01*
X190572989Y-68111206D01*
X190624500Y-68100000D01*
X193976000Y-68100000D01*
X194043039Y-68119685D01*
G37*
%TD.AperFunction*%
%TD*%
%TA.AperFunction,Conductor*%
%TO.N,GND*%
G36*
X199943039Y-66119685D02*
G01*
X199988794Y-66172489D01*
X200000000Y-66224000D01*
X200000000Y-67976000D01*
X199980315Y-68043039D01*
X199927511Y-68088794D01*
X199876000Y-68100000D01*
X197524000Y-68100000D01*
X197456961Y-68080315D01*
X197411206Y-68027511D01*
X197400000Y-67976000D01*
X197400000Y-66224000D01*
X197419685Y-66156961D01*
X197472489Y-66111206D01*
X197524000Y-66100000D01*
X199876000Y-66100000D01*
X199943039Y-66119685D01*
G37*
%TD.AperFunction*%
%TD*%
M02*
